ISO-10303-21;
HEADER;
FILE_DESCRIPTION(('ViewDefinition [CoordinationView_V2.0]'),'2;1');
FILE_NAME('Project Number','2025-01-20T10:21:30',(''),(''),'ODA IFC SDK 22.8','22.1.70.9 - Exporter 22.4.0.0 - Alternate UI 22.4.0.0','');
FILE_SCHEMA(('IFC2X3'));
ENDSEC;

DATA;
#1=IFCORGANIZATION($,'Autodesk Revit 2022 (ENG)',$,$,$);
#2=IFCAPPLICATION(#1,'2022','Autodesk Revit 2022 (ENG)','Revit');
#3=IFCCARTESIANPOINT((0.,0.,0.));
#4=IFCCARTESIANPOINT((0.,0.));
#5=IFCDIRECTION((1.,0.,0.));
#6=IFCDIRECTION((-1.,0.,0.));
#7=IFCDIRECTION((0.,1.,0.));
#8=IFCDIRECTION((0.,-1.,0.));
#9=IFCDIRECTION((0.,0.,1.));
#10=IFCDIRECTION((0.,0.,-1.));
#11=IFCDIRECTION((1.,0.));
#12=IFCDIRECTION((-1.,0.));
#13=IFCDIRECTION((0.,1.));
#14=IFCDIRECTION((0.,-1.));
#15=IFCAXIS2PLACEMENT3D(#3,$,$);
#16=IFCLOCALPLACEMENT(#106,#15);
#17=IFCPERSON($,'','Mark.Conn',$,$,$,$,$);
#18=IFCORGANIZATION($,'','',$,$);
#19=IFCPERSONANDORGANIZATION(#17,#18,$);
#20=IFCOWNERHISTORY(#19,#2,$,.NOCHANGE.,$,$,$,1737368488);
#21=IFCSIUNIT(*,.LENGTHUNIT.,.MILLI.,.METRE.);
#22=IFCSIUNIT(*,.LENGTHUNIT.,$,.METRE.);
#23=IFCSIUNIT(*,.AREAUNIT.,$,.SQUARE_METRE.);
#24=IFCSIUNIT(*,.VOLUMEUNIT.,$,.CUBIC_METRE.);
#25=IFCSIUNIT(*,.PLANEANGLEUNIT.,$,.RADIAN.);
#26=IFCDIMENSIONALEXPONENTS(0,0,0,0,0,0,0);
#27=IFCMEASUREWITHUNIT(IFCRATIOMEASURE(0.017453292519943278),#25);
#28=IFCCONVERSIONBASEDUNIT(#26,.PLANEANGLEUNIT.,'DEGREE',#27);
#29=IFCSIUNIT(*,.MASSUNIT.,.KILO.,.GRAM.);
#30=IFCDERIVEDUNITELEMENT(#29,1);
#31=IFCDERIVEDUNITELEMENT(#22,-3);
#32=IFCDERIVEDUNIT((#30,#31),.MASSDENSITYUNIT.,$);
#33=IFCDERIVEDUNITELEMENT(#22,4);
#34=IFCDERIVEDUNIT((#33),.MOMENTOFINERTIAUNIT.,$);
#35=IFCSIUNIT(*,.TIMEUNIT.,$,.SECOND.);
#36=IFCSIUNIT(*,.FREQUENCYUNIT.,$,.HERTZ.);
#37=IFCSIUNIT(*,.THERMODYNAMICTEMPERATUREUNIT.,$,.KELVIN.);
#38=IFCSIUNIT(*,.THERMODYNAMICTEMPERATUREUNIT.,$,.DEGREE_CELSIUS.);
#39=IFCDERIVEDUNITELEMENT(#29,1);
#40=IFCDERIVEDUNITELEMENT(#37,-1);
#41=IFCDERIVEDUNITELEMENT(#35,-3);
#42=IFCDERIVEDUNIT((#39,#40,#41),.THERMALTRANSMITTANCEUNIT.,$);
#43=IFCSIUNIT(*,.LENGTHUNIT.,.DECI.,.METRE.);
#44=IFCDERIVEDUNITELEMENT(#22,3);
#45=IFCDERIVEDUNITELEMENT(#35,-1);
#46=IFCDERIVEDUNIT((#44,#45),.VOLUMETRICFLOWRATEUNIT.,$);
#47=IFCDERIVEDUNITELEMENT(#29,1);
#48=IFCDERIVEDUNITELEMENT(#35,-1);
#49=IFCDERIVEDUNIT((#47,#48),.MASSFLOWRATEUNIT.,$);
#50=IFCDERIVEDUNITELEMENT(#35,-1);
#51=IFCDERIVEDUNIT((#50),.ROTATIONALFREQUENCYUNIT.,$);
#52=IFCSIUNIT(*,.ELECTRICCURRENTUNIT.,$,.AMPERE.);
#53=IFCSIUNIT(*,.ELECTRICVOLTAGEUNIT.,$,.VOLT.);
#54=IFCSIUNIT(*,.POWERUNIT.,$,.WATT.);
#55=IFCSIUNIT(*,.FORCEUNIT.,.KILO.,.NEWTON.);
#56=IFCSIUNIT(*,.ILLUMINANCEUNIT.,$,.LUX.);
#57=IFCSIUNIT(*,.LUMINOUSFLUXUNIT.,$,.LUMEN.);
#58=IFCSIUNIT(*,.LUMINOUSINTENSITYUNIT.,$,.CANDELA.);
#59=IFCDERIVEDUNITELEMENT(#29,-1);
#60=IFCDERIVEDUNITELEMENT(#22,-2);
#61=IFCDERIVEDUNITELEMENT(#35,3);
#62=IFCDERIVEDUNITELEMENT(#57,1);
#63=IFCDERIVEDUNIT((#59,#60,#61,#62),.USERDEFINED.,'Luminous Efficacy');
#64=IFCDERIVEDUNITELEMENT(#54,1);
#65=IFCDERIVEDUNIT((#64),.SOUNDPOWERUNIT.,$);
#66=IFCDERIVEDUNITELEMENT(#22,1);
#67=IFCDERIVEDUNITELEMENT(#35,-1);
#68=IFCDERIVEDUNIT((#66,#67),.LINEARVELOCITYUNIT.,$);
#69=IFCSIUNIT(*,.PRESSUREUNIT.,$,.PASCAL.);
#70=IFCDERIVEDUNITELEMENT(#22,-2);
#71=IFCDERIVEDUNITELEMENT(#29,1);
#72=IFCDERIVEDUNITELEMENT(#35,-2);
#73=IFCDERIVEDUNIT((#70,#71,#72),.USERDEFINED.,'Friction Loss');
#74=IFCDERIVEDUNITELEMENT(#29,1);
#75=IFCDERIVEDUNITELEMENT(#22,1);
#76=IFCDERIVEDUNITELEMENT(#35,-2);
#77=IFCDERIVEDUNITELEMENT(#22,-1);
#78=IFCDERIVEDUNIT((#74,#75,#76,#77),.LINEARFORCEUNIT.,$);
#79=IFCDERIVEDUNITELEMENT(#29,1);
#80=IFCDERIVEDUNITELEMENT(#22,1);
#81=IFCDERIVEDUNITELEMENT(#35,-2);
#82=IFCDERIVEDUNITELEMENT(#22,-2);
#83=IFCDERIVEDUNIT((#79,#80,#81,#82),.PLANARFORCEUNIT.,$);
#84=IFCUNITASSIGNMENT((#21,#23,#24,#28,#29,#32,#34,#35,#36,#38,#42,#46,#49,#51,#52,#53,#54,#55,#56,#57,#58,#63,#65,#68,#69,#73,#78,#83));
#85=IFCAXIS2PLACEMENT3D(#3,$,$);
#86=IFCDIRECTION((6.1230317691118863E-17,1.));
#87=IFCGEOMETRICREPRESENTATIONCONTEXT($,'Model',3,0.01,#85,#86);
#88=IFCGEOMETRICREPRESENTATIONSUBCONTEXT('Axis','Model',*,*,*,*,#87,$,.GRAPH_VIEW.,$);
#89=IFCGEOMETRICREPRESENTATIONSUBCONTEXT('Body','Model',*,*,*,*,#87,$,.MODEL_VIEW.,$);
#90=IFCGEOMETRICREPRESENTATIONSUBCONTEXT('Box','Model',*,*,*,*,#87,$,.MODEL_VIEW.,$);
#91=IFCGEOMETRICREPRESENTATIONSUBCONTEXT('FootPrint','Model',*,*,*,*,#87,$,.MODEL_VIEW.,$);
#92=IFCPROJECT('0Z2BgI1L1A5uC0xQXIpS2z',#20,'Project Number',$,$,'Project Name','Project Status',(#87),#84);
#93=IFCPROPERTYSINGLEVALUE('Category',$,IFCTEXT('Project Information'),$);
#94=IFCPROPERTYSET('2rJXkEDSBAC3M_T2SGGzhT',#20,'COBie','',(#93));
#95=IFCRELDEFINESBYPROPERTIES('2b9STPtojFxRhBAdvrx_x0',#20,$,$,(#92),#94);
#96=IFCPOSTALADDRESS($,$,$,$,('Enter address here'),$,'London','London','','United Kingdom');
#97=IFCBUILDING('0Z2BgI1L1A5uC0xQXIpS2y',#20,'',$,$,#16,$,'',.ELEMENT.,$,$,#96);
#98=IFCAXIS2PLACEMENT3D(#3,$,$);
#99=IFCLOCALPLACEMENT(#16,#98);
#100=IFCBUILDINGSTOREY('0Z2BgI1L1A5uC0xQYjCZvw',#20,'Level 0',$,'Level:Circle Head - Project Datum',#99,$,'Level 0',.ELEMENT.,0.);
#101=IFCCARTESIANPOINT((0.,0.,4000.));
#102=IFCAXIS2PLACEMENT3D(#101,$,$);
#105=IFCAXIS2PLACEMENT3D(#3,$,$);
#106=IFCLOCALPLACEMENT($,#105);
#107=IFCSITE('0Z2BgI1L1A5uC0xQXIpS2$',#20,'Default',$,$,#106,$,$,.ELEMENT.,(51,30,23,112487),(0,-7,-37,-956022),0.,$,$);
#108=IFCPROPERTYSINGLEVALUE('Category',$,IFCTEXT('Project Information'),$);
#109=IFCPROPERTYSET('2H0TQkCNn7R85DAvtYYY0W',#20,'COBie','',(#108));
#110=IFCRELDEFINESBYPROPERTIES('3p0wKxCKrADhzv65ETu2ay',#20,$,$,(#107),#109);
#111=IFCAXIS2PLACEMENT3D(#3,$,$);
#113=IFCCARTESIANPOINT((-46.,24.499999999972214,-67.));
#114=IFCCARTESIANPOINT((46.,24.499999999972207,-67.));
#115=IFCCARTESIANPOINT((46.,-28.,-67.));
#116=IFCCARTESIANPOINT((-46.,-28.,-67.));
#117=IFCPOLYLOOP((#113,#114,#115,#116));
#118=IFCFACEOUTERBOUND(#117,.T.);
#119=IFCFACE((#118));
#120=IFCCARTESIANPOINT((-46.,-43.,0.));
#121=IFCCARTESIANPOINT((-43.,-46.,0.));
#122=IFCCARTESIANPOINT((43.,-46.,0.));
#123=IFCCARTESIANPOINT((46.,-43.,0.));
#124=IFCCARTESIANPOINT((46.,35.499999999971742,0.));
#125=IFCCARTESIANPOINT((43.,46.,0.));
#126=IFCCARTESIANPOINT((-43.,46.,0.));
#127=IFCCARTESIANPOINT((-46.,35.499999999972708,0.));
#128=IFCPOLYLOOP((#120,#121,#122,#123,#124,#125,#126,#127));
#129=IFCFACEOUTERBOUND(#128,.T.);
#130=IFCFACE((#129));
#131=IFCCARTESIANPOINT((-43.,-46.,-47.300000000001866));
#132=IFCCARTESIANPOINT((43.,-46.,-47.300000000002747));
#133=IFCPOLYLOOP((#122,#121,#131,#132));
#134=IFCFACEOUTERBOUND(#133,.T.);
#135=IFCFACE((#134));
#136=IFCCARTESIANPOINT((46.,-43.,-47.300000000002775));
#137=IFCCARTESIANPOINT((46.,-28.,-47.300000000002733));
#138=IFCCARTESIANPOINT((46.,24.499999999972221,-47.300000000002399));
#139=IFCCARTESIANPOINT((46.,35.499999999971742,-47.300000000002441));
#140=IFCPOLYLOOP((#124,#123,#136,#137,#115,#114,#138,#139));
#141=IFCFACEOUTERBOUND(#140,.T.);
#142=IFCFACE((#141));
#143=IFCCARTESIANPOINT((43.,46.,-47.300000000002441));
#144=IFCCARTESIANPOINT((-43.,46.,-47.300000000001567));
#145=IFCPOLYLOOP((#126,#125,#143,#144));
#146=IFCFACEOUTERBOUND(#145,.T.);
#147=IFCFACE((#146));
#148=IFCCARTESIANPOINT((-46.,35.499999999972708,-47.300000000001496));
#149=IFCCARTESIANPOINT((-46.,24.499999999972221,-47.300000000001461));
#150=IFCCARTESIANPOINT((-46.,-28.,-47.300000000001788));
#151=IFCCARTESIANPOINT((-46.,-43.,-47.30000000000183));
#152=IFCPOLYLOOP((#120,#127,#148,#149,#113,#116,#150,#151));
#153=IFCFACEOUTERBOUND(#152,.T.);
#154=IFCFACE((#153));
#155=IFCPOLYLOOP((#121,#120,#151,#131));
#156=IFCFACEOUTERBOUND(#155,.T.);
#157=IFCFACE((#156));
#158=IFCPOLYLOOP((#123,#122,#132,#136));
#159=IFCFACEOUTERBOUND(#158,.T.);
#160=IFCFACE((#159));
#161=IFCPOLYLOOP((#125,#124,#139,#143));
#162=IFCFACEOUTERBOUND(#161,.T.);
#163=IFCFACE((#162));
#164=IFCPOLYLOOP((#127,#126,#144,#148));
#165=IFCFACEOUTERBOUND(#164,.T.);
#166=IFCFACE((#165));
#167=IFCPOLYLOOP((#149,#138,#114,#113));
#168=IFCFACEOUTERBOUND(#167,.T.);
#169=IFCFACE((#168));
#170=IFCPOLYLOOP((#138,#149,#148,#144,#143,#139));
#171=IFCFACEOUTERBOUND(#170,.T.);
#172=IFCFACE((#171));
#173=IFCPOLYLOOP((#137,#150,#116,#115));
#174=IFCFACEOUTERBOUND(#173,.T.);
#175=IFCFACE((#174));
#176=IFCPOLYLOOP((#150,#137,#136,#132,#131,#151));
#177=IFCFACEOUTERBOUND(#176,.T.);
#178=IFCFACE((#177));
#179=IFCCARTESIANPOINT((45.500000000006466,38.,7.));
#180=IFCCARTESIANPOINT((-45.49999999999369,38.,7.));
#181=IFCCARTESIANPOINT((-45.499999999993918,-45.50000000000847,7.));
#182=IFCCARTESIANPOINT((45.500000000006466,-45.500000000008434,7.));
#183=IFCPOLYLOOP((#179,#180,#181,#182));
#184=IFCFACEOUTERBOUND(#183,.T.);
#185=IFCFACE((#184));
#186=IFCCARTESIANPOINT((45.500000000006466,38.,5.));
#187=IFCCARTESIANPOINT((45.500000000006466,-45.500000000008434,5.));
#188=IFCCARTESIANPOINT((-45.499999999993918,-45.50000000000847,5.));
#189=IFCCARTESIANPOINT((-45.49999999999369,38.,5.));
#190=IFCPOLYLOOP((#186,#187,#188,#189));
#191=IFCFACEOUTERBOUND(#190,.T.);
#192=IFCFACE((#191));
#193=IFCPOLYLOOP((#180,#179,#186,#189));
#194=IFCFACEOUTERBOUND(#193,.T.);
#195=IFCFACE((#194));
#196=IFCPOLYLOOP((#181,#180,#189,#188));
#197=IFCFACEOUTERBOUND(#196,.T.);
#198=IFCFACE((#197));
#199=IFCPOLYLOOP((#182,#181,#188,#187));
#200=IFCFACEOUTERBOUND(#199,.T.);
#201=IFCFACE((#200));
#202=IFCPOLYLOOP((#179,#182,#187,#186));
#203=IFCFACEOUTERBOUND(#202,.T.);
#204=IFCFACE((#203));
#205=IFCCARTESIANPOINT((46.,48.,7.));
#206=IFCCARTESIANPOINT((-46.,48.,7.));
#207=IFCCARTESIANPOINT((-47.414213562354632,47.414213562362349,7.));
#208=IFCCARTESIANPOINT((-48.,46.,7.));
#209=IFCCARTESIANPOINT((-48.,-46.,7.));
#210=IFCCARTESIANPOINT((-47.414213562354625,-47.41421356237921,7.));
#211=IFCCARTESIANPOINT((-46.,-48.,7.));
#212=IFCCARTESIANPOINT((46.,-48.,7.));
#213=IFCCARTESIANPOINT((47.414213562379722,-47.41421356237921,7.));
#214=IFCCARTESIANPOINT((48.,-46.,7.));
#215=IFCCARTESIANPOINT((48.,46.,7.));
#216=IFCCARTESIANPOINT((47.414213562379722,47.414213562362349,7.));
#217=IFCCARTESIANPOINT((-45.499999999993683,38.,7.));
#218=IFCCARTESIANPOINT((45.500000000006459,38.,7.));
#219=IFCCARTESIANPOINT((45.500000000006473,-45.500000000008775,7.));
#220=IFCCARTESIANPOINT((-45.499999999993918,-45.500000000008136,7.));
#221=IFCCARTESIANPOINT((46.,48.,0.));
#222=IFCCARTESIANPOINT((47.414213562379722,47.414213562362349,0.));
#223=IFCCARTESIANPOINT((48.,46.,0.));
#224=IFCCARTESIANPOINT((48.,-46.,0.));
#225=IFCCARTESIANPOINT((47.414213562379722,-47.41421356237921,0.));
#226=IFCCARTESIANPOINT((46.,-48.,0.));
#227=IFCCARTESIANPOINT((-46.,-48.,0.));
#228=IFCCARTESIANPOINT((-47.414213562354625,-47.41421356237921,0.));
#229=IFCCARTESIANPOINT((-48.,-46.,0.));
#230=IFCCARTESIANPOINT((-48.,46.,0.));
#231=IFCCARTESIANPOINT((-47.414213562354632,47.414213562362349,0.));
#232=IFCCARTESIANPOINT((-46.,48.,0.));
#233=IFCCARTESIANPOINT((45.500000000006466,38.,5.));
#234=IFCCARTESIANPOINT((-45.49999999999369,38.,5.));
#235=IFCCARTESIANPOINT((-45.499999999993918,-45.500000000008136,5.));
#236=IFCCARTESIANPOINT((45.500000000006466,-45.500000000008775,5.));
#237=IFCPOLYLOOP((#215,#216,#205));
#238=IFCFACEOUTERBOUND(#237,.T.);
#239=IFCFACE((#238));
#240=IFCPOLYLOOP((#205,#218,#215));
#241=IFCFACEOUTERBOUND(#240,.T.);
#242=IFCFACE((#241));
#243=IFCPOLYLOOP((#215,#218,#214));
#244=IFCFACEOUTERBOUND(#243,.T.);
#245=IFCFACE((#244));
#246=IFCPOLYLOOP((#218,#205,#217));
#247=IFCFACEOUTERBOUND(#246,.T.);
#248=IFCFACE((#247));
#249=IFCPOLYLOOP((#206,#217,#205));
#250=IFCFACEOUTERBOUND(#249,.T.);
#251=IFCFACE((#250));
#252=IFCPOLYLOOP((#217,#206,#208));
#253=IFCFACEOUTERBOUND(#252,.T.);
#254=IFCFACE((#253));
#255=IFCPOLYLOOP((#207,#208,#206));
#256=IFCFACEOUTERBOUND(#255,.T.);
#257=IFCFACE((#256));
#258=IFCPOLYLOOP((#217,#208,#209));
#259=IFCFACEOUTERBOUND(#258,.T.);
#260=IFCFACE((#259));
#261=IFCPOLYLOOP((#220,#217,#209));
#262=IFCFACEOUTERBOUND(#261,.T.);
#263=IFCFACE((#262));
#264=IFCPOLYLOOP((#209,#210,#220));
#265=IFCFACEOUTERBOUND(#264,.T.);
#266=IFCFACE((#265));
#267=IFCPOLYLOOP((#211,#220,#210));
#268=IFCFACEOUTERBOUND(#267,.T.);
#269=IFCFACE((#268));
#270=IFCPOLYLOOP((#220,#211,#212));
#271=IFCFACEOUTERBOUND(#270,.T.);
#272=IFCFACE((#271));
#273=IFCPOLYLOOP((#212,#219,#220));
#274=IFCFACEOUTERBOUND(#273,.T.);
#275=IFCFACE((#274));
#276=IFCPOLYLOOP((#219,#212,#213));
#277=IFCFACEOUTERBOUND(#276,.T.);
#278=IFCFACE((#277));
#279=IFCPOLYLOOP((#213,#214,#219));
#280=IFCFACEOUTERBOUND(#279,.T.);
#281=IFCFACE((#280));
#282=IFCPOLYLOOP((#214,#218,#219));
#283=IFCFACEOUTERBOUND(#282,.T.);
#284=IFCFACE((#283));
#285=IFCPOLYLOOP((#230,#231,#232,#221,#222,#223,#224,#225,#226,#227,#228,#229));
#286=IFCFACEOUTERBOUND(#285,.T.);
#287=IFCFACE((#286));
#288=IFCPOLYLOOP((#206,#205,#221,#232));
#289=IFCFACEOUTERBOUND(#288,.T.);
#290=IFCFACE((#289));
#291=IFCPOLYLOOP((#209,#208,#230,#229));
#292=IFCFACEOUTERBOUND(#291,.T.);
#293=IFCFACE((#292));
#294=IFCPOLYLOOP((#212,#211,#227,#226));
#295=IFCFACEOUTERBOUND(#294,.T.);
#296=IFCFACE((#295));
#297=IFCPOLYLOOP((#215,#214,#224,#223));
#298=IFCFACEOUTERBOUND(#297,.T.);
#299=IFCFACE((#298));
#300=IFCPOLYLOOP((#233,#234,#235,#236));
#301=IFCFACEOUTERBOUND(#300,.T.);
#302=IFCFACE((#301));
#303=IFCPOLYLOOP((#234,#233,#218,#217));
#304=IFCFACEOUTERBOUND(#303,.T.);
#305=IFCFACE((#304));
#306=IFCPOLYLOOP((#235,#234,#217,#220));
#307=IFCFACEOUTERBOUND(#306,.T.);
#308=IFCFACE((#307));
#309=IFCPOLYLOOP((#236,#235,#220,#219));
#310=IFCFACEOUTERBOUND(#309,.T.);
#311=IFCFACE((#310));
#312=IFCPOLYLOOP((#233,#236,#219,#218));
#313=IFCFACEOUTERBOUND(#312,.T.);
#314=IFCFACE((#313));
#315=IFCPOLYLOOP((#206,#232,#231,#207));
#316=IFCFACEOUTERBOUND(#315,.T.);
#317=IFCFACE((#316));
#318=IFCPOLYLOOP((#231,#230,#208,#207));
#319=IFCFACEOUTERBOUND(#318,.T.);
#320=IFCFACE((#319));
#321=IFCPOLYLOOP((#209,#229,#228,#210));
#322=IFCFACEOUTERBOUND(#321,.T.);
#323=IFCFACE((#322));
#324=IFCPOLYLOOP((#228,#227,#211,#210));
#325=IFCFACEOUTERBOUND(#324,.T.);
#326=IFCFACE((#325));
#327=IFCPOLYLOOP((#212,#226,#225,#213));
#328=IFCFACEOUTERBOUND(#327,.T.);
#329=IFCFACE((#328));
#330=IFCPOLYLOOP((#225,#224,#214,#213));
#331=IFCFACEOUTERBOUND(#330,.T.);
#332=IFCFACE((#331));
#333=IFCPOLYLOOP((#215,#223,#222,#216));
#334=IFCFACEOUTERBOUND(#333,.T.);
#335=IFCFACE((#334));
#336=IFCPOLYLOOP((#222,#221,#205,#216));
#337=IFCFACEOUTERBOUND(#336,.T.);
#338=IFCFACE((#337));
#339=IFCCARTESIANPOINT((25.,-39.500000000008377,7.4999999999969544));
#340=IFCCARTESIANPOINT((35.,-39.500000000008349,7.4999999999969544));
#341=IFCCARTESIANPOINT((35.,-37.500000000008406,7.4999999999969607));
#342=IFCCARTESIANPOINT((25.,-37.500000000008257,7.4999999999969607));
#343=IFCPOLYLOOP((#339,#340,#341,#342));
#344=IFCFACEOUTERBOUND(#343,.T.);
#345=IFCFACE((#344));
#346=IFCCARTESIANPOINT((25.,-39.500000000008377,6.));
#347=IFCCARTESIANPOINT((35.,-39.500000000008349,6.));
#348=IFCPOLYLOOP((#340,#339,#346,#347));
#349=IFCFACEOUTERBOUND(#348,.T.);
#350=IFCFACE((#349));
#351=IFCCARTESIANPOINT((35.,-37.500000000008406,6.));
#352=IFCPOLYLOOP((#341,#340,#347,#351));
#353=IFCFACEOUTERBOUND(#352,.T.);
#354=IFCFACE((#353));
#355=IFCCARTESIANPOINT((25.,-37.500000000008257,6.));
#356=IFCPOLYLOOP((#342,#341,#351,#355));
#357=IFCFACEOUTERBOUND(#356,.T.);
#358=IFCFACE((#357));
#359=IFCPOLYLOOP((#339,#342,#355,#346));
#360=IFCFACEOUTERBOUND(#359,.T.);
#361=IFCFACE((#360));
#362=IFCPOLYLOOP((#346,#355,#351,#347));
#363=IFCFACEOUTERBOUND(#362,.T.);
#364=IFCFACE((#363));
#365=IFCCARTESIANPOINT((-25.,-37.500000000008257,6.));
#366=IFCCARTESIANPOINT((-25.,-39.500000000008335,6.));
#367=IFCCARTESIANPOINT((-35.,-39.500000000008079,6.));
#368=IFCCARTESIANPOINT((-35.,-37.500000000008257,6.));
#369=IFCPOLYLOOP((#365,#366,#367,#368));
#370=IFCFACEOUTERBOUND(#369,.T.);
#371=IFCFACE((#370));
#372=IFCCARTESIANPOINT((-35.,-37.500000000008257,7.4999999999969607));
#373=IFCCARTESIANPOINT((-25.,-37.500000000008214,7.4999999999969607));
#374=IFCPOLYLOOP((#372,#373,#365,#368));
#375=IFCFACEOUTERBOUND(#374,.T.);
#376=IFCFACE((#375));
#377=IFCCARTESIANPOINT((-35.,-39.500000000008086,7.4999999999969544));
#378=IFCPOLYLOOP((#377,#372,#368,#367));
#379=IFCFACEOUTERBOUND(#378,.T.);
#380=IFCFACE((#379));
#381=IFCCARTESIANPOINT((-25.,-39.500000000008349,7.4999999999969544));
#382=IFCPOLYLOOP((#381,#377,#367,#366));
#383=IFCFACEOUTERBOUND(#382,.T.);
#384=IFCFACE((#383));
#385=IFCPOLYLOOP((#373,#381,#366,#365));
#386=IFCFACEOUTERBOUND(#385,.T.);
#387=IFCFACE((#386));
#388=IFCPOLYLOOP((#373,#372,#377,#381));
#389=IFCFACEOUTERBOUND(#388,.T.);
#390=IFCFACE((#389));
#391=IFCCARTESIANPOINT((15.,-39.500000000008349,7.4999999999969544));
#392=IFCCARTESIANPOINT((5.,-39.500000000008349,7.4999999999969544));
#393=IFCCARTESIANPOINT((5.,-39.500000000008349,6.));
#394=IFCCARTESIANPOINT((15.,-39.500000000008349,6.));
#395=IFCPOLYLOOP((#391,#392,#393,#394));
#396=IFCFACEOUTERBOUND(#395,.T.);
#397=IFCFACE((#396));
#398=IFCCARTESIANPOINT((15.,-37.500000000008257,7.4999999999969607));
#399=IFCCARTESIANPOINT((15.,-37.500000000008257,6.));
#400=IFCPOLYLOOP((#398,#391,#394,#399));
#401=IFCFACEOUTERBOUND(#400,.T.);
#402=IFCFACE((#401));
#403=IFCCARTESIANPOINT((5.,-37.500000000008313,7.4999999999969607));
#404=IFCCARTESIANPOINT((5.,-37.500000000008257,6.));
#405=IFCPOLYLOOP((#403,#398,#399,#404));
#406=IFCFACEOUTERBOUND(#405,.T.);
#407=IFCFACE((#406));
#408=IFCPOLYLOOP((#392,#403,#404,#393));
#409=IFCFACEOUTERBOUND(#408,.T.);
#410=IFCFACE((#409));
#411=IFCPOLYLOOP((#393,#404,#399,#394));
#412=IFCFACEOUTERBOUND(#411,.T.);
#413=IFCFACE((#412));
#414=IFCPOLYLOOP((#392,#391,#398,#403));
#415=IFCFACEOUTERBOUND(#414,.T.);
#416=IFCFACE((#415));
#417=IFCCARTESIANPOINT((-15.,-37.500000000008249,7.4999999999969607));
#418=IFCCARTESIANPOINT((-5.,-37.500000000008257,7.4999999999969607));
#419=IFCCARTESIANPOINT((-5.,-37.500000000008257,6.));
#420=IFCCARTESIANPOINT((-15.,-37.500000000008257,6.));
#421=IFCPOLYLOOP((#417,#418,#419,#420));
#422=IFCFACEOUTERBOUND(#421,.T.);
#423=IFCFACE((#422));
#424=IFCCARTESIANPOINT((-15.,-39.500000000008349,7.4999999999969544));
#425=IFCCARTESIANPOINT((-15.,-39.500000000008349,6.));
#426=IFCPOLYLOOP((#424,#417,#420,#425));
#427=IFCFACEOUTERBOUND(#426,.T.);
#428=IFCFACE((#427));
#429=IFCCARTESIANPOINT((-5.,-39.500000000008285,7.4999999999969544));
#430=IFCCARTESIANPOINT((-5.,-39.500000000008349,6.));
#431=IFCPOLYLOOP((#429,#424,#425,#430));
#432=IFCFACEOUTERBOUND(#431,.T.);
#433=IFCFACE((#432));
#434=IFCPOLYLOOP((#418,#429,#430,#419));
#435=IFCFACEOUTERBOUND(#434,.T.);
#436=IFCFACE((#435));
#437=IFCPOLYLOOP((#419,#430,#425,#420));
#438=IFCFACEOUTERBOUND(#437,.T.);
#439=IFCFACE((#438));
#440=IFCPOLYLOOP((#418,#417,#424,#429));
#441=IFCFACEOUTERBOUND(#440,.T.);
#442=IFCFACE((#441));
#443=IFCCARTESIANPOINT((13.,40.,6.));
#444=IFCCARTESIANPOINT((12.,41.,6.));
#445=IFCCARTESIANPOINT((13.,42.,6.));
#446=IFCCARTESIANPOINT((14.,41.,6.));
#447=IFCCARTESIANPOINT((13.,40.,7.4999999999972138));
#448=IFCCARTESIANPOINT((14.,41.,7.4999999999972173));
#449=IFCCARTESIANPOINT((13.,42.,7.4999999999972209));
#450=IFCCARTESIANPOINT((12.,41.,7.4999999999972173));
#451=IFCPOLYLOOP((#443,#444,#445,#446));
#452=IFCFACEOUTERBOUND(#451,.T.);
#453=IFCFACE((#452));
#454=IFCPOLYLOOP((#448,#449,#450,#447));
#455=IFCFACEOUTERBOUND(#454,.T.);
#456=IFCFACE((#455));
#457=IFCPOLYLOOP((#443,#446,#448,#447));
#458=IFCFACEOUTERBOUND(#457,.T.);
#459=IFCFACE((#458));
#460=IFCPOLYLOOP((#448,#446,#445,#449));
#461=IFCFACEOUTERBOUND(#460,.T.);
#462=IFCFACE((#461));
#463=IFCPOLYLOOP((#445,#444,#450,#449));
#464=IFCFACEOUTERBOUND(#463,.T.);
#465=IFCFACE((#464));
#466=IFCPOLYLOOP((#450,#444,#443,#447));
#467=IFCFACEOUTERBOUND(#466,.T.);
#468=IFCFACE((#467));
#469=IFCCARTESIANPOINT((-13.,40.,7.4999999999972138));
#470=IFCCARTESIANPOINT((-12.,41.,7.4999999999972173));
#471=IFCCARTESIANPOINT((-13.,42.,7.4999999999972209));
#472=IFCCARTESIANPOINT((-14.,41.,7.4999999999972173));
#473=IFCCARTESIANPOINT((-13.,40.,6.));
#474=IFCCARTESIANPOINT((-14.,41.,6.));
#475=IFCCARTESIANPOINT((-13.,42.,6.));
#476=IFCCARTESIANPOINT((-12.,41.,6.));
#477=IFCPOLYLOOP((#470,#471,#472,#469));
#478=IFCFACEOUTERBOUND(#477,.T.);
#479=IFCFACE((#478));
#480=IFCPOLYLOOP((#473,#474,#475,#476));
#481=IFCFACEOUTERBOUND(#480,.T.);
#482=IFCFACE((#481));
#483=IFCPOLYLOOP((#469,#473,#476,#470));
#484=IFCFACEOUTERBOUND(#483,.T.);
#485=IFCFACE((#484));
#486=IFCPOLYLOOP((#476,#475,#471,#470));
#487=IFCFACEOUTERBOUND(#486,.T.);
#488=IFCFACE((#487));
#489=IFCPOLYLOOP((#471,#475,#474,#472));
#490=IFCFACEOUTERBOUND(#489,.T.);
#491=IFCFACE((#490));
#492=IFCPOLYLOOP((#474,#473,#469,#472));
#493=IFCFACEOUTERBOUND(#492,.T.);
#494=IFCFACE((#493));
#495=IFCCARTESIANPOINT((29.,3.,-67.));
#496=IFCCARTESIANPOINT((29.,3.,-80.200000000003712));
#497=IFCCARTESIANPOINT((29.,4.,-80.200000000003712));
#498=IFCCARTESIANPOINT((29.,4.,-78.15694487627826));
#499=IFCCARTESIANPOINT((29.,9.,-79.200000000003698));
#500=IFCCARTESIANPOINT((29.,9.,-80.200000000003698));
#501=IFCCARTESIANPOINT((29.,20.,-80.200000000003641));
#502=IFCCARTESIANPOINT((29.,20.,-67.));
#503=IFCPOLYLOOP((#495,#496,#497,#498,#499,#500,#501,#502));
#504=IFCFACEOUTERBOUND(#503,.T.);
#505=IFCFACE((#504));
#506=IFCCARTESIANPOINT((-29.,3.,-67.));
#507=IFCCARTESIANPOINT((-29.,20.,-67.));
#508=IFCCARTESIANPOINT((-29.,20.,-80.200000000003072));
#509=IFCCARTESIANPOINT((-29.,9.,-80.200000000003087));
#510=IFCCARTESIANPOINT((-29.,9.,-79.200000000003115));
#511=IFCCARTESIANPOINT((-29.,4.,-78.156944876277663));
#512=IFCCARTESIANPOINT((-29.,4.,-80.200000000003115));
#513=IFCCARTESIANPOINT((-29.,3.,-80.200000000003115));
#514=IFCPOLYLOOP((#506,#507,#508,#509,#510,#511,#512,#513));
#515=IFCFACEOUTERBOUND(#514,.T.);
#516=IFCFACE((#515));
#517=IFCPOLYLOOP((#496,#495,#506,#513));
#518=IFCFACEOUTERBOUND(#517,.T.);
#519=IFCFACE((#518));
#520=IFCPOLYLOOP((#497,#496,#513,#512));
#521=IFCFACEOUTERBOUND(#520,.T.);
#522=IFCFACE((#521));
#523=IFCPOLYLOOP((#498,#497,#512,#511));
#524=IFCFACEOUTERBOUND(#523,.T.);
#525=IFCFACE((#524));
#526=IFCPOLYLOOP((#499,#498,#511,#510));
#527=IFCFACEOUTERBOUND(#526,.T.);
#528=IFCFACE((#527));
#529=IFCPOLYLOOP((#500,#499,#510,#509));
#530=IFCFACEOUTERBOUND(#529,.T.);
#531=IFCFACE((#530));
#532=IFCPOLYLOOP((#501,#500,#509,#508));
#533=IFCFACEOUTERBOUND(#532,.T.);
#534=IFCFACE((#533));
#535=IFCPOLYLOOP((#502,#501,#508,#507));
#536=IFCFACEOUTERBOUND(#535,.T.);
#537=IFCFACE((#536));
#538=IFCPOLYLOOP((#495,#502,#507,#506));
#539=IFCFACEOUTERBOUND(#538,.T.);
#540=IFCFACE((#539));
#541=IFCCARTESIANPOINT((-29.,24.499999999972221,-47.300000000001631));
#542=IFCCARTESIANPOINT((-29.,37.,-47.300000000001631));
#543=IFCCARTESIANPOINT((-29.,37.,-54.300000000001461));
#544=IFCCARTESIANPOINT((-29.,36.,-54.300000000001461));
#545=IFCCARTESIANPOINT((-29.,35.,-59.300000000001461));
#546=IFCCARTESIANPOINT((-29.,37.,-59.300000000001461));
#547=IFCCARTESIANPOINT((-29.,37.,-60.300000000001468));
#548=IFCCARTESIANPOINT((-29.,24.499999999972221,-60.300000000001468));
#549=IFCPOLYLOOP((#541,#542,#543,#544,#545,#546,#547,#548));
#550=IFCFACEOUTERBOUND(#549,.T.);
#551=IFCFACE((#550));
#552=IFCCARTESIANPOINT((29.,24.499999999972221,-47.300000000002221));
#553=IFCCARTESIANPOINT((29.,24.499999999972221,-60.300000000002058));
#554=IFCCARTESIANPOINT((29.,37.,-60.300000000002058));
#555=IFCCARTESIANPOINT((29.,37.,-59.300000000002051));
#556=IFCCARTESIANPOINT((29.,35.,-59.300000000002051));
#557=IFCCARTESIANPOINT((29.,36.,-54.300000000002058));
#558=IFCCARTESIANPOINT((29.,37.,-54.300000000002058));
#559=IFCCARTESIANPOINT((29.,37.,-47.300000000002221));
#560=IFCPOLYLOOP((#552,#553,#554,#555,#556,#557,#558,#559));
#561=IFCFACEOUTERBOUND(#560,.T.);
#562=IFCFACE((#561));
#563=IFCPOLYLOOP((#553,#552,#541,#548));
#564=IFCFACEOUTERBOUND(#563,.T.);
#565=IFCFACE((#564));
#566=IFCPOLYLOOP((#554,#553,#548,#547));
#567=IFCFACEOUTERBOUND(#566,.T.);
#568=IFCFACE((#567));
#569=IFCPOLYLOOP((#555,#554,#547,#546));
#570=IFCFACEOUTERBOUND(#569,.T.);
#571=IFCFACE((#570));
#572=IFCPOLYLOOP((#556,#555,#546,#545));
#573=IFCFACEOUTERBOUND(#572,.T.);
#574=IFCFACE((#573));
#575=IFCPOLYLOOP((#557,#556,#545,#544));
#576=IFCFACEOUTERBOUND(#575,.T.);
#577=IFCFACE((#576));
#578=IFCPOLYLOOP((#558,#557,#544,#543));
#579=IFCFACEOUTERBOUND(#578,.T.);
#580=IFCFACE((#579));
#581=IFCPOLYLOOP((#559,#558,#543,#542));
#582=IFCFACEOUTERBOUND(#581,.T.);
#583=IFCFACE((#582));
#584=IFCPOLYLOOP((#552,#559,#542,#541));
#585=IFCFACEOUTERBOUND(#584,.T.);
#586=IFCFACE((#585));
#587=IFCCLOSEDSHELL((#119,#130,#135,#142,#147,#154,#157,#160,#163,#166,#169,#172,#175,#178));
#588=IFCFACETEDBREP(#587);
#589=IFCCOLOURRGB($,0.50196078431372548,0.50196078431372548,0.50196078431372548);
#590=IFCSURFACESTYLERENDERING(#589,0.,$,$,$,$,IFCNORMALISEDRATIOMEASURE(0.5),IFCSPECULAREXPONENT(64.),.NOTDEFINED.);
#591=IFCSURFACESTYLE('NBS_BenderUK_Grey',.BOTH.,(#590));
#592=IFCPRESENTATIONSTYLEASSIGNMENT((#591));
#593=IFCSTYLEDITEM(#588,(#592),$);
#594=IFCCLOSEDSHELL((#185,#192,#195,#198,#201,#204));
#595=IFCFACETEDBREP(#594);
#596=IFCCOLOURRGB($,0.098039215686274508,0.098039215686274508,0.098039215686274508);
#597=IFCSURFACESTYLERENDERING(#596,0.,$,$,$,$,IFCNORMALISEDRATIOMEASURE(0.5),IFCSPECULAREXPONENT(64.),.NOTDEFINED.);
#598=IFCSURFACESTYLE('NBS_BenderUK_DisplayScreen',.BOTH.,(#597));
#599=IFCPRESENTATIONSTYLEASSIGNMENT((#598));
#600=IFCSTYLEDITEM(#595,(#599),$);
#601=IFCCLOSEDSHELL((#239,#242,#245,#248,#251,#254,#257,#260,#263,#266,#269,#272,#275,#278,#281,#284,#287,#290,#293,#296,#299,#302,#305,#308,#311,#314,#317,#320,#323,#326,#329,#332,#335,#338));
#602=IFCFACETEDBREP(#601);
#603=IFCCOLOURRGB($,0.99607843137254903,0.792156862745098,0.19215686274509805);
#604=IFCSURFACESTYLERENDERING(#603,0.,$,$,$,$,IFCNORMALISEDRATIOMEASURE(0.5),IFCSPECULAREXPONENT(64.),.NOTDEFINED.);
#605=IFCSURFACESTYLE('NBS_BenderUK_Yellow',.BOTH.,(#604));
#606=IFCPRESENTATIONSTYLEASSIGNMENT((#605));
#607=IFCSTYLEDITEM(#602,(#606),$);
#608=IFCCLOSEDSHELL((#345,#350,#354,#358,#361,#364));
#609=IFCFACETEDBREP(#608);
#610=IFCSTYLEDITEM(#609,(#592),$);
#611=IFCCLOSEDSHELL((#371,#376,#380,#384,#387,#390));
#612=IFCFACETEDBREP(#611);
#613=IFCSTYLEDITEM(#612,(#592),$);
#614=IFCCLOSEDSHELL((#397,#402,#407,#410,#413,#416));
#615=IFCFACETEDBREP(#614);
#616=IFCSTYLEDITEM(#615,(#592),$);
#617=IFCCLOSEDSHELL((#423,#428,#433,#436,#439,#442));
#618=IFCFACETEDBREP(#617);
#619=IFCSTYLEDITEM(#618,(#592),$);
#620=IFCCLOSEDSHELL((#453,#456,#459,#462,#465,#468));
#621=IFCFACETEDBREP(#620);
#622=IFCSTYLEDITEM(#621,(#599),$);
#623=IFCCLOSEDSHELL((#479,#482,#485,#488,#491,#494));
#624=IFCFACETEDBREP(#623);
#625=IFCSTYLEDITEM(#624,(#599),$);
#626=IFCCLOSEDSHELL((#505,#516,#519,#522,#525,#528,#531,#534,#537,#540));
#627=IFCFACETEDBREP(#626);
#628=IFCCOLOURRGB($,0.5490196078431373,0.76470588235294112,0.59607843137254901);
#629=IFCSURFACESTYLERENDERING(#628,0.,$,$,$,$,IFCNORMALISEDRATIOMEASURE(0.5),IFCSPECULAREXPONENT(64.),.NOTDEFINED.);
#630=IFCSURFACESTYLE('NBS_BenderUK_Green',.BOTH.,(#629));
#631=IFCPRESENTATIONSTYLEASSIGNMENT((#630));
#632=IFCSTYLEDITEM(#627,(#631),$);
#633=IFCCLOSEDSHELL((#551,#562,#565,#568,#571,#574,#577,#580,#583,#586));
#634=IFCFACETEDBREP(#633);
#635=IFCSTYLEDITEM(#634,(#631),$);
#636=IFCSHAPEREPRESENTATION(#89,'Body','Brep',(#588,#595,#602,#609,#612,#615,#618,#621,#624,#627,#634));
#637=IFCAXIS2PLACEMENT3D(#3,$,$);
#638=IFCREPRESENTATIONMAP(#637,#636);
#639=IFCFLOWINSTRUMENTTYPE('3dQj5lvNP7A99NTj97WQ3Y',#20,'NBS_BenderUK_DgtlMtrngEqpmnt_LINETRAXXPEM353PowerQualityMeasuring:PEM353',$,$,(#750,#778,#791,#807),(#638),'311178',$,.NOTDEFINED.);
#640=IFCMATERIAL('NBS_BenderUK_Grey');
#641=IFCPRESENTATIONSTYLEASSIGNMENT((#591));
#642=IFCSTYLEDITEM($,(#641),$);
#643=IFCSTYLEDREPRESENTATION(#87,'Style','Material',(#642));
#644=IFCMATERIALDEFINITIONREPRESENTATION($,$,(#643),#640);
#645=IFCMATERIAL('NBS_BenderUK_DisplayScreen');
#646=IFCPRESENTATIONSTYLEASSIGNMENT((#598));
#647=IFCSTYLEDITEM($,(#646),$);
#648=IFCSTYLEDREPRESENTATION(#87,'Style','Material',(#647));
#649=IFCMATERIALDEFINITIONREPRESENTATION($,$,(#648),#645);
#650=IFCMATERIAL('NBS_BenderUK_Yellow');
#651=IFCPRESENTATIONSTYLEASSIGNMENT((#605));
#652=IFCSTYLEDITEM($,(#651),$);
#653=IFCSTYLEDREPRESENTATION(#87,'Style','Material',(#652));
#654=IFCMATERIALDEFINITIONREPRESENTATION($,$,(#653),#650);
#655=IFCMATERIAL('NBS_BenderUK_Green');
#656=IFCPRESENTATIONSTYLEASSIGNMENT((#630));
#657=IFCSTYLEDITEM($,(#656),$);
#658=IFCSTYLEDREPRESENTATION(#87,'Style','Material',(#657));
#659=IFCMATERIALDEFINITIONREPRESENTATION($,$,(#658),#655);
#660=IFCMATERIALLIST((#640,#645,#650,#640,#640,#640,#640,#645,#645,#655,#655));
#661=IFCCLASSIFICATION('NBS','Products v1.36',$,'Uniclass2015');
#662=IFCCLASSIFICATIONREFERENCE($,'Pr_80_51_51_22',$,#661);
#663=IFCRELASSOCIATESCLASSIFICATION('2nJnBoOBPFIO4dhdbs8XHu',#20,'Uniclass2015 Classification','',(#639,#672),#662);
#664=IFCCLASSIFICATION('https://www.csiresources.org/standards/uniformat','1998',$,'Uniformat');
#665=IFCCARTESIANTRANSFORMATIONOPERATOR3D($,$,#3,1.,$);
#666=IFCMAPPEDITEM(#638,#665);
#667=IFCSHAPEREPRESENTATION(#89,'Body','MappedRepresentation',(#666));
#668=IFCPRODUCTDEFINITIONSHAPE($,$,(#667));
#669=IFCCARTESIANPOINT((-2.,0.,0.));
#670=IFCAXIS2PLACEMENT3D(#669,#8,#5);
#671=IFCLOCALPLACEMENT(#99,#670);
#672=IFCDISTRIBUTIONCONTROLELEMENT('3dQj5lvNP7A99NTj97WTV1',#20,'NBS_BenderUK_DgtlMtrngEqpmnt_LINETRAXXPEM353PowerQualityMeasuring:PEM353:313513',$,'NBS_BenderUK_DgtlMtrngEqpmnt_LINETRAXXPEM353PowerQualityMeasuring:PEM353',#671,#668,'313513',$);
#673=IFCMATERIALLIST((#640,#645,#650,#640,#640,#640,#640,#645,#645,#655,#655));
#674=IFCPROPERTYSINGLEVALUE('IfcExportAs',$,IFCTEXT('IfcFlowInstrumentType'),$);
#675=IFCPROPERTYSINGLEVALUE('IfcExportType',$,IFCTEXT('COMBINED'),$);
#676=IFCPROPERTYSET('1SeyPdlIIZbgov0k3LEqvD',#20,'IFC','',(#674,#675));
#677=IFCPROPERTYSINGLEVALUE('AccessibilityPerformance',$,IFCTEXT('n/a'),$);
#678=IFCPROPERTYSINGLEVALUE('AssetIdentifier',$,IFCTEXT('n/a'),$);
#679=IFCPROPERTYSINGLEVALUE('AssetType',$,IFCTEXT('Fixed'),$);
#680=IFCPROPERTYSINGLEVALUE('BarCode',$,IFCTEXT('n/a'),$);
#681=IFCPROPERTYSINGLEVALUE('Category',$,IFCTEXT('Pr_80_51_51_22:Digital metering equipment'),$);
#682=IFCPROPERTYSINGLEVALUE('Color',$,IFCTEXT('n/a'),$);
#683=IFCPROPERTYSINGLEVALUE('Finish',$,IFCTEXT('n/a'),$);
#684=IFCPROPERTYSINGLEVALUE('Material',$,IFCTEXT('n/a'),$);
#685=IFCPROPERTYSINGLEVALUE('Shape',$,IFCTEXT('Square'),$);
#686=IFCPROPERTYSINGLEVALUE('Size',$,IFCTEXT('n/a'),$);
#687=IFCPROPERTYSINGLEVALUE('WarrantyDescription',$,IFCTEXT('Two year'),$);
#688=IFCPROPERTYSINGLEVALUE('CodePerformance',$,IFCTEXT('n/a'),$);
#689=IFCPROPERTYSINGLEVALUE('Constituents',$,IFCTEXT('n/a'),$);
#690=IFCPROPERTYSINGLEVALUE('Description',$,IFCTEXT('A digital universal measuring device for electricity supply networks.'),$);
#691=IFCPROPERTYSINGLEVALUE('DurationUnit',$,IFCTEXT('year'),$);
#692=IFCPROPERTYSINGLEVALUE('ExpectedLife',$,IFCTEXT('n/a'),$);
#693=IFCPROPERTYSINGLEVALUE('Features',$,IFCTEXT('n/a'),$);
#694=IFCPROPERTYSINGLEVALUE('Grade',$,IFCTEXT('n/a'),$);
#695=IFCPROPERTYSINGLEVALUE('InstallationDate',$,IFCTEXT('1900-12-31T23:59:59'),$);
#696=IFCPROPERTYSINGLEVALUE('Manufacturer',$,IFCTEXT('marketing@bender-uk.com'),$);
#697=IFCPROPERTYSINGLEVALUE('ModelNumber',$,IFCTEXT('n/a'),$);
#698=IFCPROPERTYSINGLEVALUE('ModelReference',$,IFCTEXT('LINETRAXX\X\AE PEM353 Power Quality Measuring'),$);
#699=IFCPROPERTYSINGLEVALUE('Name',$,IFCTEXT('DigitalMeteringEquipment_LINETRAXXPEM353PowerQualityMeasuring_PEM353_BenderUK'),$);
#700=IFCPROPERTYSINGLEVALUE('NominalHeight',$,IFCLENGTHMEASURE(0.),$);
#701=IFCPROPERTYSINGLEVALUE('NominalLength',$,IFCLENGTHMEASURE(0.),$);
#702=IFCPROPERTYSINGLEVALUE('NominalWidth',$,IFCLENGTHMEASURE(0.),$);
#703=IFCPROPERTYSINGLEVALUE('ReplacementCost',$,IFCTEXT('n/a'),$);
#704=IFCPROPERTYSINGLEVALUE('SerialNumber',$,IFCTEXT('n/a'),$);
#705=IFCPROPERTYSINGLEVALUE('SustainabilityPerformance',$,IFCTEXT('n/a'),$);
#706=IFCPROPERTYSINGLEVALUE('TagNumber',$,IFCTEXT('n/a'),$);
#707=IFCPROPERTYSINGLEVALUE('WarrantyDurationLabor',$,IFCTEXT('n/a'),$);
#708=IFCPROPERTYSINGLEVALUE('WarrantyDurationParts',$,IFCTEXT('n/a'),$);
#709=IFCPROPERTYSINGLEVALUE('WarrantyDurationUnit',$,IFCTEXT('year'),$);
#710=IFCPROPERTYSINGLEVALUE('WarrantyGuarantorLabor',$,IFCTEXT('n/a'),$);
#711=IFCPROPERTYSINGLEVALUE('WarrantyGuarantorParts',$,IFCTEXT('n/a'),$);
#712=IFCPROPERTYSINGLEVALUE('WarrantyStartDate',$,IFCTEXT('1900-12-31T23:59:59'),$);
#713=IFCPROPERTYSET('2iIhOeoMH2q$FCSq4tynVi',#20,'COBie','',(#677,#678,#679,#680,#681,#682,#683,#684,#685,#686,#687,#688,#689,#690,#691,#692,#693,#694,#695,#696,#697,#698,#699,#700,#701,#702,#703,#704,#705,#706,#707,#708,#709,#710,#711,#712));
#714=IFCPROPERTYSINGLEVALUE('Author',$,IFCTEXT('NBS'),$);
#715=IFCPROPERTYSINGLEVALUE('BIMObjectName',$,IFCTEXT('NBS_BenderUK_DigitalMeteringEquipment_LINETRAXXPEM353PowerQualityMeasuring_PEM353'),$);
#716=IFCPROPERTYSINGLEVALUE('ManufacturerName',$,IFCTEXT('Bender UK '),$);
#717=IFCPROPERTYSINGLEVALUE('ManufacturerURL',$,IFCTEXT('www.bender-uk.com'),$);
#718=IFCPROPERTYSINGLEVALUE('NBSInstanceId',$,IFCTEXT('9085cb80-18d5-4a51-9f3f-85c2b299f610'),$);
#719=IFCPROPERTYSINGLEVALUE('NBSObjectId',$,IFCTEXT('7d67bd71-9080-4d17-a8fa-9892d99a11ae'),$);
#720=IFCPROPERTYSINGLEVALUE('NBSVariantId',$,IFCTEXT('57d121a5-096c-39a3-7e2e-9ed888c63c37'),$);
#721=IFCPROPERTYSINGLEVALUE('ProductInformation',$,IFCTEXT('https://source.thenbs.com/product/-/7d67bd71-9080-4d17-a8fa-9892d99a11ae/9085cb80-18d5-4a51-9f3f-85c2b299f610'),$);
#722=IFCPROPERTYSINGLEVALUE('Uniclass2015Code',$,IFCTEXT('Pr_80_51_51_22'),$);
#723=IFCPROPERTYSINGLEVALUE('Uniclass2015Title',$,IFCTEXT('Digital metering equipment'),$);
#724=IFCPROPERTYSINGLEVALUE('Uniclass2015Version',$,IFCTEXT('Products v1.36'),$);
#725=IFCPROPERTYSINGLEVALUE('Version',$,IFCTEXT('2'),$);
#726=IFCPROPERTYSET('0UQf4Wu5GHbRjvKOvg6cVt',#20,'BOS_General','',(#714,#715,#716,#717,#718,#719,#720,#721,#722,#723,#724,#725));
#727=IFCPROPERTYSINGLEVALUE('Standards',$,IFCTEXT('To DIN EN 62053-22, DIN EN 61557-12 and DIN IEC 61554'),$);
#728=IFCPROPERTYSINGLEVALUE('CountryOfProductManufacture',$,IFCTEXT('Germany'),$);
#729=IFCPROPERTYSINGLEVALUE('Material',$,IFCTEXT('n/a'),$);
#730=IFCPROPERTYSINGLEVALUE('Recyclability',$,IFCTEXT('Can be returned to manufacturer for recycling under WEEE regulations'),$);
#731=IFCPROPERTYSINGLEVALUE('Display',$,IFCTEXT('LCD graphic display'),$);
#732=IFCPROPERTYSINGLEVALUE('RatedVoltage',$,IFCTEXT('TN and TT system (earthed): a.c. 230/400\X2\2013\X0\400/690 V, CAT III 600 V IT system (unearthed): a.c. 400\X2\2013\X0\480 V, CAT III 300 V/ a.c. 500\X2\2013\X0\690 V, CAT II 1000 V'),$);
#733=IFCPROPERTYSINGLEVALUE('PhaseArrangement',$,IFCTEXT('Single phase, two-wire,Three phase, three-wire,Three phase, four-wire'),$);
#734=IFCPROPERTYSINGLEVALUE('CurrentMeasuringRange',$,IFCTEXT('Via external CTs 1 A or 5 A'),$);
#735=IFCPROPERTYSINGLEVALUE('RatedFrequency',$,IFCTEXT('45\X2\2013\X0\65 Hz'),$);
#736=IFCPROPERTYSINGLEVALUE('MeteringFunctions',$,IFCTEXT('Phase (V).Line-to-line voltages (V).Phase currents (A).Neutral current (A).Residual current (A).Frequency (Hz).Power per phase conductor (kVA).Displacement factor cos \X2\03C6\X0\.Power factor (\X2\03BB\X0\).Active and reactive energy import (kWh, kvarh).Voltage phase angle (\X\B0).Current phase angle (\X\B0).Voltage unbalance (%).Current unbalance (%).Harmonic distortion (THD, TOHD, TEHD) for U and I.k-factor for I.Crest factor for I.Total demand distortion (TDD) for I'),$);
#737=IFCPROPERTYSINGLEVALUE('Mounting',$,IFCTEXT('Front panel'),$);
#738=IFCPROPERTYSINGLEVALUE('IngressProtectionMinimum',$,IFCTEXT('IP20 (installation); IP54 (front, with rubber seal)'),$);
#739=IFCPROPERTYSINGLEVALUE('Outputs',$,IFCTEXT('2 x relay'),$);
#740=IFCPROPERTYSINGLEVALUE('Communications',$,IFCTEXT('RS-485 (Modbus RTU, BACnet MS/TP, DNP)'),$);
#741=IFCPROPERTYSINGLEVALUE('Connections',$,IFCTEXT('Screw-type terminals, plug-in connector'),$);
#742=IFCPROPERTYSINGLEVALUE('InputCurrent',$,IFCTEXT('Current inputs (I1, I2, I3): 5 A/ 1 A'),$);
#743=IFCPROPERTYSET('1g1OM_jwgmrgHAripY$mZX',#20,'NBS_Data','',(#727,#728,#729,#730,#731,#732,#733,#734,#735,#736,#737,#738,#739,#740,#741,#742));
#744=IFCRELDEFINESBYPROPERTIES('0VPEgmO$D3xA0FJtRiRZqF',#20,$,$,(#672),#676);
#745=IFCRELDEFINESBYPROPERTIES('3cmoJl2Kz85BnWrWJaTZh7',#20,$,$,(#672),#713);
#746=IFCRELDEFINESBYPROPERTIES('0Bif1zu5v8VPXboCa2zIER',#20,$,$,(#672),#726);
#747=IFCRELDEFINESBYPROPERTIES('24tBJuKbjBtgiz0Hwzckxs',#20,$,$,(#672),#743);
#748=IFCPROPERTYSINGLEVALUE('IfcExportAs',$,IFCTEXT('IfcFlowInstrumentType'),$);
#749=IFCPROPERTYSINGLEVALUE('IfcExportType',$,IFCTEXT('COMBINED'),$);
#750=IFCPROPERTYSET('0R8bYpsQ5O2wdqRgAZib$M',#20,'IFC',$,(#748,#749));
#751=IFCPROPERTYSINGLEVALUE('AccessibilityPerformance',$,IFCTEXT('n/a'),$);
#752=IFCPROPERTYSINGLEVALUE('AssetType',$,IFCTEXT('Fixed'),$);
#753=IFCPROPERTYSINGLEVALUE('Category',$,IFCTEXT('Pr_80_51_51_22:Digital metering equipment'),$);
#754=IFCPROPERTYSINGLEVALUE('Color',$,IFCTEXT('n/a'),$);
#755=IFCPROPERTYSINGLEVALUE('Finish',$,IFCTEXT('n/a'),$);
#756=IFCPROPERTYSINGLEVALUE('Material',$,IFCTEXT('n/a'),$);
#757=IFCPROPERTYSINGLEVALUE('Shape',$,IFCTEXT('Square'),$);
#758=IFCPROPERTYSINGLEVALUE('Size',$,IFCTEXT('n/a'),$);
#759=IFCPROPERTYSINGLEVALUE('WarrantyDescription',$,IFCTEXT('Two year'),$);
#760=IFCPROPERTYSINGLEVALUE('CodePerformance',$,IFCTEXT('n/a'),$);
#761=IFCPROPERTYSINGLEVALUE('Constituents',$,IFCTEXT('n/a'),$);
#762=IFCPROPERTYSINGLEVALUE('Description',$,IFCTEXT('A digital universal measuring device for electricity supply networks.'),$);
#763=IFCPROPERTYSINGLEVALUE('DurationUnit',$,IFCTEXT('year'),$);
#764=IFCPROPERTYSINGLEVALUE('ExpectedLife',$,IFCTEXT('n/a'),$);
#765=IFCPROPERTYSINGLEVALUE('Features',$,IFCTEXT('n/a'),$);
#766=IFCPROPERTYSINGLEVALUE('Grade',$,IFCTEXT('n/a'),$);
#767=IFCPROPERTYSINGLEVALUE('Manufacturer',$,IFCTEXT('marketing@bender-uk.com'),$);
#768=IFCPROPERTYSINGLEVALUE('ModelNumber',$,IFCTEXT('n/a'),$);
#769=IFCPROPERTYSINGLEVALUE('ModelReference',$,IFCTEXT('LINETRAXX\X\AE PEM353 Power Quality Measuring'),$);
#770=IFCPROPERTYSINGLEVALUE('Name',$,IFCTEXT('DigitalMeteringEquipment_LINETRAXXPEM353PowerQualityMeasuring_PEM353_BenderUK'),$);
#771=IFCPROPERTYSINGLEVALUE('ReplacementCost',$,IFCTEXT('n/a'),$);
#772=IFCPROPERTYSINGLEVALUE('SustainabilityPerformance',$,IFCTEXT('n/a'),$);
#773=IFCPROPERTYSINGLEVALUE('WarrantyDurationLabor',$,IFCTEXT('n/a'),$);
#774=IFCPROPERTYSINGLEVALUE('WarrantyDurationParts',$,IFCTEXT('n/a'),$);
#775=IFCPROPERTYSINGLEVALUE('WarrantyDurationUnit',$,IFCTEXT('year'),$);
#776=IFCPROPERTYSINGLEVALUE('WarrantyGuarantorLabor',$,IFCTEXT('n/a'),$);
#777=IFCPROPERTYSINGLEVALUE('WarrantyGuarantorParts',$,IFCTEXT('n/a'),$);
#778=IFCPROPERTYSET('2CQgeAonywknMxTYNBpn5R',#20,'COBie',$,(#700,#701,#702,#751,#752,#753,#754,#755,#756,#757,#758,#759,#760,#761,#762,#763,#764,#765,#766,#767,#768,#769,#770,#771,#772,#773,#774,#775,#776,#777));
#779=IFCPROPERTYSINGLEVALUE('Author',$,IFCTEXT('NBS'),$);
#780=IFCPROPERTYSINGLEVALUE('BIMObjectName',$,IFCTEXT('NBS_BenderUK_DigitalMeteringEquipment_LINETRAXXPEM353PowerQualityMeasuring_PEM353'),$);
#781=IFCPROPERTYSINGLEVALUE('ManufacturerName',$,IFCTEXT('Bender UK '),$);
#782=IFCPROPERTYSINGLEVALUE('ManufacturerURL',$,IFCTEXT('www.bender-uk.com'),$);
#783=IFCPROPERTYSINGLEVALUE('NBSInstanceId',$,IFCTEXT('9085cb80-18d5-4a51-9f3f-85c2b299f610'),$);
#784=IFCPROPERTYSINGLEVALUE('NBSObjectId',$,IFCTEXT('7d67bd71-9080-4d17-a8fa-9892d99a11ae'),$);
#785=IFCPROPERTYSINGLEVALUE('NBSVariantId',$,IFCTEXT('57d121a5-096c-39a3-7e2e-9ed888c63c37'),$);
#786=IFCPROPERTYSINGLEVALUE('ProductInformation',$,IFCTEXT('https://source.thenbs.com/product/-/7d67bd71-9080-4d17-a8fa-9892d99a11ae/9085cb80-18d5-4a51-9f3f-85c2b299f610'),$);
#787=IFCPROPERTYSINGLEVALUE('Uniclass2015Code',$,IFCTEXT('Pr_80_51_51_22'),$);
#788=IFCPROPERTYSINGLEVALUE('Uniclass2015Title',$,IFCTEXT('Digital metering equipment'),$);
#789=IFCPROPERTYSINGLEVALUE('Uniclass2015Version',$,IFCTEXT('Products v1.36'),$);
#790=IFCPROPERTYSINGLEVALUE('Version',$,IFCTEXT('2'),$);
#791=IFCPROPERTYSET('0JV4CFB0MAleZITS64GS3c',#20,'BOS_General',$,(#779,#780,#781,#782,#783,#784,#785,#786,#787,#788,#789,#790));
#792=IFCPROPERTYSINGLEVALUE('Standards',$,IFCTEXT('To DIN EN 62053-22, DIN EN 61557-12 and DIN IEC 61554'),$);
#793=IFCPROPERTYSINGLEVALUE('CountryOfProductManufacture',$,IFCTEXT('Germany'),$);
#794=IFCPROPERTYSINGLEVALUE('Material',$,IFCTEXT('n/a'),$);
#795=IFCPROPERTYSINGLEVALUE('Recyclability',$,IFCTEXT('Can be returned to manufacturer for recycling under WEEE regulations'),$);
#796=IFCPROPERTYSINGLEVALUE('Display',$,IFCTEXT('LCD graphic display'),$);
#797=IFCPROPERTYSINGLEVALUE('RatedVoltage',$,IFCTEXT('TN and TT system (earthed): a.c. 230/400\X2\2013\X0\400/690 V, CAT III 600 V IT system (unearthed): a.c. 400\X2\2013\X0\480 V, CAT III 300 V/ a.c. 500\X2\2013\X0\690 V, CAT II 1000 V'),$);
#798=IFCPROPERTYSINGLEVALUE('PhaseArrangement',$,IFCTEXT('Single phase, two-wire,Three phase, three-wire,Three phase, four-wire'),$);
#799=IFCPROPERTYSINGLEVALUE('CurrentMeasuringRange',$,IFCTEXT('Via external CTs 1 A or 5 A'),$);
#800=IFCPROPERTYSINGLEVALUE('RatedFrequency',$,IFCTEXT('45\X2\2013\X0\65 Hz'),$);
#801=IFCPROPERTYSINGLEVALUE('MeteringFunctions',$,IFCTEXT('Phase (V).Line-to-line voltages (V).Phase currents (A).Neutral current (A).Residual current (A).Frequency (Hz).Power per phase conductor (kVA).Displacement factor cos \X2\03C6\X0\.Power factor (\X2\03BB\X0\).Active and reactive energy import (kWh, kvarh).Voltage phase angle (\X\B0).Current phase angle (\X\B0).Voltage unbalance (%).Current unbalance (%).Harmonic distortion (THD, TOHD, TEHD) for U and I.k-factor for I.Crest factor for I.Total demand distortion (TDD) for I'),$);
#802=IFCPROPERTYSINGLEVALUE('IngressProtectionMinimum',$,IFCTEXT('IP20 (installation); IP54 (front, with rubber seal)'),$);
#803=IFCPROPERTYSINGLEVALUE('Outputs',$,IFCTEXT('2 x relay'),$);
#804=IFCPROPERTYSINGLEVALUE('Communications',$,IFCTEXT('RS-485 (Modbus RTU, BACnet MS/TP, DNP)'),$);
#805=IFCPROPERTYSINGLEVALUE('Connections',$,IFCTEXT('Screw-type terminals, plug-in connector'),$);
#806=IFCPROPERTYSINGLEVALUE('InputCurrent',$,IFCTEXT('Current inputs (I1, I2, I3): 5 A/ 1 A'),$);
#807=IFCPROPERTYSET('1rSAAT7kjNAeE3ktcquVop',#20,'NBS_Data',$,(#792,#793,#794,#795,#796,#797,#798,#799,#800,#801,#802,#803,#804,#805,#806));
#808=IFCCARTESIANPOINT((0.,0.,-80.200000000003456));
#809=IFCAXIS2PLACEMENT3D(#808,#10,#6);
#810=IFCLOCALPLACEMENT(#671,#809);
#811=IFCDISTRIBUTIONPORT('0rgqIyZv9F$gIYCzPZqYAD',#20,'Port_313513','Flow',$,#810,$,.SOURCEANDSINK.);
#812=IFCRELCONNECTSPORTTOELEMENT('3oOzD35bzDvwd$4y5klXqx',#20,'313513|3oOzD35bzDvwd$4y5klXqx','Flow',#811,#672);
#813=IFCPROPERTYSINGLEVALUE('Category',$,IFCTEXT('Levels'),$);
#814=IFCPROPERTYSINGLEVALUE('Name',$,IFCTEXT('Level 0'),$);
#815=IFCPROPERTYSET('0Rt9$7alOE7zDml1YcXjem',#20,'COBie','',(#813,#814));
#816=IFCRELDEFINESBYPROPERTIES('03hBUm1$L5ifhkRIifzNMd',#20,$,$,(#100),#815);
#817=IFCRELCONTAINEDINSPATIALSTRUCTURE('3Zu5Bv0LOHrPC10066FoQQ',#20,$,$,(#672),#100);
#818=IFCRELAGGREGATES('37deHFUcLF0hFUuW4MpdJG',#20,$,$,#92,(#107));
#819=IFCRELAGGREGATES('0pSe13T3X4lh6TPZcBSMYI',#20,$,$,#107,(#97));
#820=IFCRELAGGREGATES('2$1LAsj$T3CPRLiPj39tWH',#20,$,$,#97,(#100));
#821=IFCPROPERTYSINGLEVALUE('Category',$,IFCTEXT('Project Information'),$);
#822=IFCPROPERTYSET('1QWXT1Tnn2DBX$THCt$Z7r',#20,'COBie','',(#821));
#823=IFCRELDEFINESBYPROPERTIES('1y5cfYRyz78gplc4aCVHVC',#20,$,$,(#97),#822);
#824=IFCRELASSOCIATESMATERIAL('2QX_JXnPX3AAsRU6yR6t$1',#20,$,$,(#639),#660);
#825=IFCRELASSOCIATESMATERIAL('1i$g2kqJDAwPvzoCuo_B$U',#20,$,$,(#672),#673);
#826=IFCRELDEFINESBYTYPE('0gEPyzCDHF5uAFR6Q4xgVq',#20,$,$,(#672),#639);
#827=IFCPRESENTATIONLAYERASSIGNMENT('E-610-M_EPS',$,(#636,#667),$);
ENDSEC;

END-ISO-10303-21;