ISO-10303-21;
HEADER;FILE_DESCRIPTION(('ViewDefinition [CoordinationView]'),'2;1');
FILE_NAME('\\\\sharedfs\\bimshare$\\BIMSHARE\\BIMAcademy\\Projects\\0014 NBS National BIM Library MEP Library\\Contract\\Content\\BatchC\\IFC\\nbl_PhotovoltaicModules.ifc','2014-08-26T13:51:14',(''),(''),'The EXPRESS Data Manager Version 5.02.0100.09 : 26 Sep 2013','20130308_1515(x64) - Exporter 2014.0.2013.0308 - Default UI','');
FILE_SCHEMA(('IFC2X3'));
ENDSEC;
DATA;
#1= IFCORGANIZATION($,'Autodesk Revit Architecture 2014 (ENU)',$,$,$);
#5= IFCAPPLICATION(#1,'2014','Autodesk Revit Architecture 2014 (ENU)','Revit');
#6= IFCCARTESIANPOINT((0.,0.,0.));
#10= IFCCARTESIANPOINT((0.,0.));
#12= IFCDIRECTION((1.,0.,0.));
#14= IFCDIRECTION((-1.,0.,0.));
#16= IFCDIRECTION((0.,1.,0.));
#18= IFCDIRECTION((0.,-1.,0.));
#20= IFCDIRECTION((0.,0.,1.));
#22= IFCDIRECTION((0.,0.,-1.));
#24= IFCDIRECTION((1.,0.));
#26= IFCDIRECTION((-1.,0.));
#28= IFCDIRECTION((0.,1.));
#30= IFCDIRECTION((0.,-1.));
#32= IFCAXIS2PLACEMENT3D(#6,$,$);
#33= IFCLOCALPLACEMENT(#474,#32);
#36= IFCPERSON($,'','NNSY4',$,$,$,$,$);
#38= IFCORGANIZATION($,'','',$,$);
#39= IFCPERSONANDORGANIZATION(#36,#38,$);
#40= IFCOWNERHISTORY(#39,#5,$,.NOCHANGE.,$,$,$,0);
#41= IFCSIUNIT(*,.LENGTHUNIT.,.MILLI.,.METRE.);
#42= IFCSIUNIT(*,.LENGTHUNIT.,$,.METRE.);
#43= IFCSIUNIT(*,.AREAUNIT.,$,.SQUARE_METRE.);
#44= IFCSIUNIT(*,.VOLUMEUNIT.,$,.CUBIC_METRE.);
#45= IFCSIUNIT(*,.PLANEANGLEUNIT.,$,.RADIAN.);
#46= IFCDIMENSIONALEXPONENTS(0,0,0,0,0,0,0);
#47= IFCMEASUREWITHUNIT(IFCRATIOMEASURE(0.0174532925199),#45);
#48= IFCCONVERSIONBASEDUNIT(#46,.PLANEANGLEUNIT.,'DEGREE',#47);
#49= IFCSIUNIT(*,.MASSUNIT.,.KILO.,.GRAM.);
#50= IFCSIUNIT(*,.TIMEUNIT.,$,.SECOND.);
#51= IFCSIUNIT(*,.THERMODYNAMICTEMPERATUREUNIT.,$,.KELVIN.);
#52= IFCDERIVEDUNITELEMENT(#49,1);
#53= IFCDERIVEDUNITELEMENT(#51,-1);
#54= IFCDERIVEDUNITELEMENT(#50,-3);
#55= IFCDERIVEDUNIT((#52,#53,#54),.THERMALTRANSMITTANCEUNIT.,$);
#56= IFCDERIVEDUNITELEMENT(#42,3);
#57= IFCDERIVEDUNITELEMENT(#50,-1);
#58= IFCDERIVEDUNIT((#56,#57),.VOLUMETRICFLOWRATEUNIT.,$);
#59= IFCSIUNIT(*,.POWERUNIT.,$,.WATT.);
#60= IFCUNITASSIGNMENT((#41,#43,#44,#48,#49,#50,#51,#55,#58,#59));
#61= IFCAXIS2PLACEMENT3D(#6,$,$);
#62= IFCDIRECTION((0.,1.));
#63= IFCGEOMETRICREPRESENTATIONCONTEXT($,'Model',3,1.00000000000E-5,#61,#62);
#66= IFCGEOMETRICREPRESENTATIONSUBCONTEXT('Axis','Model',*,*,*,*,#63,$,.GRAPH_VIEW.,$);
#67= IFCGEOMETRICREPRESENTATIONSUBCONTEXT('Body','Model',*,*,*,*,#63,$,.MODEL_VIEW.,$);
#68= IFCGEOMETRICREPRESENTATIONSUBCONTEXT('Box','Model',*,*,*,*,#63,$,.MODEL_VIEW.,$);
#69= IFCGEOMETRICREPRESENTATIONSUBCONTEXT('FootPrint','Model',*,*,*,*,#63,$,.MODEL_VIEW.,$);
#70= IFCGEOMETRICREPRESENTATIONCONTEXT($,'Annotation',3,1.00000000000E-5,#61,#62);
#71= IFCGEOMETRICREPRESENTATIONSUBCONTEXT($,'Annotation',*,*,*,*,#70,0.01,.PLAN_VIEW.,$);
#72= IFCPROJECT('0nNCig18D3euOdNQ9enKhT',#40,'Project Number',$,$,'Project Name','Project Status',(#63,#70),#60);
#78= IFCPOSTALADDRESS($,$,$,$,('Enter address here'),$,'Westminster','London','','UK');
#81= IFCBUILDING('0nNCig18D3euOdNQ9enKhS',#40,'',$,$,#33,$,'',.ELEMENT.,$,$,#78);
#86= IFCAXIS2PLACEMENT3D(#6,$,$);
#87= IFCLOCALPLACEMENT(#33,#86);
#88= IFCBUILDINGSTOREY('0nNCig18D3euOdNQANEhGQ',#40,'Level 0',$,$,#87,$,'Level 0',.ELEMENT.,0.);
#89= IFCCARTESIANPOINT((0.,0.,4000.));
#90= IFCAXIS2PLACEMENT3D(#89,$,$);
#91= IFCRELDEFINESBYPROPERTIES('2HJWJ4Mn525AkKOiaOQv2F',#40,$,$,(#88),#498);
#92= IFCRELCONTAINEDINSPATIALSTRUCTURE('3Zu5Bv0LOHrPC10066FoQQ',#40,$,$,(#877),#88);
#93= IFCAXIS2PLACEMENT3D(#6,$,$);
#94= IFCRELDEFINESBYPROPERTIES('0Lz2m3aVnARxKWDaanRvSM',#40,$,$,(#88),#497);
#95= IFCCARTESIANPOINT((-380.,0.,305.));
#96= IFCCARTESIANPOINT((-380.,0.,155.));
#97= IFCCARTESIANPOINT((-380.,0.,155.));
#98= IFCCARTESIANPOINT((-305.,0.,155.));
#99= IFCCARTESIANPOINT((-305.,0.,155.));
#100= IFCCARTESIANPOINT((-305.,0.,305.));
#101= IFCCARTESIANPOINT((-305.,0.,305.));
#102= IFCCARTESIANPOINT((-380.,0.,305.));
#103= IFCPOLYLOOP((#95,#97,#99,#101));
#104= IFCFACEOUTERBOUND(#103,.T.);
#105= IFCFACE((#104));
#106= IFCCARTESIANPOINT((-380.,5.,305.));
#107= IFCCARTESIANPOINT((-305.,5.,305.));
#108= IFCCARTESIANPOINT((-305.,5.,305.));
#109= IFCCARTESIANPOINT((-305.,5.,155.));
#110= IFCCARTESIANPOINT((-305.,5.,155.));
#111= IFCCARTESIANPOINT((-380.,5.,155.));
#112= IFCCARTESIANPOINT((-380.,5.,155.));
#113= IFCCARTESIANPOINT((-380.,5.,305.));
#114= IFCPOLYLOOP((#106,#108,#110,#112));
#115= IFCFACEOUTERBOUND(#114,.T.);
#116= IFCFACE((#115));
#117= IFCCARTESIANPOINT((-380.,0.,155.));
#118= IFCCARTESIANPOINT((-380.,0.,305.));
#119= IFCCARTESIANPOINT((-380.,0.,305.));
#120= IFCCARTESIANPOINT((-380.,5.,305.));
#121= IFCCARTESIANPOINT((-380.,5.,305.));
#122= IFCCARTESIANPOINT((-380.,5.,155.));
#123= IFCCARTESIANPOINT((-380.,5.,155.));
#124= IFCCARTESIANPOINT((-380.,0.,155.));
#125= IFCPOLYLOOP((#117,#119,#121,#123));
#126= IFCFACEOUTERBOUND(#125,.T.);
#127= IFCFACE((#126));
#128= IFCCARTESIANPOINT((-305.,0.,155.));
#129= IFCCARTESIANPOINT((-380.,0.,155.));
#130= IFCCARTESIANPOINT((-380.,0.,155.));
#131= IFCCARTESIANPOINT((-380.,5.,155.));
#132= IFCCARTESIANPOINT((-380.,5.,155.));
#133= IFCCARTESIANPOINT((-305.,5.,155.));
#134= IFCCARTESIANPOINT((-305.,5.,155.));
#135= IFCCARTESIANPOINT((-305.,0.,155.));
#136= IFCPOLYLOOP((#128,#130,#132,#134));
#137= IFCFACEOUTERBOUND(#136,.T.);
#138= IFCFACE((#137));
#139= IFCCARTESIANPOINT((-305.,0.,305.));
#140= IFCCARTESIANPOINT((-305.,0.,155.));
#141= IFCCARTESIANPOINT((-305.,0.,155.));
#142= IFCCARTESIANPOINT((-305.,5.,155.));
#143= IFCCARTESIANPOINT((-305.,5.,155.));
#144= IFCCARTESIANPOINT((-305.,5.,305.));
#145= IFCCARTESIANPOINT((-305.,5.,305.));
#146= IFCCARTESIANPOINT((-305.,0.,305.));
#147= IFCPOLYLOOP((#139,#141,#143,#145));
#148= IFCFACEOUTERBOUND(#147,.T.);
#149= IFCFACE((#148));
#150= IFCCARTESIANPOINT((-380.,0.,305.));
#151= IFCCARTESIANPOINT((-305.,0.,305.));
#152= IFCCARTESIANPOINT((-305.,0.,305.));
#153= IFCCARTESIANPOINT((-305.,5.,305.));
#154= IFCCARTESIANPOINT((-305.,5.,305.));
#155= IFCCARTESIANPOINT((-380.,5.,305.));
#156= IFCCARTESIANPOINT((-380.,5.,305.));
#157= IFCCARTESIANPOINT((-380.,0.,305.));
#158= IFCPOLYLOOP((#150,#152,#154,#156));
#159= IFCFACEOUTERBOUND(#158,.T.);
#160= IFCFACE((#159));
#161= IFCCARTESIANPOINT((480.,-35.,805.));
#162= IFCCARTESIANPOINT((-480.,-35.,805.));
#163= IFCCARTESIANPOINT((-480.,-35.,805.));
#164= IFCCARTESIANPOINT((-480.,-35.,-805.));
#165= IFCCARTESIANPOINT((-480.,-35.,-805.));
#166= IFCCARTESIANPOINT((480.,-35.,-805.));
#167= IFCCARTESIANPOINT((480.,-35.,-805.));
#168= IFCCARTESIANPOINT((480.,-35.,805.));
#169= IFCPOLYLOOP((#161,#163,#165,#167));
#170= IFCFACEOUTERBOUND(#169,.T.);
#171= IFCCARTESIANPOINT((-409.997628051,-35.,759.100151914));
#172= IFCCARTESIANPOINT((425.002371949,-35.,759.100151914));
#173= IFCCARTESIANPOINT((425.002371949,-35.,759.100151914));
#174= IFCCARTESIANPOINT((425.002371949,-35.,-760.899848086));
#175= IFCCARTESIANPOINT((425.002371949,-35.,-760.899848086));
#176= IFCCARTESIANPOINT((-409.997628051,-35.,-760.899848086));
#177= IFCCARTESIANPOINT((-409.997628051,-35.,-760.899848086));
#178= IFCCARTESIANPOINT((-409.997628051,-35.,759.100151914));
#179= IFCPOLYLOOP((#171,#173,#175,#177));
#180= IFCFACEBOUND(#179,.T.);
#181= IFCFACE((#170,#180));
#182= IFCCARTESIANPOINT((480.,0.,805.));
#183= IFCCARTESIANPOINT((480.,0.,-805.));
#184= IFCCARTESIANPOINT((480.,0.,-805.));
#185= IFCCARTESIANPOINT((-480.,0.,-805.));
#186= IFCCARTESIANPOINT((-480.,0.,-805.));
#187= IFCCARTESIANPOINT((-480.,0.,805.));
#188= IFCCARTESIANPOINT((-480.,0.,805.));
#189= IFCCARTESIANPOINT((480.,0.,805.));
#190= IFCPOLYLOOP((#182,#184,#186,#188));
#191= IFCFACEOUTERBOUND(#190,.T.);
#192= IFCFACE((#191));
#193= IFCCARTESIANPOINT((-480.,-35.,805.));
#194= IFCCARTESIANPOINT((480.,-35.,805.));
#195= IFCCARTESIANPOINT((480.,-35.,805.));
#196= IFCCARTESIANPOINT((480.,0.,805.));
#197= IFCCARTESIANPOINT((480.,0.,805.));
#198= IFCCARTESIANPOINT((-480.,0.,805.));
#199= IFCCARTESIANPOINT((-480.,0.,805.));
#200= IFCCARTESIANPOINT((-480.,-35.,805.));
#201= IFCPOLYLOOP((#193,#195,#197,#199));
#202= IFCFACEOUTERBOUND(#201,.T.);
#203= IFCFACE((#202));
#204= IFCCARTESIANPOINT((-480.,-35.,-805.));
#205= IFCCARTESIANPOINT((-480.,-35.,805.));
#206= IFCCARTESIANPOINT((-480.,-35.,805.));
#207= IFCCARTESIANPOINT((-480.,0.,805.));
#208= IFCCARTESIANPOINT((-480.,0.,805.));
#209= IFCCARTESIANPOINT((-480.,0.,-805.));
#210= IFCCARTESIANPOINT((-480.,0.,-805.));
#211= IFCCARTESIANPOINT((-480.,-35.,-805.));
#212= IFCPOLYLOOP((#204,#206,#208,#210));
#213= IFCFACEOUTERBOUND(#212,.T.);
#214= IFCFACE((#213));
#215= IFCCARTESIANPOINT((480.,-35.,-805.));
#216= IFCCARTESIANPOINT((-480.,-35.,-805.));
#217= IFCCARTESIANPOINT((-480.,-35.,-805.));
#218= IFCCARTESIANPOINT((-480.,0.,-805.));
#219= IFCCARTESIANPOINT((-480.,0.,-805.));
#220= IFCCARTESIANPOINT((480.,0.,-805.));
#221= IFCCARTESIANPOINT((480.,0.,-805.));
#222= IFCCARTESIANPOINT((480.,-35.,-805.));
#223= IFCPOLYLOOP((#215,#217,#219,#221));
#224= IFCFACEOUTERBOUND(#223,.T.);
#225= IFCFACE((#224));
#226= IFCCARTESIANPOINT((480.,-35.,805.));
#227= IFCCARTESIANPOINT((480.,-35.,-805.));
#228= IFCCARTESIANPOINT((480.,-35.,-805.));
#229= IFCCARTESIANPOINT((480.,0.,-805.));
#230= IFCCARTESIANPOINT((480.,0.,-805.));
#231= IFCCARTESIANPOINT((480.,0.,805.));
#232= IFCCARTESIANPOINT((480.,0.,805.));
#233= IFCCARTESIANPOINT((480.,-35.,805.));
#234= IFCPOLYLOOP((#226,#228,#230,#232));
#235= IFCFACEOUTERBOUND(#234,.T.);
#236= IFCFACE((#235));
#237= IFCCARTESIANPOINT((425.002371949,-29.,759.100151914));
#238= IFCCARTESIANPOINT((-409.997628051,-29.,759.100151914));
#239= IFCCARTESIANPOINT((-409.997628051,-29.,759.100151914));
#240= IFCCARTESIANPOINT((-409.997628051,-29.,-760.899848086));
#241= IFCCARTESIANPOINT((-409.997628051,-29.,-760.899848086));
#242= IFCCARTESIANPOINT((425.002371949,-29.,-760.899848086));
#243= IFCCARTESIANPOINT((425.002371949,-29.,-760.899848086));
#244= IFCCARTESIANPOINT((425.002371949,-29.,759.100151914));
#245= IFCPOLYLOOP((#237,#239,#241,#243));
#246= IFCFACEOUTERBOUND(#245,.T.);
#247= IFCFACE((#246));
#248= IFCCARTESIANPOINT((-409.997628051,-29.,759.100151914));
#249= IFCCARTESIANPOINT((425.002371949,-29.,759.100151914));
#250= IFCCARTESIANPOINT((425.002371949,-29.,759.100151914));
#251= IFCCARTESIANPOINT((425.002371949,-35.,759.100151914));
#252= IFCCARTESIANPOINT((425.002371949,-35.,759.100151914));
#253= IFCCARTESIANPOINT((-409.997628051,-35.,759.100151914));
#254= IFCCARTESIANPOINT((-409.997628051,-35.,759.100151914));
#255= IFCCARTESIANPOINT((-409.997628051,-29.,759.100151914));
#256= IFCPOLYLOOP((#248,#250,#252,#254));
#257= IFCFACEOUTERBOUND(#256,.T.);
#258= IFCFACE((#257));
#259= IFCCARTESIANPOINT((-409.997628051,-29.,-760.899848086));
#260= IFCCARTESIANPOINT((-409.997628051,-29.,759.100151914));
#261= IFCCARTESIANPOINT((-409.997628051,-29.,759.100151914));
#262= IFCCARTESIANPOINT((-409.997628051,-35.,759.100151914));
#263= IFCCARTESIANPOINT((-409.997628051,-35.,759.100151914));
#264= IFCCARTESIANPOINT((-409.997628051,-35.,-760.899848086));
#265= IFCCARTESIANPOINT((-409.997628051,-35.,-760.899848086));
#266= IFCCARTESIANPOINT((-409.997628051,-29.,-760.899848086));
#267= IFCPOLYLOOP((#259,#261,#263,#265));
#268= IFCFACEOUTERBOUND(#267,.T.);
#269= IFCFACE((#268));
#270= IFCCARTESIANPOINT((425.002371949,-29.,-760.899848086));
#271= IFCCARTESIANPOINT((-409.997628051,-29.,-760.899848086));
#272= IFCCARTESIANPOINT((-409.997628051,-29.,-760.899848086));
#273= IFCCARTESIANPOINT((-409.997628051,-35.,-760.899848086));
#274= IFCCARTESIANPOINT((-409.997628051,-35.,-760.899848086));
#275= IFCCARTESIANPOINT((425.002371949,-35.,-760.899848086));
#276= IFCCARTESIANPOINT((425.002371949,-35.,-760.899848086));
#277= IFCCARTESIANPOINT((425.002371949,-29.,-760.899848086));
#278= IFCPOLYLOOP((#270,#272,#274,#276));
#279= IFCFACEOUTERBOUND(#278,.T.);
#280= IFCFACE((#279));
#281= IFCCARTESIANPOINT((425.002371949,-29.,759.100151914));
#282= IFCCARTESIANPOINT((425.002371949,-29.,-760.899848086));
#283= IFCCARTESIANPOINT((425.002371949,-29.,-760.899848086));
#284= IFCCARTESIANPOINT((425.002371949,-35.,-760.899848086));
#285= IFCCARTESIANPOINT((425.002371949,-35.,-760.899848086));
#286= IFCCARTESIANPOINT((425.002371949,-35.,759.100151914));
#287= IFCCARTESIANPOINT((425.002371949,-35.,759.100151914));
#288= IFCCARTESIANPOINT((425.002371949,-29.,759.100151914));
#289= IFCPOLYLOOP((#281,#283,#285,#287));
#290= IFCFACEOUTERBOUND(#289,.T.);
#291= IFCFACE((#290));
#292= IFCCLOSEDSHELL((#105,#116,#127,#138,#149,#160));
#293= IFCFACETEDBREP(#292);
#294= IFCCOLOURRGB($,1.,1.,1.);
#295= IFCSURFACESTYLERENDERING(#294,0.,$,$,$,$,IFCNORMALISEDRATIOMEASURE(0.5),IFCSPECULAREXPONENT(64.),.NOTDEFINED.);
#296= IFCSURFACESTYLE('nbl_ConceptWhite',.BOTH.,(#295));
#297= IFCPRESENTATIONSTYLEASSIGNMENT((#296));
#298= IFCSTYLEDITEM(#293,(#297),$);
#299= IFCCLOSEDSHELL((#181,#192,#203,#214,#225,#236,#247,#258,#269,#280,#291));
#300= IFCFACETEDBREP(#299);
#301= IFCSTYLEDITEM(#300,(#297),$);
#302= IFCSHAPEREPRESENTATION(#67,'Body','Brep',(#293,#300));
#307= IFCAXIS2PLACEMENT3D(#6,$,$);
#308= IFCREPRESENTATIONMAP(#307,#302);
#310= IFCCARTESIANTRANSFORMATIONOPERATOR3D($,$,#6,1.,$);
#311= IFCMAPPEDITEM(#308,#861);
#312= IFCSHAPEREPRESENTATION(#67,'Body','MappedRepresentation',(#311));
#313= IFCPRODUCTDEFINITIONSHAPE($,$,(#312));
#316= IFCCARTESIANPOINT((-3642.8487284,-1845.57179061,0.));
#317= IFCAXIS2PLACEMENT3D(#316,$,$);
#318= IFCLOCALPLACEMENT(#87,#876);
#877= IFCENERGYCONVERSIONDEVICE('39j_U9WTn6qvyOoTGkmvBv',#838,'nbl_PhotovoltaicModules',$,'nbl_PhotovoltaicModules',#318,#313,'217411');





#342= IFCPROPERTYSINGLEVALUE('Circuit Number',$,IFCTEXT(''),$);
#343= IFCPROPERTYSINGLEVALUE('ModuleInterconnectionsModuleConnectors',$,IFCTEXT('User to Populate'),$);
#344= IFCPROPERTYSINGLEVALUE('MethodOfMeasurement',$,IFCTEXT('User to Populate'),$);
#345= IFCPROPERTYSINGLEVALUE('PowerFactor',$,IFCTEXT('User to Populate'),$);
#346= IFCPROPERTYSINGLEVALUE('Help',$,IFCTEXT('www.nationalBIMlibrary.com'),$);
#347= IFCPROPERTYSINGLEVALUE('ModuleInterconnectionsIngressProtectionMinimum',$,IFCTEXT('User to Populate'),$);
#348= IFCPROPERTYSINGLEVALUE('Features',$,IFCTEXT('User to Populate'),$);
#349= IFCPROPERTYSINGLEVALUE('Format',$,IFCTEXT('User to Populate'),$);
#350= IFCPROPERTYSINGLEVALUE('Material',$,IFCTEXT('User to Populate'),$);

#352= IFCPROPERTYSINGLEVALUE('Author',$,IFCTEXT('NBS'),$);
#354= IFCPROPERTYSINGLEVALUE('Manufacturer',$,IFCTEXT('User to Populate'),$);

#356= IFCPROPERTYSINGLEVALUE('NominalWidth',$,IFCLENGTHMEASURE(960.),$);
#357= IFCPROPERTYSINGLEVALUE('ServiceLifeDuration',$,IFCTEXT('User to Populate'),$);
#358= IFCPROPERTYSINGLEVALUE('FrameworkColour',$,IFCTEXT('User to Populate'),$);
#359= IFCPROPERTYSINGLEVALUE('ConductorFunction',$,IFCTEXT('User to Populate'),$);

#361= IFCPROPERTYSINGLEVALUE('IssueDate',$,IFCTEXT('28-August-2014'),$);
#362= IFCPROPERTYSINGLEVALUE('RatedVoltage',$,IFCTEXT('User to Populate'),$);
#363= IFCPROPERTYSINGLEVALUE('PhaseReference',$,IFCTEXT('User to Populate'),$);
#364= IFCPROPERTYSINGLEVALUE('Status',$,IFCTEXT('User to Populate'),$);
#365= IFCPROPERTYSINGLEVALUE('NominalCurrent',$,IFCREAL(0.),$);
#366= IFCPROPERTYSINGLEVALUE('ByPassDiodes',$,IFCTEXT('User to Populate'),$);
#367= IFCPROPERTYSINGLEVALUE('NBSReference',$,IFCTEXT('90-50-80/310'),$);
#369= IFCPROPERTYSINGLEVALUE('IP_Code',$,IFCTEXT('User to Populate'),$);
#370= IFCPROPERTYSINGLEVALUE('Reference',$,IFCTEXT('User to Populate'),$);
#371= IFCPROPERTYSINGLEVALUE('IfcExportAs',$,IFCTEXT('IfcBuildingElementProxyType'),$);
#372= IFCPROPERTYSINGLEVALUE('DocumentReference',$,IFCTEXT('User to Populate'),$);
#373= IFCPROPERTYSINGLEVALUE('Colour',$,IFCTEXT('User to Populate'),$);
#374= IFCPROPERTYSINGLEVALUE('Description',$,IFCTEXT('User to Populate'),$);
#375= IFCPROPERTYSINGLEVALUE('HasProtectiveEarth',$,IFCBOOLEAN(.T.),$);
#376= IFCPROPERTYSINGLEVALUE('ModelReference',$,IFCTEXT('User to Populate'),$);
#377= IFCPROPERTYSINGLEVALUE('NumberOfPoles',$,IFCINTEGER(0),$);

#379= IFCPROPERTYSINGLEVALUE('Documentation',$,IFCTEXT('User to Populate'),$);
#380= IFCPROPERTYSINGLEVALUE('ElectricalDeviceNominalPower',$,IFCREAL(0.),$);

#382= IFCPROPERTYSINGLEVALUE('Uniclass2',$,IFCTEXT('User to Populate'),$);
#383= IFCPROPERTYSINGLEVALUE('InsulationStandardClass',$,IFCTEXT('User to Populate'),$);
#384= IFCPROPERTYSINGLEVALUE('RatedCurrent',$,IFCTEXT('User to Populate'),$);
#385= IFCPROPERTYSINGLEVALUE('CodePerformance',$,IFCTEXT('User to Populate'),$);
#386= IFCPROPERTYSINGLEVALUE('DegreeOfProtection',$,IFCTEXT('User to Populate'),$);
#387= IFCPROPERTYSINGLEVALUE('Finish',$,IFCTEXT('User to Populate'),$);
#388= IFCPROPERTYSINGLEVALUE('WarrantyStartDate',$,IFCTEXT('User to Populate'),$);
#389= IFCPROPERTYSINGLEVALUE('ManufacturerURL',$,IFCTEXT('www.nationalBIMlibrary.com'),$);
#391= IFCPROPERTYSINGLEVALUE('PhaseAngle',$,IFCPLANEANGLEMEASURE(0.),$);
#392= IFCPROPERTYSINGLEVALUE('NominalLength',$,IFCLENGTHMEASURE(35.),$);
#394= IFCPROPERTYSINGLEVALUE('InstallationDate',$,IFCTEXT('User to Populate'),$);
#395= IFCPROPERTYSINGLEVALUE('ModuleInterconnectionsType',$,IFCTEXT('User to Populate'),$);
#396= IFCPROPERTYSINGLEVALUE('BIMObjectName',$,IFCTEXT('nbl_PhotovoltaicModules'),$);
#398= IFCPROPERTYSINGLEVALUE('FrameworkMaterial',$,IFCTEXT('User to Populate'),$);
#400= IFCPROPERTYSINGLEVALUE('NominalOutputOfModulePeakPower',$,IFCTEXT('User to Populate'),$);
#401= IFCPROPERTYSINGLEVALUE('WarrantyDurationLabour',$,IFCTEXT('User to Populate'),$);
#402= IFCPROPERTYSINGLEVALUE('WarrantyGuarantorParts',$,IFCTEXT('User to Populate'),$);
#403= IFCPROPERTYSINGLEVALUE('AssetIdentifier',$,IFCTEXT('User to Populate'),$);
#404= IFCPROPERTYSINGLEVALUE('WarrantyDescription',$,IFCTEXT('User to Populate'),$);
#405= IFCPROPERTYSINGLEVALUE('ProductionYear',$,IFCTEXT('User to Populate'),$);
#406= IFCPROPERTYSINGLEVALUE('WarrantyGuarantorLabour',$,IFCTEXT('User to Populate'),$);
#407= IFCPROPERTYSINGLEVALUE('Size',$,IFCTEXT('User to Populate'),$);
#408= IFCPROPERTYSINGLEVALUE('ServiceLifeType',$,IFCTEXT('User to Populate'),$);
#409= IFCPROPERTYSINGLEVALUE('Constituents',$,IFCTEXT('User to Populate'),$);
#410= IFCPROPERTYSINGLEVALUE('SustainabilityPerformance',$,IFCTEXT('User to Populate'),$);
#411= IFCPROPERTYSINGLEVALUE('NominalFrequencyRange',$,IFCREAL(0.),$);
#412= IFCPROPERTYSINGLEVALUE('CellType',$,IFCTEXT('User to Populate'),$);
#413= IFCPROPERTYSINGLEVALUE('OutputWarrantyMinimum',$,IFCTEXT('User to Populate'),$);
#414= IFCPROPERTYSINGLEVALUE('LifeCyclePhase',$,IFCTEXT('User to Populate'),$);
#415= IFCPROPERTYSINGLEVALUE('UsageCurrent',$,IFCREAL(0.),$);
#416= IFCPROPERTYSINGLEVALUE('NBSDescription',$,IFCTEXT('Photovoltaic Modules'),$);
#417= IFCPROPERTYSINGLEVALUE('AccessibilityPerformance',$,IFCTEXT('User to Populate'),$);
#418= IFCPROPERTYSINGLEVALUE('Grade',$,IFCTEXT('User to Populate'),$);
#419= IFCPROPERTYSINGLEVALUE('TagNumber',$,IFCTEXT('User to Populate'),$);
#420= IFCPROPERTYSINGLEVALUE('NominalHeight',$,IFCLENGTHMEASURE(1610.),$);
#421= IFCPROPERTYSINGLEVALUE('Version',$,IFCTEXT('1.0'),$);
#422= IFCPROPERTYSINGLEVALUE('NominalVoltage',$,IFCREAL(0.),$);
#423= IFCPROPERTYSINGLEVALUE('Process',$,IFCTEXT('User to Populate'),$);
#424= IFCPROPERTYSINGLEVALUE('ModelLabel',$,IFCTEXT('User to Populate'),$);
#426= IFCPROPERTYSINGLEVALUE('NominalOutputPowerOutputTolerance',$,IFCTEXT('User to Populate'),$);
#427= IFCPROPERTYSINGLEVALUE('WarrantyDurationParts',$,IFCTEXT('User to Populate'),$);
#428= IFCPROPERTYSINGLEVALUE('Shape',$,IFCTEXT('User to Populate'),$);
#429= IFCPROPERTYSINGLEVALUE('SerialNumber',$,IFCTEXT('User to Populate'),$);
#430= IFCPROPERTYSINGLEVALUE('ReplacementCost',$,IFCTEXT('User to Populate'),$);
#432= IFCPROPERTYSINGLEVALUE('NBSTypeID',$,IFCTEXT('User to Populate'),$);
#433= IFCPROPERTYSINGLEVALUE('ReferenceStandard',$,IFCTEXT('User to Populate'),$);
#434= IFCPROPERTYSINGLEVALUE('IfcExportType',$,IFCTEXT('SOLARPANEL'),$);
#435= IFCPROPERTYSINGLEVALUE('BarCode',$,IFCTEXT('User to Populate'),$);
#436= IFCPROPERTYSINGLEVALUE('Cost',$,IFCREAL(0.),$);
#437= IFCPROPERTYSINGLEVALUE('NBSNote',$,IFCTEXT('User to Populate'),$);
#442= IFCRELDEFINESBYPROPERTIES('0WNR06rtDDhg_nL1qa$P_7',#40,$,$,(#877),#438);
#444= IFCRELDEFINESBYPROPERTIES('2$sqQ_IQLBduD7s1T7YS6W',#40,$,$,(#877),#443);

#446= IFCRELDEFINESBYPROPERTIES('2gRfP1eur0rwY_wiSDu7WT',#40,$,$,(#877),#445);

#448= IFCRELDEFINESBYPROPERTIES('0th7E8vEb4pABJDgBJ5YEC',#40,$,$,(#877),#447);

#450= IFCRELDEFINESBYPROPERTIES('0J2vX7hKb0WAd3d_yXSzRS',#40,$,$,(#877),#449);
#451= IFCPROPERTYSET('1Xfcgz9wz5AxnJf5wEb4Ef',#40,'NBS',$,(#343,#347,#349,#358,#366,#386,#395,#398,#400,#412,#413,#426));
#452= IFCPROPERTYSET('0NYoEvylr0excT5NsWJl$Y',#40,'COBie',$,(#354,#344,#348,#350,#356,#357,#371,#372,#373,#376,#379,#385,#387,#388,#392,#394,#401,#402,#403,#404,#405,#406,#407,#408,#409,#410,#414,#417,#418,#419,#420,#423,#424,#427,#428,#429,#430,#433,#434,#435,#436));
#453= IFCPROPERTYSET('0IKrA9auv24ORpfs9atUw7',#40,'Pset_ElectricalDeviceCommon',$,(#345,#359,#362,#363,#365,#369,#375,#377,#380,#383,#384,#391,#411,#415,#422));
#454= IFCPROPERTYSET('2X8P5Dx01D5wCwjwPprJcf',#40,'NBL_General',$,(#374,#346,#352,#361,#367,#382,#389,#396,#416,#421,#432,#437));

#456= IFCPROPERTYSET('3h_y5EHo10EOezHLPIsMYv',#40,'Pset_SolarDeviceTypeCommon',$,(#364,#370));
#460= IFCPRESENTATIONSTYLEASSIGNMENT((#296));
#461= IFCSTYLEDITEM($,(#460),$);
#462= IFCSTYLEDREPRESENTATION(#63,'Style','Material',(#461));
#463= IFCMATERIALDEFINITIONREPRESENTATION($,$,(#462),#457);
#469= IFCRELDEFINESBYPROPERTIES('2jFf2P93X0Mgg_w7L4GGi5',#40,$,$,(#877),#468);
#472= IFCRELDEFINESBYPROPERTIES('0S6NQfa8z3rvk5QCVl7aUs',#40,$,$,(#877),#471);
#473= IFCAXIS2PLACEMENT3D(#6,$,$);
#474= IFCLOCALPLACEMENT($,#473);
#475= IFCSITE('0nNCig18D3euOdNQ9enKhV',#40,'Default',$,'',#474,$,$,.ELEMENT.,(51,30,0,549316),(0,-7,-34,-450321),0.,$,$);
#478= IFCRELDEFINESBYPROPERTIES('1H6hwHyVX3CR2ECgYs_uQm',#40,$,$,(#88),#477);

#482= IFCPROPERTYSINGLEVALUE('Computation Height',$,IFCLENGTHMEASURE(0.),$);
#484= IFCPROPERTYSINGLEVALUE('Color',$,IFCINTEGER(0),$);
#485= IFCPROPERTYSINGLEVALUE('Symbol',$,IFCLABEL('Level Head - Circle: Level Head - Circle'),$);
#486= IFCPROPERTYSINGLEVALUE('Symbol at End 1 Default',$,IFCBOOLEAN(.T.),$);
#487= IFCPROPERTYSINGLEVALUE('Symbol at End 2 Default',$,IFCBOOLEAN(.F.),$);
#489= IFCPROPERTYSINGLEVALUE('Line Weight',$,IFCIDENTIFIER('1'),$);
#490= IFCPROPERTYSINGLEVALUE('Line Pattern',$,IFCLABEL('Centre'),$);
#492= IFCRELDEFINESBYPROPERTIES('0SlM$CJdfBrxro$tLRBPyd',#40,$,$,(#88),#491);
#494= IFCRELDEFINESBYPROPERTIES('0hPTW3IefEfxQE9lBxkenN',#40,$,$,(#88),#493);
#495= IFCPROPERTYSET('04hdmPw5D7Pe13STybOxmc',#40,'Dimensions',$,(#482));
#496= IFCRELDEFINESBYPROPERTIES('3cjG0j$3j1h8uZrvynk0_m',#40,$,$,(#88),#495);
#497= IFCPROPERTYSET('1eJ9whLLf0hxv$1xLdvgnF',#40,'Graphics',$,(#484,#485,#486,#487,#489,#490));
#499= IFCRELAGGREGATES('2Ds61TF8nBew7gtMLnrTog',#40,$,$,#72,(#475));
#500= IFCRELAGGREGATES('0YLuJ6YjH6E9yjHwDyT$BN',#40,$,$,#475,(#81));
#501= IFCRELAGGREGATES('2$1LAsj$T3CPRLiPj39tWH',#40,$,$,#81,(#88));
#504= IFCRELDEFINESBYPROPERTIES('3JZ$j$fa50SeNQGg6pX_uL',#40,$,$,(#81),#503);
#506= IFCPROPERTYSINGLEVALUE('Project Name',$,IFCTEXT('Project Name'),$);
#508= IFCPROPERTYSINGLEVALUE('Project Number',$,IFCTEXT('Project Number'),$);
#509= IFCPROPERTYSINGLEVALUE('Project Issue Date',$,IFCTEXT('Issue Date'),$);
#510= IFCPROPERTYSINGLEVALUE('Project Address',$,IFCTEXT('Enter address here'),$);
#511= IFCPROPERTYSINGLEVALUE('Project Status',$,IFCTEXT('Project Status'),$);

#514= IFCPROPERTYSINGLEVALUE('Client Name',$,IFCTEXT('Owner'),$);
#516= IFCRELDEFINESBYPROPERTIES('2GtLkYHdX4zelupgD5oMPb',#40,$,$,(#81),#515);
#517= IFCPROPERTYSET('0HFYWs4mLBfBMcZYpi6EHv',#40,'Other',$,(#506,#508,#509,#510,#511,#514));
#518= IFCRELDEFINESBYPROPERTIES('0Xty3ZaM5B$eBIi_4$hwf8',#40,$,$,(#81),#517);
#519= IFCRELASSOCIATESMATERIAL('2qhN10VZ11mAmGNhuM3Z3c',#40,$,$,(),#457);
#520= IFCRELDEFINESBYPROPERTIES('2DLoi$4K53XP8WfMQmlMxR',#40,$,$,(#877),#451);
#521= IFCRELDEFINESBYPROPERTIES('3X5RqQezb36x8$vLkSaixh',#40,$,$,(#877),#452);
#522= IFCRELDEFINESBYPROPERTIES('0xXYWL6en6cv0_C6N4fRjy',#40,$,$,(#877),#453);
#523= IFCRELDEFINESBYPROPERTIES('31xD4ZwQD1uRd443kQKlHo',#40,$,$,(#877),#454);
#524= IFCRELDEFINESBYPROPERTIES('2OPaMx6ljBA9zK73zH1X6L',#40,$,$,(#877),#455);
#525= IFCRELDEFINESBYPROPERTIES('2Mc4KIXj57P8t5vwBdAcfc',#40,$,$,(#877),#456);
#526= IFCPRESENTATIONLAYERASSIGNMENT('E-610-M_EPS',$,(#302,#312),$);
#836= IFCORGANIZATION($,'Graphisoft SE',$,$,$);
#837= IFCAPPLICATION(#836,'17.0.0','ArchiCAD Connection for Revit 2014','Add-in version: 6008 INT 64 bit');
#838= IFCOWNERHISTORY(#39,#5,$,.MODIFIEDADDED.,$,$,#837,0);
#843= IFCRELDEFINESBYPROPERTIES('3pGPRxUiz0pvO0IjHoyTnJ',#838,$,$,(#877),#841);
#847= IFCCARTESIANPOINT((0.,0.,0.));
#849= IFCCARTESIANPOINT((0.,0.,0.));
#851= IFCDIRECTION((0.,0.,1.));
#853= IFCDIRECTION((1.,0.,0.));
#855= IFCAXIS2PLACEMENT3D(#849,#851,#853);
#856= IFCDIRECTION((1.,0.));
#858= IFCGEOMETRICREPRESENTATIONCONTEXT($,'Model',3,1.00000000000E-5,#855,#856);
#859= IFCGEOMETRICREPRESENTATIONSUBCONTEXT('Axis','Model',*,*,*,*,#858,$,.MODEL_VIEW.,$);
#861= IFCCARTESIANTRANSFORMATIONOPERATOR3D(#864,#866,#862,1.,#868);
#862= IFCCARTESIANPOINT((0.,0.,0.));
#864= IFCDIRECTION((1.,0.,0.));
#866= IFCDIRECTION((0.,1.,0.));
#868= IFCDIRECTION((0.,0.,1.));
#870= IFCCARTESIANPOINT((-3642.8487284,-1845.57179061,0.));
#872= IFCDIRECTION((0.,0.,1.));
#874= IFCDIRECTION((1.,0.,0.));
#876= IFCAXIS2PLACEMENT3D(#870,#872,#874);
#881= IFCPROPERTYSINGLEVALUE('Type',$,IFCTEXT('Flow Equipment'),$);
#885= IFCRELDEFINESBYPROPERTIES('317J$qYRfBd9IOXTdi9V3j',#838,$,$,(#877),#883);
ENDSEC;
END-ISO-10303-21;
