  0
SECTION
  2
HEADER
  9
$ACADVER
  1
AC1024
  9
$ACADMAINTVER
 70
6
  9
$DWGCODEPAGE
  3
ANSI_1252
  9
$LASTSAVEDBY
  1
ezdxf
  9
$INSBASE
 10
0.0
 20
0.0
 30
0.0
  9
$EXTMIN
 10
1e+20
 20
1e+20
 30
1e+20
  9
$EXTMAX
 10
-1e+20
 20
-1e+20
 30
-1e+20
  9
$LIMMIN
 10
0.0
 20
0.0
  9
$LIMMAX
 10
420.0
 20
297.0
  9
$ORTHOMODE
 70
0
  9
$REGENMODE
 70
1
  9
$FILLMODE
 70
1
  9
$QTEXTMODE
 70
0
  9
$MIRRTEXT
 70
1
  9
$LTSCALE
 40
1.0
  9
$ATTMODE
 70
1
  9
$TEXTSIZE
 40
2.5
  9
$TRACEWID
 40
1.0
  9
$TEXTSTYLE
  7
Standard
  9
$CLAYER
  8
0
  9
$CELTYPE
  6
ByLayer
  9
$CECOLOR
 62
256
  9
$CELTSCALE
 40
1.0
  9
$DISPSILH
 70
0
  9
$DIMSCALE
 40
1.0
  9
$DIMASZ
 40
2.5
  9
$DIMEXO
 40
0.625
  9
$DIMDLI
 40
3.75
  9
$DIMRND
 40
0.0
  9
$DIMDLE
 40
0.0
  9
$DIMEXE
 40
1.25
  9
$DIMTP
 40
0.0
  9
$DIMTM
 40
0.0
  9
$DIMTXT
 40
2.5
  9
$DIMCEN
 40
2.5
  9
$DIMTSZ
 40
0.0
  9
$DIMTOL
 70
0
  9
$DIMLIM
 70
0
  9
$DIMTIH
 70
0
  9
$DIMTOH
 70
0
  9
$DIMSE1
 70
0
  9
$DIMSE2
 70
0
  9
$DIMTAD
 70
1
  9
$DIMZIN
 70
8
  9
$DIMBLK
  1

  9
$DIMASO
 70
1
  9
$DIMSHO
 70
1
  9
$DIMPOST
  1

  9
$DIMAPOST
  1

  9
$DIMALT
 70
0
  9
$DIMALTD
 70
3
  9
$DIMALTF
 40
0.03937007874
  9
$DIMLFAC
 40
1.0
  9
$DIMTOFL
 70
1
  9
$DIMTVP
 40
0.0
  9
$DIMTIX
 70
0
  9
$DIMSOXD
 70
0
  9
$DIMSAH
 70
0
  9
$DIMBLK1
  1

  9
$DIMBLK2
  1

  9
$DIMSTYLE
  2
ISO-25
  9
$DIMCLRD
 70
0
  9
$DIMCLRE
 70
0
  9
$DIMCLRT
 70
0
  9
$DIMTFAC
 40
1.0
  9
$DIMGAP
 40
0.625
  9
$DIMJUST
 70
0
  9
$DIMSD1
 70
0
  9
$DIMSD2
 70
0
  9
$DIMTOLJ
 70
0
  9
$DIMTZIN
 70
8
  9
$DIMALTZ
 70
0
  9
$DIMALTTZ
 70
0
  9
$DIMUPT
 70
0
  9
$DIMDEC
 70
2
  9
$DIMTDEC
 70
2
  9
$DIMALTU
 70
2
  9
$DIMALTTD
 70
3
  9
$DIMTXSTY
  7
Standard
  9
$DIMAUNIT
 70
0
  9
$DIMADEC
 70
0
  9
$DIMALTRND
 40
0.0
  9
$DIMAZIN
 70
0
  9
$DIMDSEP
 70
44
  9
$DIMATFIT
 70
3
  9
$DIMFRAC
 70
0
  9
$DIMLDRBLK
  1

  9
$DIMLUNIT
 70
2
  9
$DIMLWD
 70
-2
  9
$DIMLWE
 70
-2
  9
$DIMTMOVE
 70
0
  9
$DIMFXL
 40
1.0
  9
$DIMFXLON
 70
0
  9
$DIMJOGANG
 40
0.785398163397
  9
$DIMTFILL
 70
0
  9
$DIMTFILLCLR
 70
0
  9
$DIMARCSYM
 70
0
  9
$DIMLTYPE
  6

  9
$DIMLTEX1
  6

  9
$DIMLTEX2
  6

  9
$DIMTXTDIRECTION
 70
0
  9
$LUNITS
 70
2
  9
$LUPREC
 70
4
  9
$SKETCHINC
 40
1.0
  9
$FILLETRAD
 40
10.0
  9
$AUNITS
 70
0
  9
$AUPREC
 70
2
  9
$MENU
  1
.
  9
$ELEVATION
 40
0.0
  9
$PELEVATION
 40
0.0
  9
$THICKNESS
 40
0.0
  9
$LIMCHECK
 70
0
  9
$CHAMFERA
 40
0.0
  9
$CHAMFERB
 40
0.0
  9
$CHAMFERC
 40
0.0
  9
$CHAMFERD
 40
0.0
  9
$SKPOLY
 70
0
  9
$TDCREATE
 40
2461152.676226852
  9
$TDUCREATE
 40
2458532.153996898
  9
$TDUPDATE
 40
2461152.676226852
  9
$TDUUPDATE
 40
2458532.1544311
  9
$TDINDWG
 40
0.0
  9
$TDUSRTIMER
 40
0.0
  9
$USRTIMER
 70
1
  9
$ANGBASE
 50
0.0
  9
$ANGDIR
 70
0
  9
$PDMODE
 70
0
  9
$PDSIZE
 40
0.0
  9
$PLINEWID
 40
0.0
  9
$SPLFRAME
 70
0
  9
$SPLINETYPE
 70
6
  9
$SPLINESEGS
 70
8
  9
$HANDSEED
  5
1DF
  9
$SURFTAB1
 70
6
  9
$SURFTAB2
 70
6
  9
$SURFTYPE
 70
6
  9
$SURFU
 70
6
  9
$SURFV
 70
6
  9
$UCSBASE
  2

  9
$UCSNAME
  2

  9
$UCSORG
 10
0.0
 20
0.0
 30
0.0
  9
$UCSXDIR
 10
1.0
 20
0.0
 30
0.0
  9
$UCSYDIR
 10
0.0
 20
1.0
 30
0.0
  9
$UCSORTHOREF
  2

  9
$UCSORTHOVIEW
 70
0
  9
$UCSORGTOP
 10
0.0
 20
0.0
 30
0.0
  9
$UCSORGBOTTOM
 10
0.0
 20
0.0
 30
0.0
  9
$UCSORGLEFT
 10
0.0
 20
0.0
 30
0.0
  9
$UCSORGRIGHT
 10
0.0
 20
0.0
 30
0.0
  9
$UCSORGFRONT
 10
0.0
 20
0.0
 30
0.0
  9
$UCSORGBACK
 10
0.0
 20
0.0
 30
0.0
  9
$PUCSBASE
  2

  9
$PUCSNAME
  2

  9
$PUCSORG
 10
0.0
 20
0.0
 30
0.0
  9
$PUCSXDIR
 10
1.0
 20
0.0
 30
0.0
  9
$PUCSYDIR
 10
0.0
 20
1.0
 30
0.0
  9
$PUCSORTHOREF
  2

  9
$PUCSORTHOVIEW
 70
0
  9
$PUCSORGTOP
 10
0.0
 20
0.0
 30
0.0
  9
$PUCSORGBOTTOM
 10
0.0
 20
0.0
 30
0.0
  9
$PUCSORGLEFT
 10
0.0
 20
0.0
 30
0.0
  9
$PUCSORGRIGHT
 10
0.0
 20
0.0
 30
0.0
  9
$PUCSORGFRONT
 10
0.0
 20
0.0
 30
0.0
  9
$PUCSORGBACK
 10
0.0
 20
0.0
 30
0.0
  9
$USERI1
 70
0
  9
$USERI2
 70
0
  9
$USERI3
 70
0
  9
$USERI4
 70
0
  9
$USERI5
 70
0
  9
$USERR1
 40
0.0
  9
$USERR2
 40
0.0
  9
$USERR3
 40
0.0
  9
$USERR4
 40
0.0
  9
$USERR5
 40
0.0
  9
$WORLDVIEW
 70
1
  9
$SHADEDGE
 70
3
  9
$SHADEDIF
 70
70
  9
$TILEMODE
 70
1
  9
$MAXACTVP
 70
64
  9
$PINSBASE
 10
0.0
 20
0.0
 30
0.0
  9
$PLIMCHECK
 70
0
  9
$PEXTMIN
 10
1e+20
 20
1e+20
 30
1e+20
  9
$PEXTMAX
 10
-1e+20
 20
-1e+20
 30
-1e+20
  9
$PLIMMIN
 10
0.0
 20
0.0
  9
$PLIMMAX
 10
420.0
 20
297.0
  9
$UNITMODE
 70
0
  9
$VISRETAIN
 70
1
  9
$PLINEGEN
 70
0
  9
$PSLTSCALE
 70
1
  9
$TREEDEPTH
 70
3020
  9
$CMLSTYLE
  2
Standard
  9
$CMLJUST
 70
0
  9
$CMLSCALE
 40
20.0
  9
$PROXYGRAPHICS
 70
1
  9
$MEASUREMENT
 70
1
  9
$CELWEIGHT
370
-1
  9
$ENDCAPS
280
0
  9
$JOINSTYLE
280
0
  9
$LWDISPLAY
290
0
  9
$INSUNITS
 70
4
  9
$HYPERLINKBASE
  1

  9
$STYLESHEET
  1

  9
$XEDIT
290
1
  9
$CEPSNTYPE
380
0
  9
$PSTYLEMODE
290
1
  9
$FINGERPRINTGUID
  2
{CB3D307F-5850-4DB4-92F9-C62D929862BD}
  9
$VERSIONGUID
  2
{FCA825CA-0CED-44F3-AE54-0B09C2883F9A}
  9
$EXTNAMES
290
1
  9
$PSVPSCALE
 40
0.0
  9
$OLESTARTUP
290
0
  9
$SORTENTS
280
127
  9
$INDEXCTL
280
0
  9
$HIDETEXT
280
1
  9
$XCLIPFRAME
280
1
  9
$HALOGAP
280
0
  9
$OBSCOLOR
 70
257
  9
$OBSLTYPE
280
0
  9
$INTERSECTIONDISPLAY
280
0
  9
$INTERSECTIONCOLOR
 70
257
  9
$DIMASSOC
280
2
  9
$PROJECTNAME
  1

  9
$CAMERADISPLAY
290
0
  9
$LENSLENGTH
 40
50.0
  9
$CAMERAHEIGHT
 40
0.0
  9
$STEPSPERSEC
 40
24.0
  9
$STEPSIZE
 40
100.0
  9
$3DDWFPREC
 40
2.0
  9
$PSOLWIDTH
 40
0.005
  9
$PSOLHEIGHT
 40
0.08
  9
$LOFTANG1
 40
1.570796326795
  9
$LOFTANG2
 40
1.570796326795
  9
$LOFTMAG1
 40
0.0
  9
$LOFTMAG2
 40
0.0
  9
$LOFTPARAM
 70
7
  9
$LOFTNORMALS
280
1
  9
$LATITUDE
 40
37.795
  9
$LONGITUDE
 40
-122.394
  9
$NORTHDIRECTION
 40
0.0
  9
$TIMEZONE
 70
-8000
  9
$LIGHTGLYPHDISPLAY
280
1
  9
$TILEMODELIGHTSYNCH
280
1
  9
$CMATERIAL
347
20
  9
$SOLIDHIST
280
0
  9
$SHOWHIST
280
1
  9
$DWFFRAME
280
2
  9
$DGNFRAME
280
2
  9
$REALWORLDSCALE
290
1
  9
$INTERFERECOLOR
 62
256
  9
$CSHADOW
280
0
  9
$SHADOWPLANELOCATION
 40
0.0
  0
ENDSEC
  0
SECTION
  2
CLASSES
  0
CLASS
  1
ACDBDICTIONARYWDFLT
  2
AcDbDictionaryWithDefault
  3
ObjectDBX Classes
 90
0
 91
0
280
0
281
0
  0
CLASS
  1
SUN
  2
AcDbSun
  3
SCENEOE
 90
1153
 91
0
280
0
281
0
  0
CLASS
  1
VISUALSTYLE
  2
AcDbVisualStyle
  3
ObjectDBX Classes
 90
4095
 91
0
280
0
281
0
  0
CLASS
  1
MATERIAL
  2
AcDbMaterial
  3
ObjectDBX Classes
 90
1153
 91
0
280
0
281
0
  0
CLASS
  1
SCALE
  2
AcDbScale
  3
ObjectDBX Classes
 90
1153
 91
0
280
0
281
0
  0
CLASS
  1
TABLESTYLE
  2
AcDbTableStyle
  3
ObjectDBX Classes
 90
4095
 91
0
280
0
281
0
  0
CLASS
  1
MLEADERSTYLE
  2
AcDbMLeaderStyle
  3
ACDB_MLEADERSTYLE_CLASS
 90
4095
 91
0
280
0
281
0
  0
CLASS
  1
DICTIONARYVAR
  2
AcDbDictionaryVar
  3
ObjectDBX Classes
 90
0
 91
0
280
0
281
0
  0
CLASS
  1
CELLSTYLEMAP
  2
AcDbCellStyleMap
  3
ObjectDBX Classes
 90
1152
 91
0
280
0
281
0
  0
CLASS
  1
MENTALRAYRENDERSETTINGS
  2
AcDbMentalRayRenderSettings
  3
SCENEOE
 90
1024
 91
0
280
0
281
0
  0
CLASS
  1
ACDBDETAILVIEWSTYLE
  2
AcDbDetailViewStyle
  3
ObjectDBX Classes
 90
1025
 91
0
280
0
281
0
  0
CLASS
  1
ACDBSECTIONVIEWSTYLE
  2
AcDbSectionViewStyle
  3
ObjectDBX Classes
 90
1025
 91
0
280
0
281
0
  0
CLASS
  1
RASTERVARIABLES
  2
AcDbRasterVariables
  3
ISM
 90
0
 91
0
280
0
281
0
  0
CLASS
  1
IMAGE
  2
AcDbRasterImage
  3
ISM
 90
2175
 91
0
280
0
281
1
  0
CLASS
  1
IMAGEDEF
  2
AcDbRasterImageDef
  3
ISM
 90
0
 91
0
280
0
281
0
  0
CLASS
  1
IMAGEDEF_REACTOR
  2
AcDbRasterImageDefReactor
  3
ISM
 90
1
 91
0
280
0
281
0
  0
CLASS
  1
LAYOUT
  2
AcDbLayout
  3
ObjectDBX Classes
 90
0
 91
0
280
0
281
0
  0
CLASS
  1
ACDBPLACEHOLDER
  2
AcDbPlaceHolder
  3
ObjectDBX Classes
 90
0
 91
0
280
0
281
0
  0
ENDSEC
  0
SECTION
  2
TABLES
  0
TABLE
  2
VPORT
  5
8
330
0
100
AcDbSymbolTable
 70
1
  0
VPORT
  5
23
330
8
100
AcDbSymbolTableRecord
100
AcDbViewportTableRecord
  2
*Active
 70
0
 10
0.0
 20
0.0
 11
1.0
 21
1.0
 12
0.0
 22
0.0
 13
0.0
 23
0.0
 14
0.5
 24
0.5
 15
0.5
 25
0.5
 16
0.0
 26
0.0
 36
1.0
 17
0.0
 27
0.0
 37
0.0
 40
1000.0
 41
1.34
 42
50.0
 43
0.0
 44
0.0
 50
0.0
 51
0.0
 71
0
 72
1000
 73
1
 74
3
 75
0
 76
0
 77
0
 78
0
281
0
 65
0
146
0.0
  0
ENDTAB
  0
TABLE
  2
LTYPE
  5
2
330
0
100
AcDbSymbolTable
 70
6
  0
LTYPE
  5
24
330
2
100
AcDbSymbolTableRecord
100
AcDbLinetypeTableRecord
  2
ByBlock
 70
0
  3

 72
65
 73
0
 40
0.0
  0
LTYPE
  5
25
330
2
100
AcDbSymbolTableRecord
100
AcDbLinetypeTableRecord
  2
ByLayer
 70
0
  3

 72
65
 73
0
 40
0.0
  0
LTYPE
  5
26
330
2
100
AcDbSymbolTableRecord
100
AcDbLinetypeTableRecord
  2
Continuous
 70
0
  3

 72
65
 73
0
 40
0.0
  0
LTYPE
  5
2F
330
2
100
AcDbSymbolTableRecord
100
AcDbLinetypeTableRecord
  2
CENTER
 70
0
  3
Center __ . __ . __
 72
65
 73
4
 40
1.2
 49
0.8
 74
0
 49
-0.2
 74
0
 49
0.0
 74
0
 49
-0.2
 74
0
  0
LTYPE
  5
30
330
2
100
AcDbSymbolTableRecord
100
AcDbLinetypeTableRecord
  2
HIDDEN
 70
0
  3
Hidden -- -- -- --
 72
65
 73
2
 40
0.6
 49
0.4
 74
0
 49
-0.2
 74
0
  0
LTYPE
  5
31
330
2
100
AcDbSymbolTableRecord
100
AcDbLinetypeTableRecord
  2
DASHDOT
 70
0
  3
Dash dot __.__.__
 72
65
 73
4
 40
0.6
 49
0.4
 74
0
 49
-0.2
 74
0
 49
0.0
 74
0
 49
-0.2
 74
0
  0
ENDTAB
  0
TABLE
  2
LAYER
  5
1
330
0
100
AcDbSymbolTable
 70
17
  0
LAYER
  5
27
330
1
100
AcDbSymbolTableRecord
100
AcDbLayerTableRecord
  2
0
 70
0
 62
7
  6
Continuous
370
-3
390
13
347
21
  0
LAYER
  5
28
330
1
100
AcDbSymbolTableRecord
100
AcDbLayerTableRecord
  2
Defpoints
 70
0
 62
7
  6
Continuous
290
0
370
-3
390
13
347
21
  0
LAYER
  5
32
330
1
100
AcDbSymbolTableRecord
100
AcDbLayerTableRecord
  2
A-WALL-FULL
 70
0
 62
7
  6
Continuous
370
-3
390
13
347
21
  0
LAYER
  5
33
330
1
100
AcDbSymbolTableRecord
100
AcDbLayerTableRecord
  2
A-WALL-PRTN
 70
0
 62
7
  6
Continuous
370
-3
390
13
347
21
  0
LAYER
  5
34
330
1
100
AcDbSymbolTableRecord
100
AcDbLayerTableRecord
  2
A-WALL-PATT
 70
0
 62
254
  6
Continuous
370
-3
390
13
347
21
  0
LAYER
  5
35
330
1
100
AcDbSymbolTableRecord
100
AcDbLayerTableRecord
  2
A-GLAZ
 70
0
 62
5
  6
Continuous
370
-3
390
13
347
21
  0
LAYER
  5
36
330
1
100
AcDbSymbolTableRecord
100
AcDbLayerTableRecord
  2
A-DOOR
 70
0
 62
7
  6
Continuous
370
-3
390
13
347
21
  0
LAYER
  5
37
330
1
100
AcDbSymbolTableRecord
100
AcDbLayerTableRecord
  2
A-ROOF
 70
0
 62
7
  6
Continuous
370
-3
390
13
347
21
  0
LAYER
  5
38
330
1
100
AcDbSymbolTableRecord
100
AcDbLayerTableRecord
  2
A-GRID
 70
0
 62
8
  6
DASHDOT
370
-3
390
13
347
21
  0
LAYER
  5
39
330
1
100
AcDbSymbolTableRecord
100
AcDbLayerTableRecord
  2
A-ANNO-DIMS
 70
0
 62
7
  6
Continuous
370
-3
390
13
347
21
  0
LAYER
  5
3A
330
1
100
AcDbSymbolTableRecord
100
AcDbLayerTableRecord
  2
A-ANNO-TEXT
 70
0
 62
7
  6
Continuous
370
-3
390
13
347
21
  0
LAYER
  5
3B
330
1
100
AcDbSymbolTableRecord
100
AcDbLayerTableRecord
  2
A-FURN
 70
0
 62
9
  6
Continuous
370
-3
390
13
347
21
  0
LAYER
  5
3C
330
1
100
AcDbSymbolTableRecord
100
AcDbLayerTableRecord
  2
A-ELEV-WALL
 70
0
 62
7
  6
Continuous
370
-3
390
13
347
21
  0
LAYER
  5
3D
330
1
100
AcDbSymbolTableRecord
100
AcDbLayerTableRecord
  2
A-ELEV-LEVL
 70
0
 62
7
  6
Continuous
370
-3
390
13
347
21
  0
LAYER
  5
3E
330
1
100
AcDbSymbolTableRecord
100
AcDbLayerTableRecord
  2
A-TTLB
 70
0
 62
7
  6
Continuous
370
-3
390
13
347
21
  0
LAYER
  5
3F
330
1
100
AcDbSymbolTableRecord
100
AcDbLayerTableRecord
  2
A-ANNO-LEVL
 70
0
 62
7
  6
Continuous
370
-3
390
13
347
21
  0
LAYER
  5
40
330
1
100
AcDbSymbolTableRecord
100
AcDbLayerTableRecord
  2
A-ANNO-SECT
 70
0
 62
7
  6
HIDDEN
370
-3
390
13
347
21
  0
ENDTAB
  0
TABLE
  2
STYLE
  5
5
330
0
100
AcDbSymbolTable
 70
1
  0
STYLE
  5
29
330
5
100
AcDbSymbolTableRecord
100
AcDbTextStyleTableRecord
  2
Standard
 70
0
 40
0.0
 41
1.0
 50
0.0
 71
0
 42
2.5
  3
txt
  4

  0
ENDTAB
  0
TABLE
  2
VIEW
  5
7
330
0
100
AcDbSymbolTable
 70
0
  0
ENDTAB
  0
TABLE
  2
UCS
  5
6
330
0
100
AcDbSymbolTable
 70
0
  0
ENDTAB
  0
TABLE
  2
APPID
  5
3
330
0
100
AcDbSymbolTable
 70
5
  0
APPID
  5
2A
330
3
100
AcDbSymbolTableRecord
100
AcDbRegAppTableRecord
  2
ACAD
 70
0
  0
APPID
  5
58
330
3
100
AcDbSymbolTableRecord
100
AcDbRegAppTableRecord
  2
BIMGUID
 70
0
  0
APPID
  5
59
330
3
100
AcDbSymbolTableRecord
100
AcDbRegAppTableRecord
  2
BIMSRC
 70
0
  0
APPID
  5
1DC
330
3
100
AcDbSymbolTableRecord
100
AcDbRegAppTableRecord
  2
HATCHBACKGROUNDCOLOR
 70
0
  0
APPID
  5
1DD
330
3
100
AcDbSymbolTableRecord
100
AcDbRegAppTableRecord
  2
EZDXF
 70
0
  0
ENDTAB
  0
TABLE
  2
DIMSTYLE
  5
4
330
0
100
AcDbSymbolTable
 70
2
100
AcDbDimStyleTable
  0
DIMSTYLE
105
2B
330
4
100
AcDbSymbolTableRecord
100
AcDbDimStyleTableRecord
  2
Standard
 70
0
 40
1.0
 41
2.5
 42
0.625
 43
3.75
 44
1.25
 45
0.0
 46
0.0
 47
0.0
 48
0.0
 49
2.5
140
2.5
141
2.5
142
0.0
143
0.03937007874
144
1.0
145
0.0
146
1.0
147
0.625
148
0.0
 69
0
 70
0
 71
0
 72
0
 73
0
 74
0
 75
0
 76
0
 77
1
 78
8
 79
3
170
0
171
3
172
1
173
0
174
0
175
0
176
0
177
0
178
0
179
2
271
2
272
2
273
2
274
3
275
0
276
0
277
2
278
44
279
0
280
0
281
0
282
0
283
0
284
8
285
0
286
0
288
0
289
3
290
0
371
-2
372
-2
  0
DIMSTYLE
105
45
330
4
100
AcDbSymbolTableRecord
100
AcDbDimStyleTableRecord
  2
ARCH_JKR
 70
0
 40
100.0
 41
2.5
 42
2.0
 43
3.75
 44
2.0
 45
0.0
 46
0.0
 47
0.0
 48
0.0
 49
2.5
140
2.5
141
2.5
142
0.0
143
0.03937007874
144
1.0
145
0.0
146
1.0
147
1.0
148
0.0
 69
0
 70
0
 71
0
 72
0
 73
0
 74
0
 75
0
 76
0
 77
1
 78
8
 79
3
170
0
171
3
172
1
173
0
174
0
175
0
176
0
177
0
178
0
179
2
271
2
272
2
273
2
274
3
275
0
276
0
277
2
278
44
279
0
280
0
281
0
282
0
283
0
284
8
285
0
286
0
288
0
289
3
290
0
342
41
371
-2
372
-2
  0
ENDTAB
  0
TABLE
  2
BLOCK_RECORD
  5
9
330
0
100
AcDbSymbolTable
 70
7
  0
BLOCK_RECORD
  5
17
330
9
100
AcDbSymbolTableRecord
100
AcDbBlockTableRecord
  2
*Model_Space
340
1A
 70
0
280
1
281
0
  0
BLOCK_RECORD
  5
1B
330
9
100
AcDbSymbolTableRecord
100
AcDbBlockTableRecord
  2
*Paper_Space
340
1E
 70
0
280
1
281
0
  0
BLOCK_RECORD
  5
41
330
9
100
AcDbSymbolTableRecord
100
AcDbBlockTableRecord
  2
_ARCHTICK
340
0
 70
0
280
1
281
0
  0
BLOCK_RECORD
  5
46
330
9
100
AcDbSymbolTableRecord
100
AcDbBlockTableRecord
  2
DOOR_TAG
340
0
 70
0
280
1
281
0
  0
BLOCK_RECORD
  5
4B
330
9
100
AcDbSymbolTableRecord
100
AcDbBlockTableRecord
  2
WINDOW_TAG
340
0
 70
0
280
1
281
0
  0
BLOCK_RECORD
  5
4F
330
9
100
AcDbSymbolTableRecord
100
AcDbBlockTableRecord
  2
SECTION_ARROW
340
0
 70
0
280
1
281
0
  0
BLOCK_RECORD
  5
53
330
9
100
AcDbSymbolTableRecord
100
AcDbBlockTableRecord
  2
ELEVATION_TAG
340
0
 70
0
280
1
281
0
  0
ENDTAB
  0
ENDSEC
  0
SECTION
  2
BLOCKS
  0
BLOCK
  5
18
330
17
100
AcDbEntity
  8
0
100
AcDbBlockBegin
  2
*Model_Space
 70
0
 10
0.0
 20
0.0
 30
0.0
  3
*Model_Space
  1

  0
ENDBLK
  5
19
330
17
100
AcDbEntity
  8
0
100
AcDbBlockEnd
  0
BLOCK
  5
1C
330
1B
100
AcDbEntity
  8
0
100
AcDbBlockBegin
  2
*Paper_Space
 70
0
 10
0.0
 20
0.0
 30
0.0
  3
*Paper_Space
  1

  0
ENDBLK
  5
1D
330
1B
100
AcDbEntity
  8
0
100
AcDbBlockEnd
  0
BLOCK
  5
42
330
41
100
AcDbEntity
  8
0
100
AcDbBlockBegin
  2
_ARCHTICK
 70
0
 10
0.0
 20
0.0
 30
0.0
  3
_ARCHTICK
  1

  0
LWPOLYLINE
  5
44
330
41
100
AcDbEntity
  8
0
  6
BYBLOCK
 62
0
100
AcDbPolyline
 90
2
 70
0
 43
0.15
 10
-0.5
 20
-0.5
 10
0.5
 20
0.5
  0
ENDBLK
  5
43
330
41
100
AcDbEntity
  8
0
100
AcDbBlockEnd
  0
BLOCK
  5
47
330
46
100
AcDbEntity
  8
0
100
AcDbBlockBegin
  2
DOOR_TAG
 70
0
 10
0.0
 20
0.0
 30
0.0
  3
DOOR_TAG
  1

  0
CIRCLE
  5
49
330
46
100
AcDbEntity
  8
0
370
25
100
AcDbCircle
 10
0.0
 20
0.0
 30
0.0
 40
1.0
  0
LINE
  5
4A
330
46
100
AcDbEntity
  8
0
370
25
100
AcDbLine
 10
-1.0
 20
0.0
 30
0.0
 11
1.0
 21
0.0
 31
0.0
  0
ENDBLK
  5
48
330
46
100
AcDbEntity
  8
0
100
AcDbBlockEnd
  0
BLOCK
  5
4C
330
4B
100
AcDbEntity
  8
0
100
AcDbBlockBegin
  2
WINDOW_TAG
 70
0
 10
0.0
 20
0.0
 30
0.0
  3
WINDOW_TAG
  1

  0
LWPOLYLINE
  5
4E
330
4B
100
AcDbEntity
  8
0
370
25
100
AcDbPolyline
 90
6
 70
1
 10
0.8660254037844387
 20
0.49999999999999994
 10
6.123233995736766e-17
 20
1.0
 10
-0.8660254037844387
 20
0.49999999999999994
 10
-0.8660254037844386
 20
-0.5000000000000001
 10
-1.8369701987210297e-16
 20
-1.0
 10
0.8660254037844384
 20
-0.5000000000000004
  0
ENDBLK
  5
4D
330
4B
100
AcDbEntity
  8
0
100
AcDbBlockEnd
  0
BLOCK
  5
50
330
4F
100
AcDbEntity
  8
0
100
AcDbBlockBegin
  2
SECTION_ARROW
 70
0
 10
0.0
 20
0.0
 30
0.0
  3
SECTION_ARROW
  1

  0
LWPOLYLINE
  5
52
330
4F
100
AcDbEntity
  8
0
370
25
100
AcDbPolyline
 90
3
 70
1
 10
-1.0
 20
0.0
 10
0.0
 20
1.414
 10
1.0
 20
0.0
  0
ENDBLK
  5
51
330
4F
100
AcDbEntity
  8
0
100
AcDbBlockEnd
  0
BLOCK
  5
54
330
53
100
AcDbEntity
  8
0
100
AcDbBlockBegin
  2
ELEVATION_TAG
 70
0
 10
0.0
 20
0.0
 30
0.0
  3
ELEVATION_TAG
  1

  0
CIRCLE
  5
56
330
53
100
AcDbEntity
  8
0
370
25
100
AcDbCircle
 10
0.0
 20
0.0
 30
0.0
 40
1.0
  0
LINE
  5
57
330
53
100
AcDbEntity
  8
0
370
25
100
AcDbLine
 10
-1.0
 20
0.0
 30
0.0
 11
1.0
 21
0.0
 31
0.0
  0
ENDBLK
  5
55
330
53
100
AcDbEntity
  8
0
100
AcDbBlockEnd
  0
ENDSEC
  0
SECTION
  2
ENTITIES
  0
LWPOLYLINE
  5
5A
330
17
100
AcDbEntity
  8
A-DOOR
370
25
100
AcDbPolyline
 90
9
 70
1
 10
6203.3140491485
 20
-17357.999996185325
 10
6240.999986886967
 20
-17357.999996185325
 10
6240.999986886967
 20
-17370.019229830083
 10
6240.999986886967
 20
-17383.00000214579
 10
6203.3140491485
 20
-17383.00000214579
 10
6165.0000116824995
 20
-17383.00000214579
 10
6165.0000116824995
 20
-17370.60330510013
 10
6165.0000116824995
 20
-17357.999996185325
 10
6203.3140491485
 20
-17357.999996185325
1001
BIMGUID
1000
1s1jVhK8z0pgKYcr9jt7AB
1001
BIMSRC
1000
type:wall
1000
ifc_class:IfcDoor
1000
element_name:M_Single-Glass 1:0813 x 2420mm:0813 x 2420mm:171975
1000
storey:Level 1
1000
pos_x
1040
5.275999546051025
1000
pos_y
1040
-17.825000762939453
  0
LWPOLYLINE
  5
5B
330
17
100
AcDbEntity
  8
A-DOOR
370
25
100
AcDbPolyline
 90
9
 70
1
 10
5313.685950851478
 20
-17357.999996185325
 10
5351.999988317479
 20
-17357.999996185325
 10
5351.999988317479
 20
-17370.396693230985
 10
5351.999988317479
 20
-17383.00000214579
 10
5313.685950851478
 20
-17383.00000214579
 10
5276.000013113011
 20
-17383.00000214579
 10
5276.000013113011
 20
-17370.98076850103
 10
5276.000013113011
 20
-17357.999996185325
 10
5313.685950851478
 20
-17357.999996185325
1001
BIMGUID
1000
1s1jVhK8z0pgKYcr9jt7AB
1001
BIMSRC
1000
type:wall
1000
ifc_class:IfcDoor
1000
element_name:M_Single-Glass 1:0813 x 2420mm:0813 x 2420mm:171975
1000
storey:Level 1
1000
pos_x
1040
5.275999546051025
1000
pos_y
1040
-17.825000762939453
  0
LWPOLYLINE
  5
5C
330
17
100
AcDbEntity
  8
A-DOOR
370
25
100
AcDbPolyline
 90
9
 70
1
 10
6203.3140491485
 20
-17799.999997854255
 10
6240.999986886967
 20
-17799.999997854255
 10
6240.999986886967
 20
-17812.019231499013
 10
6240.999986886967
 20
-17825.00000381472
 10
6203.3140491485
 20
-17825.00000381472
 10
6165.0000116824995
 20
-17825.00000381472
 10
6165.0000116824995
 20
-17812.60330676906
 10
6165.0000116824995
 20
-17799.999997854255
 10
6203.3140491485
 20
-17799.999997854255
1001
BIMGUID
1000
1s1jVhK8z0pgKYcr9jt7AB
1001
BIMSRC
1000
type:wall
1000
ifc_class:IfcDoor
1000
element_name:M_Single-Glass 1:0813 x 2420mm:0813 x 2420mm:171975
1000
storey:Level 1
1000
pos_x
1040
5.275999546051025
1000
pos_y
1040
-17.825000762939453
  0
LWPOLYLINE
  5
5D
330
17
100
AcDbEntity
  8
A-DOOR
370
25
100
AcDbPolyline
 90
9
 70
1
 10
5313.685950851478
 20
-17799.999997854255
 10
5351.999988317479
 20
-17799.999997854255
 10
5351.999988317479
 20
-17812.396694899915
 10
5351.999988317479
 20
-17825.00000381472
 10
5313.685950851478
 20
-17825.00000381472
 10
5276.000013113011
 20
-17825.00000381472
 10
5276.000013113011
 20
-17812.98077016996
 10
5276.000013113011
 20
-17799.999997854255
 10
5313.685950851478
 20
-17799.999997854255
1001
BIMGUID
1000
1s1jVhK8z0pgKYcr9jt7AB
1001
BIMSRC
1000
type:wall
1000
ifc_class:IfcDoor
1000
element_name:M_Single-Glass 1:0813 x 2420mm:0813 x 2420mm:171975
1000
storey:Level 1
1000
pos_x
1040
5.275999546051025
1000
pos_y
1040
-17.825000762939453
  0
LWPOLYLINE
  5
5E
330
17
100
AcDbEntity
  8
A-DOOR
370
25
100
AcDbPolyline
 90
8
 70
1
 10
6063.000013589848
 20
-17771.42499470713
 10
5755.751801623687
 20
-17771.42499470713
 10
5453.99998641013
 20
-17771.42499470713
 10
5453.99998641013
 20
-17774.628655340995
 10
5453.99998641013
 20
-17777.775005340598
 10
5761.248198376291
 20
-17777.775005340598
 10
6063.000013589848
 20
-17777.775005340598
 10
6063.000013589848
 20
-17774.571344706732
1001
BIMGUID
1000
1s1jVhK8z0pgKYcr9jt7AB
1001
BIMSRC
1000
type:wall
1000
ifc_class:IfcDoor
1000
element_name:M_Single-Glass 1:0813 x 2420mm:0813 x 2420mm:171975
1000
storey:Level 1
1000
pos_x
1040
5.275999546051025
1000
pos_y
1040
-17.825000762939453
  0
LWPOLYLINE
  5
5F
330
17
100
AcDbEntity
  8
A-DOOR
370
25
100
AcDbPolyline
 90
10
 70
1
 10
6063.000013589848
 20
-17771.42499470713
 10
6063.000013589848
 20
-17774.571344706732
 10
6063.000013589848
 20
-17799.999997854255
 10
6112.195871816991
 20
-17799.999997854255
 10
6165.0000116824995
 20
-17799.999997854255
 10
6165.0000116824995
 20
-17774.710742383435
 10
6165.0000116824995
 20
-17748.99999880793
 10
6112.195871816991
 20
-17748.99999880793
 10
6063.000013589848
 20
-17748.99999880793
 10
6063.000013589848
 20
-17774.269853654056
1001
BIMGUID
1000
1s1jVhK8z0pgKYcr9jt7AB
1001
BIMSRC
1000
type:wall
1000
ifc_class:IfcDoor
1000
element_name:M_Single-Glass 1:0813 x 2420mm:0813 x 2420mm:171975
1000
storey:Level 1
1000
pos_x
1040
5.275999546051025
1000
pos_y
1040
-17.825000762939453
  0
LWPOLYLINE
  5
60
330
17
100
AcDbEntity
  8
A-DOOR
370
25
100
AcDbPolyline
 90
9
 70
1
 10
5404.804128182987
 20
-17748.99999880793
 10
5351.999988317479
 20
-17748.99999880793
 10
5351.999988317479
 20
-17774.28925427875
 10
5351.999988317479
 20
-17799.999997854255
 10
5404.804128182987
 20
-17799.999997854255
 10
5453.99998641013
 20
-17799.999997854255
 10
5453.99998641013
 20
-17774.730143008128
 10
5453.99998641013
 20
-17748.99999880793
 10
5404.804128182987
 20
-17748.99999880793
1001
BIMGUID
1000
1s1jVhK8z0pgKYcr9jt7AB
1001
BIMSRC
1000
type:wall
1000
ifc_class:IfcDoor
1000
element_name:M_Single-Glass 1:0813 x 2420mm:0813 x 2420mm:171975
1000
storey:Level 1
1000
pos_x
1040
5.275999546051025
1000
pos_y
1040
-17.825000762939453
  0
LWPOLYLINE
  5
61
330
17
100
AcDbEntity
  8
A-GLAZ
370
25
100
AcDbPolyline
 90
9
 70
1
 10
5189.000055313091
 20
-17765.0000014305
 10
5189.000055313091
 20
-17758.424590288974
 10
5189.000055313091
 20
-17753.000006914128
 10
2608.697893456359
 20
-17753.000006914128
 10
479.9999446868703
 20
-17753.000006914128
 10
479.9999446868703
 20
-17759.575418055654
 10
479.9999446868703
 20
-17765.0000014305
 10
3060.3021065436023
 20
-17765.0000014305
 10
5189.000055313091
 20
-17765.0000014305
1001
BIMGUID
1000
1hOSvn6df7F8_7GcBWlRBU
1001
BIMSRC
1000
type:wall
1000
ifc_class:IfcWindow
1000
element_name:M_Fixed:4835mm x 2420mm:4835mm x 2420mm:146016
1000
storey:Level 1
1000
pos_x
1040
0.4169999957084656
1000
pos_y
1040
-17.800003051757812
  0
LWPOLYLINE
  5
62
330
17
100
AcDbEntity
  8
A-GLAZ
370
25
100
AcDbPolyline
 90
9
 70
1
 10
436.00003433225606
 20
-17781.000004053105
 10
436.00003433225606
 20
-17756.968098195917
 10
436.00003433225606
 20
-17737.000004291524
 10
460.4841592984714
 20
-17737.000004291524
 10
479.9999446868703
 20
-17737.000004291524
 10
479.9999446868703
 20
-17761.109856030605
 10
479.9999446868703
 20
-17781.000004053105
 10
460.4841592984714
 20
-17781.000004053105
 10
436.00003433225606
 20
-17781.000004053105
1001
BIMGUID
1000
1hOSvn6df7F8_7GcBWlRBU
1001
BIMSRC
1000
type:wall
1000
ifc_class:IfcWindow
1000
element_name:M_Fixed:4835mm x 2420mm:4835mm x 2420mm:146016
1000
storey:Level 1
1000
pos_x
1040
0.4169999957084656
1000
pos_y
1040
-17.800003051757812
  0
LWPOLYLINE
  5
63
330
17
100
AcDbEntity
  8
A-GLAZ
370
25
100
AcDbPolyline
 90
9
 70
1
 10
5208.51584070149
 20
-17781.000004053105
 10
5232.9999656677055
 20
-17781.000004053105
 10
5232.9999656677055
 20
-17761.03191014871
 10
5232.9999656677055
 20
-17737.000004291524
 10
5208.51584070149
 20
-17737.000004291524
 10
5189.000055313091
 20
-17737.000004291524
 10
5189.000055313091
 20
-17756.890152314023
 10
5189.000055313091
 20
-17781.000004053105
 10
5208.51584070149
 20
-17781.000004053105
1001
BIMGUID
1000
1hOSvn6df7F8_7GcBWlRBU
1001
BIMSRC
1000
type:wall
1000
ifc_class:IfcWindow
1000
element_name:M_Fixed:4835mm x 2420mm:4835mm x 2420mm:146016
1000
storey:Level 1
1000
pos_x
1040
0.4169999957084656
1000
pos_y
1040
-17.800003051757812
  0
LWPOLYLINE
  5
64
330
17
100
AcDbEntity
  8
A-GLAZ
370
25
100
AcDbPolyline
 90
9
 70
1
 10
416.99998092649435
 20
-17799.999997854222
 10
416.99998092649435
 20
-17765.63636509212
 10
416.99998092649435
 20
-17737.000004291524
 10
425.7047119851767
 20
-17737.000004291524
 10
436.00003433225606
 20
-17737.000004291524
 10
436.00003433225606
 20
-17771.40932071212
 10
436.00003433225606
 20
-17799.999997854222
 10
425.7047119851767
 20
-17799.999997854222
 10
416.99998092649435
 20
-17799.999997854222
1001
BIMGUID
1000
1hOSvn6df7F8_7GcBWlRBU
1001
BIMSRC
1000
type:wall
1000
ifc_class:IfcWindow
1000
element_name:M_Fixed:4835mm x 2420mm:4835mm x 2420mm:146016
1000
storey:Level 1
1000
pos_x
1040
0.4169999957084656
1000
pos_y
1040
-17.800003051757812
  0
LWPOLYLINE
  5
65
330
17
100
AcDbEntity
  8
A-GLAZ
370
25
100
AcDbPolyline
 90
9
 70
1
 10
5243.295288014785
 20
-17799.999997854222
 10
5252.000019073467
 20
-17799.999997854222
 10
5252.000019073467
 20
-17771.363637053626
 10
5252.000019073467
 20
-17737.000004291524
 10
5243.295288014785
 20
-17737.000004291524
 10
5232.9999656677055
 20
-17737.000004291524
 10
5232.9999656677055
 20
-17765.590681433627
 10
5232.9999656677055
 20
-17799.999997854222
 10
5243.295288014785
 20
-17799.999997854222
1001
BIMGUID
1000
1hOSvn6df7F8_7GcBWlRBU
1001
BIMSRC
1000
type:wall
1000
ifc_class:IfcWindow
1000
element_name:M_Fixed:4835mm x 2420mm:4835mm x 2420mm:146016
1000
storey:Level 1
1000
pos_x
1040
0.4169999957084656
1000
pos_y
1040
-17.800003051757812
  0
LWPOLYLINE
  5
66
330
17
100
AcDbEntity
  8
A-GLAZ
370
25
100
AcDbPolyline
 90
9
 70
1
 10
416.99998092649435
 20
-17737.000004291524
 10
416.99998092649435
 20
-17543.909094537485
 10
416.99998092649435
 20
-17383.000002145756
 10
431.7403797484598
 20
-17383.000002145756
 10
449.00004577634786
 20
-17383.000002145756
 10
449.00004577634786
 20
-17576.52801727583
 10
449.00004577634786
 20
-17737.000004291524
 10
431.7403797484598
 20
-17737.000004291524
 10
416.99998092649435
 20
-17737.000004291524
1001
BIMGUID
1000
1hOSvn6df7F8_7GcBWlRBU
1001
BIMSRC
1000
type:wall
1000
ifc_class:IfcWindow
1000
element_name:M_Fixed:4835mm x 2420mm:4835mm x 2420mm:146016
1000
storey:Level 1
1000
pos_x
1040
0.4169999957084656
1000
pos_y
1040
-17.800003051757812
  0
LWPOLYLINE
  5
67
330
17
100
AcDbEntity
  8
A-GLAZ
370
25
100
AcDbPolyline
 90
9
 70
1
 10
5237.2596202515015
 20
-17737.000004291524
 10
5252.000019073467
 20
-17737.000004291524
 10
5252.000019073467
 20
-17576.0909118998
 10
5252.000019073467
 20
-17383.000002145756
 10
5237.2596202515015
 20
-17383.000002145756
 10
5219.999954223614
 20
-17383.000002145756
 10
5219.999954223614
 20
-17543.471989161455
 10
5219.999954223614
 20
-17737.000004291524
 10
5237.2596202515015
 20
-17737.000004291524
1001
BIMGUID
1000
1hOSvn6df7F8_7GcBWlRBU
1001
BIMSRC
1000
type:wall
1000
ifc_class:IfcWindow
1000
element_name:M_Fixed:4835mm x 2420mm:4835mm x 2420mm:146016
1000
storey:Level 1
1000
pos_x
1040
0.4169999957084656
1000
pos_y
1040
-17.800003051757812
  0
LWPOLYLINE
  5
68
330
17
100
AcDbEntity
  8
A-WALL-FULL
370
50
100
AcDbPolyline
 90
9
 70
1
 10
7283.165414308767
 20
-17799.999997854233
 10
8383.000186920148
 20
-17799.999997854233
 10
8383.000186920148
 20
-17638.58064612515
 10
8383.000186920148
 20
-17383.000002145767
 10
7283.165414308767
 20
-17383.000002145767
 10
6165.000013351422
 20
-17383.000002145767
 10
6165.000013351422
 20
-17593.223145027823
 10
6165.000013351422
 20
-17799.999997854233
 10
7283.165414308767
 20
-17799.999997854233
1001
BIMGUID
1000
2O2Fr$t4X7Zf8NOew3FNr2
1001
BIMSRC
1000
type:wall
1000
ifc_class:IfcWall
1000
element_name:Basic Wall:Exterior - Brick on Block:138237
1000
storey:Level 1
1000
pos_x
1040
-3.552713678800501e-15
1000
pos_y
1040
-17.800003051757812
  0
LWPOLYLINE
  5
69
330
17
100
AcDbEntity
  8
A-WALL-PATT
370
50
100
AcDbPolyline
 90
9
 70
1
 10
7283.165414308767
 20
-17799.999997854233
 10
8383.000186920148
 20
-17799.999997854233
 10
8383.000186920148
 20
-17638.58064612515
 10
8383.000186920148
 20
-17383.000002145767
 10
7283.165414308767
 20
-17383.000002145767
 10
6165.000013351422
 20
-17383.000002145767
 10
6165.000013351422
 20
-17593.223145027823
 10
6165.000013351422
 20
-17799.999997854233
 10
7283.165414308767
 20
-17799.999997854233
  0
HATCH
  5
6A
330
17
100
AcDbEntity
  8
A-WALL-PATT
 62
0
100
AcDbHatch
 10
0.0
 20
0.0
 30
0.0
210
0.0
220
0.0
230
1.0
  2
SOLID
 70
1
 71
0
 91
1
 92
3
 72
0
 73
1
 93
9
 10
7283.165414308767
 20
-17799.999997854233
 10
8383.000186920148
 20
-17799.999997854233
 10
8383.000186920148
 20
-17638.58064612515
 10
8383.000186920148
 20
-17383.000002145767
 10
7283.165414308767
 20
-17383.000002145767
 10
6165.000013351422
 20
-17383.000002145767
 10
6165.000013351422
 20
-17593.223145027823
 10
6165.000013351422
 20
-17799.999997854233
 10
7283.165414308767
 20
-17799.999997854233
 97
0
 75
1
 76
1
 98
0
  0
LWPOLYLINE
  5
6B
330
17
100
AcDbEntity
  8
A-WALL-FULL
370
50
100
AcDbPolyline
 90
9
 70
1
 10
5299.413831140332
 20
-17799.999997854233
 10
5252.000025749188
 20
-17799.999997854233
 10
5252.000025749188
 20
-17610.454543018608
 10
5252.000025749188
 20
-17383.000002145767
 10
5299.413831140332
 20
-17383.000002145767
 10
5352.000049591046
 20
-17383.000002145767
 10
5352.000049591046
 20
-17589.776854972177
 10
5352.000049591046
 20
-17799.999997854233
 10
5299.413831140332
 20
-17799.999997854233
1001
BIMGUID
1000
2O2Fr$t4X7Zf8NOew3FNr2
1001
BIMSRC
1000
type:wall
1000
ifc_class:IfcWall
1000
element_name:Basic Wall:Exterior - Brick on Block:138237
1000
storey:Level 1
1000
pos_x
1040
-3.552713678800501e-15
1000
pos_y
1040
-17.800003051757812
  0
LWPOLYLINE
  5
6C
330
17
100
AcDbEntity
  8
A-WALL-PATT
370
50
100
AcDbPolyline
 90
9
 70
1
 10
5299.413831140332
 20
-17799.999997854233
 10
5252.000025749188
 20
-17799.999997854233
 10
5252.000025749188
 20
-17610.454543018608
 10
5252.000025749188
 20
-17383.000002145767
 10
5299.413831140332
 20
-17383.000002145767
 10
5352.000049591046
 20
-17383.000002145767
 10
5352.000049591046
 20
-17589.776854972177
 10
5352.000049591046
 20
-17799.999997854233
 10
5299.413831140332
 20
-17799.999997854233
  0
HATCH
  5
6D
330
17
100
AcDbEntity
  8
A-WALL-PATT
 62
0
100
AcDbHatch
 10
0.0
 20
0.0
 30
0.0
210
0.0
220
0.0
230
1.0
  2
SOLID
 70
1
 71
0
 91
1
 92
3
 72
0
 73
1
 93
9
 10
5299.413831140332
 20
-17799.999997854233
 10
5252.000025749188
 20
-17799.999997854233
 10
5252.000025749188
 20
-17610.454543018608
 10
5252.000025749188
 20
-17383.000002145767
 10
5299.413831140332
 20
-17383.000002145767
 10
5352.000049591046
 20
-17383.000002145767
 10
5352.000049591046
 20
-17589.776854972177
 10
5352.000049591046
 20
-17799.999997854233
 10
5299.413831140332
 20
-17799.999997854233
 97
0
 75
1
 76
1
 98
0
  0
LWPOLYLINE
  5
6E
330
17
100
AcDbEntity
  8
A-WALL-FULL
370
50
100
AcDbPolyline
 90
9
 70
1
 10
198.5713751358924
 20
-17799.999997854233
 10
417.00010681150525
 20
-17799.999997854233
 10
417.00010681150525
 20
-17572.545456981392
 10
417.00010681150525
 20
-17383.000002145767
 10
198.5713751358924
 20
-17383.000002145767
 10
-0.0001869201842197299
 20
-17383.000002145767
 10
-0.0001869201842197299
 20
-17638.58064612515
 10
-0.0001869201842197299
 20
-17799.999997854233
 10
198.5713751358924
 20
-17799.999997854233
1001
BIMGUID
1000
2O2Fr$t4X7Zf8NOew3FNr2
1001
BIMSRC
1000
type:wall
1000
ifc_class:IfcWall
1000
element_name:Basic Wall:Exterior - Brick on Block:138237
1000
storey:Level 1
1000
pos_x
1040
-3.552713678800501e-15
1000
pos_y
1040
-17.800003051757812
  0
LWPOLYLINE
  5
6F
330
17
100
AcDbEntity
  8
A-WALL-PATT
370
50
100
AcDbPolyline
 90
9
 70
1
 10
198.5713751358924
 20
-17799.999997854233
 10
417.00010681150525
 20
-17799.999997854233
 10
417.00010681150525
 20
-17572.545456981392
 10
417.00010681150525
 20
-17383.000002145767
 10
198.5713751358924
 20
-17383.000002145767
 10
-0.0001869201842197299
 20
-17383.000002145767
 10
-0.0001869201842197299
 20
-17638.58064612515
 10
-0.0001869201842197299
 20
-17799.999997854233
 10
198.5713751358924
 20
-17799.999997854233
  0
HATCH
  5
70
330
17
100
AcDbEntity
  8
A-WALL-PATT
 62
0
100
AcDbHatch
 10
0.0
 20
0.0
 30
0.0
210
0.0
220
0.0
230
1.0
  2
SOLID
 70
1
 71
0
 91
1
 92
3
 72
0
 73
1
 93
9
 10
198.5713751358924
 20
-17799.999997854233
 10
417.00010681150525
 20
-17799.999997854233
 10
417.00010681150525
 20
-17572.545456981392
 10
417.00010681150525
 20
-17383.000002145767
 10
198.5713751358924
 20
-17383.000002145767
 10
-0.0001869201842197299
 20
-17383.000002145767
 10
-0.0001869201842197299
 20
-17638.58064612515
 10
-0.0001869201842197299
 20
-17799.999997854233
 10
198.5713751358924
 20
-17799.999997854233
 97
0
 75
1
 76
1
 98
0
  0
LWPOLYLINE
  5
71
330
17
100
AcDbEntity
  8
A-DOOR
370
25
100
AcDbPolyline
 90
9
 70
1
 10
2573.999998986709
 20
-7673.000012636169
 10
2584.768499326524
 20
-7673.000012636169
 10
2598.999997496593
 20
-7673.000012636169
 10
2598.999997496593
 20
-7717.881888390111
 10
2598.999997496593
 20
-7748.999987840637
 10
2588.7637778425656
 20
-7748.999987840637
 10
2573.999998986709
 20
-7748.999987840637
 10
2573.999998986709
 20
-7717.881888390111
 10
2573.999998986709
 20
-7673.000012636169
1001
BIMGUID
1000
1hOSvn6df7F8_7GcBWlS9F
1001
BIMSRC
1000
type:wall
1000
ifc_class:IfcDoor
1000
element_name:M_Single-Flush:0762 x 2032mm:0762 x 2032mm:150257
1000
storey:Level 1
1000
pos_x
1040
2.424999952316284
1000
pos_y
1040
-8.587000846862793
  0
LWPOLYLINE
  5
72
330
17
100
AcDbEntity
  8
A-DOOR
370
25
100
AcDbPolyline
 90
9
 70
1
 10
2573.999998986709
 20
-8511.000012159333
 10
2584.2362186407363
 20
-8511.000012159333
 10
2598.999997496593
 20
-8511.000012159333
 10
2598.999997496593
 20
-8542.118111609858
 10
2598.999997496593
 20
-8586.9999873638
 10
2588.2314971567785
 20
-8586.9999873638
 10
2573.999998986709
 20
-8586.9999873638
 10
2573.999998986709
 20
-8542.118111609858
 10
2573.999998986709
 20
-8511.000012159333
1001
BIMGUID
1000
1hOSvn6df7F8_7GcBWlS9F
1001
BIMSRC
1000
type:wall
1000
ifc_class:IfcDoor
1000
element_name:M_Single-Flush:0762 x 2032mm:0762 x 2032mm:150257
1000
storey:Level 1
1000
pos_x
1040
2.424999952316284
1000
pos_y
1040
-8.587000846862793
  0
LWPOLYLINE
  5
73
330
17
100
AcDbEntity
  8
A-DOOR
370
25
100
AcDbPolyline
 90
9
 70
1
 10
2425.0000025033833
 20
-7717.881888390111
 10
2425.0000025033833
 20
-7673.000012636169
 10
2435.768502843198
 20
-7673.000012636169
 10
2450.000001013267
 20
-7673.000012636169
 10
2450.000001013267
 20
-7717.881888390111
 10
2450.000001013267
 20
-7748.999987840637
 10
2439.7637813592396
 20
-7748.999987840637
 10
2425.0000025033833
 20
-7748.999987840637
 10
2425.0000025033833
 20
-7717.881888390111
1001
BIMGUID
1000
1hOSvn6df7F8_7GcBWlS9F
1001
BIMSRC
1000
type:wall
1000
ifc_class:IfcDoor
1000
element_name:M_Single-Flush:0762 x 2032mm:0762 x 2032mm:150257
1000
storey:Level 1
1000
pos_x
1040
2.424999952316284
1000
pos_y
1040
-8.587000846862793
  0
LWPOLYLINE
  5
74
330
17
100
AcDbEntity
  8
A-DOOR
370
25
100
AcDbPolyline
 90
9
 70
1
 10
2425.0000025033833
 20
-8542.118111609858
 10
2425.0000025033833
 20
-8511.000012159333
 10
2435.2362221574103
 20
-8511.000012159333
 10
2450.000001013267
 20
-8511.000012159333
 10
2450.000001013267
 20
-8542.118111609858
 10
2450.000001013267
 20
-8586.9999873638
 10
2439.2315006734525
 20
-8586.9999873638
 10
2425.0000025033833
 20
-8586.9999873638
 10
2425.0000025033833
 20
-8542.118111609858
1001
BIMGUID
1000
1hOSvn6df7F8_7GcBWlS9F
1001
BIMSRC
1000
type:wall
1000
ifc_class:IfcDoor
1000
element_name:M_Single-Flush:0762 x 2032mm:0762 x 2032mm:150257
1000
storey:Level 1
1000
pos_x
1040
2.424999952316284
1000
pos_y
1040
-8.587000846862793
  0
LWPOLYLINE
  5
75
330
17
100
AcDbEntity
  8
A-DOOR
370
25
100
AcDbPolyline
 90
9
 70
1
 10
2553.118110038317
 20
-7748.999987840637
 10
2522.9999999403835
 20
-7748.999987840637
 10
2522.9999999403835
 20
-8060.9999914493
 10
2522.9999999403835
 20
-8511.000012159333
 10
2543.881888888776
 20
-8511.000012159333
 10
2573.999998986709
 20
-8511.000012159333
 10
2573.999998986709
 20
-8199.000008550669
 10
2573.999998986709
 20
-7748.999987840637
 10
2553.118110038317
 20
-7748.999987840637
1001
BIMGUID
1000
1hOSvn6df7F8_7GcBWlS9F
1001
BIMSRC
1000
type:wall
1000
ifc_class:IfcDoor
1000
element_name:M_Single-Flush:0762 x 2032mm:0762 x 2032mm:150257
1000
storey:Level 1
1000
pos_x
1040
2.424999952316284
1000
pos_y
1040
-8.587000846862793
  0
LWPOLYLINE
  5
76
330
17
100
AcDbEntity
  8
A-WALL-PRTN
370
35
100
AcDbPolyline
 90
9
 70
1
 10
2573.999998986721
 20
-7362.480315322583
 10
2573.999998986721
 20
-6804.999961853017
 10
2520.7620747517976
 20
-6804.999961853017
 10
2450.000001013279
 20
-6804.999961853017
 10
2450.000001013279
 20
-7362.480315322583
 10
2450.000001013279
 20
-7749.000027179708
 10
2500.7716537359856
 20
-7749.000027179708
 10
2573.999998986721
 20
-7749.000027179708
 10
2573.999998986721
 20
-7362.480315322583
1001
BIMGUID
1000
2O2Fr$t4X7Zf8NOew3FNau
1001
BIMSRC
1000
type:wall
1000
ifc_class:IfcWall
1000
element_name:Basic Wall:Interior - Partition (92mm Stud):139143
1000
storey:Level 1
1000
pos_x
1040
2.4499998092651367
1000
pos_y
1040
-9.725000381469727
  0
LWPOLYLINE
  5
77
330
17
100
AcDbEntity
  8
A-WALL-PATT
370
35
100
AcDbPolyline
 90
9
 70
1
 10
2573.999998986721
 20
-7362.480315322583
 10
2573.999998986721
 20
-6804.999961853017
 10
2520.7620747517976
 20
-6804.999961853017
 10
2450.000001013279
 20
-6804.999961853017
 10
2450.000001013279
 20
-7362.480315322583
 10
2450.000001013279
 20
-7749.000027179708
 10
2500.7716537359856
 20
-7749.000027179708
 10
2573.999998986721
 20
-7749.000027179708
 10
2573.999998986721
 20
-7362.480315322583
  0
HATCH
  5
78
330
17
100
AcDbEntity
  8
A-WALL-PATT
 62
0
100
AcDbHatch
 10
0.0
 20
0.0
 30
0.0
210
0.0
220
0.0
230
1.0
  2
SOLID
 70
1
 71
0
 91
1
 92
3
 72
0
 73
1
 93
9
 10
2573.999998986721
 20
-7362.480315322583
 10
2573.999998986721
 20
-6804.999961853017
 10
2520.7620747517976
 20
-6804.999961853017
 10
2450.000001013279
 20
-6804.999961853017
 10
2450.000001013279
 20
-7362.480315322583
 10
2450.000001013279
 20
-7749.000027179708
 10
2500.7716537359856
 20
-7749.000027179708
 10
2573.999998986721
 20
-7749.000027179708
 10
2573.999998986721
 20
-7362.480315322583
 97
0
 75
1
 76
1
 98
0
  0
LWPOLYLINE
  5
79
330
17
100
AcDbEntity
  8
A-WALL-PRTN
370
35
100
AcDbPolyline
 90
9
 70
1
 10
2573.999998986721
 20
-9008.070885863497
 10
2573.999998986721
 20
-9725.000038146962
 10
2520.7620747517976
 20
-9725.000038146962
 10
2450.000001013279
 20
-9725.000038146962
 10
2450.000001013279
 20
-9008.070885863497
 10
2450.000001013279
 20
-8511.000006794919
 10
2523.2283462640144
 20
-8511.000006794919
 10
2573.999998986721
 20
-8511.000006794919
 10
2573.999998986721
 20
-9008.070885863497
1001
BIMGUID
1000
2O2Fr$t4X7Zf8NOew3FNau
1001
BIMSRC
1000
type:wall
1000
ifc_class:IfcWall
1000
element_name:Basic Wall:Interior - Partition (92mm Stud):139143
1000
storey:Level 1
1000
pos_x
1040
2.4499998092651367
1000
pos_y
1040
-9.725000381469727
  0
LWPOLYLINE
  5
7A
330
17
100
AcDbEntity
  8
A-WALL-PATT
370
35
100
AcDbPolyline
 90
9
 70
1
 10
2573.999998986721
 20
-9008.070885863497
 10
2573.999998986721
 20
-9725.000038146962
 10
2520.7620747517976
 20
-9725.000038146962
 10
2450.000001013279
 20
-9725.000038146962
 10
2450.000001013279
 20
-9008.070885863497
 10
2450.000001013279
 20
-8511.000006794919
 10
2523.2283462640144
 20
-8511.000006794919
 10
2573.999998986721
 20
-8511.000006794919
 10
2573.999998986721
 20
-9008.070885863497
  0
HATCH
  5
7B
330
17
100
AcDbEntity
  8
A-WALL-PATT
 62
0
100
AcDbHatch
 10
0.0
 20
0.0
 30
0.0
210
0.0
220
0.0
230
1.0
  2
SOLID
 70
1
 71
0
 91
1
 92
3
 72
0
 73
1
 93
9
 10
2573.999998986721
 20
-9008.070885863497
 10
2573.999998986721
 20
-9725.000038146962
 10
2520.7620747517976
 20
-9725.000038146962
 10
2450.000001013279
 20
-9725.000038146962
 10
2450.000001013279
 20
-9008.070885863497
 10
2450.000001013279
 20
-8511.000006794919
 10
2523.2283462640144
 20
-8511.000006794919
 10
2573.999998986721
 20
-8511.000006794919
 10
2573.999998986721
 20
-9008.070885863497
 97
0
 75
1
 76
1
 98
0
  0
LWPOLYLINE
  5
7C
330
17
100
AcDbEntity
  8
A-DOOR
370
25
100
AcDbPolyline
 90
9
 70
1
 10
-10.074627264562569
 20
-996.9999999999999
 10
-25.00000381468359
 20
-996.9999999999999
 10
-25.00000381468359
 20
-966.3731438867992
 10
-25.00000381468359
 20
-921.0000247955321
 10
-14.38159287682536
 20
-921.0000247955321
 10
2.145780886309012e-06
 20
-921.0000247955321
 10
2.145780886309012e-06
 20
-966.3731438867992
 10
2.145780886309012e-06
 20
-996.9999999999999
 10
-10.074627264562597
 20
-996.9999999999999
1001
BIMGUID
1000
1hOSvn6df7F8_7GcBWlRH8
1001
BIMSRC
1000
type:wall
1000
ifc_class:IfcDoor
1000
element_name:M_Single-Flush:1250mm x 2010mm:1250mm x 2010mm:146678
1000
storey:Level 1
1000
pos_x
1040
-0.02500000037252903
1000
pos_y
1040
-2.323000192642212
  0
LWPOLYLINE
  5
7D
330
17
100
AcDbEntity
  8
A-DOOR
370
25
100
AcDbPolyline
 90
9
 70
1
 10
-14.925374404340136
 20
-2247.0
 10
2.145780886309012e-06
 20
-2247.0
 10
2.145780886309012e-06
 20
-2277.6268561132006
 10
2.145780886309012e-06
 20
-2322.999975204468
 10
-10.618408792077345
 20
-2322.999975204468
 10
-25.00000381468359
 20
-2322.999975204468
 10
-25.00000381468359
 20
-2277.6268561132006
 10
-25.00000381468359
 20
-2247.0
 10
-14.925374404340108
 20
-2247.0
1001
BIMGUID
1000
1hOSvn6df7F8_7GcBWlRH8
1001
BIMSRC
1000
type:wall
1000
ifc_class:IfcDoor
1000
element_name:M_Single-Flush:1250mm x 2010mm:1250mm x 2010mm:146678
1000
storey:Level 1
1000
pos_x
1040
-0.02500000037252903
1000
pos_y
1040
-2.323000192642212
  0
LWPOLYLINE
  5
7E
330
17
100
AcDbEntity
  8
A-DOOR
370
25
100
AcDbPolyline
 90
9
 70
1
 10
431.9253744043675
 20
-996.9999999999999
 10
416.9999978542465
 20
-996.9999999999999
 10
416.9999978542465
 20
-966.3731438867992
 10
416.9999978542465
 20
-921.0000247955321
 10
427.6184087921047
 20
-921.0000247955321
 10
442.00000381471096
 20
-921.0000247955321
 10
442.00000381471096
 20
-966.3731438867992
 10
442.00000381471096
 20
-996.9999999999999
 10
431.92537440436746
 20
-996.9999999999999
1001
BIMGUID
1000
1hOSvn6df7F8_7GcBWlRH8
1001
BIMSRC
1000
type:wall
1000
ifc_class:IfcDoor
1000
element_name:M_Single-Flush:1250mm x 2010mm:1250mm x 2010mm:146678
1000
storey:Level 1
1000
pos_x
1040
-0.02500000037252903
1000
pos_y
1040
-2.323000192642212
  0
LWPOLYLINE
  5
7F
330
17
100
AcDbEntity
  8
A-DOOR
370
25
100
AcDbPolyline
 90
9
 70
1
 10
427.0746272645899
 20
-2247.0
 10
442.00000381471096
 20
-2247.0
 10
442.00000381471096
 20
-2277.6268561132006
 10
442.00000381471096
 20
-2322.999975204468
 10
431.3815928768527
 20
-2322.999975204468
 10
416.9999978542465
 20
-2322.999975204468
 10
416.9999978542465
 20
-2277.6268561132006
 10
416.9999978542465
 20
-2247.0
 10
427.07462726458994
 20
-2247.0
1001
BIMGUID
1000
1hOSvn6df7F8_7GcBWlRH8
1001
BIMSRC
1000
type:wall
1000
ifc_class:IfcDoor
1000
element_name:M_Single-Flush:1250mm x 2010mm:1250mm x 2010mm:146678
1000
storey:Level 1
1000
pos_x
1040
-0.02500000037252903
1000
pos_y
1040
-2.323000192642212
  0
LWPOLYLINE
  5
80
330
17
100
AcDbEntity
  8
A-DOOR
370
25
100
AcDbPolyline
 90
9
 70
1
 10
51.000001192106566
 20
-1743.2686495817393
 10
51.000001192106566
 20
-996.9999999999999
 10
30.447762479358044
 20
-996.9999999999999
 10
2.145780886309012e-06
 20
-996.9999999999999
 10
2.145780886309012e-06
 20
-1500.7313504182607
 10
2.145780886309012e-06
 20
-2247.0
 10
20.552240858529412
 20
-2247.0
 10
51.000001192106566
 20
-2247.0
 10
51.000001192106566
 20
-1743.268649581739
1001
BIMGUID
1000
1hOSvn6df7F8_7GcBWlRH8
1001
BIMSRC
1000
type:wall
1000
ifc_class:IfcDoor
1000
element_name:M_Single-Flush:1250mm x 2010mm:1250mm x 2010mm:146678
1000
storey:Level 1
1000
pos_x
1040
-0.02500000037252903
1000
pos_y
1040
-2.323000192642212
  0
LWPOLYLINE
  5
81
330
17
100
AcDbEntity
  8
A-WALL-PRTN
370
35
100
AcDbPolyline
 90
9
 70
1
 10
2476.000001013279
 20
-2461.6815634203335
 10
2476.000001013279
 20
-3999.9999723434526
 10
2546.762074751797
 20
-3999.9999723434526
 10
2599.999998986721
 20
-3999.9999723434526
 10
2599.999998986721
 20
-1955.318436579682
 10
2599.999998986721
 20
-417.0000276565631
 10
2529.2379252482024
 20
-417.0000276565631
 10
2476.000001013279
 20
-417.0000276565631
 10
2476.000001013279
 20
-2461.681563420334
1001
BIMGUID
1000
2O2Fr$t4X7Zf8NOew3FNld
1001
BIMSRC
1000
type:wall
1000
ifc_class:IfcWall
1000
element_name:Basic Wall:Interior - Partition (92mm Stud):138584
1000
storey:Level 1
1000
pos_x
1040
2.475999593734741
1000
pos_y
1040
-4.000000476837158
  0
LWPOLYLINE
  5
82
330
17
100
AcDbEntity
  8
A-WALL-PATT
370
35
100
AcDbPolyline
 90
9
 70
1
 10
2476.000001013279
 20
-2461.6815634203335
 10
2476.000001013279
 20
-3999.9999723434526
 10
2546.762074751797
 20
-3999.9999723434526
 10
2599.999998986721
 20
-3999.9999723434526
 10
2599.999998986721
 20
-1955.318436579682
 10
2599.999998986721
 20
-417.0000276565631
 10
2529.2379252482024
 20
-417.0000276565631
 10
2476.000001013279
 20
-417.0000276565631
 10
2476.000001013279
 20
-2461.681563420334
  0
HATCH
  5
83
330
17
100
AcDbEntity
  8
A-WALL-PATT
 62
0
100
AcDbHatch
 10
0.0
 20
0.0
 30
0.0
210
0.0
220
0.0
230
1.0
  2
SOLID
 70
1
 71
0
 91
1
 92
3
 72
0
 73
1
 93
9
 10
2476.000001013279
 20
-2461.6815634203335
 10
2476.000001013279
 20
-3999.9999723434526
 10
2546.762074751797
 20
-3999.9999723434526
 10
2599.999998986721
 20
-3999.9999723434526
 10
2599.999998986721
 20
-1955.318436579682
 10
2599.999998986721
 20
-417.0000276565631
 10
2529.2379252482024
 20
-417.0000276565631
 10
2476.000001013279
 20
-417.0000276565631
 10
2476.000001013279
 20
-2461.681563420334
 97
0
 75
1
 76
1
 98
0
  0
LWPOLYLINE
  5
84
330
17
100
AcDbEntity
  8
A-DOOR
370
25
100
AcDbPolyline
 90
9
 70
1
 10
8810.074627264537
 20
-16803.000000000025
 10
8825.000003814657
 20
-16803.000000000025
 10
8825.000003814657
 20
-16833.626856113227
 10
8825.000003814657
 20
-16878.999975204493
 10
8814.3815928768
 20
-16878.999975204493
 10
8799.999997854193
 20
-16878.999975204493
 10
8799.999997854193
 20
-16833.626856113227
 10
8799.999997854193
 20
-16803.000000000025
 10
8810.074627264537
 20
-16803.000000000025
1001
BIMGUID
1000
1hOSvn6df7F8_7GcBWlRGQ
1001
BIMSRC
1000
type:wall
1000
ifc_class:IfcDoor
1000
element_name:M_Single-Flush:1250mm x 2010mm:1250mm x 2010mm:146596
1000
storey:Level 1
1000
pos_x
1040
8.357999801635742
1000
pos_y
1040
-16.87900161743164
  0
LWPOLYLINE
  5
85
330
17
100
AcDbEntity
  8
A-DOOR
370
25
100
AcDbPolyline
 90
9
 70
1
 10
8814.925374404314
 20
-15553.000000000025
 10
8799.999997854193
 20
-15553.000000000025
 10
8799.999997854193
 20
-15522.373143886824
 10
8799.999997854193
 20
-15477.000024795558
 10
8810.618408792052
 20
-15477.000024795558
 10
8825.000003814657
 20
-15477.000024795558
 10
8825.000003814657
 20
-15522.373143886824
 10
8825.000003814657
 20
-15553.000000000025
 10
8814.925374404314
 20
-15553.000000000025
1001
BIMGUID
1000
1hOSvn6df7F8_7GcBWlRGQ
1001
BIMSRC
1000
type:wall
1000
ifc_class:IfcDoor
1000
element_name:M_Single-Flush:1250mm x 2010mm:1250mm x 2010mm:146596
1000
storey:Level 1
1000
pos_x
1040
8.357999801635742
1000
pos_y
1040
-16.87900161743164
  0
LWPOLYLINE
  5
86
330
17
100
AcDbEntity
  8
A-DOOR
370
25
100
AcDbPolyline
 90
9
 70
1
 10
8368.074625595607
 20
-16803.000000000025
 10
8383.000002145727
 20
-16803.000000000025
 10
8383.000002145727
 20
-16833.626856113227
 10
8383.000002145727
 20
-16878.999975204493
 10
8372.38159120787
 20
-16878.999975204493
 10
8357.999996185263
 20
-16878.999975204493
 10
8357.999996185263
 20
-16833.626856113227
 10
8357.999996185263
 20
-16803.000000000025
 10
8368.074625595607
 20
-16803.000000000025
1001
BIMGUID
1000
1hOSvn6df7F8_7GcBWlRGQ
1001
BIMSRC
1000
type:wall
1000
ifc_class:IfcDoor
1000
element_name:M_Single-Flush:1250mm x 2010mm:1250mm x 2010mm:146596
1000
storey:Level 1
1000
pos_x
1040
8.357999801635742
1000
pos_y
1040
-16.87900161743164
  0
LWPOLYLINE
  5
87
330
17
100
AcDbEntity
  8
A-DOOR
370
25
100
AcDbPolyline
 90
9
 70
1
 10
8372.925372735384
 20
-15553.000000000025
 10
8357.999996185263
 20
-15553.000000000025
 10
8357.999996185263
 20
-15522.373143886824
 10
8357.999996185263
 20
-15477.000024795558
 10
8368.618407123122
 20
-15477.000024795558
 10
8383.000002145727
 20
-15477.000024795558
 10
8383.000002145727
 20
-15522.373143886824
 10
8383.000002145727
 20
-15553.000000000025
 10
8372.925372735384
 20
-15553.000000000025
1001
BIMGUID
1000
1hOSvn6df7F8_7GcBWlRGQ
1001
BIMSRC
1000
type:wall
1000
ifc_class:IfcDoor
1000
element_name:M_Single-Flush:1250mm x 2010mm:1250mm x 2010mm:146596
1000
storey:Level 1
1000
pos_x
1040
8.357999801635742
1000
pos_y
1040
-16.87900161743164
  0
LWPOLYLINE
  5
88
330
17
100
AcDbEntity
  8
A-DOOR
370
25
100
AcDbPolyline
 90
9
 70
1
 10
8748.999998807867
 20
-16056.731350418286
 10
8748.999998807867
 20
-16803.000000000025
 10
8769.552237520616
 20
-16803.000000000025
 10
8799.999997854193
 20
-16803.000000000025
 10
8799.999997854193
 20
-16299.268649581765
 10
8799.999997854193
 20
-15553.000000000025
 10
8779.447759141445
 20
-15553.000000000025
 10
8748.999998807867
 20
-15553.000000000025
 10
8748.999998807867
 20
-16056.731350418286
1001
BIMGUID
1000
1hOSvn6df7F8_7GcBWlRGQ
1001
BIMSRC
1000
type:wall
1000
ifc_class:IfcDoor
1000
element_name:M_Single-Flush:1250mm x 2010mm:1250mm x 2010mm:146596
1000
storey:Level 1
1000
pos_x
1040
8.357999801635742
1000
pos_y
1040
-16.87900161743164
  0
LWPOLYLINE
  5
89
330
17
100
AcDbEntity
  8
A-WALL-PRTN
370
35
100
AcDbPolyline
 90
9
 70
1
 10
6200.000001013279
 20
-15844.681563420325
 10
6200.000001013279
 20
-17382.999972343445
 10
6270.762074751797
 20
-17382.999972343445
 10
6323.999998986721
 20
-17382.999972343445
 10
6323.999998986721
 20
-15338.318436579673
 10
6323.999998986721
 20
-13800.000027656555
 10
6253.237925248202
 20
-13800.000027656555
 10
6200.000001013279
 20
-13800.000027656555
 10
6200.000001013279
 20
-15844.681563420327
1001
BIMGUID
1000
2O2Fr$t4X7Zf8NOew3FKGS
1001
BIMSRC
1000
type:wall
1000
ifc_class:IfcWall
1000
element_name:Basic Wall:Interior - Partition (92mm Stud):139939
1000
storey:Level 1
1000
pos_x
1040
6.199999809265137
1000
pos_y
1040
-17.38300132751465
  0
LWPOLYLINE
  5
8A
330
17
100
AcDbEntity
  8
A-WALL-PATT
370
35
100
AcDbPolyline
 90
9
 70
1
 10
6200.000001013279
 20
-15844.681563420325
 10
6200.000001013279
 20
-17382.999972343445
 10
6270.762074751797
 20
-17382.999972343445
 10
6323.999998986721
 20
-17382.999972343445
 10
6323.999998986721
 20
-15338.318436579673
 10
6323.999998986721
 20
-13800.000027656555
 10
6253.237925248202
 20
-13800.000027656555
 10
6200.000001013279
 20
-13800.000027656555
 10
6200.000001013279
 20
-15844.681563420327
  0
HATCH
  5
8B
330
17
100
AcDbEntity
  8
A-WALL-PATT
 62
0
100
AcDbHatch
 10
0.0
 20
0.0
 30
0.0
210
0.0
220
0.0
230
1.0
  2
SOLID
 70
1
 71
0
 91
1
 92
3
 72
0
 73
1
 93
9
 10
6200.000001013279
 20
-15844.681563420325
 10
6200.000001013279
 20
-17382.999972343445
 10
6270.762074751797
 20
-17382.999972343445
 10
6323.999998986721
 20
-17382.999972343445
 10
6323.999998986721
 20
-15338.318436579673
 10
6323.999998986721
 20
-13800.000027656555
 10
6253.237925248202
 20
-13800.000027656555
 10
6200.000001013279
 20
-13800.000027656555
 10
6200.000001013279
 20
-15844.681563420327
 97
0
 75
1
 76
1
 98
0
  0
LWPOLYLINE
  5
8C
330
17
100
AcDbEntity
  8
A-DOOR
370
25
100
AcDbPolyline
 90
9
 70
1
 10
6226.0000010132935
 20
-10128.999987363799
 10
6215.231500673479
 20
-10128.999987363799
 10
6201.00000250341
 20
-10128.999987363799
 10
6201.00000250341
 20
-10084.118111609856
 10
6201.00000250341
 20
-10053.000012159331
 10
6211.236222157437
 20
-10053.000012159331
 10
6226.0000010132935
 20
-10053.000012159331
 10
6226.0000010132935
 20
-10084.118111609856
 10
6226.0000010132935
 20
-10128.999987363799
1001
BIMGUID
1000
1hOSvn6df7F8_7GcBWlS8Z
1001
BIMSRC
1000
type:wall
1000
ifc_class:IfcDoor
1000
element_name:M_Single-Flush:0762 x 2032mm:0762 x 2032mm:150173
1000
storey:Level 1
1000
pos_x
1040
6.2009992599487305
1000
pos_y
1040
-10.12900161743164
  0
LWPOLYLINE
  5
8D
330
17
100
AcDbEntity
  8
A-DOOR
370
25
100
AcDbPolyline
 90
9
 70
1
 10
6226.0000010132935
 20
-9290.999987840636
 10
6215.763781359266
 20
-9290.999987840636
 10
6201.00000250341
 20
-9290.999987840636
 10
6201.00000250341
 20
-9259.88188839011
 10
6201.00000250341
 20
-9215.000012636168
 10
6211.768502843224
 20
-9215.000012636168
 10
6226.0000010132935
 20
-9215.000012636168
 10
6226.0000010132935
 20
-9259.88188839011
 10
6226.0000010132935
 20
-9290.999987840636
1001
BIMGUID
1000
1hOSvn6df7F8_7GcBWlS8Z
1001
BIMSRC
1000
type:wall
1000
ifc_class:IfcDoor
1000
element_name:M_Single-Flush:0762 x 2032mm:0762 x 2032mm:150173
1000
storey:Level 1
1000
pos_x
1040
6.2009992599487305
1000
pos_y
1040
-10.12900161743164
  0
LWPOLYLINE
  5
8E
330
17
100
AcDbEntity
  8
A-DOOR
370
25
100
AcDbPolyline
 90
9
 70
1
 10
6374.9999974966195
 20
-10084.118111609856
 10
6374.9999974966195
 20
-10128.999987363799
 10
6364.231497156805
 20
-10128.999987363799
 10
6349.999998986736
 20
-10128.999987363799
 10
6349.999998986736
 20
-10084.118111609856
 10
6349.999998986736
 20
-10053.000012159331
 10
6360.236218640763
 20
-10053.000012159331
 10
6374.9999974966195
 20
-10053.000012159331
 10
6374.9999974966195
 20
-10084.118111609856
1001
BIMGUID
1000
1hOSvn6df7F8_7GcBWlS8Z
1001
BIMSRC
1000
type:wall
1000
ifc_class:IfcDoor
1000
element_name:M_Single-Flush:0762 x 2032mm:0762 x 2032mm:150173
1000
storey:Level 1
1000
pos_x
1040
6.2009992599487305
1000
pos_y
1040
-10.12900161743164
  0
LWPOLYLINE
  5
8F
330
17
100
AcDbEntity
  8
A-DOOR
370
25
100
AcDbPolyline
 90
9
 70
1
 10
6374.9999974966195
 20
-9259.88188839011
 10
6374.9999974966195
 20
-9290.999987840636
 10
6364.763777842592
 20
-9290.999987840636
 10
6349.999998986736
 20
-9290.999987840636
 10
6349.999998986736
 20
-9259.88188839011
 10
6349.999998986736
 20
-9215.000012636168
 10
6360.76849932655
 20
-9215.000012636168
 10
6374.9999974966195
 20
-9215.000012636168
 10
6374.9999974966195
 20
-9259.88188839011
1001
BIMGUID
1000
1hOSvn6df7F8_7GcBWlS8Z
1001
BIMSRC
1000
type:wall
1000
ifc_class:IfcDoor
1000
element_name:M_Single-Flush:0762 x 2032mm:0762 x 2032mm:150173
1000
storey:Level 1
1000
pos_x
1040
6.2009992599487305
1000
pos_y
1040
-10.12900161743164
  0
LWPOLYLINE
  5
90
330
17
100
AcDbEntity
  8
A-DOOR
370
25
100
AcDbPolyline
 90
9
 70
1
 10
6246.881889961685
 20
-10053.000012159331
 10
6277.000000059619
 20
-10053.000012159331
 10
6277.000000059619
 20
-9741.000008550667
 10
6277.000000059619
 20
-9290.999987840636
 10
6256.118111111226
 20
-9290.999987840636
 10
6226.0000010132935
 20
-9290.999987840636
 10
6226.0000010132935
 20
-9602.999991449298
 10
6226.0000010132935
 20
-10053.000012159331
 10
6246.881889961685
 20
-10053.000012159331
1001
BIMGUID
1000
1hOSvn6df7F8_7GcBWlS8Z
1001
BIMSRC
1000
type:wall
1000
ifc_class:IfcDoor
1000
element_name:M_Single-Flush:0762 x 2032mm:0762 x 2032mm:150173
1000
storey:Level 1
1000
pos_x
1040
6.2009992599487305
1000
pos_y
1040
-10.12900161743164
  0
LWPOLYLINE
  5
91
330
17
100
AcDbEntity
  8
A-WALL-PRTN
370
35
100
AcDbPolyline
 90
9
 70
1
 10
6279.237925248202
 20
-10995.00003814695
 10
6349.999998986721
 20
-10995.00003814695
 10
6349.999998986721
 20
-10438.700807032812
 10
6349.999998986721
 20
-10053.000006675698
 10
6299.228346264015
 20
-10053.000006675698
 10
6226.000001013279
 20
-10053.000006675698
 10
6226.000001013279
 20
-10438.700807032812
 10
6226.000001013279
 20
-10995.00003814695
 10
6279.237925248202
 20
-10995.00003814695
1001
BIMGUID
1000
2O2Fr$t4X7Zf8NOew3FKST
1001
BIMSRC
1000
type:wall
1000
ifc_class:IfcWall
1000
element_name:Basic Wall:Interior - Partition (92mm Stud):139682
1000
storey:Level 1
1000
pos_x
1040
6.22599983215332
1000
pos_y
1040
-10.995000839233398
  0
LWPOLYLINE
  5
92
330
17
100
AcDbEntity
  8
A-WALL-PATT
370
35
100
AcDbPolyline
 90
9
 70
1
 10
6279.237925248202
 20
-10995.00003814695
 10
6349.999998986721
 20
-10995.00003814695
 10
6349.999998986721
 20
-10438.700807032812
 10
6349.999998986721
 20
-10053.000006675698
 10
6299.228346264015
 20
-10053.000006675698
 10
6226.000001013279
 20
-10053.000006675698
 10
6226.000001013279
 20
-10438.700807032812
 10
6226.000001013279
 20
-10995.00003814695
 10
6279.237925248202
 20
-10995.00003814695
  0
HATCH
  5
93
330
17
100
AcDbEntity
  8
A-WALL-PATT
 62
0
100
AcDbHatch
 10
0.0
 20
0.0
 30
0.0
210
0.0
220
0.0
230
1.0
  2
SOLID
 70
1
 71
0
 91
1
 92
3
 72
0
 73
1
 93
9
 10
6279.237925248202
 20
-10995.00003814695
 10
6349.999998986721
 20
-10995.00003814695
 10
6349.999998986721
 20
-10438.700807032812
 10
6349.999998986721
 20
-10053.000006675698
 10
6299.228346264015
 20
-10053.000006675698
 10
6226.000001013279
 20
-10053.000006675698
 10
6226.000001013279
 20
-10438.700807032812
 10
6226.000001013279
 20
-10995.00003814695
 10
6279.237925248202
 20
-10995.00003814695
 97
0
 75
1
 76
1
 98
0
  0
LWPOLYLINE
  5
94
330
17
100
AcDbEntity
  8
A-WALL-PRTN
370
35
100
AcDbPolyline
 90
9
 70
1
 10
6226.000001013279
 20
-8793.110218892101
 10
6226.000001013279
 20
-8074.999961853006
 10
6279.237925248202
 20
-8074.999961853006
 10
6349.999998986721
 20
-8074.999961853006
 10
6349.999998986721
 20
-8793.110218892101
 10
6349.999998986721
 20
-9290.999997258165
 10
6276.771653735986
 20
-9290.999997258165
 10
6226.000001013279
 20
-9290.999997258165
 10
6226.000001013279
 20
-8793.110218892101
1001
BIMGUID
1000
2O2Fr$t4X7Zf8NOew3FKST
1001
BIMSRC
1000
type:wall
1000
ifc_class:IfcWall
1000
element_name:Basic Wall:Interior - Partition (92mm Stud):139682
1000
storey:Level 1
1000
pos_x
1040
6.22599983215332
1000
pos_y
1040
-10.995000839233398
  0
LWPOLYLINE
  5
95
330
17
100
AcDbEntity
  8
A-WALL-PATT
370
35
100
AcDbPolyline
 90
9
 70
1
 10
6226.000001013279
 20
-8793.110218892101
 10
6226.000001013279
 20
-8074.999961853006
 10
6279.237925248202
 20
-8074.999961853006
 10
6349.999998986721
 20
-8074.999961853006
 10
6349.999998986721
 20
-8793.110218892101
 10
6349.999998986721
 20
-9290.999997258165
 10
6276.771653735986
 20
-9290.999997258165
 10
6226.000001013279
 20
-9290.999997258165
 10
6226.000001013279
 20
-8793.110218892101
  0
HATCH
  5
96
330
17
100
AcDbEntity
  8
A-WALL-PATT
 62
0
100
AcDbHatch
 10
0.0
 20
0.0
 30
0.0
210
0.0
220
0.0
230
1.0
  2
SOLID
 70
1
 71
0
 91
1
 92
3
 72
0
 73
1
 93
9
 10
6226.000001013279
 20
-8793.110218892101
 10
6226.000001013279
 20
-8074.999961853006
 10
6279.237925248202
 20
-8074.999961853006
 10
6349.999998986721
 20
-8074.999961853006
 10
6349.999998986721
 20
-8793.110218892101
 10
6349.999998986721
 20
-9290.999997258165
 10
6276.771653735986
 20
-9290.999997258165
 10
6226.000001013279
 20
-9290.999997258165
 10
6226.000001013279
 20
-8793.110218892101
 97
0
 75
1
 76
1
 98
0
  0
LWPOLYLINE
  5
97
330
17
100
AcDbEntity
  8
A-WALL-PRTN
370
35
100
AcDbPolyline
 90
9
 70
1
 10
5600.88371603287
 20
-10369.999998986721
 10
6225.999985218047
 20
-10369.999998986721
 10
6225.999985218047
 20
-10299.2379252482
 10
6225.999985218047
 20
-10246.000001013279
 10
5395.116283967128
 20
-10246.000001013279
 10
4770.000014781951
 20
-10246.000001013279
 10
4770.000014781951
 20
-10316.762074751798
 10
4770.000014781951
 20
-10369.999998986721
 10
5600.883716032871
 20
-10369.999998986721
1001
BIMGUID
1000
2O2Fr$t4X7Zf8NOew3FKIu
1001
BIMSRC
1000
type:wall
1000
ifc_class:IfcWall
1000
element_name:Basic Wall:Interior - Partition (92mm Stud):139783
1000
storey:Level 1
1000
pos_x
1040
4.769999980926514
1000
pos_y
1040
-10.370000839233398
  0
LWPOLYLINE
  5
98
330
17
100
AcDbEntity
  8
A-WALL-PATT
370
35
100
AcDbPolyline
 90
9
 70
1
 10
5600.88371603287
 20
-10369.999998986721
 10
6225.999985218047
 20
-10369.999998986721
 10
6225.999985218047
 20
-10299.2379252482
 10
6225.999985218047
 20
-10246.000001013279
 10
5395.116283967128
 20
-10246.000001013279
 10
4770.000014781951
 20
-10246.000001013279
 10
4770.000014781951
 20
-10316.762074751798
 10
4770.000014781951
 20
-10369.999998986721
 10
5600.883716032871
 20
-10369.999998986721
  0
HATCH
  5
99
330
17
100
AcDbEntity
  8
A-WALL-PATT
 62
0
100
AcDbHatch
 10
0.0
 20
0.0
 30
0.0
210
0.0
220
0.0
230
1.0
  2
SOLID
 70
1
 71
0
 91
1
 92
3
 72
0
 73
1
 93
9
 10
5600.88371603287
 20
-10369.999998986721
 10
6225.999985218047
 20
-10369.999998986721
 10
6225.999985218047
 20
-10299.2379252482
 10
6225.999985218047
 20
-10246.000001013279
 10
5395.116283967128
 20
-10246.000001013279
 10
4770.000014781951
 20
-10246.000001013279
 10
4770.000014781951
 20
-10316.762074751798
 10
4770.000014781951
 20
-10369.999998986721
 10
5600.883716032871
 20
-10369.999998986721
 97
0
 75
1
 76
1
 98
0
  0
LWPOLYLINE
  5
9A
330
17
100
AcDbEntity
  8
A-WALL-PRTN
370
35
100
AcDbPolyline
 90
9
 70
1
 10
4618.00000244379
 20
-9384.669052842852
 10
4618.00000244379
 20
-10370.000038146973
 10
4704.740607590438
 20
-10370.000038146973
 10
4769.99999755621
 20
-10370.000038146973
 10
4769.99999755621
 20
-9060.330947157148
 10
4769.99999755621
 20
-8074.999961853027
 10
4683.259392409562
 20
-8074.999961853027
 10
4618.00000244379
 20
-8074.999961853027
 10
4618.00000244379
 20
-9384.669052842852
1001
BIMGUID
1000
0iEHWY1$XA8eQeeULq4jDb
1001
BIMSRC
1000
type:wall
1000
ifc_class:IfcWall
1000
element_name:Basic Wall:Interior - Furring (152 mm Stud):190774
1000
storey:Level 1
1000
pos_x
1040
4.61799955368042
1000
pos_y
1040
-10.370000839233398
  0
LWPOLYLINE
  5
9B
330
17
100
AcDbEntity
  8
A-WALL-PATT
370
35
100
AcDbPolyline
 90
9
 70
1
 10
4618.00000244379
 20
-9384.669052842852
 10
4618.00000244379
 20
-10370.000038146973
 10
4704.740607590438
 20
-10370.000038146973
 10
4769.99999755621
 20
-10370.000038146973
 10
4769.99999755621
 20
-9060.330947157148
 10
4769.99999755621
 20
-8074.999961853027
 10
4683.259392409562
 20
-8074.999961853027
 10
4618.00000244379
 20
-8074.999961853027
 10
4618.00000244379
 20
-9384.669052842852
  0
HATCH
  5
9C
330
17
100
AcDbEntity
  8
A-WALL-PATT
 62
0
100
AcDbHatch
 10
0.0
 20
0.0
 30
0.0
210
0.0
220
0.0
230
1.0
  2
SOLID
 70
1
 71
0
 91
1
 92
3
 72
0
 73
1
 93
9
 10
4618.00000244379
 20
-9384.669052842852
 10
4618.00000244379
 20
-10370.000038146973
 10
4704.740607590438
 20
-10370.000038146973
 10
4769.99999755621
 20
-10370.000038146973
 10
4769.99999755621
 20
-9060.330947157148
 10
4769.99999755621
 20
-8074.999961853027
 10
4683.259392409562
 20
-8074.999961853027
 10
4618.00000244379
 20
-8074.999961853027
 10
4618.00000244379
 20
-9384.669052842852
 97
0
 75
1
 76
1
 98
0
  0
LWPOLYLINE
  5
9D
330
17
100
AcDbEntity
  8
A-WALL-FULL
370
50
100
AcDbPolyline
 90
9
 70
1
 10
8799.999997854233
 20
-11478.403171405273
 10
8799.999997854233
 20
-5944.999929428118
 10
8591.500004519095
 20
-5944.999929428118
 10
8383.000002145767
 20
-5944.999929428118
 10
8383.000002145767
 20
-11478.403171405273
 10
8383.000002145767
 20
-15552.999969482438
 10
8551.044781555887
 20
-15552.999969482438
 10
8799.999997854233
 20
-15552.999969482438
 10
8799.999997854233
 20
-11478.403171405273
1001
BIMGUID
1000
2O2Fr$t4X7Zf8NOew3FNqI
1001
BIMSRC
1000
type:wall
1000
ifc_class:IfcWall
1000
element_name:Basic Wall:Exterior - Brick on Block:138157
1000
storey:Level 1
1000
pos_x
1040
8.382999420166016
1000
pos_y
1040
-17.800003051757812
  0
LWPOLYLINE
  5
9E
330
17
100
AcDbEntity
  8
A-WALL-PATT
370
50
100
AcDbPolyline
 90
9
 70
1
 10
8799.999997854233
 20
-11478.403171405273
 10
8799.999997854233
 20
-5944.999929428118
 10
8591.500004519095
 20
-5944.999929428118
 10
8383.000002145767
 20
-5944.999929428118
 10
8383.000002145767
 20
-11478.403171405273
 10
8383.000002145767
 20
-15552.999969482438
 10
8551.044781555887
 20
-15552.999969482438
 10
8799.999997854233
 20
-15552.999969482438
 10
8799.999997854233
 20
-11478.403171405273
  0
HATCH
  5
9F
330
17
100
AcDbEntity
  8
A-WALL-PATT
 62
0
100
AcDbHatch
 10
0.0
 20
0.0
 30
0.0
210
0.0
220
0.0
230
1.0
  2
SOLID
 70
1
 71
0
 91
1
 92
3
 72
0
 73
1
 93
9
 10
8799.999997854233
 20
-11478.403171405273
 10
8799.999997854233
 20
-5944.999929428118
 10
8591.500004519095
 20
-5944.999929428118
 10
8383.000002145767
 20
-5944.999929428118
 10
8383.000002145767
 20
-11478.403171405273
 10
8383.000002145767
 20
-15552.999969482438
 10
8551.044781555887
 20
-15552.999969482438
 10
8799.999997854233
 20
-15552.999969482438
 10
8799.999997854233
 20
-11478.403171405273
 97
0
 75
1
 76
1
 98
0
  0
LWPOLYLINE
  5
A0
330
17
100
AcDbEntity
  8
A-WALL-FULL
370
50
100
AcDbPolyline
 90
9
 70
1
 10
8799.999997854233
 20
-17799.999710083026
 10
8638.58064612515
 20
-17799.999710083026
 10
8383.000002145767
 20
-17799.999710083026
 10
8383.000002145767
 20
-17204.775996353925
 10
8383.000002145767
 20
-16802.99996948244
 10
8631.955218444113
 20
-16802.99996948244
 10
8799.999997854233
 20
-16802.99996948244
 10
8799.999997854233
 20
-17204.775996353925
 10
8799.999997854233
 20
-17799.999710083026
1001
BIMGUID
1000
2O2Fr$t4X7Zf8NOew3FNqI
1001
BIMSRC
1000
type:wall
1000
ifc_class:IfcWall
1000
element_name:Basic Wall:Exterior - Brick on Block:138157
1000
storey:Level 1
1000
pos_x
1040
8.382999420166016
1000
pos_y
1040
-17.800003051757812
  0
LWPOLYLINE
  5
A1
330
17
100
AcDbEntity
  8
A-WALL-PATT
370
50
100
AcDbPolyline
 90
9
 70
1
 10
8799.999997854233
 20
-17799.999710083026
 10
8638.58064612515
 20
-17799.999710083026
 10
8383.000002145767
 20
-17799.999710083026
 10
8383.000002145767
 20
-17204.775996353925
 10
8383.000002145767
 20
-16802.99996948244
 10
8631.955218444113
 20
-16802.99996948244
 10
8799.999997854233
 20
-16802.99996948244
 10
8799.999997854233
 20
-17204.775996353925
 10
8799.999997854233
 20
-17799.999710083026
  0
HATCH
  5
A2
330
17
100
AcDbEntity
  8
A-WALL-PATT
 62
0
100
AcDbHatch
 10
0.0
 20
0.0
 30
0.0
210
0.0
220
0.0
230
1.0
  2
SOLID
 70
1
 71
0
 91
1
 92
3
 72
0
 73
1
 93
9
 10
8799.999997854233
 20
-17799.999710083026
 10
8638.58064612515
 20
-17799.999710083026
 10
8383.000002145767
 20
-17799.999710083026
 10
8383.000002145767
 20
-17204.775996353925
 10
8383.000002145767
 20
-16802.99996948244
 10
8631.955218444113
 20
-16802.99996948244
 10
8799.999997854233
 20
-16802.99996948244
 10
8799.999997854233
 20
-17204.775996353925
 10
8799.999997854233
 20
-17799.999710083026
 97
0
 75
1
 76
1
 98
0
  0
LWPOLYLINE
  5
A3
330
17
100
AcDbEntity
  8
A-WALL-FULL
370
50
100
AcDbPolyline
 90
9
 70
1
 10
8799.999997854233
 20
-2909.8696196775895
 10
8799.999997854233
 20
-417.00028991700935
 10
8638.58064612515
 20
-417.00028991700935
 10
8383.000002145767
 20
-417.00028991700935
 10
8383.000002145767
 20
-2909.8696196775895
 10
8383.000002145767
 20
-5194.999929428118
 10
8591.499995480905
 20
-5194.999929428118
 10
8799.999997854233
 20
-5194.999929428118
 10
8799.999997854233
 20
-2909.8696196775886
1001
BIMGUID
1000
2O2Fr$t4X7Zf8NOew3FNqI
1001
BIMSRC
1000
type:wall
1000
ifc_class:IfcWall
1000
element_name:Basic Wall:Exterior - Brick on Block:138157
1000
storey:Level 1
1000
pos_x
1040
8.382999420166016
1000
pos_y
1040
-17.800003051757812
  0
LWPOLYLINE
  5
A4
330
17
100
AcDbEntity
  8
A-WALL-PATT
370
50
100
AcDbPolyline
 90
9
 70
1
 10
8799.999997854233
 20
-2909.8696196775895
 10
8799.999997854233
 20
-417.00028991700935
 10
8638.58064612515
 20
-417.00028991700935
 10
8383.000002145767
 20
-417.00028991700935
 10
8383.000002145767
 20
-2909.8696196775895
 10
8383.000002145767
 20
-5194.999929428118
 10
8591.499995480905
 20
-5194.999929428118
 10
8799.999997854233
 20
-5194.999929428118
 10
8799.999997854233
 20
-2909.8696196775886
  0
HATCH
  5
A5
330
17
100
AcDbEntity
  8
A-WALL-PATT
 62
0
100
AcDbHatch
 10
0.0
 20
0.0
 30
0.0
210
0.0
220
0.0
230
1.0
  2
SOLID
 70
1
 71
0
 91
1
 92
3
 72
0
 73
1
 93
9
 10
8799.999997854233
 20
-2909.8696196775895
 10
8799.999997854233
 20
-417.00028991700935
 10
8638.58064612515
 20
-417.00028991700935
 10
8383.000002145767
 20
-417.00028991700935
 10
8383.000002145767
 20
-2909.8696196775895
 10
8383.000002145767
 20
-5194.999929428118
 10
8591.499995480905
 20
-5194.999929428118
 10
8799.999997854233
 20
-5194.999929428118
 10
8799.999997854233
 20
-2909.8696196775886
 97
0
 75
1
 76
1
 98
0
  0
LWPOLYLINE
  5
A6
330
17
100
AcDbEntity
  8
A-GLAZ
370
25
100
AcDbPolyline
 90
9
 70
1
 10
8765.000001430504
 20
-5570.000000000003
 10
8765.000001430504
 20
-5257.999993562706
 10
8759.000004172318
 20
-5257.999993562706
 10
8753.000006914132
 20
-5257.999993562706
 10
8753.000006914132
 20
-5570.000000000012
 10
8753.000006914132
 20
-5882.000006437309
 10
8759.000004172318
 20
-5882.000006437309
 10
8765.000001430504
 20
-5882.000006437309
 10
8765.000001430504
 20
-5570.000000000003
1001
BIMGUID
1000
1hOSvn6df7F8_7GcBWlRLx
1001
BIMSRC
1000
type:wall
1000
ifc_class:IfcWindow
1000
element_name:M_Fixed:750mm x 2200mm:750mm x 2200mm:146885
1000
storey:Level 1
1000
pos_x
1040
8.382999420166016
1000
pos_y
1040
-5.945000171661377
  0
LWPOLYLINE
  5
A7
330
17
100
AcDbEntity
  8
A-GLAZ
370
25
100
AcDbPolyline
 90
9
 70
1
 10
8781.000004053109
 20
-5926.00000619889
 10
8759.000004172318
 20
-5926.00000619889
 10
8737.000004291527
 20
-5926.00000619889
 10
8737.000004291527
 20
-5903.542971055732
 10
8737.000004291527
 20
-5882.000006437309
 10
8759.000004172318
 20
-5882.000006437309
 10
8781.000004053109
 20
-5882.000006437309
 10
8781.000004053109
 20
-5903.542971055732
 10
8781.000004053109
 20
-5926.00000619889
1001
BIMGUID
1000
1hOSvn6df7F8_7GcBWlRLx
1001
BIMSRC
1000
type:wall
1000
ifc_class:IfcWindow
1000
element_name:M_Fixed:750mm x 2200mm:750mm x 2200mm:146885
1000
storey:Level 1
1000
pos_x
1040
8.382999420166016
1000
pos_y
1040
-5.945000171661377
  0
LWPOLYLINE
  5
A8
330
17
100
AcDbEntity
  8
A-GLAZ
370
25
100
AcDbPolyline
 90
9
 70
1
 10
8781.000004053109
 20
-5236.457028944283
 10
8781.000004053109
 20
-5213.999993801124
 10
8759.000004172318
 20
-5213.999993801124
 10
8737.000004291527
 20
-5213.999993801124
 10
8737.000004291527
 20
-5236.457028944283
 10
8737.000004291527
 20
-5257.999993562706
 10
8759.000004172318
 20
-5257.999993562706
 10
8781.000004053109
 20
-5257.999993562706
 10
8781.000004053109
 20
-5236.457028944283
1001
BIMGUID
1000
1hOSvn6df7F8_7GcBWlRLx
1001
BIMSRC
1000
type:wall
1000
ifc_class:IfcWindow
1000
element_name:M_Fixed:750mm x 2200mm:750mm x 2200mm:146885
1000
storey:Level 1
1000
pos_x
1040
8.382999420166016
1000
pos_y
1040
-5.945000171661377
  0
LWPOLYLINE
  5
A9
330
17
100
AcDbEntity
  8
A-GLAZ
370
25
100
AcDbPolyline
 90
9
 70
1
 10
8799.999997854226
 20
-5945.000000000007
 10
8768.500001072876
 20
-5945.000000000007
 10
8737.000004291527
 20
-5945.000000000007
 10
8737.000004291527
 20
-5935.417242691866
 10
8737.000004291527
 20
-5926.00000619889
 10
8768.500001072876
 20
-5926.00000619889
 10
8799.999997854226
 20
-5926.00000619889
 10
8799.999997854226
 20
-5935.417242691866
 10
8799.999997854226
 20
-5945.000000000007
1001
BIMGUID
1000
1hOSvn6df7F8_7GcBWlRLx
1001
BIMSRC
1000
type:wall
1000
ifc_class:IfcWindow
1000
element_name:M_Fixed:750mm x 2200mm:750mm x 2200mm:146885
1000
storey:Level 1
1000
pos_x
1040
8.382999420166016
1000
pos_y
1040
-5.945000171661377
  0
LWPOLYLINE
  5
AA
330
17
100
AcDbEntity
  8
A-GLAZ
370
25
100
AcDbPolyline
 90
9
 70
1
 10
8799.999997854226
 20
-5204.582757308149
 10
8799.999997854226
 20
-5195.000000000007
 10
8768.500001072876
 20
-5195.000000000007
 10
8737.000004291527
 20
-5195.000000000007
 10
8737.000004291527
 20
-5204.582757308149
 10
8737.000004291527
 20
-5213.999993801124
 10
8768.500001072876
 20
-5213.999993801124
 10
8799.999997854226
 20
-5213.999993801124
 10
8799.999997854226
 20
-5204.582757308149
1001
BIMGUID
1000
1hOSvn6df7F8_7GcBWlRLx
1001
BIMSRC
1000
type:wall
1000
ifc_class:IfcWindow
1000
element_name:M_Fixed:750mm x 2200mm:750mm x 2200mm:146885
1000
storey:Level 1
1000
pos_x
1040
8.382999420166016
1000
pos_y
1040
-5.945000171661377
  0
LWPOLYLINE
  5
AB
330
17
100
AcDbEntity
  8
A-GLAZ
370
25
100
AcDbPolyline
 90
9
 70
1
 10
8737.000004291527
 20
-5945.000000000007
 10
8560.000003218642
 20
-5945.000000000007
 10
8383.00000214576
 20
-5945.000000000007
 10
8383.00000214576
 20
-5928.763834496603
 10
8383.00000214576
 20
-5912.9999947547985
 10
8560.000003218645
 20
-5912.9999947547985
 10
8737.000004291527
 20
-5912.9999947547985
 10
8737.000004291527
 20
-5928.763834496603
 10
8737.000004291527
 20
-5945.000000000007
1001
BIMGUID
1000
1hOSvn6df7F8_7GcBWlRLx
1001
BIMSRC
1000
type:wall
1000
ifc_class:IfcWindow
1000
element_name:M_Fixed:750mm x 2200mm:750mm x 2200mm:146885
1000
storey:Level 1
1000
pos_x
1040
8.382999420166016
1000
pos_y
1040
-5.945000171661377
  0
LWPOLYLINE
  5
AC
330
17
100
AcDbEntity
  8
A-GLAZ
370
25
100
AcDbPolyline
 90
9
 70
1
 10
8737.000004291527
 20
-5211.236165503412
 10
8737.000004291527
 20
-5195.000000000007
 10
8560.000003218645
 20
-5195.000000000007
 10
8383.00000214576
 20
-5195.000000000007
 10
8383.00000214576
 20
-5211.236165503412
 10
8383.00000214576
 20
-5227.000005245216
 10
8560.000003218642
 20
-5227.000005245216
 10
8737.000004291527
 20
-5227.000005245216
 10
8737.000004291527
 20
-5211.236165503412
1001
BIMGUID
1000
1hOSvn6df7F8_7GcBWlRLx
1001
BIMSRC
1000
type:wall
1000
ifc_class:IfcWindow
1000
element_name:M_Fixed:750mm x 2200mm:750mm x 2200mm:146885
1000
storey:Level 1
1000
pos_x
1040
8.382999420166016
1000
pos_y
1040
-5.945000171661377
  0
LWPOLYLINE
  5
AD
330
17
100
AcDbEntity
  8
A-GLAZ
370
25
100
AcDbPolyline
 90
9
 70
1
 10
34.99999856948682
 20
-12230.000000000022
 10
34.99999856948682
 20
-12542.00000643732
 10
40.999995827673246
 20
-12542.00000643732
 10
46.9999930858595
 20
-12542.00000643732
 10
46.9999930858595
 20
-12230.000000000015
 10
46.9999930858595
 20
-11917.999993562717
 10
40.99999582767308
 20
-11917.999993562717
 10
34.99999856948682
 20
-11917.999993562717
 10
34.99999856948682
 20
-12230.000000000022
1001
BIMGUID
1000
1hOSvn6df7F8_7GcBWlRRL
1001
BIMSRC
1000
type:wall
1000
ifc_class:IfcWindow
1000
element_name:M_Fixed:750mm x 2200mm:750mm x 2200mm:147051
1000
storey:Level 1
1000
pos_x
1040
-1.4155343563970746e-15
1000
pos_y
1040
-12.605001449584961
  0
LWPOLYLINE
  5
AE
330
17
100
AcDbEntity
  8
A-GLAZ
370
25
100
AcDbPolyline
 90
9
 70
1
 10
18.999995946882454
 20
-11873.999993801135
 10
40.999995827673445
 20
-11873.999993801135
 10
62.99999570846387
 20
-11873.999993801135
 10
62.99999570846387
 20
-11896.457028944295
 10
62.99999570846387
 20
-11917.999993562717
 10
40.999995827672855
 20
-11917.999993562717
 10
18.999995946882454
 20
-11917.999993562717
 10
18.999995946882454
 20
-11896.457028944295
 10
18.999995946882454
 20
-11873.999993801135
1001
BIMGUID
1000
1hOSvn6df7F8_7GcBWlRRL
1001
BIMSRC
1000
type:wall
1000
ifc_class:IfcWindow
1000
element_name:M_Fixed:750mm x 2200mm:750mm x 2200mm:147051
1000
storey:Level 1
1000
pos_x
1040
-1.4155343563970746e-15
1000
pos_y
1040
-12.605001449584961
  0
LWPOLYLINE
  5
AF
330
17
100
AcDbEntity
  8
A-GLAZ
370
25
100
AcDbPolyline
 90
9
 70
1
 10
18.999995946882454
 20
-12563.542971055742
 10
18.999995946882454
 20
-12586.000006198901
 10
40.99999582767288
 20
-12586.000006198901
 10
62.99999570846387
 20
-12586.000006198901
 10
62.99999570846387
 20
-12563.542971055742
 10
62.99999570846387
 20
-12542.00000643732
 10
40.999995827673466
 20
-12542.00000643732
 10
18.999995946882454
 20
-12542.00000643732
 10
18.999995946882454
 20
-12563.542971055742
1001
BIMGUID
1000
1hOSvn6df7F8_7GcBWlRRL
1001
BIMSRC
1000
type:wall
1000
ifc_class:IfcWindow
1000
element_name:M_Fixed:750mm x 2200mm:750mm x 2200mm:147051
1000
storey:Level 1
1000
pos_x
1040
-1.4155343563970746e-15
1000
pos_y
1040
-12.605001449584961
  0
LWPOLYLINE
  5
B0
330
17
100
AcDbEntity
  8
A-GLAZ
370
25
100
AcDbPolyline
 90
9
 70
1
 10
2.145765509720121e-06
 20
-11855.000000000018
 10
31.499998927115108
 20
-11855.000000000018
 10
62.99999570846387
 20
-11855.000000000018
 10
62.99999570846387
 20
-11864.58275730816
 10
62.99999570846387
 20
-11873.999993801135
 10
31.499998927114277
 20
-11873.999993801135
 10
2.145765509720121e-06
 20
-11873.999993801135
 10
2.145765509720121e-06
 20
-11864.58275730816
 10
2.145765509720121e-06
 20
-11855.000000000018
1001
BIMGUID
1000
1hOSvn6df7F8_7GcBWlRRL
1001
BIMSRC
1000
type:wall
1000
ifc_class:IfcWindow
1000
element_name:M_Fixed:750mm x 2200mm:750mm x 2200mm:147051
1000
storey:Level 1
1000
pos_x
1040
-1.4155343563970746e-15
1000
pos_y
1040
-12.605001449584961
  0
LWPOLYLINE
  5
B1
330
17
100
AcDbEntity
  8
A-GLAZ
370
25
100
AcDbPolyline
 90
9
 70
1
 10
2.145765509720121e-06
 20
-12595.417242691876
 10
2.145765509720121e-06
 20
-12605.000000000018
 10
31.499998927114277
 20
-12605.000000000018
 10
62.99999570846387
 20
-12605.000000000018
 10
62.99999570846387
 20
-12595.417242691876
 10
62.99999570846387
 20
-12586.000006198901
 10
31.499998927115108
 20
-12586.000006198901
 10
2.145765509720121e-06
 20
-12586.000006198901
 10
2.145765509720121e-06
 20
-12595.417242691876
1001
BIMGUID
1000
1hOSvn6df7F8_7GcBWlRRL
1001
BIMSRC
1000
type:wall
1000
ifc_class:IfcWindow
1000
element_name:M_Fixed:750mm x 2200mm:750mm x 2200mm:147051
1000
storey:Level 1
1000
pos_x
1040
-1.4155343563970746e-15
1000
pos_y
1040
-12.605001449584961
  0
LWPOLYLINE
  5
B2
330
17
100
AcDbEntity
  8
A-GLAZ
370
25
100
AcDbPolyline
 90
9
 70
1
 10
62.99999570846387
 20
-11855.000000000018
 10
239.9999967813498
 20
-11855.000000000018
 10
416.9999978542311
 20
-11855.000000000018
 10
416.9999978542311
 20
-11871.236165503422
 10
416.9999978542311
 20
-11887.000005245227
 10
239.9999967813451
 20
-11887.000005245227
 10
62.99999570846387
 20
-11887.000005245227
 10
62.99999570846387
 20
-11871.236165503422
 10
62.99999570846387
 20
-11855.000000000018
1001
BIMGUID
1000
1hOSvn6df7F8_7GcBWlRRL
1001
BIMSRC
1000
type:wall
1000
ifc_class:IfcWindow
1000
element_name:M_Fixed:750mm x 2200mm:750mm x 2200mm:147051
1000
storey:Level 1
1000
pos_x
1040
-1.4155343563970746e-15
1000
pos_y
1040
-12.605001449584961
  0
LWPOLYLINE
  5
B3
330
17
100
AcDbEntity
  8
A-GLAZ
370
25
100
AcDbPolyline
 90
9
 70
1
 10
62.99999570846387
 20
-12588.763834496614
 10
62.99999570846387
 20
-12605.000000000018
 10
239.99999678134515
 20
-12605.000000000018
 10
416.9999978542311
 20
-12605.000000000018
 10
416.9999978542311
 20
-12588.763834496614
 10
416.9999978542311
 20
-12572.99999475481
 10
239.99999678134986
 20
-12572.99999475481
 10
62.99999570846387
 20
-12572.99999475481
 10
62.99999570846387
 20
-12588.763834496614
1001
BIMGUID
1000
1hOSvn6df7F8_7GcBWlRRL
1001
BIMSRC
1000
type:wall
1000
ifc_class:IfcWindow
1000
element_name:M_Fixed:750mm x 2200mm:750mm x 2200mm:147051
1000
storey:Level 1
1000
pos_x
1040
-1.4155343563970746e-15
1000
pos_y
1040
-12.605001449584961
  0
LWPOLYLINE
  5
B4
330
17
100
AcDbEntity
  8
A-WALL-FULL
370
50
100
AcDbPolyline
 90
9
 70
1
 10
2.1457662036095115e-06
 20
-6321.596819038042
 10
2.1457662036095115e-06
 20
-11854.999923706064
 10
208.49999548090287
 20
-11854.999923706064
 10
416.9999978542318
 20
-11854.999923706064
 10
416.9999978542318
 20
-6321.596819038042
 10
416.9999978542318
 20
-2247.0001220703216
 10
248.95521844411044
 20
-2247.0001220703216
 10
2.1457662036095115e-06
 20
-2247.0001220703216
 10
2.1457662036095115e-06
 20
-6321.596819038042
1001
BIMGUID
1000
2O2Fr$t4X7Zf8NOew3FNhv
1001
BIMSRC
1000
type:wall
1000
ifc_class:IfcWall
1000
element_name:Basic Wall:Exterior - Brick on Block:138310
1000
storey:Level 1
1000
pos_x
1040
-9.992007221626409e-16
1000
pos_y
1040
-17.38300132751465
  0
LWPOLYLINE
  5
B5
330
17
100
AcDbEntity
  8
A-WALL-PATT
370
50
100
AcDbPolyline
 90
9
 70
1
 10
2.1457662036095115e-06
 20
-6321.596819038042
 10
2.1457662036095115e-06
 20
-11854.999923706064
 10
208.49999548090287
 20
-11854.999923706064
 10
416.9999978542318
 20
-11854.999923706064
 10
416.9999978542318
 20
-6321.596819038042
 10
416.9999978542318
 20
-2247.0001220703216
 10
248.95521844411044
 20
-2247.0001220703216
 10
2.1457662036095115e-06
 20
-2247.0001220703216
 10
2.1457662036095115e-06
 20
-6321.596819038042
  0
HATCH
  5
B6
330
17
100
AcDbEntity
  8
A-WALL-PATT
 62
0
100
AcDbHatch
 10
0.0
 20
0.0
 30
0.0
210
0.0
220
0.0
230
1.0
  2
SOLID
 70
1
 71
0
 91
1
 92
3
 72
0
 73
1
 93
9
 10
2.1457662036095115e-06
 20
-6321.596819038042
 10
2.1457662036095115e-06
 20
-11854.999923706064
 10
208.49999548090287
 20
-11854.999923706064
 10
416.9999978542318
 20
-11854.999923706064
 10
416.9999978542318
 20
-6321.596819038042
 10
416.9999978542318
 20
-2247.0001220703216
 10
248.95521844411044
 20
-2247.0001220703216
 10
2.1457662036095115e-06
 20
-2247.0001220703216
 10
2.1457662036095115e-06
 20
-6321.596819038042
 97
0
 75
1
 76
1
 98
0
  0
LWPOLYLINE
  5
B7
330
17
100
AcDbEntity
  8
A-WALL-FULL
370
50
100
AcDbPolyline
 90
9
 70
1
 10
2.1457662036095115e-06
 20
-417.000198364267
 10
161.4193538748486
 20
-417.000198364267
 10
416.9999978542318
 20
-417.000198364267
 10
416.9999978542318
 20
-763.2688025496091
 10
416.9999978542318
 20
-997.0001220703217
 10
168.04478155588754
 20
-997.0001220703217
 10
2.1457662036095115e-06
 20
-997.0001220703217
 10
2.1457662036095115e-06
 20
-763.2688025496091
 10
2.1457662036095115e-06
 20
-417.000198364267
1001
BIMGUID
1000
2O2Fr$t4X7Zf8NOew3FNhv
1001
BIMSRC
1000
type:wall
1000
ifc_class:IfcWall
1000
element_name:Basic Wall:Exterior - Brick on Block:138310
1000
storey:Level 1
1000
pos_x
1040
-9.992007221626409e-16
1000
pos_y
1040
-17.38300132751465
  0
LWPOLYLINE
  5
B8
330
17
100
AcDbEntity
  8
A-WALL-PATT
370
50
100
AcDbPolyline
 90
9
 70
1
 10
2.1457662036095115e-06
 20
-417.000198364267
 10
161.4193538748486
 20
-417.000198364267
 10
416.9999978542318
 20
-417.000198364267
 10
416.9999978542318
 20
-763.2688025496091
 10
416.9999978542318
 20
-997.0001220703217
 10
168.04478155588754
 20
-997.0001220703217
 10
2.1457662036095115e-06
 20
-997.0001220703217
 10
2.1457662036095115e-06
 20
-763.2688025496091
 10
2.1457662036095115e-06
 20
-417.000198364267
  0
HATCH
  5
B9
330
17
100
AcDbEntity
  8
A-WALL-PATT
 62
0
100
AcDbHatch
 10
0.0
 20
0.0
 30
0.0
210
0.0
220
0.0
230
1.0
  2
SOLID
 70
1
 71
0
 91
1
 92
3
 72
0
 73
1
 93
9
 10
2.1457662036095115e-06
 20
-417.000198364267
 10
161.4193538748486
 20
-417.000198364267
 10
416.9999978542318
 20
-417.000198364267
 10
416.9999978542318
 20
-763.2688025496091
 10
416.9999978542318
 20
-997.0001220703217
 10
168.04478155588754
 20
-997.0001220703217
 10
2.1457662036095115e-06
 20
-997.0001220703217
 10
2.1457662036095115e-06
 20
-763.2688025496091
 10
2.1457662036095115e-06
 20
-417.000198364267
 97
0
 75
1
 76
1
 98
0
  0
LWPOLYLINE
  5
BA
330
17
100
AcDbEntity
  8
A-WALL-FULL
370
50
100
AcDbPolyline
 90
9
 70
1
 10
2.1457662036095115e-06
 20
-14890.130347482871
 10
2.1457662036095115e-06
 20
-17382.999801635753
 10
161.4193538748486
 20
-17382.999801635753
 10
416.9999978542318
 20
-17382.999801635753
 10
416.9999978542318
 20
-14890.130347482871
 10
416.9999978542318
 20
-12604.999923706064
 10
208.5000045190951
 20
-12604.999923706064
 10
2.1457662036095115e-06
 20
-12604.999923706064
 10
2.1457662036095115e-06
 20
-14890.130347482871
1001
BIMGUID
1000
2O2Fr$t4X7Zf8NOew3FNhv
1001
BIMSRC
1000
type:wall
1000
ifc_class:IfcWall
1000
element_name:Basic Wall:Exterior - Brick on Block:138310
1000
storey:Level 1
1000
pos_x
1040
-9.992007221626409e-16
1000
pos_y
1040
-17.38300132751465
  0
LWPOLYLINE
  5
BB
330
17
100
AcDbEntity
  8
A-WALL-PATT
370
50
100
AcDbPolyline
 90
9
 70
1
 10
2.1457662036095115e-06
 20
-14890.130347482871
 10
2.1457662036095115e-06
 20
-17382.999801635753
 10
161.4193538748486
 20
-17382.999801635753
 10
416.9999978542318
 20
-17382.999801635753
 10
416.9999978542318
 20
-14890.130347482871
 10
416.9999978542318
 20
-12604.999923706064
 10
208.5000045190951
 20
-12604.999923706064
 10
2.1457662036095115e-06
 20
-12604.999923706064
 10
2.1457662036095115e-06
 20
-14890.130347482871
  0
HATCH
  5
BC
330
17
100
AcDbEntity
  8
A-WALL-PATT
 62
0
100
AcDbHatch
 10
0.0
 20
0.0
 30
0.0
210
0.0
220
0.0
230
1.0
  2
SOLID
 70
1
 71
0
 91
1
 92
3
 72
0
 73
1
 93
9
 10
2.1457662036095115e-06
 20
-14890.130347482871
 10
2.1457662036095115e-06
 20
-17382.999801635753
 10
161.4193538748486
 20
-17382.999801635753
 10
416.9999978542318
 20
-17382.999801635753
 10
416.9999978542318
 20
-14890.130347482871
 10
416.9999978542318
 20
-12604.999923706064
 10
208.5000045190951
 20
-12604.999923706064
 10
2.1457662036095115e-06
 20
-12604.999923706064
 10
2.1457662036095115e-06
 20
-14890.130347482871
 97
0
 75
1
 76
1
 98
0
  0
LWPOLYLINE
  5
BD
330
17
100
AcDbEntity
  8
A-WALL-PRTN
370
35
100
AcDbPolyline
 90
9
 70
1
 10
3199.1162839671288
 20
-7430.000001013249
 10
2574.0000147819514
 20
-7430.000001013249
 10
2574.0000147819514
 20
-7500.762074751768
 10
2574.0000147819514
 20
-7553.999998986691
 10
3404.883716032871
 20
-7553.999998986691
 10
4029.9999852180476
 20
-7553.999998986691
 10
4029.9999852180476
 20
-7483.237925248172
 10
4029.9999852180476
 20
-7430.000001013249
 10
3199.1162839671288
 20
-7430.000001013249
1001
BIMGUID
1000
0iEHWY1$XA8eQeeULq4jpl
1001
BIMSRC
1000
type:wall
1000
ifc_class:IfcWall
1000
element_name:Basic Wall:Interior - Partition (92mm Stud):190140
1000
storey:Level 1
1000
pos_x
1040
2.5739998817443848
1000
pos_y
1040
-7.5540008544921875
  0
LWPOLYLINE
  5
BE
330
17
100
AcDbEntity
  8
A-WALL-PATT
370
35
100
AcDbPolyline
 90
9
 70
1
 10
3199.1162839671288
 20
-7430.000001013249
 10
2574.0000147819514
 20
-7430.000001013249
 10
2574.0000147819514
 20
-7500.762074751768
 10
2574.0000147819514
 20
-7553.999998986691
 10
3404.883716032871
 20
-7553.999998986691
 10
4029.9999852180476
 20
-7553.999998986691
 10
4029.9999852180476
 20
-7483.237925248172
 10
4029.9999852180476
 20
-7430.000001013249
 10
3199.1162839671288
 20
-7430.000001013249
  0
HATCH
  5
BF
330
17
100
AcDbEntity
  8
A-WALL-PATT
 62
0
100
AcDbHatch
 10
0.0
 20
0.0
 30
0.0
210
0.0
220
0.0
230
1.0
  2
SOLID
 70
1
 71
0
 91
1
 92
3
 72
0
 73
1
 93
9
 10
3199.1162839671288
 20
-7430.000001013249
 10
2574.0000147819514
 20
-7430.000001013249
 10
2574.0000147819514
 20
-7500.762074751768
 10
2574.0000147819514
 20
-7553.999998986691
 10
3404.883716032871
 20
-7553.999998986691
 10
4029.9999852180476
 20
-7553.999998986691
 10
4029.9999852180476
 20
-7483.237925248172
 10
4029.9999852180476
 20
-7430.000001013249
 10
3199.1162839671288
 20
-7430.000001013249
 97
0
 75
1
 76
1
 98
0
  0
LWPOLYLINE
  5
C0
330
17
100
AcDbEntity
  8
A-WALL-PRTN
370
35
100
AcDbPolyline
 90
9
 70
1
 10
4088.8387097012933
 20
-7582.000056266775
 10
4030.0000024437904
 20
-7582.000056266775
 10
4030.0000024437904
 20
-8895.451607641207
 10
4030.0000024437904
 20
-9724.999943733206
 10
4123.161290298706
 20
-9724.999943733206
 10
4181.99999755621
 20
-9724.999943733206
 10
4181.99999755621
 20
-8411.548392358773
 10
4181.99999755621
 20
-7582.000056266775
 10
4088.8387097012933
 20
-7582.000056266775
1001
BIMGUID
1000
0iEHWY1$XA8eQeeULq4j_U
1001
BIMSRC
1000
type:wall
1000
ifc_class:IfcWall
1000
element_name:Basic Wall:Interior - Furring (152 mm Stud):189901
1000
storey:Level 1
1000
pos_x
1040
4.029999732971191
1000
pos_y
1040
-9.725000381469727
  0
LWPOLYLINE
  5
C1
330
17
100
AcDbEntity
  8
A-WALL-PATT
370
35
100
AcDbPolyline
 90
9
 70
1
 10
4088.8387097012933
 20
-7582.000056266775
 10
4030.0000024437904
 20
-7582.000056266775
 10
4030.0000024437904
 20
-8895.451607641207
 10
4030.0000024437904
 20
-9724.999943733206
 10
4123.161290298706
 20
-9724.999943733206
 10
4181.99999755621
 20
-9724.999943733206
 10
4181.99999755621
 20
-8411.548392358773
 10
4181.99999755621
 20
-7582.000056266775
 10
4088.8387097012933
 20
-7582.000056266775
  0
HATCH
  5
C2
330
17
100
AcDbEntity
  8
A-WALL-PATT
 62
0
100
AcDbHatch
 10
0.0
 20
0.0
 30
0.0
210
0.0
220
0.0
230
1.0
  2
SOLID
 70
1
 71
0
 91
1
 92
3
 72
0
 73
1
 93
9
 10
4088.8387097012933
 20
-7582.000056266775
 10
4030.0000024437904
 20
-7582.000056266775
 10
4030.0000024437904
 20
-8895.451607641207
 10
4030.0000024437904
 20
-9724.999943733206
 10
4123.161290298706
 20
-9724.999943733206
 10
4181.99999755621
 20
-9724.999943733206
 10
4181.99999755621
 20
-8411.548392358773
 10
4181.99999755621
 20
-7582.000056266775
 10
4088.8387097012933
 20
-7582.000056266775
 97
0
 75
1
 76
1
 98
0
  0
LWPOLYLINE
  5
C3
330
17
100
AcDbEntity
  8
A-WALL-PRTN
370
35
100
AcDbPolyline
 90
9
 70
1
 10
2220.6493668897724
 20
-10218.00000035763
 10
4618.000106811522
 20
-10218.00000035763
 10
4618.000106811522
 20
-9936.663686052412
 10
4618.000106811522
 20
-9724.999999642374
 10
2220.6493668897724
 20
-9724.999999642374
 10
416.9998931884744
 20
-9724.999999642374
 10
416.9998931884744
 20
-10006.336313947593
 10
416.9998931884744
 20
-10218.00000035763
 10
2220.649366889773
 20
-10218.00000035763
1001
BIMGUID
1000
2O2Fr$t4X7Zf8NOew3FKRi
1001
BIMSRC
1000
type:wall
1000
ifc_class:IfcWall
1000
element_name:Basic Wall:Party Wall - CMU Residential Unit Dimising Wall:139347
1000
storey:Level 1
1000
pos_x
1040
0.4169999957084656
1000
pos_y
1040
-10.218000411987305
  0
LWPOLYLINE
  5
C4
330
17
100
AcDbEntity
  8
A-WALL-PATT
370
35
100
AcDbPolyline
 90
9
 70
1
 10
2220.6493668897724
 20
-10218.00000035763
 10
4618.000106811522
 20
-10218.00000035763
 10
4618.000106811522
 20
-9936.663686052412
 10
4618.000106811522
 20
-9724.999999642374
 10
2220.6493668897724
 20
-9724.999999642374
 10
416.9998931884744
 20
-9724.999999642374
 10
416.9998931884744
 20
-10006.336313947593
 10
416.9998931884744
 20
-10218.00000035763
 10
2220.649366889773
 20
-10218.00000035763
  0
HATCH
  5
C5
330
17
100
AcDbEntity
  8
A-WALL-PATT
 62
0
100
AcDbHatch
 10
0.0
 20
0.0
 30
0.0
210
0.0
220
0.0
230
1.0
  2
SOLID
 70
1
 71
0
 91
1
 92
3
 72
0
 73
1
 93
9
 10
2220.6493668897724
 20
-10218.00000035763
 10
4618.000106811522
 20
-10218.00000035763
 10
4618.000106811522
 20
-9936.663686052412
 10
4618.000106811522
 20
-9724.999999642374
 10
2220.6493668897724
 20
-9724.999999642374
 10
416.9998931884744
 20
-9724.999999642374
 10
416.9998931884744
 20
-10006.336313947593
 10
416.9998931884744
 20
-10218.00000035763
 10
2220.649366889773
 20
-10218.00000035763
 97
0
 75
1
 76
1
 98
0
  0
LWPOLYLINE
  5
C6
330
17
100
AcDbEntity
  8
A-WALL-PRTN
370
35
100
AcDbPolyline
 90
9
 70
1
 10
2814.350633110224
 20
-10369.99999755621
 10
4618.000106811522
 20
-10369.99999755621
 10
4618.000106811522
 20
-10283.259392409562
 10
4618.000106811522
 20
-10218.00000244379
 10
2220.6493668897733
 20
-10218.00000244379
 10
416.9998931884753
 20
-10218.00000244379
 10
416.9998931884753
 20
-10304.740607590438
 10
416.9998931884753
 20
-10369.99999755621
 10
2814.3506331102244
 20
-10369.99999755621
1001
BIMGUID
1000
0iEHWY1$XA8eQeeULq4jE6
1001
BIMSRC
1000
type:wall
1000
ifc_class:IfcWall
1000
element_name:Basic Wall:Interior - Furring (152 mm Stud):190933
1000
storey:Level 1
1000
pos_x
1040
0.4169999957084656
1000
pos_y
1040
-10.370000839233398
  0
LWPOLYLINE
  5
C7
330
17
100
AcDbEntity
  8
A-WALL-PATT
370
35
100
AcDbPolyline
 90
9
 70
1
 10
2814.350633110224
 20
-10369.99999755621
 10
4618.000106811522
 20
-10369.99999755621
 10
4618.000106811522
 20
-10283.259392409562
 10
4618.000106811522
 20
-10218.00000244379
 10
2220.6493668897733
 20
-10218.00000244379
 10
416.9998931884753
 20
-10218.00000244379
 10
416.9998931884753
 20
-10304.740607590438
 10
416.9998931884753
 20
-10369.99999755621
 10
2814.3506331102244
 20
-10369.99999755621
  0
HATCH
  5
C8
330
17
100
AcDbEntity
  8
A-WALL-PATT
 62
0
100
AcDbHatch
 10
0.0
 20
0.0
 30
0.0
210
0.0
220
0.0
230
1.0
  2
SOLID
 70
1
 71
0
 91
1
 92
3
 72
0
 73
1
 93
9
 10
2814.350633110224
 20
-10369.99999755621
 10
4618.000106811522
 20
-10369.99999755621
 10
4618.000106811522
 20
-10283.259392409562
 10
4618.000106811522
 20
-10218.00000244379
 10
2220.6493668897733
 20
-10218.00000244379
 10
416.9998931884753
 20
-10218.00000244379
 10
416.9998931884753
 20
-10304.740607590438
 10
416.9998931884753
 20
-10369.99999755621
 10
2814.3506331102244
 20
-10369.99999755621
 97
0
 75
1
 76
1
 98
0
  0
LWPOLYLINE
  5
C9
330
17
100
AcDbEntity
  8
A-WALL-PRTN
370
35
100
AcDbPolyline
 90
9
 70
1
 10
6579.3506331102235
 20
-7581.99999964237
 10
4181.999893188475
 20
-7581.99999964237
 10
4181.999893188475
 20
-7863.336313947589
 10
4181.999893188475
 20
-8075.000000357626
 10
6579.3506331102235
 20
-8075.000000357626
 10
8383.000106811522
 20
-8075.000000357626
 10
8383.000106811522
 20
-7793.663686052409
 10
8383.000106811522
 20
-7581.99999964237
 10
6579.3506331102235
 20
-7581.99999964237
1001
BIMGUID
1000
2O2Fr$t4X7Zf8NOew3FNbT
1001
BIMSRC
1000
type:wall
1000
ifc_class:IfcWall
1000
element_name:Basic Wall:Party Wall - CMU Residential Unit Dimising Wall:139234
1000
storey:Level 1
1000
pos_x
1040
4.181999683380127
1000
pos_y
1040
-8.075000762939453
  0
LWPOLYLINE
  5
CA
330
17
100
AcDbEntity
  8
A-WALL-PATT
370
35
100
AcDbPolyline
 90
9
 70
1
 10
6579.3506331102235
 20
-7581.99999964237
 10
4181.999893188475
 20
-7581.99999964237
 10
4181.999893188475
 20
-7863.336313947589
 10
4181.999893188475
 20
-8075.000000357626
 10
6579.3506331102235
 20
-8075.000000357626
 10
8383.000106811522
 20
-8075.000000357626
 10
8383.000106811522
 20
-7793.663686052409
 10
8383.000106811522
 20
-7581.99999964237
 10
6579.3506331102235
 20
-7581.99999964237
  0
HATCH
  5
CB
330
17
100
AcDbEntity
  8
A-WALL-PATT
 62
0
100
AcDbHatch
 10
0.0
 20
0.0
 30
0.0
210
0.0
220
0.0
230
1.0
  2
SOLID
 70
1
 71
0
 91
1
 92
3
 72
0
 73
1
 93
9
 10
6579.3506331102235
 20
-7581.99999964237
 10
4181.999893188475
 20
-7581.99999964237
 10
4181.999893188475
 20
-7863.336313947589
 10
4181.999893188475
 20
-8075.000000357626
 10
6579.3506331102235
 20
-8075.000000357626
 10
8383.000106811522
 20
-8075.000000357626
 10
8383.000106811522
 20
-7793.663686052409
 10
8383.000106811522
 20
-7581.99999964237
 10
6579.3506331102235
 20
-7581.99999964237
 97
0
 75
1
 76
1
 98
0
  0
LWPOLYLINE
  5
CC
330
17
100
AcDbEntity
  8
A-WALL-PRTN
370
35
100
AcDbPolyline
 90
9
 70
1
 10
5898.908762458169
 20
-7430.00000244379
 10
4029.999917984009
 20
-7430.00000244379
 10
4029.999917984009
 20
-7516.740607590439
 10
4029.999917984009
 20
-7581.99999755621
 10
6514.091237541831
 20
-7581.99999755621
 10
8383.000082015991
 20
-7581.99999755621
 10
8383.000082015991
 20
-7495.259392409562
 10
8383.000082015991
 20
-7430.00000244379
 10
5898.908762458169
 20
-7430.00000244379
1001
BIMGUID
1000
0iEHWY1$XA8eQeeULq4jZ1
1001
BIMSRC
1000
type:wall
1000
ifc_class:IfcWall
1000
element_name:Basic Wall:Interior - Furring (152 mm Stud):189074
1000
storey:Level 1
1000
pos_x
1040
4.029999732971191
1000
pos_y
1040
-7.582000732421875
  0
LWPOLYLINE
  5
CD
330
17
100
AcDbEntity
  8
A-WALL-PATT
370
35
100
AcDbPolyline
 90
9
 70
1
 10
5898.908762458169
 20
-7430.00000244379
 10
4029.999917984009
 20
-7430.00000244379
 10
4029.999917984009
 20
-7516.740607590439
 10
4029.999917984009
 20
-7581.99999755621
 10
6514.091237541831
 20
-7581.99999755621
 10
8383.000082015991
 20
-7581.99999755621
 10
8383.000082015991
 20
-7495.259392409562
 10
8383.000082015991
 20
-7430.00000244379
 10
5898.908762458169
 20
-7430.00000244379
  0
HATCH
  5
CE
330
17
100
AcDbEntity
  8
A-WALL-PATT
 62
0
100
AcDbHatch
 10
0.0
 20
0.0
 30
0.0
210
0.0
220
0.0
230
1.0
  2
SOLID
 70
1
 71
0
 91
1
 92
3
 72
0
 73
1
 93
9
 10
5898.908762458169
 20
-7430.00000244379
 10
4029.999917984009
 20
-7430.00000244379
 10
4029.999917984009
 20
-7516.740607590439
 10
4029.999917984009
 20
-7581.99999755621
 10
6514.091237541831
 20
-7581.99999755621
 10
8383.000082015991
 20
-7581.99999755621
 10
8383.000082015991
 20
-7495.259392409562
 10
8383.000082015991
 20
-7430.00000244379
 10
5898.908762458169
 20
-7430.00000244379
 97
0
 75
1
 76
1
 98
0
  0
LWPOLYLINE
  5
CF
330
17
100
AcDbEntity
  8
A-DOOR
370
25
100
AcDbPolyline
 90
9
 70
1
 10
2596.6551158943003
 20
-442.0000038146673
 10
2558.9691781558327
 20
-442.0000038146673
 10
2558.9691781558327
 20
-429.9807701699092
 10
2558.9691781558327
 20
-416.99999785420283
 10
2596.6551158943003
 20
-416.99999785420283
 10
2634.9691533603004
 20
-416.99999785420283
 10
2634.9691533603004
 20
-429.39669489986176
 10
2634.9691533603004
 20
-442.0000038146673
 10
2596.6551158943003
 20
-442.0000038146673
1001
BIMGUID
1000
1s1jVhK8z0pgKYcr9jt781
1001
BIMSRC
1000
type:wall
1000
ifc_class:IfcDoor
1000
element_name:M_Single-Glass 1:0813 x 2420mm:0813 x 2420mm:171853
1000
storey:Level 1
1000
pos_x
1040
2.5589687824249268
1000
pos_y
1040
-0.44200000166893005
  0
LWPOLYLINE
  5
D0
330
17
100
AcDbEntity
  8
A-DOOR
370
25
100
AcDbPolyline
 90
9
 70
1
 10
3486.2832141913213
 20
-442.0000038146673
 10
3447.969176725321
 20
-442.0000038146673
 10
3447.969176725321
 20
-429.6033067690083
 10
3447.969176725321
 20
-416.99999785420283
 10
3486.2832141913213
 20
-416.99999785420283
 10
3523.969151929789
 20
-416.99999785420283
 10
3523.969151929789
 20
-429.0192314989609
 10
3523.969151929789
 20
-442.0000038146673
 10
3486.2832141913213
 20
-442.0000038146673
1001
BIMGUID
1000
1s1jVhK8z0pgKYcr9jt781
1001
BIMSRC
1000
type:wall
1000
ifc_class:IfcDoor
1000
element_name:M_Single-Glass 1:0813 x 2420mm:0813 x 2420mm:171853
1000
storey:Level 1
1000
pos_x
1040
2.5589687824249268
1000
pos_y
1040
-0.44200000166893005
  0
LWPOLYLINE
  5
D1
330
17
100
AcDbEntity
  8
A-DOOR
370
25
100
AcDbPolyline
 90
9
 70
1
 10
2596.6551158943003
 20
-2.145737226788569e-06
 10
2558.9691781558327
 20
-2.145737226788569e-06
 10
2558.9691781558327
 20
12.019231499020844
 10
2558.9691781558327
 20
25.00000381472725
 10
2596.6551158943003
 20
25.00000381472725
 10
2634.9691533603004
 20
25.00000381472725
 10
2634.9691533603004
 20
12.60330676906829
 10
2634.9691533603004
 20
-2.145737226788569e-06
 10
2596.6551158943003
 20
-2.145737226788569e-06
1001
BIMGUID
1000
1s1jVhK8z0pgKYcr9jt781
1001
BIMSRC
1000
type:wall
1000
ifc_class:IfcDoor
1000
element_name:M_Single-Glass 1:0813 x 2420mm:0813 x 2420mm:171853
1000
storey:Level 1
1000
pos_x
1040
2.5589687824249268
1000
pos_y
1040
-0.44200000166893005
  0
LWPOLYLINE
  5
D2
330
17
100
AcDbEntity
  8
A-DOOR
370
25
100
AcDbPolyline
 90
9
 70
1
 10
3486.2832141913213
 20
-2.145737226788569e-06
 10
3447.969176725321
 20
-2.145737226788569e-06
 10
3447.969176725321
 20
12.396694899921734
 10
3447.969176725321
 20
25.00000381472725
 10
3486.2832141913213
 20
25.00000381472725
 10
3523.969151929789
 20
25.00000381472725
 10
3523.969151929789
 20
12.98077016996918
 10
3523.969151929789
 20
-2.145737226788569e-06
 10
3486.2832141913213
 20
-2.145737226788569e-06
1001
BIMGUID
1000
1s1jVhK8z0pgKYcr9jt781
1001
BIMSRC
1000
type:wall
1000
ifc_class:IfcDoor
1000
element_name:M_Single-Glass 1:0813 x 2420mm:0813 x 2420mm:171853
1000
storey:Level 1
1000
pos_x
1040
2.5589687824249268
1000
pos_y
1040
-0.44200000166893005
  0
LWPOLYLINE
  5
D3
330
17
100
AcDbEntity
  8
A-DOOR
370
25
100
AcDbPolyline
 90
8
 70
1
 10
2736.969151452952
 20
-28.57500529286247
 10
3044.217363419112
 20
-28.57500529286247
 10
3345.96917863267
 20
-28.57500529286247
 10
3345.96917863267
 20
-25.371344658995877
 10
3345.96917863267
 20
-22.224994659393843
 10
3038.720966666509
 20
-22.224994659393843
 10
2736.969151452952
 20
-22.224994659393843
 10
2736.969151452952
 20
-25.428655293260437
1001
BIMGUID
1000
1s1jVhK8z0pgKYcr9jt781
1001
BIMSRC
1000
type:wall
1000
ifc_class:IfcDoor
1000
element_name:M_Single-Glass 1:0813 x 2420mm:0813 x 2420mm:171853
1000
storey:Level 1
1000
pos_x
1040
2.5589687824249268
1000
pos_y
1040
-0.44200000166893005
  0
LWPOLYLINE
  5
D4
330
17
100
AcDbEntity
  8
A-DOOR
370
25
100
AcDbPolyline
 90
10
 70
1
 10
2736.969151452952
 20
-28.57500529286247
 10
2736.969151452952
 20
-25.428655293260437
 10
2736.969151452952
 20
-2.145737226788569e-06
 10
2687.7732932258086
 20
-2.145737226788569e-06
 10
2634.9691533603004
 20
-2.145737226788569e-06
 10
2634.9691533603004
 20
-25.289257616556675
 10
2634.9691533603004
 20
-51.00000119206291
 10
2687.7732932258086
 20
-51.00000119206291
 10
2736.969151452952
 20
-51.00000119206291
 10
2736.969151452952
 20
-25.730146345936568
1001
BIMGUID
1000
1s1jVhK8z0pgKYcr9jt781
1001
BIMSRC
1000
type:wall
1000
ifc_class:IfcDoor
1000
element_name:M_Single-Glass 1:0813 x 2420mm:0813 x 2420mm:171853
1000
storey:Level 1
1000
pos_x
1040
2.5589687824249268
1000
pos_y
1040
-0.44200000166893005
  0
LWPOLYLINE
  5
D5
330
17
100
AcDbEntity
  8
A-DOOR
370
25
100
AcDbPolyline
 90
9
 70
1
 10
3395.165036859813
 20
-51.00000119206291
 10
3447.969176725321
 20
-51.00000119206291
 10
3447.969176725321
 20
-25.710745721243462
 10
3447.969176725321
 20
-2.145737226788569e-06
 10
3395.165036859813
 20
-2.145737226788569e-06
 10
3345.96917863267
 20
-2.145737226788569e-06
 10
3345.96917863267
 20
-25.26985699186357
 10
3345.96917863267
 20
-51.00000119206291
 10
3395.165036859813
 20
-51.00000119206291
1001
BIMGUID
1000
1s1jVhK8z0pgKYcr9jt781
1001
BIMSRC
1000
type:wall
1000
ifc_class:IfcDoor
1000
element_name:M_Single-Glass 1:0813 x 2420mm:0813 x 2420mm:171853
1000
storey:Level 1
1000
pos_x
1040
2.5589687824249268
1000
pos_y
1040
-0.44200000166893005
  0
LWPOLYLINE
  5
D6
330
17
100
AcDbEntity
  8
A-GLAZ
370
25
100
AcDbPolyline
 90
9
 70
1
 10
3610.9999446869
 20
-34.99999856949631
 10
3610.9999446869
 20
-41.575409711023696
 10
3610.9999446869
 20
-46.999993085868994
 10
6191.302106543632
 20
-46.999993085868994
 10
8320.00005531312
 20
-46.999993085868994
 10
8320.00005531312
 20
-40.42458194434162
 10
8320.00005531312
 20
-34.99999856949631
 10
5739.697893456389
 20
-34.99999856949631
 10
3610.9999446869
 20
-34.99999856949631
1001
BIMGUID
1000
1hOSvn6df7F8_7GcBWlR72
1001
BIMSRC
1000
type:wall
1000
ifc_class:IfcWindow
1000
element_name:M_Fixed:4835mm x 2420mm:4835mm x 2420mm:145788
1000
storey:Level 1
1000
pos_x
1040
3.547999620437622
1000
pos_y
1040
-0.41700005531311035
  0
LWPOLYLINE
  5
D7
330
17
100
AcDbEntity
  8
A-GLAZ
370
25
100
AcDbPolyline
 90
9
 70
1
 10
8363.999965667734
 20
-18.999995946891946
 10
8363.999965667734
 20
-43.03190180408209
 10
8363.999965667734
 20
-62.999995708473364
 10
8339.515840701519
 20
-62.999995708473364
 10
8320.00005531312
 20
-62.999995708473364
 10
8320.00005531312
 20
-38.8901439693945
 10
8320.00005531312
 20
-18.999995946891946
 10
8339.515840701519
 20
-18.999995946891946
 10
8363.999965667734
 20
-18.999995946891946
1001
BIMGUID
1000
1hOSvn6df7F8_7GcBWlR72
1001
BIMSRC
1000
type:wall
1000
ifc_class:IfcWindow
1000
element_name:M_Fixed:4835mm x 2420mm:4835mm x 2420mm:145788
1000
storey:Level 1
1000
pos_x
1040
3.547999620437622
1000
pos_y
1040
-0.41700005531311035
  0
LWPOLYLINE
  5
D8
330
17
100
AcDbEntity
  8
A-GLAZ
370
25
100
AcDbPolyline
 90
9
 70
1
 10
3591.484159298501
 20
-18.999995946891946
 10
3567.000034332286
 20
-18.999995946891946
 10
3567.000034332286
 20
-38.968089851283224
 10
3567.000034332286
 20
-62.999995708473364
 10
3591.484159298501
 20
-62.999995708473364
 10
3610.9999446869
 20
-62.999995708473364
 10
3610.9999446869
 20
-43.10984768597081
 10
3610.9999446869
 20
-18.999995946891946
 10
3591.484159298501
 20
-18.999995946891946
1001
BIMGUID
1000
1hOSvn6df7F8_7GcBWlR72
1001
BIMSRC
1000
type:wall
1000
ifc_class:IfcWindow
1000
element_name:M_Fixed:4835mm x 2420mm:4835mm x 2420mm:145788
1000
storey:Level 1
1000
pos_x
1040
3.547999620437622
1000
pos_y
1040
-0.41700005531311035
  0
LWPOLYLINE
  5
D9
330
17
100
AcDbEntity
  8
A-GLAZ
370
25
100
AcDbPolyline
 90
9
 70
1
 10
8383.000019073495
 20
-2.1457750021269817e-06
 10
8383.000019073495
 20
-34.36363490787608
 10
8383.000019073495
 20
-62.999995708473364
 10
8374.295288014813
 20
-62.999995708473364
 10
8363.999965667734
 20
-62.999995708473364
 10
8363.999965667734
 20
-28.59067928787856
 10
8363.999965667734
 20
-2.1457750021269817e-06
 10
8374.295288014813
 20
-2.1457750021269817e-06
 10
8383.000019073495
 20
-2.1457750021269817e-06
1001
BIMGUID
1000
1hOSvn6df7F8_7GcBWlR72
1001
BIMSRC
1000
type:wall
1000
ifc_class:IfcWindow
1000
element_name:M_Fixed:4835mm x 2420mm:4835mm x 2420mm:145788
1000
storey:Level 1
1000
pos_x
1040
3.547999620437622
1000
pos_y
1040
-0.41700005531311035
  0
LWPOLYLINE
  5
DA
330
17
100
AcDbEntity
  8
A-GLAZ
370
25
100
AcDbPolyline
 90
9
 70
1
 10
3556.7047119852064
 20
-2.1457750021269817e-06
 10
3547.999980926524
 20
-2.1457750021269817e-06
 10
3547.999980926524
 20
-28.636362946372284
 10
3547.999980926524
 20
-62.999995708473364
 10
3556.7047119852064
 20
-62.999995708473364
 10
3567.000034332286
 20
-62.999995708473364
 10
3567.000034332286
 20
-34.409318566369805
 10
3567.000034332286
 20
-2.1457750021269817e-06
 10
3556.7047119852064
 20
-2.1457750021269817e-06
1001
BIMGUID
1000
1hOSvn6df7F8_7GcBWlR72
1001
BIMSRC
1000
type:wall
1000
ifc_class:IfcWindow
1000
element_name:M_Fixed:4835mm x 2420mm:4835mm x 2420mm:145788
1000
storey:Level 1
1000
pos_x
1040
3.547999620437622
1000
pos_y
1040
-0.41700005531311035
  0
LWPOLYLINE
  5
DB
330
17
100
AcDbEntity
  8
A-GLAZ
370
25
100
AcDbPolyline
 90
9
 70
1
 10
8383.000019073495
 20
-62.999995708473364
 10
8383.000019073495
 20
-256.09090546251423
 10
8383.000019073495
 20
-416.9999978542406
 10
8368.259620251532
 20
-416.9999978542406
 10
8350.999954223642
 20
-416.9999978542406
 10
8350.999954223642
 20
-223.4719827241708
 10
8350.999954223642
 20
-62.999995708473364
 10
8368.259620251532
 20
-62.999995708473364
 10
8383.000019073495
 20
-62.999995708473364
1001
BIMGUID
1000
1hOSvn6df7F8_7GcBWlR72
1001
BIMSRC
1000
type:wall
1000
ifc_class:IfcWindow
1000
element_name:M_Fixed:4835mm x 2420mm:4835mm x 2420mm:145788
1000
storey:Level 1
1000
pos_x
1040
3.547999620437622
1000
pos_y
1040
-0.41700005531311035
  0
LWPOLYLINE
  5
DC
330
17
100
AcDbEntity
  8
A-GLAZ
370
25
100
AcDbPolyline
 90
9
 70
1
 10
3562.7403797484894
 20
-62.999995708473364
 10
3547.999980926524
 20
-62.999995708473364
 10
3547.999980926524
 20
-223.9090881001997
 10
3547.999980926524
 20
-416.9999978542406
 10
3562.7403797484894
 20
-416.9999978542406
 10
3580.0000457763776
 20
-416.9999978542406
 10
3580.0000457763776
 20
-256.52801083854314
 10
3580.0000457763776
 20
-62.999995708473364
 10
3562.7403797484894
 20
-62.999995708473364
1001
BIMGUID
1000
1hOSvn6df7F8_7GcBWlR72
1001
BIMSRC
1000
type:wall
1000
ifc_class:IfcWindow
1000
element_name:M_Fixed:4835mm x 2420mm:4835mm x 2420mm:145788
1000
storey:Level 1
1000
pos_x
1040
3.547999620437622
1000
pos_y
1040
-0.41700005531311035
  0
LWPOLYLINE
  5
DD
330
17
100
AcDbEntity
  8
A-WALL-FULL
370
50
100
AcDbPolyline
 90
9
 70
1
 10
1306.5961904951705
 20
-2.1457672028102337e-06
 10
-9.536743128535363e-05
 20
-2.1457672028102337e-06
 10
-9.536743128535363e-05
 20
-161.4193538748496
 10
-9.536743128535363e-05
 20
-416.9999978542328
 10
1306.5961904951705
 20
-416.9999978542328
 10
2634.9691390991215
 20
-416.9999978542328
 10
2634.9691390991215
 20
-206.7768549721747
 10
2634.9691390991215
 20
-2.1457672028102337e-06
 10
1306.5961904951705
 20
-2.1457672028102337e-06
1001
BIMGUID
1000
2O2Fr$t4X7Zf8NOew3FNtn
1001
BIMSRC
1000
type:wall
1000
ifc_class:IfcWall
1000
element_name:Basic Wall:Exterior - Brick on Block:138062
1000
storey:Level 1
1000
pos_x
1040
0.0
1000
pos_y
1040
-0.41700005531311035
  0
LWPOLYLINE
  5
DE
330
17
100
AcDbEntity
  8
A-WALL-PATT
370
50
100
AcDbPolyline
 90
9
 70
1
 10
1306.5961904951705
 20
-2.1457672028102337e-06
 10
-9.536743128535363e-05
 20
-2.1457672028102337e-06
 10
-9.536743128535363e-05
 20
-161.4193538748496
 10
-9.536743128535363e-05
 20
-416.9999978542328
 10
1306.5961904951705
 20
-416.9999978542328
 10
2634.9691390991215
 20
-416.9999978542328
 10
2634.9691390991215
 20
-206.7768549721747
 10
2634.9691390991215
 20
-2.1457672028102337e-06
 10
1306.5961904951705
 20
-2.1457672028102337e-06
  0
HATCH
  5
DF
330
17
100
AcDbEntity
  8
A-WALL-PATT
 62
0
100
AcDbHatch
 10
0.0
 20
0.0
 30
0.0
210
0.0
220
0.0
230
1.0
  2
SOLID
 70
1
 71
0
 91
1
 92
3
 72
0
 73
1
 93
9
 10
1306.5961904951705
 20
-2.1457672028102337e-06
 10
-9.536743128535363e-05
 20
-2.1457672028102337e-06
 10
-9.536743128535363e-05
 20
-161.4193538748496
 10
-9.536743128535363e-05
 20
-416.9999978542328
 10
1306.5961904951705
 20
-416.9999978542328
 10
2634.9691390991215
 20
-416.9999978542328
 10
2634.9691390991215
 20
-206.7768549721747
 10
2634.9691390991215
 20
-2.1457672028102337e-06
 10
1306.5961904951705
 20
-2.1457672028102337e-06
 97
0
 75
1
 76
1
 98
0
  0
LWPOLYLINE
  5
E0
330
17
100
AcDbEntity
  8
A-WALL-FULL
370
50
100
AcDbPolyline
 90
9
 70
1
 10
3500.571585670435
 20
-2.1457672028102337e-06
 10
3548.000001907349
 20
-2.1457672028102337e-06
 10
3548.000001907349
 20
-189.54545698139032
 10
3548.000001907349
 20
-416.9999978542328
 10
3500.571585670435
 20
-416.9999978542328
 10
3447.9691624641423
 20
-416.9999978542328
 10
3447.9691624641423
 20
-210.22314502782527
 10
3447.9691624641423
 20
-2.1457672028102337e-06
 10
3500.571585670435
 20
-2.1457672028102337e-06
1001
BIMGUID
1000
2O2Fr$t4X7Zf8NOew3FNtn
1001
BIMSRC
1000
type:wall
1000
ifc_class:IfcWall
1000
element_name:Basic Wall:Exterior - Brick on Block:138062
1000
storey:Level 1
1000
pos_x
1040
0.0
1000
pos_y
1040
-0.41700005531311035
  0
LWPOLYLINE
  5
E1
330
17
100
AcDbEntity
  8
A-WALL-PATT
370
50
100
AcDbPolyline
 90
9
 70
1
 10
3500.571585670435
 20
-2.1457672028102337e-06
 10
3548.000001907349
 20
-2.1457672028102337e-06
 10
3548.000001907349
 20
-189.54545698139032
 10
3548.000001907349
 20
-416.9999978542328
 10
3500.571585670435
 20
-416.9999978542328
 10
3447.9691624641423
 20
-416.9999978542328
 10
3447.9691624641423
 20
-210.22314502782527
 10
3447.9691624641423
 20
-2.1457672028102337e-06
 10
3500.571585670435
 20
-2.1457672028102337e-06
  0
HATCH
  5
E2
330
17
100
AcDbEntity
  8
A-WALL-PATT
 62
0
100
AcDbHatch
 10
0.0
 20
0.0
 30
0.0
210
0.0
220
0.0
230
1.0
  2
SOLID
 70
1
 71
0
 91
1
 92
3
 72
0
 73
1
 93
9
 10
3500.571585670435
 20
-2.1457672028102337e-06
 10
3548.000001907349
 20
-2.1457672028102337e-06
 10
3548.000001907349
 20
-189.54545698139032
 10
3548.000001907349
 20
-416.9999978542328
 10
3500.571585670435
 20
-416.9999978542328
 10
3447.9691624641423
 20
-416.9999978542328
 10
3447.9691624641423
 20
-210.22314502782527
 10
3447.9691624641423
 20
-2.1457672028102337e-06
 10
3500.571585670435
 20
-2.1457672028102337e-06
 97
0
 75
1
 76
1
 98
0
  0
LWPOLYLINE
  5
E3
330
17
100
AcDbEntity
  8
A-WALL-FULL
370
50
100
AcDbPolyline
 90
9
 70
1
 10
8601.42864684401
 20
-2.1457672028102337e-06
 10
8383.000040054321
 20
-2.1457672028102337e-06
 10
8383.000040054321
 20
-227.45454301860968
 10
8383.000040054321
 20
-416.9999978542328
 10
8601.42864684401
 20
-416.9999978542328
 10
8800.000095367432
 20
-416.9999978542328
 10
8800.000095367432
 20
-161.4193538748496
 10
8800.000095367432
 20
-2.1457672028102337e-06
 10
8601.42864684401
 20
-2.1457672028102337e-06
1001
BIMGUID
1000
2O2Fr$t4X7Zf8NOew3FNtn
1001
BIMSRC
1000
type:wall
1000
ifc_class:IfcWall
1000
element_name:Basic Wall:Exterior - Brick on Block:138062
1000
storey:Level 1
1000
pos_x
1040
0.0
1000
pos_y
1040
-0.41700005531311035
  0
LWPOLYLINE
  5
E4
330
17
100
AcDbEntity
  8
A-WALL-PATT
370
50
100
AcDbPolyline
 90
9
 70
1
 10
8601.42864684401
 20
-2.1457672028102337e-06
 10
8383.000040054321
 20
-2.1457672028102337e-06
 10
8383.000040054321
 20
-227.45454301860968
 10
8383.000040054321
 20
-416.9999978542328
 10
8601.42864684401
 20
-416.9999978542328
 10
8800.000095367432
 20
-416.9999978542328
 10
8800.000095367432
 20
-161.4193538748496
 10
8800.000095367432
 20
-2.1457672028102337e-06
 10
8601.42864684401
 20
-2.1457672028102337e-06
  0
HATCH
  5
E5
330
17
100
AcDbEntity
  8
A-WALL-PATT
 62
0
100
AcDbHatch
 10
0.0
 20
0.0
 30
0.0
210
0.0
220
0.0
230
1.0
  2
SOLID
 70
1
 71
0
 91
1
 92
3
 72
0
 73
1
 93
9
 10
8601.42864684401
 20
-2.1457672028102337e-06
 10
8383.000040054321
 20
-2.1457672028102337e-06
 10
8383.000040054321
 20
-227.45454301860968
 10
8383.000040054321
 20
-416.9999978542328
 10
8601.42864684401
 20
-416.9999978542328
 10
8800.000095367432
 20
-416.9999978542328
 10
8800.000095367432
 20
-161.4193538748496
 10
8800.000095367432
 20
-2.1457672028102337e-06
 10
8601.42864684401
 20
-2.1457672028102337e-06
 97
0
 75
1
 76
1
 98
0
  0
LWPOLYLINE
  5
E6
330
17
100
AcDbEntity
  8
A-WALL-PRTN
370
35
100
AcDbPolyline
 90
25
 70
1
 10
4438.8640427153305
 20
-10000.000023841847
 10
4675.0000059604645
 20
-10000.000023841847
 10
4675.0000059604645
 20
-9843.067982496901
 10
4675.0000059604645
 20
-9724.99998807906
 10
4642.472271589887
 20
-9724.99998807906
 10
4617.999994754791
 20
-9724.99998807906
 10
4617.999994754791
 20
-9016.592123934204
 10
4617.999994754791
 20
-8075.000011920919
 10
4650.527729125369
 20
-8075.000011920919
 10
4675.0000059604645
 20
-8075.000011920919
 10
4675.0000059604645
 20
-7918.067970575971
 10
4675.0000059604645
 20
-7799.999976158132
 10
4361.13595728467
 20
-7799.999976158132
 10
4124.9999940395355
 20
-7799.999976158132
 10
4124.9999940395355
 20
-7956.932017503079
 10
4124.9999940395355
 20
-8075.000011920919
 10
4157.527728410114
 20
-8075.000011920919
 10
4182.000005245209
 20
-8075.000011920919
 10
4182.000005245209
 20
-8783.407876065776
 10
4182.000005245209
 20
-9724.99998807906
 10
4149.472270874632
 20
-9724.99998807906
 10
4124.9999940395355
 20
-9724.99998807906
 10
4124.9999940395355
 20
-9881.932029424008
 10
4124.9999940395355
 20
-10000.000023841847
 10
4438.864042715331
 20
-10000.000023841847
1001
BIMGUID
1000
2O2Fr$t4X7Zf8NOew3FKRH
1001
BIMSRC
1000
type:wall
1000
ifc_class:IfcWall
1000
element_name:Basic Wall:Party Wall - CMU Residential Unit Dimising Wall:139374
1000
storey:Level 1
1000
pos_x
1040
4.124999523162842
1000
pos_y
1040
-10.000000953674316
  0
LWPOLYLINE
  5
E7
330
17
100
AcDbEntity
  8
A-WALL-PATT
370
35
100
AcDbPolyline
 90
25
 70
1
 10
4438.8640427153305
 20
-10000.000023841847
 10
4675.0000059604645
 20
-10000.000023841847
 10
4675.0000059604645
 20
-9843.067982496901
 10
4675.0000059604645
 20
-9724.99998807906
 10
4642.472271589887
 20
-9724.99998807906
 10
4617.999994754791
 20
-9724.99998807906
 10
4617.999994754791
 20
-9016.592123934204
 10
4617.999994754791
 20
-8075.000011920919
 10
4650.527729125369
 20
-8075.000011920919
 10
4675.0000059604645
 20
-8075.000011920919
 10
4675.0000059604645
 20
-7918.067970575971
 10
4675.0000059604645
 20
-7799.999976158132
 10
4361.13595728467
 20
-7799.999976158132
 10
4124.9999940395355
 20
-7799.999976158132
 10
4124.9999940395355
 20
-7956.932017503079
 10
4124.9999940395355
 20
-8075.000011920919
 10
4157.527728410114
 20
-8075.000011920919
 10
4182.000005245209
 20
-8075.000011920919
 10
4182.000005245209
 20
-8783.407876065776
 10
4182.000005245209
 20
-9724.99998807906
 10
4149.472270874632
 20
-9724.99998807906
 10
4124.9999940395355
 20
-9724.99998807906
 10
4124.9999940395355
 20
-9881.932029424008
 10
4124.9999940395355
 20
-10000.000023841847
 10
4438.864042715331
 20
-10000.000023841847
  0
HATCH
  5
E8
330
17
100
AcDbEntity
  8
A-WALL-PATT
 62
0
100
AcDbHatch
 10
0.0
 20
0.0
 30
0.0
210
0.0
220
0.0
230
1.0
  2
SOLID
 70
1
 71
0
 91
1
 92
3
 72
0
 73
1
 93
25
 10
4438.8640427153305
 20
-10000.000023841847
 10
4675.0000059604645
 20
-10000.000023841847
 10
4675.0000059604645
 20
-9843.067982496901
 10
4675.0000059604645
 20
-9724.99998807906
 10
4642.472271589887
 20
-9724.99998807906
 10
4617.999994754791
 20
-9724.99998807906
 10
4617.999994754791
 20
-9016.592123934204
 10
4617.999994754791
 20
-8075.000011920919
 10
4650.527729125369
 20
-8075.000011920919
 10
4675.0000059604645
 20
-8075.000011920919
 10
4675.0000059604645
 20
-7918.067970575971
 10
4675.0000059604645
 20
-7799.999976158132
 10
4361.13595728467
 20
-7799.999976158132
 10
4124.9999940395355
 20
-7799.999976158132
 10
4124.9999940395355
 20
-7956.932017503079
 10
4124.9999940395355
 20
-8075.000011920919
 10
4157.527728410114
 20
-8075.000011920919
 10
4182.000005245209
 20
-8075.000011920919
 10
4182.000005245209
 20
-8783.407876065776
 10
4182.000005245209
 20
-9724.99998807906
 10
4149.472270874632
 20
-9724.99998807906
 10
4124.9999940395355
 20
-9724.99998807906
 10
4124.9999940395355
 20
-9881.932029424008
 10
4124.9999940395355
 20
-10000.000023841847
 10
4438.864042715331
 20
-10000.000023841847
 97
0
 75
1
 76
1
 98
0
  0
LWPOLYLINE
  5
E9
330
17
100
AcDbEntity
  8
A-FURN
370
15
100
AcDbPolyline
 90
4
 70
1
 10
595.899224281311
 20
-17043.384552001953
 10
1205.8993577957153
 20
-17043.384552001953
 10
1205.8993577957153
 20
-16433.382034301758
 10
595.899224281311
 20
-16433.382034301758
1001
BIMGUID
1000
2OBrcmyk58NupXoVOHUtOv
  0
LWPOLYLINE
  5
EA
330
17
100
AcDbEntity
  8
A-FURN
370
15
100
AcDbPolyline
 90
4
 70
1
 10
570.6992745399475
 20
-16270.383834838867
 10
1231.0993671417236
 20
-16270.383834838867
 10
1231.0993671417236
 20
-14440.381050109863
 10
570.6992745399475
 20
-14440.381050109863
1001
BIMGUID
1000
2OBrcmyk58NupXoVOHUtOy
  0
LWPOLYLINE
  5
EB
330
17
100
AcDbEntity
  8
A-FURN
370
15
100
AcDbPolyline
 90
4
 70
1
 10
1685.899257659912
 20
-15895.88451385498
 10
3515.899419784546
 20
-15895.88451385498
 10
3515.899419784546
 20
-14980.88264465332
 10
1685.899257659912
 20
-14980.88264465332
1001
BIMGUID
1000
2OBrcmyk58NupXoVOHUtOu
  0
LWPOLYLINE
  5
EC
330
17
100
AcDbEntity
  8
A-FURN
370
15
100
AcDbPolyline
 90
4
 70
1
 10
1465.999960899353
 20
-10995.400428771973
 10
2466.0000801086426
 20
-10995.400428771973
 10
2466.0000801086426
 20
-10369.999885559082
 10
1465.999960899353
 20
-10369.999885559082
1001
BIMGUID
1000
2OBrcmyk58NupXoVOHUvqo
  0
LWPOLYLINE
  5
ED
330
17
100
AcDbEntity
  8
A-FURN
370
15
100
AcDbPolyline
 90
4
 70
1
 10
2465.9996032714844
 20
-10995.400428771973
 10
3466.0000801086426
 20
-10995.400428771973
 10
3466.0000801086426
 20
-10369.999885559082
 10
2465.9996032714844
 20
-10369.999885559082
1001
BIMGUID
1000
2OBrcmyk58NupXoVOHUvqp
  0
LWPOLYLINE
  5
EE
330
17
100
AcDbEntity
  8
A-FURN
370
15
100
AcDbPolyline
 90
4
 70
1
 10
3465.9996032714844
 20
-10995.400428771973
 10
4466.000080108643
 20
-10995.400428771973
 10
4466.000080108643
 20
-10369.999885559082
 10
3465.9996032714844
 20
-10369.999885559082
1001
BIMGUID
1000
2OBrcmyk58NupXoVOHUvqz
  0
LWPOLYLINE
  5
EF
330
17
100
AcDbEntity
  8
A-FURN
370
15
100
AcDbPolyline
 90
4
 70
1
 10
1466.0999774932861
 20
-10995.000839233398
 10
4466.100215911865
 20
-10995.000839233398
 10
4466.100215911865
 20
-10369.999885559082
 10
1466.0999774932861
 20
-10369.999885559082
1001
BIMGUID
1000
2OBrcmyk58NupXoVOHUvq$
  0
LWPOLYLINE
  5
F0
330
17
100
AcDbEntity
  8
A-FURN
370
15
100
AcDbPolyline
 90
4
 70
1
 10
5573.999881744385
 20
-5825.400829315186
 10
6574.000835418701
 20
-5825.400829315186
 10
6574.000835418701
 20
-5199.999809265137
 10
5573.999881744385
 20
-5199.999809265137
1001
BIMGUID
1000
2OBrcmyk58NupXoVOHUvtA
  0
LWPOLYLINE
  5
F1
330
17
100
AcDbEntity
  8
A-FURN
370
15
100
AcDbPolyline
 90
4
 70
1
 10
4573.999881744385
 20
-5825.400829315186
 10
5574.000835418701
 20
-5825.400829315186
 10
5574.000835418701
 20
-5199.999809265137
 10
4573.999881744385
 20
-5199.999809265137
1001
BIMGUID
1000
2OBrcmyk58NupXoVOHUvsm
  0
LWPOLYLINE
  5
F2
330
17
100
AcDbEntity
  8
A-FURN
370
15
100
AcDbPolyline
 90
4
 70
1
 10
3573.9998817443848
 20
-5825.400829315186
 10
4574.000358581543
 20
-5825.400829315186
 10
4574.000358581543
 20
-5199.999809265137
 10
3573.9998817443848
 20
-5199.999809265137
1001
BIMGUID
1000
2OBrcmyk58NupXoVOHUvs2
  0
LWPOLYLINE
  5
F3
330
17
100
AcDbEntity
  8
A-FURN
370
15
100
AcDbPolyline
 90
4
 70
1
 10
2573.9998817443848
 20
-5825.400829315186
 10
3574.000358581543
 20
-5825.400829315186
 10
3574.000358581543
 20
-5199.999809265137
 10
2573.9998817443848
 20
-5199.999809265137
1001
BIMGUID
1000
2OBrcmyk58NupXoVOHUvup
  0
LWPOLYLINE
  5
F4
330
17
100
AcDbEntity
  8
A-FURN
370
15
100
AcDbPolyline
 90
4
 70
1
 10
2561.999797821045
 20
-5813.000202178955
 10
6586.000919342041
 20
-5813.000202178955
 10
6586.000919342041
 20
-5187.999248504639
 10
2561.999797821045
 20
-5187.999248504639
1001
BIMGUID
1000
2OBrcmyk58NupXoVOHUvuo
  0
LWPOLYLINE
  5
F5
330
17
100
AcDbEntity
  8
A-FURN
370
15
100
AcDbPolyline
 90
4
 70
1
 10
5367.99955368042
 20
-3930.2000999450684
 10
7198.000907897949
 20
-3930.2000999450684
 10
7198.000907897949
 20
-3269.7999477386475
 10
5367.99955368042
 20
-3269.7999477386475
1001
BIMGUID
1000
2OBrcmyk58NupXoVOHUsc7
  0
LWPOLYLINE
  5
F6
330
17
100
AcDbEntity
  8
A-FURN
370
15
100
AcDbPolyline
 90
4
 70
1
 10
7377.999782562256
 20
-3905.0004482269287
 10
7988.000869750977
 20
-3905.0004482269287
 10
7988.000869750977
 20
-3294.999599456787
 10
7377.999782562256
 20
-3294.999599456787
1001
BIMGUID
1000
2OBrcmyk58NupXoVOHUsab
  0
LWPOLYLINE
  5
F7
330
17
100
AcDbEntity
  8
A-FURN
370
15
100
AcDbPolyline
 90
4
 70
1
 10
5367.99955368042
 20
-2674.5002269744873
 10
7198.000907897949
 20
-2674.5002269744873
 10
7198.000907897949
 20
-1759.4997882843018
 10
5367.99955368042
 20
-1759.4997882843018
1001
BIMGUID
1000
2OBrcmyk58NupXoVOHUtVQ
  0
LWPOLYLINE
  5
F8
330
17
100
AcDbEntity
  8
A-FURN
370
15
100
AcDbPolyline
 90
4
 70
1
 10
5225.99983215332
 20
-10995.400428771973
 10
6226.000785827637
 20
-10995.400428771973
 10
6226.000785827637
 20
-10369.999885559082
 10
5225.99983215332
 20
-10369.999885559082
1001
BIMGUID
1000
2OBrcmyk58NupXoVOHUvqy
  0
LWPOLYLINE
  5
F9
330
17
100
AcDbEntity
  8
A-FURN
370
15
100
AcDbPolyline
 90
4
 70
1
 10
5225.99983215332
 20
-10995.000839233398
 10
6226.000785827637
 20
-10995.000839233398
 10
6226.000785827637
 20
-10369.999885559082
 10
5225.99983215332
 20
-10369.999885559082
1001
BIMGUID
1000
2OBrcmyk58NupXoVOHUvq_
  0
LWPOLYLINE
  5
FA
330
17
100
AcDbEntity
  8
A-FURN
370
15
100
AcDbPolyline
 90
4
 70
1
 10
2573.9998817443848
 20
-7430.000782012939
 10
3574.000358581543
 20
-7430.000782012939
 10
3574.000358581543
 20
-6804.599761962891
 10
2573.9998817443848
 20
-6804.599761962891
1001
BIMGUID
1000
2OBrcmyk58NupXoVOHUvH8
  0
LWPOLYLINE
  5
FB
330
17
100
AcDbEntity
  8
A-FURN
370
15
100
AcDbPolyline
 90
4
 70
1
 10
2573.9998817443848
 20
-7430.000782012939
 10
3574.000358581543
 20
-7430.000782012939
 10
3574.000358581543
 20
-6804.999828338623
 10
2573.9998817443848
 20
-6804.999828338623
1001
BIMGUID
1000
2OBrcmyk58NupXoVOHUv3h
  0
LWPOLYLINE
  5
FC
330
17
100
AcDbEntity
  8
A-FURN
370
15
100
AcDbPolyline
 90
4
 70
1
 10
4333.899974822998
 20
-7430.000782012939
 10
7333.900928497314
 20
-7430.000782012939
 10
7333.900928497314
 20
-6804.999828338623
 10
4333.899974822998
 20
-6804.999828338623
1001
BIMGUID
1000
2OBrcmyk58NupXoVOHUv88
  0
LWPOLYLINE
  5
FD
330
17
100
AcDbEntity
  8
A-FURN
370
15
100
AcDbPolyline
 90
4
 70
1
 10
4333.9996337890625
 20
-7430.000782012939
 10
5334.000110626221
 20
-7430.000782012939
 10
5334.000110626221
 20
-6804.599761962891
 10
4333.9996337890625
 20
-6804.599761962891
1001
BIMGUID
1000
2OBrcmyk58NupXoVOHUvGQ
  0
LWPOLYLINE
  5
FE
330
17
100
AcDbEntity
  8
A-FURN
370
15
100
AcDbPolyline
 90
4
 70
1
 10
5333.999156951904
 20
-7430.000782012939
 10
6334.000110626221
 20
-7430.000782012939
 10
6334.000110626221
 20
-6804.599761962891
 10
5333.999156951904
 20
-6804.599761962891
1001
BIMGUID
1000
0wkEuT1wr1kOyafLY4vyMO
  0
LWPOLYLINE
  5
FF
330
17
100
AcDbEntity
  8
A-FURN
370
15
100
AcDbPolyline
 90
4
 70
1
 10
6333.999156951904
 20
-7430.400848388672
 10
7334.000110626221
 20
-7430.400848388672
 10
7334.000110626221
 20
-6804.999828338623
 10
6333.999156951904
 20
-6804.999828338623
1001
BIMGUID
1000
0wkEuT1wr1kOyafLY4vyOn
  0
LWPOLYLINE
  5
100
330
17
100
AcDbEntity
  8
A-FURN
370
15
100
AcDbPolyline
 90
4
 70
1
 10
895.8992958068848
 20
-14360.383033752441
 10
1505.8995485305786
 20
-14360.383033752441
 10
1505.8995485305786
 20
-13750.382423400879
 10
895.8992958068848
 20
-13750.382423400879
1001
BIMGUID
1000
2OBrcmyk58NupXoVOHUtO_
  0
LWPOLYLINE
  5
101
330
17
100
AcDbEntity
  8
A-FURN
370
15
100
AcDbPolyline
 90
4
 70
1
 10
1685.899257659912
 20
-14385.58292388916
 10
3515.899419784546
 20
-14385.58292388916
 10
3515.899419784546
 20
-13725.18253326416
 10
1685.899257659912
 20
-13725.18253326416
1001
BIMGUID
1000
2OBrcmyk58NupXoVOHUtO$
  0
LWPOLYLINE
  5
102
330
17
100
AcDbEntity
  8
A-FURN
370
15
100
AcDbPolyline
 90
4
 70
1
 10
2213.9999866485596
 20
-12612.000465393066
 10
6238.000869750977
 20
-12612.000465393066
 10
6238.000869750977
 20
-11986.998558044434
 10
2213.9999866485596
 20
-11986.998558044434
1001
BIMGUID
1000
2OBrcmyk58NupXoVOHUvqx
  0
LWPOLYLINE
  5
103
330
17
100
AcDbEntity
  8
A-FURN
370
15
100
AcDbPolyline
 90
4
 70
1
 10
2225.9998321533203
 20
-12600.000381469727
 10
3226.0000705718994
 20
-12600.000381469727
 10
3226.0000705718994
 20
-11974.599838256836
 10
2225.9998321533203
 20
-11974.599838256836
1001
BIMGUID
1000
2OBrcmyk58NupXoVOHUvr4
  0
LWPOLYLINE
  5
104
330
17
100
AcDbEntity
  8
A-FURN
370
15
100
AcDbPolyline
 90
4
 70
1
 10
3225.999593734741
 20
-12600.000381469727
 10
4226.0003089904785
 20
-12600.000381469727
 10
4226.0003089904785
 20
-11974.599838256836
 10
3225.999593734741
 20
-11974.599838256836
1001
BIMGUID
1000
2OBrcmyk58NupXoVOHUvr5
  0
LWPOLYLINE
  5
105
330
17
100
AcDbEntity
  8
A-FURN
370
15
100
AcDbPolyline
 90
4
 70
1
 10
4225.99983215332
 20
-12600.000381469727
 10
5226.000785827637
 20
-12600.000381469727
 10
5226.000785827637
 20
-11974.599838256836
 10
4225.99983215332
 20
-11974.599838256836
1001
BIMGUID
1000
2OBrcmyk58NupXoVOHUvqw
  0
LWPOLYLINE
  5
106
330
17
100
AcDbEntity
  8
A-FURN
370
15
100
AcDbPolyline
 90
4
 70
1
 10
5225.99983215332
 20
-12600.000381469727
 10
6226.000785827637
 20
-12600.000381469727
 10
6226.000785827637
 20
-11974.599838256836
 10
5225.99983215332
 20
-11974.599838256836
1001
BIMGUID
1000
2OBrcmyk58NupXoVOHUvqu
  0
LWPOLYLINE
  5
107
330
17
100
AcDbEntity
  8
A-FURN
370
15
100
AcDbPolyline
 90
4
 70
1
 10
4769.999980926514
 20
-9382.500648498535
 10
5245.400428771973
 20
-9382.500648498535
 10
5245.400428771973
 20
-8932.499885559082
 10
4769.999980926514
 20
-8932.499885559082
1001
BIMGUID
1000
2gRXFgjRn2HPE$YoDLX0vP
  0
LWPOLYLINE
  5
108
330
17
100
AcDbEntity
  8
A-FURN
370
15
100
AcDbPolyline
 90
4
 70
1
 10
7652.799129486084
 20
-3215.0003910064697
 10
8313.200950622559
 20
-3215.0003910064697
 10
8313.200950622559
 20
-1384.9999904632568
 10
7652.799129486084
 20
-1384.9999904632568
1001
BIMGUID
1000
2OBrcmyk58NupXoVOHUshs
  0
LWPOLYLINE
  5
109
330
17
100
AcDbEntity
  8
A-FURN
370
15
100
AcDbPolyline
 90
4
 70
1
 10
7677.999973297119
 20
-1222.000002861023
 10
8288.000106811523
 20
-1222.000002861023
 10
8288.000106811523
 20
-611.9999885559082
 10
7677.999973297119
 20
-611.9999885559082
1001
BIMGUID
1000
2OBrcmyk58NupXoVOHUsbY
  0
LINE
  5
10A
330
17
100
AcDbEntity
  8
A-DOOR
370
25
100
AcDbLine
 10
6288.0003452301025
 20
-10129.00161743164
 30
0.0
 11
6288.0003452301025
 21
-9214.999198913574
 31
0.0
  0
ARC
  5
10B
330
17
100
AcDbEntity
  8
A-DOOR
370
25
100
AcDbCircle
 10
6288.0003452301025
 20
-10129.00161743164
 30
0.0
 40
914.0024185180664
100
AcDbArc
 50
90.0
 51
180.0
  0
LINE
  5
10C
330
17
100
AcDbEntity
  8
A-DOOR
370
25
100
AcDbLine
 10
2512.00008392334
 20
-8587.000846862793
 30
0.0
 11
2512.00008392334
 21
-7672.999858856201
 31
0.0
  0
ARC
  5
10D
330
17
100
AcDbEntity
  8
A-DOOR
370
25
100
AcDbCircle
 10
2512.00008392334
 20
-8587.000846862793
 30
0.0
 40
914.0009880065918
100
AcDbArc
 50
0.0
 51
90.0
  0
LINE
  5
10E
330
17
100
AcDbEntity
  8
A-DOOR
370
25
100
AcDbLine
 10
8591.49980545044
 20
-16879.00161743164
 30
0.0
 11
8591.49980545044
 21
-15476.998329162598
 31
0.0
  0
ARC
  5
10F
330
17
100
AcDbEntity
  8
A-DOOR
370
25
100
AcDbCircle
 10
8591.49980545044
 20
-16879.00161743164
 30
0.0
 40
1402.003288269043
100
AcDbArc
 50
90.0
 51
180.0
  0
LINE
  5
110
330
17
100
AcDbEntity
  8
A-DOOR
370
25
100
AcDbLine
 10
208.50002765655466
 20
-2323.000192642212
 30
0.0
 11
208.50002765655466
 21
-920.9998846054077
 31
0.0
  0
ARC
  5
111
330
17
100
AcDbEntity
  8
A-DOOR
370
25
100
AcDbCircle
 10
208.50002765655466
 20
-2323.000192642212
 30
0.0
 40
1402.0003080368042
100
AcDbArc
 50
0.0
 51
90.0
  0
LINE
  5
112
330
17
100
AcDbEntity
  8
A-DOOR
370
25
100
AcDbLine
 10
2558.9687824249268
 20
-208.50002765655518
 30
0.0
 11
3523.9691734313965
 21
-208.50002765655518
 31
0.0
  0
ARC
  5
113
330
17
100
AcDbEntity
  8
A-DOOR
370
25
100
AcDbCircle
 10
2558.9687824249268
 20
-208.50002765655518
 30
0.0
 40
965.0003910064697
100
AcDbArc
 50
-90.0
 51
0.0
  0
LINE
  5
114
330
17
100
AcDbEntity
  8
A-DOOR
370
25
100
AcDbLine
 10
5275.999546051025
 20
-17591.501235961914
 30
0.0
 11
6241.000175476074
 21
-17591.501235961914
 31
0.0
  0
ARC
  5
115
330
17
100
AcDbEntity
  8
A-DOOR
370
25
100
AcDbCircle
 10
5275.999546051025
 20
-17591.501235961914
 30
0.0
 40
965.0006294250488
100
AcDbArc
 50
0.0
 51
90.0
  0
LINE
  5
116
330
17
100
AcDbEntity
  8
A-GLAZ
370
25
100
AcDbLine
 10
3547.999620437622
 20
-333.6000442504883
 30
0.0
 11
8383.000373840332
 21
-333.6000442504883
 31
0.0
  0
LINE
  5
117
330
17
100
AcDbEntity
  8
A-GLAZ
370
25
100
AcDbLine
 10
3547.999620437622
 20
-83.40001106262207
 30
0.0
 11
8383.000373840332
 21
-83.40001106262207
 31
0.0
  0
LINE
  5
118
330
17
100
AcDbEntity
  8
A-GLAZ
370
18
100
AcDbLine
 10
3547.999620437622
 20
-208.50002765655518
 30
0.0
 11
8383.000373840332
 21
-208.50002765655518
 31
0.0
  0
LINE
  5
119
330
17
100
AcDbEntity
  8
A-GLAZ
370
25
100
AcDbLine
 10
416.9999957084656
 20
-17716.602325439453
 30
0.0
 11
5252.00080871582
 21
-17716.602325439453
 31
0.0
  0
LINE
  5
11A
330
17
100
AcDbEntity
  8
A-GLAZ
370
25
100
AcDbLine
 10
416.9999957084656
 20
-17466.400146484375
 30
0.0
 11
5252.00080871582
 21
-17466.400146484375
 31
0.0
  0
LINE
  5
11B
330
17
100
AcDbEntity
  8
A-GLAZ
370
18
100
AcDbLine
 10
416.9999957084656
 20
-17591.501235961914
 30
0.0
 11
5252.00080871582
 21
-17591.501235961914
 31
0.0
  0
LINE
  5
11C
330
17
100
AcDbEntity
  8
A-GLAZ
370
25
100
AcDbLine
 10
8466.399574279785
 20
-5945.000171661377
 30
0.0
 11
8466.399574279785
 21
-5194.999217987061
 31
0.0
  0
LINE
  5
11D
330
17
100
AcDbEntity
  8
A-GLAZ
370
25
100
AcDbLine
 10
8716.600036621094
 20
-5945.000171661377
 30
0.0
 11
8716.600036621094
 21
-5194.999217987061
 31
0.0
  0
LINE
  5
11E
330
17
100
AcDbEntity
  8
A-GLAZ
370
18
100
AcDbLine
 10
8591.49980545044
 20
-5945.000171661377
 30
0.0
 11
8591.49980545044
 21
-5194.999217987061
 31
0.0
  0
LINE
  5
11F
330
17
100
AcDbEntity
  8
A-GLAZ
370
25
100
AcDbLine
 10
83.40001106262126
 20
-12605.001449584961
 30
0.0
 11
83.40001106262126
 21
-11854.999542236328
 31
0.0
  0
LINE
  5
120
330
17
100
AcDbEntity
  8
A-GLAZ
370
25
100
AcDbLine
 10
333.60004425048805
 20
-12605.001449584961
 30
0.0
 11
333.60004425048805
 21
-11854.999542236328
 31
0.0
  0
LINE
  5
121
330
17
100
AcDbEntity
  8
A-GLAZ
370
18
100
AcDbLine
 10
208.50002765655466
 20
-12605.001449584961
 30
0.0
 11
208.50002765655466
 21
-11854.999542236328
 31
0.0
  0
LINE
  5
122
330
17
100
AcDbEntity
  8
A-GRID
370
18
100
AcDbLine
 10
-3.552713678800501e-12
 20
-20625.000762939453
 30
0.0
 11
-3.552713678800501e-12
 21
4625.000000372529
 31
0.0
1001
BIMGUID
1000
GRID:A
1001
BIMSRC
1000
type:GRID
1000
label:A
1000
axis:x
1000
pos
1040
-3.552713678800501e-15
1000
source_guids:
1000
intent_param:position_x
  0
HATCH
  5
123
330
17
100
AcDbEntity
  8
A-GRID
 62
7
100
AcDbHatch
 10
0.0
 20
0.0
 30
0.0
210
0.0
220
0.0
230
1.0
  2
SOLID
 70
1
 71
0
 91
1
 92
3
 72
0
 73
1
 93
36
 10
399.9999999999965
 20
4225.000000372529
 10
393.9231012048797
 20
4294.459271439301
 10
375.87704831435985
 20
4361.808057702797
 10
346.410161513772
 20
4425.000000372529
 10
306.41777724758765
 20
4482.115044247144
 10
257.1150438746122
 20
4531.41777762012
 10
199.9999999999965
 20
4571.410161886304
 10
136.80805733026398
 20
4600.8770486868925
 10
69.45927106676861
 20
4618.923101577412
 10
-3.5282207428175537e-12
 20
4625.000000372529
 10
-69.45927106677567
 20
4618.923101577412
 10
-136.80805733027094
 20
4600.8770486868925
 10
-200.00000000000347
 20
4571.410161886304
 10
-257.11504387461935
 20
4531.41777762012
 10
-306.4177772475947
 20
4482.115044247144
 10
-346.4101615137789
 20
4425.000000372529
 10
-375.8770483143669
 20
4361.808057702797
 10
-393.92310120488673
 20
4294.459271439301
 10
-400.0000000000035
 20
4225.000000372529
 10
-393.92310120488685
 20
4155.540729305757
 10
-375.8770483143669
 20
4088.1919430422618
 10
-346.41016151377903
 20
4025.000000372529
 10
-306.4177772475949
 20
3967.8849564979137
 10
-257.11504387461935
 20
3918.5822231249376
 10
-200.00000000000372
 20
3878.589838858754
 10
-136.80805733027097
 20
3849.1229520581655
 10
-69.45927106677568
 20
3831.076899167646
 10
-3.6261924867493422e-12
 20
3825.000000372529
 10
69.45927106676844
 20
3831.076899167646
 10
136.80805733026403
 20
3849.1229520581655
 10
199.9999999999962
 20
3878.5898388587534
 10
257.1150438746122
 20
3918.5822231249376
 10
306.41777724758754
 20
3967.884956497913
 10
346.410161513772
 20
4025.000000372529
 10
375.87704831435985
 20
4088.1919430422618
 10
393.9231012048797
 20
4155.540729305757
 97
0
 75
1
 76
1
 98
0
  0
CIRCLE
  5
124
330
17
100
AcDbEntity
  8
A-GRID
370
25
100
AcDbCircle
 10
-3.552713678800501e-12
 20
4225.000000372529
 30
0.0
 40
400.0
  0
TEXT
  5
125
330
17
100
AcDbEntity
  8
A-ANNO-TEXT
100
AcDbText
 10
-3.552713678800501e-12
 20
4225.000000372529
 30
0.0
 40
350.0
  1
A
 72
1
 11
-3.552713678800501e-12
 21
4225.000000372529
 31
0.0
100
AcDbText
 73
2
  0
HATCH
  5
126
330
17
100
AcDbEntity
  8
A-GRID
 62
7
100
AcDbHatch
 10
0.0
 20
0.0
 30
0.0
210
0.0
220
0.0
230
1.0
  2
SOLID
 70
1
 71
0
 91
1
 92
3
 72
0
 73
1
 93
36
 10
399.9999999999965
 20
-20225.000762939453
 10
393.9231012048797
 20
-20155.541491872682
 10
375.87704831435985
 20
-20088.192705609184
 10
346.410161513772
 20
-20025.000762939453
 10
306.41777724758765
 20
-19967.885719064838
 10
257.1150438746122
 20
-19918.58298569186
 10
199.9999999999965
 20
-19878.590601425676
 10
136.80805733026398
 20
-19849.12371462509
 10
69.45927106676861
 20
-19831.07766173457
 10
-3.5282207428175537e-12
 20
-19825.000762939453
 10
-69.45927106677567
 20
-19831.07766173457
 10
-136.80805733027094
 20
-19849.12371462509
 10
-200.00000000000347
 20
-19878.590601425676
 10
-257.11504387461935
 20
-19918.58298569186
 10
-306.4177772475947
 20
-19967.885719064838
 10
-346.4101615137789
 20
-20025.000762939453
 10
-375.8770483143669
 20
-20088.192705609184
 10
-393.92310120488673
 20
-20155.541491872682
 10
-400.0000000000035
 20
-20225.000762939453
 10
-393.92310120488685
 20
-20294.460034006224
 10
-375.8770483143669
 20
-20361.80882026972
 10
-346.41016151377903
 20
-20425.000762939453
 10
-306.4177772475949
 20
-20482.11580681407
 10
-257.11504387461935
 20
-20531.418540187045
 10
-200.00000000000372
 20
-20571.41092445323
 10
-136.80805733027097
 20
-20600.877811253817
 10
-69.45927106677568
 20
-20618.923864144337
 10
-3.6261924867493422e-12
 20
-20625.000762939453
 10
69.45927106676844
 20
-20618.923864144337
 10
136.80805733026403
 20
-20600.877811253817
 10
199.9999999999962
 20
-20571.41092445323
 10
257.1150438746122
 20
-20531.418540187045
 10
306.41777724758754
 20
-20482.11580681407
 10
346.410161513772
 20
-20425.000762939453
 10
375.87704831435985
 20
-20361.80882026972
 10
393.9231012048797
 20
-20294.460034006224
 97
0
 75
1
 76
1
 98
0
  0
CIRCLE
  5
127
330
17
100
AcDbEntity
  8
A-GRID
370
25
100
AcDbCircle
 10
-3.552713678800501e-12
 20
-20225.000762939453
 30
0.0
 40
400.0
  0
TEXT
  5
128
330
17
100
AcDbEntity
  8
A-ANNO-TEXT
100
AcDbText
 10
-3.552713678800501e-12
 20
-20225.000762939453
 30
0.0
 40
350.0
  1
A
 72
1
 11
-3.552713678800501e-12
 21
-20225.000762939453
 31
0.0
100
AcDbText
 73
2
  0
LINE
  5
129
330
17
100
AcDbEntity
  8
A-GRID
370
18
100
AcDbLine
 10
8799.999999999996
 20
-20625.000762939453
 30
0.0
 11
8799.999999999996
 21
4625.000000372529
 31
0.0
1001
BIMGUID
1000
GRID:B
1001
BIMSRC
1000
type:GRID
1000
label:B
1000
axis:x
1000
pos
1040
8.799999999999997
1000
source_guids:2O2Fr$t4X7Zf8NOew3FNqI
1000
intent_param:position_x
  0
HATCH
  5
12A
330
17
100
AcDbEntity
  8
A-GRID
 62
7
100
AcDbHatch
 10
0.0
 20
0.0
 30
0.0
210
0.0
220
0.0
230
1.0
  2
SOLID
 70
1
 71
0
 91
1
 92
3
 72
0
 73
1
 93
36
 10
9199.999999999996
 20
4225.000000372529
 10
9193.92310120488
 20
4294.459271439301
 10
9175.87704831436
 20
4361.808057702797
 10
9146.410161513772
 20
4425.000000372529
 10
9106.417777247587
 20
4482.115044247144
 10
9057.115043874612
 20
4531.41777762012
 10
8999.999999999996
 20
4571.410161886304
 10
8936.808057330263
 20
4600.8770486868925
 10
8869.45927106677
 20
4618.923101577412
 10
8799.999999999996
 20
4625.000000372529
 10
8730.540728933223
 20
4618.923101577412
 10
8663.19194266973
 20
4600.8770486868925
 10
8599.999999999996
 20
4571.410161886304
 10
8542.884956125381
 20
4531.41777762012
 10
8493.582222752406
 20
4482.115044247144
 10
8453.589838486221
 20
4425.000000372529
 10
8424.122951685633
 20
4361.808057702797
 10
8406.076898795112
 20
4294.459271439301
 10
8399.999999999996
 20
4225.000000372529
 10
8406.076898795112
 20
4155.540729305757
 10
8424.122951685633
 20
4088.1919430422618
 10
8453.589838486221
 20
4025.000000372529
 10
8493.582222752406
 20
3967.8849564979137
 10
8542.884956125381
 20
3918.5822231249376
 10
8599.999999999996
 20
3878.589838858754
 10
8663.19194266973
 20
3849.1229520581655
 10
8730.540728933223
 20
3831.076899167646
 10
8799.999999999996
 20
3825.000000372529
 10
8869.459271066768
 20
3831.076899167646
 10
8936.808057330263
 20
3849.1229520581655
 10
8999.999999999996
 20
3878.5898388587534
 10
9057.115043874612
 20
3918.5822231249376
 10
9106.417777247587
 20
3967.884956497913
 10
9146.410161513772
 20
4025.000000372529
 10
9175.87704831436
 20
4088.1919430422618
 10
9193.92310120488
 20
4155.540729305757
 97
0
 75
1
 76
1
 98
0
  0
CIRCLE
  5
12B
330
17
100
AcDbEntity
  8
A-GRID
370
25
100
AcDbCircle
 10
8799.999999999996
 20
4225.000000372529
 30
0.0
 40
400.0
  0
TEXT
  5
12C
330
17
100
AcDbEntity
  8
A-ANNO-TEXT
100
AcDbText
 10
8799.999999999996
 20
4225.000000372529
 30
0.0
 40
350.0
  1
B
 72
1
 11
8799.999999999996
 21
4225.000000372529
 31
0.0
100
AcDbText
 73
2
  0
HATCH
  5
12D
330
17
100
AcDbEntity
  8
A-GRID
 62
7
100
AcDbHatch
 10
0.0
 20
0.0
 30
0.0
210
0.0
220
0.0
230
1.0
  2
SOLID
 70
1
 71
0
 91
1
 92
3
 72
0
 73
1
 93
36
 10
9199.999999999996
 20
-20225.000762939453
 10
9193.92310120488
 20
-20155.541491872682
 10
9175.87704831436
 20
-20088.192705609184
 10
9146.410161513772
 20
-20025.000762939453
 10
9106.417777247587
 20
-19967.885719064838
 10
9057.115043874612
 20
-19918.58298569186
 10
8999.999999999996
 20
-19878.590601425676
 10
8936.808057330263
 20
-19849.12371462509
 10
8869.45927106677
 20
-19831.07766173457
 10
8799.999999999996
 20
-19825.000762939453
 10
8730.540728933223
 20
-19831.07766173457
 10
8663.19194266973
 20
-19849.12371462509
 10
8599.999999999996
 20
-19878.590601425676
 10
8542.884956125381
 20
-19918.58298569186
 10
8493.582222752406
 20
-19967.885719064838
 10
8453.589838486221
 20
-20025.000762939453
 10
8424.122951685633
 20
-20088.192705609184
 10
8406.076898795112
 20
-20155.541491872682
 10
8399.999999999996
 20
-20225.000762939453
 10
8406.076898795112
 20
-20294.460034006224
 10
8424.122951685633
 20
-20361.80882026972
 10
8453.589838486221
 20
-20425.000762939453
 10
8493.582222752406
 20
-20482.11580681407
 10
8542.884956125381
 20
-20531.418540187045
 10
8599.999999999996
 20
-20571.41092445323
 10
8663.19194266973
 20
-20600.877811253817
 10
8730.540728933223
 20
-20618.923864144337
 10
8799.999999999996
 20
-20625.000762939453
 10
8869.459271066768
 20
-20618.923864144337
 10
8936.808057330263
 20
-20600.877811253817
 10
8999.999999999996
 20
-20571.41092445323
 10
9057.115043874612
 20
-20531.418540187045
 10
9106.417777247587
 20
-20482.11580681407
 10
9146.410161513772
 20
-20425.000762939453
 10
9175.87704831436
 20
-20361.80882026972
 10
9193.92310120488
 20
-20294.460034006224
 97
0
 75
1
 76
1
 98
0
  0
CIRCLE
  5
12E
330
17
100
AcDbEntity
  8
A-GRID
370
25
100
AcDbCircle
 10
8799.999999999996
 20
-20225.000762939453
 30
0.0
 40
400.0
  0
TEXT
  5
12F
330
17
100
AcDbEntity
  8
A-ANNO-TEXT
100
AcDbText
 10
8799.999999999996
 20
-20225.000762939453
 30
0.0
 40
350.0
  1
B
 72
1
 11
8799.999999999996
 21
-20225.000762939453
 31
0.0
100
AcDbText
 73
2
  0
LINE
  5
130
330
17
100
AcDbEntity
  8
A-GRID
370
18
100
AcDbLine
 10
-4625.000000372529
 20
-17800.003051757812
 30
0.0
 11
11625.000762939453
 21
-17800.003051757812
 31
0.0
1001
BIMGUID
1000
GRID:1
1001
BIMSRC
1000
type:GRID
1000
label:1
1000
axis:y
1000
pos
1040
-17.800003051757812
1000
source_guids:
1000
intent_param:position_y
  0
HATCH
  5
131
330
17
100
AcDbEntity
  8
A-GRID
 62
7
100
AcDbHatch
 10
0.0
 20
0.0
 30
0.0
210
0.0
220
0.0
230
1.0
  2
SOLID
 70
1
 71
0
 91
1
 92
3
 72
0
 73
1
 93
36
 10
11625.000762939453
 20
-17800.003051757812
 10
11618.923864144337
 20
-17730.54378069104
 10
11600.877811253817
 20
-17663.194994427544
 10
11571.410924453228
 20
-17600.003051757812
 10
11531.418540187044
 20
-17542.888007883197
 10
11482.115806814068
 20
-17493.58527451022
 10
11425.000762939453
 20
-17453.592890244036
 10
11361.80882026972
 20
-17424.12600344345
 10
11294.460034006226
 20
-17406.07995055293
 10
11225.000762939453
 20
-17400.003051757812
 10
11155.54149187268
 20
-17406.07995055293
 10
11088.192705609186
 20
-17424.12600344345
 10
11025.000762939453
 20
-17453.592890244036
 10
10967.885719064838
 20
-17493.58527451022
 10
10918.582985691863
 20
-17542.888007883197
 10
10878.590601425678
 20
-17600.003051757812
 10
10849.12371462509
 20
-17663.194994427544
 10
10831.07766173457
 20
-17730.54378069104
 10
10825.000762939453
 20
-17800.003051757812
 10
10831.07766173457
 20
-17869.462322824584
 10
10849.12371462509
 20
-17936.81110908808
 10
10878.590601425678
 20
-18000.003051757812
 10
10918.582985691863
 20
-18057.118095632428
 10
10967.885719064838
 20
-18106.420829005405
 10
11025.000762939453
 20
-18146.41321327159
 10
11088.192705609186
 20
-18175.880100072176
 10
11155.54149187268
 20
-18193.926152962697
 10
11225.000762939453
 20
-18200.003051757812
 10
11294.460034006224
 20
-18193.926152962697
 10
11361.80882026972
 20
-18175.880100072176
 10
11425.000762939453
 20
-18146.41321327159
 10
11482.115806814068
 20
-18106.420829005405
 10
11531.418540187044
 20
-18057.118095632428
 10
11571.410924453228
 20
-18000.003051757812
 10
11600.877811253817
 20
-17936.81110908808
 10
11618.923864144337
 20
-17869.462322824584
 97
0
 75
1
 76
1
 98
0
  0
CIRCLE
  5
132
330
17
100
AcDbEntity
  8
A-GRID
370
25
100
AcDbCircle
 10
11225.000762939453
 20
-17800.003051757812
 30
0.0
 40
400.0
  0
TEXT
  5
133
330
17
100
AcDbEntity
  8
A-ANNO-TEXT
100
AcDbText
 10
11225.000762939453
 20
-17800.003051757812
 30
0.0
 40
350.0
  1
1
 72
1
 11
11225.000762939453
 21
-17800.003051757812
 31
0.0
100
AcDbText
 73
2
  0
HATCH
  5
134
330
17
100
AcDbEntity
  8
A-GRID
 62
7
100
AcDbHatch
 10
0.0
 20
0.0
 30
0.0
210
0.0
220
0.0
230
1.0
  2
SOLID
 70
1
 71
0
 91
1
 92
3
 72
0
 73
1
 93
36
 10
-3825.000000372529
 20
-17800.003051757812
 10
-3831.076899167646
 20
-17730.54378069104
 10
-3849.1229520581655
 20
-17663.194994427544
 10
-3878.5898388587534
 20
-17600.003051757812
 10
-3918.5822231249376
 20
-17542.888007883197
 10
-3967.884956497913
 20
-17493.58527451022
 10
-4025.000000372529
 20
-17453.592890244036
 10
-4088.1919430422613
 20
-17424.12600344345
 10
-4155.540729305757
 20
-17406.07995055293
 10
-4225.000000372529
 20
-17400.003051757812
 10
-4294.459271439301
 20
-17406.07995055293
 10
-4361.808057702797
 20
-17424.12600344345
 10
-4425.000000372529
 20
-17453.592890244036
 10
-4482.115044247144
 20
-17493.58527451022
 10
-4531.41777762012
 20
-17542.888007883197
 10
-4571.410161886304
 20
-17600.003051757812
 10
-4600.8770486868925
 20
-17663.194994427544
 10
-4618.923101577412
 20
-17730.54378069104
 10
-4625.000000372529
 20
-17800.003051757812
 10
-4618.923101577412
 20
-17869.462322824584
 10
-4600.8770486868925
 20
-17936.81110908808
 10
-4571.410161886304
 20
-18000.003051757812
 10
-4531.41777762012
 20
-18057.118095632428
 10
-4482.115044247144
 20
-18106.420829005405
 10
-4425.000000372529
 20
-18146.41321327159
 10
-4361.808057702797
 20
-18175.880100072176
 10
-4294.459271439301
 20
-18193.926152962697
 10
-4225.000000372529
 20
-18200.003051757812
 10
-4155.540729305757
 20
-18193.926152962697
 10
-4088.1919430422613
 20
-18175.880100072176
 10
-4025.0000003725295
 20
-18146.41321327159
 10
-3967.884956497913
 20
-18106.420829005405
 10
-3918.582223124938
 20
-18057.118095632428
 10
-3878.5898388587534
 20
-18000.003051757812
 10
-3849.1229520581655
 20
-17936.81110908808
 10
-3831.076899167646
 20
-17869.462322824584
 97
0
 75
1
 76
1
 98
0
  0
CIRCLE
  5
135
330
17
100
AcDbEntity
  8
A-GRID
370
25
100
AcDbCircle
 10
-4225.000000372529
 20
-17800.003051757812
 30
0.0
 40
400.0
  0
TEXT
  5
136
330
17
100
AcDbEntity
  8
A-ANNO-TEXT
100
AcDbText
 10
-4225.000000372529
 20
-17800.003051757812
 30
0.0
 40
350.0
  1
1
 72
1
 11
-4225.000000372529
 21
-17800.003051757812
 31
0.0
100
AcDbText
 73
2
  0
LINE
  5
137
330
17
100
AcDbEntity
  8
A-GRID
370
18
100
AcDbLine
 10
-4625.000000372529
 20
-0.0030517578117894573
 30
0.0
 11
11625.000762939453
 21
-0.0030517578117894573
 31
0.0
1001
BIMGUID
1000
GRID:2
1001
BIMSRC
1000
type:GRID
1000
label:2
1000
axis:y
1000
pos
1040
-3.0517578117894573e-06
1000
source_guids:2O2Fr$t4X7Zf8NOew3FNtn
1000
intent_param:position_y
  0
HATCH
  5
138
330
17
100
AcDbEntity
  8
A-GRID
 62
7
100
AcDbHatch
 10
0.0
 20
0.0
 30
0.0
210
0.0
220
0.0
230
1.0
  2
SOLID
 70
1
 71
0
 91
1
 92
3
 72
0
 73
1
 93
36
 10
11625.000762939453
 20
-0.0030517578117894573
 10
11618.923864144337
 20
69.45621930896034
 10
11600.877811253817
 20
136.80500557245568
 10
11571.410924453228
 20
199.99694824218818
 10
11531.418540187044
 20
257.1119921168039
 10
11482.115806814068
 20
306.41472548977947
 10
11425.000762939453
 20
346.4071097559637
 10
11361.80882026972
 20
375.87399655655156
 10
11294.460034006226
 20
393.9200494470714
 10
11225.000762939453
 20
399.9969482421882
 10
11155.54149187268
 20
393.9200494470714
 10
11088.192705609186
 20
375.87399655655156
 10
11025.000762939453
 20
346.4071097559637
 10
10967.885719064838
 20
306.41472548977947
 10
10918.582985691863
 20
257.111992116804
 10
10878.590601425678
 20
199.99694824218835
 10
10849.12371462509
 20
136.80500557245577
 10
10831.07766173457
 20
69.45621930896031
 10
10825.000762939453
 20
-0.0030517578117404713
 10
10831.07766173457
 20
-69.4623228245838
 10
10849.12371462509
 20
-136.81110908807926
 10
10878.590601425678
 20
-200.00305175781185
 10
10918.582985691863
 20
-257.1180956324274
 10
10967.885719064838
 20
-306.420829005403
 10
11025.000762939453
 20
-346.4132132715871
 10
11088.192705609186
 20
-375.8801000721752
 10
11155.54149187268
 20
-393.926152962695
 10
11225.000762939453
 20
-400.0030517578118
 10
11294.460034006224
 20
-393.926152962695
 10
11361.80882026972
 20
-375.8801000721751
 10
11425.000762939453
 20
-346.41321327158744
 10
11482.115806814068
 20
-306.420829005403
 10
11531.418540187044
 20
-257.11809563242764
 10
11571.410924453228
 20
-200.00305175781165
 10
11600.877811253817
 20
-136.81110908807923
 10
11618.923864144337
 20
-69.46232282458395
 97
0
 75
1
 76
1
 98
0
  0
CIRCLE
  5
139
330
17
100
AcDbEntity
  8
A-GRID
370
25
100
AcDbCircle
 10
11225.000762939453
 20
-0.0030517578117894573
 30
0.0
 40
400.0
  0
TEXT
  5
13A
330
17
100
AcDbEntity
  8
A-ANNO-TEXT
100
AcDbText
 10
11225.000762939453
 20
-0.0030517578117894573
 30
0.0
 40
350.0
  1
2
 72
1
 11
11225.000762939453
 21
-0.0030517578117894573
 31
0.0
100
AcDbText
 73
2
  0
HATCH
  5
13B
330
17
100
AcDbEntity
  8
A-GRID
 62
7
100
AcDbHatch
 10
0.0
 20
0.0
 30
0.0
210
0.0
220
0.0
230
1.0
  2
SOLID
 70
1
 71
0
 91
1
 92
3
 72
0
 73
1
 93
36
 10
-3825.000000372529
 20
-0.0030517578117894573
 10
-3831.076899167646
 20
69.45621930896034
 10
-3849.1229520581655
 20
136.80500557245568
 10
-3878.5898388587534
 20
199.99694824218818
 10
-3918.5822231249376
 20
257.1119921168039
 10
-3967.884956497913
 20
306.41472548977947
 10
-4025.000000372529
 20
346.4071097559637
 10
-4088.1919430422613
 20
375.87399655655156
 10
-4155.540729305757
 20
393.9200494470714
 10
-4225.000000372529
 20
399.9969482421882
 10
-4294.459271439301
 20
393.9200494470714
 10
-4361.808057702797
 20
375.87399655655156
 10
-4425.000000372529
 20
346.4071097559637
 10
-4482.115044247144
 20
306.41472548977947
 10
-4531.41777762012
 20
257.111992116804
 10
-4571.410161886304
 20
199.99694824218835
 10
-4600.8770486868925
 20
136.80500557245577
 10
-4618.923101577412
 20
69.45621930896031
 10
-4625.000000372529
 20
-0.0030517578117404713
 10
-4618.923101577412
 20
-69.4623228245838
 10
-4600.8770486868925
 20
-136.81110908807926
 10
-4571.410161886304
 20
-200.00305175781185
 10
-4531.41777762012
 20
-257.1180956324274
 10
-4482.115044247144
 20
-306.420829005403
 10
-4425.000000372529
 20
-346.4132132715871
 10
-4361.808057702797
 20
-375.8801000721752
 10
-4294.459271439301
 20
-393.926152962695
 10
-4225.000000372529
 20
-400.0030517578118
 10
-4155.540729305757
 20
-393.926152962695
 10
-4088.1919430422613
 20
-375.8801000721751
 10
-4025.0000003725295
 20
-346.41321327158744
 10
-3967.884956497913
 20
-306.420829005403
 10
-3918.582223124938
 20
-257.11809563242764
 10
-3878.5898388587534
 20
-200.00305175781165
 10
-3849.1229520581655
 20
-136.81110908807923
 10
-3831.076899167646
 20
-69.46232282458395
 97
0
 75
1
 76
1
 98
0
  0
CIRCLE
  5
13C
330
17
100
AcDbEntity
  8
A-GRID
370
25
100
AcDbCircle
 10
-4225.000000372529
 20
-0.0030517578117894573
 30
0.0
 40
400.0
  0
TEXT
  5
13D
330
17
100
AcDbEntity
  8
A-ANNO-TEXT
100
AcDbText
 10
-4225.000000372529
 20
-0.0030517578117894573
 30
0.0
 40
350.0
  1
2
 72
1
 11
-4225.000000372529
 21
-0.0030517578117894573
 31
0.0
100
AcDbText
 73
2
  0
LINE
  5
13E
330
17
100
AcDbEntity
  8
A-ANNO-DIMS
370
18
100
AcDbLine
 10
-3.552713678800501e-12
 20
1825.000000372529
 30
0.0
 11
8799.999999999996
 21
1825.000000372529
 31
0.0
1001
BIMSRC
1000
type:DIM
1000
axis:x
1000
from_grid:A
1000
to_grid:B
1000
dist
1040
8.8
  0
LINE
  5
13F
330
17
100
AcDbEntity
  8
A-ANNO-DIMS
370
18
100
AcDbLine
 10
-3.552713678800501e-12
 20
225.00000037252903
 30
0.0
 11
-3.552713678800501e-12
 21
2025.000000372529
 31
0.0
  0
LINE
  5
140
330
17
100
AcDbEntity
  8
A-ANNO-DIMS
370
18
100
AcDbLine
 10
8799.999999999996
 20
225.00000037252903
 30
0.0
 11
8799.999999999996
 21
2025.000000372529
 31
0.0
  0
LINE
  5
141
330
17
100
AcDbEntity
  8
A-ANNO-DIMS
370
18
100
AcDbLine
 10
-106.06601717798569
 20
1718.933983194547
 30
0.0
 11
106.06601717797858
 21
1931.066017550511
 31
0.0
  0
LINE
  5
142
330
17
100
AcDbEntity
  8
A-ANNO-DIMS
370
18
100
AcDbLine
 10
8693.933982822015
 20
1718.933983194547
 30
0.0
 11
8906.066017177978
 21
1931.066017550511
 31
0.0
  0
TEXT
  5
143
330
17
100
AcDbEntity
  8
A-ANNO-DIMS
100
AcDbText
 10
4399.999999999996
 20
1900.000000372529
 30
0.0
 40
250.0
  1
8800
 72
1
 11
4399.999999999996
 21
1900.000000372529
 31
0.0
100
AcDbText
 73
2
  0
LINE
  5
144
330
17
100
AcDbEntity
  8
A-ANNO-DIMS
370
18
100
AcDbLine
 10
-1825.000000372529
 20
-17800.003051757812
 30
0.0
 11
-1825.000000372529
 21
-0.0030517578117894573
 31
0.0
1001
BIMSRC
1000
type:DIM
1000
axis:y
1000
from_grid:1
1000
to_grid:2
1000
dist
1040
17.8
  0
LINE
  5
145
330
17
100
AcDbEntity
  8
A-ANNO-DIMS
370
18
100
AcDbLine
 10
-225.00000037252903
 20
-17800.003051757812
 30
0.0
 11
-2025.000000372529
 21
-17800.003051757812
 31
0.0
  0
LINE
  5
146
330
17
100
AcDbEntity
  8
A-ANNO-DIMS
370
18
100
AcDbLine
 10
-225.00000037252903
 20
-0.0030517578117894573
 30
0.0
 11
-2025.000000372529
 21
-0.0030517578117894573
 31
0.0
  0
LINE
  5
147
330
17
100
AcDbEntity
  8
A-ANNO-DIMS
370
18
100
AcDbLine
 10
-1931.066017550511
 20
-17906.069068935794
 30
0.0
 11
-1718.933983194547
 21
-17693.93703457983
 31
0.0
  0
LINE
  5
148
330
17
100
AcDbEntity
  8
A-ANNO-DIMS
370
18
100
AcDbLine
 10
-1931.066017550511
 20
-106.06906893579391
 30
0.0
 11
-1718.933983194547
 21
106.06296542017033
 31
0.0
  0
TEXT
  5
149
330
17
100
AcDbEntity
  8
A-ANNO-DIMS
100
AcDbText
 10
-1900.000000372529
 20
-8900.003051757812
 30
0.0
 40
250.0
  1
17800
 50
90.0
 72
1
 11
-1900.000000372529
 21
-8900.003051757812
 31
0.0
100
AcDbText
 73
2
  0
TEXT
  5
14A
330
17
100
AcDbEntity
  8
A-ANNO-TEXT
100
AcDbText
 10
4441.949732601643
 20
-9002.691346406937
 30
0.0
 40
200.0
  1
CT | V1
 72
1
 11
4441.949732601643
 21
-9002.691346406937
 31
0.0
100
AcDbText
 73
2
  0
TEXT
  5
14B
330
17
100
AcDbEntity
  8
A-ANNO-TEXT
100
AcDbText
 10
4441.949732601643
 20
-8652.691346406937
 30
0.0
 40
350.0
  1
LIVING ROOM
 72
1
 11
4441.949732601643
 21
-8652.691346406937
 31
0.0
100
AcDbText
 73
2
1001
BIMGUID
1000
ROOM:LIVING
1001
BIMSRC
1000
type:ROOM
1000
room_type:LIVING
1000
pos_x
1040
4.441949732601643
1000
pos_y
1040
-8.827691346406937
1000
area
1040
136.7344979765573
  0
TEXT
  5
14C
330
17
100
AcDbEntity
  8
A-ANNO-TEXT
100
AcDbText
 10
4441.949732601643
 20
-9352.691346406937
 30
0.0
 40
250.0
  1
136.7 m²
 72
1
 11
4441.949732601643
 21
-9352.691346406937
 31
0.0
100
AcDbText
 73
2
  0
INSERT
  5
14D
330
17
100
AcDbEntity
  8
A-ANNO-TEXT
100
AcDbBlockReference
  2
WINDOW_TAG
 10
6750.000619888306
 20
-9672.000408172607
 30
0.0
 41
200.0
 42
200.0
  0
TEXT
  5
14F
330
17
100
AcDbEntity
  8
A-ANNO-TEXT
100
AcDbText
 10
6750.000619888306
 20
-9672.000408172607
 30
0.0
 40
200.0
  1
D1
 72
1
 11
6750.000619888306
 21
-9672.000408172607
 31
0.0
100
AcDbText
 73
2
  0
INSERT
  5
150
330
17
100
AcDbEntity
  8
A-ANNO-TEXT
100
AcDbBlockReference
  2
WINDOW_TAG
 10
2974.000358581543
 20
-8130.000352859497
 30
0.0
 41
200.0
 42
200.0
  0
TEXT
  5
152
330
17
100
AcDbEntity
  8
A-ANNO-TEXT
100
AcDbText
 10
2974.000358581543
 20
-8130.000352859497
 30
0.0
 40
200.0
  1
D2
 72
1
 11
2974.000358581543
 21
-8130.000352859497
 31
0.0
100
AcDbText
 73
2
  0
INSERT
  5
153
330
17
100
AcDbEntity
  8
A-ANNO-TEXT
100
AcDbBlockReference
  2
WINDOW_TAG
 10
9200.000667572021
 20
-16177.99997329712
 30
0.0
 41
200.0
 42
200.0
  0
TEXT
  5
155
330
17
100
AcDbEntity
  8
A-ANNO-TEXT
100
AcDbText
 10
9200.000667572021
 20
-16177.99997329712
 30
0.0
 40
200.0
  1
D3
 72
1
 11
9200.000667572021
 21
-16177.99997329712
 31
0.0
100
AcDbText
 73
2
  0
INSERT
  5
156
330
17
100
AcDbEntity
  8
A-ANNO-TEXT
100
AcDbBlockReference
  2
WINDOW_TAG
 10
817.0000283047561
 20
-1622.0000386238098
 30
0.0
 41
200.0
 42
200.0
  0
TEXT
  5
158
330
17
100
AcDbEntity
  8
A-ANNO-TEXT
100
AcDbText
 10
817.0000283047561
 20
-1622.0000386238098
 30
0.0
 40
200.0
  1
D4
 72
1
 11
817.0000283047561
 21
-1622.0000386238098
 31
0.0
100
AcDbText
 73
2
  0
INSERT
  5
159
330
17
100
AcDbEntity
  8
A-ANNO-TEXT
100
AcDbBlockReference
  2
WINDOW_TAG
 10
3041.4689779281616
 20
-817.0000283047557
 30
0.0
 41
200.0
 42
200.0
  0
TEXT
  5
15B
330
17
100
AcDbEntity
  8
A-ANNO-TEXT
100
AcDbText
 10
3041.4689779281616
 20
-817.0000283047557
 30
0.0
 40
200.0
  1
D5
 72
1
 11
3041.4689779281616
 21
-817.0000283047557
 31
0.0
100
AcDbText
 73
2
  0
INSERT
  5
15C
330
17
100
AcDbEntity
  8
A-ANNO-TEXT
100
AcDbBlockReference
  2
WINDOW_TAG
 10
5758.49986076355
 20
-18200.002098083496
 30
0.0
 41
200.0
 42
200.0
  0
TEXT
  5
15E
330
17
100
AcDbEntity
  8
A-ANNO-TEXT
100
AcDbText
 10
5758.49986076355
 20
-18200.002098083496
 30
0.0
 40
200.0
  1
D6
 72
1
 11
5758.49986076355
 21
-18200.002098083496
 31
0.0
100
AcDbText
 73
2
  0
INSERT
  5
15F
330
17
100
AcDbEntity
  8
A-ANNO-TEXT
100
AcDbBlockReference
  2
WINDOW_TAG
 10
5965.499997138977
 20
399.9999999999942
 30
0.0
 41
200.0
 42
200.0
  0
TEXT
  5
161
330
17
100
AcDbEntity
  8
A-ANNO-TEXT
100
AcDbText
 10
5965.499997138977
 20
399.9999999999942
 30
0.0
 40
200.0
  1
W1
 72
1
 11
5965.499997138977
 21
399.9999999999942
 31
0.0
100
AcDbText
 73
2
  0
INSERT
  5
162
330
17
100
AcDbEntity
  8
A-ANNO-TEXT
100
AcDbBlockReference
  2
WINDOW_TAG
 10
2834.500402212143
 20
-16982.999420166016
 30
0.0
 41
200.0
 42
200.0
  0
TEXT
  5
164
330
17
100
AcDbEntity
  8
A-ANNO-TEXT
100
AcDbText
 10
2834.500402212143
 20
-16982.999420166016
 30
0.0
 40
200.0
  1
W2
 72
1
 11
2834.500402212143
 21
-16982.999420166016
 31
0.0
100
AcDbText
 73
2
  0
INSERT
  5
165
330
17
100
AcDbEntity
  8
A-ANNO-TEXT
100
AcDbBlockReference
  2
WINDOW_TAG
 10
7982.999420166016
 20
-5569.999694824219
 30
0.0
 41
200.0
 42
200.0
  0
TEXT
  5
167
330
17
100
AcDbEntity
  8
A-ANNO-TEXT
100
AcDbText
 10
7982.999420166016
 20
-5569.999694824219
 30
0.0
 40
200.0
  1
W3
 72
1
 11
7982.999420166016
 21
-5569.999694824219
 31
0.0
100
AcDbText
 73
2
  0
INSERT
  5
168
330
17
100
AcDbEntity
  8
A-ANNO-TEXT
100
AcDbBlockReference
  2
WINDOW_TAG
 10
-400.00000000000114
 20
-12230.000495910645
 30
0.0
 41
200.0
 42
200.0
  0
TEXT
  5
16A
330
17
100
AcDbEntity
  8
A-ANNO-TEXT
100
AcDbText
 10
-400.00000000000114
 20
-12230.000495910645
 30
0.0
 40
200.0
  1
W4
 72
1
 11
-400.00000000000114
 21
-12230.000495910645
 31
0.0
100
AcDbText
 73
2
  0
LINE
  5
16B
330
17
100
AcDbEntity
  8
A-ANNO-SECT
  6
HIDDEN
370
18
100
AcDbLine
 10
-1025.000000372529
 20
-8900.000381283462
 30
0.0
 11
9825.000762939453
 21
-8900.000381283462
 31
0.0
  0
CIRCLE
  5
16C
330
17
100
AcDbEntity
  8
A-ANNO-SECT
370
18
100
AcDbCircle
 10
-1025.000000372529
 20
-8900.000381283462
 30
0.0
 40
400.0
  0
TEXT
  5
16D
330
17
100
AcDbEntity
  8
A-ANNO-SECT
100
AcDbText
 10
-1025.000000372529
 20
-8900.000381283462
 30
0.0
 40
300.0
  1
A
 72
1
 11
-1025.000000372529
 21
-8900.000381283462
 31
0.0
100
AcDbText
 73
2
  0
INSERT
  5
16E
330
17
100
AcDbEntity
  8
A-ANNO-SECT
100
AcDbBlockReference
  2
SECTION_ARROW
 10
-1025.000000372529
 20
-9450.000381283462
 30
0.0
 41
300.0
 42
300.0
 50
270.0
  0
CIRCLE
  5
170
330
17
100
AcDbEntity
  8
A-ANNO-SECT
370
18
100
AcDbCircle
 10
9825.000762939453
 20
-8900.000381283462
 30
0.0
 40
400.0
  0
TEXT
  5
171
330
17
100
AcDbEntity
  8
A-ANNO-SECT
100
AcDbText
 10
9825.000762939453
 20
-8900.000381283462
 30
0.0
 40
300.0
  1
A
 72
1
 11
9825.000762939453
 21
-8900.000381283462
 31
0.0
100
AcDbText
 73
2
  0
INSERT
  5
172
330
17
100
AcDbEntity
  8
A-ANNO-SECT
100
AcDbBlockReference
  2
SECTION_ARROW
 10
9825.000762939453
 20
-9450.000381283462
 30
0.0
 41
300.0
 42
300.0
 50
90.0
  0
LINE
  5
174
330
17
100
AcDbEntity
  8
A-ANNO-SECT
  6
HIDDEN
370
18
100
AcDbLine
 10
4400.000381283462
 20
-18825.000762939453
 30
0.0
 11
4400.000381283462
 21
1025.000000372529
 31
0.0
  0
CIRCLE
  5
175
330
17
100
AcDbEntity
  8
A-ANNO-SECT
370
18
100
AcDbCircle
 10
4400.000381283462
 20
-18825.000762939453
 30
0.0
 40
400.0
  0
TEXT
  5
176
330
17
100
AcDbEntity
  8
A-ANNO-SECT
100
AcDbText
 10
4400.000381283462
 20
-18825.000762939453
 30
0.0
 40
300.0
  1
B
 72
1
 11
4400.000381283462
 21
-18825.000762939453
 31
0.0
100
AcDbText
 73
2
  0
INSERT
  5
177
330
17
100
AcDbEntity
  8
A-ANNO-SECT
100
AcDbBlockReference
  2
SECTION_ARROW
 10
3850.000381283462
 20
-18825.000762939453
 30
0.0
 41
300.0
 42
300.0
  0
CIRCLE
  5
179
330
17
100
AcDbEntity
  8
A-ANNO-SECT
370
18
100
AcDbCircle
 10
4400.000381283462
 20
1025.000000372529
 30
0.0
 40
400.0
  0
TEXT
  5
17A
330
17
100
AcDbEntity
  8
A-ANNO-SECT
100
AcDbText
 10
4400.000381283462
 20
1025.000000372529
 30
0.0
 40
300.0
  1
B
 72
1
 11
4400.000381283462
 21
1025.000000372529
 31
0.0
100
AcDbText
 73
2
  0
INSERT
  5
17B
330
17
100
AcDbEntity
  8
A-ANNO-SECT
100
AcDbBlockReference
  2
SECTION_ARROW
 10
3850.000381283462
 20
1025.000000372529
 30
0.0
 41
300.0
 42
300.0
 50
180.0
  0
LWPOLYLINE
  5
17D
330
17
100
AcDbEntity
  8
0
 62
7
100
AcDbPolyline
 90
4
 70
1
 10
-11349.999618716538
 20
-23625.000762939453
 10
30650.000381283462
 20
-23625.000762939453
 10
30650.000381283462
 20
5374.999237060547
 10
-11349.999618716538
 20
5374.999237060547
  0
LWPOLYLINE
  5
17E
330
17
100
AcDbEntity
  8
A-TTLB
370
70
100
AcDbPolyline
 90
4
 70
1
 10
-8849.999618716538
 20
-22625.000762939453
 10
29650.000381283462
 20
-22625.000762939453
 10
29650.000381283462
 20
4374.999237060547
 10
-8849.999618716538
 20
4374.999237060547
  0
LINE
  5
17F
330
17
100
AcDbEntity
  8
A-TTLB
370
70
100
AcDbLine
 10
17650.000381283462
 20
-22625.000762939453
 30
0.0
 11
17650.000381283462
 21
4374.999237060547
 31
0.0
  0
IMAGE
  5
183
330
17
100
AcDbEntity
  8
A-TTLB
100
AcDbRasterImage
 90
0
 10
17850.000381283462
 20
2994.999237060547
 30
0.0
 11
1.6853932584269662
 21
0.0
 31
0.0
 12
1.1269755820374415e-16
 22
1.8404907975460123
 32
0.0
 13
890.0
 23
652.0
340
182
 70
3
280
0
281
50
282
50
283
0
360
184
 71
1
 91
2
 14
-0.5
 24
-0.5
 14
889.5
 24
651.5
290
0
  0
TEXT
  5
185
330
17
100
AcDbEntity
  8
A-TTLB
100
AcDbText
 10
24600.000381283462
 20
3789.999237060547
 30
0.0
 40
390.0
  1
PUBLIC WORKS
 72
1
 11
24600.000381283462
 21
3789.999237060547
 31
0.0
100
AcDbText
 73
2
  0
TEXT
  5
186
330
17
100
AcDbEntity
  8
A-TTLB
100
AcDbText
 10
24600.000381283462
 20
3399.999237060547
 30
0.0
 40
390.0
  1
DEPARTMENT MALAYSIA
 72
1
 11
24600.000381283462
 21
3399.999237060547
 31
0.0
100
AcDbText
 73
2
  0
LINE
  5
187
330
17
100
AcDbEntity
  8
A-TTLB
370
50
100
AcDbLine
 10
17650.000381283462
 20
2814.999237060547
 30
0.0
 11
29650.000381283462
 21
2814.999237060547
 31
0.0
  0
TEXT
  5
188
330
17
100
AcDbEntity
  8
A-TTLB
100
AcDbText
 10
23650.000381283462
 20
2254.999237060547
 30
0.0
 40
500.0
  1
DUPLEX RESIDENTIAL
 72
1
 11
23650.000381283462
 21
2254.999237060547
 31
0.0
100
AcDbText
 73
2
  0
TEXT
  5
189
330
17
100
AcDbEntity
  8
A-TTLB
100
AcDbText
 10
23650.000381283462
 20
1662.9992370605469
 30
0.0
 40
300.0
  1
Ifc4 Duplex
 72
1
 11
23650.000381283462
 21
1662.9992370605469
 31
0.0
100
AcDbText
 73
2
  0
LINE
  5
18A
330
17
100
AcDbEntity
  8
A-TTLB
370
35
100
AcDbLine
 10
17650.000381283462
 20
1214.9992370605469
 30
0.0
 11
29650.000381283462
 21
1214.9992370605469
 31
0.0
  0
LINE
  5
18B
330
17
100
AcDbEntity
  8
A-TTLB
370
18
100
AcDbLine
 10
17650.000381283462
 20
1214.9992370605469
 30
0.0
 11
29650.000381283462
 21
1214.9992370605469
 31
0.0
  0
TEXT
  5
18C
330
17
100
AcDbEntity
  8
A-TTLB
 62
8
100
AcDbText
 10
23650.000381283462
 20
814.9992370605469
 30
0.0
 40
180.0
  1
DOOR & WINDOW SCHEDULE
 72
1
 11
23650.000381283462
 21
814.9992370605469
 31
0.0
100
AcDbText
 73
2
  0
LINE
  5
18D
330
17
100
AcDbEntity
  8
A-TTLB
370
18
100
AcDbLine
 10
17650.000381283462
 20
714.9992370605469
 30
0.0
 11
29650.000381283462
 21
714.9992370605469
 31
0.0
  0
TEXT
  5
18E
330
17
100
AcDbEntity
  8
A-TTLB
100
AcDbText
 10
18050.000381283462
 20
364.9992370605469
 30
0.0
 40
180.0
  1
TAG
 11
18050.000381283462
 21
364.9992370605469
 31
0.0
100
AcDbText
  0
TEXT
  5
18F
330
17
100
AcDbEntity
  8
A-TTLB
100
AcDbText
 10
19810.000381283462
 20
364.9992370605469
 30
0.0
 40
180.0
  1
SIZE
 11
19810.000381283462
 21
364.9992370605469
 31
0.0
100
AcDbText
  0
TEXT
  5
190
330
17
100
AcDbEntity
  8
A-TTLB
100
AcDbText
 10
22810.000381283462
 20
364.9992370605469
 30
0.0
 40
180.0
  1
DESCRIPTION
 11
22810.000381283462
 21
364.9992370605469
 31
0.0
100
AcDbText
  0
TEXT
  5
191
330
17
100
AcDbEntity
  8
A-TTLB
100
AcDbText
 10
27490.000381283462
 20
364.9992370605469
 30
0.0
 40
180.0
  1
QTY
 11
27490.000381283462
 21
364.9992370605469
 31
0.0
100
AcDbText
  0
LINE
  5
192
330
17
100
AcDbEntity
  8
A-TTLB
 62
8
370
18
100
AcDbLine
 10
17650.000381283462
 20
14.999237060546875
 30
0.0
 11
29650.000381283462
 21
14.999237060546875
 31
0.0
  0
TEXT
  5
193
330
17
100
AcDbEntity
  8
A-TTLB
100
AcDbText
 10
18050.000381283462
 20
-335.0007629394531
 30
0.0
 40
200.0
  1
D1-D2
 11
18050.000381283462
 21
-335.0007629394531
 31
0.0
100
AcDbText
  0
TEXT
  5
194
330
17
100
AcDbEntity
  8
A-TTLB
100
AcDbText
 10
19810.000381283462
 20
-335.0007629394531
 30
0.0
 40
200.0
  1
174×2108
 11
19810.000381283462
 21
-335.0007629394531
 31
0.0
100
AcDbText
  0
TEXT
  5
195
330
17
100
AcDbEntity
  8
A-TTLB
100
AcDbText
 10
22810.000381283462
 20
-335.0007629394531
 30
0.0
 40
180.0
  1
INTSGL
 11
22810.000381283462
 21
-335.0007629394531
 31
0.0
100
AcDbText
  0
TEXT
  5
196
330
17
100
AcDbEntity
  8
A-TTLB
100
AcDbText
 10
27490.000381283462
 20
-335.0007629394531
 30
0.0
 40
200.0
  1
2 No.
 11
27490.000381283462
 21
-335.0007629394531
 31
0.0
100
AcDbText
  0
TEXT
  5
197
330
17
100
AcDbEntity
  8
A-TTLB
100
AcDbText
 10
18050.000381283462
 20
-1035.0007629394531
 30
0.0
 40
200.0
  1
D3-D4
 11
18050.000381283462
 21
-1035.0007629394531
 31
0.0
100
AcDbText
  0
TEXT
  5
198
330
17
100
AcDbEntity
  8
A-TTLB
100
AcDbText
 10
19810.000381283462
 20
-1035.0007629394531
 30
0.0
 40
200.0
  1
467×2086
 11
19810.000381283462
 21
-1035.0007629394531
 31
0.0
100
AcDbText
  0
TEXT
  5
199
330
17
100
AcDbEntity
  8
A-TTLB
100
AcDbText
 10
22810.000381283462
 20
-1035.0007629394531
 30
0.0
 40
180.0
  1
INTSGL
 11
22810.000381283462
 21
-1035.0007629394531
 31
0.0
100
AcDbText
  0
TEXT
  5
19A
330
17
100
AcDbEntity
  8
A-TTLB
100
AcDbText
 10
27490.000381283462
 20
-1035.0007629394531
 30
0.0
 40
200.0
  1
2 No.
 11
27490.000381283462
 21
-1035.0007629394531
 31
0.0
100
AcDbText
  0
TEXT
  5
19B
330
17
100
AcDbEntity
  8
A-TTLB
100
AcDbText
 10
18050.000381283462
 20
-1735.0007629394531
 30
0.0
 40
200.0
  1
D5-D6
 11
18050.000381283462
 21
-1735.0007629394531
 31
0.0
100
AcDbText
  0
TEXT
  5
19C
330
17
100
AcDbEntity
  8
A-TTLB
100
AcDbText
 10
19810.000381283462
 20
-1735.0007629394531
 30
0.0
 40
200.0
  1
965×2496
 11
19810.000381283462
 21
-1735.0007629394531
 31
0.0
100
AcDbText
  0
TEXT
  5
19D
330
17
100
AcDbEntity
  8
A-TTLB
100
AcDbText
 10
22810.000381283462
 20
-1735.0007629394531
 30
0.0
 40
180.0
  1
INTSGL
 11
22810.000381283462
 21
-1735.0007629394531
 31
0.0
100
AcDbText
  0
TEXT
  5
19E
330
17
100
AcDbEntity
  8
A-TTLB
100
AcDbText
 10
27490.000381283462
 20
-1735.0007629394531
 30
0.0
 40
200.0
  1
2 No.
 11
27490.000381283462
 21
-1735.0007629394531
 31
0.0
100
AcDbText
  0
TEXT
  5
19F
330
17
100
AcDbEntity
  8
A-TTLB
100
AcDbText
 10
18050.000381283462
 20
-2435.000762939453
 30
0.0
 40
200.0
  1
W1-W2
 11
18050.000381283462
 21
-2435.000762939453
 31
0.0
100
AcDbText
  0
TEXT
  5
1A0
330
17
100
AcDbEntity
  8
A-TTLB
100
AcDbText
 10
19810.000381283462
 20
-2435.000762939453
 30
0.0
 40
200.0
  1
4835×2420
 11
19810.000381283462
 21
-2435.000762939453
 31
0.0
100
AcDbText
  0
TEXT
  5
1A1
330
17
100
AcDbEntity
  8
A-TTLB
100
AcDbText
 10
22810.000381283462
 20
-2435.000762939453
 30
0.0
 40
180.0
  1
SGL PLAIN
 11
22810.000381283462
 21
-2435.000762939453
 31
0.0
100
AcDbText
  0
TEXT
  5
1A2
330
17
100
AcDbEntity
  8
A-TTLB
100
AcDbText
 10
27490.000381283462
 20
-2435.000762939453
 30
0.0
 40
200.0
  1
2 No.
 11
27490.000381283462
 21
-2435.000762939453
 31
0.0
100
AcDbText
  0
TEXT
  5
1A3
330
17
100
AcDbEntity
  8
A-TTLB
100
AcDbText
 10
18050.000381283462
 20
-3135.000762939453
 30
0.0
 40
200.0
  1
W3-W4
 11
18050.000381283462
 21
-3135.000762939453
 31
0.0
100
AcDbText
  0
TEXT
  5
1A4
330
17
100
AcDbEntity
  8
A-TTLB
100
AcDbText
 10
19810.000381283462
 20
-3135.000762939453
 30
0.0
 40
200.0
  1
417×2200
 11
19810.000381283462
 21
-3135.000762939453
 31
0.0
100
AcDbText
  0
TEXT
  5
1A5
330
17
100
AcDbEntity
  8
A-TTLB
100
AcDbText
 10
22810.000381283462
 20
-3135.000762939453
 30
0.0
 40
180.0
  1
SGL PLAIN
 11
22810.000381283462
 21
-3135.000762939453
 31
0.0
100
AcDbText
  0
TEXT
  5
1A6
330
17
100
AcDbEntity
  8
A-TTLB
100
AcDbText
 10
27490.000381283462
 20
-3135.000762939453
 30
0.0
 40
200.0
  1
2 No.
 11
27490.000381283462
 21
-3135.000762939453
 31
0.0
100
AcDbText
  0
LINE
  5
1A7
330
17
100
AcDbEntity
  8
A-TTLB
 62
8
370
18
100
AcDbLine
 10
17650.000381283462
 20
-3485.000762939453
 30
0.0
 11
29650.000381283462
 21
-3485.000762939453
 31
0.0
  0
LINE
  5
1A8
330
17
100
AcDbEntity
  8
A-TTLB
370
18
100
AcDbLine
 10
17650.000381283462
 20
-19925.000762939453
 30
0.0
 11
29650.000381283462
 21
-19925.000762939453
 31
0.0
  0
LINE
  5
1A9
330
17
100
AcDbEntity
  8
A-TTLB
370
18
100
AcDbLine
 10
21250.000381283462
 20
-19925.000762939453
 30
0.0
 11
21250.000381283462
 21
-18430.455308393997
 31
0.0
  0
TEXT
  5
1AA
330
17
100
AcDbEntity
  8
A-TTLB
100
AcDbText
 10
19450.000381283462
 20
-19177.728035666725
 30
0.0
 40
200.0
  1
REVISION NO.
 72
1
 11
19450.000381283462
 21
-19177.728035666725
 31
0.0
100
AcDbText
 73
2
  0
TEXT
  5
1AB
330
17
100
AcDbEntity
  8
A-TTLB
100
AcDbText
 10
25450.000381283462
 20
-19177.728035666725
 30
0.0
 40
300.0
  1
0
 72
1
 11
25450.000381283462
 21
-19177.728035666725
 31
0.0
100
AcDbText
 73
2
  0
LINE
  5
1AC
330
17
100
AcDbEntity
  8
A-TTLB
370
18
100
AcDbLine
 10
17650.000381283462
 20
-18430.455308393997
 30
0.0
 11
29650.000381283462
 21
-18430.455308393997
 31
0.0
  0
LINE
  5
1AD
330
17
100
AcDbEntity
  8
A-TTLB
370
18
100
AcDbLine
 10
21250.000381283462
 20
-18430.455308393997
 30
0.0
 11
21250.000381283462
 21
-16935.90985384854
 31
0.0
  0
TEXT
  5
1AE
330
17
100
AcDbEntity
  8
A-TTLB
100
AcDbText
 10
19450.000381283462
 20
-17683.18258112127
 30
0.0
 40
200.0
  1
CHECKED BY
 72
1
 11
19450.000381283462
 21
-17683.18258112127
 31
0.0
100
AcDbText
 73
2
  0
LINE
  5
1AF
330
17
100
AcDbEntity
  8
A-TTLB
370
35
100
AcDbLine
 10
17650.000381283462
 20
-16935.90985384854
 30
0.0
 11
29650.000381283462
 21
-16935.90985384854
 31
0.0
  0
LINE
  5
1B0
330
17
100
AcDbEntity
  8
A-TTLB
370
18
100
AcDbLine
 10
21250.000381283462
 20
-16935.90985384854
 30
0.0
 11
21250.000381283462
 21
-15441.364399303087
 31
0.0
  0
TEXT
  5
1B1
330
17
100
AcDbEntity
  8
A-TTLB
100
AcDbText
 10
19450.000381283462
 20
-16188.637126575813
 30
0.0
 40
200.0
  1
DRAWING NO.
 72
1
 11
19450.000381283462
 21
-16188.637126575813
 31
0.0
100
AcDbText
 73
2
  0
TEXT
  5
1B2
330
17
100
AcDbEntity
  8
A-TTLB
100
AcDbText
 10
25450.000381283462
 20
-16188.637126575813
 30
0.0
 40
300.0
  1
A-01-GF
 72
1
 11
25450.000381283462
 21
-16188.637126575813
 31
0.0
100
AcDbText
 73
2
  0
LINE
  5
1B3
330
17
100
AcDbEntity
  8
A-TTLB
370
18
100
AcDbLine
 10
17650.000381283462
 20
-15441.364399303087
 30
0.0
 11
29650.000381283462
 21
-15441.364399303087
 31
0.0
  0
LINE
  5
1B4
330
17
100
AcDbEntity
  8
A-TTLB
370
18
100
AcDbLine
 10
21250.000381283462
 20
-15441.364399303087
 30
0.0
 11
21250.000381283462
 21
-13946.818944757633
 31
0.0
  0
TEXT
  5
1B5
330
17
100
AcDbEntity
  8
A-TTLB
100
AcDbText
 10
19450.000381283462
 20
-14694.09167203036
 30
0.0
 40
200.0
  1
DATE
 72
1
 11
19450.000381283462
 21
-14694.09167203036
 31
0.0
100
AcDbText
 73
2
  0
LINE
  5
1B6
330
17
100
AcDbEntity
  8
A-TTLB
370
18
100
AcDbLine
 10
17650.000381283462
 20
-13946.818944757633
 30
0.0
 11
29650.000381283462
 21
-13946.818944757633
 31
0.0
  0
LINE
  5
1B7
330
17
100
AcDbEntity
  8
A-TTLB
370
18
100
AcDbLine
 10
21250.000381283462
 20
-13946.818944757633
 30
0.0
 11
21250.000381283462
 21
-12452.27349021218
 31
0.0
  0
TEXT
  5
1B8
330
17
100
AcDbEntity
  8
A-TTLB
100
AcDbText
 10
19450.000381283462
 20
-13199.546217484905
 30
0.0
 40
200.0
  1
SCALE
 72
1
 11
19450.000381283462
 21
-13199.546217484905
 31
0.0
100
AcDbText
 73
2
  0
TEXT
  5
1B9
330
17
100
AcDbEntity
  8
A-TTLB
100
AcDbText
 10
25450.000381283462
 20
-13199.546217484905
 30
0.0
 40
300.0
  1
1:100
 72
1
 11
25450.000381283462
 21
-13199.546217484905
 31
0.0
100
AcDbText
 73
2
  0
LINE
  5
1BA
330
17
100
AcDbEntity
  8
A-TTLB
370
18
100
AcDbLine
 10
17650.000381283462
 20
-12452.27349021218
 30
0.0
 11
29650.000381283462
 21
-12452.27349021218
 31
0.0
  0
LINE
  5
1BB
330
17
100
AcDbEntity
  8
A-TTLB
370
18
100
AcDbLine
 10
21250.000381283462
 20
-12452.27349021218
 30
0.0
 11
21250.000381283462
 21
-10957.728035666725
 31
0.0
  0
TEXT
  5
1BC
330
17
100
AcDbEntity
  8
A-TTLB
100
AcDbText
 10
19450.000381283462
 20
-11705.000762939451
 30
0.0
 40
200.0
  1
DRAWN BY
 72
1
 11
19450.000381283462
 21
-11705.000762939451
 31
0.0
100
AcDbText
 73
2
  0
LINE
  5
1BD
330
17
100
AcDbEntity
  8
A-TTLB
370
35
100
AcDbLine
 10
17650.000381283462
 20
-10957.728035666725
 30
0.0
 11
29650.000381283462
 21
-10957.728035666725
 31
0.0
  0
LINE
  5
1BE
330
17
100
AcDbEntity
  8
A-TTLB
370
18
100
AcDbLine
 10
21250.000381283462
 20
-10957.728035666725
 30
0.0
 11
21250.000381283462
 21
-9463.182581121271
 31
0.0
  0
TEXT
  5
1BF
330
17
100
AcDbEntity
  8
A-TTLB
100
AcDbText
 10
19450.000381283462
 20
-10210.455308393997
 30
0.0
 40
200.0
  1
DRAWING TITLE
 72
1
 11
19450.000381283462
 21
-10210.455308393997
 31
0.0
100
AcDbText
 73
2
  0
TEXT
  5
1C0
330
17
100
AcDbEntity
  8
A-TTLB
100
AcDbText
 10
25450.000381283462
 20
-10210.455308393997
 30
0.0
 40
300.0
  1
GROUND FLOOR PLAN
 72
1
 11
25450.000381283462
 21
-10210.455308393997
 31
0.0
100
AcDbText
 73
2
  0
LINE
  5
1C1
330
17
100
AcDbEntity
  8
A-TTLB
370
35
100
AcDbLine
 10
17650.000381283462
 20
-9463.182581121271
 30
0.0
 11
29650.000381283462
 21
-9463.182581121271
 31
0.0
  0
LINE
  5
1C2
330
17
100
AcDbEntity
  8
A-TTLB
370
18
100
AcDbLine
 10
21250.000381283462
 20
-9463.182581121271
 30
0.0
 11
21250.000381283462
 21
-7968.637126575817
 31
0.0
  0
TEXT
  5
1C3
330
17
100
AcDbEntity
  8
A-TTLB
100
AcDbText
 10
19450.000381283462
 20
-8715.909853848543
 30
0.0
 40
200.0
  1
BUILDING TYPE
 72
1
 11
19450.000381283462
 21
-8715.909853848543
 31
0.0
100
AcDbText
 73
2
  0
TEXT
  5
1C4
330
17
100
AcDbEntity
  8
A-TTLB
100
AcDbText
 10
25450.000381283462
 20
-8715.909853848543
 30
0.0
 40
300.0
  1
DUPLEX RESIDENTIAL
 72
1
 11
25450.000381283462
 21
-8715.909853848543
 31
0.0
100
AcDbText
 73
2
  0
LINE
  5
1C5
330
17
100
AcDbEntity
  8
A-TTLB
370
35
100
AcDbLine
 10
17650.000381283462
 20
-7968.637126575817
 30
0.0
 11
29650.000381283462
 21
-7968.637126575817
 31
0.0
  0
LINE
  5
1C6
330
17
100
AcDbEntity
  8
A-TTLB
370
18
100
AcDbLine
 10
21250.000381283462
 20
-7968.637126575817
 30
0.0
 11
21250.000381283462
 21
-6474.091672030363
 31
0.0
  0
TEXT
  5
1C7
330
17
100
AcDbEntity
  8
A-TTLB
100
AcDbText
 10
19450.000381283462
 20
-7221.36439930309
 30
0.0
 40
200.0
  1
ARCHITECT
 72
1
 11
19450.000381283462
 21
-7221.36439930309
 31
0.0
100
AcDbText
 73
2
  0
LINE
  5
1C8
330
17
100
AcDbEntity
  8
A-TTLB
370
18
100
AcDbLine
 10
17650.000381283462
 20
-6474.091672030363
 30
0.0
 11
29650.000381283462
 21
-6474.091672030363
 31
0.0
  0
LINE
  5
1C9
330
17
100
AcDbEntity
  8
A-TTLB
370
18
100
AcDbLine
 10
21250.000381283462
 20
-6474.091672030363
 30
0.0
 11
21250.000381283462
 21
-4979.546217484909
 31
0.0
  0
TEXT
  5
1CA
330
17
100
AcDbEntity
  8
A-TTLB
100
AcDbText
 10
19450.000381283462
 20
-5726.818944757636
 30
0.0
 40
200.0
  1
CLIENT
 72
1
 11
19450.000381283462
 21
-5726.818944757636
 31
0.0
100
AcDbText
 73
2
  0
LINE
  5
1CB
330
17
100
AcDbEntity
  8
A-TTLB
370
35
100
AcDbLine
 10
17650.000381283462
 20
-4979.546217484909
 30
0.0
 11
29650.000381283462
 21
-4979.546217484909
 31
0.0
  0
LINE
  5
1CC
330
17
100
AcDbEntity
  8
A-TTLB
370
18
100
AcDbLine
 10
21250.000381283462
 20
-4979.546217484909
 30
0.0
 11
21250.000381283462
 21
-3485.0007629394545
 31
0.0
  0
TEXT
  5
1CD
330
17
100
AcDbEntity
  8
A-TTLB
100
AcDbText
 10
19450.000381283462
 20
-4232.273490212182
 30
0.0
 40
200.0
  1
PROJECT
 72
1
 11
19450.000381283462
 21
-4232.273490212182
 31
0.0
100
AcDbText
 73
2
  0
LINE
  5
1CE
330
17
100
AcDbEntity
  8
A-TTLB
370
50
100
AcDbLine
 10
17650.000381283462
 20
-19925.000762939453
 30
0.0
 11
29650.000381283462
 21
-19925.000762939453
 31
0.0
  0
TEXT
  5
1CF
330
17
100
AcDbEntity
  8
A-TTLB
100
AcDbText
 10
23650.000381283462
 20
-20225.000762939453
 30
0.0
 40
240.0
  1
GRID REFERENCE
 72
1
 11
23650.000381283462
 21
-20225.000762939453
 31
0.0
100
AcDbText
 73
2
  0
LINE
  5
1D0
330
17
100
AcDbEntity
  8
A-TTLB
370
35
100
AcDbLine
 10
17650.000381283462
 20
-20375.000762939453
 30
0.0
 11
29650.000381283462
 21
-20375.000762939453
 31
0.0
  0
TEXT
  5
1D1
330
17
100
AcDbEntity
  8
A-TTLB
100
AcDbText
 10
23650.000381283462
 20
-20675.000762939453
 30
0.0
 40
200.0
  1
ALL DIMS SHOWN IN DRAWING
 72
1
 11
23650.000381283462
 21
-20675.000762939453
 31
0.0
100
AcDbText
 73
2
  0
LWPOLYLINE
  5
1D2
330
17
100
AcDbEntity
  8
A-ANNO-TEXT
370
18
100
AcDbPolyline
 90
3
 70
1
 10
16050.000381283462
 20
2774.999237060547
 10
15786.000381283462
 20
1974.9992370605469
 10
16314.000381283462
 20
1974.9992370605469
  0
TEXT
  5
1D3
330
17
100
AcDbEntity
  8
A-ANNO-TEXT
100
AcDbText
 10
16050.000381283462
 20
3074.999237060547
 30
0.0
 40
300.0
  1
N
 72
1
 11
16050.000381283462
 21
3074.999237060547
 31
0.0
100
AcDbText
 73
2
  0
TEXT
  5
1D4
330
17
100
AcDbEntity
  8
A-ANNO-TEXT
 62
8
100
AcDbText
 10
4400.000381283462
 20
-21725.000762939453
 30
0.0
 40
300.0
  1
scale 1:100
 72
1
 11
4400.000381283462
 21
-21725.000762939453
 31
0.0
100
AcDbText
 73
2
  0
SOLID
  5
1D5
330
17
100
AcDbEntity
  8
A-ANNO-DIMS
 62
7
100
AcDbTrace
 10
1900.000381283462
 20
-22325.000762939453
 30
0.0
 11
2900.000381283462
 21
-22325.000762939453
 31
0.0
 12
1900.000381283462
 22
-22125.000762939453
 32
0.0
 13
2900.000381283462
 23
-22125.000762939453
 33
0.0
  0
SOLID
  5
1D6
330
17
100
AcDbEntity
  8
A-ANNO-DIMS
 62
0
100
AcDbTrace
 10
2900.000381283462
 20
-22325.000762939453
 30
0.0
 11
3900.000381283462
 21
-22325.000762939453
 31
0.0
 12
2900.000381283462
 22
-22125.000762939453
 32
0.0
 13
3900.000381283462
 23
-22125.000762939453
 33
0.0
  0
SOLID
  5
1D7
330
17
100
AcDbEntity
  8
A-ANNO-DIMS
 62
7
100
AcDbTrace
 10
3900.000381283462
 20
-22325.000762939453
 30
0.0
 11
6900.000381283462
 21
-22325.000762939453
 31
0.0
 12
3900.000381283462
 22
-22125.000762939453
 32
0.0
 13
6900.000381283462
 23
-22125.000762939453
 33
0.0
  0
TEXT
  5
1D8
330
17
100
AcDbEntity
  8
A-ANNO-DIMS
100
AcDbText
 10
1900.000381283462
 20
-22485.000762939453
 30
0.0
 40
200.0
  1
0
 72
1
 11
1900.000381283462
 21
-22485.000762939453
 31
0.0
100
AcDbText
 73
2
  0
TEXT
  5
1D9
330
17
100
AcDbEntity
  8
A-ANNO-DIMS
100
AcDbText
 10
2900.000381283462
 20
-21825.000762939453
 30
0.0
 40
200.0
  1
1
 72
1
 11
2900.000381283462
 21
-21825.000762939453
 31
0.0
100
AcDbText
 73
2
  0
TEXT
  5
1DA
330
17
100
AcDbEntity
  8
A-ANNO-DIMS
100
AcDbText
 10
3900.000381283462
 20
-22485.000762939453
 30
0.0
 40
200.0
  1
2
 72
1
 11
3900.000381283462
 21
-22485.000762939453
 31
0.0
100
AcDbText
 73
2
  0
TEXT
  5
1DB
330
17
100
AcDbEntity
  8
A-ANNO-DIMS
100
AcDbText
 10
6900.000381283462
 20
-21825.000762939453
 30
0.0
 40
200.0
  1
5m
 72
1
 11
6900.000381283462
 21
-21825.000762939453
 31
0.0
100
AcDbText
 73
2
  0
ENDSEC
  0
SECTION
  2
OBJECTS
  0
DICTIONARY
  5
A
330
0
100
AcDbDictionary
281
1
  3
ACAD_COLOR
350
B
  3
ACAD_GROUP
350
C
  3
ACAD_LAYOUT
350
D
  3
ACAD_MATERIAL
350
E
  3
ACAD_MLEADERSTYLE
350
F
  3
ACAD_MLINESTYLE
350
10
  3
ACAD_PLOTSETTINGS
350
11
  3
ACAD_PLOTSTYLENAME
350
12
  3
ACAD_SCALELIST
350
14
  3
ACAD_TABLESTYLE
350
15
  3
ACAD_VISUALSTYLE
350
16
  3
EZDXF_META
350
2D
  3
ACAD_IMAGE_VARS
350
180
  3
ACAD_IMAGE_DICT
350
181
  0
DICTIONARY
  5
B
330
A
100
AcDbDictionary
281
1
  0
DICTIONARY
  5
C
330
A
100
AcDbDictionary
281
1
  0
DICTIONARY
  5
D
330
A
100
AcDbDictionary
281
1
  3
Model
350
1A
  3
Layout1
350
1E
  0
DICTIONARY
  5
E
330
A
100
AcDbDictionary
281
1
  3
ByBlock
350
1F
  3
ByLayer
350
20
  3
Global
350
21
  0
DICTIONARY
  5
F
330
A
100
AcDbDictionary
281
1
  3
Standard
350
2C
  0
DICTIONARY
  5
10
330
A
100
AcDbDictionary
281
1
  3
Standard
350
22
  0
DICTIONARY
  5
11
330
A
100
AcDbDictionary
281
1
  0
ACDBDICTIONARYWDFLT
  5
12
330
A
100
AcDbDictionary
281
1
  3
Normal
350
13
100
AcDbDictionaryWithDefault
340
13
  0
ACDBPLACEHOLDER
  5
13
330
12
  0
DICTIONARY
  5
14
330
A
100
AcDbDictionary
281
1
  0
DICTIONARY
  5
15
330
A
100
AcDbDictionary
281
1
  0
DICTIONARY
  5
16
330
A
100
AcDbDictionary
281
1
  0
LAYOUT
  5
1A
330
D
100
AcDbPlotSettings
  1

  4
A3
  6

 40
7.5
 41
20.0
 42
7.5
 43
20.0
 44
420.0
 45
297.0
 46
0.0
 47
0.0
 48
0.0
 49
0.0
140
0.0
141
0.0
142
1.0
143
1.0
 70
1024
 72
1
 73
0
 74
5
  7

 75
16
 76
0
 77
2
 78
300
147
1.0
148
0.0
149
0.0
100
AcDbLayout
  1
Model
 70
1
 71
0
 10
0.0
 20
0.0
 11
420.0
 21
297.0
 12
0.0
 22
0.0
 32
0.0
 14
1e+20
 24
1e+20
 34
1e+20
 15
-1e+20
 25
-1e+20
 35
-1e+20
146
0.0
 13
0.0
 23
0.0
 33
0.0
 16
1.0
 26
0.0
 36
0.0
 17
0.0
 27
1.0
 37
0.0
 76
1
330
17
  0
LAYOUT
  5
1E
330
D
100
AcDbPlotSettings
  1

  4
A3
  6

 40
7.5
 41
20.0
 42
7.5
 43
20.0
 44
420.0
 45
297.0
 46
0.0
 47
0.0
 48
0.0
 49
0.0
140
0.0
141
0.0
142
1.0
143
1.0
 70
0
 72
1
 73
0
 74
5
  7

 75
16
 76
0
 77
2
 78
300
147
1.0
148
0.0
149
0.0
100
AcDbLayout
  1
Layout1
 70
1
 71
1
 10
0.0
 20
0.0
 11
420.0
 21
297.0
 12
0.0
 22
0.0
 32
0.0
 14
1e+20
 24
1e+20
 34
1e+20
 15
-1e+20
 25
-1e+20
 35
-1e+20
146
0.0
 13
0.0
 23
0.0
 33
0.0
 16
1.0
 26
0.0
 36
0.0
 17
0.0
 27
1.0
 37
0.0
 76
1
330
1B
  0
MATERIAL
  5
1F
102
{ACAD_REACTORS
330
E
102
}
330
E
100
AcDbMaterial
  1
ByBlock
  2

 70
0
 40
1.0
 71
1
 41
1.0
 91
-1023410177
 42
1.0
 72
1
  3

 73
1
 74
1
 75
1
 44
0.5
 73
0
 45
1.0
 46
1.0
 77
1
  4

 78
1
 79
1
170
1
 48
1.0
171
1
  6

172
1
173
1
174
1
140
1.0
141
1.0
175
1
  7

176
1
177
1
178
1
143
1.0
179
1
  8

270
1
271
1
272
1
145
1.0
146
1.0
273
1
  9

274
1
275
1
276
1
 42
1.0
 72
1
  3

 73
1
 74
1
 75
1
 94
63
  0
MATERIAL
  5
20
102
{ACAD_REACTORS
330
E
102
}
330
E
100
AcDbMaterial
  1
ByLayer
  2

 70
0
 40
1.0
 71
1
 41
1.0
 91
-1023410177
 42
1.0
 72
1
  3

 73
1
 74
1
 75
1
 44
0.5
 73
0
 45
1.0
 46
1.0
 77
1
  4

 78
1
 79
1
170
1
 48
1.0
171
1
  6

172
1
173
1
174
1
140
1.0
141
1.0
175
1
  7

176
1
177
1
178
1
143
1.0
179
1
  8

270
1
271
1
272
1
145
1.0
146
1.0
273
1
  9

274
1
275
1
276
1
 42
1.0
 72
1
  3

 73
1
 74
1
 75
1
 94
63
  0
MATERIAL
  5
21
102
{ACAD_REACTORS
330
E
102
}
330
E
100
AcDbMaterial
  1
Global
  2

 70
0
 40
1.0
 71
1
 41
1.0
 91
-1023410177
 42
1.0
 72
1
  3

 73
1
 74
1
 75
1
 44
0.5
 73
0
 45
1.0
 46
1.0
 77
1
  4

 78
1
 79
1
170
1
 48
1.0
171
1
  6

172
1
173
1
174
1
140
1.0
141
1.0
175
1
  7

176
1
177
1
178
1
143
1.0
179
1
  8

270
1
271
1
272
1
145
1.0
146
1.0
273
1
  9

274
1
275
1
276
1
 42
1.0
 72
1
  3

 73
1
 74
1
 75
1
 94
63
  0
MLINESTYLE
  5
22
102
{ACAD_REACTORS
330
10
102
}
330
10
100
AcDbMlineStyle
  2
Standard
 70
0
  3

 62
256
 51
90.0
 52
90.0
 71
2
 49
0.5
 62
256
  6
BYLAYER
 49
-0.5
 62
256
  6
BYLAYER
  0
MLEADERSTYLE
  5
2C
102
{ACAD_REACTORS
330
F
102
}
330
F
100
AcDbMLeaderStyle
179
2
170
2
171
1
172
0
 90
2
 40
0.0
 41
0.0
173
1
 91
-1056964608
 92
-2
290
1
 42
2.0
291
1
 43
8.0
  3
Standard
 44
4.0
300

342
29
174
1
175
1
176
0
178
1
 93
-1056964608
 45
4.0
292
0
297
0
 46
4.0
 94
-1056964608
 47
1.0
 49
1.0
140
1.0
294
1
141
0.0
177
0
142
1.0
295
0
296
0
143
3.75
271
0
272
9
273
9
  0
DICTIONARY
  5
2D
330
A
100
AcDbDictionary
280
1
281
1
  3
CREATED_BY_EZDXF
350
2E
  3
WRITTEN_BY_EZDXF
350
1DE
  0
DICTIONARYVAR
  5
2E
330
2D
100
DictionaryVariables
280
0
  1
1.4.3 @ 2026-04-21T08:13:46.434310+00:00
  0
RASTERVARIABLES
  5
180
102
{ACAD_REACTORS
330
A
102
}
330
A
100
AcDbRasterVariables
 90
0
 70
0
 71
1
 72
3
  0
DICTIONARY
  5
181
330
A
100
AcDbDictionary
281
1
  3
/home/red1/bim-compiler/2D_Layout/python/../input/jkr.png
350
182
  0
IMAGEDEF
  5
182
102
{ACAD_REACTORS
330
181
330
184
102
}
330
181
100
AcDbRasterImageDef
 90
0
  1
/home/red1/bim-compiler/2D_Layout/python/../input/jkr.png
 10
890.0
 20
652.0
 11
0.01
 21
0.01
280
1
281
0
  0
IMAGEDEF_REACTOR
  5
184
330
183
100
AcDbRasterImageDefReactor
 90
2
330
183
  0
DICTIONARYVAR
  5
1DE
330
2D
100
DictionaryVariables
280
0
  1
1.4.3 @ 2026-04-21T08:13:46.563013+00:00
  0
ENDSEC
  0
EOF
