  0
SECTION
  2
HEADER
  9
$ACADVER
  1
AC1024
  9
$ACADMAINTVER
 70
6
  9
$DWGCODEPAGE
  3
ANSI_1252
  9
$LASTSAVEDBY
  1
ezdxf
  9
$INSBASE
 10
0.0
 20
0.0
 30
0.0
  9
$EXTMIN
 10
1e+20
 20
1e+20
 30
1e+20
  9
$EXTMAX
 10
-1e+20
 20
-1e+20
 30
-1e+20
  9
$LIMMIN
 10
0.0
 20
0.0
  9
$LIMMAX
 10
420.0
 20
297.0
  9
$ORTHOMODE
 70
0
  9
$REGENMODE
 70
1
  9
$FILLMODE
 70
1
  9
$QTEXTMODE
 70
0
  9
$MIRRTEXT
 70
1
  9
$LTSCALE
 40
1.0
  9
$ATTMODE
 70
1
  9
$TEXTSIZE
 40
2.5
  9
$TRACEWID
 40
1.0
  9
$TEXTSTYLE
  7
Standard
  9
$CLAYER
  8
0
  9
$CELTYPE
  6
ByLayer
  9
$CECOLOR
 62
256
  9
$CELTSCALE
 40
1.0
  9
$DISPSILH
 70
0
  9
$DIMSCALE
 40
1.0
  9
$DIMASZ
 40
2.5
  9
$DIMEXO
 40
0.625
  9
$DIMDLI
 40
3.75
  9
$DIMRND
 40
0.0
  9
$DIMDLE
 40
0.0
  9
$DIMEXE
 40
1.25
  9
$DIMTP
 40
0.0
  9
$DIMTM
 40
0.0
  9
$DIMTXT
 40
2.5
  9
$DIMCEN
 40
2.5
  9
$DIMTSZ
 40
0.0
  9
$DIMTOL
 70
0
  9
$DIMLIM
 70
0
  9
$DIMTIH
 70
0
  9
$DIMTOH
 70
0
  9
$DIMSE1
 70
0
  9
$DIMSE2
 70
0
  9
$DIMTAD
 70
1
  9
$DIMZIN
 70
8
  9
$DIMBLK
  1

  9
$DIMASO
 70
1
  9
$DIMSHO
 70
1
  9
$DIMPOST
  1

  9
$DIMAPOST
  1

  9
$DIMALT
 70
0
  9
$DIMALTD
 70
3
  9
$DIMALTF
 40
0.03937007874
  9
$DIMLFAC
 40
1.0
  9
$DIMTOFL
 70
1
  9
$DIMTVP
 40
0.0
  9
$DIMTIX
 70
0
  9
$DIMSOXD
 70
0
  9
$DIMSAH
 70
0
  9
$DIMBLK1
  1

  9
$DIMBLK2
  1

  9
$DIMSTYLE
  2
ISO-25
  9
$DIMCLRD
 70
0
  9
$DIMCLRE
 70
0
  9
$DIMCLRT
 70
0
  9
$DIMTFAC
 40
1.0
  9
$DIMGAP
 40
0.625
  9
$DIMJUST
 70
0
  9
$DIMSD1
 70
0
  9
$DIMSD2
 70
0
  9
$DIMTOLJ
 70
0
  9
$DIMTZIN
 70
8
  9
$DIMALTZ
 70
0
  9
$DIMALTTZ
 70
0
  9
$DIMUPT
 70
0
  9
$DIMDEC
 70
2
  9
$DIMTDEC
 70
2
  9
$DIMALTU
 70
2
  9
$DIMALTTD
 70
3
  9
$DIMTXSTY
  7
Standard
  9
$DIMAUNIT
 70
0
  9
$DIMADEC
 70
0
  9
$DIMALTRND
 40
0.0
  9
$DIMAZIN
 70
0
  9
$DIMDSEP
 70
44
  9
$DIMATFIT
 70
3
  9
$DIMFRAC
 70
0
  9
$DIMLDRBLK
  1

  9
$DIMLUNIT
 70
2
  9
$DIMLWD
 70
-2
  9
$DIMLWE
 70
-2
  9
$DIMTMOVE
 70
0
  9
$DIMFXL
 40
1.0
  9
$DIMFXLON
 70
0
  9
$DIMJOGANG
 40
0.785398163397
  9
$DIMTFILL
 70
0
  9
$DIMTFILLCLR
 70
0
  9
$DIMARCSYM
 70
0
  9
$DIMLTYPE
  6

  9
$DIMLTEX1
  6

  9
$DIMLTEX2
  6

  9
$DIMTXTDIRECTION
 70
0
  9
$LUNITS
 70
2
  9
$LUPREC
 70
4
  9
$SKETCHINC
 40
1.0
  9
$FILLETRAD
 40
10.0
  9
$AUNITS
 70
0
  9
$AUPREC
 70
2
  9
$MENU
  1
.
  9
$ELEVATION
 40
0.0
  9
$PELEVATION
 40
0.0
  9
$THICKNESS
 40
0.0
  9
$LIMCHECK
 70
0
  9
$CHAMFERA
 40
0.0
  9
$CHAMFERB
 40
0.0
  9
$CHAMFERC
 40
0.0
  9
$CHAMFERD
 40
0.0
  9
$SKPOLY
 70
0
  9
$TDCREATE
 40
2461152.676226852
  9
$TDUCREATE
 40
2458532.153996898
  9
$TDUPDATE
 40
2461152.676226852
  9
$TDUUPDATE
 40
2458532.1544311
  9
$TDINDWG
 40
0.0
  9
$TDUSRTIMER
 40
0.0
  9
$USRTIMER
 70
1
  9
$ANGBASE
 50
0.0
  9
$ANGDIR
 70
0
  9
$PDMODE
 70
0
  9
$PDSIZE
 40
0.0
  9
$PLINEWID
 40
0.0
  9
$SPLFRAME
 70
0
  9
$SPLINETYPE
 70
6
  9
$SPLINESEGS
 70
8
  9
$HANDSEED
  5
12F
  9
$SURFTAB1
 70
6
  9
$SURFTAB2
 70
6
  9
$SURFTYPE
 70
6
  9
$SURFU
 70
6
  9
$SURFV
 70
6
  9
$UCSBASE
  2

  9
$UCSNAME
  2

  9
$UCSORG
 10
0.0
 20
0.0
 30
0.0
  9
$UCSXDIR
 10
1.0
 20
0.0
 30
0.0
  9
$UCSYDIR
 10
0.0
 20
1.0
 30
0.0
  9
$UCSORTHOREF
  2

  9
$UCSORTHOVIEW
 70
0
  9
$UCSORGTOP
 10
0.0
 20
0.0
 30
0.0
  9
$UCSORGBOTTOM
 10
0.0
 20
0.0
 30
0.0
  9
$UCSORGLEFT
 10
0.0
 20
0.0
 30
0.0
  9
$UCSORGRIGHT
 10
0.0
 20
0.0
 30
0.0
  9
$UCSORGFRONT
 10
0.0
 20
0.0
 30
0.0
  9
$UCSORGBACK
 10
0.0
 20
0.0
 30
0.0
  9
$PUCSBASE
  2

  9
$PUCSNAME
  2

  9
$PUCSORG
 10
0.0
 20
0.0
 30
0.0
  9
$PUCSXDIR
 10
1.0
 20
0.0
 30
0.0
  9
$PUCSYDIR
 10
0.0
 20
1.0
 30
0.0
  9
$PUCSORTHOREF
  2

  9
$PUCSORTHOVIEW
 70
0
  9
$PUCSORGTOP
 10
0.0
 20
0.0
 30
0.0
  9
$PUCSORGBOTTOM
 10
0.0
 20
0.0
 30
0.0
  9
$PUCSORGLEFT
 10
0.0
 20
0.0
 30
0.0
  9
$PUCSORGRIGHT
 10
0.0
 20
0.0
 30
0.0
  9
$PUCSORGFRONT
 10
0.0
 20
0.0
 30
0.0
  9
$PUCSORGBACK
 10
0.0
 20
0.0
 30
0.0
  9
$USERI1
 70
0
  9
$USERI2
 70
0
  9
$USERI3
 70
0
  9
$USERI4
 70
0
  9
$USERI5
 70
0
  9
$USERR1
 40
0.0
  9
$USERR2
 40
0.0
  9
$USERR3
 40
0.0
  9
$USERR4
 40
0.0
  9
$USERR5
 40
0.0
  9
$WORLDVIEW
 70
1
  9
$SHADEDGE
 70
3
  9
$SHADEDIF
 70
70
  9
$TILEMODE
 70
1
  9
$MAXACTVP
 70
64
  9
$PINSBASE
 10
0.0
 20
0.0
 30
0.0
  9
$PLIMCHECK
 70
0
  9
$PEXTMIN
 10
1e+20
 20
1e+20
 30
1e+20
  9
$PEXTMAX
 10
-1e+20
 20
-1e+20
 30
-1e+20
  9
$PLIMMIN
 10
0.0
 20
0.0
  9
$PLIMMAX
 10
420.0
 20
297.0
  9
$UNITMODE
 70
0
  9
$VISRETAIN
 70
1
  9
$PLINEGEN
 70
0
  9
$PSLTSCALE
 70
1
  9
$TREEDEPTH
 70
3020
  9
$CMLSTYLE
  2
Standard
  9
$CMLJUST
 70
0
  9
$CMLSCALE
 40
20.0
  9
$PROXYGRAPHICS
 70
1
  9
$MEASUREMENT
 70
1
  9
$CELWEIGHT
370
-1
  9
$ENDCAPS
280
0
  9
$JOINSTYLE
280
0
  9
$LWDISPLAY
290
0
  9
$INSUNITS
 70
4
  9
$HYPERLINKBASE
  1

  9
$STYLESHEET
  1

  9
$XEDIT
290
1
  9
$CEPSNTYPE
380
0
  9
$PSTYLEMODE
290
1
  9
$FINGERPRINTGUID
  2
{63BEA0ED-F1E2-470B-B93E-75C5BF4DA442}
  9
$VERSIONGUID
  2
{C255EBD7-9687-40DD-95A4-DF894C38D10E}
  9
$EXTNAMES
290
1
  9
$PSVPSCALE
 40
0.0
  9
$OLESTARTUP
290
0
  9
$SORTENTS
280
127
  9
$INDEXCTL
280
0
  9
$HIDETEXT
280
1
  9
$XCLIPFRAME
280
1
  9
$HALOGAP
280
0
  9
$OBSCOLOR
 70
257
  9
$OBSLTYPE
280
0
  9
$INTERSECTIONDISPLAY
280
0
  9
$INTERSECTIONCOLOR
 70
257
  9
$DIMASSOC
280
2
  9
$PROJECTNAME
  1

  9
$CAMERADISPLAY
290
0
  9
$LENSLENGTH
 40
50.0
  9
$CAMERAHEIGHT
 40
0.0
  9
$STEPSPERSEC
 40
24.0
  9
$STEPSIZE
 40
100.0
  9
$3DDWFPREC
 40
2.0
  9
$PSOLWIDTH
 40
0.005
  9
$PSOLHEIGHT
 40
0.08
  9
$LOFTANG1
 40
1.570796326795
  9
$LOFTANG2
 40
1.570796326795
  9
$LOFTMAG1
 40
0.0
  9
$LOFTMAG2
 40
0.0
  9
$LOFTPARAM
 70
7
  9
$LOFTNORMALS
280
1
  9
$LATITUDE
 40
37.795
  9
$LONGITUDE
 40
-122.394
  9
$NORTHDIRECTION
 40
0.0
  9
$TIMEZONE
 70
-8000
  9
$LIGHTGLYPHDISPLAY
280
1
  9
$TILEMODELIGHTSYNCH
280
1
  9
$CMATERIAL
347
20
  9
$SOLIDHIST
280
0
  9
$SHOWHIST
280
1
  9
$DWFFRAME
280
2
  9
$DGNFRAME
280
2
  9
$REALWORLDSCALE
290
1
  9
$INTERFERECOLOR
 62
256
  9
$CSHADOW
280
0
  9
$SHADOWPLANELOCATION
 40
0.0
  0
ENDSEC
  0
SECTION
  2
CLASSES
  0
CLASS
  1
ACDBDICTIONARYWDFLT
  2
AcDbDictionaryWithDefault
  3
ObjectDBX Classes
 90
0
 91
0
280
0
281
0
  0
CLASS
  1
SUN
  2
AcDbSun
  3
SCENEOE
 90
1153
 91
0
280
0
281
0
  0
CLASS
  1
VISUALSTYLE
  2
AcDbVisualStyle
  3
ObjectDBX Classes
 90
4095
 91
0
280
0
281
0
  0
CLASS
  1
MATERIAL
  2
AcDbMaterial
  3
ObjectDBX Classes
 90
1153
 91
0
280
0
281
0
  0
CLASS
  1
SCALE
  2
AcDbScale
  3
ObjectDBX Classes
 90
1153
 91
0
280
0
281
0
  0
CLASS
  1
TABLESTYLE
  2
AcDbTableStyle
  3
ObjectDBX Classes
 90
4095
 91
0
280
0
281
0
  0
CLASS
  1
MLEADERSTYLE
  2
AcDbMLeaderStyle
  3
ACDB_MLEADERSTYLE_CLASS
 90
4095
 91
0
280
0
281
0
  0
CLASS
  1
DICTIONARYVAR
  2
AcDbDictionaryVar
  3
ObjectDBX Classes
 90
0
 91
0
280
0
281
0
  0
CLASS
  1
CELLSTYLEMAP
  2
AcDbCellStyleMap
  3
ObjectDBX Classes
 90
1152
 91
0
280
0
281
0
  0
CLASS
  1
MENTALRAYRENDERSETTINGS
  2
AcDbMentalRayRenderSettings
  3
SCENEOE
 90
1024
 91
0
280
0
281
0
  0
CLASS
  1
ACDBDETAILVIEWSTYLE
  2
AcDbDetailViewStyle
  3
ObjectDBX Classes
 90
1025
 91
0
280
0
281
0
  0
CLASS
  1
ACDBSECTIONVIEWSTYLE
  2
AcDbSectionViewStyle
  3
ObjectDBX Classes
 90
1025
 91
0
280
0
281
0
  0
CLASS
  1
RASTERVARIABLES
  2
AcDbRasterVariables
  3
ISM
 90
0
 91
0
280
0
281
0
  0
CLASS
  1
IMAGE
  2
AcDbRasterImage
  3
ISM
 90
2175
 91
0
280
0
281
1
  0
CLASS
  1
IMAGEDEF
  2
AcDbRasterImageDef
  3
ISM
 90
0
 91
0
280
0
281
0
  0
CLASS
  1
IMAGEDEF_REACTOR
  2
AcDbRasterImageDefReactor
  3
ISM
 90
1
 91
0
280
0
281
0
  0
CLASS
  1
LAYOUT
  2
AcDbLayout
  3
ObjectDBX Classes
 90
0
 91
0
280
0
281
0
  0
CLASS
  1
ACDBPLACEHOLDER
  2
AcDbPlaceHolder
  3
ObjectDBX Classes
 90
0
 91
0
280
0
281
0
  0
ENDSEC
  0
SECTION
  2
TABLES
  0
TABLE
  2
VPORT
  5
8
330
0
100
AcDbSymbolTable
 70
1
  0
VPORT
  5
23
330
8
100
AcDbSymbolTableRecord
100
AcDbViewportTableRecord
  2
*Active
 70
0
 10
0.0
 20
0.0
 11
1.0
 21
1.0
 12
0.0
 22
0.0
 13
0.0
 23
0.0
 14
0.5
 24
0.5
 15
0.5
 25
0.5
 16
0.0
 26
0.0
 36
1.0
 17
0.0
 27
0.0
 37
0.0
 40
1000.0
 41
1.34
 42
50.0
 43
0.0
 44
0.0
 50
0.0
 51
0.0
 71
0
 72
1000
 73
1
 74
3
 75
0
 76
0
 77
0
 78
0
281
0
 65
0
146
0.0
  0
ENDTAB
  0
TABLE
  2
LTYPE
  5
2
330
0
100
AcDbSymbolTable
 70
6
  0
LTYPE
  5
24
330
2
100
AcDbSymbolTableRecord
100
AcDbLinetypeTableRecord
  2
ByBlock
 70
0
  3

 72
65
 73
0
 40
0.0
  0
LTYPE
  5
25
330
2
100
AcDbSymbolTableRecord
100
AcDbLinetypeTableRecord
  2
ByLayer
 70
0
  3

 72
65
 73
0
 40
0.0
  0
LTYPE
  5
26
330
2
100
AcDbSymbolTableRecord
100
AcDbLinetypeTableRecord
  2
Continuous
 70
0
  3

 72
65
 73
0
 40
0.0
  0
LTYPE
  5
2F
330
2
100
AcDbSymbolTableRecord
100
AcDbLinetypeTableRecord
  2
CENTER
 70
0
  3
Center __ . __ . __
 72
65
 73
4
 40
1.2
 49
0.8
 74
0
 49
-0.2
 74
0
 49
0.0
 74
0
 49
-0.2
 74
0
  0
LTYPE
  5
30
330
2
100
AcDbSymbolTableRecord
100
AcDbLinetypeTableRecord
  2
HIDDEN
 70
0
  3
Hidden -- -- -- --
 72
65
 73
2
 40
0.6
 49
0.4
 74
0
 49
-0.2
 74
0
  0
LTYPE
  5
31
330
2
100
AcDbSymbolTableRecord
100
AcDbLinetypeTableRecord
  2
DASHDOT
 70
0
  3
Dash dot __.__.__
 72
65
 73
4
 40
0.6
 49
0.4
 74
0
 49
-0.2
 74
0
 49
0.0
 74
0
 49
-0.2
 74
0
  0
ENDTAB
  0
TABLE
  2
LAYER
  5
1
330
0
100
AcDbSymbolTable
 70
17
  0
LAYER
  5
27
330
1
100
AcDbSymbolTableRecord
100
AcDbLayerTableRecord
  2
0
 70
0
 62
7
  6
Continuous
370
-3
390
13
347
21
  0
LAYER
  5
28
330
1
100
AcDbSymbolTableRecord
100
AcDbLayerTableRecord
  2
Defpoints
 70
0
 62
7
  6
Continuous
290
0
370
-3
390
13
347
21
  0
LAYER
  5
32
330
1
100
AcDbSymbolTableRecord
100
AcDbLayerTableRecord
  2
A-WALL-FULL
 70
0
 62
7
  6
Continuous
370
-3
390
13
347
21
  0
LAYER
  5
33
330
1
100
AcDbSymbolTableRecord
100
AcDbLayerTableRecord
  2
A-WALL-PRTN
 70
0
 62
7
  6
Continuous
370
-3
390
13
347
21
  0
LAYER
  5
34
330
1
100
AcDbSymbolTableRecord
100
AcDbLayerTableRecord
  2
A-WALL-PATT
 70
0
 62
254
  6
Continuous
370
-3
390
13
347
21
  0
LAYER
  5
35
330
1
100
AcDbSymbolTableRecord
100
AcDbLayerTableRecord
  2
A-GLAZ
 70
0
 62
5
  6
Continuous
370
-3
390
13
347
21
  0
LAYER
  5
36
330
1
100
AcDbSymbolTableRecord
100
AcDbLayerTableRecord
  2
A-DOOR
 70
0
 62
7
  6
Continuous
370
-3
390
13
347
21
  0
LAYER
  5
37
330
1
100
AcDbSymbolTableRecord
100
AcDbLayerTableRecord
  2
A-ROOF
 70
0
 62
7
  6
Continuous
370
-3
390
13
347
21
  0
LAYER
  5
38
330
1
100
AcDbSymbolTableRecord
100
AcDbLayerTableRecord
  2
A-GRID
 70
0
 62
8
  6
DASHDOT
370
-3
390
13
347
21
  0
LAYER
  5
39
330
1
100
AcDbSymbolTableRecord
100
AcDbLayerTableRecord
  2
A-ANNO-DIMS
 70
0
 62
7
  6
Continuous
370
-3
390
13
347
21
  0
LAYER
  5
3A
330
1
100
AcDbSymbolTableRecord
100
AcDbLayerTableRecord
  2
A-ANNO-TEXT
 70
0
 62
7
  6
Continuous
370
-3
390
13
347
21
  0
LAYER
  5
3B
330
1
100
AcDbSymbolTableRecord
100
AcDbLayerTableRecord
  2
A-FURN
 70
0
 62
9
  6
Continuous
370
-3
390
13
347
21
  0
LAYER
  5
3C
330
1
100
AcDbSymbolTableRecord
100
AcDbLayerTableRecord
  2
A-ELEV-WALL
 70
0
 62
7
  6
Continuous
370
-3
390
13
347
21
  0
LAYER
  5
3D
330
1
100
AcDbSymbolTableRecord
100
AcDbLayerTableRecord
  2
A-ELEV-LEVL
 70
0
 62
7
  6
Continuous
370
-3
390
13
347
21
  0
LAYER
  5
3E
330
1
100
AcDbSymbolTableRecord
100
AcDbLayerTableRecord
  2
A-TTLB
 70
0
 62
7
  6
Continuous
370
-3
390
13
347
21
  0
LAYER
  5
3F
330
1
100
AcDbSymbolTableRecord
100
AcDbLayerTableRecord
  2
A-ANNO-LEVL
 70
0
 62
7
  6
Continuous
370
-3
390
13
347
21
  0
LAYER
  5
40
330
1
100
AcDbSymbolTableRecord
100
AcDbLayerTableRecord
  2
A-ANNO-SECT
 70
0
 62
7
  6
HIDDEN
370
-3
390
13
347
21
  0
ENDTAB
  0
TABLE
  2
STYLE
  5
5
330
0
100
AcDbSymbolTable
 70
1
  0
STYLE
  5
29
330
5
100
AcDbSymbolTableRecord
100
AcDbTextStyleTableRecord
  2
Standard
 70
0
 40
0.0
 41
1.0
 50
0.0
 71
0
 42
2.5
  3
txt
  4

  0
ENDTAB
  0
TABLE
  2
VIEW
  5
7
330
0
100
AcDbSymbolTable
 70
0
  0
ENDTAB
  0
TABLE
  2
UCS
  5
6
330
0
100
AcDbSymbolTable
 70
0
  0
ENDTAB
  0
TABLE
  2
APPID
  5
3
330
0
100
AcDbSymbolTable
 70
3
  0
APPID
  5
2A
330
3
100
AcDbSymbolTableRecord
100
AcDbRegAppTableRecord
  2
ACAD
 70
0
  0
APPID
  5
12C
330
3
100
AcDbSymbolTableRecord
100
AcDbRegAppTableRecord
  2
HATCHBACKGROUNDCOLOR
 70
0
  0
APPID
  5
12D
330
3
100
AcDbSymbolTableRecord
100
AcDbRegAppTableRecord
  2
EZDXF
 70
0
  0
ENDTAB
  0
TABLE
  2
DIMSTYLE
  5
4
330
0
100
AcDbSymbolTable
 70
2
100
AcDbDimStyleTable
  0
DIMSTYLE
105
2B
330
4
100
AcDbSymbolTableRecord
100
AcDbDimStyleTableRecord
  2
Standard
 70
0
 40
1.0
 41
2.5
 42
0.625
 43
3.75
 44
1.25
 45
0.0
 46
0.0
 47
0.0
 48
0.0
 49
2.5
140
2.5
141
2.5
142
0.0
143
0.03937007874
144
1.0
145
0.0
146
1.0
147
0.625
148
0.0
 69
0
 70
0
 71
0
 72
0
 73
0
 74
0
 75
0
 76
0
 77
1
 78
8
 79
3
170
0
171
3
172
1
173
0
174
0
175
0
176
0
177
0
178
0
179
2
271
2
272
2
273
2
274
3
275
0
276
0
277
2
278
44
279
0
280
0
281
0
282
0
283
0
284
8
285
0
286
0
288
0
289
3
290
0
371
-2
372
-2
  0
DIMSTYLE
105
45
330
4
100
AcDbSymbolTableRecord
100
AcDbDimStyleTableRecord
  2
ARCH_JKR
 70
0
 40
100.0
 41
2.5
 42
2.0
 43
3.75
 44
2.0
 45
0.0
 46
0.0
 47
0.0
 48
0.0
 49
2.5
140
2.5
141
2.5
142
0.0
143
0.03937007874
144
1.0
145
0.0
146
1.0
147
1.0
148
0.0
 69
0
 70
0
 71
0
 72
0
 73
0
 74
0
 75
0
 76
0
 77
1
 78
8
 79
3
170
0
171
3
172
1
173
0
174
0
175
0
176
0
177
0
178
0
179
2
271
2
272
2
273
2
274
3
275
0
276
0
277
2
278
44
279
0
280
0
281
0
282
0
283
0
284
8
285
0
286
0
288
0
289
3
290
0
342
41
371
-2
372
-2
  0
ENDTAB
  0
TABLE
  2
BLOCK_RECORD
  5
9
330
0
100
AcDbSymbolTable
 70
7
  0
BLOCK_RECORD
  5
17
330
9
100
AcDbSymbolTableRecord
100
AcDbBlockTableRecord
  2
*Model_Space
340
1A
 70
0
280
1
281
0
  0
BLOCK_RECORD
  5
1B
330
9
100
AcDbSymbolTableRecord
100
AcDbBlockTableRecord
  2
*Paper_Space
340
1E
 70
0
280
1
281
0
  0
BLOCK_RECORD
  5
41
330
9
100
AcDbSymbolTableRecord
100
AcDbBlockTableRecord
  2
_ARCHTICK
340
0
 70
0
280
1
281
0
  0
BLOCK_RECORD
  5
46
330
9
100
AcDbSymbolTableRecord
100
AcDbBlockTableRecord
  2
DOOR_TAG
340
0
 70
0
280
1
281
0
  0
BLOCK_RECORD
  5
4B
330
9
100
AcDbSymbolTableRecord
100
AcDbBlockTableRecord
  2
WINDOW_TAG
340
0
 70
0
280
1
281
0
  0
BLOCK_RECORD
  5
4F
330
9
100
AcDbSymbolTableRecord
100
AcDbBlockTableRecord
  2
SECTION_ARROW
340
0
 70
0
280
1
281
0
  0
BLOCK_RECORD
  5
53
330
9
100
AcDbSymbolTableRecord
100
AcDbBlockTableRecord
  2
ELEVATION_TAG
340
0
 70
0
280
1
281
0
  0
ENDTAB
  0
ENDSEC
  0
SECTION
  2
BLOCKS
  0
BLOCK
  5
18
330
17
100
AcDbEntity
  8
0
100
AcDbBlockBegin
  2
*Model_Space
 70
0
 10
0.0
 20
0.0
 30
0.0
  3
*Model_Space
  1

  0
ENDBLK
  5
19
330
17
100
AcDbEntity
  8
0
100
AcDbBlockEnd
  0
BLOCK
  5
1C
330
1B
100
AcDbEntity
  8
0
100
AcDbBlockBegin
  2
*Paper_Space
 70
0
 10
0.0
 20
0.0
 30
0.0
  3
*Paper_Space
  1

  0
ENDBLK
  5
1D
330
1B
100
AcDbEntity
  8
0
100
AcDbBlockEnd
  0
BLOCK
  5
42
330
41
100
AcDbEntity
  8
0
100
AcDbBlockBegin
  2
_ARCHTICK
 70
0
 10
0.0
 20
0.0
 30
0.0
  3
_ARCHTICK
  1

  0
LWPOLYLINE
  5
44
330
41
100
AcDbEntity
  8
0
  6
BYBLOCK
 62
0
100
AcDbPolyline
 90
2
 70
0
 43
0.15
 10
-0.5
 20
-0.5
 10
0.5
 20
0.5
  0
ENDBLK
  5
43
330
41
100
AcDbEntity
  8
0
100
AcDbBlockEnd
  0
BLOCK
  5
47
330
46
100
AcDbEntity
  8
0
100
AcDbBlockBegin
  2
DOOR_TAG
 70
0
 10
0.0
 20
0.0
 30
0.0
  3
DOOR_TAG
  1

  0
CIRCLE
  5
49
330
46
100
AcDbEntity
  8
0
370
25
100
AcDbCircle
 10
0.0
 20
0.0
 30
0.0
 40
1.0
  0
LINE
  5
4A
330
46
100
AcDbEntity
  8
0
370
25
100
AcDbLine
 10
-1.0
 20
0.0
 30
0.0
 11
1.0
 21
0.0
 31
0.0
  0
ENDBLK
  5
48
330
46
100
AcDbEntity
  8
0
100
AcDbBlockEnd
  0
BLOCK
  5
4C
330
4B
100
AcDbEntity
  8
0
100
AcDbBlockBegin
  2
WINDOW_TAG
 70
0
 10
0.0
 20
0.0
 30
0.0
  3
WINDOW_TAG
  1

  0
LWPOLYLINE
  5
4E
330
4B
100
AcDbEntity
  8
0
370
25
100
AcDbPolyline
 90
6
 70
1
 10
0.8660254037844387
 20
0.49999999999999994
 10
6.123233995736766e-17
 20
1.0
 10
-0.8660254037844387
 20
0.49999999999999994
 10
-0.8660254037844386
 20
-0.5000000000000001
 10
-1.8369701987210297e-16
 20
-1.0
 10
0.8660254037844384
 20
-0.5000000000000004
  0
ENDBLK
  5
4D
330
4B
100
AcDbEntity
  8
0
100
AcDbBlockEnd
  0
BLOCK
  5
50
330
4F
100
AcDbEntity
  8
0
100
AcDbBlockBegin
  2
SECTION_ARROW
 70
0
 10
0.0
 20
0.0
 30
0.0
  3
SECTION_ARROW
  1

  0
LWPOLYLINE
  5
52
330
4F
100
AcDbEntity
  8
0
370
25
100
AcDbPolyline
 90
3
 70
1
 10
-1.0
 20
0.0
 10
0.0
 20
1.414
 10
1.0
 20
0.0
  0
ENDBLK
  5
51
330
4F
100
AcDbEntity
  8
0
100
AcDbBlockEnd
  0
BLOCK
  5
54
330
53
100
AcDbEntity
  8
0
100
AcDbBlockBegin
  2
ELEVATION_TAG
 70
0
 10
0.0
 20
0.0
 30
0.0
  3
ELEVATION_TAG
  1

  0
CIRCLE
  5
56
330
53
100
AcDbEntity
  8
0
370
25
100
AcDbCircle
 10
0.0
 20
0.0
 30
0.0
 40
1.0
  0
LINE
  5
57
330
53
100
AcDbEntity
  8
0
370
25
100
AcDbLine
 10
-1.0
 20
0.0
 30
0.0
 11
1.0
 21
0.0
 31
0.0
  0
ENDBLK
  5
55
330
53
100
AcDbEntity
  8
0
100
AcDbBlockEnd
  0
ENDSEC
  0
SECTION
  2
ENTITIES
  0
LWPOLYLINE
  5
58
330
17
100
AcDbEntity
  8
A-ELEV-WALL
370
50
100
AcDbPolyline
 90
4
 70
1
 10
8382.999420166016
 20
0.0
 10
8800.000190734863
 20
0.0
 10
8800.000190734863
 20
3100.0003814697266
 10
8382.999420166016
 20
3100.0003814697266
  0
LWPOLYLINE
  5
59
330
17
100
AcDbEntity
  8
A-ELEV-WALL
370
50
100
AcDbPolyline
 90
4
 70
1
 10
-3.552713678800501e-12
 20
0.0
 10
8383.000373840332
 20
0.0
 10
8383.000373840332
 20
3100.0003814697266
 10
-3.552713678800501e-12
 20
3100.0003814697266
  0
LWPOLYLINE
  5
5A
330
17
100
AcDbEntity
  8
A-ELEV-WALL
370
50
100
AcDbPolyline
 90
4
 70
1
 10
-9.992007221626409e-13
 20
0.0
 10
417.00005531311035
 20
0.0
 10
417.00005531311035
 20
3100.0003814697266
 10
-9.992007221626409e-13
 20
3100.0003814697266
  0
LWPOLYLINE
  5
5B
330
17
100
AcDbEntity
  8
A-ELEV-WALL
370
50
100
AcDbPolyline
 90
4
 70
1
 10
8382.999420166016
 20
3099.9999046325684
 10
8800.000190734863
 20
3099.9999046325684
 10
8800.000190734863
 20
6000.000953674316
 10
8382.999420166016
 20
6000.000953674316
  0
LWPOLYLINE
  5
5C
330
17
100
AcDbEntity
  8
A-ELEV-WALL
370
50
100
AcDbPolyline
 90
4
 70
1
 10
0.0
 20
3099.9999046325684
 10
8800.000190734863
 20
3099.9999046325684
 10
8800.000190734863
 20
6000.000953674316
 10
0.0
 20
6000.000953674316
  0
LWPOLYLINE
  5
5D
330
17
100
AcDbEntity
  8
A-ELEV-WALL
370
50
100
AcDbPolyline
 90
4
 70
1
 10
-4.9960036108132044e-12
 20
3099.9999046325684
 10
417.00005531311035
 20
3099.9999046325684
 10
417.00005531311035
 20
6000.000953674316
 10
-4.9960036108132044e-12
 20
6000.000953674316
  0
LWPOLYLINE
  5
5E
330
17
100
AcDbEntity
  8
A-ELEV-WALL
370
50
100
AcDbPolyline
 90
4
 70
1
 10
8382.999420166016
 20
6000.0
 10
8800.000190734863
 20
6000.0
 10
8800.000190734863
 20
6609.000205993652
 10
8382.999420166016
 20
6609.000205993652
  0
LWPOLYLINE
  5
5F
330
17
100
AcDbEntity
  8
A-ELEV-WALL
370
50
100
AcDbPolyline
 90
4
 70
1
 10
-3.552713678800501e-12
 20
6000.0
 10
8383.000373840332
 20
6000.0
 10
8383.000373840332
 20
6609.000205993652
 10
-3.552713678800501e-12
 20
6609.000205993652
  0
LWPOLYLINE
  5
60
330
17
100
AcDbEntity
  8
A-ELEV-WALL
370
50
100
AcDbPolyline
 90
4
 70
1
 10
-9.992007221626409e-13
 20
6000.0
 10
417.00005531311035
 20
6000.0
 10
417.00005531311035
 20
6609.000205993652
 10
-9.992007221626409e-13
 20
6609.000205993652
  0
LWPOLYLINE
  5
61
330
17
100
AcDbEntity
  8
A-ELEV-WALL
370
50
100
AcDbPolyline
 90
4
 70
1
 10
8382.999420166016
 20
-1250.0
 10
8800.000190734863
 20
-1250.0
 10
8800.000190734863
 20
0.0
 10
8382.999420166016
 20
0.0
  0
LWPOLYLINE
  5
62
330
17
100
AcDbEntity
  8
A-ELEV-WALL
370
50
100
AcDbPolyline
 90
4
 70
1
 10
0.0
 20
-1250.0
 10
8383.000373840332
 20
-1250.0
 10
8383.000373840332
 20
0.0
 10
0.0
 20
0.0
  0
LWPOLYLINE
  5
63
330
17
100
AcDbEntity
  8
A-ELEV-WALL
370
50
100
AcDbPolyline
 90
4
 70
1
 10
9.992007221626409e-13
 20
-1250.0
 10
417.00005531311035
 20
-1250.0
 10
417.00005531311035
 20
0.0
 10
9.992007221626409e-13
 20
0.0
  0
LWPOLYLINE
  5
64
330
17
100
AcDbEntity
  8
A-ELEV-WALL
370
50
100
AcDbPolyline
 90
4
 70
1
 10
6199.999809265137
 20
0.0
 10
6324.000835418701
 20
0.0
 10
6324.000835418701
 20
2795.0000762939453
 10
6199.999809265137
 20
2795.0000762939453
  0
LWPOLYLINE
  5
65
330
17
100
AcDbEntity
  8
A-ELEV-WALL
370
50
100
AcDbPolyline
 90
4
 70
1
 10
4125.0
 20
3099.9999046325684
 10
4675.000190734863
 20
3099.9999046325684
 10
4675.000190734863
 20
6000.000953674316
 10
4125.0
 20
6000.000953674316
  0
LWPOLYLINE
  5
66
330
17
100
AcDbEntity
  8
A-DOOR
370
25
100
AcDbPolyline
 90
4
 70
1
 10
8357.999801635742
 20
0.0
 10
8825.000762939453
 20
0.0
 10
8825.000762939453
 20
2086.0002040863037
 10
8357.999801635742
 20
2086.0002040863037
  0
LWPOLYLINE
  5
67
330
17
100
AcDbEntity
  8
A-DOOR
370
25
100
AcDbPolyline
 90
4
 70
1
 10
5275.999546051025
 20
0.0
 10
6241.000175476074
 20
0.0
 10
6241.000175476074
 20
2496.000051498413
 10
5275.999546051025
 20
2496.000051498413
  0
LINE
  5
68
330
17
100
AcDbEntity
  8
A-GLAZ
370
18
100
AcDbLine
 10
7563.999176025391
 20
4278.499921162923
 30
0.0
 11
8383.000373840332
 21
4278.499921162923
 31
0.0
  0
LINE
  5
69
330
17
100
AcDbEntity
  8
A-GLAZ
370
18
100
AcDbLine
 10
7563.999176025391
 20
4531.500021616618
 30
0.0
 11
8383.000373840332
 21
4531.500021616618
 31
0.0
  0
LWPOLYLINE
  5
6A
330
17
100
AcDbEntity
  8
A-GLAZ
370
25
100
AcDbPolyline
 90
4
 70
1
 10
7563.999176025391
 20
4025.4998207092285
 10
8383.000373840332
 20
4025.4998207092285
 10
8383.000373840332
 20
4784.5001220703125
 10
7563.999176025391
 20
4784.5001220703125
  0
LINE
  5
6B
330
17
100
AcDbEntity
  8
A-GLAZ
370
18
100
AcDbLine
 10
4674.999237060547
 20
3467.777411142985
 30
0.0
 11
7475.000858306885
 21
3467.777411142985
 31
0.0
  0
LINE
  5
6C
330
17
100
AcDbEntity
  8
A-GLAZ
370
18
100
AcDbLine
 10
4674.999237060547
 20
3735.5552514394126
 30
0.0
 11
7475.000858306885
 21
3735.5552514394126
 31
0.0
  0
LINE
  5
6D
330
17
100
AcDbEntity
  8
A-GLAZ
370
18
100
AcDbLine
 10
4674.999237060547
 20
4003.33309173584
 30
0.0
 11
7475.000858306885
 21
4003.33309173584
 31
0.0
  0
LINE
  5
6E
330
17
100
AcDbEntity
  8
A-GLAZ
370
18
100
AcDbLine
 10
4674.999237060547
 20
4271.110932032268
 30
0.0
 11
7475.000858306885
 21
4271.110932032268
 31
0.0
  0
LINE
  5
6F
330
17
100
AcDbEntity
  8
A-GLAZ
370
18
100
AcDbLine
 10
4674.999237060547
 20
4538.888772328695
 30
0.0
 11
7475.000858306885
 21
4538.888772328695
 31
0.0
  0
LINE
  5
70
330
17
100
AcDbEntity
  8
A-GLAZ
370
18
100
AcDbLine
 10
4674.999237060547
 20
4806.666612625122
 30
0.0
 11
7475.000858306885
 21
4806.666612625122
 31
0.0
  0
LINE
  5
71
330
17
100
AcDbEntity
  8
A-GLAZ
370
18
100
AcDbLine
 10
4674.999237060547
 20
5074.44445292155
 30
0.0
 11
7475.000858306885
 21
5074.44445292155
 31
0.0
  0
LINE
  5
72
330
17
100
AcDbEntity
  8
A-GLAZ
370
18
100
AcDbLine
 10
4674.999237060547
 20
5342.2222932179775
 30
0.0
 11
7475.000858306885
 21
5342.2222932179775
 31
0.0
  0
LWPOLYLINE
  5
73
330
17
100
AcDbEntity
  8
A-GLAZ
370
25
100
AcDbPolyline
 90
4
 70
1
 10
4674.999237060547
 20
3199.9995708465576
 10
7475.000858306885
 20
3199.9995708465576
 10
7475.000858306885
 20
5610.000133514404
 10
4674.999237060547
 20
5610.000133514404
  0
LINE
  5
74
330
17
100
AcDbEntity
  8
A-GLAZ
370
18
100
AcDbLine
 10
-4.163336342344337e-13
 20
3467.777411142985
 30
0.0
 11
417.00005531311035
 21
3467.777411142985
 31
0.0
  0
LINE
  5
75
330
17
100
AcDbEntity
  8
A-GLAZ
370
18
100
AcDbLine
 10
-4.163336342344337e-13
 20
3735.5552514394126
 30
0.0
 11
417.00005531311035
 21
3735.5552514394126
 31
0.0
  0
LINE
  5
76
330
17
100
AcDbEntity
  8
A-GLAZ
370
18
100
AcDbLine
 10
-4.163336342344337e-13
 20
4003.33309173584
 30
0.0
 11
417.00005531311035
 21
4003.33309173584
 31
0.0
  0
LINE
  5
77
330
17
100
AcDbEntity
  8
A-GLAZ
370
18
100
AcDbLine
 10
-4.163336342344337e-13
 20
4271.110932032268
 30
0.0
 11
417.00005531311035
 21
4271.110932032268
 31
0.0
  0
LINE
  5
78
330
17
100
AcDbEntity
  8
A-GLAZ
370
18
100
AcDbLine
 10
-4.163336342344337e-13
 20
4538.888772328695
 30
0.0
 11
417.00005531311035
 21
4538.888772328695
 31
0.0
  0
LINE
  5
79
330
17
100
AcDbEntity
  8
A-GLAZ
370
18
100
AcDbLine
 10
-4.163336342344337e-13
 20
4806.666612625122
 30
0.0
 11
417.00005531311035
 21
4806.666612625122
 31
0.0
  0
LINE
  5
7A
330
17
100
AcDbEntity
  8
A-GLAZ
370
18
100
AcDbLine
 10
-4.163336342344337e-13
 20
5074.44445292155
 30
0.0
 11
417.00005531311035
 21
5074.44445292155
 31
0.0
  0
LINE
  5
7B
330
17
100
AcDbEntity
  8
A-GLAZ
370
18
100
AcDbLine
 10
-4.163336342344337e-13
 20
5342.2222932179775
 30
0.0
 11
417.00005531311035
 21
5342.2222932179775
 31
0.0
  0
LWPOLYLINE
  5
7C
330
17
100
AcDbEntity
  8
A-GLAZ
370
25
100
AcDbPolyline
 90
4
 70
1
 10
-4.163336342344337e-13
 20
3199.9995708465576
 10
417.00005531311035
 20
3199.9995708465576
 10
417.00005531311035
 20
5610.000133514404
 10
-4.163336342344337e-13
 20
5610.000133514404
  0
LINE
  5
7D
330
17
100
AcDbEntity
  8
A-GLAZ
370
18
100
AcDbLine
 10
416.9999957084656
 20
368.8889013396369
 30
0.0
 11
5252.00080871582
 21
368.8889013396369
 31
0.0
  0
LINE
  5
7E
330
17
100
AcDbEntity
  8
A-GLAZ
370
18
100
AcDbLine
 10
416.9999957084656
 20
637.7778160903189
 30
0.0
 11
5252.00080871582
 21
637.7778160903189
 31
0.0
  0
LINE
  5
7F
330
17
100
AcDbEntity
  8
A-GLAZ
370
18
100
AcDbLine
 10
416.9999957084656
 20
906.6667308410008
 30
0.0
 11
5252.00080871582
 21
906.6667308410008
 31
0.0
  0
LINE
  5
80
330
17
100
AcDbEntity
  8
A-GLAZ
370
18
100
AcDbLine
 10
416.9999957084656
 20
1175.5556455916828
 30
0.0
 11
5252.00080871582
 21
1175.5556455916828
 31
0.0
  0
LINE
  5
81
330
17
100
AcDbEntity
  8
A-GLAZ
370
18
100
AcDbLine
 10
416.9999957084656
 20
1444.4445603423649
 30
0.0
 11
5252.00080871582
 21
1444.4445603423649
 31
0.0
  0
LINE
  5
82
330
17
100
AcDbEntity
  8
A-GLAZ
370
18
100
AcDbLine
 10
416.9999957084656
 20
1713.3334750930467
 30
0.0
 11
5252.00080871582
 21
1713.3334750930467
 31
0.0
  0
LINE
  5
83
330
17
100
AcDbEntity
  8
A-GLAZ
370
18
100
AcDbLine
 10
416.9999957084656
 20
1982.2223898437287
 30
0.0
 11
5252.00080871582
 21
1982.2223898437287
 31
0.0
  0
LINE
  5
84
330
17
100
AcDbEntity
  8
A-GLAZ
370
18
100
AcDbLine
 10
416.9999957084656
 20
2251.1113045944107
 30
0.0
 11
5252.00080871582
 21
2251.1113045944107
 31
0.0
  0
LWPOLYLINE
  5
85
330
17
100
AcDbEntity
  8
A-GLAZ
370
25
100
AcDbPolyline
 90
4
 70
1
 10
416.9999957084656
 20
99.99998658895493
 10
5252.00080871582
 20
99.99998658895493
 10
5252.00080871582
 20
2520.000219345093
 10
416.9999957084656
 20
2520.000219345093
  0
LINE
  5
86
330
17
100
AcDbEntity
  8
A-GLAZ
370
18
100
AcDbLine
 10
7563.999176025391
 20
3452.999750773112
 30
0.0
 11
8383.000373840332
 21
3452.999750773112
 31
0.0
  0
LINE
  5
87
330
17
100
AcDbEntity
  8
A-GLAZ
370
18
100
AcDbLine
 10
7563.999176025391
 20
3705.9999306996665
 30
0.0
 11
8383.000373840332
 21
3705.9999306996665
 31
0.0
  0
LWPOLYLINE
  5
88
330
17
100
AcDbEntity
  8
A-GLAZ
370
25
100
AcDbPolyline
 90
4
 70
1
 10
7563.999176025391
 20
3199.9995708465576
 10
8383.000373840332
 20
3199.9995708465576
 10
8383.000373840332
 20
3959.0001106262207
 10
7563.999176025391
 20
3959.0001106262207
  0
LINE
  5
89
330
17
100
AcDbEntity
  8
A-GLAZ
370
18
100
AcDbLine
 10
7563.999176025391
 20
5103.999932607015
 30
0.0
 11
8383.000373840332
 21
5103.999932607015
 31
0.0
  0
LINE
  5
8A
330
17
100
AcDbEntity
  8
A-GLAZ
370
18
100
AcDbLine
 10
7563.999176025391
 20
5357.00003306071
 30
0.0
 11
8383.000373840332
 21
5357.00003306071
 31
0.0
  0
LWPOLYLINE
  5
8B
330
17
100
AcDbEntity
  8
A-GLAZ
370
25
100
AcDbPolyline
 90
4
 70
1
 10
7563.999176025391
 20
4850.99983215332
 10
8383.000373840332
 20
4850.99983215332
 10
8383.000373840332
 20
5610.000133514404
 10
7563.999176025391
 20
5610.000133514404
  0
INSERT
  5
8C
330
17
100
AcDbEntity
  8
A-ANNO-TEXT
100
AcDbBlockReference
  2
DOOR_TAG
 10
8591.500282287598
 20
1043.0001020431519
 30
0.0
 41
200.0
 42
200.0
  0
TEXT
  5
8E
330
17
100
AcDbEntity
  8
A-ANNO-TEXT
100
AcDbText
 10
8591.500282287598
 20
1043.0001020431519
 30
0.0
 40
200.0
  1
D11
 72
1
 11
8591.500282287598
 21
1043.0001020431519
 31
0.0
100
AcDbText
 73
2
  0
INSERT
  5
8F
330
17
100
AcDbEntity
  8
A-ANNO-TEXT
100
AcDbBlockReference
  2
DOOR_TAG
 10
5758.49986076355
 20
1248.0000257492065
 30
0.0
 41
200.0
 42
200.0
  0
TEXT
  5
91
330
17
100
AcDbEntity
  8
A-ANNO-TEXT
100
AcDbText
 10
5758.49986076355
 20
1248.0000257492065
 30
0.0
 40
200.0
  1
D14
 72
1
 11
5758.49986076355
 21
1248.0000257492065
 31
0.0
100
AcDbText
 73
2
  0
INSERT
  5
92
330
17
100
AcDbEntity
  8
A-ANNO-TEXT
100
AcDbBlockReference
  2
WINDOW_TAG
 10
7973.499774932861
 20
4404.9999713897705
 30
0.0
 41
200.0
 42
200.0
  0
TEXT
  5
94
330
17
100
AcDbEntity
  8
A-ANNO-TEXT
100
AcDbText
 10
7973.499774932861
 20
4404.9999713897705
 30
0.0
 40
200.0
  1
W2
 72
1
 11
7973.499774932861
 21
4404.9999713897705
 31
0.0
100
AcDbText
 73
2
  0
INSERT
  5
95
330
17
100
AcDbEntity
  8
A-ANNO-TEXT
100
AcDbBlockReference
  2
WINDOW_TAG
 10
6075.000047683716
 20
4404.999852180481
 30
0.0
 41
200.0
 42
200.0
  0
TEXT
  5
97
330
17
100
AcDbEntity
  8
A-ANNO-TEXT
100
AcDbText
 10
6075.000047683716
 20
4404.999852180481
 30
0.0
 40
200.0
  1
W6
 72
1
 11
6075.000047683716
 21
4404.999852180481
 31
0.0
100
AcDbText
 73
2
  0
INSERT
  5
98
330
17
100
AcDbEntity
  8
A-ANNO-TEXT
100
AcDbBlockReference
  2
WINDOW_TAG
 10
208.50002765655495
 20
4404.999852180481
 30
0.0
 41
200.0
 42
200.0
  0
TEXT
  5
9A
330
17
100
AcDbEntity
  8
A-ANNO-TEXT
100
AcDbText
 10
208.50002765655495
 20
4404.999852180481
 30
0.0
 40
200.0
  1
W7
 72
1
 11
208.50002765655495
 21
4404.999852180481
 31
0.0
100
AcDbText
 73
2
  0
INSERT
  5
9B
330
17
100
AcDbEntity
  8
A-ANNO-TEXT
100
AcDbBlockReference
  2
WINDOW_TAG
 10
2834.500402212143
 20
1310.0001029670238
 30
0.0
 41
200.0
 42
200.0
  0
TEXT
  5
9D
330
17
100
AcDbEntity
  8
A-ANNO-TEXT
100
AcDbText
 10
2834.500402212143
 20
1310.0001029670238
 30
0.0
 40
200.0
  1
W10
 72
1
 11
2834.500402212143
 21
1310.0001029670238
 31
0.0
100
AcDbText
 73
2
  0
INSERT
  5
9E
330
17
100
AcDbEntity
  8
A-ANNO-TEXT
100
AcDbBlockReference
  2
WINDOW_TAG
 10
7973.499774932861
 20
3579.499840736389
 30
0.0
 41
200.0
 42
200.0
  0
TEXT
  5
A0
330
17
100
AcDbEntity
  8
A-ANNO-TEXT
100
AcDbText
 10
7973.499774932861
 20
3579.499840736389
 30
0.0
 40
200.0
  1
W17
 72
1
 11
7973.499774932861
 21
3579.499840736389
 31
0.0
100
AcDbText
 73
2
  0
INSERT
  5
A1
330
17
100
AcDbEntity
  8
A-ANNO-TEXT
100
AcDbBlockReference
  2
WINDOW_TAG
 10
7973.499774932861
 20
5230.499982833862
 30
0.0
 41
200.0
 42
200.0
  0
TEXT
  5
A3
330
17
100
AcDbEntity
  8
A-ANNO-TEXT
100
AcDbText
 10
7973.499774932861
 20
5230.499982833862
 30
0.0
 40
200.0
  1
W18
 72
1
 11
7973.499774932861
 21
5230.499982833862
 31
0.0
100
AcDbText
 73
2
  0
LWPOLYLINE
  5
A4
330
17
100
AcDbEntity
  8
A-ROOF
370
50
100
AcDbPolyline
 90
4
 70
0
 10
2494.450092315674
 20
-228.49999368190765
 10
3983.0000400543213
 20
-228.49999368190765
 10
3983.0000400543213
 20
228.49999368190765
 10
2494.450092315674
 20
228.49999368190765
  0
LWPOLYLINE
  5
A5
330
17
100
AcDbEntity
  8
A-ROOF
370
35
100
AcDbPolyline
 90
4
 70
0
 10
2494.450092315674
 20
-685.499981045723
 10
3983.0000400543213
 20
-685.499981045723
 10
3983.0000400543213
 20
-228.49999368190765
 10
2494.450092315674
 20
-228.49999368190765
  0
LINE
  5
A6
330
17
100
AcDbEntity
  8
A-ROOF
370
35
100
AcDbLine
 10
2424.450092315674
 20
-228.49999368190765
 30
0.0
 11
4053.0000400543213
 21
-228.49999368190765
 31
0.0
  0
LINE
  5
A7
330
17
100
AcDbEntity
  8
A-ELEV-LEVL
370
70
100
AcDbLine
 10
-500.000000000005
 20
-150.0
 30
0.0
 11
9325.000762939453
 21
-150.0
 31
0.0
  0
LINE
  5
A8
330
17
100
AcDbEntity
  8
A-ELEV-LEVL
370
35
100
AcDbLine
 10
-300.000000000005
 20
0.0
 30
0.0
 11
9125.000762939453
 21
0.0
 31
0.0
  0
LINE
  5
A9
330
17
100
AcDbEntity
  8
A-ANNO-LEVL
  6
HIDDEN
370
18
100
AcDbLine
 10
-500.000000000005
 20
-150.0
 30
0.0
 11
9325.000762939453
 21
-150.0
 31
0.0
  0
LINE
  5
AA
330
17
100
AcDbEntity
  8
A-ANNO-LEVL
370
18
100
AcDbLine
 10
9218.934745761471
 20
-256.06601717798213
 30
0.0
 11
9431.066780117435
 21
-43.93398282201788
 31
0.0
  0
LWPOLYLINE
  5
AB
330
17
100
AcDbEntity
  8
A-ANNO-LEVL
370
18
100
AcDbPolyline
 90
3
 70
1
 10
-1450.000000000005
 20
-300.0
 10
-1150.000000000005
 20
-300.0
 10
-1300.000000000005
 20
0.0
  0
TEXT
  5
AC
330
17
100
AcDbEntity
  8
A-ANNO-LEVL
100
AcDbText
 10
-1800.000000000005
 20
-150.0
 30
0.0
 40
250.0
  1
GRD. LEVEL  -0.150
 72
2
 11
-1800.000000000005
 21
-150.0
 31
0.0
100
AcDbText
 73
2
  0
LINE
  5
AD
330
17
100
AcDbEntity
  8
A-ANNO-LEVL
  6
HIDDEN
370
18
100
AcDbLine
 10
-500.000000000005
 20
0.0
 30
0.0
 11
9325.000762939453
 21
0.0
 31
0.0
  0
LINE
  5
AE
330
17
100
AcDbEntity
  8
A-ANNO-LEVL
370
18
100
AcDbLine
 10
9218.934745761471
 20
-106.06601717798212
 30
0.0
 11
9431.066780117435
 21
106.06601717798212
 31
0.0
  0
LINE
  5
AF
330
17
100
AcDbEntity
  8
A-ANNO-LEVL
370
18
100
AcDbLine
 10
-2600.000000000005
 20
0.0
 30
0.0
 11
-2600.000000000005
 21
600.0
 31
0.0
  0
LWPOLYLINE
  5
B0
330
17
100
AcDbEntity
  8
A-ANNO-LEVL
370
18
100
AcDbPolyline
 90
3
 70
1
 10
-1450.000000000005
 20
750.0
 10
-1150.000000000005
 20
750.0
 10
-1300.000000000005
 20
450.0
  0
TEXT
  5
B1
330
17
100
AcDbEntity
  8
A-ANNO-LEVL
100
AcDbText
 10
-1800.000000000005
 20
600.0
 30
0.0
 40
250.0
  1
GRD. FLOOR LEVEL  +0.000
 72
2
 11
-1800.000000000005
 21
600.0
 31
0.0
100
AcDbText
 73
2
  0
LINE
  5
B2
330
17
100
AcDbEntity
  8
A-ANNO-LEVL
  6
HIDDEN
370
18
100
AcDbLine
 10
-500.000000000005
 20
3200.0
 30
0.0
 11
9325.000762939453
 21
3200.0
 31
0.0
  0
LINE
  5
B3
330
17
100
AcDbEntity
  8
A-ANNO-LEVL
370
18
100
AcDbLine
 10
9218.934745761471
 20
3093.9339828220177
 30
0.0
 11
9431.066780117435
 21
3306.0660171779823
 31
0.0
  0
LWPOLYLINE
  5
B4
330
17
100
AcDbEntity
  8
A-ANNO-LEVL
370
18
100
AcDbPolyline
 90
3
 70
1
 10
-1450.000000000005
 20
3350.0
 10
-1150.000000000005
 20
3350.0
 10
-1300.000000000005
 20
3050.0
  0
TEXT
  5
B5
330
17
100
AcDbEntity
  8
A-ANNO-LEVL
100
AcDbText
 10
-1800.000000000005
 20
3200.0
 30
0.0
 40
250.0
  1
SILL LEVEL  +3.200
 72
2
 11
-1800.000000000005
 21
3200.0
 31
0.0
100
AcDbText
 73
2
  0
LINE
  5
B6
330
17
100
AcDbEntity
  8
A-ANNO-LEVL
  6
HIDDEN
370
18
100
AcDbLine
 10
-500.000000000005
 20
5600.0
 30
0.0
 11
9325.000762939453
 21
5600.0
 31
0.0
  0
LINE
  5
B7
330
17
100
AcDbEntity
  8
A-ANNO-LEVL
370
18
100
AcDbLine
 10
9218.934745761471
 20
5493.933982822018
 30
0.0
 11
9431.066780117435
 21
5706.066017177982
 31
0.0
  0
LWPOLYLINE
  5
B8
330
17
100
AcDbEntity
  8
A-ANNO-LEVL
370
18
100
AcDbPolyline
 90
3
 70
1
 10
-1450.000000000005
 20
5750.0
 10
-1150.000000000005
 20
5750.0
 10
-1300.000000000005
 20
5450.0
  0
TEXT
  5
B9
330
17
100
AcDbEntity
  8
A-ANNO-LEVL
100
AcDbText
 10
-1800.000000000005
 20
5600.0
 30
0.0
 40
250.0
  1
HEAD LEVEL  +5.600
 72
2
 11
-1800.000000000005
 21
5600.0
 31
0.0
100
AcDbText
 73
2
  0
LINE
  5
BA
330
17
100
AcDbEntity
  8
A-ANNO-LEVL
  6
HIDDEN
370
18
100
AcDbLine
 10
-500.000000000005
 20
6000.0
 30
0.0
 11
9325.000762939453
 21
6000.0
 31
0.0
  0
LINE
  5
BB
330
17
100
AcDbEntity
  8
A-ANNO-LEVL
370
18
100
AcDbLine
 10
9218.934745761471
 20
5893.933982822018
 30
0.0
 11
9431.066780117435
 21
6106.066017177982
 31
0.0
  0
LINE
  5
BC
330
17
100
AcDbEntity
  8
A-ANNO-LEVL
370
18
100
AcDbLine
 10
-2600.000000000005
 20
6000.0
 30
0.0
 11
-2600.000000000005
 21
6350.0
 31
0.0
  0
LWPOLYLINE
  5
BD
330
17
100
AcDbEntity
  8
A-ANNO-LEVL
370
18
100
AcDbPolyline
 90
3
 70
1
 10
-1450.000000000005
 20
6500.0
 10
-1150.000000000005
 20
6500.0
 10
-1300.000000000005
 20
6200.0
  0
TEXT
  5
BE
330
17
100
AcDbEntity
  8
A-ANNO-LEVL
100
AcDbText
 10
-1800.000000000005
 20
6350.0
 30
0.0
 40
250.0
  1
BEAM/CEILING LEVEL  +6.000
 72
2
 11
-1800.000000000005
 21
6350.0
 31
0.0
100
AcDbText
 73
2
  0
LINE
  5
BF
330
17
100
AcDbEntity
  8
A-ANNO-LEVL
  6
HIDDEN
370
18
100
AcDbLine
 10
-500.000000000005
 20
6500.0
 30
0.0
 11
9325.000762939453
 21
6500.0
 31
0.0
  0
LINE
  5
C0
330
17
100
AcDbEntity
  8
A-ANNO-LEVL
370
18
100
AcDbLine
 10
9218.934745761471
 20
6393.933982822018
 30
0.0
 11
9431.066780117435
 21
6606.066017177982
 31
0.0
  0
LINE
  5
C1
330
17
100
AcDbEntity
  8
A-ANNO-LEVL
370
18
100
AcDbLine
 10
-2600.000000000005
 20
6500.0
 30
0.0
 11
-2600.000000000005
 21
7100.0
 31
0.0
  0
LWPOLYLINE
  5
C2
330
17
100
AcDbEntity
  8
A-ANNO-LEVL
370
18
100
AcDbPolyline
 90
3
 70
1
 10
-1450.000000000005
 20
7250.0
 10
-1150.000000000005
 20
7250.0
 10
-1300.000000000005
 20
6950.0
  0
TEXT
  5
C3
330
17
100
AcDbEntity
  8
A-ANNO-LEVL
100
AcDbText
 10
-1800.000000000005
 20
7100.0
 30
0.0
 40
250.0
  1
ROOF LEVEL  +6.500
 72
2
 11
-1800.000000000005
 21
7100.0
 31
0.0
100
AcDbText
 73
2
  0
LINE
  5
C4
330
17
100
AcDbEntity
  8
A-GRID
370
18
100
AcDbLine
 10
-4.9960036108132044e-12
 20
-1350.0
 30
0.0
 11
-4.9960036108132044e-12
 21
11409.000205993652
 31
0.0
  0
HATCH
  5
C5
330
17
100
AcDbEntity
  8
A-GRID
 62
7
100
AcDbHatch
 10
0.0
 20
0.0
 30
0.0
210
0.0
220
0.0
230
1.0
  2
SOLID
 70
1
 71
0
 91
1
 92
3
 72
0
 73
1
 93
36
 10
399.999999999995
 20
11009.000205993652
 10
393.9231012048782
 20
11078.459477060425
 10
375.8770483143584
 20
11145.80826332392
 10
346.4101615137705
 20
11209.000205993652
 10
306.41777724758623
 20
11266.115249868268
 10
257.11504387461076
 20
11315.417983241243
 10
199.99999999999505
 20
11355.410367507428
 10
136.80805733026253
 20
11384.877254308016
 10
69.45927106676716
 20
11402.923307198536
 10
-4.971510674830257e-12
 20
11409.000205993652
 10
-69.45927106677712
 20
11402.923307198536
 10
-136.8080573302724
 20
11384.877254308016
 10
-200.00000000000492
 20
11355.410367507428
 10
-257.11504387462077
 20
11315.417983241243
 10
-306.4177772475962
 20
11266.115249868268
 10
-346.4101615137804
 20
11209.000205993652
 10
-375.8770483143683
 20
11145.80826332392
 10
-393.9231012048882
 20
11078.459477060425
 10
-400.000000000005
 20
11009.000205993652
 10
-393.92310120488827
 20
10939.540934926881
 10
-375.8770483143684
 20
10872.192148663386
 10
-346.41016151378045
 20
10809.000205993652
 10
-306.41777724759635
 20
10751.885162119037
 10
-257.11504387462077
 20
10702.582428746062
 10
-200.00000000000517
 20
10662.590044479877
 10
-136.80805733027242
 20
10633.123157679289
 10
-69.45927106677713
 20
10615.077104788768
 10
-5.069482418762045e-12
 20
10609.000205993652
 10
69.45927106676699
 20
10615.077104788768
 10
136.80805733026259
 20
10633.123157679289
 10
199.99999999999474
 20
10662.590044479877
 10
257.1150438746107
 20
10702.582428746062
 10
306.4177772475861
 20
10751.885162119037
 10
346.4101615137705
 20
10809.000205993652
 10
375.8770483143584
 20
10872.192148663386
 10
393.9231012048782
 20
10939.54093492688
 97
0
 75
1
 76
1
 98
0
  0
CIRCLE
  5
C6
330
17
100
AcDbEntity
  8
A-GRID
370
25
100
AcDbCircle
 10
-4.9960036108132044e-12
 20
11009.000205993652
 30
0.0
 40
400.0
  0
TEXT
  5
C7
330
17
100
AcDbEntity
  8
A-ANNO-TEXT
100
AcDbText
 10
-4.9960036108132044e-12
 20
11009.000205993652
 30
0.0
 40
350.0
  1
A
 72
1
 11
-4.9960036108132044e-12
 21
11009.000205993652
 31
0.0
100
AcDbText
 73
2
  0
HATCH
  5
C8
330
17
100
AcDbEntity
  8
A-GRID
 62
7
100
AcDbHatch
 10
0.0
 20
0.0
 30
0.0
210
0.0
220
0.0
230
1.0
  2
SOLID
 70
1
 71
0
 91
1
 92
3
 72
0
 73
1
 93
36
 10
399.999999999995
 20
-950.0
 10
393.9231012048782
 20
-880.5407289332279
 10
375.8770483143584
 20
-813.1919426697325
 10
346.4101615137705
 20
-750.0
 10
306.41777724758623
 20
-692.8849561253843
 10
257.11504387461076
 20
-643.5822227524088
 10
199.99999999999505
 20
-603.5898384862246
 10
136.80805733026253
 20
-574.1229516856367
 10
69.45927106676716
 20
-556.0768987951168
 10
-4.971510674830257e-12
 20
-550.0
 10
-69.45927106677712
 20
-556.0768987951168
 10
-136.8080573302724
 20
-574.1229516856366
 10
-200.00000000000492
 20
-603.5898384862245
 10
-257.11504387462077
 20
-643.5822227524088
 10
-306.4177772475962
 20
-692.8849561253842
 10
-346.4101615137804
 20
-749.9999999999999
 10
-375.8770483143683
 20
-813.1919426697325
 10
-393.9231012048882
 20
-880.5407289332279
 10
-400.000000000005
 20
-950.0
 10
-393.92310120488827
 20
-1019.459271066772
 10
-375.8770483143684
 20
-1086.8080573302675
 10
-346.41016151378045
 20
-1150.0
 10
-306.41777724759635
 20
-1207.1150438746156
 10
-257.11504387462077
 20
-1256.4177772475912
 10
-200.00000000000517
 20
-1296.4101615137754
 10
-136.80805733027242
 20
-1325.8770483143635
 10
-69.45927106677713
 20
-1343.923101204883
 10
-5.069482418762045e-12
 20
-1350.0
 10
69.45927106676699
 20
-1343.9231012048833
 10
136.80805733026259
 20
-1325.8770483143633
 10
199.99999999999474
 20
-1296.4101615137756
 10
257.1150438746107
 20
-1256.4177772475912
 10
306.4177772475861
 20
-1207.1150438746158
 10
346.4101615137705
 20
-1149.9999999999998
 10
375.8770483143584
 20
-1086.8080573302675
 10
393.9231012048782
 20
-1019.4592710667722
 97
0
 75
1
 76
1
 98
0
  0
CIRCLE
  5
C9
330
17
100
AcDbEntity
  8
A-GRID
370
25
100
AcDbCircle
 10
-4.9960036108132044e-12
 20
-950.0
 30
0.0
 40
400.0
  0
TEXT
  5
CA
330
17
100
AcDbEntity
  8
A-ANNO-TEXT
100
AcDbText
 10
-4.9960036108132044e-12
 20
-950.0
 30
0.0
 40
350.0
  1
A
 72
1
 11
-4.9960036108132044e-12
 21
-950.0
 31
0.0
100
AcDbText
 73
2
  0
LINE
  5
CB
330
17
100
AcDbEntity
  8
A-GRID
370
18
100
AcDbLine
 10
8799.999999999995
 20
-1350.0
 30
0.0
 11
8799.999999999995
 21
11409.000205993652
 31
0.0
  0
HATCH
  5
CC
330
17
100
AcDbEntity
  8
A-GRID
 62
7
100
AcDbHatch
 10
0.0
 20
0.0
 30
0.0
210
0.0
220
0.0
230
1.0
  2
SOLID
 70
1
 71
0
 91
1
 92
3
 72
0
 73
1
 93
36
 10
9199.999999999995
 20
11009.000205993652
 10
9193.923101204879
 20
11078.459477060425
 10
9175.877048314358
 20
11145.80826332392
 10
9146.41016151377
 20
11209.000205993652
 10
9106.417777247585
 20
11266.115249868268
 10
9057.11504387461
 20
11315.417983241243
 10
8999.999999999995
 20
11355.410367507428
 10
8936.808057330261
 20
11384.877254308016
 10
8869.459271066768
 20
11402.923307198536
 10
8799.999999999995
 20
11409.000205993652
 10
8730.540728933222
 20
11402.923307198536
 10
8663.191942669728
 20
11384.877254308016
 10
8599.999999999995
 20
11355.410367507428
 10
8542.88495612538
 20
11315.417983241243
 10
8493.582222752404
 20
11266.115249868268
 10
8453.58983848622
 20
11209.000205993652
 10
8424.122951685631
 20
11145.80826332392
 10
8406.07689879511
 20
11078.459477060425
 10
8399.999999999995
 20
11009.000205993652
 10
8406.07689879511
 20
10939.540934926881
 10
8424.122951685631
 20
10872.192148663386
 10
8453.58983848622
 20
10809.000205993652
 10
8493.582222752404
 20
10751.885162119037
 10
8542.88495612538
 20
10702.582428746062
 10
8599.999999999995
 20
10662.590044479877
 10
8663.191942669728
 20
10633.123157679289
 10
8730.540728933222
 20
10615.077104788768
 10
8799.999999999995
 20
10609.000205993652
 10
8869.459271066766
 20
10615.077104788768
 10
8936.808057330261
 20
10633.123157679289
 10
8999.999999999995
 20
10662.590044479877
 10
9057.11504387461
 20
10702.582428746062
 10
9106.417777247585
 20
10751.885162119037
 10
9146.41016151377
 20
10809.000205993652
 10
9175.877048314358
 20
10872.192148663386
 10
9193.923101204879
 20
10939.54093492688
 97
0
 75
1
 76
1
 98
0
  0
CIRCLE
  5
CD
330
17
100
AcDbEntity
  8
A-GRID
370
25
100
AcDbCircle
 10
8799.999999999995
 20
11009.000205993652
 30
0.0
 40
400.0
  0
TEXT
  5
CE
330
17
100
AcDbEntity
  8
A-ANNO-TEXT
100
AcDbText
 10
8799.999999999995
 20
11009.000205993652
 30
0.0
 40
350.0
  1
B
 72
1
 11
8799.999999999995
 21
11009.000205993652
 31
0.0
100
AcDbText
 73
2
  0
HATCH
  5
CF
330
17
100
AcDbEntity
  8
A-GRID
 62
7
100
AcDbHatch
 10
0.0
 20
0.0
 30
0.0
210
0.0
220
0.0
230
1.0
  2
SOLID
 70
1
 71
0
 91
1
 92
3
 72
0
 73
1
 93
36
 10
9199.999999999995
 20
-950.0
 10
9193.923101204879
 20
-880.5407289332279
 10
9175.877048314358
 20
-813.1919426697325
 10
9146.41016151377
 20
-750.0
 10
9106.417777247585
 20
-692.8849561253843
 10
9057.11504387461
 20
-643.5822227524088
 10
8999.999999999995
 20
-603.5898384862246
 10
8936.808057330261
 20
-574.1229516856367
 10
8869.459271066768
 20
-556.0768987951168
 10
8799.999999999995
 20
-550.0
 10
8730.540728933222
 20
-556.0768987951168
 10
8663.191942669728
 20
-574.1229516856366
 10
8599.999999999995
 20
-603.5898384862245
 10
8542.88495612538
 20
-643.5822227524088
 10
8493.582222752404
 20
-692.8849561253842
 10
8453.58983848622
 20
-749.9999999999999
 10
8424.122951685631
 20
-813.1919426697325
 10
8406.07689879511
 20
-880.5407289332279
 10
8399.999999999995
 20
-950.0
 10
8406.07689879511
 20
-1019.459271066772
 10
8424.122951685631
 20
-1086.8080573302675
 10
8453.58983848622
 20
-1150.0
 10
8493.582222752404
 20
-1207.1150438746156
 10
8542.88495612538
 20
-1256.4177772475912
 10
8599.999999999995
 20
-1296.4101615137754
 10
8663.191942669728
 20
-1325.8770483143635
 10
8730.540728933222
 20
-1343.923101204883
 10
8799.999999999995
 20
-1350.0
 10
8869.459271066766
 20
-1343.9231012048833
 10
8936.808057330261
 20
-1325.8770483143633
 10
8999.999999999995
 20
-1296.4101615137756
 10
9057.11504387461
 20
-1256.4177772475912
 10
9106.417777247585
 20
-1207.1150438746158
 10
9146.41016151377
 20
-1149.9999999999998
 10
9175.877048314358
 20
-1086.8080573302675
 10
9193.923101204879
 20
-1019.4592710667722
 97
0
 75
1
 76
1
 98
0
  0
CIRCLE
  5
D0
330
17
100
AcDbEntity
  8
A-GRID
370
25
100
AcDbCircle
 10
8799.999999999995
 20
-950.0
 30
0.0
 40
400.0
  0
TEXT
  5
D1
330
17
100
AcDbEntity
  8
A-ANNO-TEXT
100
AcDbText
 10
8799.999999999995
 20
-950.0
 30
0.0
 40
350.0
  1
B
 72
1
 11
8799.999999999995
 21
-950.0
 31
0.0
100
AcDbText
 73
2
  0
LINE
  5
D2
330
17
100
AcDbEntity
  8
A-ANNO-DIMS
370
18
100
AcDbLine
 10
10825.000762939453
 20
0.0
 30
0.0
 11
10825.000762939453
 21
3200.0
 31
0.0
  0
LINE
  5
D3
330
17
100
AcDbEntity
  8
A-ANNO-DIMS
370
18
100
AcDbLine
 10
9325.000762939453
 20
0.0
 30
0.0
 11
10825.000762939453
 21
0.0
 31
0.0
  0
LINE
  5
D4
330
17
100
AcDbEntity
  8
A-ANNO-DIMS
370
18
100
AcDbLine
 10
9325.000762939453
 20
3200.0
 30
0.0
 11
10825.000762939453
 21
3200.0
 31
0.0
  0
LINE
  5
D5
330
17
100
AcDbEntity
  8
A-ANNO-DIMS
370
18
100
AcDbLine
 10
10718.934745761471
 20
-106.06601717798212
 30
0.0
 11
10931.066780117435
 21
106.06601717798212
 31
0.0
  0
LINE
  5
D6
330
17
100
AcDbEntity
  8
A-ANNO-DIMS
370
18
100
AcDbLine
 10
10718.934745761471
 20
3093.9339828220177
 30
0.0
 11
10931.066780117435
 21
3306.0660171779823
 31
0.0
  0
TEXT
  5
D7
330
17
100
AcDbEntity
  8
A-ANNO-DIMS
100
AcDbText
 10
10900.000762939453
 20
1600.0
 30
0.0
 40
250.0
  1
3200mm
 50
90.0
 72
1
 11
10900.000762939453
 21
1600.0
 31
0.0
100
AcDbText
 73
2
  0
LINE
  5
D8
330
17
100
AcDbEntity
  8
A-ANNO-DIMS
370
18
100
AcDbLine
 10
10825.000762939453
 20
3200.0
 30
0.0
 11
10825.000762939453
 21
5600.0
 31
0.0
  0
LINE
  5
D9
330
17
100
AcDbEntity
  8
A-ANNO-DIMS
370
18
100
AcDbLine
 10
9325.000762939453
 20
3200.0
 30
0.0
 11
10825.000762939453
 21
3200.0
 31
0.0
  0
LINE
  5
DA
330
17
100
AcDbEntity
  8
A-ANNO-DIMS
370
18
100
AcDbLine
 10
9325.000762939453
 20
5600.0
 30
0.0
 11
10825.000762939453
 21
5600.0
 31
0.0
  0
LINE
  5
DB
330
17
100
AcDbEntity
  8
A-ANNO-DIMS
370
18
100
AcDbLine
 10
10718.934745761471
 20
3093.9339828220177
 30
0.0
 11
10931.066780117435
 21
3306.0660171779823
 31
0.0
  0
LINE
  5
DC
330
17
100
AcDbEntity
  8
A-ANNO-DIMS
370
18
100
AcDbLine
 10
10718.934745761471
 20
5493.933982822018
 30
0.0
 11
10931.066780117435
 21
5706.066017177982
 31
0.0
  0
TEXT
  5
DD
330
17
100
AcDbEntity
  8
A-ANNO-DIMS
100
AcDbText
 10
10900.000762939453
 20
4400.0
 30
0.0
 40
250.0
  1
2400mm
 50
90.0
 72
1
 11
10900.000762939453
 21
4400.0
 31
0.0
100
AcDbText
 73
2
  0
LINE
  5
DE
330
17
100
AcDbEntity
  8
A-ANNO-DIMS
370
18
100
AcDbLine
 10
10825.000762939453
 20
5600.0
 30
0.0
 11
10825.000762939453
 21
6000.0
 31
0.0
  0
LINE
  5
DF
330
17
100
AcDbEntity
  8
A-ANNO-DIMS
370
18
100
AcDbLine
 10
9325.000762939453
 20
5600.0
 30
0.0
 11
10825.000762939453
 21
5600.0
 31
0.0
  0
LINE
  5
E0
330
17
100
AcDbEntity
  8
A-ANNO-DIMS
370
18
100
AcDbLine
 10
9325.000762939453
 20
6000.0
 30
0.0
 11
10825.000762939453
 21
6000.0
 31
0.0
  0
LINE
  5
E1
330
17
100
AcDbEntity
  8
A-ANNO-DIMS
370
18
100
AcDbLine
 10
10718.934745761471
 20
5493.933982822018
 30
0.0
 11
10931.066780117435
 21
5706.066017177982
 31
0.0
  0
LINE
  5
E2
330
17
100
AcDbEntity
  8
A-ANNO-DIMS
370
18
100
AcDbLine
 10
10718.934745761471
 20
5893.933982822018
 30
0.0
 11
10931.066780117435
 21
6106.066017177982
 31
0.0
  0
TEXT
  5
E3
330
17
100
AcDbEntity
  8
A-ANNO-DIMS
100
AcDbText
 10
10900.000762939453
 20
5800.0
 30
0.0
 40
250.0
  1
400mm
 50
90.0
 72
1
 11
10900.000762939453
 21
5800.0
 31
0.0
100
AcDbText
 73
2
  0
LINE
  5
E4
330
17
100
AcDbEntity
  8
A-ANNO-DIMS
370
18
100
AcDbLine
 10
10825.000762939453
 20
6000.0
 30
0.0
 11
10825.000762939453
 21
6500.0
 31
0.0
  0
LINE
  5
E5
330
17
100
AcDbEntity
  8
A-ANNO-DIMS
370
18
100
AcDbLine
 10
9325.000762939453
 20
6000.0
 30
0.0
 11
10825.000762939453
 21
6000.0
 31
0.0
  0
LINE
  5
E6
330
17
100
AcDbEntity
  8
A-ANNO-DIMS
370
18
100
AcDbLine
 10
9325.000762939453
 20
6500.0
 30
0.0
 11
10825.000762939453
 21
6500.0
 31
0.0
  0
LINE
  5
E7
330
17
100
AcDbEntity
  8
A-ANNO-DIMS
370
18
100
AcDbLine
 10
10718.934745761471
 20
5893.933982822018
 30
0.0
 11
10931.066780117435
 21
6106.066017177982
 31
0.0
  0
LINE
  5
E8
330
17
100
AcDbEntity
  8
A-ANNO-DIMS
370
18
100
AcDbLine
 10
10718.934745761471
 20
6393.933982822018
 30
0.0
 11
10931.066780117435
 21
6606.066017177982
 31
0.0
  0
TEXT
  5
E9
330
17
100
AcDbEntity
  8
A-ANNO-DIMS
100
AcDbText
 10
10900.000762939453
 20
6250.0
 30
0.0
 40
250.0
  1
500mm
 50
90.0
 72
1
 11
10900.000762939453
 21
6250.0
 31
0.0
100
AcDbText
 73
2
  0
LINE
  5
EA
330
17
100
AcDbEntity
  8
A-ANNO-DIMS
370
18
100
AcDbLine
 10
11625.000762939453
 20
0.0
 30
0.0
 11
11625.000762939453
 21
6500.0
 31
0.0
  0
LINE
  5
EB
330
17
100
AcDbEntity
  8
A-ANNO-DIMS
370
18
100
AcDbLine
 10
10825.000762939453
 20
0.0
 30
0.0
 11
11625.000762939453
 21
0.0
 31
0.0
  0
LINE
  5
EC
330
17
100
AcDbEntity
  8
A-ANNO-DIMS
370
18
100
AcDbLine
 10
10825.000762939453
 20
6500.0
 30
0.0
 11
11625.000762939453
 21
6500.0
 31
0.0
  0
LINE
  5
ED
330
17
100
AcDbEntity
  8
A-ANNO-DIMS
370
18
100
AcDbLine
 10
11518.934745761471
 20
-106.06601717798212
 30
0.0
 11
11731.066780117435
 21
106.06601717798212
 31
0.0
  0
LINE
  5
EE
330
17
100
AcDbEntity
  8
A-ANNO-DIMS
370
18
100
AcDbLine
 10
11518.934745761471
 20
6393.933982822018
 30
0.0
 11
11731.066780117435
 21
6606.066017177982
 31
0.0
  0
TEXT
  5
EF
330
17
100
AcDbEntity
  8
A-ANNO-DIMS
100
AcDbText
 10
11700.000762939453
 20
3250.0
 30
0.0
 40
250.0
  1
6500mm
 50
90.0
 72
1
 11
11700.000762939453
 21
3250.0
 31
0.0
100
AcDbText
 73
2
  0
LWPOLYLINE
  5
F0
330
17
100
AcDbEntity
  8
0
 62
7
100
AcDbPolyline
 90
4
 70
1
 10
-11337.499618530275
 20
-5950.0
 10
30662.500381469727
 20
-5950.0
 10
30662.500381469727
 20
12100.0
 10
-11337.499618530275
 20
12100.0
  0
LWPOLYLINE
  5
F1
330
17
100
AcDbEntity
  8
A-TTLB
370
70
100
AcDbPolyline
 90
4
 70
1
 10
-8837.499618530275
 20
-4950.0
 10
29662.500381469727
 20
-4950.0
 10
29662.500381469727
 20
11100.0
 10
-8837.499618530275
 20
11100.0
  0
LINE
  5
F2
330
17
100
AcDbEntity
  8
A-TTLB
370
70
100
AcDbLine
 10
17662.500381469727
 20
-4950.0
 30
0.0
 11
17662.500381469727
 21
11100.0
 31
0.0
  0
IMAGE
  5
F6
330
17
100
AcDbEntity
  8
A-TTLB
100
AcDbRasterImage
 90
0
 10
17862.500381469727
 20
9720.0
 30
0.0
 11
1.6853932584269662
 21
0.0
 31
0.0
 12
1.1269755820374415e-16
 22
1.8404907975460123
 32
0.0
 13
890.0
 23
652.0
340
F5
 70
3
280
0
281
50
282
50
283
0
360
F7
 71
1
 91
2
 14
-0.5
 24
-0.5
 14
889.5
 24
651.5
290
0
  0
TEXT
  5
F8
330
17
100
AcDbEntity
  8
A-TTLB
100
AcDbText
 10
24612.500381469727
 20
10515.0
 30
0.0
 40
390.0
  1
PUBLIC WORKS
 72
1
 11
24612.500381469727
 21
10515.0
 31
0.0
100
AcDbText
 73
2
  0
TEXT
  5
F9
330
17
100
AcDbEntity
  8
A-TTLB
100
AcDbText
 10
24612.500381469727
 20
10125.0
 30
0.0
 40
390.0
  1
DEPARTMENT MALAYSIA
 72
1
 11
24612.500381469727
 21
10125.0
 31
0.0
100
AcDbText
 73
2
  0
LINE
  5
FA
330
17
100
AcDbEntity
  8
A-TTLB
370
50
100
AcDbLine
 10
17662.500381469727
 20
9540.0
 30
0.0
 11
29662.500381469727
 21
9540.0
 31
0.0
  0
TEXT
  5
FB
330
17
100
AcDbEntity
  8
A-TTLB
100
AcDbText
 10
23662.500381469727
 20
8980.0
 30
0.0
 40
500.0
  1
DUPLEX RESIDENTIAL
 72
1
 11
23662.500381469727
 21
8980.0
 31
0.0
100
AcDbText
 73
2
  0
TEXT
  5
FC
330
17
100
AcDbEntity
  8
A-TTLB
100
AcDbText
 10
23662.500381469727
 20
8388.0
 30
0.0
 40
300.0
  1
Ifc4 Duplex
 72
1
 11
23662.500381469727
 21
8388.0
 31
0.0
100
AcDbText
 73
2
  0
LINE
  5
FD
330
17
100
AcDbEntity
  8
A-TTLB
370
35
100
AcDbLine
 10
17662.500381469727
 20
7940.0
 30
0.0
 11
29662.500381469727
 21
7940.0
 31
0.0
  0
LINE
  5
FE
330
17
100
AcDbEntity
  8
A-TTLB
370
18
100
AcDbLine
 10
17662.500381469727
 20
-4950.0
 30
0.0
 11
29662.500381469727
 21
-4950.0
 31
0.0
  0
LINE
  5
FF
330
17
100
AcDbEntity
  8
A-TTLB
370
18
100
AcDbLine
 10
21262.500381469727
 20
-4950.0
 30
0.0
 11
21262.500381469727
 21
-3778.181818181818
 31
0.0
  0
TEXT
  5
100
330
17
100
AcDbEntity
  8
A-TTLB
100
AcDbText
 10
19462.500381469727
 20
-4364.090909090909
 30
0.0
 40
200.0
  1
REVISION NO.
 72
1
 11
19462.500381469727
 21
-4364.090909090909
 31
0.0
100
AcDbText
 73
2
  0
TEXT
  5
101
330
17
100
AcDbEntity
  8
A-TTLB
100
AcDbText
 10
25462.500381469727
 20
-4364.090909090909
 30
0.0
 40
300.0
  1
0
 72
1
 11
25462.500381469727
 21
-4364.090909090909
 31
0.0
100
AcDbText
 73
2
  0
LINE
  5
102
330
17
100
AcDbEntity
  8
A-TTLB
370
18
100
AcDbLine
 10
17662.500381469727
 20
-3778.181818181818
 30
0.0
 11
29662.500381469727
 21
-3778.181818181818
 31
0.0
  0
LINE
  5
103
330
17
100
AcDbEntity
  8
A-TTLB
370
18
100
AcDbLine
 10
21262.500381469727
 20
-3778.181818181818
 30
0.0
 11
21262.500381469727
 21
-2606.363636363636
 31
0.0
  0
TEXT
  5
104
330
17
100
AcDbEntity
  8
A-TTLB
100
AcDbText
 10
19462.500381469727
 20
-3192.272727272727
 30
0.0
 40
200.0
  1
CHECKED BY
 72
1
 11
19462.500381469727
 21
-3192.272727272727
 31
0.0
100
AcDbText
 73
2
  0
LINE
  5
105
330
17
100
AcDbEntity
  8
A-TTLB
370
35
100
AcDbLine
 10
17662.500381469727
 20
-2606.363636363636
 30
0.0
 11
29662.500381469727
 21
-2606.363636363636
 31
0.0
  0
LINE
  5
106
330
17
100
AcDbEntity
  8
A-TTLB
370
18
100
AcDbLine
 10
21262.500381469727
 20
-2606.363636363636
 30
0.0
 11
21262.500381469727
 21
-1434.5454545454543
 31
0.0
  0
TEXT
  5
107
330
17
100
AcDbEntity
  8
A-TTLB
100
AcDbText
 10
19462.500381469727
 20
-2020.454545454545
 30
0.0
 40
200.0
  1
DRAWING NO.
 72
1
 11
19462.500381469727
 21
-2020.454545454545
 31
0.0
100
AcDbText
 73
2
  0
TEXT
  5
108
330
17
100
AcDbEntity
  8
A-TTLB
100
AcDbText
 10
25462.500381469727
 20
-2020.454545454545
 30
0.0
 40
300.0
  1
A-02
 72
1
 11
25462.500381469727
 21
-2020.454545454545
 31
0.0
100
AcDbText
 73
2
  0
LINE
  5
109
330
17
100
AcDbEntity
  8
A-TTLB
370
18
100
AcDbLine
 10
17662.500381469727
 20
-1434.5454545454543
 30
0.0
 11
29662.500381469727
 21
-1434.5454545454543
 31
0.0
  0
LINE
  5
10A
330
17
100
AcDbEntity
  8
A-TTLB
370
18
100
AcDbLine
 10
21262.500381469727
 20
-1434.5454545454543
 30
0.0
 11
21262.500381469727
 21
-262.7272727272725
 31
0.0
  0
TEXT
  5
10B
330
17
100
AcDbEntity
  8
A-TTLB
100
AcDbText
 10
19462.500381469727
 20
-848.6363636363634
 30
0.0
 40
200.0
  1
DATE
 72
1
 11
19462.500381469727
 21
-848.6363636363634
 31
0.0
100
AcDbText
 73
2
  0
LINE
  5
10C
330
17
100
AcDbEntity
  8
A-TTLB
370
18
100
AcDbLine
 10
17662.500381469727
 20
-262.7272727272725
 30
0.0
 11
29662.500381469727
 21
-262.7272727272725
 31
0.0
  0
LINE
  5
10D
330
17
100
AcDbEntity
  8
A-TTLB
370
18
100
AcDbLine
 10
21262.500381469727
 20
-262.7272727272725
 30
0.0
 11
21262.500381469727
 21
909.0909090909092
 31
0.0
  0
TEXT
  5
10E
330
17
100
AcDbEntity
  8
A-TTLB
100
AcDbText
 10
19462.500381469727
 20
323.18181818181836
 30
0.0
 40
200.0
  1
SCALE
 72
1
 11
19462.500381469727
 21
323.18181818181836
 31
0.0
100
AcDbText
 73
2
  0
TEXT
  5
10F
330
17
100
AcDbEntity
  8
A-TTLB
100
AcDbText
 10
25462.500381469727
 20
323.18181818181836
 30
0.0
 40
300.0
  1
1:100
 72
1
 11
25462.500381469727
 21
323.18181818181836
 31
0.0
100
AcDbText
 73
2
  0
LINE
  5
110
330
17
100
AcDbEntity
  8
A-TTLB
370
18
100
AcDbLine
 10
17662.500381469727
 20
909.0909090909092
 30
0.0
 11
29662.500381469727
 21
909.0909090909092
 31
0.0
  0
LINE
  5
111
330
17
100
AcDbEntity
  8
A-TTLB
370
18
100
AcDbLine
 10
21262.500381469727
 20
909.0909090909092
 30
0.0
 11
21262.500381469727
 21
2080.909090909091
 31
0.0
  0
TEXT
  5
112
330
17
100
AcDbEntity
  8
A-TTLB
100
AcDbText
 10
19462.500381469727
 20
1495.0
 30
0.0
 40
200.0
  1
DRAWN BY
 72
1
 11
19462.500381469727
 21
1495.0
 31
0.0
100
AcDbText
 73
2
  0
LINE
  5
113
330
17
100
AcDbEntity
  8
A-TTLB
370
35
100
AcDbLine
 10
17662.500381469727
 20
2080.909090909091
 30
0.0
 11
29662.500381469727
 21
2080.909090909091
 31
0.0
  0
LINE
  5
114
330
17
100
AcDbEntity
  8
A-TTLB
370
18
100
AcDbLine
 10
21262.500381469727
 20
2080.909090909091
 30
0.0
 11
21262.500381469727
 21
3252.727272727273
 31
0.0
  0
TEXT
  5
115
330
17
100
AcDbEntity
  8
A-TTLB
100
AcDbText
 10
19462.500381469727
 20
2666.818181818182
 30
0.0
 40
200.0
  1
DRAWING TITLE
 72
1
 11
19462.500381469727
 21
2666.818181818182
 31
0.0
100
AcDbText
 73
2
  0
TEXT
  5
116
330
17
100
AcDbEntity
  8
A-TTLB
100
AcDbText
 10
25462.500381469727
 20
2666.818181818182
 30
0.0
 40
300.0
  1
FRONT ELEVATION
 72
1
 11
25462.500381469727
 21
2666.818181818182
 31
0.0
100
AcDbText
 73
2
  0
LINE
  5
117
330
17
100
AcDbEntity
  8
A-TTLB
370
35
100
AcDbLine
 10
17662.500381469727
 20
3252.727272727273
 30
0.0
 11
29662.500381469727
 21
3252.727272727273
 31
0.0
  0
LINE
  5
118
330
17
100
AcDbEntity
  8
A-TTLB
370
18
100
AcDbLine
 10
21262.500381469727
 20
3252.727272727273
 30
0.0
 11
21262.500381469727
 21
4424.545454545455
 31
0.0
  0
TEXT
  5
119
330
17
100
AcDbEntity
  8
A-TTLB
100
AcDbText
 10
19462.500381469727
 20
3838.636363636364
 30
0.0
 40
200.0
  1
BUILDING TYPE
 72
1
 11
19462.500381469727
 21
3838.636363636364
 31
0.0
100
AcDbText
 73
2
  0
TEXT
  5
11A
330
17
100
AcDbEntity
  8
A-TTLB
100
AcDbText
 10
25462.500381469727
 20
3838.636363636364
 30
0.0
 40
300.0
  1
DUPLEX RESIDENTIAL
 72
1
 11
25462.500381469727
 21
3838.636363636364
 31
0.0
100
AcDbText
 73
2
  0
LINE
  5
11B
330
17
100
AcDbEntity
  8
A-TTLB
370
35
100
AcDbLine
 10
17662.500381469727
 20
4424.545454545455
 30
0.0
 11
29662.500381469727
 21
4424.545454545455
 31
0.0
  0
LINE
  5
11C
330
17
100
AcDbEntity
  8
A-TTLB
370
18
100
AcDbLine
 10
21262.500381469727
 20
4424.545454545455
 30
0.0
 11
21262.500381469727
 21
5596.363636363637
 31
0.0
  0
TEXT
  5
11D
330
17
100
AcDbEntity
  8
A-TTLB
100
AcDbText
 10
19462.500381469727
 20
5010.454545454546
 30
0.0
 40
200.0
  1
ARCHITECT
 72
1
 11
19462.500381469727
 21
5010.454545454546
 31
0.0
100
AcDbText
 73
2
  0
LINE
  5
11E
330
17
100
AcDbEntity
  8
A-TTLB
370
18
100
AcDbLine
 10
17662.500381469727
 20
5596.363636363637
 30
0.0
 11
29662.500381469727
 21
5596.363636363637
 31
0.0
  0
LINE
  5
11F
330
17
100
AcDbEntity
  8
A-TTLB
370
18
100
AcDbLine
 10
21262.500381469727
 20
5596.363636363637
 30
0.0
 11
21262.500381469727
 21
6768.181818181819
 31
0.0
  0
TEXT
  5
120
330
17
100
AcDbEntity
  8
A-TTLB
100
AcDbText
 10
19462.500381469727
 20
6182.272727272728
 30
0.0
 40
200.0
  1
CLIENT
 72
1
 11
19462.500381469727
 21
6182.272727272728
 31
0.0
100
AcDbText
 73
2
  0
LINE
  5
121
330
17
100
AcDbEntity
  8
A-TTLB
370
35
100
AcDbLine
 10
17662.500381469727
 20
6768.181818181819
 30
0.0
 11
29662.500381469727
 21
6768.181818181819
 31
0.0
  0
LINE
  5
122
330
17
100
AcDbEntity
  8
A-TTLB
370
18
100
AcDbLine
 10
21262.500381469727
 20
6768.181818181819
 30
0.0
 11
21262.500381469727
 21
7940.000000000001
 31
0.0
  0
TEXT
  5
123
330
17
100
AcDbEntity
  8
A-TTLB
100
AcDbText
 10
19462.500381469727
 20
7354.09090909091
 30
0.0
 40
200.0
  1
PROJECT
 72
1
 11
19462.500381469727
 21
7354.09090909091
 31
0.0
100
AcDbText
 73
2
  0
TEXT
  5
124
330
17
100
AcDbEntity
  8
A-ANNO-TEXT
 62
8
100
AcDbText
 10
4412.500381469726
 20
-4050.0
 30
0.0
 40
300.0
  1
scale 1:100
 72
1
 11
4412.500381469726
 21
-4050.0
 31
0.0
100
AcDbText
 73
2
  0
SOLID
  5
125
330
17
100
AcDbEntity
  8
A-ANNO-DIMS
 62
7
100
AcDbTrace
 10
1912.5003814697257
 20
-4650.0
 30
0.0
 11
2912.5003814697257
 21
-4650.0
 31
0.0
 12
1912.5003814697257
 22
-4450.0
 32
0.0
 13
2912.5003814697257
 23
-4450.0
 33
0.0
  0
SOLID
  5
126
330
17
100
AcDbEntity
  8
A-ANNO-DIMS
 62
0
100
AcDbTrace
 10
2912.5003814697257
 20
-4650.0
 30
0.0
 11
3912.5003814697257
 21
-4650.0
 31
0.0
 12
2912.5003814697257
 22
-4450.0
 32
0.0
 13
3912.5003814697257
 23
-4450.0
 33
0.0
  0
SOLID
  5
127
330
17
100
AcDbEntity
  8
A-ANNO-DIMS
 62
7
100
AcDbTrace
 10
3912.5003814697257
 20
-4650.0
 30
0.0
 11
6912.500381469726
 21
-4650.0
 31
0.0
 12
3912.5003814697257
 22
-4450.0
 32
0.0
 13
6912.500381469726
 23
-4450.0
 33
0.0
  0
TEXT
  5
128
330
17
100
AcDbEntity
  8
A-ANNO-DIMS
100
AcDbText
 10
1912.5003814697257
 20
-4810.0
 30
0.0
 40
200.0
  1
0
 72
1
 11
1912.5003814697257
 21
-4810.0
 31
0.0
100
AcDbText
 73
2
  0
TEXT
  5
129
330
17
100
AcDbEntity
  8
A-ANNO-DIMS
100
AcDbText
 10
2912.5003814697257
 20
-4150.0
 30
0.0
 40
200.0
  1
1
 72
1
 11
2912.5003814697257
 21
-4150.0
 31
0.0
100
AcDbText
 73
2
  0
TEXT
  5
12A
330
17
100
AcDbEntity
  8
A-ANNO-DIMS
100
AcDbText
 10
3912.5003814697257
 20
-4810.0
 30
0.0
 40
200.0
  1
2
 72
1
 11
3912.5003814697257
 21
-4810.0
 31
0.0
100
AcDbText
 73
2
  0
TEXT
  5
12B
330
17
100
AcDbEntity
  8
A-ANNO-DIMS
100
AcDbText
 10
6912.500381469726
 20
-4150.0
 30
0.0
 40
200.0
  1
5m
 72
1
 11
6912.500381469726
 21
-4150.0
 31
0.0
100
AcDbText
 73
2
  0
ENDSEC
  0
SECTION
  2
OBJECTS
  0
DICTIONARY
  5
A
330
0
100
AcDbDictionary
281
1
  3
ACAD_COLOR
350
B
  3
ACAD_GROUP
350
C
  3
ACAD_LAYOUT
350
D
  3
ACAD_MATERIAL
350
E
  3
ACAD_MLEADERSTYLE
350
F
  3
ACAD_MLINESTYLE
350
10
  3
ACAD_PLOTSETTINGS
350
11
  3
ACAD_PLOTSTYLENAME
350
12
  3
ACAD_SCALELIST
350
14
  3
ACAD_TABLESTYLE
350
15
  3
ACAD_VISUALSTYLE
350
16
  3
EZDXF_META
350
2D
  3
ACAD_IMAGE_VARS
350
F3
  3
ACAD_IMAGE_DICT
350
F4
  0
DICTIONARY
  5
B
330
A
100
AcDbDictionary
281
1
  0
DICTIONARY
  5
C
330
A
100
AcDbDictionary
281
1
  0
DICTIONARY
  5
D
330
A
100
AcDbDictionary
281
1
  3
Model
350
1A
  3
Layout1
350
1E
  0
DICTIONARY
  5
E
330
A
100
AcDbDictionary
281
1
  3
ByBlock
350
1F
  3
ByLayer
350
20
  3
Global
350
21
  0
DICTIONARY
  5
F
330
A
100
AcDbDictionary
281
1
  3
Standard
350
2C
  0
DICTIONARY
  5
10
330
A
100
AcDbDictionary
281
1
  3
Standard
350
22
  0
DICTIONARY
  5
11
330
A
100
AcDbDictionary
281
1
  0
ACDBDICTIONARYWDFLT
  5
12
330
A
100
AcDbDictionary
281
1
  3
Normal
350
13
100
AcDbDictionaryWithDefault
340
13
  0
ACDBPLACEHOLDER
  5
13
330
12
  0
DICTIONARY
  5
14
330
A
100
AcDbDictionary
281
1
  0
DICTIONARY
  5
15
330
A
100
AcDbDictionary
281
1
  0
DICTIONARY
  5
16
330
A
100
AcDbDictionary
281
1
  0
LAYOUT
  5
1A
330
D
100
AcDbPlotSettings
  1

  4
A3
  6

 40
7.5
 41
20.0
 42
7.5
 43
20.0
 44
420.0
 45
297.0
 46
0.0
 47
0.0
 48
0.0
 49
0.0
140
0.0
141
0.0
142
1.0
143
1.0
 70
1024
 72
1
 73
0
 74
5
  7

 75
16
 76
0
 77
2
 78
300
147
1.0
148
0.0
149
0.0
100
AcDbLayout
  1
Model
 70
1
 71
0
 10
0.0
 20
0.0
 11
420.0
 21
297.0
 12
0.0
 22
0.0
 32
0.0
 14
1e+20
 24
1e+20
 34
1e+20
 15
-1e+20
 25
-1e+20
 35
-1e+20
146
0.0
 13
0.0
 23
0.0
 33
0.0
 16
1.0
 26
0.0
 36
0.0
 17
0.0
 27
1.0
 37
0.0
 76
1
330
17
  0
LAYOUT
  5
1E
330
D
100
AcDbPlotSettings
  1

  4
A3
  6

 40
7.5
 41
20.0
 42
7.5
 43
20.0
 44
420.0
 45
297.0
 46
0.0
 47
0.0
 48
0.0
 49
0.0
140
0.0
141
0.0
142
1.0
143
1.0
 70
0
 72
1
 73
0
 74
5
  7

 75
16
 76
0
 77
2
 78
300
147
1.0
148
0.0
149
0.0
100
AcDbLayout
  1
Layout1
 70
1
 71
1
 10
0.0
 20
0.0
 11
420.0
 21
297.0
 12
0.0
 22
0.0
 32
0.0
 14
1e+20
 24
1e+20
 34
1e+20
 15
-1e+20
 25
-1e+20
 35
-1e+20
146
0.0
 13
0.0
 23
0.0
 33
0.0
 16
1.0
 26
0.0
 36
0.0
 17
0.0
 27
1.0
 37
0.0
 76
1
330
1B
  0
MATERIAL
  5
1F
102
{ACAD_REACTORS
330
E
102
}
330
E
100
AcDbMaterial
  1
ByBlock
  2

 70
0
 40
1.0
 71
1
 41
1.0
 91
-1023410177
 42
1.0
 72
1
  3

 73
1
 74
1
 75
1
 44
0.5
 73
0
 45
1.0
 46
1.0
 77
1
  4

 78
1
 79
1
170
1
 48
1.0
171
1
  6

172
1
173
1
174
1
140
1.0
141
1.0
175
1
  7

176
1
177
1
178
1
143
1.0
179
1
  8

270
1
271
1
272
1
145
1.0
146
1.0
273
1
  9

274
1
275
1
276
1
 42
1.0
 72
1
  3

 73
1
 74
1
 75
1
 94
63
  0
MATERIAL
  5
20
102
{ACAD_REACTORS
330
E
102
}
330
E
100
AcDbMaterial
  1
ByLayer
  2

 70
0
 40
1.0
 71
1
 41
1.0
 91
-1023410177
 42
1.0
 72
1
  3

 73
1
 74
1
 75
1
 44
0.5
 73
0
 45
1.0
 46
1.0
 77
1
  4

 78
1
 79
1
170
1
 48
1.0
171
1
  6

172
1
173
1
174
1
140
1.0
141
1.0
175
1
  7

176
1
177
1
178
1
143
1.0
179
1
  8

270
1
271
1
272
1
145
1.0
146
1.0
273
1
  9

274
1
275
1
276
1
 42
1.0
 72
1
  3

 73
1
 74
1
 75
1
 94
63
  0
MATERIAL
  5
21
102
{ACAD_REACTORS
330
E
102
}
330
E
100
AcDbMaterial
  1
Global
  2

 70
0
 40
1.0
 71
1
 41
1.0
 91
-1023410177
 42
1.0
 72
1
  3

 73
1
 74
1
 75
1
 44
0.5
 73
0
 45
1.0
 46
1.0
 77
1
  4

 78
1
 79
1
170
1
 48
1.0
171
1
  6

172
1
173
1
174
1
140
1.0
141
1.0
175
1
  7

176
1
177
1
178
1
143
1.0
179
1
  8

270
1
271
1
272
1
145
1.0
146
1.0
273
1
  9

274
1
275
1
276
1
 42
1.0
 72
1
  3

 73
1
 74
1
 75
1
 94
63
  0
MLINESTYLE
  5
22
102
{ACAD_REACTORS
330
10
102
}
330
10
100
AcDbMlineStyle
  2
Standard
 70
0
  3

 62
256
 51
90.0
 52
90.0
 71
2
 49
0.5
 62
256
  6
BYLAYER
 49
-0.5
 62
256
  6
BYLAYER
  0
MLEADERSTYLE
  5
2C
102
{ACAD_REACTORS
330
F
102
}
330
F
100
AcDbMLeaderStyle
179
2
170
2
171
1
172
0
 90
2
 40
0.0
 41
0.0
173
1
 91
-1056964608
 92
-2
290
1
 42
2.0
291
1
 43
8.0
  3
Standard
 44
4.0
300

342
29
174
1
175
1
176
0
178
1
 93
-1056964608
 45
4.0
292
0
297
0
 46
4.0
 94
-1056964608
 47
1.0
 49
1.0
140
1.0
294
1
141
0.0
177
0
142
1.0
295
0
296
0
143
3.75
271
0
272
9
273
9
  0
DICTIONARY
  5
2D
330
A
100
AcDbDictionary
280
1
281
1
  3
CREATED_BY_EZDXF
350
2E
  3
WRITTEN_BY_EZDXF
350
12E
  0
DICTIONARYVAR
  5
2E
330
2D
100
DictionaryVariables
280
0
  1
1.4.3 @ 2026-04-21T08:13:46.714053+00:00
  0
RASTERVARIABLES
  5
F3
102
{ACAD_REACTORS
330
A
102
}
330
A
100
AcDbRasterVariables
 90
0
 70
0
 71
1
 72
3
  0
DICTIONARY
  5
F4
330
A
100
AcDbDictionary
281
1
  3
/home/red1/bim-compiler/2D_Layout/python/../input/jkr.png
350
F5
  0
IMAGEDEF
  5
F5
102
{ACAD_REACTORS
330
F4
330
F7
102
}
330
F4
100
AcDbRasterImageDef
 90
0
  1
/home/red1/bim-compiler/2D_Layout/python/../input/jkr.png
 10
890.0
 20
652.0
 11
0.01
 21
0.01
280
1
281
0
  0
IMAGEDEF_REACTOR
  5
F7
330
F6
100
AcDbRasterImageDefReactor
 90
2
330
F6
  0
DICTIONARYVAR
  5
12E
330
2D
100
DictionaryVariables
280
0
  1
1.4.3 @ 2026-04-21T08:13:46.721925+00:00
  0
ENDSEC
  0
EOF
