  0
SECTION
  2
HEADER
  9
$ACADVER
  1
AC1024
  9
$ACADMAINTVER
 70
6
  9
$DWGCODEPAGE
  3
ANSI_1252
  9
$LASTSAVEDBY
  1
ezdxf
  9
$INSBASE
 10
0.0
 20
0.0
 30
0.0
  9
$EXTMIN
 10
1e+20
 20
1e+20
 30
1e+20
  9
$EXTMAX
 10
-1e+20
 20
-1e+20
 30
-1e+20
  9
$LIMMIN
 10
0.0
 20
0.0
  9
$LIMMAX
 10
420.0
 20
297.0
  9
$ORTHOMODE
 70
0
  9
$REGENMODE
 70
1
  9
$FILLMODE
 70
1
  9
$QTEXTMODE
 70
0
  9
$MIRRTEXT
 70
1
  9
$LTSCALE
 40
1.0
  9
$ATTMODE
 70
1
  9
$TEXTSIZE
 40
2.5
  9
$TRACEWID
 40
1.0
  9
$TEXTSTYLE
  7
Standard
  9
$CLAYER
  8
0
  9
$CELTYPE
  6
ByLayer
  9
$CECOLOR
 62
256
  9
$CELTSCALE
 40
1.0
  9
$DISPSILH
 70
0
  9
$DIMSCALE
 40
1.0
  9
$DIMASZ
 40
2.5
  9
$DIMEXO
 40
0.625
  9
$DIMDLI
 40
3.75
  9
$DIMRND
 40
0.0
  9
$DIMDLE
 40
0.0
  9
$DIMEXE
 40
1.25
  9
$DIMTP
 40
0.0
  9
$DIMTM
 40
0.0
  9
$DIMTXT
 40
2.5
  9
$DIMCEN
 40
2.5
  9
$DIMTSZ
 40
0.0
  9
$DIMTOL
 70
0
  9
$DIMLIM
 70
0
  9
$DIMTIH
 70
0
  9
$DIMTOH
 70
0
  9
$DIMSE1
 70
0
  9
$DIMSE2
 70
0
  9
$DIMTAD
 70
1
  9
$DIMZIN
 70
8
  9
$DIMBLK
  1

  9
$DIMASO
 70
1
  9
$DIMSHO
 70
1
  9
$DIMPOST
  1

  9
$DIMAPOST
  1

  9
$DIMALT
 70
0
  9
$DIMALTD
 70
3
  9
$DIMALTF
 40
0.03937007874
  9
$DIMLFAC
 40
1.0
  9
$DIMTOFL
 70
1
  9
$DIMTVP
 40
0.0
  9
$DIMTIX
 70
0
  9
$DIMSOXD
 70
0
  9
$DIMSAH
 70
0
  9
$DIMBLK1
  1

  9
$DIMBLK2
  1

  9
$DIMSTYLE
  2
ISO-25
  9
$DIMCLRD
 70
0
  9
$DIMCLRE
 70
0
  9
$DIMCLRT
 70
0
  9
$DIMTFAC
 40
1.0
  9
$DIMGAP
 40
0.625
  9
$DIMJUST
 70
0
  9
$DIMSD1
 70
0
  9
$DIMSD2
 70
0
  9
$DIMTOLJ
 70
0
  9
$DIMTZIN
 70
8
  9
$DIMALTZ
 70
0
  9
$DIMALTTZ
 70
0
  9
$DIMUPT
 70
0
  9
$DIMDEC
 70
2
  9
$DIMTDEC
 70
2
  9
$DIMALTU
 70
2
  9
$DIMALTTD
 70
3
  9
$DIMTXSTY
  7
Standard
  9
$DIMAUNIT
 70
0
  9
$DIMADEC
 70
0
  9
$DIMALTRND
 40
0.0
  9
$DIMAZIN
 70
0
  9
$DIMDSEP
 70
44
  9
$DIMATFIT
 70
3
  9
$DIMFRAC
 70
0
  9
$DIMLDRBLK
  1

  9
$DIMLUNIT
 70
2
  9
$DIMLWD
 70
-2
  9
$DIMLWE
 70
-2
  9
$DIMTMOVE
 70
0
  9
$DIMFXL
 40
1.0
  9
$DIMFXLON
 70
0
  9
$DIMJOGANG
 40
0.785398163397
  9
$DIMTFILL
 70
0
  9
$DIMTFILLCLR
 70
0
  9
$DIMARCSYM
 70
0
  9
$DIMLTYPE
  6

  9
$DIMLTEX1
  6

  9
$DIMLTEX2
  6

  9
$DIMTXTDIRECTION
 70
0
  9
$LUNITS
 70
2
  9
$LUPREC
 70
4
  9
$SKETCHINC
 40
1.0
  9
$FILLETRAD
 40
10.0
  9
$AUNITS
 70
0
  9
$AUPREC
 70
2
  9
$MENU
  1
.
  9
$ELEVATION
 40
0.0
  9
$PELEVATION
 40
0.0
  9
$THICKNESS
 40
0.0
  9
$LIMCHECK
 70
0
  9
$CHAMFERA
 40
0.0
  9
$CHAMFERB
 40
0.0
  9
$CHAMFERC
 40
0.0
  9
$CHAMFERD
 40
0.0
  9
$SKPOLY
 70
0
  9
$TDCREATE
 40
2461152.676226852
  9
$TDUCREATE
 40
2458532.153996898
  9
$TDUPDATE
 40
2461152.676226852
  9
$TDUUPDATE
 40
2458532.1544311
  9
$TDINDWG
 40
0.0
  9
$TDUSRTIMER
 40
0.0
  9
$USRTIMER
 70
1
  9
$ANGBASE
 50
0.0
  9
$ANGDIR
 70
0
  9
$PDMODE
 70
0
  9
$PDSIZE
 40
0.0
  9
$PLINEWID
 40
0.0
  9
$SPLFRAME
 70
0
  9
$SPLINETYPE
 70
6
  9
$SPLINESEGS
 70
8
  9
$HANDSEED
  5
29A
  9
$SURFTAB1
 70
6
  9
$SURFTAB2
 70
6
  9
$SURFTYPE
 70
6
  9
$SURFU
 70
6
  9
$SURFV
 70
6
  9
$UCSBASE
  2

  9
$UCSNAME
  2

  9
$UCSORG
 10
0.0
 20
0.0
 30
0.0
  9
$UCSXDIR
 10
1.0
 20
0.0
 30
0.0
  9
$UCSYDIR
 10
0.0
 20
1.0
 30
0.0
  9
$UCSORTHOREF
  2

  9
$UCSORTHOVIEW
 70
0
  9
$UCSORGTOP
 10
0.0
 20
0.0
 30
0.0
  9
$UCSORGBOTTOM
 10
0.0
 20
0.0
 30
0.0
  9
$UCSORGLEFT
 10
0.0
 20
0.0
 30
0.0
  9
$UCSORGRIGHT
 10
0.0
 20
0.0
 30
0.0
  9
$UCSORGFRONT
 10
0.0
 20
0.0
 30
0.0
  9
$UCSORGBACK
 10
0.0
 20
0.0
 30
0.0
  9
$PUCSBASE
  2

  9
$PUCSNAME
  2

  9
$PUCSORG
 10
0.0
 20
0.0
 30
0.0
  9
$PUCSXDIR
 10
1.0
 20
0.0
 30
0.0
  9
$PUCSYDIR
 10
0.0
 20
1.0
 30
0.0
  9
$PUCSORTHOREF
  2

  9
$PUCSORTHOVIEW
 70
0
  9
$PUCSORGTOP
 10
0.0
 20
0.0
 30
0.0
  9
$PUCSORGBOTTOM
 10
0.0
 20
0.0
 30
0.0
  9
$PUCSORGLEFT
 10
0.0
 20
0.0
 30
0.0
  9
$PUCSORGRIGHT
 10
0.0
 20
0.0
 30
0.0
  9
$PUCSORGFRONT
 10
0.0
 20
0.0
 30
0.0
  9
$PUCSORGBACK
 10
0.0
 20
0.0
 30
0.0
  9
$USERI1
 70
0
  9
$USERI2
 70
0
  9
$USERI3
 70
0
  9
$USERI4
 70
0
  9
$USERI5
 70
0
  9
$USERR1
 40
0.0
  9
$USERR2
 40
0.0
  9
$USERR3
 40
0.0
  9
$USERR4
 40
0.0
  9
$USERR5
 40
0.0
  9
$WORLDVIEW
 70
1
  9
$SHADEDGE
 70
3
  9
$SHADEDIF
 70
70
  9
$TILEMODE
 70
1
  9
$MAXACTVP
 70
64
  9
$PINSBASE
 10
0.0
 20
0.0
 30
0.0
  9
$PLIMCHECK
 70
0
  9
$PEXTMIN
 10
1e+20
 20
1e+20
 30
1e+20
  9
$PEXTMAX
 10
-1e+20
 20
-1e+20
 30
-1e+20
  9
$PLIMMIN
 10
0.0
 20
0.0
  9
$PLIMMAX
 10
420.0
 20
297.0
  9
$UNITMODE
 70
0
  9
$VISRETAIN
 70
1
  9
$PLINEGEN
 70
0
  9
$PSLTSCALE
 70
1
  9
$TREEDEPTH
 70
3020
  9
$CMLSTYLE
  2
Standard
  9
$CMLJUST
 70
0
  9
$CMLSCALE
 40
20.0
  9
$PROXYGRAPHICS
 70
1
  9
$MEASUREMENT
 70
1
  9
$CELWEIGHT
370
-1
  9
$ENDCAPS
280
0
  9
$JOINSTYLE
280
0
  9
$LWDISPLAY
290
0
  9
$INSUNITS
 70
4
  9
$HYPERLINKBASE
  1

  9
$STYLESHEET
  1

  9
$XEDIT
290
1
  9
$CEPSNTYPE
380
0
  9
$PSTYLEMODE
290
1
  9
$FINGERPRINTGUID
  2
{D2F52654-D926-4EB7-9109-0DA0FB30995F}
  9
$VERSIONGUID
  2
{C0ADFCBD-548E-4339-9AE9-80EFB83E4870}
  9
$EXTNAMES
290
1
  9
$PSVPSCALE
 40
0.0
  9
$OLESTARTUP
290
0
  9
$SORTENTS
280
127
  9
$INDEXCTL
280
0
  9
$HIDETEXT
280
1
  9
$XCLIPFRAME
280
1
  9
$HALOGAP
280
0
  9
$OBSCOLOR
 70
257
  9
$OBSLTYPE
280
0
  9
$INTERSECTIONDISPLAY
280
0
  9
$INTERSECTIONCOLOR
 70
257
  9
$DIMASSOC
280
2
  9
$PROJECTNAME
  1

  9
$CAMERADISPLAY
290
0
  9
$LENSLENGTH
 40
50.0
  9
$CAMERAHEIGHT
 40
0.0
  9
$STEPSPERSEC
 40
24.0
  9
$STEPSIZE
 40
100.0
  9
$3DDWFPREC
 40
2.0
  9
$PSOLWIDTH
 40
0.005
  9
$PSOLHEIGHT
 40
0.08
  9
$LOFTANG1
 40
1.570796326795
  9
$LOFTANG2
 40
1.570796326795
  9
$LOFTMAG1
 40
0.0
  9
$LOFTMAG2
 40
0.0
  9
$LOFTPARAM
 70
7
  9
$LOFTNORMALS
280
1
  9
$LATITUDE
 40
37.795
  9
$LONGITUDE
 40
-122.394
  9
$NORTHDIRECTION
 40
0.0
  9
$TIMEZONE
 70
-8000
  9
$LIGHTGLYPHDISPLAY
280
1
  9
$TILEMODELIGHTSYNCH
280
1
  9
$CMATERIAL
347
20
  9
$SOLIDHIST
280
0
  9
$SHOWHIST
280
1
  9
$DWFFRAME
280
2
  9
$DGNFRAME
280
2
  9
$REALWORLDSCALE
290
1
  9
$INTERFERECOLOR
 62
256
  9
$CSHADOW
280
0
  9
$SHADOWPLANELOCATION
 40
0.0
  0
ENDSEC
  0
SECTION
  2
CLASSES
  0
CLASS
  1
ACDBDICTIONARYWDFLT
  2
AcDbDictionaryWithDefault
  3
ObjectDBX Classes
 90
0
 91
0
280
0
281
0
  0
CLASS
  1
SUN
  2
AcDbSun
  3
SCENEOE
 90
1153
 91
0
280
0
281
0
  0
CLASS
  1
VISUALSTYLE
  2
AcDbVisualStyle
  3
ObjectDBX Classes
 90
4095
 91
0
280
0
281
0
  0
CLASS
  1
MATERIAL
  2
AcDbMaterial
  3
ObjectDBX Classes
 90
1153
 91
0
280
0
281
0
  0
CLASS
  1
SCALE
  2
AcDbScale
  3
ObjectDBX Classes
 90
1153
 91
0
280
0
281
0
  0
CLASS
  1
TABLESTYLE
  2
AcDbTableStyle
  3
ObjectDBX Classes
 90
4095
 91
0
280
0
281
0
  0
CLASS
  1
MLEADERSTYLE
  2
AcDbMLeaderStyle
  3
ACDB_MLEADERSTYLE_CLASS
 90
4095
 91
0
280
0
281
0
  0
CLASS
  1
DICTIONARYVAR
  2
AcDbDictionaryVar
  3
ObjectDBX Classes
 90
0
 91
0
280
0
281
0
  0
CLASS
  1
CELLSTYLEMAP
  2
AcDbCellStyleMap
  3
ObjectDBX Classes
 90
1152
 91
0
280
0
281
0
  0
CLASS
  1
MENTALRAYRENDERSETTINGS
  2
AcDbMentalRayRenderSettings
  3
SCENEOE
 90
1024
 91
0
280
0
281
0
  0
CLASS
  1
ACDBDETAILVIEWSTYLE
  2
AcDbDetailViewStyle
  3
ObjectDBX Classes
 90
1025
 91
0
280
0
281
0
  0
CLASS
  1
ACDBSECTIONVIEWSTYLE
  2
AcDbSectionViewStyle
  3
ObjectDBX Classes
 90
1025
 91
0
280
0
281
0
  0
CLASS
  1
RASTERVARIABLES
  2
AcDbRasterVariables
  3
ISM
 90
0
 91
0
280
0
281
0
  0
CLASS
  1
IMAGE
  2
AcDbRasterImage
  3
ISM
 90
2175
 91
0
280
0
281
1
  0
CLASS
  1
IMAGEDEF
  2
AcDbRasterImageDef
  3
ISM
 90
0
 91
0
280
0
281
0
  0
CLASS
  1
IMAGEDEF_REACTOR
  2
AcDbRasterImageDefReactor
  3
ISM
 90
1
 91
0
280
0
281
0
  0
CLASS
  1
LAYOUT
  2
AcDbLayout
  3
ObjectDBX Classes
 90
0
 91
0
280
0
281
0
  0
CLASS
  1
ACDBPLACEHOLDER
  2
AcDbPlaceHolder
  3
ObjectDBX Classes
 90
0
 91
0
280
0
281
0
  0
ENDSEC
  0
SECTION
  2
TABLES
  0
TABLE
  2
VPORT
  5
8
330
0
100
AcDbSymbolTable
 70
1
  0
VPORT
  5
23
330
8
100
AcDbSymbolTableRecord
100
AcDbViewportTableRecord
  2
*Active
 70
0
 10
0.0
 20
0.0
 11
1.0
 21
1.0
 12
0.0
 22
0.0
 13
0.0
 23
0.0
 14
0.5
 24
0.5
 15
0.5
 25
0.5
 16
0.0
 26
0.0
 36
1.0
 17
0.0
 27
0.0
 37
0.0
 40
1000.0
 41
1.34
 42
50.0
 43
0.0
 44
0.0
 50
0.0
 51
0.0
 71
0
 72
1000
 73
1
 74
3
 75
0
 76
0
 77
0
 78
0
281
0
 65
0
146
0.0
  0
ENDTAB
  0
TABLE
  2
LTYPE
  5
2
330
0
100
AcDbSymbolTable
 70
6
  0
LTYPE
  5
24
330
2
100
AcDbSymbolTableRecord
100
AcDbLinetypeTableRecord
  2
ByBlock
 70
0
  3

 72
65
 73
0
 40
0.0
  0
LTYPE
  5
25
330
2
100
AcDbSymbolTableRecord
100
AcDbLinetypeTableRecord
  2
ByLayer
 70
0
  3

 72
65
 73
0
 40
0.0
  0
LTYPE
  5
26
330
2
100
AcDbSymbolTableRecord
100
AcDbLinetypeTableRecord
  2
Continuous
 70
0
  3

 72
65
 73
0
 40
0.0
  0
LTYPE
  5
2F
330
2
100
AcDbSymbolTableRecord
100
AcDbLinetypeTableRecord
  2
CENTER
 70
0
  3
Center __ . __ . __
 72
65
 73
4
 40
1.2
 49
0.8
 74
0
 49
-0.2
 74
0
 49
0.0
 74
0
 49
-0.2
 74
0
  0
LTYPE
  5
30
330
2
100
AcDbSymbolTableRecord
100
AcDbLinetypeTableRecord
  2
HIDDEN
 70
0
  3
Hidden -- -- -- --
 72
65
 73
2
 40
0.6
 49
0.4
 74
0
 49
-0.2
 74
0
  0
LTYPE
  5
31
330
2
100
AcDbSymbolTableRecord
100
AcDbLinetypeTableRecord
  2
DASHDOT
 70
0
  3
Dash dot __.__.__
 72
65
 73
4
 40
0.6
 49
0.4
 74
0
 49
-0.2
 74
0
 49
0.0
 74
0
 49
-0.2
 74
0
  0
ENDTAB
  0
TABLE
  2
LAYER
  5
1
330
0
100
AcDbSymbolTable
 70
17
  0
LAYER
  5
27
330
1
100
AcDbSymbolTableRecord
100
AcDbLayerTableRecord
  2
0
 70
0
 62
7
  6
Continuous
370
-3
390
13
347
21
  0
LAYER
  5
28
330
1
100
AcDbSymbolTableRecord
100
AcDbLayerTableRecord
  2
Defpoints
 70
0
 62
7
  6
Continuous
290
0
370
-3
390
13
347
21
  0
LAYER
  5
32
330
1
100
AcDbSymbolTableRecord
100
AcDbLayerTableRecord
  2
A-WALL-FULL
 70
0
 62
7
  6
Continuous
370
-3
390
13
347
21
  0
LAYER
  5
33
330
1
100
AcDbSymbolTableRecord
100
AcDbLayerTableRecord
  2
A-WALL-PRTN
 70
0
 62
7
  6
Continuous
370
-3
390
13
347
21
  0
LAYER
  5
34
330
1
100
AcDbSymbolTableRecord
100
AcDbLayerTableRecord
  2
A-WALL-PATT
 70
0
 62
254
  6
Continuous
370
-3
390
13
347
21
  0
LAYER
  5
35
330
1
100
AcDbSymbolTableRecord
100
AcDbLayerTableRecord
  2
A-GLAZ
 70
0
 62
5
  6
Continuous
370
-3
390
13
347
21
  0
LAYER
  5
36
330
1
100
AcDbSymbolTableRecord
100
AcDbLayerTableRecord
  2
A-DOOR
 70
0
 62
7
  6
Continuous
370
-3
390
13
347
21
  0
LAYER
  5
37
330
1
100
AcDbSymbolTableRecord
100
AcDbLayerTableRecord
  2
A-ROOF
 70
0
 62
7
  6
Continuous
370
-3
390
13
347
21
  0
LAYER
  5
38
330
1
100
AcDbSymbolTableRecord
100
AcDbLayerTableRecord
  2
A-GRID
 70
0
 62
8
  6
DASHDOT
370
-3
390
13
347
21
  0
LAYER
  5
39
330
1
100
AcDbSymbolTableRecord
100
AcDbLayerTableRecord
  2
A-ANNO-DIMS
 70
0
 62
7
  6
Continuous
370
-3
390
13
347
21
  0
LAYER
  5
3A
330
1
100
AcDbSymbolTableRecord
100
AcDbLayerTableRecord
  2
A-ANNO-TEXT
 70
0
 62
7
  6
Continuous
370
-3
390
13
347
21
  0
LAYER
  5
3B
330
1
100
AcDbSymbolTableRecord
100
AcDbLayerTableRecord
  2
A-FURN
 70
0
 62
9
  6
Continuous
370
-3
390
13
347
21
  0
LAYER
  5
3C
330
1
100
AcDbSymbolTableRecord
100
AcDbLayerTableRecord
  2
A-ELEV-WALL
 70
0
 62
7
  6
Continuous
370
-3
390
13
347
21
  0
LAYER
  5
3D
330
1
100
AcDbSymbolTableRecord
100
AcDbLayerTableRecord
  2
A-ELEV-LEVL
 70
0
 62
7
  6
Continuous
370
-3
390
13
347
21
  0
LAYER
  5
3E
330
1
100
AcDbSymbolTableRecord
100
AcDbLayerTableRecord
  2
A-TTLB
 70
0
 62
7
  6
Continuous
370
-3
390
13
347
21
  0
LAYER
  5
3F
330
1
100
AcDbSymbolTableRecord
100
AcDbLayerTableRecord
  2
A-ANNO-LEVL
 70
0
 62
7
  6
Continuous
370
-3
390
13
347
21
  0
LAYER
  5
40
330
1
100
AcDbSymbolTableRecord
100
AcDbLayerTableRecord
  2
A-ANNO-SECT
 70
0
 62
7
  6
HIDDEN
370
-3
390
13
347
21
  0
ENDTAB
  0
TABLE
  2
STYLE
  5
5
330
0
100
AcDbSymbolTable
 70
1
  0
STYLE
  5
29
330
5
100
AcDbSymbolTableRecord
100
AcDbTextStyleTableRecord
  2
Standard
 70
0
 40
0.0
 41
1.0
 50
0.0
 71
0
 42
2.5
  3
txt
  4

  0
ENDTAB
  0
TABLE
  2
VIEW
  5
7
330
0
100
AcDbSymbolTable
 70
0
  0
ENDTAB
  0
TABLE
  2
UCS
  5
6
330
0
100
AcDbSymbolTable
 70
0
  0
ENDTAB
  0
TABLE
  2
APPID
  5
3
330
0
100
AcDbSymbolTable
 70
3
  0
APPID
  5
2A
330
3
100
AcDbSymbolTableRecord
100
AcDbRegAppTableRecord
  2
ACAD
 70
0
  0
APPID
  5
297
330
3
100
AcDbSymbolTableRecord
100
AcDbRegAppTableRecord
  2
HATCHBACKGROUNDCOLOR
 70
0
  0
APPID
  5
298
330
3
100
AcDbSymbolTableRecord
100
AcDbRegAppTableRecord
  2
EZDXF
 70
0
  0
ENDTAB
  0
TABLE
  2
DIMSTYLE
  5
4
330
0
100
AcDbSymbolTable
 70
2
100
AcDbDimStyleTable
  0
DIMSTYLE
105
2B
330
4
100
AcDbSymbolTableRecord
100
AcDbDimStyleTableRecord
  2
Standard
 70
0
 40
1.0
 41
2.5
 42
0.625
 43
3.75
 44
1.25
 45
0.0
 46
0.0
 47
0.0
 48
0.0
 49
2.5
140
2.5
141
2.5
142
0.0
143
0.03937007874
144
1.0
145
0.0
146
1.0
147
0.625
148
0.0
 69
0
 70
0
 71
0
 72
0
 73
0
 74
0
 75
0
 76
0
 77
1
 78
8
 79
3
170
0
171
3
172
1
173
0
174
0
175
0
176
0
177
0
178
0
179
2
271
2
272
2
273
2
274
3
275
0
276
0
277
2
278
44
279
0
280
0
281
0
282
0
283
0
284
8
285
0
286
0
288
0
289
3
290
0
371
-2
372
-2
  0
DIMSTYLE
105
45
330
4
100
AcDbSymbolTableRecord
100
AcDbDimStyleTableRecord
  2
ARCH_JKR
 70
0
 40
100.0
 41
2.5
 42
2.0
 43
3.75
 44
2.0
 45
0.0
 46
0.0
 47
0.0
 48
0.0
 49
2.5
140
2.5
141
2.5
142
0.0
143
0.03937007874
144
1.0
145
0.0
146
1.0
147
1.0
148
0.0
 69
0
 70
0
 71
0
 72
0
 73
0
 74
0
 75
0
 76
0
 77
1
 78
8
 79
3
170
0
171
3
172
1
173
0
174
0
175
0
176
0
177
0
178
0
179
2
271
2
272
2
273
2
274
3
275
0
276
0
277
2
278
44
279
0
280
0
281
0
282
0
283
0
284
8
285
0
286
0
288
0
289
3
290
0
342
41
371
-2
372
-2
  0
ENDTAB
  0
TABLE
  2
BLOCK_RECORD
  5
9
330
0
100
AcDbSymbolTable
 70
7
  0
BLOCK_RECORD
  5
17
330
9
100
AcDbSymbolTableRecord
100
AcDbBlockTableRecord
  2
*Model_Space
340
1A
 70
0
280
1
281
0
  0
BLOCK_RECORD
  5
1B
330
9
100
AcDbSymbolTableRecord
100
AcDbBlockTableRecord
  2
*Paper_Space
340
1E
 70
0
280
1
281
0
  0
BLOCK_RECORD
  5
41
330
9
100
AcDbSymbolTableRecord
100
AcDbBlockTableRecord
  2
_ARCHTICK
340
0
 70
0
280
1
281
0
  0
BLOCK_RECORD
  5
46
330
9
100
AcDbSymbolTableRecord
100
AcDbBlockTableRecord
  2
DOOR_TAG
340
0
 70
0
280
1
281
0
  0
BLOCK_RECORD
  5
4B
330
9
100
AcDbSymbolTableRecord
100
AcDbBlockTableRecord
  2
WINDOW_TAG
340
0
 70
0
280
1
281
0
  0
BLOCK_RECORD
  5
4F
330
9
100
AcDbSymbolTableRecord
100
AcDbBlockTableRecord
  2
SECTION_ARROW
340
0
 70
0
280
1
281
0
  0
BLOCK_RECORD
  5
53
330
9
100
AcDbSymbolTableRecord
100
AcDbBlockTableRecord
  2
ELEVATION_TAG
340
0
 70
0
280
1
281
0
  0
ENDTAB
  0
ENDSEC
  0
SECTION
  2
BLOCKS
  0
BLOCK
  5
18
330
17
100
AcDbEntity
  8
0
100
AcDbBlockBegin
  2
*Model_Space
 70
0
 10
0.0
 20
0.0
 30
0.0
  3
*Model_Space
  1

  0
ENDBLK
  5
19
330
17
100
AcDbEntity
  8
0
100
AcDbBlockEnd
  0
BLOCK
  5
1C
330
1B
100
AcDbEntity
  8
0
100
AcDbBlockBegin
  2
*Paper_Space
 70
0
 10
0.0
 20
0.0
 30
0.0
  3
*Paper_Space
  1

  0
ENDBLK
  5
1D
330
1B
100
AcDbEntity
  8
0
100
AcDbBlockEnd
  0
BLOCK
  5
42
330
41
100
AcDbEntity
  8
0
100
AcDbBlockBegin
  2
_ARCHTICK
 70
0
 10
0.0
 20
0.0
 30
0.0
  3
_ARCHTICK
  1

  0
LWPOLYLINE
  5
44
330
41
100
AcDbEntity
  8
0
  6
BYBLOCK
 62
0
100
AcDbPolyline
 90
2
 70
0
 43
0.15
 10
-0.5
 20
-0.5
 10
0.5
 20
0.5
  0
ENDBLK
  5
43
330
41
100
AcDbEntity
  8
0
100
AcDbBlockEnd
  0
BLOCK
  5
47
330
46
100
AcDbEntity
  8
0
100
AcDbBlockBegin
  2
DOOR_TAG
 70
0
 10
0.0
 20
0.0
 30
0.0
  3
DOOR_TAG
  1

  0
CIRCLE
  5
49
330
46
100
AcDbEntity
  8
0
370
25
100
AcDbCircle
 10
0.0
 20
0.0
 30
0.0
 40
1.0
  0
LINE
  5
4A
330
46
100
AcDbEntity
  8
0
370
25
100
AcDbLine
 10
-1.0
 20
0.0
 30
0.0
 11
1.0
 21
0.0
 31
0.0
  0
ENDBLK
  5
48
330
46
100
AcDbEntity
  8
0
100
AcDbBlockEnd
  0
BLOCK
  5
4C
330
4B
100
AcDbEntity
  8
0
100
AcDbBlockBegin
  2
WINDOW_TAG
 70
0
 10
0.0
 20
0.0
 30
0.0
  3
WINDOW_TAG
  1

  0
LWPOLYLINE
  5
4E
330
4B
100
AcDbEntity
  8
0
370
25
100
AcDbPolyline
 90
6
 70
1
 10
0.8660254037844387
 20
0.49999999999999994
 10
6.123233995736766e-17
 20
1.0
 10
-0.8660254037844387
 20
0.49999999999999994
 10
-0.8660254037844386
 20
-0.5000000000000001
 10
-1.8369701987210297e-16
 20
-1.0
 10
0.8660254037844384
 20
-0.5000000000000004
  0
ENDBLK
  5
4D
330
4B
100
AcDbEntity
  8
0
100
AcDbBlockEnd
  0
BLOCK
  5
50
330
4F
100
AcDbEntity
  8
0
100
AcDbBlockBegin
  2
SECTION_ARROW
 70
0
 10
0.0
 20
0.0
 30
0.0
  3
SECTION_ARROW
  1

  0
LWPOLYLINE
  5
52
330
4F
100
AcDbEntity
  8
0
370
25
100
AcDbPolyline
 90
3
 70
1
 10
-1.0
 20
0.0
 10
0.0
 20
1.414
 10
1.0
 20
0.0
  0
ENDBLK
  5
51
330
4F
100
AcDbEntity
  8
0
100
AcDbBlockEnd
  0
BLOCK
  5
54
330
53
100
AcDbEntity
  8
0
100
AcDbBlockBegin
  2
ELEVATION_TAG
 70
0
 10
0.0
 20
0.0
 30
0.0
  3
ELEVATION_TAG
  1

  0
CIRCLE
  5
56
330
53
100
AcDbEntity
  8
0
370
25
100
AcDbCircle
 10
0.0
 20
0.0
 30
0.0
 40
1.0
  0
LINE
  5
57
330
53
100
AcDbEntity
  8
0
370
25
100
AcDbLine
 10
-1.0
 20
0.0
 30
0.0
 11
1.0
 21
0.0
 31
0.0
  0
ENDBLK
  5
55
330
53
100
AcDbEntity
  8
0
100
AcDbBlockEnd
  0
ENDSEC
  0
SECTION
  2
ENTITIES
  0
LWPOLYLINE
  5
58
330
17
100
AcDbEntity
  8
A-WALL-FULL
370
35
100
AcDbPolyline
 90
4
 70
1
 10
0.0
 20
-417.00005531311035
 10
8800.000190734863
 20
-417.00005531311035
 10
8800.000190734863
 20
0.0
 10
0.0
 20
0.0
  0
LWPOLYLINE
  5
59
330
17
100
AcDbEntity
  8
A-WALL-FULL
370
35
100
AcDbPolyline
 90
4
 70
1
 10
8382.999420166016
 20
-17800.003051757812
 10
8800.000190734863
 20
-17800.003051757812
 10
8800.000190734863
 20
-416.9999957084656
 10
8382.999420166016
 20
-416.9999957084656
  0
LWPOLYLINE
  5
5A
330
17
100
AcDbEntity
  8
A-WALL-FULL
370
35
100
AcDbPolyline
 90
4
 70
1
 10
-3.552713678800501e-12
 20
-17800.003051757812
 10
8383.000373840332
 20
-17800.003051757812
 10
8383.000373840332
 20
-17382.999420166016
 10
-3.552713678800501e-12
 20
-17382.999420166016
  0
LWPOLYLINE
  5
5B
330
17
100
AcDbEntity
  8
A-WALL-FULL
370
35
100
AcDbPolyline
 90
4
 70
1
 10
-9.992007221626409e-13
 20
-17383.00132751465
 10
417.00005531311035
 20
-17383.00132751465
 10
417.00005531311035
 20
-416.9999957084656
 10
-9.992007221626409e-13
 20
-416.9999957084656
  0
LWPOLYLINE
  5
5C
330
17
100
AcDbEntity
  8
A-WALL-FULL
370
35
100
AcDbPolyline
 90
4
 70
1
 10
0.0
 20
-417.00005531311035
 10
8800.000190734863
 20
-417.00005531311035
 10
8800.000190734863
 20
0.0
 10
0.0
 20
0.0
  0
LWPOLYLINE
  5
5D
330
17
100
AcDbEntity
  8
A-WALL-FULL
370
35
100
AcDbPolyline
 90
4
 70
1
 10
8382.999420166016
 20
-17800.003051757812
 10
8800.000190734863
 20
-17800.003051757812
 10
8800.000190734863
 20
0.0
 10
8382.999420166016
 20
0.0
  0
LWPOLYLINE
  5
5E
330
17
100
AcDbEntity
  8
A-WALL-FULL
370
35
100
AcDbPolyline
 90
4
 70
1
 10
0.0
 20
-17800.003051757812
 10
8800.000190734863
 20
-17800.003051757812
 10
8800.000190734863
 20
-17382.999420166016
 10
0.0
 20
-17382.999420166016
  0
LWPOLYLINE
  5
5F
330
17
100
AcDbEntity
  8
A-WALL-FULL
370
35
100
AcDbPolyline
 90
4
 70
1
 10
-4.9960036108132044e-12
 20
-17800.003051757812
 10
417.00005531311035
 20
-17800.003051757812
 10
417.00005531311035
 20
0.0
 10
-4.9960036108132044e-12
 20
0.0
  0
LWPOLYLINE
  5
60
330
17
100
AcDbEntity
  8
A-WALL-FULL
370
35
100
AcDbPolyline
 90
4
 70
1
 10
0.0
 20
-417.00005531311035
 10
8800.000190734863
 20
-417.00005531311035
 10
8800.000190734863
 20
0.0
 10
0.0
 20
0.0
  0
LWPOLYLINE
  5
61
330
17
100
AcDbEntity
  8
A-WALL-FULL
370
35
100
AcDbPolyline
 90
4
 70
1
 10
8382.999420166016
 20
-17800.003051757812
 10
8800.000190734863
 20
-17800.003051757812
 10
8800.000190734863
 20
-416.9999957084656
 10
8382.999420166016
 20
-416.9999957084656
  0
LWPOLYLINE
  5
62
330
17
100
AcDbEntity
  8
A-WALL-FULL
370
35
100
AcDbPolyline
 90
4
 70
1
 10
-3.552713678800501e-12
 20
-17800.003051757812
 10
8383.000373840332
 20
-17800.003051757812
 10
8383.000373840332
 20
-17382.999420166016
 10
-3.552713678800501e-12
 20
-17382.999420166016
  0
LWPOLYLINE
  5
63
330
17
100
AcDbEntity
  8
A-WALL-FULL
370
35
100
AcDbPolyline
 90
4
 70
1
 10
-9.992007221626409e-13
 20
-17383.00132751465
 10
417.00005531311035
 20
-17383.00132751465
 10
417.00005531311035
 20
-416.9999957084656
 10
-9.992007221626409e-13
 20
-416.9999957084656
  0
LWPOLYLINE
  5
64
330
17
100
AcDbEntity
  8
A-WALL-FULL
370
35
100
AcDbPolyline
 90
4
 70
1
 10
0.0
 20
-417.00005531311035
 10
8800.000190734863
 20
-417.00005531311035
 10
8800.000190734863
 20
1.9984014443252818e-12
 10
0.0
 20
1.9984014443252818e-12
  0
LWPOLYLINE
  5
65
330
17
100
AcDbEntity
  8
A-WALL-FULL
370
35
100
AcDbPolyline
 90
4
 70
1
 10
8382.999420166016
 20
-17800.003051757812
 10
8800.000190734863
 20
-17800.003051757812
 10
8800.000190734863
 20
-416.9999957084656
 10
8382.999420166016
 20
-416.9999957084656
  0
LWPOLYLINE
  5
66
330
17
100
AcDbEntity
  8
A-WALL-FULL
370
35
100
AcDbPolyline
 90
4
 70
1
 10
0.0
 20
-17800.003051757812
 10
8383.000373840332
 20
-17800.003051757812
 10
8383.000373840332
 20
-17382.999420166016
 10
0.0
 20
-17382.999420166016
  0
LWPOLYLINE
  5
67
330
17
100
AcDbEntity
  8
A-WALL-FULL
370
35
100
AcDbPolyline
 90
4
 70
1
 10
9.992007221626409e-13
 20
-17383.00132751465
 10
417.00005531311035
 20
-17383.00132751465
 10
417.00005531311035
 20
-416.9999957084656
 10
9.992007221626409e-13
 20
-416.9999957084656
  0
LWPOLYLINE
  5
68
330
17
100
AcDbEntity
  8
A-WALL-FULL
370
35
100
AcDbPolyline
 90
4
 70
1
 10
4182.499885559082
 20
-8017.500877380371
 10
8383.000373840332
 20
-8017.500877380371
 10
8383.000373840332
 20
-7582.499980926514
 10
4182.499885559082
 20
-7582.499980926514
  0
LWPOLYLINE
  5
69
330
17
100
AcDbEntity
  8
A-WALL-FULL
370
35
100
AcDbPolyline
 90
4
 70
1
 10
416.9999957084656
 20
-10217.501640319824
 10
4617.500782012939
 20
-10217.501640319824
 10
4617.500782012939
 20
-9782.498359680176
 10
416.9999957084656
 20
-9782.498359680176
  0
LWPOLYLINE
  5
6A
330
17
100
AcDbEntity
  8
A-WALL-FULL
370
35
100
AcDbPolyline
 90
4
 70
1
 10
4182.499885559082
 20
-9782.500267028809
 10
4617.500782012939
 20
-9782.500267028809
 10
4617.500782012939
 20
-8017.499923706055
 10
4182.499885559082
 20
-8017.499923706055
  0
LWPOLYLINE
  5
6B
330
17
100
AcDbEntity
  8
A-WALL-FULL
370
35
100
AcDbPolyline
 90
4
 70
1
 10
4029.9997329711914
 20
-7582.000732421875
 10
8383.000373840332
 20
-7582.000732421875
 10
8383.000373840332
 20
-7429.999828338623
 10
4029.9997329711914
 20
-7429.999828338623
  0
LWPOLYLINE
  5
6C
330
17
100
AcDbEntity
  8
A-WALL-FULL
370
35
100
AcDbPolyline
 90
4
 70
1
 10
4029.9997329711914
 20
-9725.000381469727
 10
4182.000160217285
 20
-9725.000381469727
 10
4182.000160217285
 20
-7581.999778747559
 10
4029.9997329711914
 20
-7581.999778747559
  0
LWPOLYLINE
  5
6D
330
17
100
AcDbEntity
  8
A-WALL-FULL
370
35
100
AcDbPolyline
 90
4
 70
1
 10
4617.99955368042
 20
-10370.000839233398
 10
4770.000457763672
 20
-10370.000839233398
 10
4770.000457763672
 20
-8074.999809265137
 10
4617.99955368042
 20
-8074.999809265137
  0
LWPOLYLINE
  5
6E
330
17
100
AcDbEntity
  8
A-WALL-FULL
370
35
100
AcDbPolyline
 90
4
 70
1
 10
416.9999957084656
 20
-10370.000839233398
 10
4618.000030517578
 20
-10370.000839233398
 10
4618.000030517578
 20
-10217.998504638672
 10
416.9999957084656
 20
-10217.998504638672
  0
LWPOLYLINE
  5
6F
330
17
100
AcDbEntity
  8
A-WALL-FULL
370
35
100
AcDbPolyline
 90
4
 70
1
 10
4617.99955368042
 20
-10950.00171661377
 10
4770.000457763672
 20
-10950.00171661377
 10
4770.000457763672
 20
-6789.999961853027
 10
4617.99955368042
 20
-6789.999961853027
  0
LWPOLYLINE
  5
70
330
17
100
AcDbEntity
  8
A-WALL-FULL
370
35
100
AcDbPolyline
 90
4
 70
1
 10
4029.9997329711914
 20
-11010.000228881836
 10
4182.000160217285
 20
-11010.000228881836
 10
4182.000160217285
 20
-6849.999904632568
 10
4029.9997329711914
 20
-6849.999904632568
  0
LWPOLYLINE
  5
71
330
17
100
AcDbEntity
  8
A-WALL-FULL
370
35
100
AcDbPolyline
 90
4
 70
1
 10
6840.449810028076
 20
-6594.450950622559
 10
7923.550128936768
 20
-6594.450950622559
 10
7923.550128936768
 20
-6540.449142456055
 10
6840.449810028076
 20
-6540.449142456055
  0
LWPOLYLINE
  5
72
330
17
100
AcDbEntity
  8
A-WALL-FULL
370
35
100
AcDbPolyline
 90
4
 70
1
 10
6840.449810028076
 20
-7729.550838470459
 10
6894.4501876831055
 20
-7729.550838470459
 10
6894.4501876831055
 20
-6594.449996948242
 10
6840.449810028076
 20
-6594.449996948242
  0
LWPOLYLINE
  5
73
330
17
100
AcDbEntity
  8
A-WALL-FULL
370
35
100
AcDbPolyline
 90
4
 70
1
 10
6894.449234008789
 20
-7729.550838470459
 10
7977.550029754639
 20
-7729.550838470459
 10
7977.550029754639
 20
-7675.5499839782715
 10
6894.449234008789
 20
-7675.5499839782715
  0
LWPOLYLINE
  5
74
330
17
100
AcDbEntity
  8
A-WALL-FULL
370
35
100
AcDbPolyline
 90
4
 70
1
 10
7923.549175262451
 20
-7675.550937652588
 10
7977.550029754639
 20
-7675.550937652588
 10
7977.550029754639
 20
-6540.449142456055
 10
7923.549175262451
 20
-6540.449142456055
  0
LWPOLYLINE
  5
75
330
17
100
AcDbEntity
  8
A-WALL-FULL
370
35
100
AcDbPolyline
 90
4
 70
1
 10
807.449996471405
 20
-10124.451637268066
 10
1890.5500173568726
 20
-10124.451637268066
 10
1890.5500173568726
 20
-10070.449829101562
 10
807.449996471405
 20
-10070.449829101562
  0
LWPOLYLINE
  5
76
330
17
100
AcDbEntity
  8
A-WALL-FULL
370
35
100
AcDbPolyline
 90
4
 70
1
 10
807.449996471405
 20
-11259.550094604492
 10
861.4500164985657
 20
-11259.550094604492
 10
861.4500164985657
 20
-10124.449729919434
 10
807.449996471405
 20
-10124.449729919434
  0
LWPOLYLINE
  5
77
330
17
100
AcDbEntity
  8
A-WALL-FULL
370
35
100
AcDbPolyline
 90
4
 70
1
 10
861.4498972892761
 20
-11259.550094604492
 10
1944.5500373840332
 20
-11259.550094604492
 10
1944.5500373840332
 20
-11205.548286437988
 10
861.4498972892761
 20
-11205.548286437988
  0
LWPOLYLINE
  5
78
330
17
100
AcDbEntity
  8
A-WALL-FULL
370
35
100
AcDbPolyline
 90
4
 70
1
 10
1890.5497789382935
 20
-11205.550193786621
 10
1944.5500373840332
 20
-11205.550193786621
 10
1944.5500373840332
 20
-10070.449829101562
 10
1890.5497789382935
 20
-10070.449829101562
  0
LWPOLYLINE
  5
79
330
17
100
AcDbEntity
  8
A-WALL-FULL
370
35
100
AcDbPolyline
 90
4
 70
1
 10
2475.999593734741
 20
-4000.000476837158
 10
2600.0003814697266
 20
-4000.000476837158
 10
2600.0003814697266
 20
-416.9999957084656
 10
2475.999593734741
 20
-416.9999957084656
  0
LWPOLYLINE
  5
7A
330
17
100
AcDbEntity
  8
A-WALL-FULL
370
35
100
AcDbPolyline
 90
4
 70
1
 10
2449.9998092651367
 20
-9725.000381469727
 10
2574.000358581543
 20
-9725.000381469727
 10
2574.000358581543
 20
-6804.999828338623
 10
2449.9998092651367
 20
-6804.999828338623
  0
LWPOLYLINE
  5
7B
330
17
100
AcDbEntity
  8
A-WALL-FULL
370
35
100
AcDbPolyline
 90
4
 70
1
 10
6225.99983215332
 20
-10995.000839233398
 10
6350.000858306885
 20
-10995.000839233398
 10
6350.000858306885
 20
-8074.999809265137
 10
6225.99983215332
 20
-8074.999809265137
  0
LWPOLYLINE
  5
7C
330
17
100
AcDbEntity
  8
A-WALL-FULL
370
35
100
AcDbPolyline
 90
4
 70
1
 10
4769.999980926514
 20
-10370.000839233398
 10
6226.000785827637
 20
-10370.000839233398
 10
6226.000785827637
 20
-10245.99838256836
 10
4769.999980926514
 20
-10245.99838256836
  0
LWPOLYLINE
  5
7D
330
17
100
AcDbEntity
  8
A-WALL-FULL
370
35
100
AcDbPolyline
 90
4
 70
1
 10
6199.999809265137
 20
-17383.00132751465
 10
6324.000835418701
 20
-17383.00132751465
 10
6324.000835418701
 20
-13799.99828338623
 10
6199.999809265137
 20
-13799.99828338623
  0
LWPOLYLINE
  5
7E
330
17
100
AcDbEntity
  8
A-WALL-FULL
370
35
100
AcDbPolyline
 90
4
 70
1
 10
416.9999957084656
 20
-6250.0
 10
2506.00004196167
 20
-6250.0
 10
2506.00004196167
 20
-6125.999927520752
 10
416.9999957084656
 20
-6125.999927520752
  0
LWPOLYLINE
  5
7F
330
17
100
AcDbEntity
  8
A-WALL-FULL
370
35
100
AcDbPolyline
 90
4
 70
1
 10
2381.999969482422
 20
-11674.001693725586
 10
2506.00004196167
 20
-11674.001693725586
 10
2506.00004196167
 20
-6250.0
 10
2381.999969482422
 20
-6250.0
  0
LWPOLYLINE
  5
80
330
17
100
AcDbEntity
  8
A-WALL-FULL
370
35
100
AcDbPolyline
 90
4
 70
1
 10
416.9999957084656
 20
-11674.001693725586
 10
2382.000207901001
 20
-11674.001693725586
 10
2382.000207901001
 20
-11549.99828338623
 10
416.9999957084656
 20
-11549.99828338623
  0
LWPOLYLINE
  5
81
330
17
100
AcDbEntity
  8
A-WALL-FULL
370
35
100
AcDbPolyline
 90
4
 70
1
 10
2505.999803543091
 20
-11134.001731872559
 10
4125.0
 20
-11134.001731872559
 10
4125.0
 20
-11009.998321533203
 10
2505.999803543091
 20
-11009.998321533203
  0
LWPOLYLINE
  5
82
330
17
100
AcDbEntity
  8
A-WALL-FULL
370
35
100
AcDbPolyline
 90
4
 70
1
 10
6293.999195098877
 20
-11674.001693725586
 10
8383.000373840332
 20
-11674.001693725586
 10
8383.000373840332
 20
-11549.99828338623
 10
6293.999195098877
 20
-11549.99828338623
  0
LWPOLYLINE
  5
83
330
17
100
AcDbEntity
  8
A-WALL-FULL
370
35
100
AcDbPolyline
 90
4
 70
1
 10
6293.999195098877
 20
-11550.000190734863
 10
6418.000221252441
 20
-11550.000190734863
 10
6418.000221252441
 20
-6125.999927520752
 10
6293.999195098877
 20
-6125.999927520752
  0
LWPOLYLINE
  5
84
330
17
100
AcDbEntity
  8
A-WALL-FULL
370
35
100
AcDbPolyline
 90
4
 70
1
 10
6417.999267578125
 20
-6250.0
 10
8383.000373840332
 20
-6250.0
 10
8383.000373840332
 20
-6125.999927520752
 10
6417.999267578125
 20
-6125.999927520752
  0
LWPOLYLINE
  5
85
330
17
100
AcDbEntity
  8
A-WALL-FULL
370
35
100
AcDbPolyline
 90
4
 70
1
 10
4674.999237060547
 20
-6790.000915527344
 10
6294.000148773193
 20
-6790.000915527344
 10
6294.000148773193
 20
-6665.999889373779
 10
4674.999237060547
 20
-6665.999889373779
  0
LWPOLYLINE
  5
86
330
17
100
AcDbEntity
  8
A-WALL-FULL
370
35
100
AcDbPolyline
 90
4
 70
1
 10
2573.9998817443848
 20
-7554.0008544921875
 10
4030.0002098083496
 20
-7554.0008544921875
 10
4030.0002098083496
 20
-7429.999828338623
 10
2573.9998817443848
 20
-7429.999828338623
  0
LWPOLYLINE
  5
87
330
17
100
AcDbEntity
  8
A-WALL-FULL
370
35
100
AcDbPolyline
 90
4
 70
1
 10
2505.999803543091
 20
-10094.051361083984
 10
4030.0002098083496
 20
-10094.051361083984
 10
4030.0002098083496
 20
-9970.050811767578
 10
2505.999803543091
 20
-9970.050811767578
  0
LWPOLYLINE
  5
88
330
17
100
AcDbEntity
  8
A-WALL-FULL
370
35
100
AcDbPolyline
 90
4
 70
1
 10
4769.999980926514
 20
-7845.3850746154785
 10
6294.000148773193
 20
-7845.3850746154785
 10
6294.000148773193
 20
-7721.384048461914
 10
4769.999980926514
 20
-7721.384048461914
  0
LWPOLYLINE
  5
89
330
17
100
AcDbEntity
  8
A-WALL-FULL
370
35
100
AcDbPolyline
 90
4
 70
1
 10
1431.399941444397
 20
-9725.000381469727
 10
1555.400013923645
 20
-9725.000381469727
 10
1555.400013923645
 20
-6250.0
 10
1431.399941444397
 20
-6250.0
  0
LWPOLYLINE
  5
8A
330
17
100
AcDbEntity
  8
A-WALL-FULL
370
35
100
AcDbPolyline
 90
4
 70
1
 10
7244.59981918335
 20
-11550.000190734863
 10
7368.600845336914
 20
-11550.000190734863
 10
7368.600845336914
 20
-8074.999809265137
 10
7244.59981918335
 20
-8074.999809265137
  0
LWPOLYLINE
  5
8B
330
17
100
AcDbEntity
  8
A-WALL-FULL
370
35
100
AcDbPolyline
 90
4
 70
1
 10
2505.999803543091
 20
-6850.000858306885
 10
4125.0
 20
-6850.000858306885
 10
4125.0
 20
-6665.999889373779
 10
2505.999803543091
 20
-6665.999889373779
  0
LWPOLYLINE
  5
8C
330
17
100
AcDbEntity
  8
A-WALL-FULL
370
35
100
AcDbPolyline
 90
4
 70
1
 10
4674.999237060547
 20
-11134.001731872559
 10
6294.000148773193
 20
-11134.001731872559
 10
6294.000148773193
 20
-10949.999809265137
 10
4674.999237060547
 20
-10949.999809265137
  0
LWPOLYLINE
  5
8D
330
17
100
AcDbEntity
  8
A-WALL-FULL
370
35
100
AcDbPolyline
 90
4
 70
1
 10
4181.999683380127
 20
-8075.000762939453
 10
8383.000373840332
 20
-8075.000762939453
 10
8383.000373840332
 20
-7581.999778747559
 10
4181.999683380127
 20
-7581.999778747559
  0
LWPOLYLINE
  5
8E
330
17
100
AcDbEntity
  8
A-WALL-FULL
370
35
100
AcDbPolyline
 90
4
 70
1
 10
416.9999957084656
 20
-10218.000411987305
 10
4618.000030517578
 20
-10218.000411987305
 10
4618.000030517578
 20
-9724.998474121094
 10
416.9999957084656
 20
-9724.998474121094
  0
LWPOLYLINE
  5
8F
330
17
100
AcDbEntity
  8
A-WALL-FULL
370
35
100
AcDbPolyline
 90
4
 70
1
 10
4124.999523162842
 20
-10000.000953674316
 10
4675.000190734863
 20
-10000.000953674316
 10
4675.000190734863
 20
-7799.999237060547
 10
4124.999523162842
 20
-7799.999237060547
  0
LWPOLYLINE
  5
90
330
17
100
AcDbEntity
  8
A-WALL-FULL
370
35
100
AcDbPolyline
 90
4
 70
1
 10
4125.0
 20
-17383.00132751465
 10
4675.000190734863
 20
-17383.00132751465
 10
4675.000190734863
 20
-416.9999957084656
 10
4125.0
 20
-416.9999957084656
  0
LWPOLYLINE
  5
91
330
17
100
AcDbEntity
  8
A-MEP-PLMB
370
18
100
AcDbPolyline
 90
4
 70
1
 10
4769.999980926514
 20
-8890.000343322754
 10
5635.000228881836
 20
-8890.000343322754
 10
5635.000228881836
 20
-8074.999809265137
 10
4769.999980926514
 20
-8074.999809265137
  0
LWPOLYLINE
  5
92
330
17
100
AcDbEntity
  8
A-MEP-PLMB
370
18
100
AcDbPolyline
 90
4
 70
1
 10
4769.999980926514
 20
-10024.523735046387
 10
5512.950420379639
 20
-10024.523735046387
 10
5512.950420379639
 20
-9568.098068237305
 10
4769.999980926514
 20
-9568.098068237305
  0
LWPOLYLINE
  5
93
330
17
100
AcDbEntity
  8
A-MEP-PLMB
370
18
100
AcDbPolyline
 90
4
 70
1
 10
4769.999980926514
 20
-9425.000190734863
 10
5255.000114440918
 20
-9425.000190734863
 10
5255.000114440918
 20
-8889.999389648438
 10
4769.999980926514
 20
-8889.999389648438
  0
LWPOLYLINE
  5
94
330
17
100
AcDbEntity
  8
A-MEP-PLMB
370
18
100
AcDbPolyline
 90
4
 70
1
 10
3164.9999618530273
 20
-9725.000381469727
 10
4030.0002098083496
 20
-9725.000381469727
 10
4030.0002098083496
 20
-8909.99984741211
 10
3164.9999618530273
 20
-8909.99984741211
  0
LWPOLYLINE
  5
95
330
17
100
AcDbEntity
  8
A-MEP-PLMB
370
18
100
AcDbPolyline
 90
4
 70
1
 10
3287.0495319366455
 20
-8232.141494750977
 10
4030.0002098083496
 20
-8232.141494750977
 10
4030.0002098083496
 20
-7775.7158279418945
 10
3287.0495319366455
 20
-7775.7158279418945
  0
LWPOLYLINE
  5
96
330
17
100
AcDbEntity
  8
A-MEP-PLMB
370
18
100
AcDbPolyline
 90
4
 70
1
 10
3544.999599456787
 20
-8910.000801086426
 10
4030.0002098083496
 20
-8910.000801086426
 10
4030.0002098083496
 20
-8375.0
 10
3544.999599456787
 20
-8375.0
  0
LWPOLYLINE
  5
97
330
17
100
AcDbEntity
  8
A-MEP-PLMB
370
18
100
AcDbPolyline
 90
4
 70
1
 10
2737.499952316284
 20
-10886.001586914062
 10
3194.50044631958
 20
-10886.001586914062
 10
3194.50044631958
 20
-10430.999755859375
 10
2737.499952316284
 20
-10430.999755859375
  0
LWPOLYLINE
  5
98
330
17
100
AcDbEntity
  8
A-MEP-PLMB
370
18
100
AcDbPolyline
 90
4
 70
1
 10
5605.499267578125
 20
-7369.0009117126465
 10
6062.5
 20
-7369.0009117126465
 10
6062.5
 20
-6913.999080657959
 10
5605.499267578125
 20
-6913.999080657959
  0
LWPOLYLINE
  5
99
330
17
100
AcDbEntity
  8
A-MEP-PLMB
370
18
100
AcDbPolyline
 90
4
 70
1
 10
4768.499851226807
 20
-10966.001510620117
 10
6293.500900268555
 20
-10966.001510620117
 10
6293.500900268555
 20
-10205.998420715332
 10
4768.499851226807
 20
-10205.998420715332
  0
LWPOLYLINE
  5
9A
330
17
100
AcDbEntity
  8
A-MEP-PLMB
370
18
100
AcDbPolyline
 90
4
 70
1
 10
4768.499851226807
 20
-9894.28424835205
 10
5511.45076751709
 20
-9894.28424835205
 10
5511.45076751709
 20
-9437.858581542969
 10
4768.499851226807
 20
-9437.858581542969
  0
LWPOLYLINE
  5
9B
330
17
100
AcDbEntity
  8
A-MEP-PLMB
370
18
100
AcDbPolyline
 90
4
 70
1
 10
4769.999980926514
 20
-9145.3857421875
 10
5255.000114440918
 20
-9145.3857421875
 10
5255.000114440918
 20
-8495.384216308594
 10
4769.999980926514
 20
-8495.384216308594
  0
LWPOLYLINE
  5
9C
330
17
100
AcDbEntity
  8
A-MEP-PLMB
370
18
100
AcDbPolyline
 90
4
 70
1
 10
4769.999980926514
 20
-8495.38516998291
 10
5255.000114440918
 20
-8495.38516998291
 10
5255.000114440918
 20
-7845.384120941162
 10
4769.999980926514
 20
-7845.384120941162
  0
LWPOLYLINE
  5
9D
330
17
100
AcDbEntity
  8
A-MEP-PLMB
370
18
100
AcDbPolyline
 90
4
 70
1
 10
3544.999599456787
 20
-9970.052719116211
 10
4030.0002098083496
 20
-9970.052719116211
 10
4030.0002098083496
 20
-9320.050239562988
 10
3544.999599456787
 20
-9320.050239562988
  0
LWPOLYLINE
  5
9E
330
17
100
AcDbEntity
  8
A-MEP-PLMB
370
18
100
AcDbPolyline
 90
4
 70
1
 10
3544.999599456787
 20
-9320.051193237305
 10
4030.0002098083496
 20
-9320.051193237305
 10
4030.0002098083496
 20
-8670.050621032715
 10
3544.999599456787
 20
-8670.050621032715
  0
LWPOLYLINE
  5
9F
330
17
100
AcDbEntity
  8
A-MEP-PLMB
370
18
100
AcDbPolyline
 90
4
 70
1
 10
3287.0495319366455
 20
-8378.141403198242
 10
4030.0002098083496
 20
-8378.141403198242
 10
4030.0002098083496
 20
-7921.715259552002
 10
3287.0495319366455
 20
-7921.715259552002
  0
LWPOLYLINE
  5
A0
330
17
100
AcDbEntity
  8
A-MEP-PLMB
370
18
100
AcDbPolyline
 90
4
 70
1
 10
2505.999803543091
 20
-7610.000133514404
 10
4031.0001373291016
 20
-7610.000133514404
 10
4031.0001373291016
 20
-6849.999904632568
 10
2505.999803543091
 20
-6849.999904632568
  0
LINE
  5
A1
330
17
100
AcDbEntity
  8
A-MEP-PLMB
370
13
100
AcDbLine
 10
6597.2349643707275
 20
-6881.750106811523
 30
0.0
 11
6597.2349643707275
 21
-6203.024864196777
 31
0.0
  0
LINE
  5
A2
330
17
100
AcDbEntity
  8
A-MEP-PLMB
370
13
100
AcDbLine
 10
8153.2793045043945
 20
-6155.40075302124
 30
0.0
 11
8153.2793045043945
 21
-4339.61820602417
 31
0.0
  0
LINE
  5
A3
330
17
100
AcDbEntity
  8
A-MEP-PLMB
370
13
100
AcDbLine
 10
8173.916816711426
 20
-4318.981170654297
 30
0.0
 11
8309.975624084473
 21
-4318.981170654297
 31
0.0
  0
LINE
  5
A4
330
17
100
AcDbEntity
  8
A-MEP-PLMB
370
13
100
AcDbLine
 10
8313.911437988281
 20
-4318.981170654297
 30
0.0
 11
8347.31388092041
 21
-4318.981170654297
 31
0.0
  0
LINE
  5
A5
330
17
100
AcDbEntity
  8
A-MEP-PLMB
370
13
100
AcDbLine
 10
406.46523237228394
 20
-17415.040969848633
 30
0.0
 11
6701.911926269531
 21
-17415.040969848633
 31
0.0
  0
LINE
  5
A6
330
17
100
AcDbEntity
  8
A-MEP-PLMB
370
13
100
AcDbLine
 10
385.82780957221985
 20
-12791.306495666504
 30
0.0
 11
385.82780957221985
 21
-11431.941032409668
 31
0.0
  0
LINE
  5
A7
330
17
100
AcDbEntity
  8
A-MEP-PLMB
370
13
100
AcDbLine
 10
546.465277671814
 20
-10440.352439880371
 30
0.0
 11
4782.199382781982
 21
-10440.352439880371
 31
0.0
  0
LINE
  5
A8
330
17
100
AcDbEntity
  8
A-MEP-PLMB
370
13
100
AcDbLine
 10
4802.835941314697
 20
-8013.463020324707
 30
0.0
 11
4802.835941314697
 21
-7580.990314483643
 31
0.0
  0
LINE
  5
A9
330
17
100
AcDbEntity
  8
A-MEP-PLMB
370
13
100
AcDbLine
 10
4823.4734535217285
 20
-7560.352563858032
 30
0.0
 11
5462.198734283447
 21
-7560.352563858032
 31
0.0
  0
LINE
  5
AA
330
17
100
AcDbEntity
  8
A-MEP-PLMB
370
13
100
AcDbLine
 10
6052.03104019165
 20
-6902.387857437134
 30
0.0
 11
6320.5108642578125
 21
-6902.387857437134
 31
0.0
  0
LINE
  5
AB
330
17
100
AcDbEntity
  8
A-MEP-PLMB
370
13
100
AcDbLine
 10
6324.446201324463
 20
-6902.387857437134
 30
0.0
 11
6357.857704162598
 21
-6902.387857437134
 31
0.0
  0
LINE
  5
AC
330
17
100
AcDbEntity
  8
A-MEP-PLMB
370
13
100
AcDbLine
 10
6361.793518066406
 20
-6902.387857437134
 30
0.0
 11
6576.598644256592
 21
-6902.387857437134
 31
0.0
  0
LINE
  5
AD
330
17
100
AcDbEntity
  8
A-MEP-PLMB
370
13
100
AcDbLine
 10
6617.872714996338
 20
-6182.387113571167
 30
0.0
 11
8126.2922286987305
 21
-6182.387113571167
 31
0.0
  0
LINE
  5
AE
330
17
100
AcDbEntity
  8
A-MEP-PLMB
370
13
100
AcDbLine
 10
8330.612659454346
 20
-6155.40075302124
 30
0.0
 11
8330.612659454346
 21
-6082.757472991943
 31
0.0
  0
LINE
  5
AF
330
17
100
AcDbEntity
  8
A-MEP-PLMB
370
13
100
AcDbLine
 10
8330.612659454346
 20
-6041.484355926514
 30
0.0
 11
8330.612659454346
 21
-5985.588073730469
 31
0.0
  0
LINE
  5
B0
330
17
100
AcDbEntity
  8
A-MEP-PLMB
370
13
100
AcDbLine
 10
8313.911437988281
 20
-6062.121152877808
 30
0.0
 11
8347.31388092041
 21
-6062.121152877808
 31
0.0
  0
LINE
  5
B1
330
17
100
AcDbEntity
  8
A-MEP-PLMB
370
13
100
AcDbLine
 10
8357.599258422852
 20
-6182.387113571167
 30
0.0
 11
8399.968147277832
 21
-6182.387113571167
 31
0.0
  0
LINE
  5
B2
330
17
100
AcDbEntity
  8
A-MEP-PLMB
370
13
100
AcDbLine
 10
8180.266380310059
 20
-6182.387113571167
 30
0.0
 11
8303.625106811523
 21
-6182.387113571167
 31
0.0
  0
LINE
  5
B3
330
17
100
AcDbEntity
  8
A-MEP-PLMB
370
13
100
AcDbLine
 10
8351.249694824219
 20
-6351.850271224976
 30
0.0
 11
8399.968147277832
 21
-6351.850271224976
 31
0.0
  0
LINE
  5
B4
330
17
100
AcDbEntity
  8
A-MEP-PLMB
370
13
100
AcDbLine
 10
8313.887596130371
 20
-15083.18567276001
 30
0.0
 11
8347.31388092041
 21
-15083.18567276001
 31
0.0
  0
LINE
  5
B5
330
17
100
AcDbEntity
  8
A-MEP-PLMB
370
13
100
AcDbLine
 10
8330.612659454346
 20
-17092.151641845703
 30
0.0
 11
8330.612659454346
 21
-17053.007125854492
 31
0.0
  0
LINE
  5
B6
330
17
100
AcDbEntity
  8
A-MEP-PLMB
370
13
100
AcDbLine
 10
8313.887596130371
 20
-17112.7872467041
 30
0.0
 11
8347.31388092041
 21
-17112.7872467041
 31
0.0
  0
LINE
  5
B7
330
17
100
AcDbEntity
  8
A-MEP-PLMB
370
13
100
AcDbLine
 10
7914.502859115601
 20
-17431.804656982422
 30
0.0
 11
7914.502859115601
 21
-17398.340225219727
 31
0.0
  0
LINE
  5
B8
330
17
100
AcDbEntity
  8
A-MEP-PLMB
370
13
100
AcDbLine
 10
6757.368326187134
 20
-17347.314834594727
 30
0.0
 11
6757.368326187134
 21
-17313.91143798828
 31
0.0
  0
LINE
  5
B9
330
17
100
AcDbEntity
  8
A-MEP-PLMB
370
13
100
AcDbLine
 10
6712.198734283447
 20
-17415.040969848633
 30
0.0
 11
6745.600700378418
 21
-17415.040969848633
 31
0.0
  0
LINE
  5
BA
330
17
100
AcDbEntity
  8
A-MEP-PLMB
370
13
100
AcDbLine
 10
385.82780957221985
 20
-14841.40682220459
 30
0.0
 11
385.82780957221985
 21
-14808.002471923828
 31
0.0
  0
LINE
  5
BB
330
17
100
AcDbEntity
  8
A-MEP-PLMB
370
13
100
AcDbLine
 10
385.82780957221985
 20
-14797.717094421387
 30
0.0
 11
385.82780957221985
 21
-12845.279693603516
 31
0.0
  0
LINE
  5
BC
330
17
100
AcDbEntity
  8
A-MEP-PLMB
370
13
100
AcDbLine
 10
452.68699526786804
 20
-12851.064205169678
 30
0.0
 11
486.08800768852234
 21
-12851.064205169678
 31
0.0
  0
LINE
  5
BD
330
17
100
AcDbEntity
  8
A-MEP-PLMB
370
13
100
AcDbLine
 10
385.82780957221985
 20
-12834.993362426758
 30
0.0
 11
385.82780957221985
 21
-12801.591873168945
 31
0.0
  0
LINE
  5
BE
330
17
100
AcDbEntity
  8
A-MEP-PLMB
370
13
100
AcDbLine
 10
6173.612833023071
 20
-8057.150840759277
 30
0.0
 11
6173.612833023071
 21
-8023.748397827148
 31
0.0
  0
LINE
  5
BF
330
17
100
AcDbEntity
  8
A-MEP-PLMB
370
13
100
AcDbLine
 10
6275.95853805542
 20
-9016.426086425781
 30
0.0
 11
6309.360980987549
 21
-9016.426086425781
 31
0.0
  0
LINE
  5
C0
330
17
100
AcDbEntity
  8
A-MEP-PLMB
370
13
100
AcDbLine
 10
4829.8234939575195
 20
-8040.449619293213
 30
0.0
 11
6152.975082397461
 21
-8040.449619293213
 31
0.0
  0
LINE
  5
C1
330
17
100
AcDbEntity
  8
A-MEP-PLMB
370
13
100
AcDbLine
 10
4802.835941314697
 20
-8989.439964294434
 30
0.0
 11
4802.835941314697
 21
-8067.437171936035
 31
0.0
  0
LINE
  5
C2
330
17
100
AcDbEntity
  8
A-MEP-PLMB
370
13
100
AcDbLine
 10
4829.8234939575195
 20
-9016.426086425781
 30
0.0
 11
6272.0232009887695
 21
-9016.426086425781
 31
0.0
  0
LINE
  5
C3
330
17
100
AcDbEntity
  8
A-MEP-PLMB
370
13
100
AcDbLine
 10
4786.135196685791
 20
-9048.307418823242
 30
0.0
 11
4819.5366859436035
 21
-9048.307418823242
 31
0.0
  0
LINE
  5
C4
330
17
100
AcDbEntity
  8
A-MEP-PLMB
370
13
100
AcDbLine
 10
8313.911437988281
 20
-7595.659494400024
 30
0.0
 11
8347.31388092041
 21
-7595.659494400024
 31
0.0
  0
LINE
  5
C5
330
17
100
AcDbEntity
  8
A-MEP-PLMB
370
13
100
AcDbLine
 10
8351.249694824219
 20
-7625.025987625122
 30
0.0
 11
8399.968147277832
 21
-7625.025987625122
 31
0.0
  0
LINE
  5
C6
330
17
100
AcDbEntity
  8
A-MEP-PLMB
370
13
100
AcDbLine
 10
4829.8234939575195
 20
-10276.232719421387
 30
0.0
 11
6220.975875854492
 21
-10276.232719421387
 31
0.0
  0
LINE
  5
C7
330
17
100
AcDbEntity
  8
A-MEP-PLMB
370
13
100
AcDbLine
 10
4802.835941314697
 20
-10419.716835021973
 30
0.0
 11
4802.835941314697
 21
-10303.218841552734
 31
0.0
  0
LINE
  5
C8
330
17
100
AcDbEntity
  8
A-MEP-PLMB
370
13
100
AcDbLine
 10
6241.612195968628
 20
-10255.597114562988
 30
0.0
 11
6241.612195968628
 21
-9949.583053588867
 31
0.0
  0
LINE
  5
C9
330
17
100
AcDbEntity
  8
A-MEP-PLMB
370
13
100
AcDbLine
 10
6224.911212921143
 20
-9901.687622070312
 30
0.0
 11
6258.313179016113
 21
-9901.687622070312
 31
0.0
  0
LINE
  5
CA
330
17
100
AcDbEntity
  8
A-MEP-PLMB
370
13
100
AcDbLine
 10
4829.8234939575195
 20
-9080.188751220703
 30
0.0
 11
6220.975875854492
 21
-9080.188751220703
 31
0.0
  0
LINE
  5
CB
330
17
100
AcDbEntity
  8
A-MEP-PLMB
370
13
100
AcDbLine
 10
4802.835941314697
 20
-10249.245643615723
 30
0.0
 11
4802.835941314697
 21
-9107.175827026367
 31
0.0
  0
LINE
  5
CC
330
17
100
AcDbEntity
  8
A-MEP-PLMB
370
13
100
AcDbLine
 10
6224.911212921143
 20
-9109.17615890503
 30
0.0
 11
6258.313179016113
 21
-9109.17615890503
 31
0.0
  0
LINE
  5
CD
330
17
100
AcDbEntity
  8
A-MEP-PLMB
370
13
100
AcDbLine
 10
6241.612195968628
 20
-9193.46809387207
 30
0.0
 11
6241.612195968628
 21
-9158.799171447754
 31
0.0
  0
LINE
  5
CE
330
17
100
AcDbEntity
  8
A-MEP-PLMB
370
13
100
AcDbLine
 10
5452.479839324951
 20
-6919.088840484619
 30
0.0
 11
5452.479839324951
 21
-6885.686874389648
 31
0.0
  0
LINE
  5
CF
330
17
100
AcDbEntity
  8
A-MEP-PLMB
370
13
100
AcDbLine
 10
8313.911437988281
 20
-15112.61510848999
 30
0.0
 11
8347.31388092041
 21
-15112.61510848999
 31
0.0
  0
LINE
  5
D0
330
17
100
AcDbEntity
  8
A-MEP-PLMB
370
13
100
AcDbLine
 10
8313.911437988281
 20
-6378.908395767212
 30
0.0
 11
8347.31388092041
 21
-6378.908395767212
 31
0.0
  0
LINE
  5
D1
330
17
100
AcDbEntity
  8
A-MEP-PLMB
370
13
100
AcDbLine
 10
8330.612659454346
 20
-4383.988857269287
 30
0.0
 11
8330.612659454346
 21
-4339.61820602417
 31
0.0
  0
LINE
  5
D2
330
17
100
AcDbEntity
  8
A-MEP-PLMB
370
13
100
AcDbLine
 10
452.68699526786804
 20
-14799.434185028076
 30
0.0
 11
486.08800768852234
 21
-14799.434185028076
 31
0.0
  0
LINE
  5
D3
330
17
100
AcDbEntity
  8
A-MEP-PLMB
370
13
100
AcDbLine
 10
6173.612833023071
 20
-8285.649299621582
 30
0.0
 11
6173.612833023071
 21
-8061.086654663086
 31
0.0
  0
LINE
  5
D4
330
17
100
AcDbEntity
  8
A-MEP-PLMB
370
13
100
AcDbLine
 10
2202.764868736267
 20
-11596.975326538086
 30
0.0
 11
2202.764868736267
 21
-10918.249130249023
 31
0.0
  0
LINE
  5
D5
330
17
100
AcDbEntity
  8
A-MEP-PLMB
370
13
100
AcDbLine
 10
646.7204988002777
 20
-13442.484855651855
 30
0.0
 11
646.7204988002777
 21
-11644.599914550781
 31
0.0
  0
LINE
  5
D6
330
17
100
AcDbEntity
  8
A-MEP-PLMB
370
13
100
AcDbLine
 10
490.02495408058167
 20
-13463.120937347412
 30
0.0
 11
626.0830163955688
 21
-13463.120937347412
 31
0.0
  0
LINE
  5
D7
330
17
100
AcDbEntity
  8
A-MEP-PLMB
370
13
100
AcDbLine
 10
469.3875014781952
 20
-13479.823112487793
 30
0.0
 11
469.3875014781952
 21
-13446.418762207031
 31
0.0
  0
LINE
  5
D8
330
17
100
AcDbEntity
  8
A-MEP-PLMB
370
13
100
AcDbLine
 10
2101.0560989379883
 20
-379.03839349746704
 30
0.0
 11
8394.48356628418
 21
-379.03839349746704
 31
0.0
  0
LINE
  5
D9
330
17
100
AcDbEntity
  8
A-MEP-PLMB
370
13
100
AcDbLine
 10
8415.121078491211
 20
-7339.008331298828
 30
0.0
 11
8415.121078491211
 21
-5103.785991668701
 31
0.0
  0
LINE
  5
DA
330
17
100
AcDbEntity
  8
A-MEP-PLMB
370
13
100
AcDbLine
 10
4017.801284790039
 20
-7359.6460819244385
 30
0.0
 11
8394.48356628418
 21
-7359.6460819244385
 31
0.0
  0
LINE
  5
DB
330
17
100
AcDbEntity
  8
A-MEP-PLMB
370
13
100
AcDbLine
 10
3997.1638917922974
 20
-10219.011306762695
 30
0.0
 11
3997.1638917922974
 21
-9786.53621673584
 31
0.0
  0
LINE
  5
DC
330
17
100
AcDbEntity
  8
A-MEP-PLMB
370
13
100
AcDbLine
 10
3337.800979614258
 20
-10239.646911621094
 30
0.0
 11
3976.5264987945557
 21
-10239.646911621094
 31
0.0
  0
LINE
  5
DD
330
17
100
AcDbEntity
  8
A-MEP-PLMB
370
13
100
AcDbLine
 10
2442.1424865722656
 20
-10897.612571716309
 30
0.0
 11
2475.5539894104004
 21
-10897.612571716309
 31
0.0
  0
LINE
  5
DE
330
17
100
AcDbEntity
  8
A-MEP-PLMB
370
13
100
AcDbLine
 10
2223.402261734009
 20
-10897.612571716309
 30
0.0
 11
2438.206195831299
 21
-10897.612571716309
 31
0.0
  0
LINE
  5
DF
330
17
100
AcDbEntity
  8
A-MEP-PLMB
370
13
100
AcDbLine
 10
673.707902431488
 20
-11617.612361907959
 30
0.0
 11
2182.1274757385254
 21
-11617.612361907959
 31
0.0
  0
LINE
  5
E0
330
17
100
AcDbEntity
  8
A-MEP-PLMB
370
13
100
AcDbLine
 10
469.3875014781952
 20
-11716.341972351074
 30
0.0
 11
469.3875014781952
 21
-11644.599914550781
 31
0.0
  0
LINE
  5
E1
330
17
100
AcDbEntity
  8
A-MEP-PLMB
370
13
100
AcDbLine
 10
469.3875014781952
 20
-11794.411659240723
 30
0.0
 11
469.3875014781952
 21
-11757.615089416504
 31
0.0
  0
LINE
  5
E2
330
17
100
AcDbEntity
  8
A-MEP-PLMB
370
13
100
AcDbLine
 10
469.3875014781952
 20
-11753.678321838379
 30
0.0
 11
469.3875014781952
 21
-11720.276832580566
 31
0.0
  0
LINE
  5
E3
330
17
100
AcDbEntity
  8
A-MEP-PLMB
370
13
100
AcDbLine
 10
400.0319540500641
 20
-11617.612361907959
 30
0.0
 11
442.4000084400177
 21
-11617.612361907959
 31
0.0
  0
LINE
  5
E4
330
17
100
AcDbEntity
  8
A-MEP-PLMB
370
13
100
AcDbLine
 10
496.3749945163727
 20
-11617.612361907959
 30
0.0
 11
619.7330951690674
 21
-11617.612361907959
 31
0.0
  0
LINE
  5
E5
330
17
100
AcDbEntity
  8
A-MEP-PLMB
370
13
100
AcDbLine
 10
400.0319540500641
 20
-11307.219505310059
 30
0.0
 11
448.7500488758087
 21
-11307.219505310059
 31
0.0
  0
LINE
  5
E6
330
17
100
AcDbEntity
  8
A-MEP-PLMB
370
13
100
AcDbLine
 10
469.2971408367157
 20
-747.0696568489075
 30
0.0
 11
469.2971408367157
 21
-707.7730298042297
 31
0.0
  0
LINE
  5
E7
330
17
100
AcDbEntity
  8
A-MEP-PLMB
370
13
100
AcDbLine
 10
452.5001347064972
 20
-687.2126460075378
 30
0.0
 11
485.90734601020813
 21
-687.2126460075378
 31
0.0
  0
LINE
  5
E8
330
17
100
AcDbEntity
  8
A-MEP-PLMB
370
13
100
AcDbLine
 10
895.4865634441376
 20
-395.7376182079315
 30
0.0
 11
895.4865634441376
 21
-362.33651638031006
 31
0.0
  0
LINE
  5
E9
330
17
100
AcDbEntity
  8
A-MEP-PLMB
370
13
100
AcDbLine
 10
2044.09921169281
 20
-486.1176311969757
 30
0.0
 11
2044.09921169281
 21
-452.68696546554565
 31
0.0
  0
LINE
  5
EA
330
17
100
AcDbEntity
  8
A-MEP-PLMB
370
13
100
AcDbLine
 10
2057.368040084839
 20
-379.03833389282227
 30
0.0
 11
2090.7695293426514
 21
-379.03833389282227
 31
0.0
  0
LINE
  5
EB
330
17
100
AcDbEntity
  8
A-MEP-PLMB
370
13
100
AcDbLine
 10
922.4738478660583
 20
-379.03839349746704
 30
0.0
 11
2047.081470489502
 21
-379.03839349746704
 31
0.0
  0
LINE
  5
EC
330
17
100
AcDbEntity
  8
A-MEP-PLMB
370
13
100
AcDbLine
 10
8398.420333862305
 20
-2956.4249515533447
 30
0.0
 11
8431.821823120117
 21
-2956.4249515533447
 31
0.0
  0
LINE
  5
ED
330
17
100
AcDbEntity
  8
A-MEP-PLMB
370
13
100
AcDbLine
 10
8415.121078491211
 20
-2929.4376373291016
 30
0.0
 11
8415.121078491211
 21
-399.67578649520874
 31
0.0
  0
LINE
  5
EE
330
17
100
AcDbEntity
  8
A-MEP-PLMB
370
13
100
AcDbLine
 10
8330.612659454346
 20
-5056.161880493164
 30
0.0
 11
8330.612659454346
 21
-4936.7995262146
 31
0.0
  0
LINE
  5
EF
330
17
100
AcDbEntity
  8
A-MEP-PLMB
370
13
100
AcDbLine
 10
8398.420333862305
 20
-5076.798439025879
 30
0.0
 11
8431.821823120117
 21
-5076.798439025879
 31
0.0
  0
LINE
  5
F0
330
17
100
AcDbEntity
  8
A-MEP-PLMB
370
13
100
AcDbLine
 10
2609.6866130828857
 20
-9759.550094604492
 30
0.0
 11
2643.0881023406982
 21
-9759.550094604492
 31
0.0
  0
LINE
  5
F1
330
17
100
AcDbEntity
  8
A-MEP-PLMB
370
13
100
AcDbLine
 10
2539.360761642456
 20
-8799.139976501465
 30
0.0
 11
2539.360761642456
 21
-8765.737533569336
 31
0.0
  0
LINE
  5
F2
330
17
100
AcDbEntity
  8
A-MEP-PLMB
370
13
100
AcDbLine
 10
2647.024631500244
 20
-9759.550094604492
 30
0.0
 11
3970.1764583587646
 21
-9759.550094604492
 31
0.0
  0
LINE
  5
F3
330
17
100
AcDbEntity
  8
A-MEP-PLMB
370
13
100
AcDbLine
 10
3997.1638917922974
 20
-9732.563018798828
 30
0.0
 11
3997.1638917922974
 21
-8809.425354003906
 31
0.0
  0
LINE
  5
F4
330
17
100
AcDbEntity
  8
A-MEP-PLMB
370
13
100
AcDbLine
 10
2559.998035430908
 20
-8782.4387550354
 30
0.0
 11
3970.1764583587646
 21
-8782.4387550354
 31
0.0
  0
LINE
  5
F5
330
17
100
AcDbEntity
  8
A-MEP-PLMB
370
13
100
AcDbLine
 10
3980.4632663726807
 20
-8751.124858856201
 30
0.0
 11
4013.864517211914
 21
-8751.124858856201
 31
0.0
  0
LINE
  5
F6
330
17
100
AcDbEntity
  8
A-MEP-PLMB
370
13
100
AcDbLine
 10
452.68699526786804
 20
-10064.340591430664
 30
0.0
 11
486.08800768852234
 21
-10064.340591430664
 31
0.0
  0
LINE
  5
F7
330
17
100
AcDbEntity
  8
A-MEP-PLMB
370
13
100
AcDbLine
 10
400.0319540500641
 20
-10034.974098205566
 30
0.0
 11
448.7500488758087
 21
-10034.974098205566
 31
0.0
  0
LINE
  5
F8
330
17
100
AcDbEntity
  8
A-MEP-PLMB
370
13
100
AcDbLine
 10
2579.0247917175293
 20
-7523.766756057739
 30
0.0
 11
3970.1764583587646
 21
-7523.766756057739
 31
0.0
  0
LINE
  5
F9
330
17
100
AcDbEntity
  8
A-MEP-PLMB
370
13
100
AcDbLine
 10
3997.1638917922974
 20
-7496.7803955078125
 30
0.0
 11
3997.1638917922974
 21
-7380.282402038574
 31
0.0
  0
LINE
  5
FA
330
17
100
AcDbEntity
  8
A-MEP-PLMB
370
13
100
AcDbLine
 10
2558.3873987197876
 20
-7827.353954315186
 30
0.0
 11
2558.3873987197876
 21
-7544.40450668335
 31
0.0
  0
LINE
  5
FB
330
17
100
AcDbEntity
  8
A-MEP-PLMB
370
13
100
AcDbLine
 10
2541.686773300171
 20
-7875.67663192749
 30
0.0
 11
2575.0880241394043
 21
-7875.67663192749
 31
0.0
  0
LINE
  5
FC
330
17
100
AcDbEntity
  8
A-MEP-PLMB
370
13
100
AcDbLine
 10
2579.0247917175293
 20
-8719.810962677002
 30
0.0
 11
3970.1764583587646
 21
-8719.810962677002
 31
0.0
  0
LINE
  5
FD
330
17
100
AcDbEntity
  8
A-MEP-PLMB
370
13
100
AcDbLine
 10
3997.1638917922974
 20
-8692.824363708496
 30
0.0
 11
3997.1638917922974
 21
-7550.753593444824
 31
0.0
  0
LINE
  5
FE
330
17
100
AcDbEntity
  8
A-MEP-PLMB
370
13
100
AcDbLine
 10
2541.686773300171
 20
-8690.824031829834
 30
0.0
 11
2575.0880241394043
 21
-8690.824031829834
 31
0.0
  0
LINE
  5
FF
330
17
100
AcDbEntity
  8
A-MEP-PLMB
370
13
100
AcDbLine
 10
2558.3873987197876
 20
-8641.200065612793
 30
0.0
 11
2558.3873987197876
 21
-8584.324836730957
 31
0.0
  0
LINE
  5
100
330
17
100
AcDbEntity
  8
A-MEP-PLMB
370
13
100
AcDbLine
 10
452.50627398490906
 20
-2686.7882013320923
 30
0.0
 11
485.90734601020813
 21
-2686.7882013320923
 31
0.0
  0
LINE
  5
101
330
17
100
AcDbEntity
  8
A-MEP-PLMB
370
13
100
AcDbLine
 10
452.68699526786804
 20
-11280.62629699707
 30
0.0
 11
486.08800768852234
 21
-11280.62629699707
 31
0.0
  0
LINE
  5
102
330
17
100
AcDbEntity
  8
A-MEP-PLMB
370
13
100
AcDbLine
 10
469.3875014781952
 20
-13442.484855651855
 30
0.0
 11
469.3875014781952
 21
-13396.00944519043
 31
0.0
  0
LINE
  5
103
330
17
100
AcDbEntity
  8
A-MEP-PLMB
370
13
100
AcDbLine
 10
8313.911437988281
 20
-2991.1309480667114
 30
0.0
 11
8347.31388092041
 21
-2991.1309480667114
 31
0.0
  0
LINE
  5
104
330
17
100
AcDbEntity
  8
A-MEP-PLMB
370
13
100
AcDbLine
 10
2626.387357711792
 20
-9738.913536071777
 30
0.0
 11
2626.387357711792
 21
-9514.350891113281
 31
0.0
  0
LINE
  5
105
330
17
100
AcDbEntity
  8
A-MEP-PLMB
370
13
100
AcDbLine
 10
8420.605659484863
 20
-6368.551254272461
 30
0.0
 11
8420.605659484863
 21
-6335.14928817749
 31
0.0
  0
LINE
  5
106
330
17
100
AcDbEntity
  8
A-MEP-PLMB
370
13
100
AcDbLine
 10
8420.605659484863
 20
-15056.198120117188
 30
0.0
 11
8420.605659484863
 21
-7652.012825012207
 31
0.0
  0
LINE
  5
107
330
17
100
AcDbEntity
  8
A-MEP-PLMB
370
13
100
AcDbLine
 10
8420.605659484863
 20
-6324.862480163574
 30
0.0
 11
8420.605659484863
 21
-6203.024864196777
 31
0.0
  0
LINE
  5
108
330
17
100
AcDbEntity
  8
A-MEP-PLMB
370
13
100
AcDbLine
 10
8420.605659484863
 20
-7641.726970672607
 30
0.0
 11
8420.605659484863
 21
-7608.325004577637
 31
0.0
  0
LINE
  5
109
330
17
100
AcDbEntity
  8
A-MEP-PLMB
370
13
100
AcDbLine
 10
8420.605659484863
 20
-7598.039627075195
 30
0.0
 11
8420.605659484863
 21
-6378.836631774902
 31
0.0
  0
LINE
  5
10A
330
17
100
AcDbEntity
  8
A-MEP-PLMB
370
13
100
AcDbLine
 10
6755.886554718018
 20
-17415.040016174316
 30
0.0
 11
7887.516498565674
 21
-17415.040016174316
 31
0.0
  0
LINE
  5
10B
330
17
100
AcDbEntity
  8
A-MEP-PLMB
370
13
100
AcDbLine
 10
7941.490650177002
 20
-17415.040016174316
 30
0.0
 11
8399.968147277832
 21
-17415.040016174316
 31
0.0
  0
LINE
  5
10C
330
17
100
AcDbEntity
  8
A-MEP-PLMB
370
13
100
AcDbLine
 10
385.82780957221985
 20
-17394.4034576416
 30
0.0
 11
385.82780957221985
 21
-14851.690292358398
 31
0.0
  0
LINE
  5
10D
330
17
100
AcDbEntity
  8
A-MEP-PLMB
370
13
100
AcDbLine
 10
6224.911212921143
 20
-9928.945541381836
 30
0.0
 11
6258.313179016113
 21
-9928.945541381836
 31
0.0
  0
LINE
  5
10E
330
17
100
AcDbEntity
  8
A-MEP-PLMB
370
13
100
AcDbLine
 10
6224.911212921143
 20
-9138.162612915039
 30
0.0
 11
6258.313179016113
 21
-9138.162612915039
 31
0.0
  0
LINE
  5
10F
330
17
100
AcDbEntity
  8
A-MEP-PLMB
370
13
100
AcDbLine
 10
5466.135501861572
 20
-6902.387857437134
 30
0.0
 11
5499.537467956543
 21
-6902.387857437134
 31
0.0
  0
LINE
  5
110
330
17
100
AcDbEntity
  8
A-MEP-PLMB
370
13
100
AcDbLine
 10
5509.822845458984
 20
-6902.387857437134
 30
0.0
 11
5771.393775939941
 21
-6902.387857437134
 31
0.0
  0
LINE
  5
111
330
17
100
AcDbEntity
  8
A-MEP-PLMB
370
13
100
AcDbLine
 10
5354.957580566406
 20
-7193.481206893921
 30
0.0
 11
5462.198734283447
 21
-7193.481206893921
 31
0.0
  0
LINE
  5
112
330
17
100
AcDbEntity
  8
A-MEP-PLMB
370
13
100
AcDbLine
 10
5466.135501861572
 20
-7193.481206893921
 30
0.0
 11
5499.537467956543
 21
-7193.481206893921
 31
0.0
  0
LINE
  5
113
330
17
100
AcDbEntity
  8
A-MEP-PLMB
370
13
100
AcDbLine
 10
5482.836484909058
 20
-7539.7162437438965
 30
0.0
 11
5482.836484909058
 21
-7220.468997955322
 31
0.0
  0
LINE
  5
114
330
17
100
AcDbEntity
  8
A-MEP-PLMB
370
13
100
AcDbLine
 10
5482.836484909058
 20
-7166.494846343994
 30
0.0
 11
5482.836484909058
 21
-6923.0241775512695
 31
0.0
  0
LINE
  5
115
330
17
100
AcDbEntity
  8
A-MEP-PLMB
370
13
100
AcDbLine
 10
5466.135501861572
 20
-7193.481206893921
 30
0.0
 11
5499.537467956543
 21
-7193.481206893921
 31
0.0
  0
LINE
  5
116
330
17
100
AcDbEntity
  8
A-MEP-PLMB
370
13
100
AcDbLine
 10
5428.473234176636
 20
-7172.844886779785
 30
0.0
 11
5428.473234176636
 21
-6923.0241775512695
 31
0.0
  0
LINE
  5
117
330
17
100
AcDbEntity
  8
A-MEP-PLMB
370
13
100
AcDbLine
 10
5411.77225112915
 20
-6902.387857437134
 30
0.0
 11
5445.174217224121
 21
-6902.387857437134
 31
0.0
  0
LINE
  5
118
330
17
100
AcDbEntity
  8
A-MEP-PLMB
370
13
100
AcDbLine
 10
5341.463088989258
 20
-7193.481683731079
 30
0.0
 11
5394.342422485352
 21
-7193.481683731079
 31
0.0
  0
LINE
  5
119
330
17
100
AcDbEntity
  8
A-MEP-PLMB
370
13
100
AcDbLine
 10
5411.77225112915
 20
-6902.387857437134
 30
0.0
 11
5445.174217224121
 21
-6902.387857437134
 31
0.0
  0
LINE
  5
11A
330
17
100
AcDbEntity
  8
A-MEP-PLMB
370
13
100
AcDbLine
 10
3300.4629611968994
 20
-10897.612571716309
 30
0.0
 11
3333.864450454712
 21
-10897.612571716309
 31
0.0
  0
LINE
  5
11B
330
17
100
AcDbEntity
  8
A-MEP-PLMB
370
13
100
AcDbLine
 10
379.3944716453552
 20
-11323.921203613281
 30
0.0
 11
379.3944716453552
 21
-11290.517807006836
 31
0.0
  0
LINE
  5
11C
330
17
100
AcDbEntity
  8
A-MEP-PLMB
370
13
100
AcDbLine
 10
379.3944716453552
 20
-11596.975326538086
 30
0.0
 11
379.3944716453552
 21
-11334.206581115723
 31
0.0
  0
LINE
  5
11D
330
17
100
AcDbEntity
  8
A-MEP-PLMB
370
13
100
AcDbLine
 10
379.3944716453552
 20
-10051.675796508789
 30
0.0
 11
379.3944716453552
 21
-10018.272399902344
 31
0.0
  0
LINE
  5
11E
330
17
100
AcDbEntity
  8
A-MEP-PLMB
370
13
100
AcDbLine
 10
379.3944716453552
 20
-11280.233383178711
 30
0.0
 11
379.3944716453552
 21
-10061.96117401123
 31
0.0
  0
LINE
  5
11F
330
17
100
AcDbEntity
  8
A-MEP-PLMB
370
13
100
AcDbLine
 10
400.0319540500641
 20
-379.03839349746704
 30
0.0
 11
868.4990406036377
 21
-379.03839349746704
 31
0.0
  0
LINE
  5
120
330
17
100
AcDbEntity
  8
A-MEP-PLMB
370
13
100
AcDbLine
 10
2558.3873987197876
 20
-7864.692687988281
 30
0.0
 11
2558.3873987197876
 21
-7831.290721893311
 31
0.0
  0
LINE
  5
121
330
17
100
AcDbEntity
  8
A-MEP-PLMB
370
13
100
AcDbLine
 10
2558.3873987197876
 20
-8678.53832244873
 30
0.0
 11
2558.3873987197876
 21
-8645.136833190918
 31
0.0
  0
LINE
  5
122
330
17
100
AcDbEntity
  8
A-MEP-PLMB
370
13
100
AcDbLine
 10
3337.800979614258
 20
-10606.518745422363
 30
0.0
 11
3445.042371749878
 21
-10606.518745422363
 31
0.0
  0
LINE
  5
123
330
17
100
AcDbEntity
  8
A-MEP-PLMB
370
13
100
AcDbLine
 10
3317.1637058258057
 20
-10623.220443725586
 30
0.0
 11
3317.1637058258057
 21
-10589.81704711914
 31
0.0
  0
LINE
  5
124
330
17
100
AcDbEntity
  8
A-MEP-PLMB
370
13
100
AcDbLine
 10
3317.1637058258057
 20
-10876.975059509277
 30
0.0
 11
3317.1637058258057
 21
-10633.505821228027
 31
0.0
  0
LINE
  5
125
330
17
100
AcDbEntity
  8
A-MEP-PLMB
370
13
100
AcDbLine
 10
3354.825496673584
 20
-10897.612571716309
 30
0.0
 11
3388.2269859313965
 21
-10897.612571716309
 31
0.0
  0
LINE
  5
126
330
17
100
AcDbEntity
  8
A-MEP-PLMB
370
13
100
AcDbLine
 10
3317.1640634536743
 20
-10636.682510375977
 30
0.0
 11
3317.1640634536743
 21
-10576.35498046875
 31
0.0
  0
LINE
  5
127
330
17
100
AcDbEntity
  8
A-MEP-PLMB
370
13
100
AcDbLine
 10
3347.5202322006226
 20
-10914.313316345215
 30
0.0
 11
3347.5202322006226
 21
-10880.911827087402
 31
0.0
  0
LINE
  5
128
330
17
100
AcDbEntity
  8
A-MEP-PLMB
370
13
100
AcDbLine
 10
2479.490280151367
 20
-10897.612571716309
 30
0.0
 11
2645.3592777252197
 21
-10897.612571716309
 31
0.0
  0
LINE
  5
129
330
17
100
AcDbEntity
  8
A-MEP-PLMB
370
13
100
AcDbLine
 10
2932.3463439941406
 20
-10897.612571716309
 30
0.0
 11
3290.1763916015625
 21
-10897.612571716309
 31
0.0
  0
LINE
  5
12A
330
17
100
AcDbEntity
  8
A-MEP-PLMB
370
13
100
AcDbLine
 10
3392.1635150909424
 20
-10606.518268585205
 30
0.0
 11
3458.536148071289
 21
-10606.518268585205
 31
0.0
  0
LINE
  5
12B
330
17
100
AcDbEntity
  8
A-MEP-PLMB
370
13
100
AcDbLine
 10
3371.526598930359
 20
-10863.481521606445
 30
0.0
 11
3371.526598930359
 21
-10627.154350280762
 31
0.0
  0
LINE
  5
12C
330
17
100
AcDbEntity
  8
A-MEP-PLMB
370
13
100
AcDbLine
 10
3317.1637058258057
 20
-10579.532623291016
 30
0.0
 11
3317.1637058258057
 21
-10260.284423828125
 31
0.0
  0
LINE
  5
12D
330
17
100
AcDbEntity
  8
A-MEP-PLMB
370
13
100
AcDbLine
 10
3641.459584236145
 20
-8028.130531311035
 30
0.0
 11
3641.459584236145
 21
-7979.869842529297
 31
0.0
  0
LINE
  5
12E
330
17
100
AcDbEntity
  8
A-MEP-PLMB
370
13
100
AcDbLine
 10
3687.4964237213135
 20
-8003.999710083008
 30
0.0
 11
4063.3463859558105
 21
-8003.999710083008
 31
0.0
  0
LINE
  5
12F
330
17
100
AcDbEntity
  8
A-MEP-PLMB
370
13
100
AcDbLine
 10
3831.117630004883
 20
-8642.500400543213
 30
0.0
 11
3873.2824325561523
 21
-8642.500400543213
 31
0.0
  0
LINE
  5
130
330
17
100
AcDbEntity
  8
A-MEP-PLMB
370
13
100
AcDbLine
 10
3876.012086868286
 20
-8642.499923706055
 30
0.0
 11
4037.9462242126465
 21
-8642.499923706055
 31
0.0
  0
LINE
  5
131
330
17
100
AcDbEntity
  8
A-MEP-PLMB
370
13
100
AcDbLine
 10
4090.3337001800537
 20
-7977.134227752686
 30
0.0
 11
4090.3337001800537
 21
-7850.863933563232
 31
0.0
  0
LINE
  5
132
330
17
100
AcDbEntity
  8
A-MEP-PLMB
370
13
100
AcDbLine
 10
3567.3370361328125
 20
-9317.500114440918
 30
0.0
 11
3627.6628971099854
 21
-9317.500114440918
 31
0.0
  0
LINE
  5
133
330
17
100
AcDbEntity
  8
A-MEP-PLMB
370
13
100
AcDbLine
 10
3630.8374404907227
 20
-9317.499160766602
 30
0.0
 11
4037.9462242126465
 21
-9317.499160766602
 31
0.0
  0
LINE
  5
134
330
17
100
AcDbEntity
  8
A-MEP-PLMB
370
13
100
AcDbLine
 10
4090.3337001800537
 20
-9265.233993530273
 30
0.0
 11
4090.3337001800537
 21
-8694.765090942383
 31
0.0
  0
LINE
  5
135
330
17
100
AcDbEntity
  8
A-MEP-PLMB
370
13
100
AcDbLine
 10
4090.3337001800537
 20
-9521.92497253418
 30
0.0
 11
4090.3337001800537
 21
-9369.765281677246
 31
0.0
  0
LINE
  5
136
330
17
100
AcDbEntity
  8
A-MEP-PLMB
370
13
100
AcDbLine
 10
4090.3337001800537
 20
-7752.9120445251465
 30
0.0
 11
4090.3337001800537
 21
-7560.44340133667
 31
0.0
  0
LINE
  5
137
330
17
100
AcDbEntity
  8
A-MEP-PLMB
370
13
100
AcDbLine
 10
4090.3337001800537
 20
-7829.308986663818
 30
0.0
 11
4090.3337001800537
 21
-7781.047344207764
 31
0.0
  0
LINE
  5
138
330
17
100
AcDbEntity
  8
A-MEP-PLMB
370
13
100
AcDbLine
 10
5834.0003490448
 20
-7165.63081741333
 30
0.0
 11
5834.0003490448
 21
-7117.369174957275
 31
0.0
  0
LINE
  5
139
330
17
100
AcDbEntity
  8
A-MEP-PLMB
370
13
100
AcDbLine
 10
5833.9996337890625
 20
-7494.01330947876
 30
0.0
 11
5833.9996337890625
 21
-7161.912441253662
 31
0.0
  0
LINE
  5
13A
330
17
100
AcDbEntity
  8
A-MEP-PLMB
370
13
100
AcDbLine
 10
4136.247158050537
 20
-7514.528274536133
 30
0.0
 11
5813.484191894531
 21
-7514.528274536133
 31
0.0
  0
LINE
  5
13B
330
17
100
AcDbEntity
  8
A-MEP-PLMB
370
13
100
AcDbLine
 10
4090.3337001800537
 20
-7829.323768615723
 30
0.0
 11
4090.3337001800537
 21
-7781.047344207764
 31
0.0
  0
LINE
  5
13C
330
17
100
AcDbEntity
  8
A-MEP-PLMB
370
13
100
AcDbLine
 10
3852.200150489807
 20
-9019.195556640625
 30
0.0
 11
3852.200150489807
 21
-8970.92056274414
 31
0.0
  0
LINE
  5
13D
330
17
100
AcDbEntity
  8
A-MEP-PLMB
370
13
100
AcDbLine
 10
3876.012086868286
 20
-8995.064735412598
 30
0.0
 11
4037.9462242126465
 21
-8995.064735412598
 31
0.0
  0
LINE
  5
13E
330
17
100
AcDbEntity
  8
A-MEP-PLMB
370
13
100
AcDbLine
 10
4090.3337001800537
 20
-8942.798614501953
 30
0.0
 11
4090.3337001800537
 21
-8202.28099822998
 31
0.0
  0
LINE
  5
13F
330
17
100
AcDbEntity
  8
A-MEP-PLMB
370
13
100
AcDbLine
 10
3641.459584236145
 20
-8174.145698547363
 30
0.0
 11
3641.459584236145
 21
-8125.8697509765625
 31
0.0
  0
LINE
  5
140
330
17
100
AcDbEntity
  8
A-MEP-PLMB
370
13
100
AcDbLine
 10
3687.4964237213135
 20
-8150.015354156494
 30
0.0
 11
4037.9462242126465
 21
-8150.015354156494
 31
0.0
  0
LINE
  5
141
330
17
100
AcDbEntity
  8
A-MEP-PLMB
370
13
100
AcDbLine
 10
4090.3337001800537
 20
-8097.749710083008
 30
0.0
 11
4090.3337001800537
 21
-7857.45906829834
 31
0.0
  0
LINE
  5
142
330
17
100
AcDbEntity
  8
A-MEP-PLMB
370
13
100
AcDbLine
 10
4090.3337001800537
 20
-7759.49239730835
 30
0.0
 11
4090.3337001800537
 21
-7256.865501403809
 31
0.0
  0
LINE
  5
143
330
17
100
AcDbEntity
  8
A-MEP-PLMB
370
13
100
AcDbLine
 10
4090.3337001800537
 20
-7829.323768615723
 30
0.0
 11
4090.3337001800537
 21
-7781.047344207764
 31
0.0
  0
LINE
  5
144
330
17
100
AcDbEntity
  8
A-MEP-PLMB
370
13
100
AcDbLine
 10
3852.200150489807
 20
-9669.182777404785
 30
0.0
 11
3852.200150489807
 21
-9620.92113494873
 31
0.0
  0
LINE
  5
145
330
17
100
AcDbEntity
  8
A-MEP-PLMB
370
13
100
AcDbLine
 10
3876.012086868286
 20
-9645.051956176758
 30
0.0
 11
4037.947654724121
 21
-9645.051956176758
 31
0.0
  0
LINE
  5
146
330
17
100
AcDbEntity
  8
A-MEP-PLMB
370
13
100
AcDbLine
 10
3853.19983959198
 20
-7254.130840301514
 30
0.0
 11
3853.19983959198
 21
-7205.869197845459
 31
0.0
  0
LINE
  5
147
330
17
100
AcDbEntity
  8
A-MEP-PLMB
370
13
100
AcDbLine
 10
3880.1844120025635
 20
-7230.000257492065
 30
0.0
 11
4063.3492469787598
 21
-7230.000257492065
 31
0.0
  0
LINE
  5
148
330
17
100
AcDbEntity
  8
A-MEP-PLMB
370
13
100
AcDbLine
 10
-125.81819295883179
 20
-10267.418384552002
 30
0.0
 11
2939.1324520111084
 21
-10267.418384552002
 31
0.0
  0
LINE
  5
149
330
17
100
AcDbEntity
  8
A-MEP-PLMB
370
13
100
AcDbLine
 10
4707.340478897095
 20
-9105.234146118164
 30
0.0
 11
4707.340478897095
 21
-8515.715599060059
 31
0.0
  0
LINE
  5
14A
330
17
100
AcDbEntity
  8
A-MEP-PLMB
370
13
100
AcDbLine
 10
5202.500104904175
 20
-8506.630897521973
 30
0.0
 11
5202.500104904175
 21
-8458.369255065918
 31
0.0
  0
LINE
  5
14B
330
17
100
AcDbEntity
  8
A-MEP-PLMB
370
13
100
AcDbLine
 10
4740.671157836914
 20
-8482.500076293945
 30
0.0
 11
5169.163227081299
 21
-8482.500076293945
 31
0.0
  0
LINE
  5
14C
330
17
100
AcDbEntity
  8
A-MEP-PLMB
370
13
100
AcDbLine
 10
4947.799921035767
 20
-9181.63013458252
 30
0.0
 11
4947.799921035767
 21
-9133.368492126465
 31
0.0
  0
LINE
  5
14D
330
17
100
AcDbEntity
  8
A-MEP-PLMB
370
13
100
AcDbLine
 10
4759.727954864502
 20
-9157.49979019165
 30
0.0
 11
4923.987865447998
 21
-9157.49979019165
 31
0.0
  0
LINE
  5
14E
330
17
100
AcDbEntity
  8
A-MEP-PLMB
370
13
100
AcDbLine
 10
4707.340478897095
 20
-9743.973731994629
 30
0.0
 11
4707.340478897095
 21
-9209.765434265137
 31
0.0
  0
LINE
  5
14F
330
17
100
AcDbEntity
  8
A-MEP-PLMB
370
13
100
AcDbLine
 10
5158.540487289429
 20
-9820.369720458984
 30
0.0
 11
5158.540487289429
 21
-9772.10807800293
 31
0.0
  0
LINE
  5
150
330
17
100
AcDbEntity
  8
A-MEP-PLMB
370
13
100
AcDbLine
 10
4759.727954864502
 20
-9796.239852905273
 30
0.0
 11
5112.503528594971
 21
-9796.239852905273
 31
0.0
  0
LINE
  5
151
330
17
100
AcDbEntity
  8
A-MEP-PLMB
370
13
100
AcDbLine
 10
4707.340478897095
 20
-10108.635902404785
 30
0.0
 11
4707.340478897095
 21
-9848.505020141602
 31
0.0
  0
LINE
  5
152
330
17
100
AcDbEntity
  8
A-MEP-PLMB
370
13
100
AcDbLine
 10
4683.210372924805
 20
-10230.193138122559
 30
0.0
 11
4731.470584869385
 21
-10230.193138122559
 31
0.0
  0
LINE
  5
153
330
17
100
AcDbEntity
  8
A-MEP-PLMB
370
13
100
AcDbLine
 10
4707.33380317688
 20
-8118.119239807129
 30
0.0
 11
4707.33380317688
 21
-7301.016330718994
 31
0.0
  0
LINE
  5
154
330
17
100
AcDbEntity
  8
A-MEP-PLMB
370
13
100
AcDbLine
 10
4683.20369720459
 20
-10160.901546478271
 30
0.0
 11
4731.470584869385
 21
-10160.901546478271
 31
0.0
  0
LINE
  5
155
330
17
100
AcDbEntity
  8
A-MEP-PLMB
370
13
100
AcDbLine
 10
4707.33380317688
 20
-10559.136390686035
 30
0.0
 11
4707.33380317688
 21
-10206.588745117188
 31
0.0
  0
LINE
  5
156
330
17
100
AcDbEntity
  8
A-MEP-PLMB
370
13
100
AcDbLine
 10
4707.33380317688
 20
-10185.032844543457
 30
0.0
 11
4707.33380317688
 21
-10136.770248413086
 31
0.0
  0
LINE
  5
157
330
17
100
AcDbEntity
  8
A-MEP-PLMB
370
13
100
AcDbLine
 10
4946.29979133606
 20
-10610.133171081543
 30
0.0
 11
4946.29979133606
 21
-10561.869621276855
 31
0.0
  0
LINE
  5
158
330
17
100
AcDbEntity
  8
A-MEP-PLMB
370
13
100
AcDbLine
 10
4734.320640563965
 20
-10586.002826690674
 30
0.0
 11
4919.312953948975
 21
-10586.002826690674
 31
0.0
  0
LINE
  5
159
330
17
100
AcDbEntity
  8
A-MEP-PLMB
370
13
100
AcDbLine
 10
5132.909774780273
 20
-9666.000366210938
 30
0.0
 11
5181.171417236328
 21
-9666.000366210938
 31
0.0
  0
LINE
  5
15A
330
17
100
AcDbEntity
  8
A-MEP-PLMB
370
13
100
AcDbLine
 10
4759.721279144287
 20
-9666.000843048096
 30
0.0
 11
5111.003875732422
 21
-9666.000843048096
 31
0.0
  0
LINE
  5
15B
330
17
100
AcDbEntity
  8
A-MEP-PLMB
370
13
100
AcDbLine
 10
4707.33380317688
 20
-10108.635902404785
 30
0.0
 11
4707.33380317688
 21
-9718.265533447266
 31
0.0
  0
LINE
  5
15C
330
17
100
AcDbEntity
  8
A-MEP-PLMB
370
13
100
AcDbLine
 10
4947.799921035767
 20
-8844.514846801758
 30
0.0
 11
4947.799921035767
 21
-8796.25415802002
 31
0.0
  0
LINE
  5
15D
330
17
100
AcDbEntity
  8
A-MEP-PLMB
370
13
100
AcDbLine
 10
4759.721279144287
 20
-8820.384502410889
 30
0.0
 11
4923.987865447998
 21
-8820.384502410889
 31
0.0
  0
LINE
  5
15E
330
17
100
AcDbEntity
  8
A-MEP-PLMB
370
13
100
AcDbLine
 10
4707.33380317688
 20
-9613.73519897461
 30
0.0
 11
4707.33380317688
 21
-8872.650146484375
 31
0.0
  0
LINE
  5
15F
330
17
100
AcDbEntity
  8
A-MEP-PLMB
370
13
100
AcDbLine
 10
4947.799921035767
 20
-8194.517135620117
 30
0.0
 11
4947.799921035767
 21
-8146.25358581543
 31
0.0
  0
LINE
  5
160
330
17
100
AcDbEntity
  8
A-MEP-PLMB
370
13
100
AcDbLine
 10
4759.678363800049
 20
-8170.386791229248
 30
0.0
 11
4924.02982711792
 21
-8170.386791229248
 31
0.0
  0
LINE
  5
161
330
17
100
AcDbEntity
  8
A-MEP-PLMB
370
13
100
AcDbLine
 10
1822.5424885749817
 20
-10265.717506408691
 30
0.0
 11
1822.5424885749817
 21
-9266.99161529541
 31
0.0
  0
LINE
  5
162
330
17
100
AcDbEntity
  8
A-MEP-PLMB
370
13
100
AcDbLine
 10
3991.8999671936035
 20
-8699.650764465332
 30
0.0
 11
3991.8999671936035
 21
-8686.949729919434
 31
0.0
  0
LINE
  5
163
330
17
100
AcDbEntity
  8
A-MEP-PLMB
370
13
100
AcDbLine
 10
4006.1874389648438
 20
-8693.300247192383
 30
0.0
 11
4117.753505706787
 21
-8693.300247192383
 31
0.0
  0
LINE
  5
164
330
17
100
AcDbEntity
  8
A-MEP-PLMB
370
13
100
AcDbLine
 10
4151.884078979492
 20
-9318.857192993164
 30
0.0
 11
4151.884078979492
 21
-9193.342208862305
 31
0.0
  0
LINE
  5
165
330
17
100
AcDbEntity
  8
A-MEP-PLMB
370
13
100
AcDbLine
 10
4014.124870300293
 20
-8003.9472579956055
 30
0.0
 11
4137.596607208252
 21
-8003.9472579956055
 31
0.0
  0
LINE
  5
166
330
17
100
AcDbEntity
  8
A-MEP-PLMB
370
13
100
AcDbLine
 10
4151.884078979492
 20
-8010.297775268555
 30
0.0
 11
4151.884078979492
 21
-7997.596740722656
 31
0.0
  0
LINE
  5
167
330
17
100
AcDbEntity
  8
A-MEP-PLMB
370
13
100
AcDbLine
 10
4151.884078979492
 20
-8666.313171386719
 30
0.0
 11
4151.884078979492
 21
-8030.9343338012695
 31
0.0
  0
LINE
  5
168
330
17
100
AcDbEntity
  8
A-MEP-PLMB
370
13
100
AcDbLine
 10
-389.391154050827
 20
-9166.354656219482
 30
0.0
 11
4124.897003173828
 21
-9166.354656219482
 31
0.0
  0
LINE
  5
169
330
17
100
AcDbEntity
  8
A-MEP-PLMB
370
13
100
AcDbLine
 10
4172.521114349365
 20
-7472.437858581543
 30
0.0
 11
5698.268890380859
 21
-7472.437858581543
 31
0.0
  0
LINE
  5
16A
330
17
100
AcDbEntity
  8
A-MEP-PLMB
370
13
100
AcDbLine
 10
4151.884078979492
 20
-7884.81330871582
 30
0.0
 11
4151.884078979492
 21
-7493.074893951416
 31
0.0
  0
LINE
  5
16B
330
17
100
AcDbEntity
  8
A-MEP-PLMB
370
13
100
AcDbLine
 10
4151.884078979492
 20
-7976.960182189941
 30
0.0
 11
4151.884078979492
 21
-7932.437419891357
 31
0.0
  0
LINE
  5
16C
330
17
100
AcDbEntity
  8
A-MEP-PLMB
370
13
100
AcDbLine
 10
4151.884078979492
 20
-7924.500942230225
 30
0.0
 11
4151.884078979492
 21
-7899.099826812744
 31
0.0
  0
LINE
  5
16D
330
17
100
AcDbEntity
  8
A-MEP-PLMB
370
13
100
AcDbLine
 10
4151.884078979492
 20
-7924.500942230225
 30
0.0
 11
4151.884078979492
 21
-7899.099826812744
 31
0.0
  0
LINE
  5
16E
330
17
100
AcDbEntity
  8
A-MEP-PLMB
370
13
100
AcDbLine
 10
4151.884078979492
 20
-7884.81330871582
 30
0.0
 11
4151.884078979492
 21
-7500.940799713135
 31
0.0
  0
LINE
  5
16F
330
17
100
AcDbEntity
  8
A-MEP-PLMB
370
13
100
AcDbLine
 10
4014.124870300293
 20
-8149.947166442871
 30
0.0
 11
4137.596607208252
 21
-8149.947166442871
 31
0.0
  0
LINE
  5
170
330
17
100
AcDbEntity
  8
A-MEP-PLMB
370
13
100
AcDbLine
 10
4151.884078979492
 20
-8156.29768371582
 30
0.0
 11
4151.884078979492
 21
-8143.596649169922
 31
0.0
  0
LINE
  5
171
330
17
100
AcDbEntity
  8
A-MEP-PLMB
370
13
100
AcDbLine
 10
4151.884078979492
 20
-8122.960090637207
 30
0.0
 11
4151.884078979492
 21
-7938.787460327148
 31
0.0
  0
LINE
  5
172
330
17
100
AcDbEntity
  8
A-MEP-PLMB
370
13
100
AcDbLine
 10
3991.8999671936035
 20
-9052.201271057129
 30
0.0
 11
3991.8999671936035
 21
-9039.50023651123
 31
0.0
  0
LINE
  5
173
330
17
100
AcDbEntity
  8
A-MEP-PLMB
370
13
100
AcDbLine
 10
4006.1874389648438
 20
-9045.85075378418
 30
0.0
 11
4117.753505706787
 21
-9045.85075378418
 31
0.0
  0
LINE
  5
174
330
17
100
AcDbEntity
  8
A-MEP-PLMB
370
13
100
AcDbLine
 10
4151.884078979492
 20
-9018.864631652832
 30
0.0
 11
4151.884078979492
 21
-8176.934242248535
 31
0.0
  0
LINE
  5
175
330
17
100
AcDbEntity
  8
A-MEP-PLMB
370
13
100
AcDbLine
 10
3991.8999671936035
 20
-9702.202796936035
 30
0.0
 11
3991.8999671936035
 21
-9689.50080871582
 31
0.0
  0
LINE
  5
176
330
17
100
AcDbEntity
  8
A-MEP-PLMB
370
13
100
AcDbLine
 10
4006.1874389648438
 20
-9695.851802825928
 30
0.0
 11
4117.753505706787
 21
-9695.851802825928
 31
0.0
  0
LINE
  5
177
330
17
100
AcDbEntity
  8
A-MEP-PLMB
370
13
100
AcDbLine
 10
4647.542715072632
 20
-9079.712867736816
 30
0.0
 11
4647.542715072632
 21
-8461.143493652344
 31
0.0
  0
LINE
  5
178
330
17
100
AcDbEntity
  8
A-MEP-PLMB
370
13
100
AcDbLine
 10
4661.829948425293
 20
-9796.293258666992
 30
0.0
 11
4785.8757972717285
 21
-9796.293258666992
 31
0.0
  0
LINE
  5
179
330
17
100
AcDbEntity
  8
A-MEP-PLMB
370
13
100
AcDbLine
 10
4647.542715072632
 20
-9802.643775939941
 30
0.0
 11
4647.542715072632
 21
-9789.942741394043
 31
0.0
  0
LINE
  5
17A
330
17
100
AcDbEntity
  8
A-MEP-PLMB
370
13
100
AcDbLine
 10
4808.099985122681
 20
-9113.05046081543
 30
0.0
 11
4808.099985122681
 21
-9100.348472595215
 31
0.0
  0
LINE
  5
17B
330
17
100
AcDbEntity
  8
A-MEP-PLMB
370
13
100
AcDbLine
 10
4681.673049926758
 20
-9106.699466705322
 30
0.0
 11
4793.813228607178
 21
-9106.699466705322
 31
0.0
  0
LINE
  5
17C
330
17
100
AcDbEntity
  8
A-MEP-PLMB
370
13
100
AcDbLine
 10
4647.542715072632
 20
-9769.306182861328
 30
0.0
 11
4647.542715072632
 21
-9133.686065673828
 31
0.0
  0
LINE
  5
17D
330
17
100
AcDbEntity
  8
A-MEP-PLMB
370
13
100
AcDbLine
 10
4661.829948425293
 20
-8368.200302124023
 30
0.0
 11
4770.000457763672
 21
-8368.200302124023
 31
0.0
  0
LINE
  5
17E
330
17
100
AcDbEntity
  8
A-MEP-PLMB
370
13
100
AcDbLine
 10
4647.542715072632
 20
-8425.42552947998
 30
0.0
 11
4647.542715072632
 21
-8382.487297058105
 31
0.0
  0
LINE
  5
17F
330
17
100
AcDbEntity
  8
A-MEP-PLMB
370
13
100
AcDbLine
 10
4647.542715072632
 20
-8446.063041687012
 30
0.0
 11
4647.542715072632
 21
-8433.361053466797
 31
0.0
  0
LINE
  5
180
330
17
100
AcDbEntity
  8
A-MEP-PLMB
370
13
100
AcDbLine
 10
4647.542715072632
 20
-9867.281913757324
 30
0.0
 11
4647.542715072632
 21
-9823.280334472656
 31
0.0
  0
LINE
  5
181
330
17
100
AcDbEntity
  8
A-MEP-PLMB
370
13
100
AcDbLine
 10
4647.542715072632
 20
-9906.968116760254
 30
0.0
 11
4647.542715072632
 21
-9881.567001342773
 31
0.0
  0
LINE
  5
182
330
17
100
AcDbEntity
  8
A-MEP-PLMB
370
13
100
AcDbLine
 10
4647.542715072632
 20
-8092.597007751465
 30
0.0
 11
4647.542715072632
 21
-7663.847923278809
 31
0.0
  0
LINE
  5
183
330
17
100
AcDbEntity
  8
A-MEP-PLMB
370
13
100
AcDbLine
 10
4647.542715072632
 20
-10265.717506408691
 30
0.0
 11
4647.542715072632
 21
-9921.255111694336
 31
0.0
  0
LINE
  5
184
330
17
100
AcDbEntity
  8
A-MEP-PLMB
370
13
100
AcDbLine
 10
4647.542715072632
 20
-10376.712799072266
 30
0.0
 11
4647.542715072632
 21
-9921.255111694336
 31
0.0
  0
LINE
  5
185
330
17
100
AcDbEntity
  8
A-MEP-PLMB
370
13
100
AcDbLine
 10
4801.749229431152
 20
-8769.584655761719
 30
0.0
 11
4814.450740814209
 21
-8769.584655761719
 31
0.0
  0
LINE
  5
186
330
17
100
AcDbEntity
  8
A-MEP-PLMB
370
13
100
AcDbLine
 10
4681.673049926758
 20
-8769.584655761719
 30
0.0
 11
4793.813228607178
 21
-8769.584655761719
 31
0.0
  0
LINE
  5
187
330
17
100
AcDbEntity
  8
A-MEP-PLMB
370
13
100
AcDbLine
 10
4647.542715072632
 20
-9639.065742492676
 30
0.0
 11
4647.542715072632
 21
-8796.571731567383
 31
0.0
  0
LINE
  5
188
330
17
100
AcDbEntity
  8
A-MEP-PLMB
370
13
100
AcDbLine
 10
4801.749229431152
 20
-8119.584083557129
 30
0.0
 11
4814.450740814209
 21
-8119.584083557129
 31
0.0
  0
LINE
  5
189
330
17
100
AcDbEntity
  8
A-MEP-PLMB
370
13
100
AcDbLine
 10
4681.673049926758
 20
-8119.584083557129
 30
0.0
 11
4793.813228607178
 21
-8119.584083557129
 31
0.0
  0
LINE
  5
18A
330
17
100
AcDbEntity
  8
A-MEP-PLMB
370
13
100
AcDbLine
 10
-389.391154050827
 20
-9246.354579925537
 30
0.0
 11
1801.9052743911743
 21
-9246.354579925537
 31
0.0
  0
LINE
  5
18B
330
17
100
AcDbEntity
  8
A-MEP-PLMB
370
13
100
AcDbLine
 10
4151.884078979492
 20
-10002.5634765625
 30
0.0
 11
4151.884078979492
 21
-9722.838401794434
 31
0.0
  0
LINE
  5
18C
330
17
100
AcDbEntity
  8
A-MEP-PLMB
370
13
100
AcDbLine
 10
3337.800979614258
 20
-10023.200988769531
 30
0.0
 11
4131.246566772461
 21
-10023.200988769531
 31
0.0
  0
LINE
  5
18D
330
17
100
AcDbEntity
  8
A-MEP-PLMB
370
13
100
AcDbLine
 10
4151.884078979492
 20
-9668.865203857422
 30
0.0
 11
4151.884078979492
 21
-9072.837829589844
 31
0.0
  0
LINE
  5
18E
330
17
100
AcDbEntity
  8
A-MEP-PLMB
370
13
100
AcDbLine
 10
4090.3337001800537
 20
-8454.007148742676
 30
0.0
 11
4090.3337001800537
 21
-8428.606033325195
 31
0.0
  0
LINE
  5
18F
330
17
100
AcDbEntity
  8
A-MEP-PLMB
370
13
100
AcDbLine
 10
3991.8999671936035
 20
-8950.601577758789
 30
0.0
 11
3991.8999671936035
 21
-8937.90054321289
 31
0.0
  0
LINE
  5
190
330
17
100
AcDbEntity
  8
A-MEP-PLMB
370
13
100
AcDbLine
 10
4006.1874389648438
 20
-8944.25106048584
 30
0.0
 11
4056.2028884887695
 21
-8944.25106048584
 31
0.0
  0
LINE
  5
191
330
17
100
AcDbEntity
  8
A-MEP-PLMB
370
13
100
AcDbLine
 10
4090.3337001800537
 20
-8414.319038391113
 30
0.0
 11
4090.3337001800537
 21
-8003.739356994629
 31
0.0
  0
LINE
  5
192
330
17
100
AcDbEntity
  8
A-MEP-PLMB
370
13
100
AcDbLine
 10
3985.5499267578125
 20
-9594.251155853271
 30
0.0
 11
3998.2500076293945
 21
-9594.251155853271
 31
0.0
  0
LINE
  5
193
330
17
100
AcDbEntity
  8
A-MEP-PLMB
370
13
100
AcDbLine
 10
4006.1874389648438
 20
-9594.251155853271
 30
0.0
 11
4056.2028884887695
 21
-9594.251155853271
 31
0.0
  0
LINE
  5
194
330
17
100
AcDbEntity
  8
A-MEP-PLMB
370
13
100
AcDbLine
 10
4090.3337001800537
 20
-9567.264556884766
 30
0.0
 11
4090.3337001800537
 21
-8971.237182617188
 31
0.0
  0
LINE
  5
195
330
17
100
AcDbEntity
  8
A-MEP-PLMB
370
13
100
AcDbLine
 10
4090.3337001800537
 20
-10329.452514648438
 30
0.0
 11
4090.3337001800537
 21
-9621.237754821777
 31
0.0
  0
LINE
  5
196
330
17
100
AcDbEntity
  8
A-MEP-PLMB
370
13
100
AcDbLine
 10
4647.542715072632
 20
-8742.597579956055
 30
0.0
 11
4647.542715072632
 21
-8146.571159362793
 31
0.0
  0
LINE
  5
197
330
17
100
AcDbEntity
  8
A-MEP-PLMB
370
13
100
AcDbLine
 10
4668.179988861084
 20
-7643.210411071777
 30
0.0
 11
5461.905956268311
 21
-7643.210411071777
 31
0.0
  0
LINE
  5
198
330
17
100
AcDbEntity
  8
A-MEP-PLMB
370
13
100
AcDbLine
 10
4727.970600128174
 20
-6804.121494293213
 30
0.0
 11
5407.8369140625
 21
-6804.121494293213
 31
0.0
  0
LINE
  5
199
330
17
100
AcDbEntity
  8
A-MEP-PLMB
370
13
100
AcDbLine
 10
4676.687479019165
 20
-9359.016418457031
 30
0.0
 11
4676.687479019165
 21
-9333.61530303955
 31
0.0
  0
LINE
  5
19A
330
17
100
AcDbEntity
  8
A-MEP-PLMB
370
13
100
AcDbLine
 10
4707.33380317688
 20
-9359.016418457031
 30
0.0
 11
4707.33380317688
 21
-9333.61530303955
 31
0.0
  0
LINE
  5
19B
330
17
100
AcDbEntity
  8
A-MEP-PLMB
370
13
100
AcDbLine
 10
4121.4563846588135
 20
-8454.007148742676
 30
0.0
 11
4121.4563846588135
 21
-8428.606033325195
 31
0.0
  0
LINE
  5
19C
330
17
100
AcDbEntity
  8
A-MEP-PLMB
370
13
100
AcDbLine
 10
4801.749229431152
 20
-8221.184253692627
 30
0.0
 11
4814.450740814209
 21
-8221.184253692627
 31
0.0
  0
LINE
  5
19D
330
17
100
AcDbEntity
  8
A-MEP-PLMB
370
13
100
AcDbLine
 10
4741.465091705322
 20
-8221.184253692627
 30
0.0
 11
4793.813228607178
 21
-8221.184253692627
 31
0.0
  0
LINE
  5
19E
330
17
100
AcDbEntity
  8
A-MEP-PLMB
370
13
100
AcDbLine
 10
4707.33380317688
 20
-8194.197654724121
 30
0.0
 11
4707.33380317688
 21
-6824.758052825928
 31
0.0
  0
LINE
  5
19F
330
17
100
AcDbEntity
  8
A-MEP-PLMB
370
13
100
AcDbLine
 10
4801.749229431152
 20
-8871.184349060059
 30
0.0
 11
4814.450740814209
 21
-8871.184349060059
 31
0.0
  0
LINE
  5
1A0
330
17
100
AcDbEntity
  8
A-MEP-PLMB
370
13
100
AcDbLine
 10
4741.465091705322
 20
-8871.184349060059
 30
0.0
 11
4793.813228607178
 21
-8871.184349060059
 31
0.0
  0
LINE
  5
1A1
330
17
100
AcDbEntity
  8
A-MEP-PLMB
370
13
100
AcDbLine
 10
4707.33380317688
 20
-9940.613746643066
 30
0.0
 11
4707.33380317688
 21
-9373.303413391113
 31
0.0
  0
LINE
  5
1A2
330
17
100
AcDbEntity
  8
A-MEP-PLMB
370
13
100
AcDbLine
 10
4707.33380317688
 20
-8844.198226928711
 30
0.0
 11
4707.33380317688
 21
-8248.170852661133
 31
0.0
  0
LINE
  5
1A3
330
17
100
AcDbEntity
  8
A-MEP-PLMB
370
13
100
AcDbLine
 10
4677.33359336853
 20
-9973.95133972168
 30
0.0
 11
4677.33359336853
 21
-9948.5502243042
 31
0.0
  0
LINE
  5
1A4
330
17
100
AcDbEntity
  8
A-MEP-PLMB
370
13
100
AcDbLine
 10
4647.334098815918
 20
-10670.93276977539
 30
0.0
 11
4647.334098815918
 21
-9981.886863708496
 31
0.0
  0
LINE
  5
1A5
330
17
100
AcDbEntity
  8
A-MEP-PLMB
370
13
100
AcDbLine
 10
4677.542924880981
 20
-10410.051345825195
 30
0.0
 11
4677.542924880981
 21
-10384.648323059082
 31
0.0
  0
LINE
  5
1A6
330
17
100
AcDbEntity
  8
A-MEP-PLMB
370
13
100
AcDbLine
 10
4707.542657852173
 20
-10467.731475830078
 30
0.0
 11
4707.542657852173
 21
-10417.985916137695
 31
0.0
  0
LINE
  5
1A7
330
17
100
AcDbEntity
  8
A-MEP-PLMB
370
13
100
AcDbLine
 10
4717.067241668701
 20
-10484.400272369385
 30
0.0
 11
4768.500804901123
 21
-10484.400272369385
 31
0.0
  0
LINE
  5
1A8
330
17
100
AcDbEntity
  8
A-MEP-PLMB
370
13
100
AcDbLine
 10
4707.542419433594
 20
-10487.576484680176
 30
0.0
 11
4707.542419433594
 21
-10481.224060058594
 31
0.0
  0
LINE
  5
1A9
330
17
100
AcDbEntity
  8
A-MEP-PLMB
370
13
100
AcDbLine
 10
4656.858444213867
 20
-10687.599658966064
 30
0.0
 11
4768.500804901123
 21
-10687.599658966064
 31
0.0
  0
LINE
  5
1AA
330
17
100
AcDbEntity
  8
A-MEP-PLMB
370
13
100
AcDbLine
 10
4647.334098815918
 20
-10690.775871276855
 30
0.0
 11
4647.334098815918
 21
-10684.423446655273
 31
0.0
  0
LINE
  5
1AB
330
17
100
AcDbEntity
  8
A-MEP-PLMB
370
13
100
AcDbLine
 10
4661.829948425293
 20
-9666.05281829834
 30
0.0
 11
4784.375190734863
 21
-9666.05281829834
 31
0.0
  0
LINE
  5
1AC
330
17
100
AcDbEntity
  8
A-MEP-PLMB
370
13
100
AcDbLine
 10
4647.542715072632
 20
-9672.403335571289
 30
0.0
 11
4647.542715072632
 21
-9659.70230102539
 31
0.0
  0
LINE
  5
1AD
330
17
100
AcDbEntity
  8
A-MEP-PLMB
370
13
100
AcDbLine
 10
4647.542715072632
 20
-9867.281913757324
 30
0.0
 11
4647.542715072632
 21
-9693.039894104004
 31
0.0
  0
LINE
  5
1AE
330
17
100
AcDbEntity
  8
A-MEP-PLMB
370
13
100
AcDbLine
 10
4090.3337001800537
 20
-8917.263984680176
 30
0.0
 11
4090.3337001800537
 21
-8468.293190002441
 31
0.0
  0
LINE
  5
1AF
330
17
100
AcDbEntity
  8
A-MEP-PLMB
370
13
100
AcDbLine
 10
4120.333671569824
 20
-7995.803356170654
 30
0.0
 11
4120.333671569824
 21
-7970.401763916016
 31
0.0
  0
LINE
  5
1B0
330
17
100
AcDbEntity
  8
A-MEP-PLMB
370
13
100
AcDbLine
 10
4150.333642959595
 20
-7962.465763092041
 30
0.0
 11
4150.333642959595
 21
-7145.068645477295
 31
0.0
  0
LINE
  5
1B1
330
17
100
AcDbEntity
  8
A-MEP-PLMB
370
13
100
AcDbLine
 10
4030.9996604919434
 20
-7128.399610519409
 30
0.0
 11
4140.809059143066
 21
-7128.399610519409
 31
0.0
  0
LINE
  5
1B2
330
17
100
AcDbEntity
  8
A-MEP-PLMB
370
13
100
AcDbLine
 10
4150.333881378174
 20
-7131.575107574463
 30
0.0
 11
4150.333881378174
 21
-7125.2241134643555
 31
0.0
  0
LINE
  5
1B3
330
17
100
AcDbEntity
  8
A-MEP-PLMB
370
13
100
AcDbLine
 10
4097.5213050842285
 20
-7480.303525924683
 30
0.0
 11
4131.246566772461
 21
-7480.303525924683
 31
0.0
  0
LINE
  5
1B4
330
17
100
AcDbEntity
  8
A-MEP-PLMB
370
13
100
AcDbLine
 10
4076.8840312957764
 20
-7459.666728973389
 30
0.0
 11
4076.8840312957764
 21
-7348.268032073975
 31
0.0
  0
LINE
  5
1B5
330
17
100
AcDbEntity
  8
A-MEP-PLMB
370
13
100
AcDbLine
 10
4030.9996604919434
 20
-7331.6004276275635
 30
0.0
 11
4067.359447479248
 21
-7331.6004276275635
 31
0.0
  0
LINE
  5
1B6
330
17
100
AcDbEntity
  8
A-MEP-PLMB
370
13
100
AcDbLine
 10
4076.8840312957764
 20
-7334.775924682617
 30
0.0
 11
4076.8840312957764
 21
-7328.42493057251
 31
0.0
  0
LINE
  5
1B7
330
17
100
AcDbEntity
  8
A-MEP-PLMB
370
13
100
AcDbLine
 10
4707.33380317688
 20
-9319.329261779785
 30
0.0
 11
4707.33380317688
 21
-8898.171424865723
 31
0.0
  0
LINE
  5
1B8
330
17
100
AcDbEntity
  8
A-MEP-PLMB
370
13
100
AcDbLine
 10
4152.579069137573
 20
-9088.66024017334
 30
0.0
 11
4152.579069137573
 21
-8618.68667602539
 31
0.0
  0
LINE
  5
1B9
330
17
100
AcDbEntity
  8
A-MEP-PLMB
370
13
100
AcDbLine
 10
4152.579069137573
 20
-8454.007148742676
 30
0.0
 11
4152.579069137573
 21
-8428.606033325195
 31
0.0
  0
LINE
  5
1BA
330
17
100
AcDbEntity
  8
A-MEP-PLMB
370
13
100
AcDbLine
 10
4646.040916442871
 20
-9181.312561035156
 30
0.0
 11
4646.040916442871
 21
-8618.230819702148
 31
0.0
  0
LINE
  5
1BB
330
17
100
AcDbEntity
  8
A-MEP-PLMB
370
13
100
AcDbLine
 10
4633.340358734131
 20
-9346.315860748291
 30
0.0
 11
4658.741474151611
 21
-9346.315860748291
 31
0.0
  0
LINE
  5
1BC
330
17
100
AcDbEntity
  8
A-MEP-PLMB
370
13
100
AcDbLine
 10
4151.884078979492
 20
-9139.368057250977
 30
0.0
 11
4151.884078979492
 21
-8720.287322998047
 31
0.0
  0
LINE
  5
1BD
330
17
100
AcDbEntity
  8
A-MEP-PLMB
370
13
100
AcDbLine
 10
4029.9997329711914
 20
-9431.799411773682
 30
0.0
 11
4137.596607208252
 21
-9431.799411773682
 31
0.0
  0
LINE
  5
1BE
330
17
100
AcDbEntity
  8
A-MEP-PLMB
370
13
100
AcDbLine
 10
4151.884078979492
 20
-9417.512893676758
 30
0.0
 11
4151.884078979492
 21
-9354.574203491211
 31
0.0
  0
LINE
  5
1BF
330
17
100
AcDbEntity
  8
A-MEP-PLMB
370
13
100
AcDbLine
 10
4151.884078979492
 20
-9346.637725830078
 30
0.0
 11
4151.884078979492
 21
-9333.93669128418
 31
0.0
  0
LINE
  5
1C0
330
17
100
AcDbEntity
  8
A-MEP-PLMB
370
13
100
AcDbLine
 10
4029.9997329711914
 20
-9203.200340270996
 30
0.0
 11
4138.291835784912
 21
-9203.200340270996
 31
0.0
  0
LINE
  5
1C1
330
17
100
AcDbEntity
  8
A-MEP-PLMB
370
13
100
AcDbLine
 10
4152.579069137573
 20
-9188.913345336914
 30
0.0
 11
4152.579069137573
 21
-9124.377250671387
 31
0.0
  0
LINE
  5
1C2
330
17
100
AcDbEntity
  8
A-MEP-PLMB
370
13
100
AcDbLine
 10
4152.579069137573
 20
-9116.440773010254
 30
0.0
 11
4152.579069137573
 21
-9103.739738464355
 31
0.0
  0
LINE
  5
1C3
330
17
100
AcDbEntity
  8
A-MEP-PLMB
370
13
100
AcDbLine
 10
3991.8999671936035
 20
-8598.050117492676
 30
0.0
 11
3991.8999671936035
 21
-8585.349082946777
 31
0.0
  0
LINE
  5
1C4
330
17
100
AcDbEntity
  8
A-MEP-PLMB
370
13
100
AcDbLine
 10
4006.1874389648438
 20
-8591.699600219727
 30
0.0
 11
4118.448257446289
 21
-8591.699600219727
 31
0.0
  0
LINE
  5
1C5
330
17
100
AcDbEntity
  8
A-MEP-PLMB
370
13
100
AcDbLine
 10
4152.579069137573
 20
-8564.712524414062
 30
0.0
 11
4152.579069137573
 21
-8468.293190002441
 31
0.0
  0
LINE
  5
1C6
330
17
100
AcDbEntity
  8
A-MEP-PLMB
370
13
100
AcDbLine
 10
4660.328388214111
 20
-8596.799850463867
 30
0.0
 11
4770.000457763672
 21
-8596.799850463867
 31
0.0
  0
LINE
  5
1C7
330
17
100
AcDbEntity
  8
A-MEP-PLMB
370
13
100
AcDbLine
 10
4646.04115486145
 20
-8603.150367736816
 30
0.0
 11
4646.04115486145
 21
-8590.449333190918
 31
0.0
  0
LINE
  5
1C8
330
17
100
AcDbEntity
  8
A-MEP-PLMB
370
13
100
AcDbLine
 10
4801.749229431152
 20
-9208.29963684082
 30
0.0
 11
4814.450740814209
 21
-9208.29963684082
 31
0.0
  0
LINE
  5
1C9
330
17
100
AcDbEntity
  8
A-MEP-PLMB
370
13
100
AcDbLine
 10
4680.171966552734
 20
-9208.29963684082
 30
0.0
 11
4793.813228607178
 21
-9208.29963684082
 31
0.0
  0
LINE
  5
1CA
330
17
100
AcDbEntity
  8
A-MEP-PLMB
370
13
100
AcDbLine
 10
4646.040916442871
 20
-9609.651565551758
 30
0.0
 11
4646.040916442871
 21
-9373.303413391113
 31
0.0
  0
LINE
  5
1CB
330
17
100
AcDbEntity
  8
A-MEP-PLMB
370
13
100
AcDbLine
 10
4152.579069137573
 20
-8454.007148742676
 30
0.0
 11
4152.579069137573
 21
-8428.606033325195
 31
0.0
  0
LINE
  5
1CC
330
17
100
AcDbEntity
  8
A-MEP-PLMB
370
13
100
AcDbLine
 10
4152.579069137573
 20
-8420.669555664062
 30
0.0
 11
4152.579069137573
 21
-8120.7427978515625
 31
0.0
  0
LINE
  5
1CD
330
17
100
AcDbEntity
  8
A-MEP-PLMB
370
13
100
AcDbLine
 10
4122.579097747803
 20
-8112.80632019043
 30
0.0
 11
4122.579097747803
 21
-8087.405204772949
 31
0.0
  0
LINE
  5
1CE
330
17
100
AcDbEntity
  8
A-MEP-PLMB
370
13
100
AcDbLine
 10
4092.579126358032
 20
-8079.468727111816
 30
0.0
 11
4092.579126358032
 21
-7896.943092346191
 31
0.0
  0
LINE
  5
1CF
330
17
100
AcDbEntity
  8
A-MEP-PLMB
370
13
100
AcDbLine
 10
4122.579097747803
 20
-7889.007091522217
 30
0.0
 11
4122.579097747803
 21
-7863.605499267578
 31
0.0
  0
LINE
  5
1D0
330
17
100
AcDbEntity
  8
A-MEP-PLMB
370
13
100
AcDbLine
 10
4152.579069137573
 20
-7855.669021606445
 30
0.0
 11
4152.579069137573
 21
-7526.943683624268
 31
0.0
  0
LINE
  5
1D1
330
17
100
AcDbEntity
  8
A-MEP-PLMB
370
13
100
AcDbLine
 10
4173.216342926025
 20
-7506.306409835815
 30
0.0
 11
5901.468753814697
 21
-7506.306409835815
 31
0.0
  0
LINE
  5
1D2
330
17
100
AcDbEntity
  8
A-MEP-PLMB
370
13
100
AcDbLine
 10
4646.040916442871
 20
-9319.329261779785
 30
0.0
 11
4646.040916442871
 21
-9235.286712646484
 31
0.0
  0
LINE
  5
1D3
330
17
100
AcDbEntity
  8
A-MEP-PLMB
370
13
100
AcDbLine
 10
4633.340358734131
 20
-9630.287647247314
 30
0.0
 11
4658.741474151611
 21
-9630.287647247314
 31
0.0
  0
LINE
  5
1D4
330
17
100
AcDbEntity
  8
A-MEP-PLMB
370
13
100
AcDbLine
 10
4707.33380317688
 20
-9926.507949829102
 30
0.0
 11
4707.33380317688
 21
-9650.924682617188
 31
0.0
  0
LINE
  5
1D5
330
17
100
AcDbEntity
  8
A-MEP-PLMB
370
13
100
AcDbLine
 10
2898.531198501587
 20
-10270.28751373291
 30
0.0
 11
4625.140190124512
 21
-10270.28751373291
 31
0.0
  0
LINE
  5
1D6
330
17
100
AcDbEntity
  8
A-MEP-PLMB
370
13
100
AcDbLine
 10
4676.687479019165
 20
-9642.988204956055
 30
0.0
 11
4676.687479019165
 21
-9617.587089538574
 31
0.0
  0
LINE
  5
1D7
330
17
100
AcDbEntity
  8
A-MEP-PLMB
370
13
100
AcDbLine
 10
4645.777702331543
 20
-10249.650001525879
 30
0.0
 11
4645.777702331543
 21
-9967.781066894531
 31
0.0
  0
LINE
  5
1D8
330
17
100
AcDbEntity
  8
A-MEP-PLMB
370
13
100
AcDbLine
 10
4676.555633544922
 20
-9959.845542907715
 30
0.0
 11
4676.555633544922
 21
-9934.442520141602
 31
0.0
  0
LINE
  5
1D9
330
17
100
AcDbEntity
  8
A-MEP-PLMB
370
13
100
AcDbLine
 10
4090.3337001800537
 20
-9592.785835266113
 30
0.0
 11
4090.3337001800537
 21
-9047.330856323242
 31
0.0
  0
LINE
  5
1DA
330
17
100
AcDbEntity
  8
A-MEP-PLMB
370
13
100
AcDbLine
 10
4090.3337001800537
 20
-10567.954063415527
 30
0.0
 11
4090.3337001800537
 21
-9697.437286376953
 31
0.0
  0
LINE
  5
1DB
330
17
100
AcDbEntity
  8
A-MEP-PLMB
370
13
100
AcDbLine
 10
4090.3337001800537
 20
-10619.06909942627
 30
0.0
 11
4090.3337001800537
 21
-10570.808410644531
 31
0.0
  0
LINE
  5
1DC
330
17
100
AcDbEntity
  8
A-MEP-PLMB
370
13
100
AcDbLine
 10
4707.33380317688
 20
-8768.118858337402
 30
0.0
 11
4707.33380317688
 21
-8222.651481628418
 31
0.0
  0
LINE
  5
1DD
330
17
100
AcDbEntity
  8
A-MEP-PLMB
370
13
100
AcDbLine
 10
4707.33380317688
 20
-7304.732322692871
 30
0.0
 11
4707.33380317688
 21
-7256.370544433594
 31
0.0
  0
LINE
  5
1DE
330
17
100
AcDbEntity
  8
A-MEP-PLMB
370
13
100
AcDbLine
 10
4121.116876602173
 20
-10362.79010772705
 30
0.0
 11
4121.116876602173
 21
-10337.389945983887
 31
0.0
  0
LINE
  5
1DF
330
17
100
AcDbEntity
  8
A-MEP-PLMB
370
13
100
AcDbLine
 10
4151.900053024292
 20
-10953.311920166016
 30
0.0
 11
4151.900053024292
 21
-10370.726585388184
 31
0.0
  0
LINE
  5
1E0
330
17
100
AcDbEntity
  8
A-MEP-PLMB
370
13
100
AcDbLine
 10
3392.1635150909424
 20
-10973.94847869873
 30
0.0
 11
4131.26277923584
 21
-10973.94847869873
 31
0.0
  0
LINE
  5
1E1
330
17
100
AcDbEntity
  8
A-MEP-PLMB
370
13
100
AcDbLine
 10
3371.526598930359
 20
-10953.311920166016
 30
0.0
 11
3371.526598930359
 21
-10924.599647521973
 31
0.0
  0
LINE
  5
1E2
330
17
100
AcDbEntity
  8
A-MEP-PLMB
370
13
100
AcDbLine
 10
3354.825496673584
 20
-10897.612571716309
 30
0.0
 11
3388.2269859313965
 21
-10897.612571716309
 31
0.0
  0
LINE
  5
1E3
330
17
100
AcDbEntity
  8
A-MEP-PLMB
370
13
100
AcDbLine
 10
3371.526598930359
 20
-10986.649513244629
 30
0.0
 11
3371.526598930359
 21
-10961.247444152832
 31
0.0
  0
LINE
  5
1E4
330
17
100
AcDbEntity
  8
A-MEP-PLMB
370
13
100
AcDbLine
 10
3304.4638633728027
 20
-10053.794384002686
 30
0.0
 11
3329.864263534546
 21
-10053.794384002686
 31
0.0
  0
LINE
  5
1E5
330
17
100
AcDbEntity
  8
A-MEP-PLMB
370
13
100
AcDbLine
 10
3304.4638633728027
 20
-10084.38777923584
 30
0.0
 11
3329.864263534546
 21
-10084.38777923584
 31
0.0
  0
LINE
  5
1E6
330
17
100
AcDbEntity
  8
A-MEP-PLMB
370
13
100
AcDbLine
 10
3371.526598930359
 20
-10927.775382995605
 30
0.0
 11
3371.526598930359
 21
-10867.449760437012
 31
0.0
  0
LINE
  5
1E7
330
17
100
AcDbEntity
  8
A-MEP-PLMB
370
13
100
AcDbLine
 10
3317.1640634536743
 20
-10636.682510375977
 30
0.0
 11
3317.1640634536743
 21
-10576.35498046875
 31
0.0
  0
LINE
  5
1E8
330
17
100
AcDbEntity
  8
A-MEP-PLMB
370
13
100
AcDbLine
 10
3317.1637058258057
 20
-10579.532623291016
 30
0.0
 11
3317.1637058258057
 21
-10528.336524963379
 31
0.0
  0
LINE
  5
1E9
330
17
100
AcDbEntity
  8
A-MEP-PLMB
370
13
100
AcDbLine
 10
3317.1637058258057
 20
-10623.220443725586
 30
0.0
 11
3317.1637058258057
 21
-10589.81704711914
 31
0.0
  0
LINE
  5
1EA
330
17
100
AcDbEntity
  8
A-MEP-PLMB
370
13
100
AcDbLine
 10
3317.1637058258057
 20
-10623.220443725586
 30
0.0
 11
3317.1637058258057
 21
-10589.81704711914
 31
0.0
  0
LINE
  5
1EB
330
17
100
AcDbEntity
  8
A-MEP-PLMB
370
13
100
AcDbLine
 10
3317.1640634536743
 20
-10168.33782196045
 30
0.0
 11
3317.1640634536743
 21
-10105.024337768555
 31
0.0
  0
LINE
  5
1EC
330
17
100
AcDbEntity
  8
A-MEP-PLMB
370
13
100
AcDbLine
 10
3371.526598930359
 20
-10986.649513244629
 30
0.0
 11
3371.526598930359
 21
-10961.247444152832
 31
0.0
  0
LINE
  5
1ED
330
17
100
AcDbEntity
  8
A-MEP-PLMB
370
13
100
AcDbLine
 10
3354.825496673584
 20
-10897.612571716309
 30
0.0
 11
3388.2269859313965
 21
-10897.612571716309
 31
0.0
  0
LINE
  5
1EE
330
17
100
AcDbEntity
  8
A-MEP-PLMB
370
13
100
AcDbLine
 10
5470.104217529297
 20
-7231.660604476929
 30
0.0
 11
5495.520114898682
 21
-7231.660604476929
 31
0.0
  0
LINE
  5
1EF
330
17
100
AcDbEntity
  8
A-MEP-PLMB
370
13
100
AcDbLine
 10
5469.842433929443
 20
-7643.210887908936
 30
0.0
 11
5495.2712059021
 21
-7643.210887908936
 31
0.0
  0
LINE
  5
1F0
330
17
100
AcDbEntity
  8
A-MEP-PLMB
370
13
100
AcDbLine
 10
5428.473711013794
 20
-6875.400066375732
 30
0.0
 11
5428.473711013794
 21
-6824.758052825928
 31
0.0
  0
LINE
  5
1F1
330
17
100
AcDbEntity
  8
A-MEP-PLMB
370
13
100
AcDbLine
 10
5415.773391723633
 20
-6804.121494293213
 30
0.0
 11
5441.174030303955
 21
-6804.121494293213
 31
0.0
  0
LINE
  5
1F2
330
17
100
AcDbEntity
  8
A-MEP-PLMB
370
13
100
AcDbLine
 10
5411.77225112915
 20
-6902.387857437134
 30
0.0
 11
5445.174217224121
 21
-6902.387857437134
 31
0.0
  0
LINE
  5
1F3
330
17
100
AcDbEntity
  8
A-MEP-PLMB
370
13
100
AcDbLine
 10
5466.135501861572
 20
-7193.481206893921
 30
0.0
 11
5499.537467956543
 21
-7193.481206893921
 31
0.0
  0
LINE
  5
1F4
330
17
100
AcDbEntity
  8
A-MEP-PLMB
370
13
100
AcDbLine
 10
5469.882011413574
 20
-7612.712621688843
 30
0.0
 11
5495.29504776001
 21
-7612.712621688843
 31
0.0
  0
LINE
  5
1F5
330
17
100
AcDbEntity
  8
A-MEP-PLMB
370
13
100
AcDbLine
 10
5415.773391723633
 20
-6804.121494293213
 30
0.0
 11
5441.174030303955
 21
-6804.121494293213
 31
0.0
  0
LINE
  5
1F6
330
17
100
AcDbEntity
  8
A-MEP-PLMB
370
13
100
AcDbLine
 10
3695.835590362549
 20
-10285.315036773682
 30
0.0
 11
3729.2370796203613
 21
-10285.315036773682
 31
0.0
  0
LINE
  5
1F7
330
17
100
AcDbEntity
  8
A-MEP-PLMB
370
13
100
AcDbLine
 10
3733.173608779907
 20
-10248.274803161621
 30
0.0
 11
4026.8988609313965
 21
-10248.274803161621
 31
0.0
  0
LINE
  5
1F8
330
17
100
AcDbEntity
  8
A-MEP-PLMB
370
13
100
AcDbLine
 10
4030.8351516723633
 20
-10248.274803161621
 30
0.0
 11
4064.236640930176
 21
-10248.274803161621
 31
0.0
  0
LINE
  5
1F9
330
17
100
AcDbEntity
  8
A-MEP-PLMB
370
13
100
AcDbLine
 10
-72.46389240026474
 20
-10248.274803161621
 30
0.0
 11
4026.8988609313965
 21
-10248.274803161621
 31
0.0
  0
LINE
  5
1FA
330
17
100
AcDbEntity
  8
A-MEP-PLMB
370
13
100
AcDbLine
 10
-389.5121216773987
 20
-9567.838668823242
 30
0.0
 11
4044.4188117980957
 21
-9567.838668823242
 31
0.0
  0
LINE
  5
1FB
330
17
100
AcDbEntity
  8
A-MEP-PLMB
370
13
100
AcDbLine
 10
5087.463617324829
 20
-7533.363342285156
 30
0.0
 11
5087.463617324829
 21
-7498.281478881836
 31
0.0
  0
LINE
  5
1FC
330
17
100
AcDbEntity
  8
A-MEP-PLMB
370
13
100
AcDbLine
 10
4768.101215362549
 20
-7553.999662399292
 30
0.0
 11
5066.826820373535
 21
-7553.999662399292
 31
0.0
  0
LINE
  5
1FD
330
17
100
AcDbEntity
  8
A-MEP-PLMB
370
13
100
AcDbLine
 10
4008.100986480713
 20
-7553.999662399292
 30
0.0
 11
4726.827144622803
 21
-7553.999662399292
 31
0.0
  0
LINE
  5
1FE
330
17
100
AcDbEntity
  8
A-MEP-PLMB
370
13
100
AcDbLine
 10
4747.463703155518
 20
-7570.700645446777
 30
0.0
 11
4747.463703155518
 21
-7537.298679351807
 31
0.0
  0
LINE
  5
1FF
330
17
100
AcDbEntity
  8
A-MEP-PLMB
370
13
100
AcDbLine
 10
3987.4638319015503
 20
-9677.645683288574
 30
0.0
 11
3987.4638319015503
 21
-7574.637413024902
 31
0.0
  0
LINE
  5
200
330
17
100
AcDbEntity
  8
A-MEP-PLMB
370
13
100
AcDbLine
 10
-72.46389240026474
 20
-9698.281288146973
 30
0.0
 11
3966.8264389038086
 21
-9698.281288146973
 31
0.0
  0
LINE
  5
201
330
17
100
AcDbEntity
  8
A-MEP-PLMB
370
13
100
AcDbLine
 10
2966.000199317932
 20
-10637.86506652832
 30
0.0
 11
2966.000199317932
 21
-10294.411659240723
 31
0.0
  0
LINE
  5
202
330
17
100
AcDbEntity
  8
A-MEP-PLMB
370
13
100
AcDbLine
 10
2992.8672313690186
 20
-10267.579078674316
 30
0.0
 11
4686.821937561035
 21
-10267.579078674316
 31
0.0
  0
LINE
  5
203
330
17
100
AcDbEntity
  8
A-MEP-PLMB
370
13
100
AcDbLine
 10
2864.400029182434
 20
-10490.805625915527
 30
0.0
 11
2864.400029182434
 21
-10478.103637695312
 31
0.0
  0
LINE
  5
204
330
17
100
AcDbEntity
  8
A-MEP-PLMB
370
13
100
AcDbLine
 10
2864.400029182434
 20
-10463.81664276123
 30
0.0
 11
2864.400029182434
 21
-10290.924072265625
 31
0.0
  0
LINE
  5
205
330
17
100
AcDbEntity
  8
A-MEP-PLMB
370
13
100
AcDbLine
 10
5732.400178909302
 20
-7321.896076202393
 30
0.0
 11
5732.400178909302
 21
-7309.195041656494
 31
0.0
  0
LINE
  5
206
330
17
100
AcDbEntity
  8
A-MEP-PLMB
370
13
100
AcDbLine
 10
5732.400178909302
 20
-7451.80082321167
 30
0.0
 11
5732.400178909302
 21
-7336.182594299316
 31
0.0
  0
LINE
  5
207
330
17
100
AcDbEntity
  8
A-MEP-PLMB
370
13
100
AcDbLine
 10
5929.2497634887695
 20
-7315.545558929443
 30
0.0
 11
5941.950798034668
 21
-7315.545558929443
 31
0.0
  0
LINE
  5
208
330
17
100
AcDbEntity
  8
A-MEP-PLMB
370
13
100
AcDbLine
 10
5935.600280761719
 20
-7485.6696128845215
 30
0.0
 11
5935.600280761719
 21
-7336.182594299316
 31
0.0
  0
LINE
  5
209
330
17
100
AcDbEntity
  8
A-MEP-PLMB
370
13
100
AcDbLine
 10
8351.203918457031
 20
-17112.7872467041
 30
0.0
 11
8393.628120422363
 21
-17112.7872467041
 31
0.0
  0
LINE
  5
20A
330
17
100
AcDbEntity
  8
A-MEP-PLMB
370
13
100
AcDbLine
 10
8420.605659484863
 20
-17394.4034576416
 30
0.0
 11
8420.605659484863
 21
-17139.774322509766
 31
0.0
  0
LINE
  5
20B
330
17
100
AcDbEntity
  8
A-MEP-PLMB
370
13
100
AcDbLine
 10
8351.204872131348
 20
-15083.18567276001
 30
0.0
 11
8393.628120422363
 21
-15083.18567276001
 31
0.0
  0
LINE
  5
20C
330
17
100
AcDbEntity
  8
A-MEP-PLMB
370
13
100
AcDbLine
 10
8420.605659484863
 20
-17085.800170898438
 30
0.0
 11
8420.605659484863
 21
-15110.1713180542
 31
0.0
  0
LINE
  5
20D
330
17
100
AcDbEntity
  8
A-MEP-PLMB
370
13
100
AcDbLine
 10
7880.333185195923
 20
-17347.314834594727
 30
0.0
 11
7880.333185195923
 21
-17313.91143798828
 31
0.0
  0
LINE
  5
20E
330
17
100
AcDbEntity
  8
A-MEP-PLMB
370
13
100
AcDbLine
 10
7914.502859115601
 20
-17394.466400146484
 30
0.0
 11
7914.502859115601
 21
-17351.24969482422
 31
0.0
  0
LINE
  5
20F
330
17
100
AcDbEntity
  8
A-MEP-PLMB
370
13
100
AcDbLine
 10
6728.899717330933
 20
-17394.405364990234
 30
0.0
 11
6728.899717330933
 21
-17351.24969482422
 31
0.0
  0
LINE
  5
210
330
17
100
AcDbEntity
  8
A-MEP-PLMB
370
13
100
AcDbLine
 10
406.4651131629944
 20
-14824.704647064209
 30
0.0
 11
448.7500488758087
 21
-14824.704647064209
 31
0.0
  0
LINE
  5
211
330
17
100
AcDbEntity
  8
A-MEP-PLMB
370
13
100
AcDbLine
 10
406.46523237228394
 20
-12818.292617797852
 30
0.0
 11
448.7500488758087
 21
-12818.292617797852
 31
0.0
  0
LINE
  5
212
330
17
100
AcDbEntity
  8
A-MEP-PLMB
370
13
100
AcDbLine
 10
6194.249153137207
 20
-9016.426086425781
 30
0.0
 11
6272.0232009887695
 21
-9016.426086425781
 31
0.0
  0
LINE
  5
213
330
17
100
AcDbEntity
  8
A-MEP-PLMB
370
13
100
AcDbLine
 10
6156.911849975586
 20
-8991.518497467041
 30
0.0
 11
6190.313816070557
 21
-8991.518497467041
 31
0.0
  0
LINE
  5
214
330
17
100
AcDbEntity
  8
A-MEP-PLMB
370
13
100
AcDbLine
 10
452.5001645088196
 20
-2715.62123298645
 30
0.0
 11
485.90734601020813
 21
-2715.62123298645
 31
0.0
  0
LINE
  5
215
330
17
100
AcDbEntity
  8
A-MEP-PLMB
370
13
100
AcDbLine
 10
379.3944716453552
 20
-660.2251529693604
 30
0.0
 11
379.3944716453552
 21
-399.6758162975311
 31
0.0
  0
LINE
  5
216
330
17
100
AcDbEntity
  8
A-MEP-PLMB
370
13
100
AcDbLine
 10
406.3700735569
 20
-687.2126460075378
 30
0.0
 11
448.5604166984558
 21
-687.2126460075378
 31
0.0
  0
LINE
  5
217
330
17
100
AcDbEntity
  8
A-MEP-PLMB
370
13
100
AcDbLine
 10
379.3944865465164
 20
-2688.634157180786
 30
0.0
 11
379.3944865465164
 21
-714.1999006271362
 31
0.0
  0
LINE
  5
218
330
17
100
AcDbEntity
  8
A-MEP-PLMB
370
13
100
AcDbLine
 10
406.3701033592224
 20
-2715.62123298645
 30
0.0
 11
448.5604763031006
 21
-2715.62123298645
 31
0.0
  0
LINE
  5
219
330
17
100
AcDbEntity
  8
A-MEP-PLMB
370
13
100
AcDbLine
 10
379.3944865465164
 20
-10007.987976074219
 30
0.0
 11
379.3944865465164
 21
-2742.6087856292725
 31
0.0
  0
LINE
  5
21A
330
17
100
AcDbEntity
  8
A-MEP-PLMB
370
13
100
AcDbLine
 10
924.6658980846405
 20
-486.10207438468933
 30
0.0
 11
924.6658980846405
 21
-452.68699526786804
 31
0.0
  0
LINE
  5
21B
330
17
100
AcDbEntity
  8
A-MEP-PLMB
370
13
100
AcDbLine
 10
895.4865336418152
 20
-448.7640857696533
 30
0.0
 11
895.4865336418152
 21
-399.6744751930237
 31
0.0
  0
LINE
  5
21C
330
17
100
AcDbEntity
  8
A-MEP-PLMB
370
13
100
AcDbLine
 10
2074.0689039230347
 20
-448.7796723842621
 30
0.0
 11
2074.0689039230347
 21
-399.67578649520874
 31
0.0
  0
LINE
  5
21D
330
17
100
AcDbEntity
  8
A-MEP-PLMB
370
13
100
AcDbLine
 10
8351.249694824219
 20
-2956.4249515533447
 30
0.0
 11
8394.484519958496
 21
-2956.4249515533447
 31
0.0
  0
LINE
  5
21E
330
17
100
AcDbEntity
  8
A-MEP-PLMB
370
13
100
AcDbLine
 10
8351.249694824219
 20
-5076.798439025879
 30
0.0
 11
8394.48356628418
 21
-5076.798439025879
 31
0.0
  0
LINE
  5
21F
330
17
100
AcDbEntity
  8
A-MEP-PLMB
370
13
100
AcDbLine
 10
8415.121078491211
 20
-5049.811363220215
 30
0.0
 11
8415.121078491211
 21
-2983.412504196167
 31
0.0
  0
LINE
  5
220
330
17
100
AcDbEntity
  8
A-MEP-PLMB
370
13
100
AcDbLine
 10
2609.6866130828857
 20
-8807.913780212402
 30
0.0
 11
2643.0881023406982
 21
-8807.913780212402
 31
0.0
  0
LINE
  5
221
330
17
100
AcDbEntity
  8
A-MEP-PLMB
370
13
100
AcDbLine
 10
2559.998035430908
 20
-8782.4387550354
 30
0.0
 11
2605.75008392334
 21
-8782.4387550354
 31
0.0
  0
LINE
  5
222
330
17
100
AcDbEntity
  8
A-MEP-PLMB
370
13
100
AcDbLine
 10
4157.040596008301
 20
-6544.113636016846
 30
0.0
 11
4157.040596008301
 21
-5218.411922454834
 31
0.0
  0
LINE
  5
223
330
17
100
AcDbEntity
  8
A-MEP-PLMB
370
13
100
AcDbLine
 10
4140.3398513793945
 20
-5161.262989044189
 30
0.0
 11
4173.741340637207
 21
-5161.262989044189
 31
0.0
  0
LINE
  5
224
330
17
100
AcDbEntity
  8
A-MEP-PLMB
370
13
100
AcDbLine
 10
4642.959117889404
 20
-12796.283721923828
 30
0.0
 11
4642.959117889404
 21
-12762.879371643066
 31
0.0
  0
LINE
  5
225
330
17
100
AcDbEntity
  8
A-MEP-PLMB
370
13
100
AcDbLine
 10
4642.959117889404
 20
-12722.432136535645
 30
0.0
 11
4642.959117889404
 21
-10976.731300354004
 31
0.0
  0
LINE
  5
226
330
17
100
AcDbEntity
  8
A-MEP-PLMB
370
13
100
AcDbLine
 10
3067.6000118255615
 20
-10490.805625915527
 30
0.0
 11
3067.6000118255615
 21
-10478.103637695312
 31
0.0
  0
LINE
  5
227
330
17
100
AcDbEntity
  8
A-MEP-PLMB
370
13
100
AcDbLine
 10
3067.6000118255615
 20
-10463.81664276123
 30
0.0
 11
3067.6000118255615
 21
-10326.834678649902
 31
0.0
  0
LINE
  5
228
330
17
100
AcDbEntity
  8
A-MEP-PLMB
370
13
100
AcDbLine
 10
1843.1800603866577
 20
-10286.355018615723
 30
0.0
 11
3040.6129360198975
 21
-10286.355018615723
 31
0.0
  0
LINE
  5
229
330
17
100
AcDbEntity
  8
A-MEP-PLMB
370
13
100
AcDbLine
 10
3094.5870876312256
 20
-10286.355018615723
 30
0.0
 11
4626.90544128418
 21
-10286.355018615723
 31
0.0
  0
LINE
  5
22A
330
17
100
AcDbEntity
  8
A-MEP-PLMB
370
13
100
AcDbLine
 10
-72.46389240026474
 20
-10121.262550354004
 30
0.0
 11
3231.3833236694336
 21
-10121.262550354004
 31
0.0
  0
LINE
  5
22B
330
17
100
AcDbEntity
  8
A-MEP-PLMB
370
13
100
AcDbLine
 10
3744.6448802948
 20
-6601.262331008911
 30
0.0
 11
4099.893093109131
 21
-6601.262331008911
 31
0.0
  0
LINE
  5
22C
330
17
100
AcDbEntity
  8
A-MEP-PLMB
370
13
100
AcDbLine
 10
3687.4966621398926
 20
-7444.112777709961
 30
0.0
 11
3687.4966621398926
 21
-6658.411979675293
 31
0.0
  0
LINE
  5
22D
330
17
100
AcDbEntity
  8
A-MEP-PLMB
370
13
100
AcDbLine
 10
3345.6828594207764
 20
-7501.262426376343
 30
0.0
 11
3630.34725189209
 21
-7501.262426376343
 31
0.0
  0
LINE
  5
22E
330
17
100
AcDbEntity
  8
A-MEP-PLMB
370
13
100
AcDbLine
 10
3687.4966621398926
 20
-7517.963409423828
 30
0.0
 11
3687.4966621398926
 21
-7484.561443328857
 31
0.0
  0
LINE
  5
22F
330
17
100
AcDbEntity
  8
A-MEP-PLMB
370
13
100
AcDbLine
 10
3288.5334491729736
 20
-10064.11361694336
 30
0.0
 11
3288.5334491729736
 21
-7558.412551879883
 31
0.0
  0
LINE
  5
230
330
17
100
AcDbEntity
  8
A-MEP-PLMB
370
13
100
AcDbLine
 10
1600.1089811325073
 20
-10919.581413269043
 30
0.0
 11
4585.809707641602
 21
-10919.581413269043
 31
0.0
  0
LINE
  5
231
330
17
100
AcDbEntity
  8
A-MEP-PLMB
370
13
100
AcDbLine
 10
1542.9593324661255
 20
-10862.432479858398
 30
0.0
 11
1542.9593324661255
 21
-10385.891914367676
 31
0.0
  0
LINE
  5
232
330
17
100
AcDbEntity
  8
A-MEP-PLMB
370
13
100
AcDbLine
 10
-72.46389240026474
 20
-10328.743934631348
 30
0.0
 11
1485.8094453811646
 21
-10328.743934631348
 31
0.0
  0
LINE
  5
233
330
17
100
AcDbEntity
  8
A-MEP-PLMB
370
13
100
AcDbLine
 10
1542.9593324661255
 20
-10345.44563293457
 30
0.0
 11
1542.9593324661255
 21
-10312.042236328125
 31
0.0
  0
LINE
  5
234
330
17
100
AcDbEntity
  8
A-MEP-PLMB
370
13
100
AcDbLine
 10
2966.000199317932
 20
-10682.635307312012
 30
0.0
 11
2966.000199317932
 21
-10634.369850158691
 31
0.0
  0
LINE
  5
235
330
17
100
AcDbEntity
  8
A-MEP-PLMB
370
13
100
AcDbLine
 10
4090.3337001800537
 20
-8590.23380279541
 30
0.0
 11
4090.3337001800537
 21
-8030.865669250488
 31
0.0
  0
LINE
  5
236
330
17
100
AcDbEntity
  8
A-MEP-PLMB
370
13
100
AcDbLine
 10
406.45891427993774
 20
-11411.304950714111
 30
0.0
 11
505.1966905593872
 21
-11411.304950714111
 31
0.0
  0
LINE
  5
237
330
17
100
AcDbEntity
  8
A-MEP-PLMB
370
13
100
AcDbLine
 10
525.8277952671051
 20
-11390.669822692871
 30
0.0
 11
525.8277952671051
 21
-10460.988998413086
 31
0.0
  0
LWPOLYLINE
  5
238
330
17
100
AcDbEntity
  8
0
 62
7
100
AcDbPolyline
 90
4
 70
1
 10
-11349.99990463257
 20
-23600.003051757812
 10
30650.00009536743
 20
-23600.003051757812
 10
30650.00009536743
 20
5399.9969482421875
 10
-11349.99990463257
 20
5399.9969482421875
  0
LWPOLYLINE
  5
239
330
17
100
AcDbEntity
  8
A-TTLB
370
70
100
AcDbPolyline
 90
4
 70
1
 10
-8849.99990463257
 20
-22600.003051757812
 10
29650.00009536743
 20
-22600.003051757812
 10
29650.00009536743
 20
4399.9969482421875
 10
-8849.99990463257
 20
4399.9969482421875
  0
LINE
  5
23A
330
17
100
AcDbEntity
  8
A-TTLB
370
70
100
AcDbLine
 10
17650.00009536743
 20
-22600.003051757812
 30
0.0
 11
17650.00009536743
 21
4399.9969482421875
 31
0.0
  0
IMAGE
  5
23E
330
17
100
AcDbEntity
  8
A-TTLB
100
AcDbRasterImage
 90
0
 10
17850.00009536743
 20
3019.9969482421875
 30
0.0
 11
1.6853932584269662
 21
0.0
 31
0.0
 12
1.1269755820374415e-16
 22
1.8404907975460123
 32
0.0
 13
890.0
 23
652.0
340
23D
 70
3
280
0
281
50
282
50
283
0
360
23F
 71
1
 91
2
 14
-0.5
 24
-0.5
 14
889.5
 24
651.5
290
0
  0
TEXT
  5
240
330
17
100
AcDbEntity
  8
A-TTLB
100
AcDbText
 10
24600.00009536743
 20
3814.9969482421875
 30
0.0
 40
390.0
  1
PUBLIC WORKS
 72
1
 11
24600.00009536743
 21
3814.9969482421875
 31
0.0
100
AcDbText
 73
2
  0
TEXT
  5
241
330
17
100
AcDbEntity
  8
A-TTLB
100
AcDbText
 10
24600.00009536743
 20
3424.9969482421875
 30
0.0
 40
390.0
  1
DEPARTMENT MALAYSIA
 72
1
 11
24600.00009536743
 21
3424.9969482421875
 31
0.0
100
AcDbText
 73
2
  0
LINE
  5
242
330
17
100
AcDbEntity
  8
A-TTLB
370
50
100
AcDbLine
 10
17650.00009536743
 20
2839.9969482421875
 30
0.0
 11
29650.00009536743
 21
2839.9969482421875
 31
0.0
  0
TEXT
  5
243
330
17
100
AcDbEntity
  8
A-TTLB
100
AcDbText
 10
23650.00009536743
 20
2279.9969482421875
 30
0.0
 40
500.0
  1
DUPLEX RESIDENTIAL
 72
1
 11
23650.00009536743
 21
2279.9969482421875
 31
0.0
100
AcDbText
 73
2
  0
TEXT
  5
244
330
17
100
AcDbEntity
  8
A-TTLB
100
AcDbText
 10
23650.00009536743
 20
1687.9969482421875
 30
0.0
 40
300.0
  1
Ifc4 Duplex
 72
1
 11
23650.00009536743
 21
1687.9969482421875
 31
0.0
100
AcDbText
 73
2
  0
LINE
  5
245
330
17
100
AcDbEntity
  8
A-TTLB
370
35
100
AcDbLine
 10
17650.00009536743
 20
1239.9969482421875
 30
0.0
 11
29650.00009536743
 21
1239.9969482421875
 31
0.0
  0
LINE
  5
246
330
17
100
AcDbEntity
  8
A-TTLB
370
18
100
AcDbLine
 10
17650.00009536743
 20
1239.9969482421875
 30
0.0
 11
29650.00009536743
 21
1239.9969482421875
 31
0.0
  0
TEXT
  5
247
330
17
100
AcDbEntity
  8
A-TTLB
 62
8
100
AcDbText
 10
23650.00009536743
 20
839.9969482421875
 30
0.0
 40
180.0
  1
DOOR & WINDOW SCHEDULE
 72
1
 11
23650.00009536743
 21
839.9969482421875
 31
0.0
100
AcDbText
 73
2
  0
LINE
  5
248
330
17
100
AcDbEntity
  8
A-TTLB
370
18
100
AcDbLine
 10
17650.00009536743
 20
739.9969482421875
 30
0.0
 11
29650.00009536743
 21
739.9969482421875
 31
0.0
  0
TEXT
  5
249
330
17
100
AcDbEntity
  8
A-TTLB
100
AcDbText
 10
18050.00009536743
 20
389.9969482421875
 30
0.0
 40
180.0
  1
TAG
 11
18050.00009536743
 21
389.9969482421875
 31
0.0
100
AcDbText
  0
TEXT
  5
24A
330
17
100
AcDbEntity
  8
A-TTLB
100
AcDbText
 10
19810.00009536743
 20
389.9969482421875
 30
0.0
 40
180.0
  1
SIZE
 11
19810.00009536743
 21
389.9969482421875
 31
0.0
100
AcDbText
  0
TEXT
  5
24B
330
17
100
AcDbEntity
  8
A-TTLB
100
AcDbText
 10
22810.00009536743
 20
389.9969482421875
 30
0.0
 40
180.0
  1
DESCRIPTION
 11
22810.00009536743
 21
389.9969482421875
 31
0.0
100
AcDbText
  0
TEXT
  5
24C
330
17
100
AcDbEntity
  8
A-TTLB
100
AcDbText
 10
27490.00009536743
 20
389.9969482421875
 30
0.0
 40
180.0
  1
QTY
 11
27490.00009536743
 21
389.9969482421875
 31
0.0
100
AcDbText
  0
LINE
  5
24D
330
17
100
AcDbEntity
  8
A-TTLB
 62
8
370
18
100
AcDbLine
 10
17650.00009536743
 20
39.9969482421875
 30
0.0
 11
29650.00009536743
 21
39.9969482421875
 31
0.0
  0
TEXT
  5
24E
330
17
100
AcDbEntity
  8
A-TTLB
100
AcDbText
 10
18050.00009536743
 20
-310.0030517578125
 30
0.0
 40
200.0
  1

 11
18050.00009536743
 21
-310.0030517578125
 31
0.0
100
AcDbText
  0
TEXT
  5
24F
330
17
100
AcDbEntity
  8
A-TTLB
100
AcDbText
 10
19810.00009536743
 20
-310.0030517578125
 30
0.0
 40
200.0
  1

 11
19810.00009536743
 21
-310.0030517578125
 31
0.0
100
AcDbText
  0
TEXT
  5
250
330
17
100
AcDbEntity
  8
A-TTLB
100
AcDbText
 10
22810.00009536743
 20
-310.0030517578125
 30
0.0
 40
180.0
  1
── PLUMBING ──
 11
22810.00009536743
 21
-310.0030517578125
 31
0.0
100
AcDbText
  0
TEXT
  5
251
330
17
100
AcDbEntity
  8
A-TTLB
100
AcDbText
 10
27490.00009536743
 20
-310.0030517578125
 30
0.0
 40
200.0
  1

 11
27490.00009536743
 21
-310.0030517578125
 31
0.0
100
AcDbText
  0
TEXT
  5
252
330
17
100
AcDbEntity
  8
A-TTLB
100
AcDbText
 10
18050.00009536743
 20
-1010.0030517578125
 30
0.0
 40
200.0
  1
●
 11
18050.00009536743
 21
-1010.0030517578125
 31
0.0
100
AcDbText
  0
TEXT
  5
253
330
17
100
AcDbEntity
  8
A-TTLB
100
AcDbText
 10
19810.00009536743
 20
-1010.0030517578125
 30
0.0
 40
200.0
  1

 11
19810.00009536743
 21
-1010.0030517578125
 31
0.0
100
AcDbText
  0
TEXT
  5
254
330
17
100
AcDbEntity
  8
A-TTLB
100
AcDbText
 10
22810.00009536743
 20
-1010.0030517578125
 30
0.0
 40
180.0
  1
M_Bath Tub
 11
22810.00009536743
 21
-1010.0030517578125
 31
0.0
100
AcDbText
  0
TEXT
  5
255
330
17
100
AcDbEntity
  8
A-TTLB
100
AcDbText
 10
27490.00009536743
 20
-1010.0030517578125
 30
0.0
 40
200.0
  1
2
 11
27490.00009536743
 21
-1010.0030517578125
 31
0.0
100
AcDbText
  0
TEXT
  5
256
330
17
100
AcDbEntity
  8
A-TTLB
100
AcDbText
 10
18050.00009536743
 20
-1710.0030517578125
 30
0.0
 40
200.0
  1
●
 11
18050.00009536743
 21
-1710.0030517578125
 31
0.0
100
AcDbText
  0
TEXT
  5
257
330
17
100
AcDbEntity
  8
A-TTLB
100
AcDbText
 10
19810.00009536743
 20
-1710.0030517578125
 30
0.0
 40
200.0
  1

 11
19810.00009536743
 21
-1710.0030517578125
 31
0.0
100
AcDbText
  0
TEXT
  5
258
330
17
100
AcDbEntity
  8
A-TTLB
100
AcDbText
 10
22810.00009536743
 20
-1710.0030517578125
 30
0.0
 40
180.0
  1
M_Lavatory - Oval
 11
22810.00009536743
 21
-1710.0030517578125
 31
0.0
100
AcDbText
  0
TEXT
  5
259
330
17
100
AcDbEntity
  8
A-TTLB
100
AcDbText
 10
27490.00009536743
 20
-1710.0030517578125
 30
0.0
 40
200.0
  1
6
 11
27490.00009536743
 21
-1710.0030517578125
 31
0.0
100
AcDbText
  0
TEXT
  5
25A
330
17
100
AcDbEntity
  8
A-TTLB
100
AcDbText
 10
18050.00009536743
 20
-2410.0030517578125
 30
0.0
 40
200.0
  1
●
 11
18050.00009536743
 21
-2410.0030517578125
 31
0.0
100
AcDbText
  0
TEXT
  5
25B
330
17
100
AcDbEntity
  8
A-TTLB
100
AcDbText
 10
19810.00009536743
 20
-2410.0030517578125
 30
0.0
 40
200.0
  1

 11
19810.00009536743
 21
-2410.0030517578125
 31
0.0
100
AcDbText
  0
TEXT
  5
25C
330
17
100
AcDbEntity
  8
A-TTLB
100
AcDbText
 10
22810.00009536743
 20
-2410.0030517578125
 30
0.0
 40
180.0
  1
M_Shower Stall - Rectangular
 11
22810.00009536743
 21
-2410.0030517578125
 31
0.0
100
AcDbText
  0
TEXT
  5
25D
330
17
100
AcDbEntity
  8
A-TTLB
100
AcDbText
 10
27490.00009536743
 20
-2410.0030517578125
 30
0.0
 40
200.0
  1
2
 11
27490.00009536743
 21
-2410.0030517578125
 31
0.0
100
AcDbText
  0
TEXT
  5
25E
330
17
100
AcDbEntity
  8
A-TTLB
100
AcDbText
 10
18050.00009536743
 20
-3110.0030517578125
 30
0.0
 40
200.0
  1
●
 11
18050.00009536743
 21
-3110.0030517578125
 31
0.0
100
AcDbText
  0
TEXT
  5
25F
330
17
100
AcDbEntity
  8
A-TTLB
100
AcDbText
 10
19810.00009536743
 20
-3110.0030517578125
 30
0.0
 40
200.0
  1

 11
19810.00009536743
 21
-3110.0030517578125
 31
0.0
100
AcDbText
  0
TEXT
  5
260
330
17
100
AcDbEntity
  8
A-TTLB
100
AcDbText
 10
22810.00009536743
 20
-3110.0030517578125
 30
0.0
 40
180.0
  1
M_Sink - Island - Single
 11
22810.00009536743
 21
-3110.0030517578125
 31
0.0
100
AcDbText
  0
TEXT
  5
261
330
17
100
AcDbEntity
  8
A-TTLB
100
AcDbText
 10
27490.00009536743
 20
-3110.0030517578125
 30
0.0
 40
200.0
  1
2
 11
27490.00009536743
 21
-3110.0030517578125
 31
0.0
100
AcDbText
  0
TEXT
  5
262
330
17
100
AcDbEntity
  8
A-TTLB
100
AcDbText
 10
18050.00009536743
 20
-3810.0030517578125
 30
0.0
 40
200.0
  1
●
 11
18050.00009536743
 21
-3810.0030517578125
 31
0.0
100
AcDbText
  0
TEXT
  5
263
330
17
100
AcDbEntity
  8
A-TTLB
100
AcDbText
 10
19810.00009536743
 20
-3810.0030517578125
 30
0.0
 40
200.0
  1

 11
19810.00009536743
 21
-3810.0030517578125
 31
0.0
100
AcDbText
  0
TEXT
  5
264
330
17
100
AcDbEntity
  8
A-TTLB
100
AcDbText
 10
22810.00009536743
 20
-3810.0030517578125
 30
0.0
 40
180.0
  1
M_Water Closet - Flush Tank
 11
22810.00009536743
 21
-3810.0030517578125
 31
0.0
100
AcDbText
  0
TEXT
  5
265
330
17
100
AcDbEntity
  8
A-TTLB
100
AcDbText
 10
27490.00009536743
 20
-3810.0030517578125
 30
0.0
 40
200.0
  1
4
 11
27490.00009536743
 21
-3810.0030517578125
 31
0.0
100
AcDbText
  0
LINE
  5
266
330
17
100
AcDbEntity
  8
A-TTLB
 62
8
370
18
100
AcDbLine
 10
17650.00009536743
 20
-4160.0030517578125
 30
0.0
 11
29650.00009536743
 21
-4160.0030517578125
 31
0.0
  0
LINE
  5
267
330
17
100
AcDbEntity
  8
A-TTLB
370
18
100
AcDbLine
 10
17650.00009536743
 20
-22600.003051757812
 30
0.0
 11
29650.00009536743
 21
-22600.003051757812
 31
0.0
  0
LINE
  5
268
330
17
100
AcDbEntity
  8
A-TTLB
370
18
100
AcDbLine
 10
21250.00009536743
 20
-22600.003051757812
 30
0.0
 11
21250.00009536743
 21
-20923.639415394176
 31
0.0
  0
TEXT
  5
269
330
17
100
AcDbEntity
  8
A-TTLB
100
AcDbText
 10
19450.00009536743
 20
-21761.821233575993
 30
0.0
 40
200.0
  1
REVISION NO.
 72
1
 11
19450.00009536743
 21
-21761.821233575993
 31
0.0
100
AcDbText
 73
2
  0
TEXT
  5
26A
330
17
100
AcDbEntity
  8
A-TTLB
100
AcDbText
 10
25450.00009536743
 20
-21761.821233575993
 30
0.0
 40
300.0
  1
0
 72
1
 11
25450.00009536743
 21
-21761.821233575993
 31
0.0
100
AcDbText
 73
2
  0
LINE
  5
26B
330
17
100
AcDbEntity
  8
A-TTLB
370
18
100
AcDbLine
 10
17650.00009536743
 20
-20923.639415394176
 30
0.0
 11
29650.00009536743
 21
-20923.639415394176
 31
0.0
  0
LINE
  5
26C
330
17
100
AcDbEntity
  8
A-TTLB
370
18
100
AcDbLine
 10
21250.00009536743
 20
-20923.639415394176
 30
0.0
 11
21250.00009536743
 21
-19247.27577903054
 31
0.0
  0
TEXT
  5
26D
330
17
100
AcDbEntity
  8
A-TTLB
100
AcDbText
 10
19450.00009536743
 20
-20085.457597212357
 30
0.0
 40
200.0
  1
CHECKED BY
 72
1
 11
19450.00009536743
 21
-20085.457597212357
 31
0.0
100
AcDbText
 73
2
  0
LINE
  5
26E
330
17
100
AcDbEntity
  8
A-TTLB
370
35
100
AcDbLine
 10
17650.00009536743
 20
-19247.27577903054
 30
0.0
 11
29650.00009536743
 21
-19247.27577903054
 31
0.0
  0
LINE
  5
26F
330
17
100
AcDbEntity
  8
A-TTLB
370
18
100
AcDbLine
 10
21250.00009536743
 20
-19247.27577903054
 30
0.0
 11
21250.00009536743
 21
-17570.912142666904
 31
0.0
  0
TEXT
  5
270
330
17
100
AcDbEntity
  8
A-TTLB
100
AcDbText
 10
19450.00009536743
 20
-18409.09396084872
 30
0.0
 40
200.0
  1
DRAWING NO.
 72
1
 11
19450.00009536743
 21
-18409.09396084872
 31
0.0
100
AcDbText
 73
2
  0
TEXT
  5
271
330
17
100
AcDbEntity
  8
A-TTLB
100
AcDbText
 10
25450.00009536743
 20
-18409.09396084872
 30
0.0
 40
300.0
  1
M-01-GF
 72
1
 11
25450.00009536743
 21
-18409.09396084872
 31
0.0
100
AcDbText
 73
2
  0
LINE
  5
272
330
17
100
AcDbEntity
  8
A-TTLB
370
18
100
AcDbLine
 10
17650.00009536743
 20
-17570.912142666904
 30
0.0
 11
29650.00009536743
 21
-17570.912142666904
 31
0.0
  0
LINE
  5
273
330
17
100
AcDbEntity
  8
A-TTLB
370
18
100
AcDbLine
 10
21250.00009536743
 20
-17570.912142666904
 30
0.0
 11
21250.00009536743
 21
-15894.548506303268
 31
0.0
  0
TEXT
  5
274
330
17
100
AcDbEntity
  8
A-TTLB
100
AcDbText
 10
19450.00009536743
 20
-16732.730324485085
 30
0.0
 40
200.0
  1
DATE
 72
1
 11
19450.00009536743
 21
-16732.730324485085
 31
0.0
100
AcDbText
 73
2
  0
LINE
  5
275
330
17
100
AcDbEntity
  8
A-TTLB
370
18
100
AcDbLine
 10
17650.00009536743
 20
-15894.548506303268
 30
0.0
 11
29650.00009536743
 21
-15894.548506303268
 31
0.0
  0
LINE
  5
276
330
17
100
AcDbEntity
  8
A-TTLB
370
18
100
AcDbLine
 10
21250.00009536743
 20
-15894.548506303268
 30
0.0
 11
21250.00009536743
 21
-14218.184869939632
 31
0.0
  0
TEXT
  5
277
330
17
100
AcDbEntity
  8
A-TTLB
100
AcDbText
 10
19450.00009536743
 20
-15056.36668812145
 30
0.0
 40
200.0
  1
SCALE
 72
1
 11
19450.00009536743
 21
-15056.36668812145
 31
0.0
100
AcDbText
 73
2
  0
TEXT
  5
278
330
17
100
AcDbEntity
  8
A-TTLB
100
AcDbText
 10
25450.00009536743
 20
-15056.36668812145
 30
0.0
 40
300.0
  1
1:100
 72
1
 11
25450.00009536743
 21
-15056.36668812145
 31
0.0
100
AcDbText
 73
2
  0
LINE
  5
279
330
17
100
AcDbEntity
  8
A-TTLB
370
18
100
AcDbLine
 10
17650.00009536743
 20
-14218.184869939632
 30
0.0
 11
29650.00009536743
 21
-14218.184869939632
 31
0.0
  0
LINE
  5
27A
330
17
100
AcDbEntity
  8
A-TTLB
370
18
100
AcDbLine
 10
21250.00009536743
 20
-14218.184869939632
 30
0.0
 11
21250.00009536743
 21
-12541.821233575996
 31
0.0
  0
TEXT
  5
27B
330
17
100
AcDbEntity
  8
A-TTLB
100
AcDbText
 10
19450.00009536743
 20
-13380.003051757814
 30
0.0
 40
200.0
  1
DRAWN BY
 72
1
 11
19450.00009536743
 21
-13380.003051757814
 31
0.0
100
AcDbText
 73
2
  0
LINE
  5
27C
330
17
100
AcDbEntity
  8
A-TTLB
370
35
100
AcDbLine
 10
17650.00009536743
 20
-12541.821233575996
 30
0.0
 11
29650.00009536743
 21
-12541.821233575996
 31
0.0
  0
LINE
  5
27D
330
17
100
AcDbEntity
  8
A-TTLB
370
18
100
AcDbLine
 10
21250.00009536743
 20
-12541.821233575996
 30
0.0
 11
21250.00009536743
 21
-10865.45759721236
 31
0.0
  0
TEXT
  5
27E
330
17
100
AcDbEntity
  8
A-TTLB
100
AcDbText
 10
19450.00009536743
 20
-11703.639415394178
 30
0.0
 40
200.0
  1
DRAWING TITLE
 72
1
 11
19450.00009536743
 21
-11703.639415394178
 31
0.0
100
AcDbText
 73
2
  0
TEXT
  5
27F
330
17
100
AcDbEntity
  8
A-TTLB
100
AcDbText
 10
25450.00009536743
 20
-11703.639415394178
 30
0.0
 40
300.0
  1
GROUND FL PLUMBING PLAN
 72
1
 11
25450.00009536743
 21
-11703.639415394178
 31
0.0
100
AcDbText
 73
2
  0
LINE
  5
280
330
17
100
AcDbEntity
  8
A-TTLB
370
35
100
AcDbLine
 10
17650.00009536743
 20
-10865.45759721236
 30
0.0
 11
29650.00009536743
 21
-10865.45759721236
 31
0.0
  0
LINE
  5
281
330
17
100
AcDbEntity
  8
A-TTLB
370
18
100
AcDbLine
 10
21250.00009536743
 20
-10865.45759721236
 30
0.0
 11
21250.00009536743
 21
-9189.093960848724
 31
0.0
  0
TEXT
  5
282
330
17
100
AcDbEntity
  8
A-TTLB
100
AcDbText
 10
19450.00009536743
 20
-10027.275779030542
 30
0.0
 40
200.0
  1
BUILDING TYPE
 72
1
 11
19450.00009536743
 21
-10027.275779030542
 31
0.0
100
AcDbText
 73
2
  0
TEXT
  5
283
330
17
100
AcDbEntity
  8
A-TTLB
100
AcDbText
 10
25450.00009536743
 20
-10027.275779030542
 30
0.0
 40
300.0
  1
DUPLEX RESIDENTIAL
 72
1
 11
25450.00009536743
 21
-10027.275779030542
 31
0.0
100
AcDbText
 73
2
  0
LINE
  5
284
330
17
100
AcDbEntity
  8
A-TTLB
370
35
100
AcDbLine
 10
17650.00009536743
 20
-9189.093960848724
 30
0.0
 11
29650.00009536743
 21
-9189.093960848724
 31
0.0
  0
LINE
  5
285
330
17
100
AcDbEntity
  8
A-TTLB
370
18
100
AcDbLine
 10
21250.00009536743
 20
-9189.093960848724
 30
0.0
 11
21250.00009536743
 21
-7512.730324485088
 31
0.0
  0
TEXT
  5
286
330
17
100
AcDbEntity
  8
A-TTLB
100
AcDbText
 10
19450.00009536743
 20
-8350.912142666906
 30
0.0
 40
200.0
  1
ARCHITECT
 72
1
 11
19450.00009536743
 21
-8350.912142666906
 31
0.0
100
AcDbText
 73
2
  0
LINE
  5
287
330
17
100
AcDbEntity
  8
A-TTLB
370
18
100
AcDbLine
 10
17650.00009536743
 20
-7512.730324485088
 30
0.0
 11
29650.00009536743
 21
-7512.730324485088
 31
0.0
  0
LINE
  5
288
330
17
100
AcDbEntity
  8
A-TTLB
370
18
100
AcDbLine
 10
21250.00009536743
 20
-7512.730324485088
 30
0.0
 11
21250.00009536743
 21
-5836.366688121452
 31
0.0
  0
TEXT
  5
289
330
17
100
AcDbEntity
  8
A-TTLB
100
AcDbText
 10
19450.00009536743
 20
-6674.54850630327
 30
0.0
 40
200.0
  1
CLIENT
 72
1
 11
19450.00009536743
 21
-6674.54850630327
 31
0.0
100
AcDbText
 73
2
  0
LINE
  5
28A
330
17
100
AcDbEntity
  8
A-TTLB
370
35
100
AcDbLine
 10
17650.00009536743
 20
-5836.366688121452
 30
0.0
 11
29650.00009536743
 21
-5836.366688121452
 31
0.0
  0
LINE
  5
28B
330
17
100
AcDbEntity
  8
A-TTLB
370
18
100
AcDbLine
 10
21250.00009536743
 20
-5836.366688121452
 30
0.0
 11
21250.00009536743
 21
-4160.003051757816
 31
0.0
  0
TEXT
  5
28C
330
17
100
AcDbEntity
  8
A-TTLB
100
AcDbText
 10
19450.00009536743
 20
-4998.184869939634
 30
0.0
 40
200.0
  1
PROJECT
 72
1
 11
19450.00009536743
 21
-4998.184869939634
 31
0.0
100
AcDbText
 73
2
  0
LWPOLYLINE
  5
28D
330
17
100
AcDbEntity
  8
A-ANNO-TEXT
370
18
100
AcDbPolyline
 90
3
 70
1
 10
16050.000095367432
 20
2799.9969482421875
 10
15786.000095367432
 20
1999.9969482421875
 10
16314.000095367432
 20
1999.9969482421875
  0
TEXT
  5
28E
330
17
100
AcDbEntity
  8
A-ANNO-TEXT
100
AcDbText
 10
16050.000095367432
 20
3099.9969482421875
 30
0.0
 40
300.0
  1
N
 72
1
 11
16050.000095367432
 21
3099.9969482421875
 31
0.0
100
AcDbText
 73
2
  0
TEXT
  5
28F
330
17
100
AcDbEntity
  8
A-ANNO-TEXT
 62
8
100
AcDbText
 10
4400.000095367431
 20
-21700.003051757812
 30
0.0
 40
300.0
  1
scale 1:100
 72
1
 11
4400.000095367431
 21
-21700.003051757812
 31
0.0
100
AcDbText
 73
2
  0
SOLID
  5
290
330
17
100
AcDbEntity
  8
A-ANNO-DIMS
 62
7
100
AcDbTrace
 10
1900.0000953674307
 20
-22300.003051757812
 30
0.0
 11
2900.0000953674307
 21
-22300.003051757812
 31
0.0
 12
1900.0000953674307
 22
-22100.003051757812
 32
0.0
 13
2900.0000953674307
 23
-22100.003051757812
 33
0.0
  0
SOLID
  5
291
330
17
100
AcDbEntity
  8
A-ANNO-DIMS
 62
0
100
AcDbTrace
 10
2900.0000953674307
 20
-22300.003051757812
 30
0.0
 11
3900.0000953674307
 21
-22300.003051757812
 31
0.0
 12
2900.0000953674307
 22
-22100.003051757812
 32
0.0
 13
3900.0000953674307
 23
-22100.003051757812
 33
0.0
  0
SOLID
  5
292
330
17
100
AcDbEntity
  8
A-ANNO-DIMS
 62
7
100
AcDbTrace
 10
3900.0000953674307
 20
-22300.003051757812
 30
0.0
 11
6900.000095367431
 21
-22300.003051757812
 31
0.0
 12
3900.0000953674307
 22
-22100.003051757812
 32
0.0
 13
6900.000095367431
 23
-22100.003051757812
 33
0.0
  0
TEXT
  5
293
330
17
100
AcDbEntity
  8
A-ANNO-DIMS
100
AcDbText
 10
1900.0000953674307
 20
-22460.003051757812
 30
0.0
 40
200.0
  1
0
 72
1
 11
1900.0000953674307
 21
-22460.003051757812
 31
0.0
100
AcDbText
 73
2
  0
TEXT
  5
294
330
17
100
AcDbEntity
  8
A-ANNO-DIMS
100
AcDbText
 10
2900.0000953674307
 20
-21800.003051757812
 30
0.0
 40
200.0
  1
1
 72
1
 11
2900.0000953674307
 21
-21800.003051757812
 31
0.0
100
AcDbText
 73
2
  0
TEXT
  5
295
330
17
100
AcDbEntity
  8
A-ANNO-DIMS
100
AcDbText
 10
3900.0000953674307
 20
-22460.003051757812
 30
0.0
 40
200.0
  1
2
 72
1
 11
3900.0000953674307
 21
-22460.003051757812
 31
0.0
100
AcDbText
 73
2
  0
TEXT
  5
296
330
17
100
AcDbEntity
  8
A-ANNO-DIMS
100
AcDbText
 10
6900.000095367431
 20
-21800.003051757812
 30
0.0
 40
200.0
  1
5m
 72
1
 11
6900.000095367431
 21
-21800.003051757812
 31
0.0
100
AcDbText
 73
2
  0
ENDSEC
  0
SECTION
  2
OBJECTS
  0
DICTIONARY
  5
A
330
0
100
AcDbDictionary
281
1
  3
ACAD_COLOR
350
B
  3
ACAD_GROUP
350
C
  3
ACAD_LAYOUT
350
D
  3
ACAD_MATERIAL
350
E
  3
ACAD_MLEADERSTYLE
350
F
  3
ACAD_MLINESTYLE
350
10
  3
ACAD_PLOTSETTINGS
350
11
  3
ACAD_PLOTSTYLENAME
350
12
  3
ACAD_SCALELIST
350
14
  3
ACAD_TABLESTYLE
350
15
  3
ACAD_VISUALSTYLE
350
16
  3
EZDXF_META
350
2D
  3
ACAD_IMAGE_VARS
350
23B
  3
ACAD_IMAGE_DICT
350
23C
  0
DICTIONARY
  5
B
330
A
100
AcDbDictionary
281
1
  0
DICTIONARY
  5
C
330
A
100
AcDbDictionary
281
1
  0
DICTIONARY
  5
D
330
A
100
AcDbDictionary
281
1
  3
Model
350
1A
  3
Layout1
350
1E
  0
DICTIONARY
  5
E
330
A
100
AcDbDictionary
281
1
  3
ByBlock
350
1F
  3
ByLayer
350
20
  3
Global
350
21
  0
DICTIONARY
  5
F
330
A
100
AcDbDictionary
281
1
  3
Standard
350
2C
  0
DICTIONARY
  5
10
330
A
100
AcDbDictionary
281
1
  3
Standard
350
22
  0
DICTIONARY
  5
11
330
A
100
AcDbDictionary
281
1
  0
ACDBDICTIONARYWDFLT
  5
12
330
A
100
AcDbDictionary
281
1
  3
Normal
350
13
100
AcDbDictionaryWithDefault
340
13
  0
ACDBPLACEHOLDER
  5
13
330
12
  0
DICTIONARY
  5
14
330
A
100
AcDbDictionary
281
1
  0
DICTIONARY
  5
15
330
A
100
AcDbDictionary
281
1
  0
DICTIONARY
  5
16
330
A
100
AcDbDictionary
281
1
  0
LAYOUT
  5
1A
330
D
100
AcDbPlotSettings
  1

  4
A3
  6

 40
7.5
 41
20.0
 42
7.5
 43
20.0
 44
420.0
 45
297.0
 46
0.0
 47
0.0
 48
0.0
 49
0.0
140
0.0
141
0.0
142
1.0
143
1.0
 70
1024
 72
1
 73
0
 74
5
  7

 75
16
 76
0
 77
2
 78
300
147
1.0
148
0.0
149
0.0
100
AcDbLayout
  1
Model
 70
1
 71
0
 10
0.0
 20
0.0
 11
420.0
 21
297.0
 12
0.0
 22
0.0
 32
0.0
 14
1e+20
 24
1e+20
 34
1e+20
 15
-1e+20
 25
-1e+20
 35
-1e+20
146
0.0
 13
0.0
 23
0.0
 33
0.0
 16
1.0
 26
0.0
 36
0.0
 17
0.0
 27
1.0
 37
0.0
 76
1
330
17
  0
LAYOUT
  5
1E
330
D
100
AcDbPlotSettings
  1

  4
A3
  6

 40
7.5
 41
20.0
 42
7.5
 43
20.0
 44
420.0
 45
297.0
 46
0.0
 47
0.0
 48
0.0
 49
0.0
140
0.0
141
0.0
142
1.0
143
1.0
 70
0
 72
1
 73
0
 74
5
  7

 75
16
 76
0
 77
2
 78
300
147
1.0
148
0.0
149
0.0
100
AcDbLayout
  1
Layout1
 70
1
 71
1
 10
0.0
 20
0.0
 11
420.0
 21
297.0
 12
0.0
 22
0.0
 32
0.0
 14
1e+20
 24
1e+20
 34
1e+20
 15
-1e+20
 25
-1e+20
 35
-1e+20
146
0.0
 13
0.0
 23
0.0
 33
0.0
 16
1.0
 26
0.0
 36
0.0
 17
0.0
 27
1.0
 37
0.0
 76
1
330
1B
  0
MATERIAL
  5
1F
102
{ACAD_REACTORS
330
E
102
}
330
E
100
AcDbMaterial
  1
ByBlock
  2

 70
0
 40
1.0
 71
1
 41
1.0
 91
-1023410177
 42
1.0
 72
1
  3

 73
1
 74
1
 75
1
 44
0.5
 73
0
 45
1.0
 46
1.0
 77
1
  4

 78
1
 79
1
170
1
 48
1.0
171
1
  6

172
1
173
1
174
1
140
1.0
141
1.0
175
1
  7

176
1
177
1
178
1
143
1.0
179
1
  8

270
1
271
1
272
1
145
1.0
146
1.0
273
1
  9

274
1
275
1
276
1
 42
1.0
 72
1
  3

 73
1
 74
1
 75
1
 94
63
  0
MATERIAL
  5
20
102
{ACAD_REACTORS
330
E
102
}
330
E
100
AcDbMaterial
  1
ByLayer
  2

 70
0
 40
1.0
 71
1
 41
1.0
 91
-1023410177
 42
1.0
 72
1
  3

 73
1
 74
1
 75
1
 44
0.5
 73
0
 45
1.0
 46
1.0
 77
1
  4

 78
1
 79
1
170
1
 48
1.0
171
1
  6

172
1
173
1
174
1
140
1.0
141
1.0
175
1
  7

176
1
177
1
178
1
143
1.0
179
1
  8

270
1
271
1
272
1
145
1.0
146
1.0
273
1
  9

274
1
275
1
276
1
 42
1.0
 72
1
  3

 73
1
 74
1
 75
1
 94
63
  0
MATERIAL
  5
21
102
{ACAD_REACTORS
330
E
102
}
330
E
100
AcDbMaterial
  1
Global
  2

 70
0
 40
1.0
 71
1
 41
1.0
 91
-1023410177
 42
1.0
 72
1
  3

 73
1
 74
1
 75
1
 44
0.5
 73
0
 45
1.0
 46
1.0
 77
1
  4

 78
1
 79
1
170
1
 48
1.0
171
1
  6

172
1
173
1
174
1
140
1.0
141
1.0
175
1
  7

176
1
177
1
178
1
143
1.0
179
1
  8

270
1
271
1
272
1
145
1.0
146
1.0
273
1
  9

274
1
275
1
276
1
 42
1.0
 72
1
  3

 73
1
 74
1
 75
1
 94
63
  0
MLINESTYLE
  5
22
102
{ACAD_REACTORS
330
10
102
}
330
10
100
AcDbMlineStyle
  2
Standard
 70
0
  3

 62
256
 51
90.0
 52
90.0
 71
2
 49
0.5
 62
256
  6
BYLAYER
 49
-0.5
 62
256
  6
BYLAYER
  0
MLEADERSTYLE
  5
2C
102
{ACAD_REACTORS
330
F
102
}
330
F
100
AcDbMLeaderStyle
179
2
170
2
171
1
172
0
 90
2
 40
0.0
 41
0.0
173
1
 91
-1056964608
 92
-2
290
1
 42
2.0
291
1
 43
8.0
  3
Standard
 44
4.0
300

342
29
174
1
175
1
176
0
178
1
 93
-1056964608
 45
4.0
292
0
297
0
 46
4.0
 94
-1056964608
 47
1.0
 49
1.0
140
1.0
294
1
141
0.0
177
0
142
1.0
295
0
296
0
143
3.75
271
0
272
9
273
9
  0
DICTIONARY
  5
2D
330
A
100
AcDbDictionary
280
1
281
1
  3
CREATED_BY_EZDXF
350
2E
  3
WRITTEN_BY_EZDXF
350
299
  0
DICTIONARYVAR
  5
2E
330
2D
100
DictionaryVariables
280
0
  1
1.4.3 @ 2026-04-21T08:13:46.817034+00:00
  0
RASTERVARIABLES
  5
23B
102
{ACAD_REACTORS
330
A
102
}
330
A
100
AcDbRasterVariables
 90
0
 70
0
 71
1
 72
3
  0
DICTIONARY
  5
23C
330
A
100
AcDbDictionary
281
1
  3
/home/red1/bim-compiler/2D_Layout/python/../input/jkr.png
350
23D
  0
IMAGEDEF
  5
23D
102
{ACAD_REACTORS
330
23C
330
23F
102
}
330
23C
100
AcDbRasterImageDef
 90
0
  1
/home/red1/bim-compiler/2D_Layout/python/../input/jkr.png
 10
890.0
 20
652.0
 11
0.01
 21
0.01
280
1
281
0
  0
IMAGEDEF_REACTOR
  5
23F
330
23E
100
AcDbRasterImageDefReactor
 90
2
330
23E
  0
DICTIONARYVAR
  5
299
330
2D
100
DictionaryVariables
280
0
  1
1.4.3 @ 2026-04-21T08:13:46.833518+00:00
  0
ENDSEC
  0
EOF
