  0
SECTION
  2
HEADER
  9
$ACADVER
  1
AC1024
  9
$ACADMAINTVER
 70
6
  9
$DWGCODEPAGE
  3
ANSI_1252
  9
$LASTSAVEDBY
  1
ezdxf
  9
$INSBASE
 10
0.0
 20
0.0
 30
0.0
  9
$EXTMIN
 10
1e+20
 20
1e+20
 30
1e+20
  9
$EXTMAX
 10
-1e+20
 20
-1e+20
 30
-1e+20
  9
$LIMMIN
 10
0.0
 20
0.0
  9
$LIMMAX
 10
420.0
 20
297.0
  9
$ORTHOMODE
 70
0
  9
$REGENMODE
 70
1
  9
$FILLMODE
 70
1
  9
$QTEXTMODE
 70
0
  9
$MIRRTEXT
 70
1
  9
$LTSCALE
 40
1.0
  9
$ATTMODE
 70
1
  9
$TEXTSIZE
 40
2.5
  9
$TRACEWID
 40
1.0
  9
$TEXTSTYLE
  7
Standard
  9
$CLAYER
  8
0
  9
$CELTYPE
  6
ByLayer
  9
$CECOLOR
 62
256
  9
$CELTSCALE
 40
1.0
  9
$DISPSILH
 70
0
  9
$DIMSCALE
 40
1.0
  9
$DIMASZ
 40
2.5
  9
$DIMEXO
 40
0.625
  9
$DIMDLI
 40
3.75
  9
$DIMRND
 40
0.0
  9
$DIMDLE
 40
0.0
  9
$DIMEXE
 40
1.25
  9
$DIMTP
 40
0.0
  9
$DIMTM
 40
0.0
  9
$DIMTXT
 40
2.5
  9
$DIMCEN
 40
2.5
  9
$DIMTSZ
 40
0.0
  9
$DIMTOL
 70
0
  9
$DIMLIM
 70
0
  9
$DIMTIH
 70
0
  9
$DIMTOH
 70
0
  9
$DIMSE1
 70
0
  9
$DIMSE2
 70
0
  9
$DIMTAD
 70
1
  9
$DIMZIN
 70
8
  9
$DIMBLK
  1

  9
$DIMASO
 70
1
  9
$DIMSHO
 70
1
  9
$DIMPOST
  1

  9
$DIMAPOST
  1

  9
$DIMALT
 70
0
  9
$DIMALTD
 70
3
  9
$DIMALTF
 40
0.03937007874
  9
$DIMLFAC
 40
1.0
  9
$DIMTOFL
 70
1
  9
$DIMTVP
 40
0.0
  9
$DIMTIX
 70
0
  9
$DIMSOXD
 70
0
  9
$DIMSAH
 70
0
  9
$DIMBLK1
  1

  9
$DIMBLK2
  1

  9
$DIMSTYLE
  2
ISO-25
  9
$DIMCLRD
 70
0
  9
$DIMCLRE
 70
0
  9
$DIMCLRT
 70
0
  9
$DIMTFAC
 40
1.0
  9
$DIMGAP
 40
0.625
  9
$DIMJUST
 70
0
  9
$DIMSD1
 70
0
  9
$DIMSD2
 70
0
  9
$DIMTOLJ
 70
0
  9
$DIMTZIN
 70
8
  9
$DIMALTZ
 70
0
  9
$DIMALTTZ
 70
0
  9
$DIMUPT
 70
0
  9
$DIMDEC
 70
2
  9
$DIMTDEC
 70
2
  9
$DIMALTU
 70
2
  9
$DIMALTTD
 70
3
  9
$DIMTXSTY
  7
Standard
  9
$DIMAUNIT
 70
0
  9
$DIMADEC
 70
0
  9
$DIMALTRND
 40
0.0
  9
$DIMAZIN
 70
0
  9
$DIMDSEP
 70
44
  9
$DIMATFIT
 70
3
  9
$DIMFRAC
 70
0
  9
$DIMLDRBLK
  1

  9
$DIMLUNIT
 70
2
  9
$DIMLWD
 70
-2
  9
$DIMLWE
 70
-2
  9
$DIMTMOVE
 70
0
  9
$DIMFXL
 40
1.0
  9
$DIMFXLON
 70
0
  9
$DIMJOGANG
 40
0.785398163397
  9
$DIMTFILL
 70
0
  9
$DIMTFILLCLR
 70
0
  9
$DIMARCSYM
 70
0
  9
$DIMLTYPE
  6

  9
$DIMLTEX1
  6

  9
$DIMLTEX2
  6

  9
$DIMTXTDIRECTION
 70
0
  9
$LUNITS
 70
2
  9
$LUPREC
 70
4
  9
$SKETCHINC
 40
1.0
  9
$FILLETRAD
 40
10.0
  9
$AUNITS
 70
0
  9
$AUPREC
 70
2
  9
$MENU
  1
.
  9
$ELEVATION
 40
0.0
  9
$PELEVATION
 40
0.0
  9
$THICKNESS
 40
0.0
  9
$LIMCHECK
 70
0
  9
$CHAMFERA
 40
0.0
  9
$CHAMFERB
 40
0.0
  9
$CHAMFERC
 40
0.0
  9
$CHAMFERD
 40
0.0
  9
$SKPOLY
 70
0
  9
$TDCREATE
 40
2461152.676226852
  9
$TDUCREATE
 40
2458532.153996898
  9
$TDUPDATE
 40
2461152.676226852
  9
$TDUUPDATE
 40
2458532.1544311
  9
$TDINDWG
 40
0.0
  9
$TDUSRTIMER
 40
0.0
  9
$USRTIMER
 70
1
  9
$ANGBASE
 50
0.0
  9
$ANGDIR
 70
0
  9
$PDMODE
 70
0
  9
$PDSIZE
 40
0.0
  9
$PLINEWID
 40
0.0
  9
$SPLFRAME
 70
0
  9
$SPLINETYPE
 70
6
  9
$SPLINESEGS
 70
8
  9
$HANDSEED
  5
D0
  9
$SURFTAB1
 70
6
  9
$SURFTAB2
 70
6
  9
$SURFTYPE
 70
6
  9
$SURFU
 70
6
  9
$SURFV
 70
6
  9
$UCSBASE
  2

  9
$UCSNAME
  2

  9
$UCSORG
 10
0.0
 20
0.0
 30
0.0
  9
$UCSXDIR
 10
1.0
 20
0.0
 30
0.0
  9
$UCSYDIR
 10
0.0
 20
1.0
 30
0.0
  9
$UCSORTHOREF
  2

  9
$UCSORTHOVIEW
 70
0
  9
$UCSORGTOP
 10
0.0
 20
0.0
 30
0.0
  9
$UCSORGBOTTOM
 10
0.0
 20
0.0
 30
0.0
  9
$UCSORGLEFT
 10
0.0
 20
0.0
 30
0.0
  9
$UCSORGRIGHT
 10
0.0
 20
0.0
 30
0.0
  9
$UCSORGFRONT
 10
0.0
 20
0.0
 30
0.0
  9
$UCSORGBACK
 10
0.0
 20
0.0
 30
0.0
  9
$PUCSBASE
  2

  9
$PUCSNAME
  2

  9
$PUCSORG
 10
0.0
 20
0.0
 30
0.0
  9
$PUCSXDIR
 10
1.0
 20
0.0
 30
0.0
  9
$PUCSYDIR
 10
0.0
 20
1.0
 30
0.0
  9
$PUCSORTHOREF
  2

  9
$PUCSORTHOVIEW
 70
0
  9
$PUCSORGTOP
 10
0.0
 20
0.0
 30
0.0
  9
$PUCSORGBOTTOM
 10
0.0
 20
0.0
 30
0.0
  9
$PUCSORGLEFT
 10
0.0
 20
0.0
 30
0.0
  9
$PUCSORGRIGHT
 10
0.0
 20
0.0
 30
0.0
  9
$PUCSORGFRONT
 10
0.0
 20
0.0
 30
0.0
  9
$PUCSORGBACK
 10
0.0
 20
0.0
 30
0.0
  9
$USERI1
 70
0
  9
$USERI2
 70
0
  9
$USERI3
 70
0
  9
$USERI4
 70
0
  9
$USERI5
 70
0
  9
$USERR1
 40
0.0
  9
$USERR2
 40
0.0
  9
$USERR3
 40
0.0
  9
$USERR4
 40
0.0
  9
$USERR5
 40
0.0
  9
$WORLDVIEW
 70
1
  9
$SHADEDGE
 70
3
  9
$SHADEDIF
 70
70
  9
$TILEMODE
 70
1
  9
$MAXACTVP
 70
64
  9
$PINSBASE
 10
0.0
 20
0.0
 30
0.0
  9
$PLIMCHECK
 70
0
  9
$PEXTMIN
 10
1e+20
 20
1e+20
 30
1e+20
  9
$PEXTMAX
 10
-1e+20
 20
-1e+20
 30
-1e+20
  9
$PLIMMIN
 10
0.0
 20
0.0
  9
$PLIMMAX
 10
420.0
 20
297.0
  9
$UNITMODE
 70
0
  9
$VISRETAIN
 70
1
  9
$PLINEGEN
 70
0
  9
$PSLTSCALE
 70
1
  9
$TREEDEPTH
 70
3020
  9
$CMLSTYLE
  2
Standard
  9
$CMLJUST
 70
0
  9
$CMLSCALE
 40
20.0
  9
$PROXYGRAPHICS
 70
1
  9
$MEASUREMENT
 70
1
  9
$CELWEIGHT
370
-1
  9
$ENDCAPS
280
0
  9
$JOINSTYLE
280
0
  9
$LWDISPLAY
290
0
  9
$INSUNITS
 70
4
  9
$HYPERLINKBASE
  1

  9
$STYLESHEET
  1

  9
$XEDIT
290
1
  9
$CEPSNTYPE
380
0
  9
$PSTYLEMODE
290
1
  9
$FINGERPRINTGUID
  2
{218BFFDA-1494-4918-8E81-B19E9E32992C}
  9
$VERSIONGUID
  2
{8E4242D4-1BCC-470D-A014-230D0E004DE7}
  9
$EXTNAMES
290
1
  9
$PSVPSCALE
 40
0.0
  9
$OLESTARTUP
290
0
  9
$SORTENTS
280
127
  9
$INDEXCTL
280
0
  9
$HIDETEXT
280
1
  9
$XCLIPFRAME
280
1
  9
$HALOGAP
280
0
  9
$OBSCOLOR
 70
257
  9
$OBSLTYPE
280
0
  9
$INTERSECTIONDISPLAY
280
0
  9
$INTERSECTIONCOLOR
 70
257
  9
$DIMASSOC
280
2
  9
$PROJECTNAME
  1

  9
$CAMERADISPLAY
290
0
  9
$LENSLENGTH
 40
50.0
  9
$CAMERAHEIGHT
 40
0.0
  9
$STEPSPERSEC
 40
24.0
  9
$STEPSIZE
 40
100.0
  9
$3DDWFPREC
 40
2.0
  9
$PSOLWIDTH
 40
0.005
  9
$PSOLHEIGHT
 40
0.08
  9
$LOFTANG1
 40
1.570796326795
  9
$LOFTANG2
 40
1.570796326795
  9
$LOFTMAG1
 40
0.0
  9
$LOFTMAG2
 40
0.0
  9
$LOFTPARAM
 70
7
  9
$LOFTNORMALS
280
1
  9
$LATITUDE
 40
37.795
  9
$LONGITUDE
 40
-122.394
  9
$NORTHDIRECTION
 40
0.0
  9
$TIMEZONE
 70
-8000
  9
$LIGHTGLYPHDISPLAY
280
1
  9
$TILEMODELIGHTSYNCH
280
1
  9
$CMATERIAL
347
20
  9
$SOLIDHIST
280
0
  9
$SHOWHIST
280
1
  9
$DWFFRAME
280
2
  9
$DGNFRAME
280
2
  9
$REALWORLDSCALE
290
1
  9
$INTERFERECOLOR
 62
256
  9
$CSHADOW
280
0
  9
$SHADOWPLANELOCATION
 40
0.0
  0
ENDSEC
  0
SECTION
  2
CLASSES
  0
CLASS
  1
ACDBDICTIONARYWDFLT
  2
AcDbDictionaryWithDefault
  3
ObjectDBX Classes
 90
0
 91
0
280
0
281
0
  0
CLASS
  1
SUN
  2
AcDbSun
  3
SCENEOE
 90
1153
 91
0
280
0
281
0
  0
CLASS
  1
VISUALSTYLE
  2
AcDbVisualStyle
  3
ObjectDBX Classes
 90
4095
 91
0
280
0
281
0
  0
CLASS
  1
MATERIAL
  2
AcDbMaterial
  3
ObjectDBX Classes
 90
1153
 91
0
280
0
281
0
  0
CLASS
  1
SCALE
  2
AcDbScale
  3
ObjectDBX Classes
 90
1153
 91
0
280
0
281
0
  0
CLASS
  1
TABLESTYLE
  2
AcDbTableStyle
  3
ObjectDBX Classes
 90
4095
 91
0
280
0
281
0
  0
CLASS
  1
MLEADERSTYLE
  2
AcDbMLeaderStyle
  3
ACDB_MLEADERSTYLE_CLASS
 90
4095
 91
0
280
0
281
0
  0
CLASS
  1
DICTIONARYVAR
  2
AcDbDictionaryVar
  3
ObjectDBX Classes
 90
0
 91
0
280
0
281
0
  0
CLASS
  1
CELLSTYLEMAP
  2
AcDbCellStyleMap
  3
ObjectDBX Classes
 90
1152
 91
0
280
0
281
0
  0
CLASS
  1
MENTALRAYRENDERSETTINGS
  2
AcDbMentalRayRenderSettings
  3
SCENEOE
 90
1024
 91
0
280
0
281
0
  0
CLASS
  1
ACDBDETAILVIEWSTYLE
  2
AcDbDetailViewStyle
  3
ObjectDBX Classes
 90
1025
 91
0
280
0
281
0
  0
CLASS
  1
ACDBSECTIONVIEWSTYLE
  2
AcDbSectionViewStyle
  3
ObjectDBX Classes
 90
1025
 91
0
280
0
281
0
  0
CLASS
  1
RASTERVARIABLES
  2
AcDbRasterVariables
  3
ISM
 90
0
 91
0
280
0
281
0
  0
CLASS
  1
IMAGE
  2
AcDbRasterImage
  3
ISM
 90
2175
 91
0
280
0
281
1
  0
CLASS
  1
IMAGEDEF
  2
AcDbRasterImageDef
  3
ISM
 90
0
 91
0
280
0
281
0
  0
CLASS
  1
IMAGEDEF_REACTOR
  2
AcDbRasterImageDefReactor
  3
ISM
 90
1
 91
0
280
0
281
0
  0
CLASS
  1
LAYOUT
  2
AcDbLayout
  3
ObjectDBX Classes
 90
0
 91
0
280
0
281
0
  0
CLASS
  1
ACDBPLACEHOLDER
  2
AcDbPlaceHolder
  3
ObjectDBX Classes
 90
0
 91
0
280
0
281
0
  0
ENDSEC
  0
SECTION
  2
TABLES
  0
TABLE
  2
VPORT
  5
8
330
0
100
AcDbSymbolTable
 70
1
  0
VPORT
  5
23
330
8
100
AcDbSymbolTableRecord
100
AcDbViewportTableRecord
  2
*Active
 70
0
 10
0.0
 20
0.0
 11
1.0
 21
1.0
 12
0.0
 22
0.0
 13
0.0
 23
0.0
 14
0.5
 24
0.5
 15
0.5
 25
0.5
 16
0.0
 26
0.0
 36
1.0
 17
0.0
 27
0.0
 37
0.0
 40
1000.0
 41
1.34
 42
50.0
 43
0.0
 44
0.0
 50
0.0
 51
0.0
 71
0
 72
1000
 73
1
 74
3
 75
0
 76
0
 77
0
 78
0
281
0
 65
0
146
0.0
  0
ENDTAB
  0
TABLE
  2
LTYPE
  5
2
330
0
100
AcDbSymbolTable
 70
6
  0
LTYPE
  5
24
330
2
100
AcDbSymbolTableRecord
100
AcDbLinetypeTableRecord
  2
ByBlock
 70
0
  3

 72
65
 73
0
 40
0.0
  0
LTYPE
  5
25
330
2
100
AcDbSymbolTableRecord
100
AcDbLinetypeTableRecord
  2
ByLayer
 70
0
  3

 72
65
 73
0
 40
0.0
  0
LTYPE
  5
26
330
2
100
AcDbSymbolTableRecord
100
AcDbLinetypeTableRecord
  2
Continuous
 70
0
  3

 72
65
 73
0
 40
0.0
  0
LTYPE
  5
2F
330
2
100
AcDbSymbolTableRecord
100
AcDbLinetypeTableRecord
  2
CENTER
 70
0
  3
Center __ . __ . __
 72
65
 73
4
 40
1.2
 49
0.8
 74
0
 49
-0.2
 74
0
 49
0.0
 74
0
 49
-0.2
 74
0
  0
LTYPE
  5
30
330
2
100
AcDbSymbolTableRecord
100
AcDbLinetypeTableRecord
  2
HIDDEN
 70
0
  3
Hidden -- -- -- --
 72
65
 73
2
 40
0.6
 49
0.4
 74
0
 49
-0.2
 74
0
  0
LTYPE
  5
31
330
2
100
AcDbSymbolTableRecord
100
AcDbLinetypeTableRecord
  2
DASHDOT
 70
0
  3
Dash dot __.__.__
 72
65
 73
4
 40
0.6
 49
0.4
 74
0
 49
-0.2
 74
0
 49
0.0
 74
0
 49
-0.2
 74
0
  0
ENDTAB
  0
TABLE
  2
LAYER
  5
1
330
0
100
AcDbSymbolTable
 70
17
  0
LAYER
  5
27
330
1
100
AcDbSymbolTableRecord
100
AcDbLayerTableRecord
  2
0
 70
0
 62
7
  6
Continuous
370
-3
390
13
347
21
  0
LAYER
  5
28
330
1
100
AcDbSymbolTableRecord
100
AcDbLayerTableRecord
  2
Defpoints
 70
0
 62
7
  6
Continuous
290
0
370
-3
390
13
347
21
  0
LAYER
  5
32
330
1
100
AcDbSymbolTableRecord
100
AcDbLayerTableRecord
  2
A-WALL-FULL
 70
0
 62
7
  6
Continuous
370
-3
390
13
347
21
  0
LAYER
  5
33
330
1
100
AcDbSymbolTableRecord
100
AcDbLayerTableRecord
  2
A-WALL-PRTN
 70
0
 62
7
  6
Continuous
370
-3
390
13
347
21
  0
LAYER
  5
34
330
1
100
AcDbSymbolTableRecord
100
AcDbLayerTableRecord
  2
A-WALL-PATT
 70
0
 62
254
  6
Continuous
370
-3
390
13
347
21
  0
LAYER
  5
35
330
1
100
AcDbSymbolTableRecord
100
AcDbLayerTableRecord
  2
A-GLAZ
 70
0
 62
5
  6
Continuous
370
-3
390
13
347
21
  0
LAYER
  5
36
330
1
100
AcDbSymbolTableRecord
100
AcDbLayerTableRecord
  2
A-DOOR
 70
0
 62
7
  6
Continuous
370
-3
390
13
347
21
  0
LAYER
  5
37
330
1
100
AcDbSymbolTableRecord
100
AcDbLayerTableRecord
  2
A-ROOF
 70
0
 62
7
  6
Continuous
370
-3
390
13
347
21
  0
LAYER
  5
38
330
1
100
AcDbSymbolTableRecord
100
AcDbLayerTableRecord
  2
A-GRID
 70
0
 62
8
  6
DASHDOT
370
-3
390
13
347
21
  0
LAYER
  5
39
330
1
100
AcDbSymbolTableRecord
100
AcDbLayerTableRecord
  2
A-ANNO-DIMS
 70
0
 62
7
  6
Continuous
370
-3
390
13
347
21
  0
LAYER
  5
3A
330
1
100
AcDbSymbolTableRecord
100
AcDbLayerTableRecord
  2
A-ANNO-TEXT
 70
0
 62
7
  6
Continuous
370
-3
390
13
347
21
  0
LAYER
  5
3B
330
1
100
AcDbSymbolTableRecord
100
AcDbLayerTableRecord
  2
A-FURN
 70
0
 62
9
  6
Continuous
370
-3
390
13
347
21
  0
LAYER
  5
3C
330
1
100
AcDbSymbolTableRecord
100
AcDbLayerTableRecord
  2
A-ELEV-WALL
 70
0
 62
7
  6
Continuous
370
-3
390
13
347
21
  0
LAYER
  5
3D
330
1
100
AcDbSymbolTableRecord
100
AcDbLayerTableRecord
  2
A-ELEV-LEVL
 70
0
 62
7
  6
Continuous
370
-3
390
13
347
21
  0
LAYER
  5
3E
330
1
100
AcDbSymbolTableRecord
100
AcDbLayerTableRecord
  2
A-TTLB
 70
0
 62
7
  6
Continuous
370
-3
390
13
347
21
  0
LAYER
  5
3F
330
1
100
AcDbSymbolTableRecord
100
AcDbLayerTableRecord
  2
A-ANNO-LEVL
 70
0
 62
7
  6
Continuous
370
-3
390
13
347
21
  0
LAYER
  5
40
330
1
100
AcDbSymbolTableRecord
100
AcDbLayerTableRecord
  2
A-ANNO-SECT
 70
0
 62
7
  6
HIDDEN
370
-3
390
13
347
21
  0
ENDTAB
  0
TABLE
  2
STYLE
  5
5
330
0
100
AcDbSymbolTable
 70
1
  0
STYLE
  5
29
330
5
100
AcDbSymbolTableRecord
100
AcDbTextStyleTableRecord
  2
Standard
 70
0
 40
0.0
 41
1.0
 50
0.0
 71
0
 42
2.5
  3
txt
  4

  0
ENDTAB
  0
TABLE
  2
VIEW
  5
7
330
0
100
AcDbSymbolTable
 70
0
  0
ENDTAB
  0
TABLE
  2
UCS
  5
6
330
0
100
AcDbSymbolTable
 70
0
  0
ENDTAB
  0
TABLE
  2
APPID
  5
3
330
0
100
AcDbSymbolTable
 70
3
  0
APPID
  5
2A
330
3
100
AcDbSymbolTableRecord
100
AcDbRegAppTableRecord
  2
ACAD
 70
0
  0
APPID
  5
CD
330
3
100
AcDbSymbolTableRecord
100
AcDbRegAppTableRecord
  2
HATCHBACKGROUNDCOLOR
 70
0
  0
APPID
  5
CE
330
3
100
AcDbSymbolTableRecord
100
AcDbRegAppTableRecord
  2
EZDXF
 70
0
  0
ENDTAB
  0
TABLE
  2
DIMSTYLE
  5
4
330
0
100
AcDbSymbolTable
 70
2
100
AcDbDimStyleTable
  0
DIMSTYLE
105
2B
330
4
100
AcDbSymbolTableRecord
100
AcDbDimStyleTableRecord
  2
Standard
 70
0
 40
1.0
 41
2.5
 42
0.625
 43
3.75
 44
1.25
 45
0.0
 46
0.0
 47
0.0
 48
0.0
 49
2.5
140
2.5
141
2.5
142
0.0
143
0.03937007874
144
1.0
145
0.0
146
1.0
147
0.625
148
0.0
 69
0
 70
0
 71
0
 72
0
 73
0
 74
0
 75
0
 76
0
 77
1
 78
8
 79
3
170
0
171
3
172
1
173
0
174
0
175
0
176
0
177
0
178
0
179
2
271
2
272
2
273
2
274
3
275
0
276
0
277
2
278
44
279
0
280
0
281
0
282
0
283
0
284
8
285
0
286
0
288
0
289
3
290
0
371
-2
372
-2
  0
DIMSTYLE
105
45
330
4
100
AcDbSymbolTableRecord
100
AcDbDimStyleTableRecord
  2
ARCH_JKR
 70
0
 40
100.0
 41
2.5
 42
2.0
 43
3.75
 44
2.0
 45
0.0
 46
0.0
 47
0.0
 48
0.0
 49
2.5
140
2.5
141
2.5
142
0.0
143
0.03937007874
144
1.0
145
0.0
146
1.0
147
1.0
148
0.0
 69
0
 70
0
 71
0
 72
0
 73
0
 74
0
 75
0
 76
0
 77
1
 78
8
 79
3
170
0
171
3
172
1
173
0
174
0
175
0
176
0
177
0
178
0
179
2
271
2
272
2
273
2
274
3
275
0
276
0
277
2
278
44
279
0
280
0
281
0
282
0
283
0
284
8
285
0
286
0
288
0
289
3
290
0
342
41
371
-2
372
-2
  0
ENDTAB
  0
TABLE
  2
BLOCK_RECORD
  5
9
330
0
100
AcDbSymbolTable
 70
7
  0
BLOCK_RECORD
  5
17
330
9
100
AcDbSymbolTableRecord
100
AcDbBlockTableRecord
  2
*Model_Space
340
1A
 70
0
280
1
281
0
  0
BLOCK_RECORD
  5
1B
330
9
100
AcDbSymbolTableRecord
100
AcDbBlockTableRecord
  2
*Paper_Space
340
1E
 70
0
280
1
281
0
  0
BLOCK_RECORD
  5
41
330
9
100
AcDbSymbolTableRecord
100
AcDbBlockTableRecord
  2
_ARCHTICK
340
0
 70
0
280
1
281
0
  0
BLOCK_RECORD
  5
46
330
9
100
AcDbSymbolTableRecord
100
AcDbBlockTableRecord
  2
DOOR_TAG
340
0
 70
0
280
1
281
0
  0
BLOCK_RECORD
  5
4B
330
9
100
AcDbSymbolTableRecord
100
AcDbBlockTableRecord
  2
WINDOW_TAG
340
0
 70
0
280
1
281
0
  0
BLOCK_RECORD
  5
4F
330
9
100
AcDbSymbolTableRecord
100
AcDbBlockTableRecord
  2
SECTION_ARROW
340
0
 70
0
280
1
281
0
  0
BLOCK_RECORD
  5
53
330
9
100
AcDbSymbolTableRecord
100
AcDbBlockTableRecord
  2
ELEVATION_TAG
340
0
 70
0
280
1
281
0
  0
ENDTAB
  0
ENDSEC
  0
SECTION
  2
BLOCKS
  0
BLOCK
  5
18
330
17
100
AcDbEntity
  8
0
100
AcDbBlockBegin
  2
*Model_Space
 70
0
 10
0.0
 20
0.0
 30
0.0
  3
*Model_Space
  1

  0
ENDBLK
  5
19
330
17
100
AcDbEntity
  8
0
100
AcDbBlockEnd
  0
BLOCK
  5
1C
330
1B
100
AcDbEntity
  8
0
100
AcDbBlockBegin
  2
*Paper_Space
 70
0
 10
0.0
 20
0.0
 30
0.0
  3
*Paper_Space
  1

  0
ENDBLK
  5
1D
330
1B
100
AcDbEntity
  8
0
100
AcDbBlockEnd
  0
BLOCK
  5
42
330
41
100
AcDbEntity
  8
0
100
AcDbBlockBegin
  2
_ARCHTICK
 70
0
 10
0.0
 20
0.0
 30
0.0
  3
_ARCHTICK
  1

  0
LWPOLYLINE
  5
44
330
41
100
AcDbEntity
  8
0
  6
BYBLOCK
 62
0
100
AcDbPolyline
 90
2
 70
0
 43
0.15
 10
-0.5
 20
-0.5
 10
0.5
 20
0.5
  0
ENDBLK
  5
43
330
41
100
AcDbEntity
  8
0
100
AcDbBlockEnd
  0
BLOCK
  5
47
330
46
100
AcDbEntity
  8
0
100
AcDbBlockBegin
  2
DOOR_TAG
 70
0
 10
0.0
 20
0.0
 30
0.0
  3
DOOR_TAG
  1

  0
CIRCLE
  5
49
330
46
100
AcDbEntity
  8
0
370
25
100
AcDbCircle
 10
0.0
 20
0.0
 30
0.0
 40
1.0
  0
LINE
  5
4A
330
46
100
AcDbEntity
  8
0
370
25
100
AcDbLine
 10
-1.0
 20
0.0
 30
0.0
 11
1.0
 21
0.0
 31
0.0
  0
ENDBLK
  5
48
330
46
100
AcDbEntity
  8
0
100
AcDbBlockEnd
  0
BLOCK
  5
4C
330
4B
100
AcDbEntity
  8
0
100
AcDbBlockBegin
  2
WINDOW_TAG
 70
0
 10
0.0
 20
0.0
 30
0.0
  3
WINDOW_TAG
  1

  0
LWPOLYLINE
  5
4E
330
4B
100
AcDbEntity
  8
0
370
25
100
AcDbPolyline
 90
6
 70
1
 10
0.8660254037844387
 20
0.49999999999999994
 10
6.123233995736766e-17
 20
1.0
 10
-0.8660254037844387
 20
0.49999999999999994
 10
-0.8660254037844386
 20
-0.5000000000000001
 10
-1.8369701987210297e-16
 20
-1.0
 10
0.8660254037844384
 20
-0.5000000000000004
  0
ENDBLK
  5
4D
330
4B
100
AcDbEntity
  8
0
100
AcDbBlockEnd
  0
BLOCK
  5
50
330
4F
100
AcDbEntity
  8
0
100
AcDbBlockBegin
  2
SECTION_ARROW
 70
0
 10
0.0
 20
0.0
 30
0.0
  3
SECTION_ARROW
  1

  0
LWPOLYLINE
  5
52
330
4F
100
AcDbEntity
  8
0
370
25
100
AcDbPolyline
 90
3
 70
1
 10
-1.0
 20
0.0
 10
0.0
 20
1.414
 10
1.0
 20
0.0
  0
ENDBLK
  5
51
330
4F
100
AcDbEntity
  8
0
100
AcDbBlockEnd
  0
BLOCK
  5
54
330
53
100
AcDbEntity
  8
0
100
AcDbBlockBegin
  2
ELEVATION_TAG
 70
0
 10
0.0
 20
0.0
 30
0.0
  3
ELEVATION_TAG
  1

  0
CIRCLE
  5
56
330
53
100
AcDbEntity
  8
0
370
25
100
AcDbCircle
 10
0.0
 20
0.0
 30
0.0
 40
1.0
  0
LINE
  5
57
330
53
100
AcDbEntity
  8
0
370
25
100
AcDbLine
 10
-1.0
 20
0.0
 30
0.0
 11
1.0
 21
0.0
 31
0.0
  0
ENDBLK
  5
55
330
53
100
AcDbEntity
  8
0
100
AcDbBlockEnd
  0
ENDSEC
  0
SECTION
  2
ENTITIES
  0
LWPOLYLINE
  5
58
330
17
100
AcDbEntity
  8
A-GRID
370
18
100
AcDbPolyline
 90
4
 70
1
 10
-4.9960036108132044e-12
 20
-17800.003051757812
 10
8800.000190734863
 20
-17800.003051757812
 10
8800.000190734863
 20
1.9984014443252818e-12
 10
-4.9960036108132044e-12
 20
1.9984014443252818e-12
  0
LWPOLYLINE
  5
59
330
17
100
AcDbEntity
  8
A-ROOF
370
35
100
AcDbPolyline
 90
4
 70
1
 10
-3.552713678800501e-12
 20
-17800.003051757812
 10
8800.000190734863
 20
-17800.003051757812
 10
8800.000190734863
 20
0.0
 10
-3.552713678800501e-12
 20
0.0
  0
LWPOLYLINE
  5
5A
330
17
100
AcDbEntity
  8
A-GLAZ
370
25
100
AcDbPolyline
 90
4
 70
1
 10
789.7311449050903
 20
-11277.270317077637
 10
1962.2690677642822
 20
-11277.270317077637
 10
1962.2690677642822
 20
-10052.729606628418
 10
789.7311449050903
 20
-10052.729606628418
  0
LINE
  5
5B
330
17
100
AcDbEntity
  8
A-GLAZ
370
25
100
AcDbLine
 10
789.7311449050903
 20
-11277.270317077637
 30
0.0
 11
1962.2690677642822
 21
-10052.729606628418
 31
0.0
  0
LINE
  5
5C
330
17
100
AcDbEntity
  8
A-GLAZ
370
25
100
AcDbLine
 10
1962.2690677642822
 20
-11277.270317077637
 30
0.0
 11
789.7311449050903
 21
-10052.729606628418
 31
0.0
  0
LWPOLYLINE
  5
5D
330
17
100
AcDbEntity
  8
A-GLAZ
370
25
100
AcDbPolyline
 90
4
 70
1
 10
6822.731018066406
 20
-7747.269630432129
 10
7995.269775390625
 20
-7747.269630432129
 10
7995.269775390625
 20
-6522.730350494385
 10
6822.731018066406
 20
-6522.730350494385
  0
LINE
  5
5E
330
17
100
AcDbEntity
  8
A-GLAZ
370
25
100
AcDbLine
 10
6822.731018066406
 20
-7747.269630432129
 30
0.0
 11
7995.269775390625
 21
-6522.730350494385
 31
0.0
  0
LINE
  5
5F
330
17
100
AcDbEntity
  8
A-GLAZ
370
25
100
AcDbLine
 10
7995.269775390625
 20
-7747.269630432129
 30
0.0
 11
6822.731018066406
 21
-6522.730350494385
 31
0.0
  0
CIRCLE
  5
60
330
17
100
AcDbEntity
  8
A-ANNO-DIMS
370
18
100
AcDbCircle
 10
4642.959117889404
 20
-12779.582500457764
 30
0.0
 40
200.0
  0
LINE
  5
61
330
17
100
AcDbEntity
  8
A-ANNO-DIMS
370
18
100
AcDbLine
 10
4442.959117889404
 20
-12779.582500457764
 30
0.0
 11
4842.959117889404
 21
-12779.582500457764
 31
0.0
  0
LINE
  5
62
330
17
100
AcDbEntity
  8
A-ANNO-DIMS
370
18
100
AcDbLine
 10
4642.959117889404
 20
-12979.582500457764
 30
0.0
 11
4642.959117889404
 21
-12579.582500457764
 31
0.0
  0
CIRCLE
  5
63
330
17
100
AcDbEntity
  8
A-ANNO-DIMS
370
18
100
AcDbCircle
 10
4157.04083442688
 20
-5161.26275062561
 30
0.0
 40
200.0
  0
LINE
  5
64
330
17
100
AcDbEntity
  8
A-ANNO-DIMS
370
18
100
AcDbLine
 10
3957.04083442688
 20
-5161.26275062561
 30
0.0
 11
4357.04083442688
 21
-5161.26275062561
 31
0.0
  0
LINE
  5
65
330
17
100
AcDbEntity
  8
A-ANNO-DIMS
370
18
100
AcDbLine
 10
4157.04083442688
 20
-5361.26275062561
 30
0.0
 11
4157.04083442688
 21
-4961.26275062561
 31
0.0
  0
TEXT
  5
66
330
17
100
AcDbEntity
  8
A-ANNO-TEXT
100
AcDbText
 10
4400.000184774399
 20
-8900.000661611557
 30
0.0
 40
250.0
  1
BUMBUNG RATA / FLAT ROOF
 72
1
 11
4400.000184774399
 21
-8900.000661611557
 31
0.0
100
AcDbText
 73
2
  0
LINE
  5
67
330
17
100
AcDbEntity
  8
A-GRID
370
18
100
AcDbLine
 10
-4.9960036108132044e-12
 20
-20183.00132751465
 30
0.0
 11
-4.9960036108132044e-12
 21
4183.000004291534
 31
0.0
  0
HATCH
  5
68
330
17
100
AcDbEntity
  8
A-GRID
 62
7
100
AcDbHatch
 10
0.0
 20
0.0
 30
0.0
210
0.0
220
0.0
230
1.0
  2
SOLID
 70
1
 71
0
 91
1
 92
3
 72
0
 73
1
 93
36
 10
399.999999999995
 20
3783.0000042915344
 10
393.9231012048782
 20
3852.4592753583065
 10
375.8770483143584
 20
3919.8080616218017
 10
346.4101615137705
 20
3983.0000042915344
 10
306.41777724758623
 20
4040.1150481661502
 10
257.11504387461076
 20
4089.417781539126
 10
199.99999999999505
 20
4129.41016580531
 10
136.80805733026253
 20
4158.877052605898
 10
69.45927106676716
 20
4176.9231054964175
 10
-4.971510674830257e-12
 20
4183.000004291534
 10
-69.45927106677712
 20
4176.9231054964175
 10
-136.8080573302724
 20
4158.877052605898
 10
-200.00000000000492
 20
4129.41016580531
 10
-257.11504387462077
 20
4089.417781539126
 10
-306.4177772475962
 20
4040.1150481661502
 10
-346.4101615137804
 20
3983.0000042915344
 10
-375.8770483143683
 20
3919.808061621802
 10
-393.9231012048882
 20
3852.4592753583065
 10
-400.000000000005
 20
3783.0000042915344
 10
-393.92310120488827
 20
3713.5407332247623
 10
-375.8770483143684
 20
3646.191946961267
 10
-346.41016151378045
 20
3583.0000042915344
 10
-306.41777724759635
 20
3525.884960416919
 10
-257.11504387462077
 20
3476.582227043943
 10
-200.00000000000517
 20
3436.5898427777593
 10
-136.80805733027242
 20
3407.122955977171
 10
-69.45927106677713
 20
3389.0769030866513
 10
-5.069482418762045e-12
 20
3383.0000042915344
 10
69.45927106676699
 20
3389.0769030866513
 10
136.80805733026259
 20
3407.122955977171
 10
199.99999999999474
 20
3436.589842777759
 10
257.1150438746107
 20
3476.582227043943
 10
306.4177772475861
 20
3525.8849604169186
 10
346.4101615137705
 20
3583.0000042915344
 10
375.8770483143584
 20
3646.191946961267
 10
393.9231012048782
 20
3713.5407332247623
 97
0
 75
1
 76
1
 98
0
  0
CIRCLE
  5
69
330
17
100
AcDbEntity
  8
A-GRID
370
25
100
AcDbCircle
 10
-4.9960036108132044e-12
 20
3783.0000042915344
 30
0.0
 40
400.0
  0
TEXT
  5
6A
330
17
100
AcDbEntity
  8
A-ANNO-TEXT
100
AcDbText
 10
-4.9960036108132044e-12
 20
3783.0000042915344
 30
0.0
 40
350.0
  1
A
 72
1
 11
-4.9960036108132044e-12
 21
3783.0000042915344
 31
0.0
100
AcDbText
 73
2
  0
HATCH
  5
6B
330
17
100
AcDbEntity
  8
A-GRID
 62
7
100
AcDbHatch
 10
0.0
 20
0.0
 30
0.0
210
0.0
220
0.0
230
1.0
  2
SOLID
 70
1
 71
0
 91
1
 92
3
 72
0
 73
1
 93
36
 10
399.999999999995
 20
-19783.00132751465
 10
393.9231012048782
 20
-19713.542056447877
 10
375.8770483143584
 20
-19646.19327018438
 10
346.4101615137705
 20
-19583.00132751465
 10
306.41777724758623
 20
-19525.886283640033
 10
257.11504387461076
 20
-19476.583550267056
 10
199.99999999999505
 20
-19436.59116600087
 10
136.80805733026253
 20
-19407.124279200285
 10
69.45927106676716
 20
-19389.078226309764
 10
-4.971510674830257e-12
 20
-19383.00132751465
 10
-69.45927106677712
 20
-19389.078226309764
 10
-136.8080573302724
 20
-19407.124279200285
 10
-200.00000000000492
 20
-19436.59116600087
 10
-257.11504387462077
 20
-19476.583550267056
 10
-306.4177772475962
 20
-19525.886283640033
 10
-346.4101615137804
 20
-19583.00132751465
 10
-375.8770483143683
 20
-19646.19327018438
 10
-393.9231012048882
 20
-19713.542056447877
 10
-400.000000000005
 20
-19783.00132751465
 10
-393.92310120488827
 20
-19852.46059858142
 10
-375.8770483143684
 20
-19919.809384844917
 10
-346.41016151378045
 20
-19983.00132751465
 10
-306.41777724759635
 20
-20040.116371389264
 10
-257.11504387462077
 20
-20089.41910476224
 10
-200.00000000000517
 20
-20129.411489028425
 10
-136.80805733027242
 20
-20158.878375829012
 10
-69.45927106677713
 20
-20176.924428719532
 10
-5.069482418762045e-12
 20
-20183.00132751465
 10
69.45927106676699
 20
-20176.924428719532
 10
136.80805733026259
 20
-20158.878375829012
 10
199.99999999999474
 20
-20129.411489028425
 10
257.1150438746107
 20
-20089.41910476224
 10
306.4177772475861
 20
-20040.116371389264
 10
346.4101615137705
 20
-19983.00132751465
 10
375.8770483143584
 20
-19919.809384844917
 10
393.9231012048782
 20
-19852.46059858142
 97
0
 75
1
 76
1
 98
0
  0
CIRCLE
  5
6C
330
17
100
AcDbEntity
  8
A-GRID
370
25
100
AcDbCircle
 10
-4.9960036108132044e-12
 20
-19783.00132751465
 30
0.0
 40
400.0
  0
TEXT
  5
6D
330
17
100
AcDbEntity
  8
A-ANNO-TEXT
100
AcDbText
 10
-4.9960036108132044e-12
 20
-19783.00132751465
 30
0.0
 40
350.0
  1
A
 72
1
 11
-4.9960036108132044e-12
 21
-19783.00132751465
 31
0.0
100
AcDbText
 73
2
  0
LINE
  5
6E
330
17
100
AcDbEntity
  8
A-GRID
370
18
100
AcDbLine
 10
8799.999999999995
 20
-20183.00132751465
 30
0.0
 11
8799.999999999995
 21
4183.000004291534
 31
0.0
  0
HATCH
  5
6F
330
17
100
AcDbEntity
  8
A-GRID
 62
7
100
AcDbHatch
 10
0.0
 20
0.0
 30
0.0
210
0.0
220
0.0
230
1.0
  2
SOLID
 70
1
 71
0
 91
1
 92
3
 72
0
 73
1
 93
36
 10
9199.999999999995
 20
3783.0000042915344
 10
9193.923101204879
 20
3852.4592753583065
 10
9175.877048314358
 20
3919.8080616218017
 10
9146.41016151377
 20
3983.0000042915344
 10
9106.417777247585
 20
4040.1150481661502
 10
9057.11504387461
 20
4089.417781539126
 10
8999.999999999995
 20
4129.41016580531
 10
8936.808057330261
 20
4158.877052605898
 10
8869.459271066768
 20
4176.9231054964175
 10
8799.999999999995
 20
4183.000004291534
 10
8730.540728933222
 20
4176.9231054964175
 10
8663.191942669728
 20
4158.877052605898
 10
8599.999999999995
 20
4129.41016580531
 10
8542.88495612538
 20
4089.417781539126
 10
8493.582222752404
 20
4040.1150481661502
 10
8453.58983848622
 20
3983.0000042915344
 10
8424.122951685631
 20
3919.808061621802
 10
8406.07689879511
 20
3852.4592753583065
 10
8399.999999999995
 20
3783.0000042915344
 10
8406.07689879511
 20
3713.5407332247623
 10
8424.122951685631
 20
3646.191946961267
 10
8453.58983848622
 20
3583.0000042915344
 10
8493.582222752404
 20
3525.884960416919
 10
8542.88495612538
 20
3476.582227043943
 10
8599.999999999995
 20
3436.5898427777593
 10
8663.191942669728
 20
3407.122955977171
 10
8730.540728933222
 20
3389.0769030866513
 10
8799.999999999995
 20
3383.0000042915344
 10
8869.459271066766
 20
3389.0769030866513
 10
8936.808057330261
 20
3407.122955977171
 10
8999.999999999995
 20
3436.589842777759
 10
9057.11504387461
 20
3476.582227043943
 10
9106.417777247585
 20
3525.8849604169186
 10
9146.41016151377
 20
3583.0000042915344
 10
9175.877048314358
 20
3646.191946961267
 10
9193.923101204879
 20
3713.5407332247623
 97
0
 75
1
 76
1
 98
0
  0
CIRCLE
  5
70
330
17
100
AcDbEntity
  8
A-GRID
370
25
100
AcDbCircle
 10
8799.999999999995
 20
3783.0000042915344
 30
0.0
 40
400.0
  0
TEXT
  5
71
330
17
100
AcDbEntity
  8
A-ANNO-TEXT
100
AcDbText
 10
8799.999999999995
 20
3783.0000042915344
 30
0.0
 40
350.0
  1
B
 72
1
 11
8799.999999999995
 21
3783.0000042915344
 31
0.0
100
AcDbText
 73
2
  0
HATCH
  5
72
330
17
100
AcDbEntity
  8
A-GRID
 62
7
100
AcDbHatch
 10
0.0
 20
0.0
 30
0.0
210
0.0
220
0.0
230
1.0
  2
SOLID
 70
1
 71
0
 91
1
 92
3
 72
0
 73
1
 93
36
 10
9199.999999999995
 20
-19783.00132751465
 10
9193.923101204879
 20
-19713.542056447877
 10
9175.877048314358
 20
-19646.19327018438
 10
9146.41016151377
 20
-19583.00132751465
 10
9106.417777247585
 20
-19525.886283640033
 10
9057.11504387461
 20
-19476.583550267056
 10
8999.999999999995
 20
-19436.59116600087
 10
8936.808057330261
 20
-19407.124279200285
 10
8869.459271066768
 20
-19389.078226309764
 10
8799.999999999995
 20
-19383.00132751465
 10
8730.540728933222
 20
-19389.078226309764
 10
8663.191942669728
 20
-19407.124279200285
 10
8599.999999999995
 20
-19436.59116600087
 10
8542.88495612538
 20
-19476.583550267056
 10
8493.582222752404
 20
-19525.886283640033
 10
8453.58983848622
 20
-19583.00132751465
 10
8424.122951685631
 20
-19646.19327018438
 10
8406.07689879511
 20
-19713.542056447877
 10
8399.999999999995
 20
-19783.00132751465
 10
8406.07689879511
 20
-19852.46059858142
 10
8424.122951685631
 20
-19919.809384844917
 10
8453.58983848622
 20
-19983.00132751465
 10
8493.582222752404
 20
-20040.116371389264
 10
8542.88495612538
 20
-20089.41910476224
 10
8599.999999999995
 20
-20129.411489028425
 10
8663.191942669728
 20
-20158.878375829012
 10
8730.540728933222
 20
-20176.924428719532
 10
8799.999999999995
 20
-20183.00132751465
 10
8869.459271066766
 20
-20176.924428719532
 10
8936.808057330261
 20
-20158.878375829012
 10
8999.999999999995
 20
-20129.411489028425
 10
9057.11504387461
 20
-20089.41910476224
 10
9106.417777247585
 20
-20040.116371389264
 10
9146.41016151377
 20
-19983.00132751465
 10
9175.877048314358
 20
-19919.809384844917
 10
9193.923101204879
 20
-19852.46059858142
 97
0
 75
1
 76
1
 98
0
  0
CIRCLE
  5
73
330
17
100
AcDbEntity
  8
A-GRID
370
25
100
AcDbCircle
 10
8799.999999999995
 20
-19783.00132751465
 30
0.0
 40
400.0
  0
TEXT
  5
74
330
17
100
AcDbEntity
  8
A-ANNO-TEXT
100
AcDbText
 10
8799.999999999995
 20
-19783.00132751465
 30
0.0
 40
350.0
  1
B
 72
1
 11
8799.999999999995
 21
-19783.00132751465
 31
0.0
100
AcDbText
 73
2
  0
LINE
  5
75
330
17
100
AcDbEntity
  8
A-GRID
370
18
100
AcDbLine
 10
-4183.000004291534
 20
-17800.003051757812
 30
0.0
 11
11183.000373840332
 21
-17800.003051757812
 31
0.0
  0
HATCH
  5
76
330
17
100
AcDbEntity
  8
A-GRID
 62
7
100
AcDbHatch
 10
0.0
 20
0.0
 30
0.0
210
0.0
220
0.0
230
1.0
  2
SOLID
 70
1
 71
0
 91
1
 92
3
 72
0
 73
1
 93
36
 10
11183.000373840332
 20
-17800.003051757812
 10
11176.923475045216
 20
-17730.54378069104
 10
11158.877422154696
 20
-17663.194994427544
 10
11129.410535354107
 20
-17600.003051757812
 10
11089.418151087923
 20
-17542.888007883197
 10
11040.115417714947
 20
-17493.58527451022
 10
10983.000373840332
 20
-17453.592890244036
 10
10919.808431170599
 20
-17424.12600344345
 10
10852.459644907105
 20
-17406.07995055293
 10
10783.000373840332
 20
-17400.003051757812
 10
10713.541102773559
 20
-17406.07995055293
 10
10646.192316510065
 20
-17424.12600344345
 10
10583.000373840332
 20
-17453.592890244036
 10
10525.885329965717
 20
-17493.58527451022
 10
10476.582596592742
 20
-17542.888007883197
 10
10436.590212326557
 20
-17600.003051757812
 10
10407.123325525969
 20
-17663.194994427544
 10
10389.077272635448
 20
-17730.54378069104
 10
10383.000373840332
 20
-17800.003051757812
 10
10389.077272635448
 20
-17869.462322824584
 10
10407.123325525969
 20
-17936.81110908808
 10
10436.590212326557
 20
-18000.003051757812
 10
10476.582596592742
 20
-18057.118095632428
 10
10525.885329965717
 20
-18106.420829005405
 10
10583.000373840332
 20
-18146.41321327159
 10
10646.192316510065
 20
-18175.880100072176
 10
10713.541102773559
 20
-18193.926152962697
 10
10783.000373840332
 20
-18200.003051757812
 10
10852.459644907103
 20
-18193.926152962697
 10
10919.808431170599
 20
-18175.880100072176
 10
10983.000373840332
 20
-18146.41321327159
 10
11040.115417714947
 20
-18106.420829005405
 10
11089.418151087923
 20
-18057.118095632428
 10
11129.410535354107
 20
-18000.003051757812
 10
11158.877422154696
 20
-17936.81110908808
 10
11176.923475045216
 20
-17869.462322824584
 97
0
 75
1
 76
1
 98
0
  0
CIRCLE
  5
77
330
17
100
AcDbEntity
  8
A-GRID
370
25
100
AcDbCircle
 10
10783.000373840332
 20
-17800.003051757812
 30
0.0
 40
400.0
  0
TEXT
  5
78
330
17
100
AcDbEntity
  8
A-ANNO-TEXT
100
AcDbText
 10
10783.000373840332
 20
-17800.003051757812
 30
0.0
 40
350.0
  1
1
 72
1
 11
10783.000373840332
 21
-17800.003051757812
 31
0.0
100
AcDbText
 73
2
  0
HATCH
  5
79
330
17
100
AcDbEntity
  8
A-GRID
 62
7
100
AcDbHatch
 10
0.0
 20
0.0
 30
0.0
210
0.0
220
0.0
230
1.0
  2
SOLID
 70
1
 71
0
 91
1
 92
3
 72
0
 73
1
 93
36
 10
-3383.0000042915344
 20
-17800.003051757812
 10
-3389.0769030866513
 20
-17730.54378069104
 10
-3407.122955977171
 20
-17663.194994427544
 10
-3436.589842777759
 20
-17600.003051757812
 10
-3476.582227043943
 20
-17542.888007883197
 10
-3525.8849604169186
 20
-17493.58527451022
 10
-3583.0000042915344
 20
-17453.592890244036
 10
-3646.1919469612667
 20
-17424.12600344345
 10
-3713.5407332247623
 20
-17406.07995055293
 10
-3783.0000042915344
 20
-17400.003051757812
 10
-3852.4592753583065
 20
-17406.07995055293
 10
-3919.8080616218017
 20
-17424.12600344345
 10
-3983.0000042915344
 20
-17453.592890244036
 10
-4040.1150481661502
 20
-17493.58527451022
 10
-4089.417781539126
 20
-17542.888007883197
 10
-4129.41016580531
 20
-17600.003051757812
 10
-4158.877052605898
 20
-17663.194994427544
 10
-4176.9231054964175
 20
-17730.54378069104
 10
-4183.000004291534
 20
-17800.003051757812
 10
-4176.9231054964175
 20
-17869.462322824584
 10
-4158.877052605898
 20
-17936.81110908808
 10
-4129.41016580531
 20
-18000.003051757812
 10
-4089.417781539126
 20
-18057.118095632428
 10
-4040.1150481661502
 20
-18106.420829005405
 10
-3983.0000042915344
 20
-18146.41321327159
 10
-3919.8080616218017
 20
-18175.880100072176
 10
-3852.4592753583065
 20
-18193.926152962697
 10
-3783.0000042915344
 20
-18200.003051757812
 10
-3713.5407332247623
 20
-18193.926152962697
 10
-3646.1919469612667
 20
-18175.880100072176
 10
-3583.000004291535
 20
-18146.41321327159
 10
-3525.8849604169186
 20
-18106.420829005405
 10
-3476.5822270439435
 20
-18057.118095632428
 10
-3436.589842777759
 20
-18000.003051757812
 10
-3407.122955977171
 20
-17936.81110908808
 10
-3389.0769030866513
 20
-17869.462322824584
 97
0
 75
1
 76
1
 98
0
  0
CIRCLE
  5
7A
330
17
100
AcDbEntity
  8
A-GRID
370
25
100
AcDbCircle
 10
-3783.0000042915344
 20
-17800.003051757812
 30
0.0
 40
400.0
  0
TEXT
  5
7B
330
17
100
AcDbEntity
  8
A-ANNO-TEXT
100
AcDbText
 10
-3783.0000042915344
 20
-17800.003051757812
 30
0.0
 40
350.0
  1
1
 72
1
 11
-3783.0000042915344
 21
-17800.003051757812
 31
0.0
100
AcDbText
 73
2
  0
LINE
  5
7C
330
17
100
AcDbEntity
  8
A-GRID
370
18
100
AcDbLine
 10
-4183.000004291534
 20
-0.0030517578117894573
 30
0.0
 11
11183.000373840332
 21
-0.0030517578117894573
 31
0.0
  0
HATCH
  5
7D
330
17
100
AcDbEntity
  8
A-GRID
 62
7
100
AcDbHatch
 10
0.0
 20
0.0
 30
0.0
210
0.0
220
0.0
230
1.0
  2
SOLID
 70
1
 71
0
 91
1
 92
3
 72
0
 73
1
 93
36
 10
11183.000373840332
 20
-0.0030517578117894573
 10
11176.923475045216
 20
69.45621930896034
 10
11158.877422154696
 20
136.80500557245568
 10
11129.410535354107
 20
199.99694824218818
 10
11089.418151087923
 20
257.1119921168039
 10
11040.115417714947
 20
306.41472548977947
 10
10983.000373840332
 20
346.4071097559637
 10
10919.808431170599
 20
375.87399655655156
 10
10852.459644907105
 20
393.9200494470714
 10
10783.000373840332
 20
399.9969482421882
 10
10713.541102773559
 20
393.9200494470714
 10
10646.192316510065
 20
375.87399655655156
 10
10583.000373840332
 20
346.4071097559637
 10
10525.885329965717
 20
306.41472548977947
 10
10476.582596592742
 20
257.111992116804
 10
10436.590212326557
 20
199.99694824218835
 10
10407.123325525969
 20
136.80500557245577
 10
10389.077272635448
 20
69.45621930896031
 10
10383.000373840332
 20
-0.0030517578117404713
 10
10389.077272635448
 20
-69.4623228245838
 10
10407.123325525969
 20
-136.81110908807926
 10
10436.590212326557
 20
-200.00305175781185
 10
10476.582596592742
 20
-257.1180956324274
 10
10525.885329965717
 20
-306.420829005403
 10
10583.000373840332
 20
-346.4132132715871
 10
10646.192316510065
 20
-375.8801000721752
 10
10713.541102773559
 20
-393.926152962695
 10
10783.000373840332
 20
-400.0030517578118
 10
10852.459644907103
 20
-393.926152962695
 10
10919.808431170599
 20
-375.8801000721751
 10
10983.000373840332
 20
-346.41321327158744
 10
11040.115417714947
 20
-306.420829005403
 10
11089.418151087923
 20
-257.11809563242764
 10
11129.410535354107
 20
-200.00305175781165
 10
11158.877422154696
 20
-136.81110908807923
 10
11176.923475045216
 20
-69.46232282458395
 97
0
 75
1
 76
1
 98
0
  0
CIRCLE
  5
7E
330
17
100
AcDbEntity
  8
A-GRID
370
25
100
AcDbCircle
 10
10783.000373840332
 20
-0.0030517578117894573
 30
0.0
 40
400.0
  0
TEXT
  5
7F
330
17
100
AcDbEntity
  8
A-ANNO-TEXT
100
AcDbText
 10
10783.000373840332
 20
-0.0030517578117894573
 30
0.0
 40
350.0
  1
2
 72
1
 11
10783.000373840332
 21
-0.0030517578117894573
 31
0.0
100
AcDbText
 73
2
  0
HATCH
  5
80
330
17
100
AcDbEntity
  8
A-GRID
 62
7
100
AcDbHatch
 10
0.0
 20
0.0
 30
0.0
210
0.0
220
0.0
230
1.0
  2
SOLID
 70
1
 71
0
 91
1
 92
3
 72
0
 73
1
 93
36
 10
-3383.0000042915344
 20
-0.0030517578117894573
 10
-3389.0769030866513
 20
69.45621930896034
 10
-3407.122955977171
 20
136.80500557245568
 10
-3436.589842777759
 20
199.99694824218818
 10
-3476.582227043943
 20
257.1119921168039
 10
-3525.8849604169186
 20
306.41472548977947
 10
-3583.0000042915344
 20
346.4071097559637
 10
-3646.1919469612667
 20
375.87399655655156
 10
-3713.5407332247623
 20
393.9200494470714
 10
-3783.0000042915344
 20
399.9969482421882
 10
-3852.4592753583065
 20
393.9200494470714
 10
-3919.8080616218017
 20
375.87399655655156
 10
-3983.0000042915344
 20
346.4071097559637
 10
-4040.1150481661502
 20
306.41472548977947
 10
-4089.417781539126
 20
257.111992116804
 10
-4129.41016580531
 20
199.99694824218835
 10
-4158.877052605898
 20
136.80500557245577
 10
-4176.9231054964175
 20
69.45621930896031
 10
-4183.000004291534
 20
-0.0030517578117404713
 10
-4176.9231054964175
 20
-69.4623228245838
 10
-4158.877052605898
 20
-136.81110908807926
 10
-4129.41016580531
 20
-200.00305175781185
 10
-4089.417781539126
 20
-257.1180956324274
 10
-4040.1150481661502
 20
-306.420829005403
 10
-3983.0000042915344
 20
-346.4132132715871
 10
-3919.8080616218017
 20
-375.8801000721752
 10
-3852.4592753583065
 20
-393.926152962695
 10
-3783.0000042915344
 20
-400.0030517578118
 10
-3713.5407332247623
 20
-393.926152962695
 10
-3646.1919469612667
 20
-375.8801000721751
 10
-3583.000004291535
 20
-346.41321327158744
 10
-3525.8849604169186
 20
-306.420829005403
 10
-3476.5822270439435
 20
-257.11809563242764
 10
-3436.589842777759
 20
-200.00305175781165
 10
-3407.122955977171
 20
-136.81110908807923
 10
-3389.0769030866513
 20
-69.46232282458395
 97
0
 75
1
 76
1
 98
0
  0
CIRCLE
  5
81
330
17
100
AcDbEntity
  8
A-GRID
370
25
100
AcDbCircle
 10
-3783.0000042915344
 20
-0.0030517578117894573
 30
0.0
 40
400.0
  0
TEXT
  5
82
330
17
100
AcDbEntity
  8
A-ANNO-TEXT
100
AcDbText
 10
-3783.0000042915344
 20
-0.0030517578117894573
 30
0.0
 40
350.0
  1
2
 72
1
 11
-3783.0000042915344
 21
-0.0030517578117894573
 31
0.0
100
AcDbText
 73
2
  0
LINE
  5
83
330
17
100
AcDbEntity
  8
A-ANNO-DIMS
370
18
100
AcDbLine
 10
-4.9960036108132044e-12
 20
1383.0000042915344
 30
0.0
 11
8799.999999999995
 21
1383.0000042915344
 31
0.0
  0
LINE
  5
84
330
17
100
AcDbEntity
  8
A-ANNO-DIMS
370
18
100
AcDbLine
 10
-106.06601717798713
 20
1276.9339871135523
 30
0.0
 11
106.06601717797713
 21
1489.0660214695165
 31
0.0
  0
LINE
  5
85
330
17
100
AcDbEntity
  8
A-ANNO-DIMS
370
18
100
AcDbLine
 10
8693.933982822013
 20
1276.9339871135523
 30
0.0
 11
8906.066017177976
 21
1489.0660214695165
 31
0.0
  0
TEXT
  5
86
330
17
100
AcDbEntity
  8
A-ANNO-DIMS
100
AcDbText
 10
4399.9999999999945
 20
1633.0000042915344
 30
0.0
 40
250.0
  1
8800
 72
1
 11
4399.9999999999945
 21
1633.0000042915344
 31
0.0
100
AcDbText
 73
2
  0
LINE
  5
87
330
17
100
AcDbEntity
  8
A-ANNO-DIMS
370
18
100
AcDbLine
 10
-1383.0000042915344
 20
-17800.003051757812
 30
0.0
 11
-1383.0000042915344
 21
-0.0030517578117894573
 31
0.0
  0
LINE
  5
88
330
17
100
AcDbEntity
  8
A-ANNO-DIMS
370
18
100
AcDbLine
 10
-1489.0660214695165
 20
-17906.069068935794
 30
0.0
 11
-1276.9339871135523
 21
-17693.93703457983
 31
0.0
  0
LINE
  5
89
330
17
100
AcDbEntity
  8
A-ANNO-DIMS
370
18
100
AcDbLine
 10
-1489.0660214695165
 20
-106.06906893579391
 30
0.0
 11
-1276.9339871135523
 21
106.06296542017033
 31
0.0
  0
TEXT
  5
8A
330
17
100
AcDbEntity
  8
A-ANNO-DIMS
100
AcDbText
 10
-1633.0000042915344
 20
-8900.003051757812
 30
0.0
 40
250.0
  1
17800
 50
90.0
 72
1
 11
-1633.0000042915344
 21
-8900.003051757812
 31
0.0
100
AcDbText
 73
2
  0
LWPOLYLINE
  5
8B
330
17
100
AcDbEntity
  8
0
 62
7
100
AcDbPolyline
 90
4
 70
1
 10
-11349.999815225601
 20
-23183.00132751465
 10
30650.0001847744
 20
-23183.00132751465
 10
30650.0001847744
 20
5183.000004291534
 10
-11349.999815225601
 20
5183.000004291534
  0
LWPOLYLINE
  5
8C
330
17
100
AcDbEntity
  8
A-TTLB
370
70
100
AcDbPolyline
 90
4
 70
1
 10
-8849.999815225601
 20
-22183.00132751465
 10
29650.0001847744
 20
-22183.00132751465
 10
29650.0001847744
 20
4183.000004291534
 10
-8849.999815225601
 20
4183.000004291534
  0
LINE
  5
8D
330
17
100
AcDbEntity
  8
A-TTLB
370
70
100
AcDbLine
 10
17650.0001847744
 20
-22183.00132751465
 30
0.0
 11
17650.0001847744
 21
4183.000004291534
 31
0.0
  0
IMAGE
  5
91
330
17
100
AcDbEntity
  8
A-TTLB
100
AcDbRasterImage
 90
0
 10
17850.0001847744
 20
2803.0000042915344
 30
0.0
 11
1.6853932584269662
 21
0.0
 31
0.0
 12
1.1269755820374415e-16
 22
1.8404907975460123
 32
0.0
 13
890.0
 23
652.0
340
90
 70
3
280
0
281
50
282
50
283
0
360
92
 71
1
 91
2
 14
-0.5
 24
-0.5
 14
889.5
 24
651.5
290
0
  0
TEXT
  5
93
330
17
100
AcDbEntity
  8
A-TTLB
100
AcDbText
 10
24600.0001847744
 20
3598.0000042915344
 30
0.0
 40
390.0
  1
PUBLIC WORKS
 72
1
 11
24600.0001847744
 21
3598.0000042915344
 31
0.0
100
AcDbText
 73
2
  0
TEXT
  5
94
330
17
100
AcDbEntity
  8
A-TTLB
100
AcDbText
 10
24600.0001847744
 20
3208.0000042915344
 30
0.0
 40
390.0
  1
DEPARTMENT MALAYSIA
 72
1
 11
24600.0001847744
 21
3208.0000042915344
 31
0.0
100
AcDbText
 73
2
  0
LINE
  5
95
330
17
100
AcDbEntity
  8
A-TTLB
370
50
100
AcDbLine
 10
17650.0001847744
 20
2623.0000042915344
 30
0.0
 11
29650.0001847744
 21
2623.0000042915344
 31
0.0
  0
TEXT
  5
96
330
17
100
AcDbEntity
  8
A-TTLB
100
AcDbText
 10
23650.0001847744
 20
2063.0000042915344
 30
0.0
 40
500.0
  1
DUPLEX RESIDENTIAL
 72
1
 11
23650.0001847744
 21
2063.0000042915344
 31
0.0
100
AcDbText
 73
2
  0
TEXT
  5
97
330
17
100
AcDbEntity
  8
A-TTLB
100
AcDbText
 10
23650.0001847744
 20
1471.0000042915344
 30
0.0
 40
300.0
  1
Ifc4 Duplex
 72
1
 11
23650.0001847744
 21
1471.0000042915344
 31
0.0
100
AcDbText
 73
2
  0
LINE
  5
98
330
17
100
AcDbEntity
  8
A-TTLB
370
35
100
AcDbLine
 10
17650.0001847744
 20
1023.0000042915344
 30
0.0
 11
29650.0001847744
 21
1023.0000042915344
 31
0.0
  0
LINE
  5
99
330
17
100
AcDbEntity
  8
A-TTLB
370
18
100
AcDbLine
 10
17650.0001847744
 20
-19483.00132751465
 30
0.0
 11
29650.0001847744
 21
-19483.00132751465
 31
0.0
  0
LINE
  5
9A
330
17
100
AcDbEntity
  8
A-TTLB
370
18
100
AcDbLine
 10
21250.0001847744
 20
-19483.00132751465
 30
0.0
 11
21250.0001847744
 21
-17618.81938825954
 31
0.0
  0
TEXT
  5
9B
330
17
100
AcDbEntity
  8
A-TTLB
100
AcDbText
 10
19450.0001847744
 20
-18550.910357887096
 30
0.0
 40
200.0
  1
REVISION NO.
 72
1
 11
19450.0001847744
 21
-18550.910357887096
 31
0.0
100
AcDbText
 73
2
  0
TEXT
  5
9C
330
17
100
AcDbEntity
  8
A-TTLB
100
AcDbText
 10
25450.0001847744
 20
-18550.910357887096
 30
0.0
 40
300.0
  1
0
 72
1
 11
25450.0001847744
 21
-18550.910357887096
 31
0.0
100
AcDbText
 73
2
  0
LINE
  5
9D
330
17
100
AcDbEntity
  8
A-TTLB
370
18
100
AcDbLine
 10
17650.0001847744
 20
-17618.81938825954
 30
0.0
 11
29650.0001847744
 21
-17618.81938825954
 31
0.0
  0
LINE
  5
9E
330
17
100
AcDbEntity
  8
A-TTLB
370
18
100
AcDbLine
 10
21250.0001847744
 20
-17618.81938825954
 30
0.0
 11
21250.0001847744
 21
-15754.637449004433
 31
0.0
  0
TEXT
  5
9F
330
17
100
AcDbEntity
  8
A-TTLB
100
AcDbText
 10
19450.0001847744
 20
-16686.72841863199
 30
0.0
 40
200.0
  1
CHECKED BY
 72
1
 11
19450.0001847744
 21
-16686.72841863199
 31
0.0
100
AcDbText
 73
2
  0
LINE
  5
A0
330
17
100
AcDbEntity
  8
A-TTLB
370
35
100
AcDbLine
 10
17650.0001847744
 20
-15754.637449004433
 30
0.0
 11
29650.0001847744
 21
-15754.637449004433
 31
0.0
  0
LINE
  5
A1
330
17
100
AcDbEntity
  8
A-TTLB
370
18
100
AcDbLine
 10
21250.0001847744
 20
-15754.637449004433
 30
0.0
 11
21250.0001847744
 21
-13890.455509749325
 31
0.0
  0
TEXT
  5
A2
330
17
100
AcDbEntity
  8
A-TTLB
100
AcDbText
 10
19450.0001847744
 20
-14822.546479376879
 30
0.0
 40
200.0
  1
DRAWING NO.
 72
1
 11
19450.0001847744
 21
-14822.546479376879
 31
0.0
100
AcDbText
 73
2
  0
TEXT
  5
A3
330
17
100
AcDbEntity
  8
A-TTLB
100
AcDbText
 10
25450.0001847744
 20
-14822.546479376879
 30
0.0
 40
300.0
  1
A-06
 72
1
 11
25450.0001847744
 21
-14822.546479376879
 31
0.0
100
AcDbText
 73
2
  0
LINE
  5
A4
330
17
100
AcDbEntity
  8
A-TTLB
370
18
100
AcDbLine
 10
17650.0001847744
 20
-13890.455509749325
 30
0.0
 11
29650.0001847744
 21
-13890.455509749325
 31
0.0
  0
LINE
  5
A5
330
17
100
AcDbEntity
  8
A-TTLB
370
18
100
AcDbLine
 10
21250.0001847744
 20
-13890.455509749325
 30
0.0
 11
21250.0001847744
 21
-12026.273570494217
 31
0.0
  0
TEXT
  5
A6
330
17
100
AcDbEntity
  8
A-TTLB
100
AcDbText
 10
19450.0001847744
 20
-12958.364540121771
 30
0.0
 40
200.0
  1
DATE
 72
1
 11
19450.0001847744
 21
-12958.364540121771
 31
0.0
100
AcDbText
 73
2
  0
LINE
  5
A7
330
17
100
AcDbEntity
  8
A-TTLB
370
18
100
AcDbLine
 10
17650.0001847744
 20
-12026.273570494217
 30
0.0
 11
29650.0001847744
 21
-12026.273570494217
 31
0.0
  0
LINE
  5
A8
330
17
100
AcDbEntity
  8
A-TTLB
370
18
100
AcDbLine
 10
21250.0001847744
 20
-12026.273570494217
 30
0.0
 11
21250.0001847744
 21
-10162.09163123911
 31
0.0
  0
TEXT
  5
A9
330
17
100
AcDbEntity
  8
A-TTLB
100
AcDbText
 10
19450.0001847744
 20
-11094.182600866663
 30
0.0
 40
200.0
  1
SCALE
 72
1
 11
19450.0001847744
 21
-11094.182600866663
 31
0.0
100
AcDbText
 73
2
  0
TEXT
  5
AA
330
17
100
AcDbEntity
  8
A-TTLB
100
AcDbText
 10
25450.0001847744
 20
-11094.182600866663
 30
0.0
 40
300.0
  1
1:100
 72
1
 11
25450.0001847744
 21
-11094.182600866663
 31
0.0
100
AcDbText
 73
2
  0
LINE
  5
AB
330
17
100
AcDbEntity
  8
A-TTLB
370
18
100
AcDbLine
 10
17650.0001847744
 20
-10162.09163123911
 30
0.0
 11
29650.0001847744
 21
-10162.09163123911
 31
0.0
  0
LINE
  5
AC
330
17
100
AcDbEntity
  8
A-TTLB
370
18
100
AcDbLine
 10
21250.0001847744
 20
-10162.09163123911
 30
0.0
 11
21250.0001847744
 21
-8297.909691984001
 31
0.0
  0
TEXT
  5
AD
330
17
100
AcDbEntity
  8
A-TTLB
100
AcDbText
 10
19450.0001847744
 20
-9230.000661611555
 30
0.0
 40
200.0
  1
DRAWN BY
 72
1
 11
19450.0001847744
 21
-9230.000661611555
 31
0.0
100
AcDbText
 73
2
  0
LINE
  5
AE
330
17
100
AcDbEntity
  8
A-TTLB
370
35
100
AcDbLine
 10
17650.0001847744
 20
-8297.909691984001
 30
0.0
 11
29650.0001847744
 21
-8297.909691984001
 31
0.0
  0
LINE
  5
AF
330
17
100
AcDbEntity
  8
A-TTLB
370
18
100
AcDbLine
 10
21250.0001847744
 20
-8297.909691984001
 30
0.0
 11
21250.0001847744
 21
-6433.727752728893
 31
0.0
  0
TEXT
  5
B0
330
17
100
AcDbEntity
  8
A-TTLB
100
AcDbText
 10
19450.0001847744
 20
-7365.818722356447
 30
0.0
 40
200.0
  1
DRAWING TITLE
 72
1
 11
19450.0001847744
 21
-7365.818722356447
 31
0.0
100
AcDbText
 73
2
  0
TEXT
  5
B1
330
17
100
AcDbEntity
  8
A-TTLB
100
AcDbText
 10
25450.0001847744
 20
-7365.818722356447
 30
0.0
 40
300.0
  1
ROOF PLAN
 72
1
 11
25450.0001847744
 21
-7365.818722356447
 31
0.0
100
AcDbText
 73
2
  0
LINE
  5
B2
330
17
100
AcDbEntity
  8
A-TTLB
370
35
100
AcDbLine
 10
17650.0001847744
 20
-6433.727752728893
 30
0.0
 11
29650.0001847744
 21
-6433.727752728893
 31
0.0
  0
LINE
  5
B3
330
17
100
AcDbEntity
  8
A-TTLB
370
18
100
AcDbLine
 10
21250.0001847744
 20
-6433.727752728893
 30
0.0
 11
21250.0001847744
 21
-4569.5458134737855
 31
0.0
  0
TEXT
  5
B4
330
17
100
AcDbEntity
  8
A-TTLB
100
AcDbText
 10
19450.0001847744
 20
-5501.6367831013395
 30
0.0
 40
200.0
  1
BUILDING TYPE
 72
1
 11
19450.0001847744
 21
-5501.6367831013395
 31
0.0
100
AcDbText
 73
2
  0
TEXT
  5
B5
330
17
100
AcDbEntity
  8
A-TTLB
100
AcDbText
 10
25450.0001847744
 20
-5501.6367831013395
 30
0.0
 40
300.0
  1
DUPLEX RESIDENTIAL
 72
1
 11
25450.0001847744
 21
-5501.6367831013395
 31
0.0
100
AcDbText
 73
2
  0
LINE
  5
B6
330
17
100
AcDbEntity
  8
A-TTLB
370
35
100
AcDbLine
 10
17650.0001847744
 20
-4569.5458134737855
 30
0.0
 11
29650.0001847744
 21
-4569.5458134737855
 31
0.0
  0
LINE
  5
B7
330
17
100
AcDbEntity
  8
A-TTLB
370
18
100
AcDbLine
 10
21250.0001847744
 20
-4569.5458134737855
 30
0.0
 11
21250.0001847744
 21
-2705.3638742186777
 31
0.0
  0
TEXT
  5
B8
330
17
100
AcDbEntity
  8
A-TTLB
100
AcDbText
 10
19450.0001847744
 20
-3637.4548438462316
 30
0.0
 40
200.0
  1
ARCHITECT
 72
1
 11
19450.0001847744
 21
-3637.4548438462316
 31
0.0
100
AcDbText
 73
2
  0
LINE
  5
B9
330
17
100
AcDbEntity
  8
A-TTLB
370
18
100
AcDbLine
 10
17650.0001847744
 20
-2705.3638742186777
 30
0.0
 11
29650.0001847744
 21
-2705.3638742186777
 31
0.0
  0
LINE
  5
BA
330
17
100
AcDbEntity
  8
A-TTLB
370
18
100
AcDbLine
 10
21250.0001847744
 20
-2705.3638742186777
 30
0.0
 11
21250.0001847744
 21
-841.18193496357
 31
0.0
  0
TEXT
  5
BB
330
17
100
AcDbEntity
  8
A-TTLB
100
AcDbText
 10
19450.0001847744
 20
-1773.2729045911237
 30
0.0
 40
200.0
  1
CLIENT
 72
1
 11
19450.0001847744
 21
-1773.2729045911237
 31
0.0
100
AcDbText
 73
2
  0
LINE
  5
BC
330
17
100
AcDbEntity
  8
A-TTLB
370
35
100
AcDbLine
 10
17650.0001847744
 20
-841.18193496357
 30
0.0
 11
29650.0001847744
 21
-841.18193496357
 31
0.0
  0
LINE
  5
BD
330
17
100
AcDbEntity
  8
A-TTLB
370
18
100
AcDbLine
 10
21250.0001847744
 20
-841.18193496357
 30
0.0
 11
21250.0001847744
 21
1023.0000042915376
 31
0.0
  0
TEXT
  5
BE
330
17
100
AcDbEntity
  8
A-TTLB
100
AcDbText
 10
19450.0001847744
 20
90.90903466398379
 30
0.0
 40
200.0
  1
PROJECT
 72
1
 11
19450.0001847744
 21
90.90903466398379
 31
0.0
100
AcDbText
 73
2
  0
LINE
  5
BF
330
17
100
AcDbEntity
  8
A-TTLB
370
50
100
AcDbLine
 10
17650.0001847744
 20
-19483.00132751465
 30
0.0
 11
29650.0001847744
 21
-19483.00132751465
 31
0.0
  0
TEXT
  5
C0
330
17
100
AcDbEntity
  8
A-TTLB
100
AcDbText
 10
23650.0001847744
 20
-19783.00132751465
 30
0.0
 40
240.0
  1
GRID REFERENCE
 72
1
 11
23650.0001847744
 21
-19783.00132751465
 31
0.0
100
AcDbText
 73
2
  0
LINE
  5
C1
330
17
100
AcDbEntity
  8
A-TTLB
370
35
100
AcDbLine
 10
17650.0001847744
 20
-19933.00132751465
 30
0.0
 11
29650.0001847744
 21
-19933.00132751465
 31
0.0
  0
TEXT
  5
C2
330
17
100
AcDbEntity
  8
A-TTLB
100
AcDbText
 10
23650.0001847744
 20
-20233.00132751465
 30
0.0
 40
200.0
  1
ALL DIMS SHOWN IN DRAWING
 72
1
 11
23650.0001847744
 21
-20233.00132751465
 31
0.0
100
AcDbText
 73
2
  0
LWPOLYLINE
  5
C3
330
17
100
AcDbEntity
  8
A-ANNO-TEXT
370
18
100
AcDbPolyline
 90
3
 70
1
 10
16050.000184774399
 20
2583.0000042915344
 10
15786.000184774399
 20
1783.0000042915344
 10
16314.000184774399
 20
1783.0000042915344
  0
TEXT
  5
C4
330
17
100
AcDbEntity
  8
A-ANNO-TEXT
100
AcDbText
 10
16050.000184774399
 20
2883.0000042915344
 30
0.0
 40
300.0
  1
N
 72
1
 11
16050.000184774399
 21
2883.0000042915344
 31
0.0
100
AcDbText
 73
2
  0
TEXT
  5
C5
330
17
100
AcDbEntity
  8
A-ANNO-TEXT
 62
8
100
AcDbText
 10
4400.000184774399
 20
-21283.00132751465
 30
0.0
 40
300.0
  1
scale 1:100
 72
1
 11
4400.000184774399
 21
-21283.00132751465
 31
0.0
100
AcDbText
 73
2
  0
SOLID
  5
C6
330
17
100
AcDbEntity
  8
A-ANNO-DIMS
 62
7
100
AcDbTrace
 10
1900.0001847743988
 20
-21883.00132751465
 30
0.0
 11
2900.000184774399
 21
-21883.00132751465
 31
0.0
 12
1900.0001847743988
 22
-21683.00132751465
 32
0.0
 13
2900.000184774399
 23
-21683.00132751465
 33
0.0
  0
SOLID
  5
C7
330
17
100
AcDbEntity
  8
A-ANNO-DIMS
 62
0
100
AcDbTrace
 10
2900.000184774399
 20
-21883.00132751465
 30
0.0
 11
3900.000184774399
 21
-21883.00132751465
 31
0.0
 12
2900.000184774399
 22
-21683.00132751465
 32
0.0
 13
3900.000184774399
 23
-21683.00132751465
 33
0.0
  0
SOLID
  5
C8
330
17
100
AcDbEntity
  8
A-ANNO-DIMS
 62
7
100
AcDbTrace
 10
3900.000184774399
 20
-21883.00132751465
 30
0.0
 11
6900.000184774399
 21
-21883.00132751465
 31
0.0
 12
3900.000184774399
 22
-21683.00132751465
 32
0.0
 13
6900.000184774399
 23
-21683.00132751465
 33
0.0
  0
TEXT
  5
C9
330
17
100
AcDbEntity
  8
A-ANNO-DIMS
100
AcDbText
 10
1900.0001847743988
 20
-22043.00132751465
 30
0.0
 40
200.0
  1
0
 72
1
 11
1900.0001847743988
 21
-22043.00132751465
 31
0.0
100
AcDbText
 73
2
  0
TEXT
  5
CA
330
17
100
AcDbEntity
  8
A-ANNO-DIMS
100
AcDbText
 10
2900.000184774399
 20
-21383.00132751465
 30
0.0
 40
200.0
  1
1
 72
1
 11
2900.000184774399
 21
-21383.00132751465
 31
0.0
100
AcDbText
 73
2
  0
TEXT
  5
CB
330
17
100
AcDbEntity
  8
A-ANNO-DIMS
100
AcDbText
 10
3900.000184774399
 20
-22043.00132751465
 30
0.0
 40
200.0
  1
2
 72
1
 11
3900.000184774399
 21
-22043.00132751465
 31
0.0
100
AcDbText
 73
2
  0
TEXT
  5
CC
330
17
100
AcDbEntity
  8
A-ANNO-DIMS
100
AcDbText
 10
6900.000184774399
 20
-21383.00132751465
 30
0.0
 40
200.0
  1
5m
 72
1
 11
6900.000184774399
 21
-21383.00132751465
 31
0.0
100
AcDbText
 73
2
  0
ENDSEC
  0
SECTION
  2
OBJECTS
  0
DICTIONARY
  5
A
330
0
100
AcDbDictionary
281
1
  3
ACAD_COLOR
350
B
  3
ACAD_GROUP
350
C
  3
ACAD_LAYOUT
350
D
  3
ACAD_MATERIAL
350
E
  3
ACAD_MLEADERSTYLE
350
F
  3
ACAD_MLINESTYLE
350
10
  3
ACAD_PLOTSETTINGS
350
11
  3
ACAD_PLOTSTYLENAME
350
12
  3
ACAD_SCALELIST
350
14
  3
ACAD_TABLESTYLE
350
15
  3
ACAD_VISUALSTYLE
350
16
  3
EZDXF_META
350
2D
  3
ACAD_IMAGE_VARS
350
8E
  3
ACAD_IMAGE_DICT
350
8F
  0
DICTIONARY
  5
B
330
A
100
AcDbDictionary
281
1
  0
DICTIONARY
  5
C
330
A
100
AcDbDictionary
281
1
  0
DICTIONARY
  5
D
330
A
100
AcDbDictionary
281
1
  3
Model
350
1A
  3
Layout1
350
1E
  0
DICTIONARY
  5
E
330
A
100
AcDbDictionary
281
1
  3
ByBlock
350
1F
  3
ByLayer
350
20
  3
Global
350
21
  0
DICTIONARY
  5
F
330
A
100
AcDbDictionary
281
1
  3
Standard
350
2C
  0
DICTIONARY
  5
10
330
A
100
AcDbDictionary
281
1
  3
Standard
350
22
  0
DICTIONARY
  5
11
330
A
100
AcDbDictionary
281
1
  0
ACDBDICTIONARYWDFLT
  5
12
330
A
100
AcDbDictionary
281
1
  3
Normal
350
13
100
AcDbDictionaryWithDefault
340
13
  0
ACDBPLACEHOLDER
  5
13
330
12
  0
DICTIONARY
  5
14
330
A
100
AcDbDictionary
281
1
  0
DICTIONARY
  5
15
330
A
100
AcDbDictionary
281
1
  0
DICTIONARY
  5
16
330
A
100
AcDbDictionary
281
1
  0
LAYOUT
  5
1A
330
D
100
AcDbPlotSettings
  1

  4
A3
  6

 40
7.5
 41
20.0
 42
7.5
 43
20.0
 44
420.0
 45
297.0
 46
0.0
 47
0.0
 48
0.0
 49
0.0
140
0.0
141
0.0
142
1.0
143
1.0
 70
1024
 72
1
 73
0
 74
5
  7

 75
16
 76
0
 77
2
 78
300
147
1.0
148
0.0
149
0.0
100
AcDbLayout
  1
Model
 70
1
 71
0
 10
0.0
 20
0.0
 11
420.0
 21
297.0
 12
0.0
 22
0.0
 32
0.0
 14
1e+20
 24
1e+20
 34
1e+20
 15
-1e+20
 25
-1e+20
 35
-1e+20
146
0.0
 13
0.0
 23
0.0
 33
0.0
 16
1.0
 26
0.0
 36
0.0
 17
0.0
 27
1.0
 37
0.0
 76
1
330
17
  0
LAYOUT
  5
1E
330
D
100
AcDbPlotSettings
  1

  4
A3
  6

 40
7.5
 41
20.0
 42
7.5
 43
20.0
 44
420.0
 45
297.0
 46
0.0
 47
0.0
 48
0.0
 49
0.0
140
0.0
141
0.0
142
1.0
143
1.0
 70
0
 72
1
 73
0
 74
5
  7

 75
16
 76
0
 77
2
 78
300
147
1.0
148
0.0
149
0.0
100
AcDbLayout
  1
Layout1
 70
1
 71
1
 10
0.0
 20
0.0
 11
420.0
 21
297.0
 12
0.0
 22
0.0
 32
0.0
 14
1e+20
 24
1e+20
 34
1e+20
 15
-1e+20
 25
-1e+20
 35
-1e+20
146
0.0
 13
0.0
 23
0.0
 33
0.0
 16
1.0
 26
0.0
 36
0.0
 17
0.0
 27
1.0
 37
0.0
 76
1
330
1B
  0
MATERIAL
  5
1F
102
{ACAD_REACTORS
330
E
102
}
330
E
100
AcDbMaterial
  1
ByBlock
  2

 70
0
 40
1.0
 71
1
 41
1.0
 91
-1023410177
 42
1.0
 72
1
  3

 73
1
 74
1
 75
1
 44
0.5
 73
0
 45
1.0
 46
1.0
 77
1
  4

 78
1
 79
1
170
1
 48
1.0
171
1
  6

172
1
173
1
174
1
140
1.0
141
1.0
175
1
  7

176
1
177
1
178
1
143
1.0
179
1
  8

270
1
271
1
272
1
145
1.0
146
1.0
273
1
  9

274
1
275
1
276
1
 42
1.0
 72
1
  3

 73
1
 74
1
 75
1
 94
63
  0
MATERIAL
  5
20
102
{ACAD_REACTORS
330
E
102
}
330
E
100
AcDbMaterial
  1
ByLayer
  2

 70
0
 40
1.0
 71
1
 41
1.0
 91
-1023410177
 42
1.0
 72
1
  3

 73
1
 74
1
 75
1
 44
0.5
 73
0
 45
1.0
 46
1.0
 77
1
  4

 78
1
 79
1
170
1
 48
1.0
171
1
  6

172
1
173
1
174
1
140
1.0
141
1.0
175
1
  7

176
1
177
1
178
1
143
1.0
179
1
  8

270
1
271
1
272
1
145
1.0
146
1.0
273
1
  9

274
1
275
1
276
1
 42
1.0
 72
1
  3

 73
1
 74
1
 75
1
 94
63
  0
MATERIAL
  5
21
102
{ACAD_REACTORS
330
E
102
}
330
E
100
AcDbMaterial
  1
Global
  2

 70
0
 40
1.0
 71
1
 41
1.0
 91
-1023410177
 42
1.0
 72
1
  3

 73
1
 74
1
 75
1
 44
0.5
 73
0
 45
1.0
 46
1.0
 77
1
  4

 78
1
 79
1
170
1
 48
1.0
171
1
  6

172
1
173
1
174
1
140
1.0
141
1.0
175
1
  7

176
1
177
1
178
1
143
1.0
179
1
  8

270
1
271
1
272
1
145
1.0
146
1.0
273
1
  9

274
1
275
1
276
1
 42
1.0
 72
1
  3

 73
1
 74
1
 75
1
 94
63
  0
MLINESTYLE
  5
22
102
{ACAD_REACTORS
330
10
102
}
330
10
100
AcDbMlineStyle
  2
Standard
 70
0
  3

 62
256
 51
90.0
 52
90.0
 71
2
 49
0.5
 62
256
  6
BYLAYER
 49
-0.5
 62
256
  6
BYLAYER
  0
MLEADERSTYLE
  5
2C
102
{ACAD_REACTORS
330
F
102
}
330
F
100
AcDbMLeaderStyle
179
2
170
2
171
1
172
0
 90
2
 40
0.0
 41
0.0
173
1
 91
-1056964608
 92
-2
290
1
 42
2.0
291
1
 43
8.0
  3
Standard
 44
4.0
300

342
29
174
1
175
1
176
0
178
1
 93
-1056964608
 45
4.0
292
0
297
0
 46
4.0
 94
-1056964608
 47
1.0
 49
1.0
140
1.0
294
1
141
0.0
177
0
142
1.0
295
0
296
0
143
3.75
271
0
272
9
273
9
  0
DICTIONARY
  5
2D
330
A
100
AcDbDictionary
280
1
281
1
  3
CREATED_BY_EZDXF
350
2E
  3
WRITTEN_BY_EZDXF
350
CF
  0
DICTIONARYVAR
  5
2E
330
2D
100
DictionaryVariables
280
0
  1
1.4.3 @ 2026-04-21T08:13:46.803811+00:00
  0
RASTERVARIABLES
  5
8E
102
{ACAD_REACTORS
330
A
102
}
330
A
100
AcDbRasterVariables
 90
0
 70
0
 71
1
 72
3
  0
DICTIONARY
  5
8F
330
A
100
AcDbDictionary
281
1
  3
/home/red1/bim-compiler/2D_Layout/python/../input/jkr.png
350
90
  0
IMAGEDEF
  5
90
102
{ACAD_REACTORS
330
8F
330
92
102
}
330
8F
100
AcDbRasterImageDef
 90
0
  1
/home/red1/bim-compiler/2D_Layout/python/../input/jkr.png
 10
890.0
 20
652.0
 11
0.01
 21
0.01
280
1
281
0
  0
IMAGEDEF_REACTOR
  5
92
330
91
100
AcDbRasterImageDefReactor
 90
2
330
91
  0
DICTIONARYVAR
  5
CF
330
2D
100
DictionaryVariables
280
0
  1
1.4.3 @ 2026-04-21T08:13:46.808846+00:00
  0
ENDSEC
  0
EOF
