  0
SECTION
  2
HEADER
  9
$ACADVER
  1
AC1024
  9
$ACADMAINTVER
 70
6
  9
$DWGCODEPAGE
  3
ANSI_1252
  9
$LASTSAVEDBY
  1
ezdxf
  9
$INSBASE
 10
0.0
 20
0.0
 30
0.0
  9
$EXTMIN
 10
1e+20
 20
1e+20
 30
1e+20
  9
$EXTMAX
 10
-1e+20
 20
-1e+20
 30
-1e+20
  9
$LIMMIN
 10
0.0
 20
0.0
  9
$LIMMAX
 10
420.0
 20
297.0
  9
$ORTHOMODE
 70
0
  9
$REGENMODE
 70
1
  9
$FILLMODE
 70
1
  9
$QTEXTMODE
 70
0
  9
$MIRRTEXT
 70
1
  9
$LTSCALE
 40
1.0
  9
$ATTMODE
 70
1
  9
$TEXTSIZE
 40
2.5
  9
$TRACEWID
 40
1.0
  9
$TEXTSTYLE
  7
Standard
  9
$CLAYER
  8
0
  9
$CELTYPE
  6
ByLayer
  9
$CECOLOR
 62
256
  9
$CELTSCALE
 40
1.0
  9
$DISPSILH
 70
0
  9
$DIMSCALE
 40
1.0
  9
$DIMASZ
 40
2.5
  9
$DIMEXO
 40
0.625
  9
$DIMDLI
 40
3.75
  9
$DIMRND
 40
0.0
  9
$DIMDLE
 40
0.0
  9
$DIMEXE
 40
1.25
  9
$DIMTP
 40
0.0
  9
$DIMTM
 40
0.0
  9
$DIMTXT
 40
2.5
  9
$DIMCEN
 40
2.5
  9
$DIMTSZ
 40
0.0
  9
$DIMTOL
 70
0
  9
$DIMLIM
 70
0
  9
$DIMTIH
 70
0
  9
$DIMTOH
 70
0
  9
$DIMSE1
 70
0
  9
$DIMSE2
 70
0
  9
$DIMTAD
 70
1
  9
$DIMZIN
 70
8
  9
$DIMBLK
  1

  9
$DIMASO
 70
1
  9
$DIMSHO
 70
1
  9
$DIMPOST
  1

  9
$DIMAPOST
  1

  9
$DIMALT
 70
0
  9
$DIMALTD
 70
3
  9
$DIMALTF
 40
0.03937007874
  9
$DIMLFAC
 40
1.0
  9
$DIMTOFL
 70
1
  9
$DIMTVP
 40
0.0
  9
$DIMTIX
 70
0
  9
$DIMSOXD
 70
0
  9
$DIMSAH
 70
0
  9
$DIMBLK1
  1

  9
$DIMBLK2
  1

  9
$DIMSTYLE
  2
ISO-25
  9
$DIMCLRD
 70
0
  9
$DIMCLRE
 70
0
  9
$DIMCLRT
 70
0
  9
$DIMTFAC
 40
1.0
  9
$DIMGAP
 40
0.625
  9
$DIMJUST
 70
0
  9
$DIMSD1
 70
0
  9
$DIMSD2
 70
0
  9
$DIMTOLJ
 70
0
  9
$DIMTZIN
 70
8
  9
$DIMALTZ
 70
0
  9
$DIMALTTZ
 70
0
  9
$DIMUPT
 70
0
  9
$DIMDEC
 70
2
  9
$DIMTDEC
 70
2
  9
$DIMALTU
 70
2
  9
$DIMALTTD
 70
3
  9
$DIMTXSTY
  7
Standard
  9
$DIMAUNIT
 70
0
  9
$DIMADEC
 70
0
  9
$DIMALTRND
 40
0.0
  9
$DIMAZIN
 70
0
  9
$DIMDSEP
 70
44
  9
$DIMATFIT
 70
3
  9
$DIMFRAC
 70
0
  9
$DIMLDRBLK
  1

  9
$DIMLUNIT
 70
2
  9
$DIMLWD
 70
-2
  9
$DIMLWE
 70
-2
  9
$DIMTMOVE
 70
0
  9
$DIMFXL
 40
1.0
  9
$DIMFXLON
 70
0
  9
$DIMJOGANG
 40
0.785398163397
  9
$DIMTFILL
 70
0
  9
$DIMTFILLCLR
 70
0
  9
$DIMARCSYM
 70
0
  9
$DIMLTYPE
  6

  9
$DIMLTEX1
  6

  9
$DIMLTEX2
  6

  9
$DIMTXTDIRECTION
 70
0
  9
$LUNITS
 70
2
  9
$LUPREC
 70
4
  9
$SKETCHINC
 40
1.0
  9
$FILLETRAD
 40
10.0
  9
$AUNITS
 70
0
  9
$AUPREC
 70
2
  9
$MENU
  1
.
  9
$ELEVATION
 40
0.0
  9
$PELEVATION
 40
0.0
  9
$THICKNESS
 40
0.0
  9
$LIMCHECK
 70
0
  9
$CHAMFERA
 40
0.0
  9
$CHAMFERB
 40
0.0
  9
$CHAMFERC
 40
0.0
  9
$CHAMFERD
 40
0.0
  9
$SKPOLY
 70
0
  9
$TDCREATE
 40
2461150.6769791665
  9
$TDUCREATE
 40
2458532.153996898
  9
$TDUPDATE
 40
2461150.6769791665
  9
$TDUUPDATE
 40
2458532.1544311
  9
$TDINDWG
 40
0.0
  9
$TDUSRTIMER
 40
0.0
  9
$USRTIMER
 70
1
  9
$ANGBASE
 50
0.0
  9
$ANGDIR
 70
0
  9
$PDMODE
 70
0
  9
$PDSIZE
 40
0.0
  9
$PLINEWID
 40
0.0
  9
$SPLFRAME
 70
0
  9
$SPLINETYPE
 70
6
  9
$SPLINESEGS
 70
8
  9
$HANDSEED
  5
1A7
  9
$SURFTAB1
 70
6
  9
$SURFTAB2
 70
6
  9
$SURFTYPE
 70
6
  9
$SURFU
 70
6
  9
$SURFV
 70
6
  9
$UCSBASE
  2

  9
$UCSNAME
  2

  9
$UCSORG
 10
0.0
 20
0.0
 30
0.0
  9
$UCSXDIR
 10
1.0
 20
0.0
 30
0.0
  9
$UCSYDIR
 10
0.0
 20
1.0
 30
0.0
  9
$UCSORTHOREF
  2

  9
$UCSORTHOVIEW
 70
0
  9
$UCSORGTOP
 10
0.0
 20
0.0
 30
0.0
  9
$UCSORGBOTTOM
 10
0.0
 20
0.0
 30
0.0
  9
$UCSORGLEFT
 10
0.0
 20
0.0
 30
0.0
  9
$UCSORGRIGHT
 10
0.0
 20
0.0
 30
0.0
  9
$UCSORGFRONT
 10
0.0
 20
0.0
 30
0.0
  9
$UCSORGBACK
 10
0.0
 20
0.0
 30
0.0
  9
$PUCSBASE
  2

  9
$PUCSNAME
  2

  9
$PUCSORG
 10
0.0
 20
0.0
 30
0.0
  9
$PUCSXDIR
 10
1.0
 20
0.0
 30
0.0
  9
$PUCSYDIR
 10
0.0
 20
1.0
 30
0.0
  9
$PUCSORTHOREF
  2

  9
$PUCSORTHOVIEW
 70
0
  9
$PUCSORGTOP
 10
0.0
 20
0.0
 30
0.0
  9
$PUCSORGBOTTOM
 10
0.0
 20
0.0
 30
0.0
  9
$PUCSORGLEFT
 10
0.0
 20
0.0
 30
0.0
  9
$PUCSORGRIGHT
 10
0.0
 20
0.0
 30
0.0
  9
$PUCSORGFRONT
 10
0.0
 20
0.0
 30
0.0
  9
$PUCSORGBACK
 10
0.0
 20
0.0
 30
0.0
  9
$USERI1
 70
0
  9
$USERI2
 70
0
  9
$USERI3
 70
0
  9
$USERI4
 70
0
  9
$USERI5
 70
0
  9
$USERR1
 40
0.0
  9
$USERR2
 40
0.0
  9
$USERR3
 40
0.0
  9
$USERR4
 40
0.0
  9
$USERR5
 40
0.0
  9
$WORLDVIEW
 70
1
  9
$SHADEDGE
 70
3
  9
$SHADEDIF
 70
70
  9
$TILEMODE
 70
1
  9
$MAXACTVP
 70
64
  9
$PINSBASE
 10
0.0
 20
0.0
 30
0.0
  9
$PLIMCHECK
 70
0
  9
$PEXTMIN
 10
1e+20
 20
1e+20
 30
1e+20
  9
$PEXTMAX
 10
-1e+20
 20
-1e+20
 30
-1e+20
  9
$PLIMMIN
 10
0.0
 20
0.0
  9
$PLIMMAX
 10
420.0
 20
297.0
  9
$UNITMODE
 70
0
  9
$VISRETAIN
 70
1
  9
$PLINEGEN
 70
0
  9
$PSLTSCALE
 70
1
  9
$TREEDEPTH
 70
3020
  9
$CMLSTYLE
  2
Standard
  9
$CMLJUST
 70
0
  9
$CMLSCALE
 40
20.0
  9
$PROXYGRAPHICS
 70
1
  9
$MEASUREMENT
 70
1
  9
$CELWEIGHT
370
-1
  9
$ENDCAPS
280
0
  9
$JOINSTYLE
280
0
  9
$LWDISPLAY
290
0
  9
$INSUNITS
 70
4
  9
$HYPERLINKBASE
  1

  9
$STYLESHEET
  1

  9
$XEDIT
290
1
  9
$CEPSNTYPE
380
0
  9
$PSTYLEMODE
290
1
  9
$FINGERPRINTGUID
  2
{5BDB1C61-A4E7-4C25-A7E8-741FA581C5C7}
  9
$VERSIONGUID
  2
{28F72624-280A-4EAD-B39D-7924A95A515A}
  9
$EXTNAMES
290
1
  9
$PSVPSCALE
 40
0.0
  9
$OLESTARTUP
290
0
  9
$SORTENTS
280
127
  9
$INDEXCTL
280
0
  9
$HIDETEXT
280
1
  9
$XCLIPFRAME
280
1
  9
$HALOGAP
280
0
  9
$OBSCOLOR
 70
257
  9
$OBSLTYPE
280
0
  9
$INTERSECTIONDISPLAY
280
0
  9
$INTERSECTIONCOLOR
 70
257
  9
$DIMASSOC
280
2
  9
$PROJECTNAME
  1

  9
$CAMERADISPLAY
290
0
  9
$LENSLENGTH
 40
50.0
  9
$CAMERAHEIGHT
 40
0.0
  9
$STEPSPERSEC
 40
24.0
  9
$STEPSIZE
 40
100.0
  9
$3DDWFPREC
 40
2.0
  9
$PSOLWIDTH
 40
0.005
  9
$PSOLHEIGHT
 40
0.08
  9
$LOFTANG1
 40
1.570796326795
  9
$LOFTANG2
 40
1.570796326795
  9
$LOFTMAG1
 40
0.0
  9
$LOFTMAG2
 40
0.0
  9
$LOFTPARAM
 70
7
  9
$LOFTNORMALS
280
1
  9
$LATITUDE
 40
37.795
  9
$LONGITUDE
 40
-122.394
  9
$NORTHDIRECTION
 40
0.0
  9
$TIMEZONE
 70
-8000
  9
$LIGHTGLYPHDISPLAY
280
1
  9
$TILEMODELIGHTSYNCH
280
1
  9
$CMATERIAL
347
20
  9
$SOLIDHIST
280
0
  9
$SHOWHIST
280
1
  9
$DWFFRAME
280
2
  9
$DGNFRAME
280
2
  9
$REALWORLDSCALE
290
1
  9
$INTERFERECOLOR
 62
256
  9
$CSHADOW
280
0
  9
$SHADOWPLANELOCATION
 40
0.0
  0
ENDSEC
  0
SECTION
  2
CLASSES
  0
CLASS
  1
ACDBDICTIONARYWDFLT
  2
AcDbDictionaryWithDefault
  3
ObjectDBX Classes
 90
0
 91
0
280
0
281
0
  0
CLASS
  1
SUN
  2
AcDbSun
  3
SCENEOE
 90
1153
 91
0
280
0
281
0
  0
CLASS
  1
VISUALSTYLE
  2
AcDbVisualStyle
  3
ObjectDBX Classes
 90
4095
 91
0
280
0
281
0
  0
CLASS
  1
MATERIAL
  2
AcDbMaterial
  3
ObjectDBX Classes
 90
1153
 91
0
280
0
281
0
  0
CLASS
  1
SCALE
  2
AcDbScale
  3
ObjectDBX Classes
 90
1153
 91
0
280
0
281
0
  0
CLASS
  1
TABLESTYLE
  2
AcDbTableStyle
  3
ObjectDBX Classes
 90
4095
 91
0
280
0
281
0
  0
CLASS
  1
MLEADERSTYLE
  2
AcDbMLeaderStyle
  3
ACDB_MLEADERSTYLE_CLASS
 90
4095
 91
0
280
0
281
0
  0
CLASS
  1
DICTIONARYVAR
  2
AcDbDictionaryVar
  3
ObjectDBX Classes
 90
0
 91
0
280
0
281
0
  0
CLASS
  1
CELLSTYLEMAP
  2
AcDbCellStyleMap
  3
ObjectDBX Classes
 90
1152
 91
0
280
0
281
0
  0
CLASS
  1
MENTALRAYRENDERSETTINGS
  2
AcDbMentalRayRenderSettings
  3
SCENEOE
 90
1024
 91
0
280
0
281
0
  0
CLASS
  1
ACDBDETAILVIEWSTYLE
  2
AcDbDetailViewStyle
  3
ObjectDBX Classes
 90
1025
 91
0
280
0
281
0
  0
CLASS
  1
ACDBSECTIONVIEWSTYLE
  2
AcDbSectionViewStyle
  3
ObjectDBX Classes
 90
1025
 91
0
280
0
281
0
  0
CLASS
  1
RASTERVARIABLES
  2
AcDbRasterVariables
  3
ISM
 90
0
 91
0
280
0
281
0
  0
CLASS
  1
IMAGE
  2
AcDbRasterImage
  3
ISM
 90
2175
 91
0
280
0
281
1
  0
CLASS
  1
IMAGEDEF
  2
AcDbRasterImageDef
  3
ISM
 90
0
 91
0
280
0
281
0
  0
CLASS
  1
IMAGEDEF_REACTOR
  2
AcDbRasterImageDefReactor
  3
ISM
 90
1
 91
0
280
0
281
0
  0
CLASS
  1
LAYOUT
  2
AcDbLayout
  3
ObjectDBX Classes
 90
0
 91
0
280
0
281
0
  0
CLASS
  1
ACDBPLACEHOLDER
  2
AcDbPlaceHolder
  3
ObjectDBX Classes
 90
0
 91
0
280
0
281
0
  0
ENDSEC
  0
SECTION
  2
TABLES
  0
TABLE
  2
VPORT
  5
8
330
0
100
AcDbSymbolTable
 70
1
  0
VPORT
  5
23
330
8
100
AcDbSymbolTableRecord
100
AcDbViewportTableRecord
  2
*Active
 70
0
 10
0.0
 20
0.0
 11
1.0
 21
1.0
 12
0.0
 22
0.0
 13
0.0
 23
0.0
 14
0.5
 24
0.5
 15
0.5
 25
0.5
 16
0.0
 26
0.0
 36
1.0
 17
0.0
 27
0.0
 37
0.0
 40
1000.0
 41
1.34
 42
50.0
 43
0.0
 44
0.0
 50
0.0
 51
0.0
 71
0
 72
1000
 73
1
 74
3
 75
0
 76
0
 77
0
 78
0
281
0
 65
0
146
0.0
  0
ENDTAB
  0
TABLE
  2
LTYPE
  5
2
330
0
100
AcDbSymbolTable
 70
6
  0
LTYPE
  5
24
330
2
100
AcDbSymbolTableRecord
100
AcDbLinetypeTableRecord
  2
ByBlock
 70
0
  3

 72
65
 73
0
 40
0.0
  0
LTYPE
  5
25
330
2
100
AcDbSymbolTableRecord
100
AcDbLinetypeTableRecord
  2
ByLayer
 70
0
  3

 72
65
 73
0
 40
0.0
  0
LTYPE
  5
26
330
2
100
AcDbSymbolTableRecord
100
AcDbLinetypeTableRecord
  2
Continuous
 70
0
  3

 72
65
 73
0
 40
0.0
  0
LTYPE
  5
2F
330
2
100
AcDbSymbolTableRecord
100
AcDbLinetypeTableRecord
  2
CENTER
 70
0
  3
Center __ . __ . __
 72
65
 73
4
 40
1.2
 49
0.8
 74
0
 49
-0.2
 74
0
 49
0.0
 74
0
 49
-0.2
 74
0
  0
LTYPE
  5
30
330
2
100
AcDbSymbolTableRecord
100
AcDbLinetypeTableRecord
  2
HIDDEN
 70
0
  3
Hidden -- -- -- --
 72
65
 73
2
 40
0.6
 49
0.4
 74
0
 49
-0.2
 74
0
  0
LTYPE
  5
31
330
2
100
AcDbSymbolTableRecord
100
AcDbLinetypeTableRecord
  2
DASHDOT
 70
0
  3
Dash dot __.__.__
 72
65
 73
4
 40
0.6
 49
0.4
 74
0
 49
-0.2
 74
0
 49
0.0
 74
0
 49
-0.2
 74
0
  0
ENDTAB
  0
TABLE
  2
LAYER
  5
1
330
0
100
AcDbSymbolTable
 70
17
  0
LAYER
  5
27
330
1
100
AcDbSymbolTableRecord
100
AcDbLayerTableRecord
  2
0
 70
0
 62
7
  6
Continuous
370
-3
390
13
347
21
  0
LAYER
  5
28
330
1
100
AcDbSymbolTableRecord
100
AcDbLayerTableRecord
  2
Defpoints
 70
0
 62
7
  6
Continuous
290
0
370
-3
390
13
347
21
  0
LAYER
  5
32
330
1
100
AcDbSymbolTableRecord
100
AcDbLayerTableRecord
  2
A-WALL-FULL
 70
0
 62
7
  6
Continuous
370
-3
390
13
347
21
  0
LAYER
  5
33
330
1
100
AcDbSymbolTableRecord
100
AcDbLayerTableRecord
  2
A-WALL-PRTN
 70
0
 62
7
  6
Continuous
370
-3
390
13
347
21
  0
LAYER
  5
34
330
1
100
AcDbSymbolTableRecord
100
AcDbLayerTableRecord
  2
A-WALL-PATT
 70
0
 62
254
  6
Continuous
370
-3
390
13
347
21
  0
LAYER
  5
35
330
1
100
AcDbSymbolTableRecord
100
AcDbLayerTableRecord
  2
A-GLAZ
 70
0
 62
5
  6
Continuous
370
-3
390
13
347
21
  0
LAYER
  5
36
330
1
100
AcDbSymbolTableRecord
100
AcDbLayerTableRecord
  2
A-DOOR
 70
0
 62
7
  6
Continuous
370
-3
390
13
347
21
  0
LAYER
  5
37
330
1
100
AcDbSymbolTableRecord
100
AcDbLayerTableRecord
  2
A-ROOF
 70
0
 62
7
  6
Continuous
370
-3
390
13
347
21
  0
LAYER
  5
38
330
1
100
AcDbSymbolTableRecord
100
AcDbLayerTableRecord
  2
A-GRID
 70
0
 62
8
  6
DASHDOT
370
-3
390
13
347
21
  0
LAYER
  5
39
330
1
100
AcDbSymbolTableRecord
100
AcDbLayerTableRecord
  2
A-ANNO-DIMS
 70
0
 62
7
  6
Continuous
370
-3
390
13
347
21
  0
LAYER
  5
3A
330
1
100
AcDbSymbolTableRecord
100
AcDbLayerTableRecord
  2
A-ANNO-TEXT
 70
0
 62
7
  6
Continuous
370
-3
390
13
347
21
  0
LAYER
  5
3B
330
1
100
AcDbSymbolTableRecord
100
AcDbLayerTableRecord
  2
A-FURN
 70
0
 62
9
  6
Continuous
370
-3
390
13
347
21
  0
LAYER
  5
3C
330
1
100
AcDbSymbolTableRecord
100
AcDbLayerTableRecord
  2
A-ELEV-WALL
 70
0
 62
7
  6
Continuous
370
-3
390
13
347
21
  0
LAYER
  5
3D
330
1
100
AcDbSymbolTableRecord
100
AcDbLayerTableRecord
  2
A-ELEV-LEVL
 70
0
 62
7
  6
Continuous
370
-3
390
13
347
21
  0
LAYER
  5
3E
330
1
100
AcDbSymbolTableRecord
100
AcDbLayerTableRecord
  2
A-TTLB
 70
0
 62
7
  6
Continuous
370
-3
390
13
347
21
  0
LAYER
  5
3F
330
1
100
AcDbSymbolTableRecord
100
AcDbLayerTableRecord
  2
A-ANNO-LEVL
 70
0
 62
7
  6
Continuous
370
-3
390
13
347
21
  0
LAYER
  5
40
330
1
100
AcDbSymbolTableRecord
100
AcDbLayerTableRecord
  2
A-ANNO-SECT
 70
0
 62
7
  6
HIDDEN
370
-3
390
13
347
21
  0
ENDTAB
  0
TABLE
  2
STYLE
  5
5
330
0
100
AcDbSymbolTable
 70
1
  0
STYLE
  5
29
330
5
100
AcDbSymbolTableRecord
100
AcDbTextStyleTableRecord
  2
Standard
 70
0
 40
0.0
 41
1.0
 50
0.0
 71
0
 42
2.5
  3
txt
  4

  0
ENDTAB
  0
TABLE
  2
VIEW
  5
7
330
0
100
AcDbSymbolTable
 70
0
  0
ENDTAB
  0
TABLE
  2
UCS
  5
6
330
0
100
AcDbSymbolTable
 70
0
  0
ENDTAB
  0
TABLE
  2
APPID
  5
3
330
0
100
AcDbSymbolTable
 70
5
  0
APPID
  5
2A
330
3
100
AcDbSymbolTableRecord
100
AcDbRegAppTableRecord
  2
ACAD
 70
0
  0
APPID
  5
58
330
3
100
AcDbSymbolTableRecord
100
AcDbRegAppTableRecord
  2
BIMGUID
 70
0
  0
APPID
  5
59
330
3
100
AcDbSymbolTableRecord
100
AcDbRegAppTableRecord
  2
BIMSRC
 70
0
  0
APPID
  5
1A4
330
3
100
AcDbSymbolTableRecord
100
AcDbRegAppTableRecord
  2
HATCHBACKGROUNDCOLOR
 70
0
  0
APPID
  5
1A5
330
3
100
AcDbSymbolTableRecord
100
AcDbRegAppTableRecord
  2
EZDXF
 70
0
  0
ENDTAB
  0
TABLE
  2
DIMSTYLE
  5
4
330
0
100
AcDbSymbolTable
 70
2
100
AcDbDimStyleTable
  0
DIMSTYLE
105
2B
330
4
100
AcDbSymbolTableRecord
100
AcDbDimStyleTableRecord
  2
Standard
 70
0
 40
1.0
 41
2.5
 42
0.625
 43
3.75
 44
1.25
 45
0.0
 46
0.0
 47
0.0
 48
0.0
 49
2.5
140
2.5
141
2.5
142
0.0
143
0.03937007874
144
1.0
145
0.0
146
1.0
147
0.625
148
0.0
 69
0
 70
0
 71
0
 72
0
 73
0
 74
0
 75
0
 76
0
 77
1
 78
8
 79
3
170
0
171
3
172
1
173
0
174
0
175
0
176
0
177
0
178
0
179
2
271
2
272
2
273
2
274
3
275
0
276
0
277
2
278
44
279
0
280
0
281
0
282
0
283
0
284
8
285
0
286
0
288
0
289
3
290
0
371
-2
372
-2
  0
DIMSTYLE
105
45
330
4
100
AcDbSymbolTableRecord
100
AcDbDimStyleTableRecord
  2
ARCH_JKR
 70
0
 40
100.0
 41
2.5
 42
2.0
 43
3.75
 44
2.0
 45
0.0
 46
0.0
 47
0.0
 48
0.0
 49
2.5
140
2.5
141
2.5
142
0.0
143
0.03937007874
144
1.0
145
0.0
146
1.0
147
1.0
148
0.0
 69
0
 70
0
 71
0
 72
0
 73
0
 74
0
 75
0
 76
0
 77
1
 78
8
 79
3
170
0
171
3
172
1
173
0
174
0
175
0
176
0
177
0
178
0
179
2
271
2
272
2
273
2
274
3
275
0
276
0
277
2
278
44
279
0
280
0
281
0
282
0
283
0
284
8
285
0
286
0
288
0
289
3
290
0
342
41
371
-2
372
-2
  0
ENDTAB
  0
TABLE
  2
BLOCK_RECORD
  5
9
330
0
100
AcDbSymbolTable
 70
7
  0
BLOCK_RECORD
  5
17
330
9
100
AcDbSymbolTableRecord
100
AcDbBlockTableRecord
  2
*Model_Space
340
1A
 70
0
280
1
281
0
  0
BLOCK_RECORD
  5
1B
330
9
100
AcDbSymbolTableRecord
100
AcDbBlockTableRecord
  2
*Paper_Space
340
1E
 70
0
280
1
281
0
  0
BLOCK_RECORD
  5
41
330
9
100
AcDbSymbolTableRecord
100
AcDbBlockTableRecord
  2
_ARCHTICK
340
0
 70
0
280
1
281
0
  0
BLOCK_RECORD
  5
46
330
9
100
AcDbSymbolTableRecord
100
AcDbBlockTableRecord
  2
DOOR_TAG
340
0
 70
0
280
1
281
0
  0
BLOCK_RECORD
  5
4B
330
9
100
AcDbSymbolTableRecord
100
AcDbBlockTableRecord
  2
WINDOW_TAG
340
0
 70
0
280
1
281
0
  0
BLOCK_RECORD
  5
4F
330
9
100
AcDbSymbolTableRecord
100
AcDbBlockTableRecord
  2
SECTION_ARROW
340
0
 70
0
280
1
281
0
  0
BLOCK_RECORD
  5
53
330
9
100
AcDbSymbolTableRecord
100
AcDbBlockTableRecord
  2
ELEVATION_TAG
340
0
 70
0
280
1
281
0
  0
ENDTAB
  0
ENDSEC
  0
SECTION
  2
BLOCKS
  0
BLOCK
  5
18
330
17
100
AcDbEntity
  8
0
100
AcDbBlockBegin
  2
*Model_Space
 70
0
 10
0.0
 20
0.0
 30
0.0
  3
*Model_Space
  1

  0
ENDBLK
  5
19
330
17
100
AcDbEntity
  8
0
100
AcDbBlockEnd
  0
BLOCK
  5
1C
330
1B
100
AcDbEntity
  8
0
100
AcDbBlockBegin
  2
*Paper_Space
 70
0
 10
0.0
 20
0.0
 30
0.0
  3
*Paper_Space
  1

  0
ENDBLK
  5
1D
330
1B
100
AcDbEntity
  8
0
100
AcDbBlockEnd
  0
BLOCK
  5
42
330
41
100
AcDbEntity
  8
0
100
AcDbBlockBegin
  2
_ARCHTICK
 70
0
 10
0.0
 20
0.0
 30
0.0
  3
_ARCHTICK
  1

  0
LWPOLYLINE
  5
44
330
41
100
AcDbEntity
  8
0
  6
BYBLOCK
 62
0
100
AcDbPolyline
 90
2
 70
0
 43
0.15
 10
-0.5
 20
-0.5
 10
0.5
 20
0.5
  0
ENDBLK
  5
43
330
41
100
AcDbEntity
  8
0
100
AcDbBlockEnd
  0
BLOCK
  5
47
330
46
100
AcDbEntity
  8
0
100
AcDbBlockBegin
  2
DOOR_TAG
 70
0
 10
0.0
 20
0.0
 30
0.0
  3
DOOR_TAG
  1

  0
CIRCLE
  5
49
330
46
100
AcDbEntity
  8
0
370
25
100
AcDbCircle
 10
0.0
 20
0.0
 30
0.0
 40
1.0
  0
LINE
  5
4A
330
46
100
AcDbEntity
  8
0
370
25
100
AcDbLine
 10
-1.0
 20
0.0
 30
0.0
 11
1.0
 21
0.0
 31
0.0
  0
ENDBLK
  5
48
330
46
100
AcDbEntity
  8
0
100
AcDbBlockEnd
  0
BLOCK
  5
4C
330
4B
100
AcDbEntity
  8
0
100
AcDbBlockBegin
  2
WINDOW_TAG
 70
0
 10
0.0
 20
0.0
 30
0.0
  3
WINDOW_TAG
  1

  0
LWPOLYLINE
  5
4E
330
4B
100
AcDbEntity
  8
0
370
25
100
AcDbPolyline
 90
6
 70
1
 10
0.8660254037844387
 20
0.49999999999999994
 10
6.123233995736766e-17
 20
1.0
 10
-0.8660254037844387
 20
0.49999999999999994
 10
-0.8660254037844386
 20
-0.5000000000000001
 10
-1.8369701987210297e-16
 20
-1.0
 10
0.8660254037844384
 20
-0.5000000000000004
  0
ENDBLK
  5
4D
330
4B
100
AcDbEntity
  8
0
100
AcDbBlockEnd
  0
BLOCK
  5
50
330
4F
100
AcDbEntity
  8
0
100
AcDbBlockBegin
  2
SECTION_ARROW
 70
0
 10
0.0
 20
0.0
 30
0.0
  3
SECTION_ARROW
  1

  0
LWPOLYLINE
  5
52
330
4F
100
AcDbEntity
  8
0
370
25
100
AcDbPolyline
 90
3
 70
1
 10
-1.0
 20
0.0
 10
0.0
 20
1.414
 10
1.0
 20
0.0
  0
ENDBLK
  5
51
330
4F
100
AcDbEntity
  8
0
100
AcDbBlockEnd
  0
BLOCK
  5
54
330
53
100
AcDbEntity
  8
0
100
AcDbBlockBegin
  2
ELEVATION_TAG
 70
0
 10
0.0
 20
0.0
 30
0.0
  3
ELEVATION_TAG
  1

  0
CIRCLE
  5
56
330
53
100
AcDbEntity
  8
0
370
25
100
AcDbCircle
 10
0.0
 20
0.0
 30
0.0
 40
1.0
  0
LINE
  5
57
330
53
100
AcDbEntity
  8
0
370
25
100
AcDbLine
 10
-1.0
 20
0.0
 30
0.0
 11
1.0
 21
0.0
 31
0.0
  0
ENDBLK
  5
55
330
53
100
AcDbEntity
  8
0
100
AcDbBlockEnd
  0
ENDSEC
  0
SECTION
  2
ENTITIES
  0
LWPOLYLINE
  5
5A
330
17
100
AcDbEntity
  8
A-WALL-PRTN
370
35
100
AcDbPolyline
 90
9
 70
1
 10
-7719.849109649658
 20
4408.5822105407715
 10
-7719.849109649658
 20
4393.930768839529
 10
-7719.849109649658
 20
4378.582000732422
 10
-7734.5003184741345
 20
4378.582000732422
 10
-7749.84884262085
 20
4378.582000732422
 10
-7749.84884262085
 20
4393.930768839529
 10
-7749.84884262085
 20
4408.5822105407715
 10
-7735.295889262922
 20
4408.5822105407715
 10
-7719.849109649658
 20
4408.5822105407715
1001
BIMSRC
1000
type:wall
1000
ifc_class:IfcMember
1000
element_name:Curtain Wall:Curtain_Wall-Exterior_Glazing
1000
storey:Unknown
1000
pos_x
1040
-7.749849796295166
1000
pos_y
1040
4.378581523895264
  0
LWPOLYLINE
  5
5B
330
17
100
AcDbEntity
  8
A-WALL-PRTN
370
35
100
AcDbPolyline
 90
15
 70
1
 10
-7719.849109649658
 20
2511.886775728231
 10
-7719.849109649658
 20
2514.531982035887
 10
-7719.849109649658
 20
2517.1789558102864
 10
-7719.849109649658
 20
2519.827811870477
 10
-7719.849109649658
 20
2538.5820865631104
 10
-7731.094716973942
 20
2538.5820865631104
 10
-7749.84884262085
 20
2538.5820865631104
 10
-7749.84884262085
 20
2519.827811870477
 10
-7749.84884262085
 20
2517.1789558102864
 10
-7749.84884262085
 20
2514.531982035887
 10
-7749.84884262085
 20
2511.886775728231
 10
-7749.84884262085
 20
2510.2341467322935
 10
-7749.84884262085
 20
2508.58211517334
 10
-7738.625466563541
 20
2508.58211517334
 10
-7719.849109649658
 20
2508.58211517334
1001
BIMSRC
1000
type:wall
1000
ifc_class:IfcMember
1000
element_name:Curtain Wall:Curtain_Wall-Exterior_Glazing
1000
storey:Unknown
1000
pos_x
1040
-7.749849796295166
1000
pos_y
1040
2.5085816383361816
  0
LWPOLYLINE
  5
5C
330
17
100
AcDbEntity
  8
A-WALL-PRTN
370
35
100
AcDbPolyline
 90
16
 70
1
 10
-7719.849109649658
 20
646.0232694660808
 10
-7719.849109649658
 20
649.4224679764602
 10
-7719.849109649658
 20
650.8092561415582
 10
-7719.849109649658
 20
652.1957653192153
 10
-7719.849109649658
 20
653.581976890564
 10
-7738.901449900058
 20
653.581976890564
 10
-7749.84884262085
 20
653.581976890564
 10
-7749.84884262085
 20
652.1957653192153
 10
-7749.84884262085
 20
650.8092561415582
 10
-7749.84884262085
 20
649.4224679764602
 10
-7749.84884262085
 20
646.0232694660808
 10
-7749.84884262085
 20
642.6223262701284
 10
-7749.84884262085
 20
623.5820055007935
 10
-7738.889279099974
 20
623.5820055007935
 10
-7719.849109649658
 20
623.5820055007935
 10
-7719.849109649658
 20
642.6223262701284
1001
BIMSRC
1000
type:wall
1000
ifc_class:IfcMember
1000
element_name:Curtain Wall:Curtain_Wall-Exterior_Glazing
1000
storey:Unknown
1000
pos_x
1040
-7.749849796295166
1000
pos_y
1040
0.6235819458961487
  0
LWPOLYLINE
  5
5D
330
17
100
AcDbEntity
  8
A-WALL-PRTN
370
35
100
AcDbPolyline
 90
9
 70
1
 10
-7719.849109649658
 20
-1246.4179992675781
 10
-7719.849109649658
 20
-1233.244452311863
 10
-7719.849109649658
 20
-1216.4180278778076
 10
-7736.675400359179
 20
-1216.4180278778076
 10
-7749.84884262085
 20
-1216.4180278778076
 10
-7749.84884262085
 20
-1233.244452311863
 10
-7749.84884262085
 20
-1246.4179992675781
 10
-7732.933656214507
 20
-1246.4179992675781
 10
-7719.849109649658
 20
-1246.4179992675781
1001
BIMSRC
1000
type:wall
1000
ifc_class:IfcMember
1000
element_name:Curtain Wall:Curtain_Wall-Exterior_Glazing
1000
storey:Unknown
1000
pos_x
1040
-7.749849796295166
1000
pos_y
1040
-1.2464181184768677
  0
LWPOLYLINE
  5
5E
330
17
100
AcDbEntity
  8
A-WALL-PRTN
370
35
100
AcDbPolyline
 90
9
 70
1
 10
-7704.847812652588
 20
-1261.4179849624634
 10
-7717.932567192554
 20
-1261.4179849624634
 10
-7734.8480224609375
 20
-1261.4179849624634
 10
-7734.8480224609375
 20
-1248.3333344100556
 10
-7734.8480224609375
 20
-1231.4180135726929
 10
-7721.763267920971
 20
-1231.4180135726929
 10
-7704.847812652588
 20
-1231.4180135726929
 10
-7704.847812652588
 20
-1244.5026641251006
 10
-7704.847812652588
 20
-1261.4179849624634
1001
BIMSRC
1000
type:wall
1000
ifc_class:IfcMember
1000
element_name:Curtain Wall:Curtain_Wall-Exterior_Glazing
1000
storey:Unknown
1000
pos_x
1040
-7.7348480224609375
1000
pos_y
1040
-1.261418104171753
  0
LWPOLYLINE
  5
5F
330
17
100
AcDbEntity
  8
A-GLAZ
370
18
100
AcDbPolyline
 90
9
 70
1
 10
-6101.51481628418
 20
-1221.917986869812
 10
-6101.51481628418
 20
-1207.8218861720097
 10
-6101.51481628418
 20
-1196.91801071167
 10
-7022.460868460043
 20
-1196.91801071167
 10
-7734.8480224609375
 20
-1196.91801071167
 10
-7734.8480224609375
 20
-1211.0141114094722
 10
-7734.8480224609375
 20
-1221.917986869812
 10
-6813.901970285075
 20
-1221.917986869812
 10
-6101.51481628418
 20
-1221.917986869812
1001
BIMGUID
1000
MD_PLATE_UNKNOWN_1
1001
BIMSRC
1000
type:wall
1000
ifc_class:IfcPlate
1000
element_name:System Panel:Glazed
1000
storey:Unknown
1000
pos_x
1040
-7.7348480224609375
1000
pos_y
1040
-1.2219181060791016
  0
LWPOLYLINE
  5
60
330
17
100
AcDbEntity
  8
A-WALL-FULL
370
50
100
AcDbPolyline
 90
10
 70
1
 10
-6134.847640991211
 20
4408.5822105407715
 10
-6469.342453829502
 20
4408.5822105407715
 10
-7734.8480224609375
 20
4408.5822105407715
 10
-7734.8480224609375
 20
4561.2658685862225
 10
-7734.8480224609375
 20
4698.582172393799
 10
-6482.86997941201
 20
4698.582172393799
 10
-6194.063144376324
 20
4698.582172393799
 10
-6134.847640991211
 20
4698.582172393799
 10
-6134.847640991211
 20
4626.681369785301
 10
-6134.847640991211
 20
4408.5822105407715
1001
BIMGUID
1000
MD_WALL_GROUND_FLOOR_1
1001
BIMSRC
1000
type:wall
1000
ifc_class:IfcWall
1000
element_name:Basic Wall:Wall-Ext_102Bwk-75Ins-100LBlk-12P
1000
storey:Ground Floor
1000
pos_x
1040
-7.7348480224609375
1000
pos_y
1040
4.408581256866455
  0
LWPOLYLINE
  5
61
330
17
100
AcDbEntity
  8
A-WALL-PATT
370
50
100
AcDbPolyline
 90
10
 70
1
 10
-6134.847640991211
 20
4408.5822105407715
 10
-6469.342453829502
 20
4408.5822105407715
 10
-7734.8480224609375
 20
4408.5822105407715
 10
-7734.8480224609375
 20
4561.2658685862225
 10
-7734.8480224609375
 20
4698.582172393799
 10
-6482.86997941201
 20
4698.582172393799
 10
-6194.063144376324
 20
4698.582172393799
 10
-6134.847640991211
 20
4698.582172393799
 10
-6134.847640991211
 20
4626.681369785301
 10
-6134.847640991211
 20
4408.5822105407715
  0
HATCH
  5
62
330
17
100
AcDbEntity
  8
A-WALL-PATT
 62
0
100
AcDbHatch
 10
0.0
 20
0.0
 30
0.0
210
0.0
220
0.0
230
1.0
  2
BRICK
 70
0
 71
0
 91
1
 92
3
 72
0
 73
1
 93
10
 10
-6134.847640991211
 20
4408.5822105407715
 10
-6469.342453829502
 20
4408.5822105407715
 10
-7734.8480224609375
 20
4408.5822105407715
 10
-7734.8480224609375
 20
4561.2658685862225
 10
-7734.8480224609375
 20
4698.582172393799
 10
-6482.86997941201
 20
4698.582172393799
 10
-6194.063144376324
 20
4698.582172393799
 10
-6134.847640991211
 20
4698.582172393799
 10
-6134.847640991211
 20
4626.681369785301
 10
-6134.847640991211
 20
4408.5822105407715
 97
0
 75
1
 76
1
 52
0.0
 41
1.0
 77
0
 78
2
 53
45.0
 43
0.0
 44
0.0
 45
0.0
 46
3.0
 79
0
 53
45.0
 43
0.0
 44
1.0
 45
0.0
 46
3.0
 79
0
 98
0
  0
LWPOLYLINE
  5
63
330
17
100
AcDbEntity
  8
A-WALL-FULL
370
50
100
AcDbPolyline
 90
9
 70
1
 10
-2137.34769821167
 20
4408.5822105407715
 10
-2679.7029616437358
 20
4408.5822105407715
 10
-4324.84769821167
 20
4408.5822105407715
 10
-4324.84769821167
 20
4480.483013149269
 10
-4324.84769821167
 20
4698.582172393799
 10
-2679.7029616437358
 20
4698.582172393799
 10
-2137.34769821167
 20
4698.582172393799
 10
-2137.34769821167
 20
4626.681369785301
 10
-2137.34769821167
 20
4408.5822105407715
1001
BIMGUID
1000
MD_WALL_GROUND_FLOOR_1
1001
BIMSRC
1000
type:wall
1000
ifc_class:IfcWall
1000
element_name:Basic Wall:Wall-Ext_102Bwk-75Ins-100LBlk-12P
1000
storey:Ground Floor
1000
pos_x
1040
-7.7348480224609375
1000
pos_y
1040
4.408581256866455
  0
LWPOLYLINE
  5
64
330
17
100
AcDbEntity
  8
A-WALL-PATT
370
50
100
AcDbPolyline
 90
9
 70
1
 10
-2137.34769821167
 20
4408.5822105407715
 10
-2679.7029616437358
 20
4408.5822105407715
 10
-4324.84769821167
 20
4408.5822105407715
 10
-4324.84769821167
 20
4480.483013149269
 10
-4324.84769821167
 20
4698.582172393799
 10
-2679.7029616437358
 20
4698.582172393799
 10
-2137.34769821167
 20
4698.582172393799
 10
-2137.34769821167
 20
4626.681369785301
 10
-2137.34769821167
 20
4408.5822105407715
  0
HATCH
  5
65
330
17
100
AcDbEntity
  8
A-WALL-PATT
 62
0
100
AcDbHatch
 10
0.0
 20
0.0
 30
0.0
210
0.0
220
0.0
230
1.0
  2
BRICK
 70
0
 71
0
 91
1
 92
3
 72
0
 73
1
 93
9
 10
-2137.34769821167
 20
4408.5822105407715
 10
-2679.7029616437358
 20
4408.5822105407715
 10
-4324.84769821167
 20
4408.5822105407715
 10
-4324.84769821167
 20
4480.483013149269
 10
-4324.84769821167
 20
4698.582172393799
 10
-2679.7029616437358
 20
4698.582172393799
 10
-2137.34769821167
 20
4698.582172393799
 10
-2137.34769821167
 20
4626.681369785301
 10
-2137.34769821167
 20
4408.5822105407715
 97
0
 75
1
 76
1
 52
0.0
 41
1.0
 77
0
 78
2
 53
45.0
 43
0.0
 44
0.0
 45
0.0
 46
3.0
 79
0
 53
45.0
 43
0.0
 44
1.0
 45
0.0
 46
3.0
 79
0
 98
0
  0
LWPOLYLINE
  5
66
330
17
100
AcDbEntity
  8
A-WALL-FULL
370
50
100
AcDbPolyline
 90
9
 70
1
 10
494.8627860991817
 20
4698.582172393799
 10
2988.9020919799805
 20
4698.582172393799
 10
2988.9020919799805
 20
4626.681369785301
 10
2988.9020919799805
 20
4408.5822105407715
 10
2166.69155044867
 20
4408.5822105407715
 10
-327.3477554321289
 20
4408.5822105407715
 10
-327.3477554321289
 20
4480.483013149269
 10
-327.3477554321289
 20
4698.582172393799
 10
494.8627860991818
 20
4698.582172393799
1001
BIMGUID
1000
MD_WALL_GROUND_FLOOR_1
1001
BIMSRC
1000
type:wall
1000
ifc_class:IfcWall
1000
element_name:Basic Wall:Wall-Ext_102Bwk-75Ins-100LBlk-12P
1000
storey:Ground Floor
1000
pos_x
1040
-7.7348480224609375
1000
pos_y
1040
4.408581256866455
  0
LWPOLYLINE
  5
67
330
17
100
AcDbEntity
  8
A-WALL-PATT
370
50
100
AcDbPolyline
 90
9
 70
1
 10
494.8627860991817
 20
4698.582172393799
 10
2988.9020919799805
 20
4698.582172393799
 10
2988.9020919799805
 20
4626.681369785301
 10
2988.9020919799805
 20
4408.5822105407715
 10
2166.69155044867
 20
4408.5822105407715
 10
-327.3477554321289
 20
4408.5822105407715
 10
-327.3477554321289
 20
4480.483013149269
 10
-327.3477554321289
 20
4698.582172393799
 10
494.8627860991818
 20
4698.582172393799
  0
HATCH
  5
68
330
17
100
AcDbEntity
  8
A-WALL-PATT
 62
0
100
AcDbHatch
 10
0.0
 20
0.0
 30
0.0
210
0.0
220
0.0
230
1.0
  2
BRICK
 70
0
 71
0
 91
1
 92
3
 72
0
 73
1
 93
9
 10
494.8627860991817
 20
4698.582172393799
 10
2988.9020919799805
 20
4698.582172393799
 10
2988.9020919799805
 20
4626.681369785301
 10
2988.9020919799805
 20
4408.5822105407715
 10
2166.69155044867
 20
4408.5822105407715
 10
-327.3477554321289
 20
4408.5822105407715
 10
-327.3477554321289
 20
4480.483013149269
 10
-327.3477554321289
 20
4698.582172393799
 10
494.8627860991818
 20
4698.582172393799
 97
0
 75
1
 76
1
 52
0.0
 41
1.0
 77
0
 78
2
 53
45.0
 43
0.0
 44
0.0
 45
0.0
 46
3.0
 79
0
 53
45.0
 43
0.0
 44
1.0
 45
0.0
 46
3.0
 79
0
 98
0
  0
LWPOLYLINE
  5
69
330
17
100
AcDbEntity
  8
A-WALL-FULL
370
50
100
AcDbPolyline
 90
14
 70
1
 10
4798.9020347595215
 20
4480.483013149269
 10
4798.9020347595215
 20
4698.582172393799
 10
5149.371408812673
 20
4698.582172393799
 10
6410.152435302734
 20
4698.582172393799
 10
6410.152435302734
 20
4561.2658685862225
 10
6410.152435302734
 20
4482.473326599366
 10
6410.152435302734
 20
4463.452454602771
 10
6410.152435302734
 20
4444.803938970968
 10
6410.152435302734
 20
4426.51741203181
 10
6410.152435302734
 20
4408.5822105407715
 10
6318.931752618968
 20
4408.5822105407715
 10
5098.640706387977
 20
4408.5822105407715
 10
4798.9020347595215
 20
4408.5822105407715
 10
4798.9020347595215
 20
4480.483013149269
1001
BIMGUID
1000
MD_WALL_GROUND_FLOOR_1
1001
BIMSRC
1000
type:wall
1000
ifc_class:IfcWall
1000
element_name:Basic Wall:Wall-Ext_102Bwk-75Ins-100LBlk-12P
1000
storey:Ground Floor
1000
pos_x
1040
-7.7348480224609375
1000
pos_y
1040
4.408581256866455
  0
LWPOLYLINE
  5
6A
330
17
100
AcDbEntity
  8
A-WALL-PATT
370
50
100
AcDbPolyline
 90
14
 70
1
 10
4798.9020347595215
 20
4480.483013149269
 10
4798.9020347595215
 20
4698.582172393799
 10
5149.371408812673
 20
4698.582172393799
 10
6410.152435302734
 20
4698.582172393799
 10
6410.152435302734
 20
4561.2658685862225
 10
6410.152435302734
 20
4482.473326599366
 10
6410.152435302734
 20
4463.452454602771
 10
6410.152435302734
 20
4444.803938970968
 10
6410.152435302734
 20
4426.51741203181
 10
6410.152435302734
 20
4408.5822105407715
 10
6318.931752618968
 20
4408.5822105407715
 10
5098.640706387977
 20
4408.5822105407715
 10
4798.9020347595215
 20
4408.5822105407715
 10
4798.9020347595215
 20
4480.483013149269
  0
HATCH
  5
6B
330
17
100
AcDbEntity
  8
A-WALL-PATT
 62
0
100
AcDbHatch
 10
0.0
 20
0.0
 30
0.0
210
0.0
220
0.0
230
1.0
  2
BRICK
 70
0
 71
0
 91
1
 92
3
 72
0
 73
1
 93
14
 10
4798.9020347595215
 20
4480.483013149269
 10
4798.9020347595215
 20
4698.582172393799
 10
5149.371408812673
 20
4698.582172393799
 10
6410.152435302734
 20
4698.582172393799
 10
6410.152435302734
 20
4561.2658685862225
 10
6410.152435302734
 20
4482.473326599366
 10
6410.152435302734
 20
4463.452454602771
 10
6410.152435302734
 20
4444.803938970968
 10
6410.152435302734
 20
4426.51741203181
 10
6410.152435302734
 20
4408.5822105407715
 10
6318.931752618968
 20
4408.5822105407715
 10
5098.640706387977
 20
4408.5822105407715
 10
4798.9020347595215
 20
4408.5822105407715
 10
4798.9020347595215
 20
4480.483013149269
 97
0
 75
1
 76
1
 52
0.0
 41
1.0
 77
0
 78
2
 53
45.0
 43
0.0
 44
0.0
 45
0.0
 46
3.0
 79
0
 53
45.0
 43
0.0
 44
1.0
 45
0.0
 46
3.0
 79
0
 98
0
  0
LWPOLYLINE
  5
6C
330
17
100
AcDbEntity
  8
A-GLAZ
370
18
100
AcDbPolyline
 90
33
 70
1
 10
-7685.348987579346
 20
1003.5052596576973
 10
-7685.348987579346
 20
2213.225893115384
 10
-7685.348987579346
 20
2264.5563734939287
 10
-7685.348987579346
 20
2315.8588730328424
 10
-7685.348987579346
 20
2367.2703960975637
 10
-7685.348987579346
 20
2418.9309230878957
 10
-7685.348987579346
 20
2470.9846846684964
 10
-7685.348987579346
 20
2523.5819816589355
 10
-7694.622386496102
 20
2523.5819816589355
 10
-7710.349082946777
 20
2523.5819816589355
 10
-7710.349082946777
 20
2470.9846846684964
 10
-7710.349082946777
 20
2418.9309230878957
 10
-7710.349082946777
 20
2367.2703960975637
 10
-7710.349082946777
 20
2315.8588730328424
 10
-7710.349082946777
 20
2264.5563734939287
 10
-7710.349082946777
 20
2213.225893115384
 10
-7710.349082946777
 20
1003.5052596576973
 10
-7710.349082946777
 20
950.7401826133867
 10
-7710.349082946777
 20
898.4169098276775
 10
-7710.349082946777
 20
846.3958887103908
 10
-7710.349082946777
 20
794.5395053138018
 10
-7710.349082946777
 20
742.7106379624012
 10
-7710.349082946777
 20
690.7714750284011
 10
-7710.349082946777
 20
638.5819911956787
 10
-7701.304292871682
 20
638.5819911956787
 10
-7685.348987579346
 20
638.5819911956787
 10
-7685.348987579346
 20
690.7714750284011
 10
-7685.348987579346
 20
742.7106379624012
 10
-7685.348987579346
 20
794.5395053138018
 10
-7685.348987579346
 20
846.3958887103908
 10
-7685.348987579346
 20
898.4169098276775
 10
-7685.348987579346
 20
950.7401826133867
 10
-7685.348987579346
 20
1003.505259657697
1001
BIMGUID
1000
MD_PLATE_UNKNOWN_3
1001
BIMSRC
1000
type:wall
1000
ifc_class:IfcPlate
1000
element_name:System Panel:Glazed
1000
storey:Unknown
1000
pos_x
1040
-7.710349082946777
1000
pos_y
1040
0.6385819911956787
  0
LWPOLYLINE
  5
6D
330
17
100
AcDbEntity
  8
A-GLAZ
370
18
100
AcDbPolyline
 90
35
 70
1
 10
-7685.348987579346
 20
638.5819911956787
 10
-7701.304292871682
 20
638.5819911956787
 10
-7710.349082946777
 20
638.5819911956787
 10
-7710.349082946777
 20
587.6394415644808
 10
-7710.349082946777
 20
536.1919055517012
 10
-7710.349082946777
 20
484.0983652036363
 10
-7710.349082946777
 20
431.2103628355837
 10
-7710.349082946777
 20
377.37034920023274
 10
-7710.349082946777
 20
322.4096947146328
 10
-7710.349082946777
 20
266.14666253114575
 10
-7710.349082946777
 20
208.38390282584857
 10
-7710.349082946777
 20
148.90528801450432
 10
-7710.349082946777
 20
87.47292424676078
 10
-7710.349082946777
 20
23.822794434497084
 10
-7710.349082946777
 20
-42.33981600734449
 10
-7710.349082946777
 20
-1139.496431884099
 10
-7710.349082946777
 20
-1192.16040749117
 10
-7710.349082946777
 20
-1246.4179992675781
 10
-7696.252915033465
 20
-1246.4179992675781
 10
-7685.348987579346
 20
-1246.4179992675781
 10
-7685.348987579346
 20
-1192.16040749117
 10
-7685.348987579346
 20
-1139.496431884099
 10
-7685.348987579346
 20
-42.33981600734449
 10
-7685.348987579346
 20
23.822794434497084
 10
-7685.348987579346
 20
87.47292424676078
 10
-7685.348987579346
 20
148.90528801450432
 10
-7685.348987579346
 20
208.38390282584857
 10
-7685.348987579346
 20
266.14666253114575
 10
-7685.348987579346
 20
322.4096947146328
 10
-7685.348987579346
 20
377.37034920023274
 10
-7685.348987579346
 20
431.2103628355837
 10
-7685.348987579346
 20
484.0983652036363
 10
-7685.348987579346
 20
536.1919055517012
 10
-7685.348987579346
 20
587.6394415644808
 10
-7685.348987579346
 20
638.5819911956787
1001
BIMGUID
1000
MD_PLATE_UNKNOWN_2
1001
BIMSRC
1000
type:wall
1000
ifc_class:IfcPlate
1000
element_name:System Panel:Glazed
1000
storey:Unknown
1000
pos_x
1040
-7.710349082946777
1000
pos_y
1040
-1.2464181184768677
  0
LWPOLYLINE
  5
6E
330
17
100
AcDbEntity
  8
A-WALL-PRTN
370
35
100
AcDbPolyline
 90
25
 70
1
 10
-6605.848876228808
 20
410.85282169739367
 10
-6605.923646956154
 20
392.717287048393
 10
-6605.584936439222
 20
387.79939702049876
 10
-6605.019900617965
 20
381.742983418817
 10
-6604.082569543251
 20
373.3756785523649
 10
-6597.491763004689
 20
301.2399971485138
 10
-6605.821270726342
 20
301.2399971485138
 10
-6608.225369023089
 20
301.2399971485138
 10
-6615.150624697512
 20
374.7014051617956
 10
-6616.0484113460525
 20
382.53079253837103
 10
-6616.59334112836
 20
388.19723967186167
 10
-6616.924809434253
 20
392.7979405099369
 10
-6616.924906899025
 20
409.757238049527
 10
-6616.924906899025
 20
489.68053442499513
 10
-6616.5935427884415
 20
494.2811433985197
 10
-6616.048582735763
 20
499.9474249262309
 10
-6615.150624697512
 20
507.7785903273249
 10
-6608.225369023089
 20
581.2399983406067
 10
-6605.558357811343
 20
581.2399983406067
 10
-6596.336190152421
 20
581.2399983406067
 10
-6603.515319154904
 20
509.22988504164056
 10
-6604.525616458166
 20
500.8367876348807
 10
-6605.1425602304935
 20
494.7653260748827
 10
-6605.522763386742
 20
489.8366997640823
 10
-6605.848876228808
 20
410.85282169739367
1001
BIMSRC
1000
type:wall
1000
ifc_class:IfcFurniture
1000
element_name:Furniture:dining_chair_426x442x1227mm
1000
storey:Ground Floor
1000
pos_x
1040
-6.625977039337158
1000
pos_y
1040
0.2199709713459015
  0
LWPOLYLINE
  5
6F
330
17
100
AcDbEntity
  8
A-WALL-PRTN
370
35
100
AcDbPolyline
 90
11
 70
1
 10
-6593.7891947694625
 20
616.2400245666504
 10
-6594.77748775625
 20
616.2400245666504
 10
-6623.903702791051
 20
616.2400245666504
 10
-6623.903702791051
 20
615.202161294578
 10
-6623.903702791051
 20
581.2399983406067
 10
-6618.573540956167
 20
581.2399983406067
 10
-6614.273491944366
 20
581.2399983406067
 10
-6593.789115535369
 20
581.2399983406067
 10
-6593.789115535369
 20
604.2360431982232
 10
-6593.78912515289
 20
609.4933559891344
 10
-6593.7891947694625
 20
616.2400245666504
1001
BIMSRC
1000
type:wall
1000
ifc_class:IfcFurniture
1000
element_name:Furniture:dining_chair_426x442x1227mm
1000
storey:Ground Floor
1000
pos_x
1040
-6.625977039337158
1000
pos_y
1040
0.2199709713459015
  0
LWPOLYLINE
  5
70
330
17
100
AcDbEntity
  8
A-WALL-PRTN
370
35
100
AcDbPolyline
 90
11
 70
1
 10
-6623.903702791051
 20
301.2399971485138
 10
-6618.573540956167
 20
301.2399971485138
 10
-6614.273491944366
 20
301.2399971485138
 10
-6593.789115535369
 20
301.2399971485138
 10
-6593.789115535369
 20
278.24397187189817
 10
-6593.78912515289
 20
272.9866635575587
 10
-6593.7891947694625
 20
266.2400007247925
 10
-6594.77748775625
 20
266.2400007247925
 10
-6623.903702791051
 20
266.2400007247925
 10
-6623.903702791051
 20
267.27786311313025
 10
-6623.903702791051
 20
301.2399971485138
1001
BIMSRC
1000
type:wall
1000
ifc_class:IfcFurniture
1000
element_name:Furniture:dining_chair_426x442x1227mm
1000
storey:Ground Floor
1000
pos_x
1040
-6.625977039337158
1000
pos_y
1040
0.2199709713459015
  0
LWPOLYLINE
  5
71
330
17
100
AcDbEntity
  8
A-GLAZ
370
25
100
AcDbPolyline
 90
12
 70
1
 10
-6074.8491287231445
 20
4579.814456378531
 10
-6074.8491287231445
 20
4565.581798553467
 10
-6086.743388097958
 20
4565.581798553467
 10
-6134.849071502686
 20
4565.581798553467
 10
-6134.849071502686
 20
4630.750191470544
 10
-6134.849071502686
 20
4648.581981658936
 10
-6125.948274481491
 20
4648.581981658936
 10
-6094.849109649658
 20
4648.581981658936
 10
-6094.849109649658
 20
4634.66597938739
 10
-6094.849109649658
 20
4583.581924438477
 10
-6090.488488035149
 20
4583.581924438477
 10
-6074.8491287231445
 20
4583.581924438477
1001
BIMGUID
1000
MD_WINDOW_GROUND_FLOOR_1
1001
BIMSRC
1000
type:wall
1000
ifc_class:IfcWindow
1000
element_name:Windows_Sgl_Plain:1810x1210mm
1000
storey:Ground Floor
1000
pos_x
1040
-6.159849166870117
1000
pos_y
1040
4.383581638336182
  0
LWPOLYLINE
  5
72
330
17
100
AcDbEntity
  8
A-GLAZ
370
25
100
AcDbPolyline
 90
13
 70
1
 10
-4384.849071502686
 20
4583.581924438477
 10
-4369.209712190681
 20
4583.581924438477
 10
-4364.849090576172
 20
4583.581924438477
 10
-4364.849090576172
 20
4597.4979267100225
 10
-4364.849090576172
 20
4648.581981658936
 10
-4333.749925744339
 20
4648.581981658936
 10
-4324.8491287231445
 20
4648.581981658936
 10
-4324.8491287231445
 20
4630.750191470544
 10
-4324.8491287231445
 20
4565.581798553467
 10
-4372.954812127872
 20
4565.581798553467
 10
-4384.849071502686
 20
4565.581798553467
 10
-4384.849071502686
 20
4569.3492666134125
 10
-4384.849071502686
 20
4583.581924438477
1001
BIMGUID
1000
MD_WINDOW_GROUND_FLOOR_1
1001
BIMSRC
1000
type:wall
1000
ifc_class:IfcWindow
1000
element_name:Windows_Sgl_Plain:1810x1210mm
1000
storey:Ground Floor
1000
pos_x
1040
-6.159849166870117
1000
pos_y
1040
4.383581638336182
  0
LWPOLYLINE
  5
73
330
17
100
AcDbEntity
  8
A-GLAZ
370
25
100
AcDbPolyline
 90
36
 70
1
 10
-6074.8491287231445
 20
4579.814456378531
 10
-6074.8491287231445
 20
4583.581924438477
 10
-6064.99719619751
 20
4583.581924438477
 10
-6062.970341581951
 20
4586.476587495768
 10
-6054.849147796631
 20
4598.074913024902
 10
-6054.849147796631
 20
4609.799405662045
 10
-6054.849147796631
 20
4612.582206726074
 10
-6062.852806337779
 20
4612.582206726074
 10
-6064.848899841309
 20
4612.582206726074
 10
-4725.020807653932
 20
4612.582206726074
 10
-4394.848823547363
 20
4612.582206726074
 10
-4394.848823547363
 20
4631.836972444248
 10
-4394.848823547363
 20
4636.581897735596
 10
-5734.67691573474
 20
4636.581897735596
 10
-6064.848899841309
 20
4636.581897735596
 10
-6064.848899841309
 20
4617.327132017422
 10
-6064.848899841309
 20
4612.582206726074
 10
-6064.848899841309
 20
4631.836972444248
 10
-6064.848899841309
 20
4636.581897735596
 10
-6056.748811302245
 20
4636.581897735596
 10
-6054.849147796631
 20
4636.581897735596
 10
-6054.849147796631
 20
4650.946173917454
 10
-6054.849147796631
 20
4654.355525970459
 10
-6068.712785809473
 20
4658.943645170685
 10
-6072.29471206665
 20
4660.129070281982
 10
-6076.602684918072
 20
4660.129070281982
 10
-6094.064235687256
 20
4660.129070281982
 10
-6096.346496914671
 20
4658.90726283884
 10
-6104.848861694336
 20
4654.355525970459
 10
-6104.848861694336
 20
4649.847345900854
 10
-6104.848861694336
 20
4648.581981658936
 10
-6096.970811887992
 20
4648.581981658936
 10
-6094.849109649658
 20
4648.581981658936
 10
-6094.849109649658
 20
4597.4979267100225
 10
-6094.849109649658
 20
4583.581924438477
 10
-6070.738064873082
 20
4583.581924438477
1001
BIMGUID
1000
MD_WINDOW_GROUND_FLOOR_1
1001
BIMSRC
1000
type:wall
1000
ifc_class:IfcWindow
1000
element_name:Windows_Sgl_Plain:1810x1210mm
1000
storey:Ground Floor
1000
pos_x
1040
-6.159849166870117
1000
pos_y
1040
4.383581638336182
  0
LWPOLYLINE
  5
74
330
17
100
AcDbEntity
  8
A-GLAZ
370
25
100
AcDbPolyline
 90
26
 70
1
 10
-4370.378891437273
 20
4660.129070281982
 10
-4387.40348815918
 20
4660.129070281982
 10
-4390.985414416357
 20
4658.943645170685
 10
-4404.849052429199
 20
4654.355525970459
 10
-4404.849052429199
 20
4639.991249788601
 10
-4404.849052429199
 20
4636.581897735596
 10
-4396.845012234408
 20
4636.581897735596
 10
-4394.848823547363
 20
4636.581897735596
 10
-4394.848823547363
 20
4617.327132017422
 10
-4394.848823547363
 20
4612.582206726074
 10
-4402.949298338325
 20
4612.582206726074
 10
-4404.849052429199
 20
4612.582206726074
 10
-4404.849052429199
 20
4600.857714088932
 10
-4404.849052429199
 20
4598.074913024902
 10
-4396.727858643879
 20
4586.476587495768
 10
-4394.70100402832
 20
4583.581924438477
 10
-4388.960135352748
 20
4583.581924438477
 10
-4364.849090576172
 20
4583.581924438477
 10
-4364.849090576172
 20
4634.66597938739
 10
-4364.849090576172
 20
4648.581981658936
 10
-4357.060192590369
 20
4648.581981658936
 10
-4354.848861694336
 20
4648.581981658936
 10
-4354.848861694336
 20
4653.090161728541
 10
-4354.848861694336
 20
4654.355525970459
 10
-4363.351226474001
 20
4658.90726283884
 10
-4365.633487701416
 20
4660.129070281982
1001
BIMGUID
1000
MD_WINDOW_GROUND_FLOOR_1
1001
BIMSRC
1000
type:wall
1000
ifc_class:IfcWindow
1000
element_name:Windows_Sgl_Plain:1810x1210mm
1000
storey:Ground Floor
1000
pos_x
1040
-6.159849166870117
1000
pos_y
1040
4.383581638336182
  0
LWPOLYLINE
  5
75
330
17
100
AcDbEntity
  8
A-WALL-PRTN
370
35
100
AcDbPolyline
 90
9
 70
1
 10
-6086.5159034729
 20
-1231.4180135726929
 10
-6103.4313587412835
 20
-1231.4180135726929
 10
-6116.51611328125
 20
-1231.4180135726929
 10
-6116.51611328125
 20
-1248.3333344100556
 10
-6116.51611328125
 20
-1261.4179849624634
 10
-6099.600658012867
 20
-1261.4179849624634
 10
-6086.5159034729
 20
-1261.4179849624634
 10
-6086.5159034729
 20
-1244.5026641251006
 10
-6086.5159034729
 20
-1231.4180135726929
1001
BIMSRC
1000
type:wall
1000
ifc_class:IfcMember
1000
element_name:Curtain Wall:Curtain_Wall-Exterior_Glazing
1000
storey:Unknown
1000
pos_x
1040
-6.11651611328125
1000
pos_y
1040
-1.261418104171753
  0
LWPOLYLINE
  5
76
330
17
100
AcDbEntity
  8
A-WALL-PRTN
370
35
100
AcDbPolyline
 90
25
 70
1
 10
-5789.398482857147
 20
1138.077446652252
 10
-5807.534017493454
 20
1138.152198765432
 10
-5812.451909406
 20
1137.8135456291873
 10
-5818.50836585381
 20
1137.2484896758872
 10
-5826.875676881719
 20
1136.3111316293055
 10
-5899.011611938477
 20
1129.720141644977
 10
-5899.011611938477
 20
1138.049648066017
 10
-5899.011611938477
 20
1140.453772312322
 10
-5825.550015993888
 20
1147.379307721088
 10
-5817.720620562227
 20
1148.2770771810779
 10
-5812.054135706293
 20
1148.8220493955719
 10
-5807.453451941474
 20
1149.1535002750654
 10
-5790.494128262378
 20
1149.15359774021
 10
-5710.5710608992495
 20
1149.15359774021
 10
-5705.970504909986
 20
1148.8221757021126
 10
-5700.3042245707065
 20
1148.2772697877258
 10
-5692.472998074715
 20
1147.379307721088
 10
-5619.011402130127
 20
1140.453772312322
 10
-5619.011402130127
 20
1137.7867351920386
 10
-5619.011402130127
 20
1128.5645689731637
 10
-5691.021745801449
 20
1135.743881152479
 10
-5699.414854015372
 20
1136.7541827786065
 10
-5705.486332046125
 20
1137.3711291019413
 10
-5710.414956722432
 20
1137.7513337746893
 10
-5789.398482857147
 20
1138.077446652252
1001
BIMSRC
1000
type:wall
1000
ifc_class:IfcFurniture
1000
element_name:Furniture:dining_chair_442x426x1227mm
1000
storey:Ground Floor
1000
pos_x
1040
-5.980281829833984
1000
pos_y
1040
0.7312709093093872
  0
LWPOLYLINE
  5
77
330
17
100
AcDbEntity
  8
A-WALL-PRTN
370
35
100
AcDbPolyline
 90
11
 70
1
 10
-5584.011554718018
 20
1126.0174301147058
 10
-5584.011554718018
 20
1127.0057348352414
 10
-5584.011554718018
 20
1156.1320640352099
 10
-5585.049412687682
 20
1156.1320640352099
 10
-5619.011402130127
 20
1156.1320640352099
 10
-5619.011402130127
 20
1150.8019337943194
 10
-5619.011402130127
 20
1146.5018807049569
 10
-5619.011402130127
 20
1126.0174287359953
 10
-5596.015474758516
 20
1126.0174287359953
 10
-5590.758188827035
 20
1126.0174255199408
 10
-5584.011554718018
 20
1126.0174301147058
1001
BIMSRC
1000
type:wall
1000
ifc_class:IfcFurniture
1000
element_name:Furniture:dining_chair_442x426x1227mm
1000
storey:Ground Floor
1000
pos_x
1040
-5.980281829833984
1000
pos_y
1040
0.7312709093093872
  0
LWPOLYLINE
  5
78
330
17
100
AcDbEntity
  8
A-WALL-PRTN
370
35
100
AcDbPolyline
 90
11
 70
1
 10
-5899.011611938477
 20
1156.1320640352099
 10
-5899.011611938477
 20
1150.8019337943194
 10
-5899.011611938477
 20
1146.5018807049569
 10
-5899.011611938477
 20
1126.0174287359953
 10
-5922.007539310088
 20
1126.0174287359953
 10
-5927.264825241568
 20
1126.0174255199408
 10
-5934.011459350586
 20
1126.0174301147058
 10
-5934.011459350586
 20
1127.0057348352414
 10
-5934.011459350586
 20
1156.1320640352099
 10
-5932.9736013809215
 20
1156.1320640352099
 10
-5899.011611938477
 20
1156.1320640352099
1001
BIMSRC
1000
type:wall
1000
ifc_class:IfcFurniture
1000
element_name:Furniture:dining_chair_442x426x1227mm
1000
storey:Ground Floor
1000
pos_x
1040
-5.980281829833984
1000
pos_y
1040
0.7312709093093872
  0
LWPOLYLINE
  5
79
330
17
100
AcDbEntity
  8
A-WALL-PRTN
370
35
100
AcDbPolyline
 90
25
 70
1
 10
-5789.398482857147
 20
-261.1194592150833
 10
-5807.534017493454
 20
-261.19421133080255
 10
-5812.451909406
 20
-260.8555628506382
 10
-5818.50836585381
 20
-260.2905012297395
 10
-5826.875676881719
 20
-259.3531589652072
 10
-5899.011611938477
 20
-252.76212376260932
 10
-5899.011611938477
 20
-255.24839072676113
 10
-5899.011611938477
 20
-263.49578953377255
 10
-5825.550015993888
 20
-270.42132494253883
 10
-5817.720620562227
 20
-271.3190837944822
 10
-5812.054135706293
 20
-271.8640619072793
 10
-5807.453451941474
 20
-272.1955218531161
 10
-5790.494128262378
 20
-272.19561060515395
 10
-5710.5710608992495
 20
-272.19561060515395
 10
-5705.970504909986
 20
-271.86419763315973
 10
-5700.3042245707065
 20
-271.3192764015517
 10
-5692.472998074715
 20
-270.42132494253883
 10
-5619.011402130127
 20
-263.49578953377255
 10
-5619.011402130127
 20
-260.8287624414967
 10
-5619.011402130127
 20
-251.60655124869368
 10
-5691.021745801449
 20
-258.78588548432464
 10
-5699.414854015372
 20
-259.79618440866113
 10
-5705.486332046125
 20
-260.41312156768845
 10
-5710.414956722432
 20
-260.7933211938179
 10
-5789.398482857147
 20
-261.1194592150833
1001
BIMSRC
1000
type:wall
1000
ifc_class:IfcFurniture
1000
element_name:Furniture:dining_chair_442x426x1227mm
1000
storey:Ground Floor
1000
pos_x
1040
-5.980281829833984
1000
pos_y
1040
-0.28124701976776123
  0
LWPOLYLINE
  5
7A
330
17
100
AcDbEntity
  8
A-WALL-PRTN
370
35
100
AcDbPolyline
 90
11
 70
1
 10
-5584.011554718018
 20
-249.05947371268843
 10
-5584.011554718018
 20
-250.04778088095586
 10
-5584.011554718018
 20
-279.1740812566605
 10
-5617.973544160463
 20
-279.1740812566605
 10
-5619.011402130127
 20
-279.1740812566605
 10
-5619.011402130127
 20
-273.84395892804696
 10
-5619.011402130127
 20
-269.54391222187564
 10
-5619.011402130127
 20
-249.0594808704291
 10
-5596.015474758516
 20
-249.0594808704291
 10
-5590.758188827035
 20
-249.05947541608896
 10
-5584.011554718018
 20
-249.05947371268843
1001
BIMSRC
1000
type:wall
1000
ifc_class:IfcFurniture
1000
element_name:Furniture:dining_chair_442x426x1227mm
1000
storey:Ground Floor
1000
pos_x
1040
-5.980281829833984
1000
pos_y
1040
-0.28124701976776123
  0
LWPOLYLINE
  5
7B
330
17
100
AcDbEntity
  8
A-WALL-PRTN
370
35
100
AcDbPolyline
 90
10
 70
1
 10
-5899.011611938477
 20
-279.1740812566605
 10
-5899.011611938477
 20
-273.84395892804696
 10
-5899.011611938477
 20
-269.54391222187564
 10
-5899.011611938477
 20
-249.0594808704291
 10
-5922.007539310088
 20
-249.0594808704291
 10
-5927.264825241568
 20
-249.05947541608896
 10
-5934.011459350586
 20
-249.05947371268843
 10
-5934.011459350586
 20
-250.04778088095586
 10
-5934.011459350586
 20
-279.1740812566605
 10
-5900.049469908141
 20
-279.1740812566605
1001
BIMSRC
1000
type:wall
1000
ifc_class:IfcFurniture
1000
element_name:Furniture:dining_chair_442x426x1227mm
1000
storey:Ground Floor
1000
pos_x
1040
-5.980281829833984
1000
pos_y
1040
-0.28124701976776123
  0
LWPOLYLINE
  5
7C
330
17
100
AcDbEntity
  8
A-WALL-PRTN
370
35
100
AcDbPolyline
 90
25
 70
1
 10
-5028.624721946319
 20
1138.077446652252
 10
-5010.489187310013
 20
1138.152198765432
 10
-5005.571295397467
 20
1137.8135456291873
 10
-4999.514929631234
 20
1137.2484896758872
 10
-4991.147635809224
 20
1136.3111316293055
 10
-4919.012069702148
 20
1129.720141644977
 10
-4919.012069702148
 20
1132.206419303591
 10
-4919.012069702148
 20
1140.453772312322
 10
-4992.473289784124
 20
1147.379307721088
 10
-5000.302669105613
 20
1148.2770771810779
 10
-5005.969069097174
 20
1148.8220493955719
 10
-5010.5698225675915
 20
1149.1535002750654
 10
-5027.529076541089
 20
1149.15359774021
 10
-5107.452551037266
 20
1149.15359774021
 10
-5112.053176730639
 20
1148.8221757021126
 10
-5117.7194570699185
 20
1148.2772697877258
 10
-5125.550582591364
 20
1147.379307721088
 10
-5199.01180267334
 20
1140.453772312322
 10
-5199.01180267334
 20
1137.7867351920386
 10
-5199.01180267334
 20
1128.5645689731637
 10
-5127.001827597786
 20
1135.743881152479
 10
-5118.608736675325
 20
1136.7541827786065
 10
-5112.5373495945
 20
1137.3711291019413
 10
-5107.608650238294
 20
1137.7513337746893
 10
-5028.624721946319
 20
1138.077446652252
1001
BIMSRC
1000
type:wall
1000
ifc_class:IfcFurniture
1000
element_name:Furniture:dining_chair_442x426x1227mm
1000
storey:Ground Floor
1000
pos_x
1040
-5.280281066894531
1000
pos_y
1040
0.7312709093093872
  0
LWPOLYLINE
  5
7D
330
17
100
AcDbEntity
  8
A-WALL-PRTN
370
35
100
AcDbPolyline
 90
11
 70
1
 10
-5234.012126922607
 20
1126.0174301147058
 10
-5234.012126922607
 20
1127.0057348352414
 10
-5234.012126922607
 20
1156.1320640352099
 10
-5200.049674782758
 20
1156.1320640352099
 10
-5199.01180267334
 20
1156.1320640352099
 10
-5199.01180267334
 20
1150.8019337943194
 10
-5199.01180267334
 20
1146.5018807049569
 10
-5199.01180267334
 20
1126.0174287359953
 10
-5222.008043340964
 20
1126.0174287359953
 10
-5227.265400897594
 20
1126.0174255199408
 10
-5234.012126922607
 20
1126.0174301147058
1001
BIMSRC
1000
type:wall
1000
ifc_class:IfcFurniture
1000
element_name:Furniture:dining_chair_442x426x1227mm
1000
storey:Ground Floor
1000
pos_x
1040
-5.280281066894531
1000
pos_y
1040
0.7312709093093872
  0
LWPOLYLINE
  5
7E
330
17
100
AcDbEntity
  8
A-WALL-PRTN
370
35
100
AcDbPolyline
 90
10
 70
1
 10
-4919.012069702148
 20
1156.1320640352099
 10
-4919.012069702148
 20
1150.8019337943194
 10
-4919.012069702148
 20
1146.5018807049569
 10
-4919.012069702148
 20
1126.0174287359953
 10
-4896.016142330537
 20
1126.0174287359953
 10
-4890.758856399057
 20
1126.0174255199408
 10
-4884.012222290039
 20
1126.0174301147058
 10
-4884.012222290039
 20
1127.0057348352414
 10
-4884.012222290039
 20
1156.1320640352099
 10
-4917.974211732484
 20
1156.1320640352099
1001
BIMSRC
1000
type:wall
1000
ifc_class:IfcFurniture
1000
element_name:Furniture:dining_chair_442x426x1227mm
1000
storey:Ground Floor
1000
pos_x
1040
-5.280281066894531
1000
pos_y
1040
0.7312709093093872
  0
LWPOLYLINE
  5
7F
330
17
100
AcDbEntity
  8
A-WALL-PRTN
370
35
100
AcDbPolyline
 90
25
 70
1
 10
-5028.624721946319
 20
-261.1194592150833
 10
-5010.489187310013
 20
-261.19421133080255
 10
-5005.571295397467
 20
-260.8555628506382
 10
-4999.514929631234
 20
-260.2905012297395
 10
-4991.147635809224
 20
-259.3531589652072
 10
-4919.012069702148
 20
-252.76212376260932
 10
-4919.012069702148
 20
-261.0916753000924
 10
-4919.012069702148
 20
-263.49578953377255
 10
-4992.473289784124
 20
-270.42132494253883
 10
-5000.302669105613
 20
-271.3190837944822
 10
-5005.969069097174
 20
-271.8640619072793
 10
-5010.5698225675915
 20
-272.1955218531161
 10
-5027.529076541089
 20
-272.19561060515395
 10
-5107.452551037266
 20
-272.19561060515395
 10
-5112.053176730639
 20
-271.86419763315973
 10
-5117.7194570699185
 20
-271.3192764015517
 10
-5125.550582591364
 20
-270.42132494253883
 10
-5199.01180267334
 20
-263.49578953377255
 10
-5199.01180267334
 20
-260.8287624414967
 10
-5199.01180267334
 20
-251.60655124869368
 10
-5127.001827597786
 20
-258.78588548432464
 10
-5118.608736675325
 20
-259.79618440866113
 10
-5112.5373495945
 20
-260.41312156768845
 10
-5107.608650238294
 20
-260.7933211938179
 10
-5028.624721946319
 20
-261.1194592150833
1001
BIMSRC
1000
type:wall
1000
ifc_class:IfcFurniture
1000
element_name:Furniture:dining_chair_442x426x1227mm
1000
storey:Ground Floor
1000
pos_x
1040
-5.280281066894531
1000
pos_y
1040
-0.28124701976776123
  0
LWPOLYLINE
  5
80
330
17
100
AcDbEntity
  8
A-WALL-PRTN
370
35
100
AcDbPolyline
 90
11
 70
1
 10
-5234.012126922607
 20
-249.05947371268843
 10
-5234.012126922607
 20
-250.04778088095586
 10
-5234.012126922607
 20
-279.1740812566605
 10
-5232.974254813189
 20
-279.1740812566605
 10
-5199.01180267334
 20
-279.1740812566605
 10
-5199.01180267334
 20
-273.84395892804696
 10
-5199.01180267334
 20
-269.54391222187564
 10
-5199.01180267334
 20
-249.0594808704291
 10
-5222.008043340964
 20
-249.0594808704291
 10
-5227.265400897594
 20
-249.05947541608896
 10
-5234.012126922607
 20
-249.05947371268843
1001
BIMSRC
1000
type:wall
1000
ifc_class:IfcFurniture
1000
element_name:Furniture:dining_chair_442x426x1227mm
1000
storey:Ground Floor
1000
pos_x
1040
-5.280281066894531
1000
pos_y
1040
-0.28124701976776123
  0
LWPOLYLINE
  5
81
330
17
100
AcDbEntity
  8
A-WALL-PRTN
370
35
100
AcDbPolyline
 90
11
 70
1
 10
-4919.012069702148
 20
-279.1740812566605
 10
-4919.012069702148
 20
-273.84395892804696
 10
-4919.012069702148
 20
-269.54391222187564
 10
-4919.012069702148
 20
-249.0594808704291
 10
-4896.016142330537
 20
-249.0594808704291
 10
-4890.758856399057
 20
-249.05947541608896
 10
-4884.012222290039
 20
-249.05947371268843
 10
-4884.012222290039
 20
-250.04778088095586
 10
-4884.012222290039
 20
-279.1740812566605
 10
-4885.0500802597035
 20
-279.1740812566605
 10
-4919.012069702148
 20
-279.1740812566605
1001
BIMSRC
1000
type:wall
1000
ifc_class:IfcFurniture
1000
element_name:Furniture:dining_chair_442x426x1227mm
1000
storey:Ground Floor
1000
pos_x
1040
-5.280281066894531
1000
pos_y
1040
-0.28124701976776123
  0
LWPOLYLINE
  5
82
330
17
100
AcDbEntity
  8
A-WALL-PRTN
370
35
100
AcDbPolyline
 90
25
 70
1
 10
-4214.507993889953
 20
373.25011044748
 10
-4213.497679295228
 20
381.6432021698693
 10
-4212.8807253188725
 20
387.71466436761904
 10
-4212.500516096624
 20
392.6432957250382
 10
-4212.174403112571
 20
471.6271737917268
 10
-4212.099632344601
 20
489.76270844072747
 10
-4212.438268364245
 20
494.6805984686217
 10
-4213.003304185502
 20
500.737017737902
 10
-4213.94074314769
 20
509.1043169367556
 10
-4220.531918635936
 20
581.2399983406067
 10
-4212.202410914283
 20
581.2399983406067
 10
-4209.798207317758
 20
581.2399983406067
 10
-4202.8725801059545
 20
507.7785903273249
 10
-4201.974878321787
 20
499.94920295074945
 10
-4201.429863675106
 20
494.2827605270022
 10
-4201.098395369214
 20
489.6820549791836
 10
-4201.098297904442
 20
472.72275743959347
 10
-4201.098297904442
 20
392.79946106412535
 10
-4201.429737368566
 20
388.1988568001971
 10
-4201.974706928703
 20
382.5325705628896
 10
-4202.8725801059545
 20
374.7014051617956
 10
-4209.798207317758
 20
301.2399971485138
 10
-4212.465323829282
 20
301.2399971485138
 10
-4221.687491488204
 20
301.2399971485138
 10
-4214.507993889953
 20
373.2501104474799
1001
BIMSRC
1000
type:wall
1000
ifc_class:IfcFurniture
1000
element_name:Furniture:dining_chair_426x442x1227mm
1000
storey:Ground Floor
1000
pos_x
1040
-4.61898136138916
1000
pos_y
1040
0.2199709713459015
  0
LWPOLYLINE
  5
83
330
17
100
AcDbEntity
  8
A-WALL-PRTN
370
35
100
AcDbPolyline
 90
11
 70
1
 10
-4224.2344868711625
 20
266.2400007247925
 10
-4223.246178235438
 20
266.2400007247925
 10
-4194.11996470982
 20
266.2400007247925
 10
-4194.11996470982
 20
267.27786311313025
 10
-4194.11996470982
 20
301.2399971485138
 10
-4199.45005628684
 20
301.2399971485138
 10
-4203.750189696259
 20
301.2399971485138
 10
-4224.234566105256
 20
301.2399971485138
 10
-4224.234566105256
 20
278.24397187189817
 10
-4224.2344645717385
 20
272.9866635575587
 10
-4224.2344868711625
 20
266.2400007247925
1001
BIMSRC
1000
type:wall
1000
ifc_class:IfcFurniture
1000
element_name:Furniture:dining_chair_426x442x1227mm
1000
storey:Ground Floor
1000
pos_x
1040
-4.61898136138916
1000
pos_y
1040
0.2199709713459015
  0
LWPOLYLINE
  5
84
330
17
100
AcDbEntity
  8
A-WALL-PRTN
370
35
100
AcDbPolyline
 90
11
 70
1
 10
-4194.11996470982
 20
581.2399983406067
 10
-4199.45005628684
 20
581.2399983406067
 10
-4203.750189696259
 20
581.2399983406067
 10
-4224.234566105256
 20
581.2399983406067
 10
-4224.234566105256
 20
604.2360431982232
 10
-4224.2344645717385
 20
609.4933559891344
 10
-4224.2344868711625
 20
616.2400245666504
 10
-4223.246178235438
 20
616.2400245666504
 10
-4194.11996470982
 20
616.2400245666504
 10
-4194.11996470982
 20
615.202161294578
 10
-4194.11996470982
 20
581.2399983406067
1001
BIMSRC
1000
type:wall
1000
ifc_class:IfcFurniture
1000
element_name:Furniture:dining_chair_426x442x1227mm
1000
storey:Ground Floor
1000
pos_x
1040
-4.61898136138916
1000
pos_y
1040
0.2199709713459015
  0
LWPOLYLINE
  5
85
330
17
100
AcDbEntity
  8
A-WALL-PRTN
370
35
100
AcDbPolyline
 90
9
 70
1
 10
-4453.182220458984
 20
-1231.4180135726929
 10
-4470.097406865327
 20
-1231.4180135726929
 10
-4483.181953430176
 20
-1231.4180135726929
 10
-4483.181953430176
 20
-1248.3333344100556
 10
-4483.181953430176
 20
-1261.4179849624634
 10
-4466.266767023833
 20
-1261.4179849624634
 10
-4453.182220458984
 20
-1261.4179849624634
 10
-4453.182220458984
 20
-1244.5026641251006
 10
-4453.182220458984
 20
-1231.4180135726929
1001
BIMSRC
1000
type:wall
1000
ifc_class:IfcMember
1000
element_name:Curtain Wall:Curtain_Wall-Exterior_Glazing
1000
storey:Unknown
1000
pos_x
1040
-4.483182430267334
1000
pos_y
1040
-1.261418104171753
  0
LWPOLYLINE
  5
86
330
17
100
AcDbEntity
  8
A-GLAZ
370
18
100
AcDbPolyline
 90
35
 70
1
 10
-7685.348987579346
 20
2576.9477447956333
 10
-7685.348987579346
 20
2631.18530602952
 10
-7685.348987579346
 20
2686.4747018296903
 10
-7685.348987579346
 20
2743.0107676205303
 10
-7685.348987579346
 20
2801.005612605678
 10
-7685.348987579346
 20
2860.6919626321005
 10
-7685.348987579346
 20
2922.32757135643
 10
-7685.348987579346
 20
2986.1997215900765
 10
-7685.348987579346
 20
3052.6311623857237
 10
-7685.348987579346
 20
3121.987322357128
 10
-7685.348987579346
 20
3194.6847097579007
 10
-7685.348987579346
 20
3271.2016465936636
 10
-7685.348987579346
 20
3352.0917650236156
 10
-7685.348987579346
 20
4349.9420540024485
 10
-7685.348987579346
 20
4408.5822105407715
 10
-7698.221467605155
 20
4408.5822105407715
 10
-7710.349082946777
 20
4408.5822105407715
 10
-7710.349082946777
 20
4349.9420540024485
 10
-7710.349082946777
 20
3352.0917650236156
 10
-7710.349082946777
 20
3271.2016465936636
 10
-7710.349082946777
 20
3194.6847097579007
 10
-7710.349082946777
 20
3121.987322357128
 10
-7710.349082946777
 20
3052.6311623857237
 10
-7710.349082946777
 20
2986.1997215900765
 10
-7710.349082946777
 20
2922.32757135643
 10
-7710.349082946777
 20
2860.6919626321005
 10
-7710.349082946777
 20
2801.005612605678
 10
-7710.349082946777
 20
2743.0107676205303
 10
-7710.349082946777
 20
2686.4747018296903
 10
-7710.349082946777
 20
2631.18530602952
 10
-7710.349082946777
 20
2576.9477447956333
 10
-7710.349082946777
 20
2523.5819816589355
 10
-7701.075684030021
 20
2523.5819816589355
 10
-7685.348987579346
 20
2523.5819816589355
 10
-7685.348987579346
 20
2576.9477447956333
1001
BIMGUID
1000
MD_PLATE_UNKNOWN_4
1001
BIMSRC
1000
type:wall
1000
ifc_class:IfcPlate
1000
element_name:System Panel:Glazed
1000
storey:Unknown
1000
pos_x
1040
-7.710349082946777
1000
pos_y
1040
2.5235819816589355
  0
LWPOLYLINE
  5
87
330
17
100
AcDbEntity
  8
A-GLAZ
370
18
100
AcDbPolyline
 90
9
 70
1
 10
-4468.181610107422
 20
-1221.917986869812
 10
-4468.181610107422
 20
-1207.8218861720097
 10
-4468.181610107422
 20
-1196.91801071167
 10
-5389.127662283285
 20
-1196.91801071167
 10
-6101.51481628418
 20
-1196.91801071167
 10
-6101.51481628418
 20
-1211.0141114094722
 10
-6101.51481628418
 20
-1221.917986869812
 10
-5180.568764108317
 20
-1221.917986869812
 10
-4468.181610107422
 20
-1221.917986869812
1001
BIMGUID
1000
MD_PLATE_UNKNOWN_5
1001
BIMSRC
1000
type:wall
1000
ifc_class:IfcPlate
1000
element_name:System Panel:Glazed
1000
storey:Unknown
1000
pos_x
1040
-6.101515769958496
1000
pos_y
1040
-1.2219181060791016
  0
LWPOLYLINE
  5
88
330
17
100
AcDbEntity
  8
A-GLAZ
370
18
100
AcDbPolyline
 90
9
 70
1
 10
-2834.8495960235596
 20
-1221.917986869812
 10
-2834.8495960235596
 20
-1207.8218861720097
 10
-2834.8495960235596
 20
-1196.91801071167
 10
-3755.7957826304423
 20
-1196.91801071167
 10
-4468.1830406188965
 20
-1196.91801071167
 10
-4468.1830406188965
 20
-1211.0141114094722
 10
-4468.1830406188965
 20
-1221.917986869812
 10
-3547.2368540120137
 20
-1221.917986869812
 10
-2834.8495960235596
 20
-1221.917986869812
1001
BIMGUID
1000
MD_PLATE_UNKNOWN_6
1001
BIMSRC
1000
type:wall
1000
ifc_class:IfcPlate
1000
element_name:System Panel:Glazed
1000
storey:Unknown
1000
pos_x
1040
-4.4681830406188965
1000
pos_y
1040
-1.2219181060791016
  0
LWPOLYLINE
  5
89
330
17
100
AcDbEntity
  8
A-WALL-PRTN
370
35
100
AcDbPolyline
 90
9
 70
1
 10
-2834.8491191864014
 20
-1231.4180135726929
 10
-2851.7644400237637
 20
-1231.4180135726929
 10
-2864.849090576172
 20
-1231.4180135726929
 10
-2864.849090576172
 20
-1248.3333344100556
 10
-2864.849090576172
 20
-1261.4179849624634
 10
-2847.9337697388096
 20
-1261.4179849624634
 10
-2834.8491191864014
 20
-1261.4179849624634
 10
-2834.8491191864014
 20
-1244.5026641251006
 10
-2834.8491191864014
 20
-1231.4180135726929
1001
BIMSRC
1000
type:wall
1000
ifc_class:IfcMember
1000
element_name:Curtain Wall:Curtain_Wall-Exterior_Glazing
1000
storey:Unknown
1000
pos_x
1040
-2.864849090576172
1000
pos_y
1040
-1.261418104171753
  0
LWPOLYLINE
  5
8A
330
17
100
AcDbEntity
  8
A-WALL-FULL
370
50
100
AcDbPolyline
 90
10
 70
1
 10
4798.901081085205
 20
-1226.4891023726454
 10
4798.901081085205
 20
-1101.4180183410645
 10
5368.729311233015
 20
-1101.4180183410645
 10
6120.151042938232
 20
-1101.4180183410645
 10
6120.151042938232
 20
-1159.2338387153866
 10
6120.151042938232
 20
-1300.197420038073
 10
6120.151042938232
 20
-1391.4179801940918
 10
5368.729311233015
 20
-1391.4179801940918
 10
4798.901081085205
 20
-1391.4179801940918
 10
4798.901081085205
 20
-1226.4891023726454
1001
BIMGUID
1000
MD_WALL_GROUND_FLOOR_2
1001
BIMSRC
1000
type:wall
1000
ifc_class:IfcWall
1000
element_name:Basic Wall:Wall-Ext_102Bwk-75Ins-100LBlk-12P
1000
storey:Ground Floor
1000
pos_x
1040
-2.8348491191864014
1000
pos_y
1040
-1.391418218612671
  0
LWPOLYLINE
  5
8B
330
17
100
AcDbEntity
  8
A-WALL-PATT
370
50
100
AcDbPolyline
 90
10
 70
1
 10
4798.901081085205
 20
-1226.4891023726454
 10
4798.901081085205
 20
-1101.4180183410645
 10
5368.729311233015
 20
-1101.4180183410645
 10
6120.151042938232
 20
-1101.4180183410645
 10
6120.151042938232
 20
-1159.2338387153866
 10
6120.151042938232
 20
-1300.197420038073
 10
6120.151042938232
 20
-1391.4179801940918
 10
5368.729311233015
 20
-1391.4179801940918
 10
4798.901081085205
 20
-1391.4179801940918
 10
4798.901081085205
 20
-1226.4891023726454
  0
HATCH
  5
8C
330
17
100
AcDbEntity
  8
A-WALL-PATT
 62
0
100
AcDbHatch
 10
0.0
 20
0.0
 30
0.0
210
0.0
220
0.0
230
1.0
  2
BRICK
 70
0
 71
0
 91
1
 92
3
 72
0
 73
1
 93
10
 10
4798.901081085205
 20
-1226.4891023726454
 10
4798.901081085205
 20
-1101.4180183410645
 10
5368.729311233015
 20
-1101.4180183410645
 10
6120.151042938232
 20
-1101.4180183410645
 10
6120.151042938232
 20
-1159.2338387153866
 10
6120.151042938232
 20
-1300.197420038073
 10
6120.151042938232
 20
-1391.4179801940918
 10
5368.729311233015
 20
-1391.4179801940918
 10
4798.901081085205
 20
-1391.4179801940918
 10
4798.901081085205
 20
-1226.4891023726454
 97
0
 75
1
 76
1
 52
0.0
 41
1.0
 77
0
 78
2
 53
45.0
 43
0.0
 44
0.0
 45
0.0
 46
3.0
 79
0
 53
45.0
 43
0.0
 44
1.0
 45
0.0
 46
3.0
 79
0
 98
0
  0
LWPOLYLINE
  5
8D
330
17
100
AcDbEntity
  8
A-WALL-FULL
370
50
100
AcDbPolyline
 90
10
 70
1
 10
947.0413256799827
 20
-1391.4179801940918
 10
588.5364185662143
 20
-1391.4179801940918
 10
273.90098571777344
 20
-1391.4179801940918
 10
273.90098571777344
 20
-1319.5171775855945
 10
273.90098571777344
 20
-1101.4180183410645
 10
947.0413256799826
 20
-1101.4180183410645
 10
2988.900899887085
 20
-1101.4180183410645
 10
2988.900899887085
 20
-1266.3468961625108
 10
2988.900899887085
 20
-1391.4179801940918
 10
947.0413256799826
 20
-1391.4179801940918
1001
BIMGUID
1000
MD_WALL_GROUND_FLOOR_2
1001
BIMSRC
1000
type:wall
1000
ifc_class:IfcWall
1000
element_name:Basic Wall:Wall-Ext_102Bwk-75Ins-100LBlk-12P
1000
storey:Ground Floor
1000
pos_x
1040
-2.8348491191864014
1000
pos_y
1040
-1.391418218612671
  0
LWPOLYLINE
  5
8E
330
17
100
AcDbEntity
  8
A-WALL-PATT
370
50
100
AcDbPolyline
 90
10
 70
1
 10
947.0413256799827
 20
-1391.4179801940918
 10
588.5364185662143
 20
-1391.4179801940918
 10
273.90098571777344
 20
-1391.4179801940918
 10
273.90098571777344
 20
-1319.5171775855945
 10
273.90098571777344
 20
-1101.4180183410645
 10
947.0413256799826
 20
-1101.4180183410645
 10
2988.900899887085
 20
-1101.4180183410645
 10
2988.900899887085
 20
-1266.3468961625108
 10
2988.900899887085
 20
-1391.4179801940918
 10
947.0413256799826
 20
-1391.4179801940918
  0
HATCH
  5
8F
330
17
100
AcDbEntity
  8
A-WALL-PATT
 62
0
100
AcDbHatch
 10
0.0
 20
0.0
 30
0.0
210
0.0
220
0.0
230
1.0
  2
BRICK
 70
0
 71
0
 91
1
 92
3
 72
0
 73
1
 93
10
 10
947.0413256799827
 20
-1391.4179801940918
 10
588.5364185662143
 20
-1391.4179801940918
 10
273.90098571777344
 20
-1391.4179801940918
 10
273.90098571777344
 20
-1319.5171775855945
 10
273.90098571777344
 20
-1101.4180183410645
 10
947.0413256799826
 20
-1101.4180183410645
 10
2988.900899887085
 20
-1101.4180183410645
 10
2988.900899887085
 20
-1266.3468961625108
 10
2988.900899887085
 20
-1391.4179801940918
 10
947.0413256799826
 20
-1391.4179801940918
 97
0
 75
1
 76
1
 52
0.0
 41
1.0
 77
0
 78
2
 53
45.0
 43
0.0
 44
0.0
 45
0.0
 46
3.0
 79
0
 53
45.0
 43
0.0
 44
1.0
 45
0.0
 46
3.0
 79
0
 98
0
  0
LWPOLYLINE
  5
90
330
17
100
AcDbEntity
  8
A-WALL-FULL
370
50
100
AcDbPolyline
 90
10
 70
1
 10
-1755.4258144827288
 20
-1391.4179801940918
 10
-2834.8491191864014
 20
-1391.4179801940918
 10
-2834.8491191864014
 20
-1300.197420038073
 10
-2834.8491191864014
 20
-1159.2338387153866
 10
-2834.8491191864014
 20
-1101.4180183410645
 10
-1807.614731867112
 20
-1101.4180183410645
 10
-1536.0990762710571
 20
-1101.4180183410645
 10
-1536.0990762710571
 20
-1173.3188209495618
 10
-1536.0990762710571
 20
-1391.4179801940918
 10
-1755.4258144827286
 20
-1391.4179801940918
1001
BIMGUID
1000
MD_WALL_GROUND_FLOOR_2
1001
BIMSRC
1000
type:wall
1000
ifc_class:IfcWall
1000
element_name:Basic Wall:Wall-Ext_102Bwk-75Ins-100LBlk-12P
1000
storey:Ground Floor
1000
pos_x
1040
-2.8348491191864014
1000
pos_y
1040
-1.391418218612671
  0
LWPOLYLINE
  5
91
330
17
100
AcDbEntity
  8
A-WALL-PATT
370
50
100
AcDbPolyline
 90
10
 70
1
 10
-1755.4258144827288
 20
-1391.4179801940918
 10
-2834.8491191864014
 20
-1391.4179801940918
 10
-2834.8491191864014
 20
-1300.197420038073
 10
-2834.8491191864014
 20
-1159.2338387153866
 10
-2834.8491191864014
 20
-1101.4180183410645
 10
-1807.614731867112
 20
-1101.4180183410645
 10
-1536.0990762710571
 20
-1101.4180183410645
 10
-1536.0990762710571
 20
-1173.3188209495618
 10
-1536.0990762710571
 20
-1391.4179801940918
 10
-1755.4258144827286
 20
-1391.4179801940918
  0
HATCH
  5
92
330
17
100
AcDbEntity
  8
A-WALL-PATT
 62
0
100
AcDbHatch
 10
0.0
 20
0.0
 30
0.0
210
0.0
220
0.0
230
1.0
  2
BRICK
 70
0
 71
0
 91
1
 92
3
 72
0
 73
1
 93
10
 10
-1755.4258144827288
 20
-1391.4179801940918
 10
-2834.8491191864014
 20
-1391.4179801940918
 10
-2834.8491191864014
 20
-1300.197420038073
 10
-2834.8491191864014
 20
-1159.2338387153866
 10
-2834.8491191864014
 20
-1101.4180183410645
 10
-1807.614731867112
 20
-1101.4180183410645
 10
-1536.0990762710571
 20
-1101.4180183410645
 10
-1536.0990762710571
 20
-1173.3188209495618
 10
-1536.0990762710571
 20
-1391.4179801940918
 10
-1755.4258144827286
 20
-1391.4179801940918
 97
0
 75
1
 76
1
 52
0.0
 41
1.0
 77
0
 78
2
 53
45.0
 43
0.0
 44
0.0
 45
0.0
 46
3.0
 79
0
 53
45.0
 43
0.0
 44
1.0
 45
0.0
 46
3.0
 79
0
 98
0
  0
LWPOLYLINE
  5
93
330
17
100
AcDbEntity
  8
A-GLAZ
370
25
100
AcDbPolyline
 90
12
 70
1
 10
-2077.3489475250244
 20
4579.814456378531
 10
-2077.3489475250244
 20
4565.581798553467
 10
-2089.2432068998373
 20
4565.581798553467
 10
-2137.3488903045654
 20
4565.581798553467
 10
-2137.3488903045654
 20
4630.750191470544
 10
-2137.3488903045654
 20
4648.581981658936
 10
-2128.448093283371
 20
4648.581981658936
 10
-2097.348928451538
 20
4648.581981658936
 10
-2097.348928451538
 20
4634.66597938739
 10
-2097.348928451538
 20
4583.581924438477
 10
-2092.9883068370286
 20
4583.581924438477
 10
-2077.3489475250244
 20
4583.581924438477
1001
BIMGUID
1000
MD_WINDOW_GROUND_FLOOR_2
1001
BIMSRC
1000
type:wall
1000
ifc_class:IfcWindow
1000
element_name:Windows_Sgl_Plain:1810x1210mm
1000
storey:Ground Floor
1000
pos_x
1040
-2.162349224090576
1000
pos_y
1040
4.383581638336182
  0
LWPOLYLINE
  5
94
330
17
100
AcDbEntity
  8
A-GLAZ
370
25
100
AcDbPolyline
 90
13
 70
1
 10
-387.3489499092102
 20
4583.581924438477
 10
-371.70959059720605
 20
4583.581924438477
 10
-367.34896898269653
 20
4583.581924438477
 10
-367.34896898269653
 20
4597.4979267100225
 10
-367.34896898269653
 20
4648.581981658936
 10
-336.24980415086355
 20
4648.581981658936
 10
-327.3490071296692
 20
4648.581981658936
 10
-327.3490071296692
 20
4630.750191470544
 10
-327.3490071296692
 20
4565.581798553467
 10
-375.45469053439706
 20
4565.581798553467
 10
-387.3489499092102
 20
4565.581798553467
 10
-387.3489499092102
 20
4569.3492666134125
 10
-387.3489499092102
 20
4583.581924438477
1001
BIMGUID
1000
MD_WINDOW_GROUND_FLOOR_2
1001
BIMSRC
1000
type:wall
1000
ifc_class:IfcWindow
1000
element_name:Windows_Sgl_Plain:1810x1210mm
1000
storey:Ground Floor
1000
pos_x
1040
-2.162349224090576
1000
pos_y
1040
4.383581638336182
  0
LWPOLYLINE
  5
95
330
17
100
AcDbEntity
  8
A-GLAZ
370
25
100
AcDbPolyline
 90
36
 70
1
 10
-2077.3489475250244
 20
4579.814456378531
 10
-2077.3489475250244
 20
4583.581924438477
 10
-2067.4970149993896
 20
4583.581924438477
 10
-2065.470160383831
 20
4586.476587495768
 10
-2057.3489665985107
 20
4598.074913024902
 10
-2057.3489665985107
 20
4609.799405662045
 10
-2057.3489665985107
 20
4612.582206726074
 10
-2065.3528159664806
 20
4612.582206726074
 10
-2067.3489570617676
 20
4612.582206726074
 10
-727.5209605150781
 20
4612.582206726074
 10
-397.3489999771118
 20
4612.582206726074
 10
-397.3489999771118
 20
4631.836972444248
 10
-397.3489999771118
 20
4636.581897735596
 10
-1737.1769965238013
 20
4636.581897735596
 10
-2067.3489570617676
 20
4636.581897735596
 10
-2067.3489570617676
 20
4617.327132017422
 10
-2067.3489570617676
 20
4612.582206726074
 10
-2067.3489570617676
 20
4631.836972444248
 10
-2067.3489570617676
 20
4636.581897735596
 10
-2059.2486753967546
 20
4636.581897735596
 10
-2057.3489665985107
 20
4636.581897735596
 10
-2057.3489665985107
 20
4650.946173917454
 10
-2057.3489665985107
 20
4654.355525970459
 10
-2071.2127940777887
 20
4658.943645170685
 10
-2074.7947692871094
 20
4660.129070281982
 10
-2079.1027421385306
 20
4660.129070281982
 10
-2096.564292907715
 20
4660.129070281982
 10
-2098.8465541351297
 20
4658.90726283884
 10
-2107.348918914795
 20
4654.355525970459
 10
-2107.348918914795
 20
4649.847345900854
 10
-2107.348918914795
 20
4648.581981658936
 10
-2099.470681276449
 20
4648.581981658936
 10
-2097.348928451538
 20
4648.581981658936
 10
-2097.348928451538
 20
4597.4979267100225
 10
-2097.348928451538
 20
4583.581924438477
 10
-2073.237883674962
 20
4583.581924438477
1001
BIMGUID
1000
MD_WINDOW_GROUND_FLOOR_2
1001
BIMSRC
1000
type:wall
1000
ifc_class:IfcWindow
1000
element_name:Windows_Sgl_Plain:1810x1210mm
1000
storey:Ground Floor
1000
pos_x
1040
-2.162349224090576
1000
pos_y
1040
4.383581638336182
  0
LWPOLYLINE
  5
96
330
17
100
AcDbEntity
  8
A-GLAZ
370
25
100
AcDbPolyline
 90
26
 70
1
 10
-372.87893030699826
 20
4660.129070281982
 10
-389.9032473564148
 20
4660.129070281982
 10
-393.48521032769986
 20
4658.943645170685
 10
-407.34899044036865
 20
4654.355525970459
 10
-407.34899044036865
 20
4639.991249788601
 10
-407.34899044036865
 20
4636.581897735596
 10
-399.3451410723989
 20
4636.581897735596
 10
-397.3489999771118
 20
4636.581897735596
 10
-397.3489999771118
 20
4617.327132017422
 10
-397.3489999771118
 20
4612.582206726074
 10
-405.4492816421246
 20
4612.582206726074
 10
-407.34899044036865
 20
4612.582206726074
 10
-407.34899044036865
 20
4600.857714088932
 10
-407.34899044036865
 20
4598.074913024902
 10
-399.2277966550485
 20
4586.476587495768
 10
-397.20094203948975
 20
4583.581924438477
 10
-391.4600619012535
 20
4583.581924438477
 10
-367.34896898269653
 20
4583.581924438477
 10
-367.34896898269653
 20
4634.66597938739
 10
-367.34896898269653
 20
4648.581981658936
 10
-359.5602566944425
 20
4648.581981658936
 10
-357.3489785194397
 20
4648.581981658936
 10
-357.3489785194397
 20
4653.090161728541
 10
-357.3489785194397
 20
4654.355525970459
 10
-365.8513432991046
 20
4658.90726283884
 10
-368.1336045265198
 20
4660.129070281982
1001
BIMGUID
1000
MD_WINDOW_GROUND_FLOOR_2
1001
BIMSRC
1000
type:wall
1000
ifc_class:IfcWindow
1000
element_name:Windows_Sgl_Plain:1810x1210mm
1000
storey:Ground Floor
1000
pos_x
1040
-2.162349224090576
1000
pos_y
1040
4.383581638336182
  0
LWPOLYLINE
  5
97
330
17
100
AcDbEntity
  8
A-GLAZ
370
25
100
AcDbPolyline
 90
12
 70
1
 10
213.90104293823242
 20
-1272.650527548184
 10
213.90104293823242
 20
-1258.4179639816284
 10
225.79530231304557
 20
-1258.4179639816284
 10
273.90098571777344
 20
-1258.4179639816284
 10
273.90098571777344
 20
-1323.5862633003842
 10
273.90098571777344
 20
-1341.4180278778076
 10
265.0001886965791
 20
-1341.4180278778076
 10
233.9010238647461
 20
-1341.4180278778076
 10
233.9010238647461
 20
-1327.502025606262
 10
233.9010238647461
 20
-1276.4179706573486
 10
229.5404022502366
 20
-1276.4179706573486
 10
213.90104293823242
 20
-1276.4179706573486
1001
BIMGUID
1000
MD_WINDOW_GROUND_FLOOR_3
1001
BIMSRC
1000
type:wall
1000
ifc_class:IfcWindow
1000
element_name:Windows_Sgl_Plain:1810x1210mm
1000
storey:Ground Floor
1000
pos_x
1040
-1.5610990524291992
1000
pos_y
1040
-1.4289180040359497
  0
LWPOLYLINE
  5
98
330
17
100
AcDbEntity
  8
A-GLAZ
370
25
100
AcDbPolyline
 90
13
 70
1
 10
-1476.0990142822266
 20
-1276.4179706573486
 10
-1491.7383735942308
 20
-1276.4179706573486
 10
-1496.0989952087402
 20
-1276.4179706573486
 10
-1496.0989952087402
 20
-1290.3339729288944
 10
-1496.0989952087402
 20
-1341.4180278778076
 10
-1527.1981600405734
 20
-1341.4180278778076
 10
-1536.0989570617676
 20
-1341.4180278778076
 10
-1536.0989570617676
 20
-1323.5862633003842
 10
-1536.0989570617676
 20
-1258.4179639816284
 10
-1487.9932736570395
 20
-1258.4179639816284
 10
-1476.0990142822266
 20
-1258.4179639816284
 10
-1476.0990142822266
 20
-1262.185407090793
 10
-1476.0990142822266
 20
-1276.4179706573486
1001
BIMGUID
1000
MD_WINDOW_GROUND_FLOOR_3
1001
BIMSRC
1000
type:wall
1000
ifc_class:IfcWindow
1000
element_name:Windows_Sgl_Plain:1810x1210mm
1000
storey:Ground Floor
1000
pos_x
1040
-1.5610990524291992
1000
pos_y
1040
-1.4289180040359497
  0
LWPOLYLINE
  5
99
330
17
100
AcDbEntity
  8
A-GLAZ
370
25
100
AcDbPolyline
 90
36
 70
1
 10
213.90104293823242
 20
-1272.650527548184
 10
213.90104293823242
 20
-1276.4179706573486
 10
204.04905080795288
 20
-1276.4179706573486
 10
202.02219619239412
 20
-1279.3126337146407
 10
193.90100240707397
 20
-1290.9109592437744
 10
193.90100240707397
 20
-1302.6352591959871
 10
193.90100240707397
 20
-1305.4180145263672
 10
201.9048517750437
 20
-1305.4180145263672
 10
203.9009928703308
 20
-1305.4180145263672
 10
-1135.9270514967025
 20
-1305.4180145263672
 10
-1466.0990238189697
 20
-1305.4180145263672
 10
-1466.0990238189697
 20
-1324.6730671666037
 10
-1466.0990238189697
 20
-1329.4180631637573
 10
-126.27097945193655
 20
-1329.4180631637573
 10
203.9009928703308
 20
-1329.4180631637573
 10
203.9009928703308
 20
-1310.1630105235208
 10
203.9009928703308
 20
-1305.4180145263672
 10
203.9009928703308
 20
-1324.6730671666037
 10
203.9009928703308
 20
-1329.4180631637573
 10
195.800711205318
 20
-1329.4180631637573
 10
193.90100240707397
 20
-1329.4180631637573
 10
193.90100240707397
 20
-1343.7821466606856
 10
193.90100240707397
 20
-1347.1914529800415
 10
207.7647825197428
 20
-1351.7795721802681
 10
211.34674549102783
 20
-1352.964997291565
 10
215.65474193278564
 20
-1352.964997291565
 10
233.11638832092285
 20
-1352.964997291565
 10
235.39864954833797
 20
-1351.7431898484228
 10
243.90101432800293
 20
-1347.1914529800415
 10
243.90101432800293
 20
-1342.6833659931108
 10
243.90101432800293
 20
-1341.4180278778076
 10
236.02277668965692
 20
-1341.4180278778076
 10
233.9010238647461
 20
-1341.4180278778076
 10
233.9010238647461
 20
-1290.3339729288944
 10
233.9010238647461
 20
-1276.4179706573486
 10
209.78993094618914
 20
-1276.4179706573486
1001
BIMGUID
1000
MD_WINDOW_GROUND_FLOOR_3
1001
BIMSRC
1000
type:wall
1000
ifc_class:IfcWindow
1000
element_name:Windows_Sgl_Plain:1810x1210mm
1000
storey:Ground Floor
1000
pos_x
1040
-1.5610990524291992
1000
pos_y
1040
-1.4289180040359497
  0
LWPOLYLINE
  5
9A
330
17
100
AcDbEntity
  8
A-GLAZ
370
25
100
AcDbPolyline
 90
26
 70
1
 10
-1490.5690338844386
 20
-1352.964997291565
 10
-1473.544716835022
 20
-1352.964997291565
 10
-1469.962766101773
 20
-1351.7795721802681
 10
-1456.099033355713
 20
-1347.1914529800415
 10
-1456.099033355713
 20
-1332.8273694831132
 10
-1456.099033355713
 20
-1329.4180631637573
 10
-1464.1028827236826
 20
-1329.4180631637573
 10
-1466.0990238189697
 20
-1329.4180631637573
 10
-1466.0990238189697
 20
-1310.1630105235208
 10
-1466.0990238189697
 20
-1305.4180145263672
 10
-1457.9987421539568
 20
-1305.4180145263672
 10
-1456.099033355713
 20
-1305.4180145263672
 10
-1456.099033355713
 20
-1293.6937145741545
 10
-1456.099033355713
 20
-1290.9109592437744
 10
-1464.2202271410329
 20
-1279.3126337146407
 10
-1466.2470817565918
 20
-1276.4179706573486
 10
-1471.9879504321648
 20
-1276.4179706573486
 10
-1496.0989952087402
 20
-1276.4179706573486
 10
-1496.0989952087402
 20
-1327.502025606262
 10
-1496.0989952087402
 20
-1341.4180278778076
 10
-1503.8877074969944
 20
-1341.4180278778076
 10
-1506.098985671997
 20
-1341.4180278778076
 10
-1506.098985671997
 20
-1345.9261148647383
 10
-1506.098985671997
 20
-1347.1914529800415
 10
-1497.596620892332
 20
-1351.7431898484228
 10
-1495.314359664917
 20
-1352.964997291565
1001
BIMGUID
1000
MD_WINDOW_GROUND_FLOOR_3
1001
BIMSRC
1000
type:wall
1000
ifc_class:IfcWindow
1000
element_name:Windows_Sgl_Plain:1810x1210mm
1000
storey:Ground Floor
1000
pos_x
1040
-1.5610990524291992
1000
pos_y
1040
-1.4289180040359497
  0
LWPOLYLINE
  5
9B
330
17
100
AcDbEntity
  8
A-DOOR
370
25
100
AcDbPolyline
 90
9
 70
1
 10
1594.6393700130973
 20
237.83200979232788
 10
1610.6510162353516
 20
237.83200979232788
 10
1610.6510162353516
 20
-182.26118208225134
 10
1610.6510162353516
 20
-488.16800117492676
 10
1588.662674855372
 20
-488.16800117492676
 10
1572.6510286331177
 20
-488.16800117492676
 10
1572.6510286331177
 20
-68.07480930034754
 10
1572.6510286331177
 20
237.83200979232788
 10
1594.6393700130973
 20
237.83200979232788
1001
BIMGUID
1000
MD_DOOR_GROUND_FLOOR_1
1001
BIMSRC
1000
type:wall
1000
ifc_class:IfcDoor
1000
element_name:Doors_IntSgl:810x2110mm
1000
storey:Ground Floor
1000
pos_x
1040
1.5096509456634521
1000
pos_y
1040
-0.565168023109436
  0
LWPOLYLINE
  5
9C
330
17
100
AcDbEntity
  8
A-DOOR
370
25
100
AcDbPolyline
 90
50
 70
1
 10
1552.651047706604
 20
292.029156531883
 10
1552.651047706604
 20
274.83201026916504
 10
1559.7548755130806
 20
261.6391331919613
 10
1559.918612375501
 20
261.3350492026295
 10
1560.0900755526675
 20
261.01661628431424
 10
1560.269824589975
 20
260.6827952770281
 10
1560.4584752598732
 20
260.3324425986839
 10
1560.6567059003805
 20
259.96429847351686
 10
1560.865264616143
 20
259.57697355864195
 10
1561.084980490549
 20
259.16892812146074
 10
1561.3167734327435
 20
258.73845375228404
 10
1561.5616677121363
 20
258.2836482287047
 10
1561.8208056070093
 20
257.80239016808775
 10
1562.0954674196803
 20
257.29230185639386
 10
1562.3870916336355
 20
256.7507118133552
 10
1562.6972986967949
 20
256.1746106233727
 10
1563.0279237713041
 20
255.56059011422354
 10
1563.3810518882308
 20
254.90477806950184
 10
1563.7590602312728
 20
254.2027597014095
 10
1564.1646749044635
 20
253.44947222458768
 10
1564.601035371322
 20
252.63908518291882
 10
1565.0717729859205
 20
251.7648546055178
 10
1565.5811199050358
 20
250.81892074048056
 10
1566.1340275735733
 20
249.79208800962385
 10
1566.6509866714478
 20
248.83201718330383
 10
1567.0643095368378
 20
248.3875563181839
 10
1569.2798187234241
 20
246.05853249114094
 10
1572.5716018609432
 20
244.86040909131253
 10
1572.6510286331177
 20
244.83200907707214
 10
1572.6510286331177
 20
246.65193198953926
 10
1572.6510286331177
 20
248.4001298460519
 10
1572.6510286331177
 20
250.0609480205642
 10
1572.6510286331177
 20
251.6407213227581
 10
1572.6510286331177
 20
253.14526771998607
 10
1572.6510286331177
 20
254.57986133404904
 10
1572.6510286331177
 20
255.9492207277163
 10
1572.6510286331177
 20
257.25772002711426
 10
1572.6510286331177
 20
258.50935085777485
 10
1572.6510286331177
 20
259.70769857347295
 10
1572.6510286331177
 20
260.8561154020824
 10
1572.6510286331177
 20
261.9576583206331
 10
1572.6510286331177
 20
263.0151397492512
 10
1572.6510286331177
 20
264.03116983949644
 10
1572.6510286331177
 20
265.0081037372487
 10
1572.6510286331177
 20
265.9481723967096
 10
1572.6510286331177
 20
266.8534402103234
 10
1572.6510286331177
 20
314.83200192451477
 10
1563.839848324425
 20
314.83200192451477
 10
1552.651047706604
 20
314.83200192451477
 10
1552.651047706604
 20
292.029156531883
1001
BIMGUID
1000
MD_DOOR_GROUND_FLOOR_1
1001
BIMSRC
1000
type:wall
1000
ifc_class:IfcDoor
1000
element_name:Doors_IntSgl:810x2110mm
1000
storey:Ground Floor
1000
pos_x
1040
1.5096509456634521
1000
pos_y
1040
-0.565168023109436
  0
LWPOLYLINE
  5
9D
330
17
100
AcDbEntity
  8
A-DOOR
370
25
100
AcDbPolyline
 90
39
 70
1
 10
1572.6510286331177
 20
-495.168000459671
 10
1572.5716492191045
 20
-495.19638354042144
 10
1569.232776765723
 20
-496.4257438569053
 10
1567.261036824434
 20
-498.50746374691295
 10
1566.6509866714478
 20
-499.1680085659027
 10
1566.5873045210585
 20
-499.2862759007796
 10
1566.137747333358
 20
-500.12117123862845
 10
1565.7162875011468
 20
-500.90388555981036
 10
1565.4692050164501
 20
-501.36275490987595
 10
1565.2312944482624
 20
-501.80459063097925
 10
1565.0020543984856
 20
-502.23032389482904
 10
1564.781020405386
 20
-502.64081727674693
 10
1564.5677575757975
 20
-503.0368784387779
 10
1564.3618641323603
 20
-503.41925354192887
 10
1564.162964584369
 20
-503.7886399289365
 10
1563.970709434038
 20
-504.14568666977453
 10
1563.7847694498316
 20
-504.49100519694036
 10
1563.6048402030913
 20
-504.8251608802572
 10
1563.4306332240142
 20
-505.14868945155223
 10
1563.2618806074443
 20
-505.46208845100927
 10
1563.098330140324
 20
-505.7658262762239
 10
1562.9397456746797
 20
-506.06034148951363
 10
1562.785902955833
 20
-506.3460505655578
 10
1562.6365931534199
 20
-506.62334133376373
 10
1562.491618835119
 20
-506.89258045565634
 10
1562.3507938701496
 20
-507.1541136041021
 10
1562.2139426320161
 20
-507.4082669439273
 10
1562.080899898783
 20
-507.65534731712523
 10
1561.9515082552102
 20
-507.89564706748183
 10
1561.8256188431876
 20
-508.12944264690486
 10
1561.7030919509366
 20
-508.3569935211876
 10
1552.651047706604
 20
-525.1680016517639
 10
1552.651047706604
 20
-542.365160727357
 10
1552.651047706604
 20
-565.168023109436
 10
1561.4622280152967
 20
-565.168023109436
 10
1572.6510286331177
 20
-565.168023109436
 10
1572.6510286331177
 20
-503.63755174438427
 10
1572.6510286331177
 20
-501.72423507319905
 10
1572.6510286331177
 20
-490.1680052280426
1001
BIMGUID
1000
MD_DOOR_GROUND_FLOOR_1
1001
BIMSRC
1000
type:wall
1000
ifc_class:IfcDoor
1000
element_name:Doors_IntSgl:810x2110mm
1000
storey:Ground Floor
1000
pos_x
1040
1.5096509456634521
1000
pos_y
1040
-0.565168023109436
  0
LWPOLYLINE
  5
9E
330
17
100
AcDbEntity
  8
A-DOOR
370
25
100
AcDbPolyline
 90
9
 70
1
 10
1626.10029250594
 20
-490.1680052280426
 10
1644.6510553359985
 20
-490.1680052280426
 10
1644.6510553359985
 20
-479.0514635364123
 10
1644.6510553359985
 20
-471.16798162460327
 10
1631.3736017030003
 20
-471.16798162460327
 10
1612.650990486145
 20
-471.16798162460327
 10
1612.650990486145
 20
-479.0514635364123
 10
1612.650990486145
 20
-490.1680052280426
 10
1626.10029250594
 20
-490.1680052280426
1001
BIMGUID
1000
MD_DOOR_GROUND_FLOOR_1
1001
BIMSRC
1000
type:wall
1000
ifc_class:IfcDoor
1000
element_name:Doors_IntSgl:810x2110mm
1000
storey:Ground Floor
1000
pos_x
1040
1.5096509456634521
1000
pos_y
1040
-0.565168023109436
  0
LWPOLYLINE
  5
9F
330
17
100
AcDbEntity
  8
A-DOOR
370
25
100
AcDbPolyline
 90
9
 70
1
 10
1612.650990486145
 20
239.83201384544373
 10
1612.650990486145
 20
228.71547215381344
 10
1612.650990486145
 20
220.8319902420044
 10
1625.9284441191433
 20
220.8319902420044
 10
1644.6510553359985
 20
220.8319902420044
 10
1644.6510553359985
 20
228.71547215381344
 10
1644.6510553359985
 20
239.83201384544373
 10
1631.2017533162036
 20
239.83201384544373
 10
1612.650990486145
 20
239.83201384544373
1001
BIMGUID
1000
MD_DOOR_GROUND_FLOOR_1
1001
BIMSRC
1000
type:wall
1000
ifc_class:IfcDoor
1000
element_name:Doors_IntSgl:810x2110mm
1000
storey:Ground Floor
1000
pos_x
1040
1.5096509456634521
1000
pos_y
1040
-0.565168023109436
  0
LWPOLYLINE
  5
A0
330
17
100
AcDbEntity
  8
A-DOOR
370
25
100
AcDbPolyline
 90
38
 70
1
 10
1687.6510381698608
 20
-542.365160727357
 10
1687.6510381698608
 20
-565.168023109436
 10
1676.4622375520398
 20
-565.168023109436
 10
1667.6510572433472
 20
-565.168023109436
 10
1667.6510572433472
 20
-503.6376063264799
 10
1667.6510572433472
 20
-501.72427134157317
 10
1667.6510572433472
 20
-499.6881628481007
 10
1667.6510572433472
 20
-497.5170308436733
 10
1667.6510572433472
 20
-495.1969307575177
 10
1667.6510572433472
 20
-495.168000459671
 10
1667.7305758544676
 20
-495.1964343393971
 10
1671.0221912556276
 20
-496.3945238737398
 10
1673.237684317379
 20
-498.7235557675301
 10
1673.6509799957275
 20
-499.1680085659027
 10
1674.1679452059532
 20
-500.1280825687616
 10
1674.7208558720406
 20
-501.1549121230795
 10
1675.230207128238
 20
-502.10084598811665
 10
1675.700950094773
 20
-502.9750790607864
 10
1676.1373129336225
 20
-503.78546360718656
 10
1676.5429310606169
 20
-504.53875108400837
 10
1676.9209426223947
 20
-505.2407694521007
 10
1677.2740732396292
 20
-505.89658055604747
 10
1677.6047011611724
 20
-506.510601124191
 10
1677.9149113405479
 20
-507.08670319595404
 10
1678.2065380376794
 20
-507.62829323899274
 10
1678.4812025846634
 20
-508.1383822853158
 10
1678.7403426640499
 20
-508.6196403049982
 10
1678.985238655185
 20
-509.07444513488286
 10
1679.217033571093
 20
-509.5049195040596
 10
1679.4367513163768
 20
-509.91296494124083
 10
1679.6453118080137
 20
-510.30028985611574
 10
1679.8435441364525
 20
-510.6684339812827
 10
1680.0321966857819
 20
-511.0187871667613
 10
1680.211947240917
 20
-511.35260815040004
 10
1680.383411866227
 20
-511.67104104668425
 10
1680.5471501117945
 20
-511.97512501545737
 10
1687.6510381698608
 20
-525.1680016517639
 10
1687.6510381698608
 20
-542.365160727357
1001
BIMGUID
1000
MD_DOOR_GROUND_FLOOR_1
1001
BIMSRC
1000
type:wall
1000
ifc_class:IfcDoor
1000
element_name:Doors_IntSgl:810x2110mm
1000
storey:Ground Floor
1000
pos_x
1040
1.5096509456634521
1000
pos_y
1040
-0.565168023109436
  0
LWPOLYLINE
  5
A1
330
17
100
AcDbEntity
  8
A-DOOR
370
25
100
AcDbPolyline
 90
59
 70
1
 10
1671.069248069926
 20
246.08975247430644
 10
1673.0409494720427
 20
248.17146156966595
 10
1673.6509799957275
 20
248.83201718330383
 10
1673.7146640665262
 20
248.95028707760352
 10
1674.1642237040433
 20
249.7851798560296
 10
1674.5856871249791
 20
250.56789417721143
 10
1674.83277171358
 20
251.0267635272771
 10
1675.070684307573
 20
251.46859924838043
 10
1675.2999263093259
 20
251.89433251223014
 10
1675.5209621845263
 20
252.3048258941481
 10
1675.7342268300451
 20
252.700887056179
 10
1675.9401220266623
 20
253.0832621593299
 10
1676.1390232682804
 20
253.45264854633766
 10
1676.3312800556616
 20
253.80969528717574
 10
1676.5172216231442
 20
254.15501381434152
 10
1676.697153253383
 20
254.48917107882906
 10
1676.8713616889645
 20
254.8126996002308
 10
1677.040115716847
 20
255.12609855211937
 10
1677.2036675521585
 20
255.42983633194805
 10
1677.362253344813
 20
255.72435150190321
 10
1677.516097351333
 20
256.01006053654186
 10
1677.6654076962616
 20
256.28734995116486
 10
1677.8103832490167
 20
256.55658907305747
 10
1677.9512087454923
 20
256.8181209816492
 10
1678.0880611676178
 20
257.0722743562131
 10
1678.221105051638
 20
257.3193547627099
 10
1678.3504984279598
 20
257.55965568488296
 10
1678.476388911929
 20
257.79345126430604
 10
1678.5989168474946
 20
258.0210021385887
 10
1687.6510381698608
 20
274.83201026916504
 10
1687.6510381698608
 20
292.029156531883
 10
1687.6510381698608
 20
314.83200192451477
 10
1678.8398578611682
 20
314.83200192451477
 10
1667.6510572433472
 20
314.83200192451477
 10
1667.6510572433472
 20
276.4511589472605
 10
1667.6510572433472
 20
275.7153175137343
 10
1667.6510572433472
 20
274.95070930676724
 10
1667.6510572433472
 20
274.15561230457945
 10
1667.6510572433472
 20
273.3281688998013
 10
1667.6510572433472
 20
272.46636098222933
 10
1667.6510572433472
 20
271.56800574143296
 10
1667.6510572433472
 20
270.6307262197239
 10
1667.6510572433472
 20
269.6519347690909
 10
1667.6510572433472
 20
268.62881302507634
 10
1667.6510572433472
 20
267.55828158664565
 10
1667.6510572433472
 20
266.43696485768953
 10
1667.6510572433472
 20
265.261158992654
 10
1667.6510572433472
 20
264.0267979802119
 10
1667.6510572433472
 20
262.7293911619605
 10
1667.6510572433472
 20
261.36398694593345
 10
1667.6510572433472
 20
259.9250931233615
 10
1667.6510572433472
 20
258.40660963957424
 10
1667.6510572433472
 20
256.8017481786571
 10
1667.6510572433472
 20
255.10288727983317
 10
1667.6510572433472
 20
253.30155675589666
 10
1667.6510572433472
 20
251.3882408993008
 10
1667.6510572433472
 20
249.35211545393926
 10
1667.6510572433472
 20
247.18096423238222
 10
1667.6510572433472
 20
244.86088642444437
1001
BIMGUID
1000
MD_DOOR_GROUND_FLOOR_1
1001
BIMSRC
1000
type:wall
1000
ifc_class:IfcDoor
1000
element_name:Doors_IntSgl:810x2110mm
1000
storey:Ground Floor
1000
pos_x
1040
1.5096509456634521
1000
pos_y
1040
-0.565168023109436
  0
LWPOLYLINE
  5
A2
330
17
100
AcDbEntity
  8
A-DOOR
370
25
100
AcDbPolyline
 90
8
 70
1
 10
1572.6510286331177
 20
-503.61729472222436
 10
1572.6510286331177
 20
-522.1680402755737
 10
1613.4169780636523
 20
-522.1680402755737
 10
1667.6510572433472
 20
-522.1680402755737
 10
1667.6510572433472
 20
-503.61729472222436
 10
1667.6510572433472
 20
-490.1680052280426
 10
1627.7235107629535
 20
-490.1680052280426
 10
1572.6510286331177
 20
-490.1680052280426
1001
BIMGUID
1000
MD_DOOR_GROUND_FLOOR_1
1001
BIMSRC
1000
type:wall
1000
ifc_class:IfcDoor
1000
element_name:Doors_IntSgl:810x2110mm
1000
storey:Ground Floor
1000
pos_x
1040
1.5096509456634521
1000
pos_y
1040
-0.565168023109436
  0
LWPOLYLINE
  5
A3
330
17
100
AcDbEntity
  8
A-DOOR
370
25
100
AcDbPolyline
 90
9
 70
1
 10
1572.6510286331177
 20
271.83201909065247
 10
1626.8851078128125
 20
271.83201909065247
 10
1667.6510572433472
 20
271.83201909065247
 10
1667.6510572433472
 20
253.2812908140123
 10
1667.6510572433472
 20
239.83201384544373
 10
1612.5785751135113
 20
239.83201384544373
 10
1572.6510286331177
 20
239.83201384544373
 10
1572.6510286331177
 20
253.2812908140123
 10
1572.6510286331177
 20
271.83201909065247
1001
BIMGUID
1000
MD_DOOR_GROUND_FLOOR_1
1001
BIMSRC
1000
type:wall
1000
ifc_class:IfcDoor
1000
element_name:Doors_IntSgl:810x2110mm
1000
storey:Ground Floor
1000
pos_x
1040
1.5096509456634521
1000
pos_y
1040
-0.565168023109436
  0
LWPOLYLINE
  5
A4
330
17
100
AcDbEntity
  8
A-DOOR
370
25
100
AcDbPolyline
 90
9
 70
1
 10
1645.6626468840147
 20
2314.3320083618164
 10
1629.6509504318237
 20
2314.3320083618164
 10
1629.6509504318237
 20
2734.425234726072
 10
1629.6509504318237
 20
3040.332078933716
 10
1651.6393607911562
 20
3040.332078933716
 10
1667.6510572433472
 20
3040.332078933716
 10
1667.6510572433472
 20
2620.23885256946
 10
1667.6510572433472
 20
2314.3320083618164
 10
1645.6626468840147
 20
2314.3320083618164
1001
BIMGUID
1000
MD_DOOR_GROUND_FLOOR_2
1001
BIMSRC
1000
type:wall
1000
ifc_class:IfcDoor
1000
element_name:Doors_IntSgl:810x2110mm
1000
storey:Ground Floor
1000
pos_x
1040
1.552650809288025
1000
pos_y
1040
2.2373316287994385
  0
LWPOLYLINE
  5
A5
330
17
100
AcDbEntity
  8
A-DOOR
370
25
100
AcDbPolyline
 90
47
 70
1
 10
1667.6510572433472
 20
2305.5121175165823
 10
1667.6510572433472
 20
2303.763921148652
 10
1667.6510572433472
 20
2302.1031043883177
 10
1667.6510572433472
 20
2300.523332431293
 10
1667.6510572433472
 20
2299.018787315179
 10
1667.6510572433472
 20
2297.584194922665
 10
1667.6510572433472
 20
2296.214836695001
 10
1667.6510572433472
 20
2294.9063385097834
 10
1667.6510572433472
 20
2293.6547087448803
 10
1667.6510572433472
 20
2292.456362049569
 10
1667.6510572433472
 20
2291.307946198831
 10
1667.6510572433472
 20
2290.2064042182383
 10
1667.6510572433472
 20
2289.14892369006
 10
1667.6510572433472
 20
2288.13289446496
 10
1667.6510572433472
 20
2287.155961399062
 10
1667.6510572433472
 20
2286.215893540065
 10
1667.6510572433472
 20
2285.310626497282
 10
1667.6510572433472
 20
2237.3321056365967
 10
1676.4622375520398
 20
2237.3321056365967
 10
1687.6510381698608
 20
2237.3321056365967
 10
1687.6510381698608
 20
2260.1349340397815
 10
1687.6510381698608
 20
2277.332067489624
 10
1680.5471498743873
 20
2290.524959689077
 10
1680.3834116177497
 20
2290.829044026963
 10
1680.2119469805766
 20
2291.14747731028
 10
1680.0321964127083
 20
2291.4812987002065
 10
1679.8435441364525
 20
2291.83165178014
 10
1679.6453118080137
 20
2292.19979632729
 10
1679.4367513163768
 20
2292.5871216861333
 10
1679.217033571093
 20
2292.995167591034
 10
1678.985238655185
 20
2293.4256424536393
 10
1678.7403422905202
 20
2293.880448498536
 10
1678.481202189092
 20
2294.361707110792
 10
1678.2065380376794
 20
2294.8717960071713
 10
1677.9149113405479
 20
2295.413386671004
 10
1677.6047016359796
 20
2295.989488521339
 10
1677.2740737462025
 20
2296.603509734305
 10
1676.9209426223947
 20
2297.259322530747
 10
1676.5429310606169
 20
2297.961341703523
 10
1676.1373129336225
 20
2298.714630043796
 10
1675.7009487511607
 20
2299.5250180143657
 10
1675.230207128238
 20
2300.399249593848
 10
1674.7208558720406
 20
2301.345184543156
 10
1674.1679434955017
 20
2302.372018451013
 10
1673.6509799957275
 20
2303.3320903778076
 10
1673.2376768161287
 20
2303.7765167927937
 10
1671.0221912556276
 20
2306.1054802998337
1001
BIMGUID
1000
MD_DOOR_GROUND_FLOOR_2
1001
BIMSRC
1000
type:wall
1000
ifc_class:IfcDoor
1000
element_name:Doors_IntSgl:810x2110mm
1000
storey:Ground Floor
1000
pos_x
1040
1.552650809288025
1000
pos_y
1040
2.2373316287994385
  0
LWPOLYLINE
  5
A6
330
17
100
AcDbEntity
  8
A-DOOR
370
25
100
AcDbPolyline
 90
46
 70
1
 10
1667.6510572433472
 20
3047.3320484161377
 10
1667.7304337892963
 20
3047.360430779872
 10
1671.069248069926
 20
3048.589805637405
 10
1673.0409594410214
 20
3050.671481697015
 10
1673.6509799957275
 20
3051.3319969177246
 10
1673.7146626883693
 20
3051.4502643881647
 10
1674.1642237040433
 20
3052.285160683007
 10
1674.5856871249791
 20
3053.06787590137
 10
1674.83277171358
 20
3053.5267457774116
 10
1675.070684307573
 20
3053.9685820049663
 10
1675.2999263093259
 20
3054.3943157568096
 10
1675.5209621845263
 20
3054.8048096092534
 10
1675.7342268300451
 20
3055.200871225267
 10
1675.9401220266623
 20
3055.5832467667124
 10
1676.1390232682804
 20
3055.952633577127
 10
1676.3312800556616
 20
3056.3096807272277
 10
1676.5172216231442
 20
3056.654999650212
 10
1676.6971524019796
 20
3056.9891557165533
 10
1676.8713608644268
 20
3057.3126846586906
 10
1677.0401149179231
 20
3057.626084017379
 10
1677.2036667776736
 20
3057.929822190751
 10
1677.3622525936623
 20
3058.224337741627
 10
1677.5160966224773
 20
3058.5100471451633
 10
1677.6654076962616
 20
3058.7873382312123
 10
1677.8103832490167
 20
3059.0565776617186
 10
1677.951209413109
 20
3059.318111109945
 10
1678.0880618165288
 20
3059.5722647410917
 10
1678.2211056826188
 20
3059.819345397504
 10
1678.3504984279598
 20
3060.0596454233023
 10
1678.476388911929
 20
3060.2934412707123
 10
1678.5989168474946
 20
3060.5209924058236
 10
1687.6510381698608
 20
3077.332019805908
 10
1687.6510381698608
 20
3094.5291532557508
 10
1687.6510381698608
 20
3117.3319816589355
 10
1678.8398578611682
 20
3117.3319816589355
 10
1667.6510572433472
 20
3117.3319816589355
 10
1667.6510572433472
 20
3055.8015888831846
 10
1667.6510572433472
 20
3053.8882746557674
 10
1667.6510572433472
 20
3042.3319339752197
 10
1612.5785751135113
 20
3042.3319339752197
 10
1572.6510286331177
 20
3042.3319339752197
 10
1572.6510286331177
 20
3055.781235995015
 10
1572.6510286331177
 20
3074.3319988250732
 10
1626.8851078128125
 20
3074.3319988250732
 10
1667.6510572433472
 20
3074.3319988250732
 10
1667.6510572433472
 20
3055.781235995015
1001
BIMGUID
1000
MD_DOOR_GROUND_FLOOR_2
1001
BIMSRC
1000
type:wall
1000
ifc_class:IfcDoor
1000
element_name:Doors_IntSgl:810x2110mm
1000
storey:Ground Floor
1000
pos_x
1040
1.552650809288025
1000
pos_y
1040
2.2373316287994385
  0
LWPOLYLINE
  5
A7
330
17
100
AcDbEntity
  8
A-DOOR
370
25
100
AcDbPolyline
 90
9
 70
1
 10
1614.2017242636882
 20
3042.3319339752197
 10
1595.6510305404663
 20
3042.3319339752197
 10
1595.6510305404663
 20
3031.2153748468345
 10
1595.6510305404663
 20
3023.331880569458
 10
1608.9284347111957
 20
3023.331880569458
 10
1627.6509761810303
 20
3023.331880569458
 10
1627.6509761810303
 20
3031.2153748468345
 10
1627.6509761810303
 20
3042.3319339752197
 10
1614.2017242636882
 20
3042.3319339752197
1001
BIMGUID
1000
MD_DOOR_GROUND_FLOOR_2
1001
BIMSRC
1000
type:wall
1000
ifc_class:IfcDoor
1000
element_name:Doors_IntSgl:810x2110mm
1000
storey:Ground Floor
1000
pos_x
1040
1.552650809288025
1000
pos_y
1040
2.2373316287994385
  0
LWPOLYLINE
  5
A8
330
17
100
AcDbEntity
  8
A-DOOR
370
25
100
AcDbPolyline
 90
9
 70
1
 10
1627.6509761810303
 20
2312.3319149017334
 10
1627.6509761810303
 20
2323.4484740301186
 10
1627.6509761810303
 20
2331.331968307495
 10
1614.373572010301
 20
2331.331968307495
 10
1595.6510305404663
 20
2331.331968307495
 10
1595.6510305404663
 20
2323.4484740301186
 10
1595.6510305404663
 20
2312.3319149017334
 10
1609.1002824578084
 20
2312.3319149017334
 10
1627.6509761810303
 20
2312.3319149017334
1001
BIMGUID
1000
MD_DOOR_GROUND_FLOOR_2
1001
BIMSRC
1000
type:wall
1000
ifc_class:IfcDoor
1000
element_name:Doors_IntSgl:810x2110mm
1000
storey:Ground Floor
1000
pos_x
1040
1.552650809288025
1000
pos_y
1040
2.2373316287994385
  0
LWPOLYLINE
  5
A9
330
17
100
AcDbEntity
  8
A-DOOR
370
25
100
AcDbPolyline
 90
38
 70
1
 10
1552.651047706604
 20
3094.5291532557508
 10
1552.651047706604
 20
3117.3319816589355
 10
1563.839848324425
 20
3117.3319816589355
 10
1572.6510286331177
 20
3117.3319816589355
 10
1572.6510286331177
 20
3055.8016434652104
 10
1572.6510286331177
 20
3053.8883109240955
 10
1572.6510286331177
 20
3051.8522050312263
 10
1572.6510286331177
 20
3049.6810757998596
 10
1572.6510286331177
 20
3047.3609786770335
 10
1572.6510286331177
 20
3047.3320484161377
 10
1572.5715071488
 20
3047.3604815775643
 10
1569.2798187234241
 20
3048.5585203719456
 10
1567.0643020352297
 20
3050.8875391979936
 10
1566.6509866714478
 20
3051.3319969177246
 10
1566.1340258631365
 20
3052.292072021062
 10
1565.5811199050358
 20
3053.3189027523763
 10
1565.0717729859205
 20
3054.2648377016844
 10
1564.6010340277214
 20
3055.139071776438
 10
1564.1646749044635
 20
3055.949457251736
 10
1563.7590602312728
 20
3056.7027455920093
 10
1563.3810518882308
 20
3057.4047647647853
 10
1563.0279242778731
 20
3058.0605766204512
 10
1562.697299171598
 20
3058.674597892412
 10
1562.3870916336355
 20
3059.2507006245282
 10
1562.0954674196803
 20
3059.792291288361
 10
1561.8208052114412
 20
3060.30238091937
 10
1561.56166733861
 20
3060.7836394906913
 10
1561.3167734327435
 20
3061.238444841893
 10
1561.084980490549
 20
3061.6689197044984
 10
1560.865264616143
 20
3062.076965609399
 10
1560.6567059003805
 20
3062.464290968242
 10
1560.4584752598732
 20
3062.8324355153923
 10
1560.269824316904
 20
3063.182789102461
 10
1560.0900752923294
 20
3063.51661046874
 10
1559.9186121270257
 20
3063.8350437300255
 10
1559.7548752756754
 20
3064.1391280473526
 10
1552.651047706604
 20
3077.332019805908
 10
1552.651047706604
 20
3094.5291532557508
1001
BIMGUID
1000
MD_DOOR_GROUND_FLOOR_2
1001
BIMSRC
1000
type:wall
1000
ifc_class:IfcDoor
1000
element_name:Doors_IntSgl:810x2110mm
1000
storey:Ground Floor
1000
pos_x
1040
1.552650809288025
1000
pos_y
1040
2.2373316287994385
  0
LWPOLYLINE
  5
AA
330
17
100
AcDbEntity
  8
A-DOOR
370
25
100
AcDbPolyline
 90
53
 70
1
 10
1564.3618641323603
 20
2299.08084052882
 10
1564.162964584369
 20
2298.711453718405
 10
1563.970709434038
 20
2298.3544065683045
 10
1563.7847694498316
 20
2298.00908764532
 10
1563.6048393516953
 20
2297.6749299978064
 10
1563.4306323994836
 20
2297.3514011055627
 10
1563.261879808527
 20
2297.0380017944426
 10
1563.0983293658453
 20
2296.734263666456
 10
1562.939744923535
 20
2296.4397481589153
 10
1562.7859022269836
 20
2296.154038796784
 10
1562.6365931534199
 20
2295.87674906432
 10
1562.491618835119
 20
2295.6075096338136
 10
1562.3507945377605
 20
2295.345977425443
 10
1562.2139432809217
 20
2295.0918237595574
 10
1562.0809005297585
 20
2294.8447430698466
 10
1561.9515082552102
 20
2294.60444187223
 10
1561.8256188431876
 20
2294.37064602482
 10
1561.7030919509366
 20
2294.1430948897087
 10
1552.651047706604
 20
2277.332067489624
 10
1552.651047706604
 20
2260.1349340397815
 10
1552.651047706604
 20
2237.3321056365967
 10
1561.4622280152967
 20
2237.3321056365967
 10
1572.6510286331177
 20
2237.3321056365967
 10
1572.6510286331177
 20
2275.7129159327546
 10
1572.6510286331177
 20
2276.4487567397155
 10
1572.6510286331177
 20
2277.2133642956223
 10
1572.6510286331177
 20
2278.008460620789
 10
1572.6510286331177
 20
2278.835903321003
 10
1572.6510286331177
 20
2279.6977105047504
 10
1572.6510286331177
 20
2280.5960649806016
 10
1572.6510286331177
 20
2281.5333437042214
 10
1572.6510286331177
 20
2282.5121343214187
 10
1572.6510286331177
 20
2283.53525519425
 10
1572.6510286331177
 20
2284.6057857211285
 10
1572.6510286331177
 20
2285.727101495289
 10
1572.6510286331177
 20
2286.902906359132
 10
1572.6510286331177
 20
2288.137266320522
 10
1572.6510286331177
 20
2289.4346720340377
 10
1572.6510286331177
 20
2290.80007508743
 10
1572.6510286331177
 20
2292.238967684791
 10
1572.6510286331177
 20
2293.757449875597
 10
1572.6510286331177
 20
2295.362309969983
 10
1572.6510286331177
 20
2297.0611694222353
 10
1572.6510286331177
 20
2298.8624984123476
 10
1572.6510286331177
 20
2300.775812639765
 10
1572.6510286331177
 20
2302.811936351375
 10
1572.6510286331177
 20
2304.983085724208
 10
1572.6510286331177
 20
2307.3031615566115
 10
1572.6510286331177
 20
2307.3320388793945
 10
1572.5716492191045
 20
2307.3036565156604
 10
1569.232776765723
 20
2306.0742816581273
 10
1567.2610467938966
 20
2303.992616392681
 10
1566.6509866714478
 20
2303.3320903778076
1001
BIMGUID
1000
MD_DOOR_GROUND_FLOOR_2
1001
BIMSRC
1000
type:wall
1000
ifc_class:IfcDoor
1000
element_name:Doors_IntSgl:810x2110mm
1000
storey:Ground Floor
1000
pos_x
1040
1.552650809288025
1000
pos_y
1040
2.2373316287994385
  0
LWPOLYLINE
  5
AB
330
17
100
AcDbEntity
  8
A-DOOR
370
25
100
AcDbPolyline
 90
9
 70
1
 10
1667.6510572433472
 20
2280.332088470459
 10
1613.4169780636523
 20
2280.332088470459
 10
1572.6510286331177
 20
2280.332088470459
 10
1572.6510286331177
 20
2298.882713086844
 10
1572.6510286331177
 20
2312.3319149017334
 10
1627.7235107629535
 20
2312.3319149017334
 10
1667.6510572433472
 20
2312.3319149017334
 10
1667.6510572433472
 20
2298.882713086844
 10
1667.6510572433472
 20
2280.332088470459
1001
BIMGUID
1000
MD_DOOR_GROUND_FLOOR_2
1001
BIMSRC
1000
type:wall
1000
ifc_class:IfcDoor
1000
element_name:Doors_IntSgl:810x2110mm
1000
storey:Ground Floor
1000
pos_x
1040
1.552650809288025
1000
pos_y
1040
2.2373316287994385
  0
LWPOLYLINE
  5
AC
330
17
100
AcDbEntity
  8
A-WALL-PRTN
370
35
100
AcDbPolyline
 90
9
 70
1
 10
1667.6520109176636
 20
3654.3168120348764
 10
1667.6520109176636
 20
4408.5822105407715
 10
1618.8297272046643
 20
4408.5822105407715
 10
1572.651982307434
 20
4408.5822105407715
 10
1572.651982307434
 20
3654.3168120348764
 10
1572.651982307434
 20
3082.332134246826
 10
1613.6235620462423
 20
3082.332134246826
 10
1667.6520109176636
 20
3082.332134246826
 10
1667.6520109176636
 20
3654.3168120348764
1001
BIMGUID
1000
MD_WALL_GROUND_FLOOR_3
1001
BIMSRC
1000
type:wall
1000
ifc_class:IfcWall
1000
element_name:Basic Wall:Wall-Partn_12P-70MStd-12P
1000
storey:Ground Floor
1000
pos_x
1040
1.572651982307434
1000
pos_y
1040
-1.1014180183410645
  0
LWPOLYLINE
  5
AD
330
17
100
AcDbEntity
  8
A-WALL-PATT
370
35
100
AcDbPolyline
 90
9
 70
1
 10
1667.6520109176636
 20
3654.3168120348764
 10
1667.6520109176636
 20
4408.5822105407715
 10
1618.8297272046643
 20
4408.5822105407715
 10
1572.651982307434
 20
4408.5822105407715
 10
1572.651982307434
 20
3654.3168120348764
 10
1572.651982307434
 20
3082.332134246826
 10
1613.6235620462423
 20
3082.332134246826
 10
1667.6520109176636
 20
3082.332134246826
 10
1667.6520109176636
 20
3654.3168120348764
  0
HATCH
  5
AE
330
17
100
AcDbEntity
  8
A-WALL-PATT
 62
0
100
AcDbHatch
 10
0.0
 20
0.0
 30
0.0
210
0.0
220
0.0
230
1.0
  2
SOLID
 70
1
 71
0
 91
1
 92
3
 72
0
 73
1
 93
9
 10
1667.6520109176636
 20
3654.3168120348764
 10
1667.6520109176636
 20
4408.5822105407715
 10
1618.8297272046643
 20
4408.5822105407715
 10
1572.651982307434
 20
4408.5822105407715
 10
1572.651982307434
 20
3654.3168120348764
 10
1572.651982307434
 20
3082.332134246826
 10
1613.6235620462423
 20
3082.332134246826
 10
1667.6520109176636
 20
3082.332134246826
 10
1667.6520109176636
 20
3654.3168120348764
 97
0
 75
1
 76
1
 98
0
  0
LWPOLYLINE
  5
AF
330
17
100
AcDbEntity
  8
A-WALL-PRTN
370
35
100
AcDbPolyline
 90
9
 70
1
 10
1667.6520109176636
 20
1413.0074592757371
 10
1667.6520109176636
 20
279.8321545124054
 10
1626.6804311788553
 20
279.8321545124054
 10
1572.651982307434
 20
279.8321545124054
 10
1572.651982307434
 20
1413.007459275737
 10
1572.651982307434
 20
2272.332191467285
 10
1626.6804311788553
 20
2272.332191467285
 10
1667.6520109176636
 20
2272.332191467285
 10
1667.6520109176636
 20
1413.007459275737
1001
BIMGUID
1000
MD_WALL_GROUND_FLOOR_3
1001
BIMSRC
1000
type:wall
1000
ifc_class:IfcWall
1000
element_name:Basic Wall:Wall-Partn_12P-70MStd-12P
1000
storey:Ground Floor
1000
pos_x
1040
1.572651982307434
1000
pos_y
1040
-1.1014180183410645
  0
LWPOLYLINE
  5
B0
330
17
100
AcDbEntity
  8
A-WALL-PATT
370
35
100
AcDbPolyline
 90
9
 70
1
 10
1667.6520109176636
 20
1413.0074592757371
 10
1667.6520109176636
 20
279.8321545124054
 10
1626.6804311788553
 20
279.8321545124054
 10
1572.651982307434
 20
279.8321545124054
 10
1572.651982307434
 20
1413.007459275737
 10
1572.651982307434
 20
2272.332191467285
 10
1626.6804311788553
 20
2272.332191467285
 10
1667.6520109176636
 20
2272.332191467285
 10
1667.6520109176636
 20
1413.007459275737
  0
HATCH
  5
B1
330
17
100
AcDbEntity
  8
A-WALL-PATT
 62
0
100
AcDbHatch
 10
0.0
 20
0.0
 30
0.0
210
0.0
220
0.0
230
1.0
  2
SOLID
 70
1
 71
0
 91
1
 92
3
 72
0
 73
1
 93
9
 10
1667.6520109176636
 20
1413.0074592757371
 10
1667.6520109176636
 20
279.8321545124054
 10
1626.6804311788553
 20
279.8321545124054
 10
1572.651982307434
 20
279.8321545124054
 10
1572.651982307434
 20
1413.007459275737
 10
1572.651982307434
 20
2272.332191467285
 10
1626.6804311788553
 20
2272.332191467285
 10
1667.6520109176636
 20
2272.332191467285
 10
1667.6520109176636
 20
1413.007459275737
 97
0
 75
1
 76
1
 98
0
  0
LWPOLYLINE
  5
B2
330
17
100
AcDbEntity
  8
A-WALL-PRTN
370
35
100
AcDbPolyline
 90
9
 70
1
 10
1667.6520109176636
 20
-776.5364084123663
 10
1667.6520109176636
 20
-530.167818069458
 10
1613.6235620462423
 20
-530.167818069458
 10
1572.651982307434
 20
-530.167818069458
 10
1572.651982307434
 20
-776.5364084123663
 10
1572.651982307434
 20
-1101.4180183410645
 10
1618.8297272046643
 20
-1101.4180183410645
 10
1667.6520109176636
 20
-1101.4180183410645
 10
1667.6520109176636
 20
-776.5364084123663
1001
BIMGUID
1000
MD_WALL_GROUND_FLOOR_3
1001
BIMSRC
1000
type:wall
1000
ifc_class:IfcWall
1000
element_name:Basic Wall:Wall-Partn_12P-70MStd-12P
1000
storey:Ground Floor
1000
pos_x
1040
1.572651982307434
1000
pos_y
1040
-1.1014180183410645
  0
LWPOLYLINE
  5
B3
330
17
100
AcDbEntity
  8
A-WALL-PATT
370
35
100
AcDbPolyline
 90
9
 70
1
 10
1667.6520109176636
 20
-776.5364084123663
 10
1667.6520109176636
 20
-530.167818069458
 10
1613.6235620462423
 20
-530.167818069458
 10
1572.651982307434
 20
-530.167818069458
 10
1572.651982307434
 20
-776.5364084123663
 10
1572.651982307434
 20
-1101.4180183410645
 10
1618.8297272046643
 20
-1101.4180183410645
 10
1667.6520109176636
 20
-1101.4180183410645
 10
1667.6520109176636
 20
-776.5364084123663
  0
HATCH
  5
B4
330
17
100
AcDbEntity
  8
A-WALL-PATT
 62
0
100
AcDbHatch
 10
0.0
 20
0.0
 30
0.0
210
0.0
220
0.0
230
1.0
  2
SOLID
 70
1
 71
0
 91
1
 92
3
 72
0
 73
1
 93
9
 10
1667.6520109176636
 20
-776.5364084123663
 10
1667.6520109176636
 20
-530.167818069458
 10
1613.6235620462423
 20
-530.167818069458
 10
1572.651982307434
 20
-530.167818069458
 10
1572.651982307434
 20
-776.5364084123663
 10
1572.651982307434
 20
-1101.4180183410645
 10
1618.8297272046643
 20
-1101.4180183410645
 10
1667.6520109176636
 20
-1101.4180183410645
 10
1667.6520109176636
 20
-776.5364084123663
 97
0
 75
1
 76
1
 98
0
  0
LWPOLYLINE
  5
B5
330
17
100
AcDbEntity
  8
A-WALL-PRTN
370
35
100
AcDbPolyline
 90
9
 70
1
 10
6120.151042938232
 20
946.0819959640503
 10
3955.8737105817177
 20
946.0819959640503
 10
1667.6510572433472
 20
946.0819959640503
 10
1667.6510572433472
 20
899.904280039528
 10
1667.6510572433472
 20
851.0820269584656
 10
3831.928389599862
 20
851.0820269584656
 10
6120.151042938232
 20
851.0820269584656
 10
6120.151042938232
 20
897.2597428829879
 10
6120.151042938232
 20
946.0819959640503
1001
BIMGUID
1000
MD_WALL_GROUND_FLOOR_4
1001
BIMSRC
1000
type:wall
1000
ifc_class:IfcWall
1000
element_name:Basic Wall:Wall-Partn_12P-70MStd-12P
1000
storey:Ground Floor
1000
pos_x
1040
1.667650818824768
1000
pos_y
1040
0.851081907749176
  0
LWPOLYLINE
  5
B6
330
17
100
AcDbEntity
  8
A-WALL-PATT
370
35
100
AcDbPolyline
 90
9
 70
1
 10
6120.151042938232
 20
946.0819959640503
 10
3955.8737105817177
 20
946.0819959640503
 10
1667.6510572433472
 20
946.0819959640503
 10
1667.6510572433472
 20
899.904280039528
 10
1667.6510572433472
 20
851.0820269584656
 10
3831.928389599862
 20
851.0820269584656
 10
6120.151042938232
 20
851.0820269584656
 10
6120.151042938232
 20
897.2597428829879
 10
6120.151042938232
 20
946.0819959640503
  0
HATCH
  5
B7
330
17
100
AcDbEntity
  8
A-WALL-PATT
 62
0
100
AcDbHatch
 10
0.0
 20
0.0
 30
0.0
210
0.0
220
0.0
230
1.0
  2
SOLID
 70
1
 71
0
 91
1
 92
3
 72
0
 73
1
 93
9
 10
6120.151042938232
 20
946.0819959640503
 10
3955.8737105817177
 20
946.0819959640503
 10
1667.6510572433472
 20
946.0819959640503
 10
1667.6510572433472
 20
899.904280039528
 10
1667.6510572433472
 20
851.0820269584656
 10
3831.928389599862
 20
851.0820269584656
 10
6120.151042938232
 20
851.0820269584656
 10
6120.151042938232
 20
897.2597428829879
 10
6120.151042938232
 20
946.0819959640503
 97
0
 75
1
 76
1
 98
0
  0
LWPOLYLINE
  5
B8
330
17
100
AcDbEntity
  8
A-GLAZ
370
25
100
AcDbPolyline
 90
12
 70
1
 10
3048.901081085205
 20
4579.814456378531
 10
3048.901081085205
 20
4565.581798553467
 10
3037.006821710392
 20
4565.581798553467
 10
2988.901138305664
 20
4565.581798553467
 10
2988.901138305664
 20
4630.750191470544
 10
2988.901138305664
 20
4648.581981658936
 10
2997.8019353268587
 20
4648.581981658936
 10
3028.9011001586914
 20
4648.581981658936
 10
3028.9011001586914
 20
4634.66597938739
 10
3028.9011001586914
 20
4583.581924438477
 10
3033.261721773201
 20
4583.581924438477
 10
3048.901081085205
 20
4583.581924438477
1001
BIMGUID
1000
MD_WINDOW_GROUND_FLOOR_4
1001
BIMSRC
1000
type:wall
1000
ifc_class:IfcWindow
1000
element_name:Windows_Sgl_Plain:1810x1210mm
1000
storey:Ground Floor
1000
pos_x
1040
2.963900566101074
1000
pos_y
1040
4.383581638336182
  0
LWPOLYLINE
  5
B9
330
17
100
AcDbEntity
  8
A-GLAZ
370
25
100
AcDbPolyline
 90
13
 70
1
 10
4738.901138305664
 20
4583.581924438477
 10
4754.540497617669
 20
4583.581924438477
 10
4758.901119232178
 20
4583.581924438477
 10
4758.901119232178
 20
4597.4979267100225
 10
4758.901119232178
 20
4648.581981658936
 10
4790.000284064011
 20
4648.581981658936
 10
4798.901081085205
 20
4648.581981658936
 10
4798.901081085205
 20
4630.750191470544
 10
4798.901081085205
 20
4565.581798553467
 10
4750.795397680477
 20
4565.581798553467
 10
4738.901138305664
 20
4565.581798553467
 10
4738.901138305664
 20
4569.3492666134125
 10
4738.901138305664
 20
4583.581924438477
1001
BIMGUID
1000
MD_WINDOW_GROUND_FLOOR_4
1001
BIMSRC
1000
type:wall
1000
ifc_class:IfcWindow
1000
element_name:Windows_Sgl_Plain:1810x1210mm
1000
storey:Ground Floor
1000
pos_x
1040
2.963900566101074
1000
pos_y
1040
4.383581638336182
  0
LWPOLYLINE
  5
BA
330
17
100
AcDbEntity
  8
A-GLAZ
370
25
100
AcDbPolyline
 90
36
 70
1
 10
3048.901081085205
 20
4579.814456378531
 10
3048.901081085205
 20
4583.581924438477
 10
3058.75301361084
 20
4583.581924438477
 10
3060.7798682263983
 20
4586.476587495768
 10
3068.9010620117188
 20
4598.074913024902
 10
3068.9010620117188
 20
4609.799405662045
 10
3068.9010620117188
 20
4612.582206726074
 10
3060.897212643749
 20
4612.582206726074
 10
3058.901071548462
 20
4612.582206726074
 10
4398.7289724544635
 20
4612.582206726074
 10
4728.900909423828
 20
4612.582206726074
 10
4728.900909423828
 20
4631.836972444248
 10
4728.900909423828
 20
4636.581897735596
 10
3389.0730085178257
 20
4636.581897735596
 10
3058.901071548462
 20
4636.581897735596
 10
3058.901071548462
 20
4617.327132017422
 10
3058.901071548462
 20
4612.582206726074
 10
3058.901071548462
 20
4631.836972444248
 10
3058.901071548462
 20
4636.581897735596
 10
3067.001353213475
 20
4636.581897735596
 10
3068.9010620117188
 20
4636.581897735596
 10
3068.9010620117188
 20
4650.946173917454
 10
3068.9010620117188
 20
4654.355525970459
 10
3055.037234532441
 20
4658.943645170685
 10
3051.45525932312
 20
4660.129070281982
 10
3047.147286471699
 20
4660.129070281982
 10
3029.6857357025146
 20
4660.129070281982
 10
3027.4034744750998
 20
4658.90726283884
 10
3018.9011096954346
 20
4654.355525970459
 10
3018.9011096954346
 20
4649.847345900854
 10
3018.9011096954346
 20
4648.581981658936
 10
3026.7793473337806
 20
4648.581981658936
 10
3028.9011001586914
 20
4648.581981658936
 10
3028.9011001586914
 20
4597.4979267100225
 10
3028.9011001586914
 20
4583.581924438477
 10
3053.0121449352673
 20
4583.581924438477
1001
BIMGUID
1000
MD_WINDOW_GROUND_FLOOR_4
1001
BIMSRC
1000
type:wall
1000
ifc_class:IfcWindow
1000
element_name:Windows_Sgl_Plain:1810x1210mm
1000
storey:Ground Floor
1000
pos_x
1040
2.963900566101074
1000
pos_y
1040
4.383581638336182
  0
LWPOLYLINE
  5
BB
330
17
100
AcDbEntity
  8
A-GLAZ
370
25
100
AcDbPolyline
 90
26
 70
1
 10
4753.370945474423
 20
4660.129070281982
 10
4736.34672164917
 20
4660.129070281982
 10
4732.764795391992
 20
4658.943645170685
 10
4718.90115737915
 20
4654.355525970459
 10
4718.90115737915
 20
4639.991249788601
 10
4718.90115737915
 20
4636.581897735596
 10
4726.9048159202985
 20
4636.581897735596
 10
4728.900909423828
 20
4636.581897735596
 10
4728.900909423828
 20
4617.327132017422
 10
4728.900909423828
 20
4612.582206726074
 10
4720.800820884764
 20
4612.582206726074
 10
4718.90115737915
 20
4612.582206726074
 10
4718.90115737915
 20
4600.857714088932
 10
4718.90115737915
 20
4598.074913024902
 10
4727.022351164471
 20
4586.476587495768
 10
4729.049205780029
 20
4583.581924438477
 10
4734.790074455602
 20
4583.581924438477
 10
4758.901119232178
 20
4583.581924438477
 10
4758.901119232178
 20
4634.66597938739
 10
4758.901119232178
 20
4648.581981658936
 10
4766.689645822883
 20
4648.581981658936
 10
4768.9008712768555
 20
4648.581981658936
 10
4768.9008712768555
 20
4653.090161728541
 10
4768.9008712768555
 20
4654.355525970459
 10
4760.39850649719
 20
4658.90726283884
 10
4758.116245269775
 20
4660.129070281982
1001
BIMGUID
1000
MD_WINDOW_GROUND_FLOOR_4
1001
BIMSRC
1000
type:wall
1000
ifc_class:IfcWindow
1000
element_name:Windows_Sgl_Plain:1810x1210mm
1000
storey:Ground Floor
1000
pos_x
1040
2.963900566101074
1000
pos_y
1040
4.383581638336182
  0
LWPOLYLINE
  5
BC
330
17
100
AcDbEntity
  8
A-DOOR
370
25
100
AcDbPolyline
 90
13
 70
1
 10
3059.401035308838
 20
-1126.4179944992065
 10
3029.58508418885
 20
-1126.4179944992065
 10
2988.901138305664
 20
-1126.4179944992065
 10
2988.901138305664
 20
-1165.8195911950538
 10
2988.901138305664
 20
-1215.417981147766
 10
3016.5825260179117
 20
-1215.417981147766
 10
3037.400960922241
 20
-1215.417981147766
 10
3037.400960922241
 20
-1188.5926599083252
 10
3037.400960922241
 20
-1168.418049812317
 10
3050.096721821439
 20
-1168.418049812317
 10
3059.401035308838
 20
-1168.418049812317
 10
3059.401035308838
 20
-1144.1807381269896
 10
3059.401035308838
 20
-1126.4179944992065
1001
BIMGUID
1000
MD_DOOR_GROUND_FLOOR_3
1001
BIMSRC
1000
type:wall
1000
ifc_class:IfcDoor
1000
element_name:Doors_ExtDbl_Flush:1810x2110mm
1000
storey:Ground Floor
1000
pos_x
1040
2.963900566101074
1000
pos_y
1040
-1.2704180479049683
  0
LWPOLYLINE
  5
BD
330
17
100
AcDbEntity
  8
A-DOOR
370
25
100
AcDbPolyline
 90
13
 70
1
 10
4728.401184082031
 20
-1144.1807381269896
 10
4728.401184082031
 20
-1168.418049812317
 10
4737.705396736989
 20
-1168.418049812317
 10
4750.401020050049
 20
-1168.418049812317
 10
4750.401020050049
 20
-1188.5926599083252
 10
4750.401020050049
 20
-1215.417981147766
 10
4771.219557294993
 20
-1215.417981147766
 10
4798.901081085205
 20
-1215.417981147766
 10
4798.901081085205
 20
-1176.0163844519188
 10
4798.901081085205
 20
-1126.4179944992065
 10
4758.21713520202
 20
-1126.4179944992065
 10
4728.401184082031
 20
-1126.4179944992065
 10
4728.401184082031
 20
-1144.1807381269896
1001
BIMGUID
1000
MD_DOOR_GROUND_FLOOR_3
1001
BIMSRC
1000
type:wall
1000
ifc_class:IfcDoor
1000
element_name:Doors_ExtDbl_Flush:1810x2110mm
1000
storey:Ground Floor
1000
pos_x
1040
2.963900566101074
1000
pos_y
1040
-1.2704180479049683
  0
LWPOLYLINE
  5
BE
330
17
100
AcDbEntity
  8
A-DOOR
370
25
100
AcDbPolyline
 90
9
 70
1
 10
3895.4010009765625
 20
-1171.4179515838623
 10
4381.6801937946875
 20
-1171.4179515838623
 10
4747.401237487793
 20
-1171.4179515838623
 10
4747.401237487793
 20
-1196.5309714439534
 10
4747.401237487793
 20
-1215.417981147766
 10
4261.122044669668
 20
-1215.417981147766
 10
3895.4010009765625
 20
-1215.417981147766
 10
3895.4010009765625
 20
-1190.304961287675
 10
3895.4010009765625
 20
-1171.4179515838623
1001
BIMGUID
1000
MD_DOOR_GROUND_FLOOR_3
1001
BIMSRC
1000
type:wall
1000
ifc_class:IfcDoor
1000
element_name:Doors_ExtDbl_Flush:1810x2110mm
1000
storey:Ground Floor
1000
pos_x
1040
2.963900566101074
1000
pos_y
1040
-1.2704180479049683
  0
LWPOLYLINE
  5
BF
330
17
100
AcDbEntity
  8
A-DOOR
370
25
100
AcDbPolyline
 90
9
 70
1
 10
3040.400981903076
 20
-1215.417981147766
 10
3040.400981903076
 20
-1196.5309714439534
 10
3040.400981903076
 20
-1171.4179515838623
 10
3526.6800386437803
 20
-1171.4179515838623
 10
3892.4009799957275
 20
-1171.4179515838623
 10
3892.4009799957275
 20
-1190.304961287675
 10
3892.4009799957275
 20
-1215.417981147766
 10
3406.1219232550234
 20
-1215.417981147766
 10
3040.400981903076
 20
-1215.417981147766
1001
BIMGUID
1000
MD_DOOR_GROUND_FLOOR_3
1001
BIMSRC
1000
type:wall
1000
ifc_class:IfcDoor
1000
element_name:Doors_ExtDbl_Flush:1810x2110mm
1000
storey:Ground Floor
1000
pos_x
1040
2.963900566101074
1000
pos_y
1040
-1.2704180479049683
  0
LWPOLYLINE
  5
C0
330
17
100
AcDbEntity
  8
A-WALL-FULL
370
50
100
AcDbPolyline
 90
27
 70
1
 10
6410.15100479126
 20
-340.39854322603856
 10
6410.15100479126
 20
-486.3320154530859
 10
6410.15100479126
 20
-665.6763622404806
 10
6410.15100479126
 20
-839.317395397689
 10
6410.15100479126
 20
-1013.2459858999554
 10
6410.15100479126
 20
-1194.2964503871353
 10
6410.15100479126
 20
-1391.4179801940918
 10
6280.128484513791
 20
-1391.4179801940918
 10
6120.151042938232
 20
-1391.4179801940918
 10
6120.151042938232
 20
-1300.197420038073
 10
6120.151042938232
 20
-1159.2337228245551
 10
6120.151042938232
 20
-97.9917407340275
 10
6120.151042938232
 20
851.0820865631104
 10
6120.151042938232
 20
899.9043702761095
 10
6120.151042938232
 20
946.0821151733398
 10
6120.151042938232
 20
2629.1389357825087
 10
6120.151042938232
 20
4408.5822105407715
 10
6177.966985840302
 20
4408.5822105407715
 10
6318.930567162988
 20
4408.5822105407715
 10
6410.15100479126
 20
4408.5822105407715
 10
6410.15100479126
 20
4206.686389645405
 10
6410.15100479126
 20
4025.6246178142464
 10
6410.15100479126
 20
3854.790749920546
 10
6410.15100479126
 20
3686.7026139861027
 10
6410.15100479126
 20
3515.293971809431
 10
6410.15100479126
 20
3376.809472981079
 10
6410.15100479126
 20
-340.39854322603816
1001
BIMGUID
1000
MD_WALL_GROUND_FLOOR_5
1001
BIMSRC
1000
type:wall
1000
ifc_class:IfcWall
1000
element_name:Basic Wall:Wall-Ext_102Bwk-75Ins-100LBlk-12P
1000
storey:Ground Floor
1000
pos_x
1040
6.120150089263916
1000
pos_y
1040
-1.391418218612671
  0
LWPOLYLINE
  5
C1
330
17
100
AcDbEntity
  8
A-WALL-PATT
370
50
100
AcDbPolyline
 90
27
 70
1
 10
6410.15100479126
 20
-340.39854322603856
 10
6410.15100479126
 20
-486.3320154530859
 10
6410.15100479126
 20
-665.6763622404806
 10
6410.15100479126
 20
-839.317395397689
 10
6410.15100479126
 20
-1013.2459858999554
 10
6410.15100479126
 20
-1194.2964503871353
 10
6410.15100479126
 20
-1391.4179801940918
 10
6280.128484513791
 20
-1391.4179801940918
 10
6120.151042938232
 20
-1391.4179801940918
 10
6120.151042938232
 20
-1300.197420038073
 10
6120.151042938232
 20
-1159.2337228245551
 10
6120.151042938232
 20
-97.9917407340275
 10
6120.151042938232
 20
851.0820865631104
 10
6120.151042938232
 20
899.9043702761095
 10
6120.151042938232
 20
946.0821151733398
 10
6120.151042938232
 20
2629.1389357825087
 10
6120.151042938232
 20
4408.5822105407715
 10
6177.966985840302
 20
4408.5822105407715
 10
6318.930567162988
 20
4408.5822105407715
 10
6410.15100479126
 20
4408.5822105407715
 10
6410.15100479126
 20
4206.686389645405
 10
6410.15100479126
 20
4025.6246178142464
 10
6410.15100479126
 20
3854.790749920546
 10
6410.15100479126
 20
3686.7026139861027
 10
6410.15100479126
 20
3515.293971809431
 10
6410.15100479126
 20
3376.809472981079
 10
6410.15100479126
 20
-340.39854322603816
  0
HATCH
  5
C2
330
17
100
AcDbEntity
  8
A-WALL-PATT
 62
0
100
AcDbHatch
 10
0.0
 20
0.0
 30
0.0
210
0.0
220
0.0
230
1.0
  2
BRICK
 70
0
 71
0
 91
1
 92
3
 72
0
 73
1
 93
27
 10
6410.15100479126
 20
-340.39854322603856
 10
6410.15100479126
 20
-486.3320154530859
 10
6410.15100479126
 20
-665.6763622404806
 10
6410.15100479126
 20
-839.317395397689
 10
6410.15100479126
 20
-1013.2459858999554
 10
6410.15100479126
 20
-1194.2964503871353
 10
6410.15100479126
 20
-1391.4179801940918
 10
6280.128484513791
 20
-1391.4179801940918
 10
6120.151042938232
 20
-1391.4179801940918
 10
6120.151042938232
 20
-1300.197420038073
 10
6120.151042938232
 20
-1159.2337228245551
 10
6120.151042938232
 20
-97.9917407340275
 10
6120.151042938232
 20
851.0820865631104
 10
6120.151042938232
 20
899.9043702761095
 10
6120.151042938232
 20
946.0821151733398
 10
6120.151042938232
 20
2629.1389357825087
 10
6120.151042938232
 20
4408.5822105407715
 10
6177.966985840302
 20
4408.5822105407715
 10
6318.930567162988
 20
4408.5822105407715
 10
6410.15100479126
 20
4408.5822105407715
 10
6410.15100479126
 20
4206.686389645405
 10
6410.15100479126
 20
4025.6246178142464
 10
6410.15100479126
 20
3854.790749920546
 10
6410.15100479126
 20
3686.7026139861027
 10
6410.15100479126
 20
3515.293971809431
 10
6410.15100479126
 20
3376.809472981079
 10
6410.15100479126
 20
-340.39854322603816
 97
0
 75
1
 76
1
 52
0.0
 41
1.0
 77
0
 78
2
 53
45.0
 43
0.0
 44
0.0
 45
0.0
 46
3.0
 79
0
 53
45.0
 43
0.0
 44
1.0
 45
0.0
 46
3.0
 79
0
 98
0
  0
LWPOLYLINE
  5
C3
330
17
100
AcDbEntity
  8
A-FURN
370
15
100
AcDbPolyline
 90
4
 70
1
 10
-7749.849796295166
 20
2538.581609725952
 10
-7719.847202301025
 20
2538.581609725952
 10
-7719.847202301025
 20
4378.582000732422
 10
-7749.849796295166
 20
4378.582000732422
1001
BIMGUID
1000
STR_MD_MEMBER_UNKNOWN_9
  0
LWPOLYLINE
  5
C4
330
17
100
AcDbEntity
  8
A-FURN
370
15
100
AcDbPolyline
 90
4
 70
1
 10
-7749.849796295166
 20
653.581976890564
 10
-7719.847202301025
 20
653.581976890564
 10
-7719.847202301025
 20
2508.58211517334
 10
-7749.849796295166
 20
2508.58211517334
1001
BIMGUID
1000
STR_MD_MEMBER_UNKNOWN_6
  0
LWPOLYLINE
  5
C5
330
17
100
AcDbEntity
  8
A-FURN
370
15
100
AcDbPolyline
 90
4
 70
1
 10
-7749.849796295166
 20
-1216.4180278778076
 10
-7719.847202301025
 20
-1216.4180278778076
 10
-7719.847202301025
 20
623.5820055007935
 10
-7749.849796295166
 20
623.5820055007935
1001
BIMGUID
1000
STR_MD_MEMBER_UNKNOWN_3
  0
LWPOLYLINE
  5
C6
330
17
100
AcDbEntity
  8
A-FURN
370
15
100
AcDbPolyline
 90
4
 70
1
 10
-7704.849720001221
 20
-1261.418104171753
 10
-6116.514205932617
 20
-1261.418104171753
 10
-6116.514205932617
 20
-1231.4178943634033
 10
-7704.849720001221
 20
-1231.4178943634033
1001
BIMGUID
1000
STR_MD_MEMBER_UNKNOWN_12
  0
LWPOLYLINE
  5
C7
330
17
100
AcDbEntity
  8
A-FURN
370
15
100
AcDbPolyline
 90
4
 70
1
 10
-7510.283946990967
 20
2526.4229774475098
 10
-6082.210063934326
 20
2526.4229774475098
 10
-6082.210063934326
 20
3926.786422729492
 10
-7510.283946990967
 20
3926.786422729492
1001
BIMGUID
1000
FIXTURE_MD_FURN_1_Ground Floor
  0
LWPOLYLINE
  5
C8
330
17
100
AcDbEntity
  8
A-FURN
370
15
100
AcDbPolyline
 90
4
 70
1
 10
-6409.012794494629
 20
-58.76000598073006
 10
-4409.010887145996
 20
-58.76000598073006
 10
-4409.010887145996
 20
941.2400126457214
 10
-6409.012794494629
 20
941.2400126457214
1001
BIMGUID
1000
FIXTURE_MD_FURN_3_Ground Floor
  0
LWPOLYLINE
  5
C9
330
17
100
AcDbEntity
  8
A-FURN
370
15
100
AcDbPolyline
 90
4
 70
1
 10
-6086.516857147217
 20
-1261.418104171753
 10
-4483.180999755859
 20
-1261.418104171753
 10
-4483.180999755859
 20
-1231.4178943634033
 10
-6086.516857147217
 20
-1231.4178943634033
1001
BIMGUID
1000
STR_MD_MEMBER_UNKNOWN_15
  0
LWPOLYLINE
  5
CA
330
17
100
AcDbEntity
  8
A-FURN
370
15
100
AcDbPolyline
 90
4
 70
1
 10
-5771.230220794678
 20
3342.1249389648438
 10
-3484.3475818634033
 20
3342.1249389648438
 10
-3484.3475818634033
 20
4319.394111633301
 10
-5771.230220794678
 20
4319.394111633301
1001
BIMGUID
1000
FIXTURE_MD_FURN_6_Ground Floor
  0
LWPOLYLINE
  5
CB
330
17
100
AcDbEntity
  8
A-FURN
370
15
100
AcDbPolyline
 90
4
 70
1
 10
-5134.849071502686
 20
2433.581829071045
 10
-3934.847593307495
 20
2433.581829071045
 10
-3934.847593307495
 20
2983.583450317383
 10
-5134.849071502686
 20
2983.583450317383
1001
BIMGUID
1000
FIXTURE_MD_FURN_9_Ground Floor
  0
LWPOLYLINE
  5
CC
330
17
100
AcDbEntity
  8
A-FURN
370
15
100
AcDbPolyline
 90
4
 70
1
 10
-4453.182220458984
 20
-1261.418104171753
 10
-2864.8478984832764
 20
-1261.418104171753
 10
-2864.8478984832764
 20
-1231.4178943634033
 10
-4453.182220458984
 20
-1231.4178943634033
1001
BIMGUID
1000
STR_MD_MEMBER_UNKNOWN_18
  0
LWPOLYLINE
  5
CD
330
17
100
AcDbEntity
  8
A-FURN
370
15
100
AcDbPolyline
 90
4
 70
1
 10
-3124.985456466675
 20
2628.499984741211
 10
-1701.278805732727
 20
2628.499984741211
 10
-1701.278805732727
 20
4017.6334381103516
 10
-3124.985456466675
 20
4017.6334381103516
1001
BIMGUID
1000
FIXTURE_MD_FURN_11_Ground Floor
  0
LWPOLYLINE
  5
CE
330
17
100
AcDbEntity
  8
A-FURN
370
15
100
AcDbPolyline
 90
4
 70
1
 10
-13.148000463843346
 20
3808.581590652466
 10
1358.4522008895874
 20
3808.581590652466
 10
1358.4522008895874
 20
4408.583164215088
 10
-13.148000463843346
 20
4408.583164215088
1001
BIMGUID
1000
FIXTURE_MD_FURN_12_Ground Floor
  0
LWPOLYLINE
  5
CF
330
17
100
AcDbEntity
  8
A-FURN
370
15
100
AcDbPolyline
 90
4
 70
1
 10
4113.150596618652
 20
946.0819959640503
 10
6120.152950286865
 20
946.0819959640503
 10
6120.152950286865
 20
2746.0830211639404
 10
4113.150596618652
 20
2746.0830211639404
1001
BIMGUID
1000
FIXTURE_MD_FURN_13_Ground Floor
  0
LWPOLYLINE
  5
D0
330
17
100
AcDbEntity
  8
A-FURN
370
15
100
AcDbPolyline
 90
4
 70
1
 10
4536.1008644104
 20
3547.5316047668457
 10
6099.2021560668945
 20
3547.5316047668457
 10
6099.2021560668945
 20
4366.683006286621
 10
4536.1008644104
 20
4366.683006286621
1001
BIMGUID
1000
FIXTURE_MD_FURN_14_Ground Floor
  0
LINE
  5
D1
330
17
100
AcDbEntity
  8
A-DOOR
370
25
100
AcDbLine
 10
2963.900566101074
 20
-1246.418058872223
 30
0.0
 11
4823.902130126953
 21
-1246.418058872223
 31
0.0
  0
ARC
  5
D2
330
17
100
AcDbEntity
  8
A-DOOR
370
25
100
AcDbCircle
 10
2963.900566101074
 20
-1246.418058872223
 30
0.0
 40
1860.001564025879
100
AcDbArc
 50
0.0
 51
90.0
  0
LINE
  5
D3
330
17
100
AcDbEntity
  8
A-DOOR
370
25
100
AcDbLine
 10
1620.1519966125488
 20
-565.168023109436
 30
0.0
 11
1620.1519966125488
 21
314.83200192451477
 31
0.0
  0
ARC
  5
D4
330
17
100
AcDbEntity
  8
A-DOOR
370
25
100
AcDbCircle
 10
1620.1519966125488
 20
-565.168023109436
 30
0.0
 40
880.0000250339508
100
AcDbArc
 50
90.0
 51
180.0
  0
LINE
  5
D5
330
17
100
AcDbEntity
  8
A-DOOR
370
25
100
AcDbLine
 10
1620.1519966125488
 20
2237.3316287994385
 30
0.0
 11
1620.1519966125488
 21
3117.33341217041
 31
0.0
  0
ARC
  5
D6
330
17
100
AcDbEntity
  8
A-DOOR
370
25
100
AcDbCircle
 10
1620.1519966125488
 20
2237.3316287994385
 30
0.0
 40
880.0017833709717
100
AcDbArc
 50
90.0
 51
180.0
  0
LINE
  5
D7
330
17
100
AcDbEntity
  8
A-GLAZ
370
25
100
AcDbLine
 10
-6159.849166870117
 20
4466.581630706787
 30
0.0
 11
-4299.847602844238
 21
4466.581630706787
 31
0.0
  0
LINE
  5
D8
330
17
100
AcDbEntity
  8
A-GLAZ
370
25
100
AcDbLine
 10
-6159.849166870117
 20
4640.582752227783
 30
0.0
 11
-4299.847602844238
 21
4640.582752227783
 31
0.0
  0
LINE
  5
D9
330
17
100
AcDbEntity
  8
A-GLAZ
370
18
100
AcDbLine
 10
-6159.849166870117
 20
4553.582191467285
 30
0.0
 11
-4299.847602844238
 21
4553.582191467285
 31
0.0
  0
LINE
  5
DA
330
17
100
AcDbEntity
  8
A-GLAZ
370
25
100
AcDbLine
 10
-2162.349224090576
 20
4466.581630706787
 30
0.0
 11
-302.34798789024353
 21
4466.581630706787
 31
0.0
  0
LINE
  5
DB
330
17
100
AcDbEntity
  8
A-GLAZ
370
25
100
AcDbLine
 10
-2162.349224090576
 20
4640.582752227783
 30
0.0
 11
-302.34798789024353
 21
4640.582752227783
 31
0.0
  0
LINE
  5
DC
330
17
100
AcDbEntity
  8
A-GLAZ
370
18
100
AcDbLine
 10
-2162.349224090576
 20
4553.582191467285
 30
0.0
 11
-302.34798789024353
 21
4553.582191467285
 31
0.0
  0
LINE
  5
DD
330
17
100
AcDbEntity
  8
A-GLAZ
370
25
100
AcDbLine
 10
-1561.0990524291992
 20
-1333.4181547164917
 30
0.0
 11
298.9020049571991
 21
-1333.4181547164917
 31
0.0
  0
LINE
  5
DE
330
17
100
AcDbEntity
  8
A-GLAZ
370
25
100
AcDbLine
 10
-1561.0990524291992
 20
-1159.417963027954
 30
0.0
 11
298.9020049571991
 21
-1159.417963027954
 31
0.0
  0
LINE
  5
DF
330
17
100
AcDbEntity
  8
A-GLAZ
370
18
100
AcDbLine
 10
-1561.0990524291992
 20
-1246.418058872223
 30
0.0
 11
298.9020049571991
 21
-1246.418058872223
 31
0.0
  0
LINE
  5
E0
330
17
100
AcDbEntity
  8
A-GLAZ
370
25
100
AcDbLine
 10
2963.900566101074
 20
4466.581630706787
 30
0.0
 11
4823.902130126953
 21
4466.581630706787
 31
0.0
  0
LINE
  5
E1
330
17
100
AcDbEntity
  8
A-GLAZ
370
25
100
AcDbLine
 10
2963.900566101074
 20
4640.582752227783
 30
0.0
 11
4823.902130126953
 21
4640.582752227783
 31
0.0
  0
LINE
  5
E2
330
17
100
AcDbEntity
  8
A-GLAZ
370
18
100
AcDbLine
 10
2963.900566101074
 20
4553.582191467285
 30
0.0
 11
4823.902130126953
 21
4553.582191467285
 31
0.0
  0
LINE
  5
E3
330
17
100
AcDbEntity
  8
A-GRID
370
18
100
AcDbLine
 10
-7734.8480224609375
 20
-4228.91800403595
 30
0.0
 11
-7734.8480224609375
 21
9336.083030700684
 31
0.0
1001
BIMGUID
1000
GRID:A
1001
BIMSRC
1000
type:GRID
1000
label:A
1000
axis:x
1000
pos
1040
-7.7348480224609375
1000
source_guids:
1000
intent_param:position_x
  0
HATCH
  5
E4
330
17
100
AcDbEntity
  8
A-GRID
 62
7
100
AcDbHatch
 10
0.0
 20
0.0
 30
0.0
210
0.0
220
0.0
230
1.0
  2
SOLID
 70
1
 71
0
 91
1
 92
3
 72
0
 73
1
 93
36
 10
-7334.8480224609375
 20
8936.083030700684
 10
-7340.924921256054
 20
9005.542301767457
 10
-7358.970974146574
 20
9072.89108803095
 10
-7388.437860947162
 20
9136.083030700684
 10
-7428.430245213346
 20
9193.198074575299
 10
-7477.732978586322
 20
9242.500807948274
 10
-7534.8480224609375
 20
9282.493192214459
 10
-7598.03996513067
 20
9311.960079015047
 10
-7665.388751394165
 20
9330.006131905568
 10
-7734.8480224609375
 20
9336.083030700684
 10
-7804.30729352771
 20
9330.006131905568
 10
-7871.656079791205
 20
9311.960079015047
 10
-7934.8480224609375
 20
9282.493192214459
 10
-7991.963066335553
 20
9242.500807948274
 10
-8041.265799708529
 20
9193.198074575299
 10
-8081.258183974713
 20
9136.083030700684
 10
-8110.725070775301
 20
9072.89108803095
 10
-8128.771123665821
 20
9005.542301767457
 10
-8134.8480224609375
 20
8936.083030700684
 10
-8128.771123665821
 20
8866.623759633912
 10
-8110.725070775301
 20
8799.274973370417
 10
-8081.258183974713
 20
8736.083030700684
 10
-8041.265799708529
 20
8678.967986826068
 10
-7991.963066335553
 20
8629.665253453093
 10
-7934.8480224609375
 20
8589.672869186908
 10
-7871.656079791205
 20
8560.20598238632
 10
-7804.30729352771
 20
8542.1599294958
 10
-7734.8480224609375
 20
8536.083030700684
 10
-7665.388751394165
 20
8542.1599294958
 10
-7598.03996513067
 20
8560.20598238632
 10
-7534.8480224609375
 20
8589.672869186908
 10
-7477.732978586322
 20
8629.665253453093
 10
-7428.430245213346
 20
8678.967986826068
 10
-7388.437860947162
 20
8736.083030700684
 10
-7358.970974146574
 20
8799.274973370417
 10
-7340.924921256054
 20
8866.62375963391
 97
0
 75
1
 76
1
 98
0
  0
CIRCLE
  5
E5
330
17
100
AcDbEntity
  8
A-GRID
370
25
100
AcDbCircle
 10
-7734.8480224609375
 20
8936.083030700684
 30
0.0
 40
400.0
  0
TEXT
  5
E6
330
17
100
AcDbEntity
  8
A-ANNO-TEXT
100
AcDbText
 10
-7734.8480224609375
 20
8936.083030700684
 30
0.0
 40
350.0
  1
A
 72
1
 11
-7734.8480224609375
 21
8936.083030700684
 31
0.0
100
AcDbText
 73
2
  0
HATCH
  5
E7
330
17
100
AcDbEntity
  8
A-GRID
 62
7
100
AcDbHatch
 10
0.0
 20
0.0
 30
0.0
210
0.0
220
0.0
230
1.0
  2
SOLID
 70
1
 71
0
 91
1
 92
3
 72
0
 73
1
 93
36
 10
-7334.8480224609375
 20
-3828.9180040359497
 10
-7340.924921256054
 20
-3759.4587329691776
 10
-7358.970974146574
 20
-3692.1099467056824
 10
-7388.437860947162
 20
-3628.9180040359497
 10
-7428.430245213346
 20
-3571.802960161334
 10
-7477.732978586322
 20
-3522.5002267883583
 10
-7534.8480224609375
 20
-3482.507842522174
 10
-7598.03996513067
 20
-3453.040955721586
 10
-7665.388751394165
 20
-3434.9949028310666
 10
-7734.8480224609375
 20
-3428.9180040359497
 10
-7804.30729352771
 20
-3434.9949028310666
 10
-7871.656079791205
 20
-3453.040955721586
 10
-7934.8480224609375
 20
-3482.507842522174
 10
-7991.963066335553
 20
-3522.5002267883583
 10
-8041.265799708529
 20
-3571.802960161334
 10
-8081.258183974713
 20
-3628.9180040359497
 10
-8110.725070775301
 20
-3692.109946705682
 10
-8128.771123665821
 20
-3759.4587329691776
 10
-8134.8480224609375
 20
-3828.9180040359497
 10
-8128.771123665821
 20
-3898.377275102722
 10
-8110.725070775301
 20
-3965.726061366217
 10
-8081.258183974713
 20
-4028.9180040359497
 10
-8041.265799708529
 20
-4086.033047910565
 10
-7991.963066335553
 20
-4135.335781283541
 10
-7934.8480224609375
 20
-4175.328165549725
 10
-7871.656079791205
 20
-4204.795052350313
 10
-7804.30729352771
 20
-4222.841105240833
 10
-7734.8480224609375
 20
-4228.91800403595
 10
-7665.388751394165
 20
-4222.841105240833
 10
-7598.03996513067
 20
-4204.795052350313
 10
-7534.8480224609375
 20
-4175.328165549725
 10
-7477.732978586322
 20
-4135.335781283541
 10
-7428.430245213346
 20
-4086.0330479105655
 10
-7388.437860947162
 20
-4028.9180040359497
 10
-7358.970974146574
 20
-3965.726061366217
 10
-7340.924921256054
 20
-3898.377275102722
 97
0
 75
1
 76
1
 98
0
  0
CIRCLE
  5
E8
330
17
100
AcDbEntity
  8
A-GRID
370
25
100
AcDbCircle
 10
-7734.8480224609375
 20
-3828.9180040359497
 30
0.0
 40
400.0
  0
TEXT
  5
E9
330
17
100
AcDbEntity
  8
A-ANNO-TEXT
100
AcDbText
 10
-7734.8480224609375
 20
-3828.9180040359497
 30
0.0
 40
350.0
  1
A
 72
1
 11
-7734.8480224609375
 21
-3828.9180040359497
 31
0.0
100
AcDbText
 73
2
  0
LINE
  5
EA
330
17
100
AcDbEntity
  8
A-GRID
370
18
100
AcDbLine
 10
-2834.848022460937
 20
-4228.91800403595
 30
0.0
 11
-2834.848022460937
 21
9336.083030700684
 31
0.0
1001
BIMGUID
1000
GRID:B
1001
BIMSRC
1000
type:GRID
1000
label:B
1000
axis:x
1000
pos
1040
-2.834848022460937
1000
source_guids:MD_WALL_GROUND_FLOOR_2
1000
intent_param:position_x
  0
HATCH
  5
EB
330
17
100
AcDbEntity
  8
A-GRID
 62
7
100
AcDbHatch
 10
0.0
 20
0.0
 30
0.0
210
0.0
220
0.0
230
1.0
  2
SOLID
 70
1
 71
0
 91
1
 92
3
 72
0
 73
1
 93
36
 10
-2434.848022460937
 20
8936.083030700684
 10
-2440.924921256054
 20
9005.542301767457
 10
-2458.9709741465736
 20
9072.89108803095
 10
-2488.4378609471614
 20
9136.083030700684
 10
-2528.4302452133456
 20
9193.198074575299
 10
-2577.732978586321
 20
9242.500807948274
 10
-2634.848022460937
 20
9282.493192214459
 10
-2698.0399651306693
 20
9311.960079015047
 10
-2765.388751394165
 20
9330.006131905568
 10
-2834.848022460937
 20
9336.083030700684
 10
-2904.307293527709
 20
9330.006131905568
 10
-2971.6560797912043
 20
9311.960079015047
 10
-3034.848022460937
 20
9282.493192214459
 10
-3091.963066335553
 20
9242.500807948274
 10
-3141.265799708528
 20
9193.198074575299
 10
-3181.2581839747127
 20
9136.083030700684
 10
-3210.7250707753005
 20
9072.89108803095
 10
-3228.77112366582
 20
9005.542301767457
 10
-3234.848022460937
 20
8936.083030700684
 10
-3228.77112366582
 20
8866.623759633912
 10
-3210.7250707753005
 20
8799.274973370417
 10
-3181.2581839747127
 20
8736.083030700684
 10
-3141.2657997085284
 20
8678.967986826068
 10
-3091.963066335553
 20
8629.665253453093
 10
-3034.848022460937
 20
8589.672869186908
 10
-2971.6560797912043
 20
8560.20598238632
 10
-2904.307293527709
 20
8542.1599294958
 10
-2834.848022460937
 20
8536.083030700684
 10
-2765.388751394165
 20
8542.1599294958
 10
-2698.0399651306693
 20
8560.20598238632
 10
-2634.8480224609375
 20
8589.672869186908
 10
-2577.732978586321
 20
8629.665253453093
 10
-2528.430245213346
 20
8678.967986826068
 10
-2488.4378609471614
 20
8736.083030700684
 10
-2458.9709741465736
 20
8799.274973370417
 10
-2440.924921256054
 20
8866.62375963391
 97
0
 75
1
 76
1
 98
0
  0
CIRCLE
  5
EC
330
17
100
AcDbEntity
  8
A-GRID
370
25
100
AcDbCircle
 10
-2834.848022460937
 20
8936.083030700684
 30
0.0
 40
400.0
  0
TEXT
  5
ED
330
17
100
AcDbEntity
  8
A-ANNO-TEXT
100
AcDbText
 10
-2834.848022460937
 20
8936.083030700684
 30
0.0
 40
350.0
  1
B
 72
1
 11
-2834.848022460937
 21
8936.083030700684
 31
0.0
100
AcDbText
 73
2
  0
HATCH
  5
EE
330
17
100
AcDbEntity
  8
A-GRID
 62
7
100
AcDbHatch
 10
0.0
 20
0.0
 30
0.0
210
0.0
220
0.0
230
1.0
  2
SOLID
 70
1
 71
0
 91
1
 92
3
 72
0
 73
1
 93
36
 10
-2434.848022460937
 20
-3828.9180040359497
 10
-2440.924921256054
 20
-3759.4587329691776
 10
-2458.9709741465736
 20
-3692.1099467056824
 10
-2488.4378609471614
 20
-3628.9180040359497
 10
-2528.4302452133456
 20
-3571.802960161334
 10
-2577.732978586321
 20
-3522.5002267883583
 10
-2634.848022460937
 20
-3482.507842522174
 10
-2698.0399651306693
 20
-3453.040955721586
 10
-2765.388751394165
 20
-3434.9949028310666
 10
-2834.848022460937
 20
-3428.9180040359497
 10
-2904.307293527709
 20
-3434.9949028310666
 10
-2971.6560797912043
 20
-3453.040955721586
 10
-3034.848022460937
 20
-3482.507842522174
 10
-3091.963066335553
 20
-3522.5002267883583
 10
-3141.265799708528
 20
-3571.802960161334
 10
-3181.2581839747127
 20
-3628.9180040359497
 10
-3210.7250707753005
 20
-3692.109946705682
 10
-3228.77112366582
 20
-3759.4587329691776
 10
-3234.848022460937
 20
-3828.9180040359497
 10
-3228.77112366582
 20
-3898.377275102722
 10
-3210.7250707753005
 20
-3965.726061366217
 10
-3181.2581839747127
 20
-4028.9180040359497
 10
-3141.2657997085284
 20
-4086.033047910565
 10
-3091.963066335553
 20
-4135.335781283541
 10
-3034.848022460937
 20
-4175.328165549725
 10
-2971.6560797912043
 20
-4204.795052350313
 10
-2904.307293527709
 20
-4222.841105240833
 10
-2834.848022460937
 20
-4228.91800403595
 10
-2765.388751394165
 20
-4222.841105240833
 10
-2698.0399651306693
 20
-4204.795052350313
 10
-2634.8480224609375
 20
-4175.328165549725
 10
-2577.732978586321
 20
-4135.335781283541
 10
-2528.430245213346
 20
-4086.0330479105655
 10
-2488.4378609471614
 20
-4028.9180040359497
 10
-2458.9709741465736
 20
-3965.726061366217
 10
-2440.924921256054
 20
-3898.377275102722
 97
0
 75
1
 76
1
 98
0
  0
CIRCLE
  5
EF
330
17
100
AcDbEntity
  8
A-GRID
370
25
100
AcDbCircle
 10
-2834.848022460937
 20
-3828.9180040359497
 30
0.0
 40
400.0
  0
TEXT
  5
F0
330
17
100
AcDbEntity
  8
A-ANNO-TEXT
100
AcDbText
 10
-2834.848022460937
 20
-3828.9180040359497
 30
0.0
 40
350.0
  1
B
 72
1
 11
-2834.848022460937
 21
-3828.9180040359497
 31
0.0
100
AcDbText
 73
2
  0
LINE
  5
F1
330
17
100
AcDbEntity
  8
A-GRID
370
18
100
AcDbLine
 10
6365.1519775390625
 20
-4228.91800403595
 30
0.0
 11
6365.1519775390625
 21
9336.083030700684
 31
0.0
1001
BIMGUID
1000
GRID:C
1001
BIMSRC
1000
type:GRID
1000
label:C
1000
axis:x
1000
pos
1040
6.365151977539062
1000
source_guids:MD_WALL_GROUND_FLOOR_5
1000
intent_param:position_x
  0
HATCH
  5
F2
330
17
100
AcDbEntity
  8
A-GRID
 62
7
100
AcDbHatch
 10
0.0
 20
0.0
 30
0.0
210
0.0
220
0.0
230
1.0
  2
SOLID
 70
1
 71
0
 91
1
 92
3
 72
0
 73
1
 93
36
 10
6765.1519775390625
 20
8936.083030700684
 10
6759.075078743946
 20
9005.542301767457
 10
6741.029025853426
 20
9072.89108803095
 10
6711.562139052838
 20
9136.083030700684
 10
6671.569754786654
 20
9193.198074575299
 10
6622.267021413678
 20
9242.500807948274
 10
6565.1519775390625
 20
9282.493192214459
 10
6501.96003486933
 20
9311.960079015047
 10
6434.611248605835
 20
9330.006131905568
 10
6365.1519775390625
 20
9336.083030700684
 10
6295.69270647229
 20
9330.006131905568
 10
6228.343920208795
 20
9311.960079015047
 10
6165.1519775390625
 20
9282.493192214459
 10
6108.036933664447
 20
9242.500807948274
 10
6058.734200291471
 20
9193.198074575299
 10
6018.741816025287
 20
9136.083030700684
 10
5989.274929224699
 20
9072.89108803095
 10
5971.228876334179
 20
9005.542301767457
 10
5965.1519775390625
 20
8936.083030700684
 10
5971.228876334179
 20
8866.623759633912
 10
5989.274929224699
 20
8799.274973370417
 10
6018.741816025287
 20
8736.083030700684
 10
6058.734200291471
 20
8678.967986826068
 10
6108.036933664447
 20
8629.665253453093
 10
6165.1519775390625
 20
8589.672869186908
 10
6228.343920208795
 20
8560.20598238632
 10
6295.69270647229
 20
8542.1599294958
 10
6365.1519775390625
 20
8536.083030700684
 10
6434.611248605835
 20
8542.1599294958
 10
6501.96003486933
 20
8560.20598238632
 10
6565.1519775390625
 20
8589.672869186908
 10
6622.267021413678
 20
8629.665253453093
 10
6671.569754786654
 20
8678.967986826068
 10
6711.562139052838
 20
8736.083030700684
 10
6741.029025853426
 20
8799.274973370417
 10
6759.075078743946
 20
8866.62375963391
 97
0
 75
1
 76
1
 98
0
  0
CIRCLE
  5
F3
330
17
100
AcDbEntity
  8
A-GRID
370
25
100
AcDbCircle
 10
6365.1519775390625
 20
8936.083030700684
 30
0.0
 40
400.0
  0
TEXT
  5
F4
330
17
100
AcDbEntity
  8
A-ANNO-TEXT
100
AcDbText
 10
6365.1519775390625
 20
8936.083030700684
 30
0.0
 40
350.0
  1
C
 72
1
 11
6365.1519775390625
 21
8936.083030700684
 31
0.0
100
AcDbText
 73
2
  0
HATCH
  5
F5
330
17
100
AcDbEntity
  8
A-GRID
 62
7
100
AcDbHatch
 10
0.0
 20
0.0
 30
0.0
210
0.0
220
0.0
230
1.0
  2
SOLID
 70
1
 71
0
 91
1
 92
3
 72
0
 73
1
 93
36
 10
6765.1519775390625
 20
-3828.9180040359497
 10
6759.075078743946
 20
-3759.4587329691776
 10
6741.029025853426
 20
-3692.1099467056824
 10
6711.562139052838
 20
-3628.9180040359497
 10
6671.569754786654
 20
-3571.802960161334
 10
6622.267021413678
 20
-3522.5002267883583
 10
6565.1519775390625
 20
-3482.507842522174
 10
6501.96003486933
 20
-3453.040955721586
 10
6434.611248605835
 20
-3434.9949028310666
 10
6365.1519775390625
 20
-3428.9180040359497
 10
6295.69270647229
 20
-3434.9949028310666
 10
6228.343920208795
 20
-3453.040955721586
 10
6165.1519775390625
 20
-3482.507842522174
 10
6108.036933664447
 20
-3522.5002267883583
 10
6058.734200291471
 20
-3571.802960161334
 10
6018.741816025287
 20
-3628.9180040359497
 10
5989.274929224699
 20
-3692.109946705682
 10
5971.228876334179
 20
-3759.4587329691776
 10
5965.1519775390625
 20
-3828.9180040359497
 10
5971.228876334179
 20
-3898.377275102722
 10
5989.274929224699
 20
-3965.726061366217
 10
6018.741816025287
 20
-4028.9180040359497
 10
6058.734200291471
 20
-4086.033047910565
 10
6108.036933664447
 20
-4135.335781283541
 10
6165.1519775390625
 20
-4175.328165549725
 10
6228.343920208795
 20
-4204.795052350313
 10
6295.69270647229
 20
-4222.841105240833
 10
6365.1519775390625
 20
-4228.91800403595
 10
6434.611248605835
 20
-4222.841105240833
 10
6501.96003486933
 20
-4204.795052350313
 10
6565.1519775390625
 20
-4175.328165549725
 10
6622.267021413678
 20
-4135.335781283541
 10
6671.569754786654
 20
-4086.0330479105655
 10
6711.562139052838
 20
-4028.9180040359497
 10
6741.029025853426
 20
-3965.726061366217
 10
6759.075078743946
 20
-3898.377275102722
 97
0
 75
1
 76
1
 98
0
  0
CIRCLE
  5
F6
330
17
100
AcDbEntity
  8
A-GRID
370
25
100
AcDbCircle
 10
6365.1519775390625
 20
-3828.9180040359497
 30
0.0
 40
400.0
  0
TEXT
  5
F7
330
17
100
AcDbEntity
  8
A-ANNO-TEXT
100
AcDbText
 10
6365.1519775390625
 20
-3828.9180040359497
 30
0.0
 40
350.0
  1
C
 72
1
 11
6365.1519775390625
 21
-3828.9180040359497
 31
0.0
100
AcDbText
 73
2
  0
LINE
  5
F8
330
17
100
AcDbEntity
  8
A-GRID
370
18
100
AcDbLine
 10
-12334.848022460938
 20
-1318.918138742447
 30
0.0
 11
9210.152912139893
 21
-1318.918138742447
 31
0.0
1001
BIMGUID
1000
GRID:1
1001
BIMSRC
1000
type:GRID
1000
label:1
1000
axis:y
1000
pos
1040
-1.318918138742447
1000
source_guids:MD_WALL_GROUND_FLOOR_2
1000
intent_param:position_y
  0
HATCH
  5
F9
330
17
100
AcDbEntity
  8
A-GRID
 62
7
100
AcDbHatch
 10
0.0
 20
0.0
 30
0.0
210
0.0
220
0.0
230
1.0
  2
SOLID
 70
1
 71
0
 91
1
 92
3
 72
0
 73
1
 93
36
 10
9210.152912139893
 20
-1318.918138742447
 10
9204.076013344777
 20
-1249.4588676756748
 10
9186.029960454256
 20
-1182.1100814121794
 10
9156.563073653668
 20
-1118.918138742447
 10
9116.570689387483
 20
-1061.803094867831
 10
9067.267956014508
 20
-1012.5003614948557
 10
9010.152912139893
 20
-972.5079772286715
 10
8946.96096947016
 20
-943.0410904280836
 10
8879.612183206666
 20
-924.9950375375637
 10
8810.152912139893
 20
-918.9181387424469
 10
8740.69364107312
 20
-924.9950375375637
 10
8673.344854809626
 20
-943.0410904280835
 10
8610.152912139893
 20
-972.5079772286714
 10
8553.037868265277
 20
-1012.5003614948557
 10
8503.735134892302
 20
-1061.803094867831
 10
8463.742750626117
 20
-1118.9181387424467
 10
8434.275863825529
 20
-1182.1100814121794
 10
8416.229810935009
 20
-1249.4588676756748
 10
8410.152912139893
 20
-1318.918138742447
 10
8416.229810935009
 20
-1388.377409809219
 10
8434.275863825529
 20
-1455.7261960727144
 10
8463.742750626117
 20
-1518.918138742447
 10
8503.735134892302
 20
-1576.0331826170625
 10
8553.037868265277
 20
-1625.335915990038
 10
8610.152912139893
 20
-1665.3283002562223
 10
8673.344854809626
 20
-1694.7951870568104
 10
8740.69364107312
 20
-1712.84123994733
 10
8810.152912139893
 20
-1718.918138742447
 10
8879.612183206664
 20
-1712.8412399473302
 10
8946.96096947016
 20
-1694.7951870568102
 10
9010.152912139893
 20
-1665.3283002562225
 10
9067.267956014508
 20
-1625.335915990038
 10
9116.570689387483
 20
-1576.0331826170627
 10
9156.563073653668
 20
-1518.9181387424467
 10
9186.029960454256
 20
-1455.7261960727144
 10
9204.076013344777
 20
-1388.377409809219
 97
0
 75
1
 76
1
 98
0
  0
CIRCLE
  5
FA
330
17
100
AcDbEntity
  8
A-GRID
370
25
100
AcDbCircle
 10
8810.152912139893
 20
-1318.918138742447
 30
0.0
 40
400.0
  0
TEXT
  5
FB
330
17
100
AcDbEntity
  8
A-ANNO-TEXT
100
AcDbText
 10
8810.152912139893
 20
-1318.918138742447
 30
0.0
 40
350.0
  1
1
 72
1
 11
8810.152912139893
 21
-1318.918138742447
 31
0.0
100
AcDbText
 73
2
  0
HATCH
  5
FC
330
17
100
AcDbEntity
  8
A-GRID
 62
7
100
AcDbHatch
 10
0.0
 20
0.0
 30
0.0
210
0.0
220
0.0
230
1.0
  2
SOLID
 70
1
 71
0
 91
1
 92
3
 72
0
 73
1
 93
36
 10
-11534.848022460938
 20
-1318.918138742447
 10
-11540.924921256053
 20
-1249.4588676756748
 10
-11558.970974146574
 20
-1182.1100814121794
 10
-11588.437860947162
 20
-1118.918138742447
 10
-11628.430245213347
 20
-1061.803094867831
 10
-11677.732978586322
 20
-1012.5003614948557
 10
-11734.848022460938
 20
-972.5079772286715
 10
-11798.03996513067
 20
-943.0410904280836
 10
-11865.388751394165
 20
-924.9950375375637
 10
-11934.848022460938
 20
-918.9181387424469
 10
-12004.30729352771
 20
-924.9950375375637
 10
-12071.656079791204
 20
-943.0410904280835
 10
-12134.848022460938
 20
-972.5079772286714
 10
-12191.963066335553
 20
-1012.5003614948557
 10
-12241.265799708528
 20
-1061.803094867831
 10
-12281.258183974713
 20
-1118.9181387424467
 10
-12310.725070775301
 20
-1182.1100814121794
 10
-12328.771123665822
 20
-1249.4588676756748
 10
-12334.848022460938
 20
-1318.918138742447
 10
-12328.771123665822
 20
-1388.377409809219
 10
-12310.725070775301
 20
-1455.7261960727144
 10
-12281.258183974713
 20
-1518.918138742447
 10
-12241.265799708528
 20
-1576.0331826170625
 10
-12191.963066335553
 20
-1625.335915990038
 10
-12134.848022460938
 20
-1665.3283002562223
 10
-12071.656079791204
 20
-1694.7951870568104
 10
-12004.30729352771
 20
-1712.84123994733
 10
-11934.848022460938
 20
-1718.918138742447
 10
-11865.388751394166
 20
-1712.8412399473302
 10
-11798.03996513067
 20
-1694.7951870568102
 10
-11734.848022460938
 20
-1665.3283002562225
 10
-11677.732978586322
 20
-1625.335915990038
 10
-11628.430245213347
 20
-1576.0331826170627
 10
-11588.437860947162
 20
-1518.9181387424467
 10
-11558.970974146574
 20
-1455.7261960727144
 10
-11540.924921256053
 20
-1388.377409809219
 97
0
 75
1
 76
1
 98
0
  0
CIRCLE
  5
FD
330
17
100
AcDbEntity
  8
A-GRID
370
25
100
AcDbCircle
 10
-11934.848022460938
 20
-1318.918138742447
 30
0.0
 40
400.0
  0
TEXT
  5
FE
330
17
100
AcDbEntity
  8
A-ANNO-TEXT
100
AcDbText
 10
-11934.848022460938
 20
-1318.918138742447
 30
0.0
 40
350.0
  1
1
 72
1
 11
-11934.848022460938
 21
-1318.918138742447
 31
0.0
100
AcDbText
 73
2
  0
LINE
  5
FF
330
17
100
AcDbEntity
  8
A-GRID
370
18
100
AcDbLine
 10
-12334.848022460938
 20
4581.081861257553
 30
0.0
 11
9210.152912139893
 21
4581.081861257553
 31
0.0
1001
BIMGUID
1000
GRID:2
1001
BIMSRC
1000
type:GRID
1000
label:2
1000
axis:y
1000
pos
1040
4.5810818612575535
1000
source_guids:MD_WALL_GROUND_FLOOR_1
1000
intent_param:position_y
  0
HATCH
  5
100
330
17
100
AcDbEntity
  8
A-GRID
 62
7
100
AcDbHatch
 10
0.0
 20
0.0
 30
0.0
210
0.0
220
0.0
230
1.0
  2
SOLID
 70
1
 71
0
 91
1
 92
3
 72
0
 73
1
 93
36
 10
9210.152912139893
 20
4581.081861257553
 10
9204.076013344777
 20
4650.541132324325
 10
9186.029960454256
 20
4717.889918587821
 10
9156.563073653668
 20
4781.081861257553
 10
9116.570689387483
 20
4838.1969051321685
 10
9067.267956014508
 20
4887.4996385051445
 10
9010.152912139893
 20
4927.492022771328
 10
8946.96096947016
 20
4956.958909571917
 10
8879.612183206666
 20
4975.004962462436
 10
8810.152912139893
 20
4981.081861257553
 10
8740.69364107312
 20
4975.004962462436
 10
8673.344854809626
 20
4956.958909571917
 10
8610.152912139893
 20
4927.492022771328
 10
8553.037868265277
 20
4887.4996385051445
 10
8503.735134892302
 20
4838.1969051321685
 10
8463.742750626117
 20
4781.081861257553
 10
8434.275863825529
 20
4717.889918587821
 10
8416.229810935009
 20
4650.541132324325
 10
8410.152912139893
 20
4581.081861257553
 10
8416.229810935009
 20
4511.622590190781
 10
8434.275863825529
 20
4444.273803927285
 10
8463.742750626117
 20
4381.081861257553
 10
8503.735134892302
 20
4323.966817382938
 10
8553.037868265277
 20
4274.664084009962
 10
8610.152912139893
 20
4234.671699743778
 10
8673.344854809626
 20
4205.20481294319
 10
8740.69364107312
 20
4187.15876005267
 10
8810.152912139893
 20
4181.081861257553
 10
8879.612183206664
 20
4187.15876005267
 10
8946.96096947016
 20
4205.20481294319
 10
9010.152912139893
 20
4234.671699743778
 10
9067.267956014508
 20
4274.664084009962
 10
9116.570689387483
 20
4323.966817382938
 10
9156.563073653668
 20
4381.081861257553
 10
9186.029960454256
 20
4444.273803927285
 10
9204.076013344777
 20
4511.622590190781
 97
0
 75
1
 76
1
 98
0
  0
CIRCLE
  5
101
330
17
100
AcDbEntity
  8
A-GRID
370
25
100
AcDbCircle
 10
8810.152912139893
 20
4581.081861257553
 30
0.0
 40
400.0
  0
TEXT
  5
102
330
17
100
AcDbEntity
  8
A-ANNO-TEXT
100
AcDbText
 10
8810.152912139893
 20
4581.081861257553
 30
0.0
 40
350.0
  1
2
 72
1
 11
8810.152912139893
 21
4581.081861257553
 31
0.0
100
AcDbText
 73
2
  0
HATCH
  5
103
330
17
100
AcDbEntity
  8
A-GRID
 62
7
100
AcDbHatch
 10
0.0
 20
0.0
 30
0.0
210
0.0
220
0.0
230
1.0
  2
SOLID
 70
1
 71
0
 91
1
 92
3
 72
0
 73
1
 93
36
 10
-11534.848022460938
 20
4581.081861257553
 10
-11540.924921256053
 20
4650.541132324325
 10
-11558.970974146574
 20
4717.889918587821
 10
-11588.437860947162
 20
4781.081861257553
 10
-11628.430245213347
 20
4838.1969051321685
 10
-11677.732978586322
 20
4887.4996385051445
 10
-11734.848022460938
 20
4927.492022771328
 10
-11798.03996513067
 20
4956.958909571917
 10
-11865.388751394165
 20
4975.004962462436
 10
-11934.848022460938
 20
4981.081861257553
 10
-12004.30729352771
 20
4975.004962462436
 10
-12071.656079791204
 20
4956.958909571917
 10
-12134.848022460938
 20
4927.492022771328
 10
-12191.963066335553
 20
4887.4996385051445
 10
-12241.265799708528
 20
4838.1969051321685
 10
-12281.258183974713
 20
4781.081861257553
 10
-12310.725070775301
 20
4717.889918587821
 10
-12328.771123665822
 20
4650.541132324325
 10
-12334.848022460938
 20
4581.081861257553
 10
-12328.771123665822
 20
4511.622590190781
 10
-12310.725070775301
 20
4444.273803927285
 10
-12281.258183974713
 20
4381.081861257553
 10
-12241.265799708528
 20
4323.966817382938
 10
-12191.963066335553
 20
4274.664084009962
 10
-12134.848022460938
 20
4234.671699743778
 10
-12071.656079791204
 20
4205.20481294319
 10
-12004.30729352771
 20
4187.15876005267
 10
-11934.848022460938
 20
4181.081861257553
 10
-11865.388751394166
 20
4187.15876005267
 10
-11798.03996513067
 20
4205.20481294319
 10
-11734.848022460938
 20
4234.671699743778
 10
-11677.732978586322
 20
4274.664084009962
 10
-11628.430245213347
 20
4323.966817382938
 10
-11588.437860947162
 20
4381.081861257553
 10
-11558.970974146574
 20
4444.273803927285
 10
-11540.924921256053
 20
4511.622590190781
 97
0
 75
1
 76
1
 98
0
  0
CIRCLE
  5
104
330
17
100
AcDbEntity
  8
A-GRID
370
25
100
AcDbCircle
 10
-11934.848022460938
 20
4581.081861257553
 30
0.0
 40
400.0
  0
TEXT
  5
105
330
17
100
AcDbEntity
  8
A-ANNO-TEXT
100
AcDbText
 10
-11934.848022460938
 20
4581.081861257553
 30
0.0
 40
350.0
  1
2
 72
1
 11
-11934.848022460938
 21
4581.081861257553
 31
0.0
100
AcDbText
 73
2
  0
LINE
  5
106
330
17
100
AcDbEntity
  8
A-ANNO-DIMS
370
18
100
AcDbLine
 10
-7734.8480224609375
 20
5736.083030700684
 30
0.0
 11
-2834.848022460937
 21
5736.083030700684
 31
0.0
1001
BIMSRC
1000
type:DIM
1000
axis:x
1000
from_grid:A
1000
to_grid:B
1000
dist
1040
4.9
  0
LINE
  5
107
330
17
100
AcDbEntity
  8
A-ANNO-DIMS
370
18
100
AcDbLine
 10
-7734.8480224609375
 20
4936.083030700684
 30
0.0
 11
-7734.8480224609375
 21
5936.083030700684
 31
0.0
  0
LINE
  5
108
330
17
100
AcDbEntity
  8
A-ANNO-DIMS
370
18
100
AcDbLine
 10
-2834.848022460937
 20
4936.083030700684
 30
0.0
 11
-2834.848022460937
 21
5936.083030700684
 31
0.0
  0
LINE
  5
109
330
17
100
AcDbEntity
  8
A-ANNO-DIMS
370
18
100
AcDbLine
 10
-7840.914039638919
 20
5630.017013522702
 30
0.0
 11
-7628.782005282956
 21
5842.149047878665
 31
0.0
  0
LINE
  5
10A
330
17
100
AcDbEntity
  8
A-ANNO-DIMS
370
18
100
AcDbLine
 10
-2940.9140396389193
 20
5630.017013522702
 30
0.0
 11
-2728.7820052829547
 21
5842.149047878665
 31
0.0
  0
TEXT
  5
10B
330
17
100
AcDbEntity
  8
A-ANNO-DIMS
100
AcDbText
 10
-5284.8480224609375
 20
5811.083030700684
 30
0.0
 40
250.0
  1
4900
 72
1
 11
-5284.8480224609375
 21
5811.083030700684
 31
0.0
100
AcDbText
 73
2
  0
LINE
  5
10C
330
17
100
AcDbEntity
  8
A-ANNO-DIMS
370
18
100
AcDbLine
 10
-2834.848022460937
 20
5736.083030700684
 30
0.0
 11
6365.1519775390625
 21
5736.083030700684
 31
0.0
1001
BIMSRC
1000
type:DIM
1000
axis:x
1000
from_grid:B
1000
to_grid:C
1000
dist
1040
9.2
  0
LINE
  5
10D
330
17
100
AcDbEntity
  8
A-ANNO-DIMS
370
18
100
AcDbLine
 10
-2834.848022460937
 20
4936.083030700684
 30
0.0
 11
-2834.848022460937
 21
5936.083030700684
 31
0.0
  0
LINE
  5
10E
330
17
100
AcDbEntity
  8
A-ANNO-DIMS
370
18
100
AcDbLine
 10
6365.1519775390625
 20
4936.083030700684
 30
0.0
 11
6365.1519775390625
 21
5936.083030700684
 31
0.0
  0
LINE
  5
10F
330
17
100
AcDbEntity
  8
A-ANNO-DIMS
370
18
100
AcDbLine
 10
6259.085960361081
 20
5630.017013522702
 30
0.0
 11
6471.217994717044
 21
5842.149047878665
 31
0.0
  0
TEXT
  5
110
330
17
100
AcDbEntity
  8
A-ANNO-DIMS
100
AcDbText
 10
1765.1519775390627
 20
5811.083030700684
 30
0.0
 40
250.0
  1
9200
 72
1
 11
1765.1519775390627
 21
5811.083030700684
 31
0.0
100
AcDbText
 73
2
  0
LINE
  5
111
330
17
100
AcDbEntity
  8
A-ANNO-DIMS
370
18
100
AcDbLine
 10
-7734.8480224609375
 20
6536.083030700684
 30
0.0
 11
6365.1519775390625
 21
6536.083030700684
 31
0.0
1001
BIMSRC
1000
type:DIM
1000
axis:x
1000
from_grid:A
1000
to_grid:C
1000
dist
1040
14.1
  0
LINE
  5
112
330
17
100
AcDbEntity
  8
A-ANNO-DIMS
370
18
100
AcDbLine
 10
-7734.8480224609375
 20
4936.083030700684
 30
0.0
 11
-7734.8480224609375
 21
6736.083030700684
 31
0.0
  0
LINE
  5
113
330
17
100
AcDbEntity
  8
A-ANNO-DIMS
370
18
100
AcDbLine
 10
6365.1519775390625
 20
4936.083030700684
 30
0.0
 11
6365.1519775390625
 21
6736.083030700684
 31
0.0
  0
LINE
  5
114
330
17
100
AcDbEntity
  8
A-ANNO-DIMS
370
18
100
AcDbLine
 10
-7840.914039638919
 20
6430.017013522702
 30
0.0
 11
-7628.782005282956
 21
6642.149047878665
 31
0.0
  0
LINE
  5
115
330
17
100
AcDbEntity
  8
A-ANNO-DIMS
370
18
100
AcDbLine
 10
6259.085960361081
 20
6430.017013522702
 30
0.0
 11
6471.217994717044
 21
6642.149047878665
 31
0.0
  0
TEXT
  5
116
330
17
100
AcDbEntity
  8
A-ANNO-DIMS
100
AcDbText
 10
-684.8480224609375
 20
6611.083030700684
 30
0.0
 40
250.0
  1
14100
 72
1
 11
-684.8480224609375
 21
6611.083030700684
 31
0.0
100
AcDbText
 73
2
  0
LINE
  5
117
330
17
100
AcDbEntity
  8
A-ANNO-DIMS
370
18
100
AcDbLine
 10
-9534.848022460938
 20
-1318.918138742447
 30
0.0
 11
-9534.848022460938
 21
4581.081861257553
 31
0.0
1001
BIMSRC
1000
type:DIM
1000
axis:y
1000
from_grid:1
1000
to_grid:2
1000
dist
1040
5.9
  0
LINE
  5
118
330
17
100
AcDbEntity
  8
A-ANNO-DIMS
370
18
100
AcDbLine
 10
-7934.8480224609375
 20
-1318.918138742447
 30
0.0
 11
-9734.848022460938
 21
-1318.918138742447
 31
0.0
  0
LINE
  5
119
330
17
100
AcDbEntity
  8
A-ANNO-DIMS
370
18
100
AcDbLine
 10
-7934.8480224609375
 20
4581.081861257553
 30
0.0
 11
-9734.848022460938
 21
4581.081861257553
 31
0.0
  0
LINE
  5
11A
330
17
100
AcDbEntity
  8
A-ANNO-DIMS
370
18
100
AcDbLine
 10
-9640.91403963892
 20
-1424.984155920429
 30
0.0
 11
-9428.782005282956
 21
-1212.8521215644648
 31
0.0
  0
LINE
  5
11B
330
17
100
AcDbEntity
  8
A-ANNO-DIMS
370
18
100
AcDbLine
 10
-9640.91403963892
 20
4475.015844079571
 30
0.0
 11
-9428.782005282956
 21
4687.147878435535
 31
0.0
  0
TEXT
  5
11C
330
17
100
AcDbEntity
  8
A-ANNO-DIMS
100
AcDbText
 10
-9609.848022460938
 20
1631.081861257553
 30
0.0
 40
250.0
  1
5900
 50
90.0
 72
1
 11
-9609.848022460938
 21
1631.081861257553
 31
0.0
100
AcDbText
 73
2
  0
TEXT
  5
11D
330
17
100
AcDbEntity
  8
A-ANNO-TEXT
100
AcDbText
 10
5217.151641845703
 20
2726.5949070453644
 30
0.0
 40
200.0
  1
CT | V1
 72
1
 11
5217.151641845703
 21
2726.5949070453644
 31
0.0
100
AcDbText
 73
2
  0
TEXT
  5
11E
330
17
100
AcDbEntity
  8
A-ANNO-TEXT
100
AcDbText
 10
5217.151641845703
 20
3076.5949070453644
 30
0.0
 40
350.0
  1
BEDROOM
 72
1
 11
5217.151641845703
 21
3076.5949070453644
 31
0.0
100
AcDbText
 73
2
1001
BIMGUID
1000
ROOM:BEDROOM
1001
BIMSRC
1000
type:ROOM
1000
room_type:BEDROOM
1000
pos_x
1040
5.217151641845703
1000
pos_y
1040
2.9015949070453644
1000
area
1040
9.048364496035248
  0
TEXT
  5
11F
330
17
100
AcDbEntity
  8
A-ANNO-TEXT
100
AcDbText
 10
5217.151641845703
 20
2376.5949070453644
 30
0.0
 40
250.0
  1
9.0 m²
 72
1
 11
5217.151641845703
 21
2376.5949070453644
 31
0.0
100
AcDbText
 73
2
  0
TEXT
  5
120
330
17
100
AcDbEntity
  8
A-ANNO-TEXT
100
AcDbText
 10
-3539.8728540167212
 20
3264.519190788269
 30
0.0
 40
200.0
  1
CT | V1
 72
1
 11
-3539.8728540167212
 21
3264.519190788269
 31
0.0
100
AcDbText
 73
2
  0
TEXT
  5
121
330
17
100
AcDbEntity
  8
A-ANNO-TEXT
100
AcDbText
 10
-3539.8728540167212
 20
3614.519190788269
 30
0.0
 40
350.0
  1
LIVING ROOM
 72
1
 11
-3539.8728540167212
 21
3614.519190788269
 31
0.0
100
AcDbText
 73
2
1001
BIMGUID
1000
ROOM:LIVING
1001
BIMSRC
1000
type:ROOM
1000
room_type:LIVING
1000
pos_x
1040
-3.5398728540167212
1000
pos_y
1040
3.439519190788269
1000
area
1040
32.19425447597914
  0
TEXT
  5
122
330
17
100
AcDbEntity
  8
A-ANNO-TEXT
100
AcDbText
 10
-3539.8728540167212
 20
2914.519190788269
 30
0.0
 40
250.0
  1
32.2 m²
 72
1
 11
-3539.8728540167212
 21
2914.519190788269
 31
0.0
100
AcDbText
 73
2
  0
TEXT
  5
123
330
17
100
AcDbEntity
  8
A-ANNO-TEXT
100
AcDbText
 10
-5409.011738640921
 20
264.66227636805604
 30
0.0
 40
200.0
  1
CT | V1
 72
1
 11
-5409.011738640921
 21
264.66227636805604
 31
0.0
100
AcDbText
 73
2
  0
TEXT
  5
124
330
17
100
AcDbEntity
  8
A-ANNO-TEXT
100
AcDbText
 10
-5409.011738640921
 20
614.662276368056
 30
0.0
 40
350.0
  1
DINING ROOM
 72
1
 11
-5409.011738640921
 21
614.662276368056
 31
0.0
100
AcDbText
 73
2
1001
BIMGUID
1000
ROOM:DINING
1001
BIMSRC
1000
type:ROOM
1000
room_type:DINING
1000
pos_x
1040
-5.409011738640921
1000
pos_y
1040
0.43966227636805605
1000
area
1040
12.071145782439398
  0
TEXT
  5
125
330
17
100
AcDbEntity
  8
A-ANNO-TEXT
100
AcDbText
 10
-5409.011738640921
 20
-85.33772363194396
 30
0.0
 40
250.0
  1
12.1 m²
 72
1
 11
-5409.011738640921
 21
-85.33772363194396
 31
0.0
100
AcDbText
 73
2
  0
INSERT
  5
126
330
17
100
AcDbEntity
  8
A-ANNO-TEXT
100
AcDbBlockReference
  2
WINDOW_TAG
 10
3893.9013481140137
 20
-1715.9181475639343
 30
0.0
 41
200.0
 42
200.0
  0
TEXT
  5
128
330
17
100
AcDbEntity
  8
A-ANNO-TEXT
100
AcDbText
 10
3893.9013481140137
 20
-1715.9181475639343
 30
0.0
 40
200.0
  1
D1
 72
1
 11
3893.9013481140137
 21
-1715.9181475639343
 31
0.0
100
AcDbText
 73
2
  0
INSERT
  5
129
330
17
100
AcDbEntity
  8
A-ANNO-TEXT
100
AcDbBlockReference
  2
WINDOW_TAG
 10
2046.151602268219
 20
-125.16801059246063
 30
0.0
 41
200.0
 42
200.0
  0
TEXT
  5
12B
330
17
100
AcDbEntity
  8
A-ANNO-TEXT
100
AcDbText
 10
2046.151602268219
 20
-125.16801059246063
 30
0.0
 40
200.0
  1
D2
 72
1
 11
2046.151602268219
 21
-125.16801059246063
 31
0.0
100
AcDbText
 73
2
  0
INSERT
  5
12C
330
17
100
AcDbEntity
  8
A-ANNO-TEXT
100
AcDbBlockReference
  2
WINDOW_TAG
 10
2089.1515254974365
 20
2677.3325204849243
 30
0.0
 41
200.0
 42
200.0
  0
TEXT
  5
12E
330
17
100
AcDbEntity
  8
A-ANNO-TEXT
100
AcDbText
 10
2089.1515254974365
 20
2677.3325204849243
 30
0.0
 40
200.0
  1
D3
 72
1
 11
2089.1515254974365
 21
2677.3325204849243
 31
0.0
100
AcDbText
 73
2
  0
INSERT
  5
12F
330
17
100
AcDbEntity
  8
A-ANNO-TEXT
100
AcDbBlockReference
  2
WINDOW_TAG
 10
-5229.848384857178
 20
5104.833269119263
 30
0.0
 41
200.0
 42
200.0
  0
TEXT
  5
131
330
17
100
AcDbEntity
  8
A-ANNO-TEXT
100
AcDbText
 10
-5229.848384857178
 20
5104.833269119263
 30
0.0
 40
200.0
  1
W1
 72
1
 11
-5229.848384857178
 21
5104.833269119263
 31
0.0
100
AcDbText
 73
2
  0
INSERT
  5
132
330
17
100
AcDbEntity
  8
A-ANNO-TEXT
100
AcDbBlockReference
  2
WINDOW_TAG
 10
-1232.3486059904099
 20
5104.833269119263
 30
0.0
 41
200.0
 42
200.0
  0
TEXT
  5
134
330
17
100
AcDbEntity
  8
A-ANNO-TEXT
100
AcDbText
 10
-1232.3486059904099
 20
5104.833269119263
 30
0.0
 40
200.0
  1
W2
 72
1
 11
-1232.3486059904099
 21
5104.833269119263
 31
0.0
100
AcDbText
 73
2
  0
INSERT
  5
135
330
17
100
AcDbEntity
  8
A-ANNO-TEXT
100
AcDbBlockReference
  2
WINDOW_TAG
 10
-631.0985237360001
 20
-707.6678037643433
 30
0.0
 41
200.0
 42
200.0
  0
TEXT
  5
137
330
17
100
AcDbEntity
  8
A-ANNO-TEXT
100
AcDbText
 10
-631.0985237360001
 20
-707.6678037643433
 30
0.0
 40
200.0
  1
W3
 72
1
 11
-631.0985237360001
 21
-707.6678037643433
 31
0.0
100
AcDbText
 73
2
  0
INSERT
  5
138
330
17
100
AcDbEntity
  8
A-ANNO-TEXT
100
AcDbBlockReference
  2
WINDOW_TAG
 10
3893.9013481140137
 20
5104.833269119263
 30
0.0
 41
200.0
 42
200.0
  0
TEXT
  5
13A
330
17
100
AcDbEntity
  8
A-ANNO-TEXT
100
AcDbText
 10
3893.9013481140137
 20
5104.833269119263
 30
0.0
 40
200.0
  1
W4
 72
1
 11
3893.9013481140137
 21
5104.833269119263
 31
0.0
100
AcDbText
 73
2
  0
LINE
  5
13B
330
17
100
AcDbEntity
  8
A-ANNO-SECT
  6
HIDDEN
370
18
100
AcDbLine
 10
-8734.848022460938
 20
1653.582513332367
 30
0.0
 11
7410.152912139893
 21
1653.582513332367
 31
0.0
  0
CIRCLE
  5
13C
330
17
100
AcDbEntity
  8
A-ANNO-SECT
370
18
100
AcDbCircle
 10
-8734.848022460938
 20
1653.582513332367
 30
0.0
 40
400.0
  0
TEXT
  5
13D
330
17
100
AcDbEntity
  8
A-ANNO-SECT
100
AcDbText
 10
-8734.848022460938
 20
1653.582513332367
 30
0.0
 40
300.0
  1
A
 72
1
 11
-8734.848022460938
 21
1653.582513332367
 31
0.0
100
AcDbText
 73
2
  0
INSERT
  5
13E
330
17
100
AcDbEntity
  8
A-ANNO-SECT
100
AcDbBlockReference
  2
SECTION_ARROW
 10
-8734.848022460938
 20
1103.582513332367
 30
0.0
 41
300.0
 42
300.0
 50
270.0
  0
CIRCLE
  5
140
330
17
100
AcDbEntity
  8
A-ANNO-SECT
370
18
100
AcDbCircle
 10
7410.152912139893
 20
1653.582513332367
 30
0.0
 40
400.0
  0
TEXT
  5
141
330
17
100
AcDbEntity
  8
A-ANNO-SECT
100
AcDbText
 10
7410.152912139893
 20
1653.582513332367
 30
0.0
 40
300.0
  1
A
 72
1
 11
7410.152912139893
 21
1653.582513332367
 31
0.0
100
AcDbText
 73
2
  0
INSERT
  5
142
330
17
100
AcDbEntity
  8
A-ANNO-SECT
100
AcDbBlockReference
  2
SECTION_ARROW
 10
7410.152912139893
 20
1103.582513332367
 30
0.0
 41
300.0
 42
300.0
 50
90.0
  0
LINE
  5
144
330
17
100
AcDbEntity
  8
A-ANNO-SECT
  6
HIDDEN
370
18
100
AcDbLine
 10
-662.3475551605225
 20
-2428.9180040359497
 30
0.0
 11
-662.3475551605225
 21
5736.083030700684
 31
0.0
  0
CIRCLE
  5
145
330
17
100
AcDbEntity
  8
A-ANNO-SECT
370
18
100
AcDbCircle
 10
-662.3475551605225
 20
-2428.9180040359497
 30
0.0
 40
400.0
  0
TEXT
  5
146
330
17
100
AcDbEntity
  8
A-ANNO-SECT
100
AcDbText
 10
-662.3475551605225
 20
-2428.9180040359497
 30
0.0
 40
300.0
  1
B
 72
1
 11
-662.3475551605225
 21
-2428.9180040359497
 31
0.0
100
AcDbText
 73
2
  0
INSERT
  5
147
330
17
100
AcDbEntity
  8
A-ANNO-SECT
100
AcDbBlockReference
  2
SECTION_ARROW
 10
-1212.3475551605225
 20
-2428.9180040359497
 30
0.0
 41
300.0
 42
300.0
  0
CIRCLE
  5
149
330
17
100
AcDbEntity
  8
A-ANNO-SECT
370
18
100
AcDbCircle
 10
-662.3475551605225
 20
5736.083030700684
 30
0.0
 40
400.0
  0
TEXT
  5
14A
330
17
100
AcDbEntity
  8
A-ANNO-SECT
100
AcDbText
 10
-662.3475551605225
 20
5736.083030700684
 30
0.0
 40
300.0
  1
B
 72
1
 11
-662.3475551605225
 21
5736.083030700684
 31
0.0
100
AcDbText
 73
2
  0
INSERT
  5
14B
330
17
100
AcDbEntity
  8
A-ANNO-SECT
100
AcDbBlockReference
  2
SECTION_ARROW
 10
-1212.3475551605225
 20
5736.083030700684
 30
0.0
 41
300.0
 42
300.0
 50
180.0
  0
LWPOLYLINE
  5
14D
330
17
100
AcDbEntity
  8
0
 62
7
100
AcDbPolyline
 90
4
 70
1
 10
-16412.347555160522
 20
-7228.91800403595
 10
25587.652444839478
 20
-7228.91800403595
 10
25587.652444839478
 20
10336.083030700684
 10
-16412.347555160522
 20
10336.083030700684
  0
LWPOLYLINE
  5
14E
330
17
100
AcDbEntity
  8
A-TTLB
370
70
100
AcDbPolyline
 90
4
 70
1
 10
-13912.347555160522
 20
-6228.91800403595
 10
24587.652444839478
 20
-6228.91800403595
 10
24587.652444839478
 20
9336.083030700684
 10
-13912.347555160522
 20
9336.083030700684
  0
LINE
  5
14F
330
17
100
AcDbEntity
  8
A-TTLB
370
70
100
AcDbLine
 10
12587.652444839478
 20
-6228.91800403595
 30
0.0
 11
12587.652444839478
 21
9336.083030700684
 31
0.0
  0
IMAGE
  5
153
330
17
100
AcDbEntity
  8
A-TTLB
100
AcDbRasterImage
 90
0
 10
12787.652444839478
 20
7956.083030700684
 30
0.0
 11
1.6853932584269662
 21
0.0
 31
0.0
 12
1.1269755820374415e-16
 22
1.8404907975460123
 32
0.0
 13
890.0
 23
652.0
340
152
 70
3
280
0
281
50
282
50
283
0
360
154
 71
1
 91
2
 14
-0.5
 24
-0.5
 14
889.5
 24
651.5
290
0
  0
TEXT
  5
155
330
17
100
AcDbEntity
  8
A-TTLB
100
AcDbText
 10
19537.652444839478
 20
8751.083030700684
 30
0.0
 40
390.0
  1
PUBLIC WORKS
 72
1
 11
19537.652444839478
 21
8751.083030700684
 31
0.0
100
AcDbText
 73
2
  0
TEXT
  5
156
330
17
100
AcDbEntity
  8
A-TTLB
100
AcDbText
 10
19537.652444839478
 20
8361.083030700684
 30
0.0
 40
390.0
  1
DEPARTMENT MALAYSIA
 72
1
 11
19537.652444839478
 21
8361.083030700684
 31
0.0
100
AcDbText
 73
2
  0
LINE
  5
157
330
17
100
AcDbEntity
  8
A-TTLB
370
50
100
AcDbLine
 10
12587.652444839478
 20
7776.083030700684
 30
0.0
 11
24587.652444839478
 21
7776.083030700684
 31
0.0
  0
TEXT
  5
158
330
17
100
AcDbEntity
  8
A-TTLB
100
AcDbText
 10
18587.652444839478
 20
7216.083030700684
 30
0.0
 40
500.0
  1
SINGLE STOREY RESIDENTIAL
 72
1
 11
18587.652444839478
 21
7216.083030700684
 31
0.0
100
AcDbText
 73
2
  0
TEXT
  5
159
330
17
100
AcDbEntity
  8
A-TTLB
100
AcDbText
 10
18587.652444839478
 20
6624.083030700684
 30
0.0
 40
300.0
  1
Ifc4 SampleHouse
 72
1
 11
18587.652444839478
 21
6624.083030700684
 31
0.0
100
AcDbText
 73
2
  0
LINE
  5
15A
330
17
100
AcDbEntity
  8
A-TTLB
370
35
100
AcDbLine
 10
12587.652444839478
 20
6176.083030700684
 30
0.0
 11
24587.652444839478
 21
6176.083030700684
 31
0.0
  0
LINE
  5
15B
330
17
100
AcDbEntity
  8
A-TTLB
370
18
100
AcDbLine
 10
12587.652444839478
 20
6176.083030700684
 30
0.0
 11
24587.652444839478
 21
6176.083030700684
 31
0.0
  0
TEXT
  5
15C
330
17
100
AcDbEntity
  8
A-TTLB
 62
8
100
AcDbText
 10
18587.652444839478
 20
5776.083030700684
 30
0.0
 40
180.0
  1
DOOR & WINDOW SCHEDULE
 72
1
 11
18587.652444839478
 21
5776.083030700684
 31
0.0
100
AcDbText
 73
2
  0
LINE
  5
15D
330
17
100
AcDbEntity
  8
A-TTLB
370
18
100
AcDbLine
 10
12587.652444839478
 20
5676.083030700684
 30
0.0
 11
24587.652444839478
 21
5676.083030700684
 31
0.0
  0
TEXT
  5
15E
330
17
100
AcDbEntity
  8
A-TTLB
100
AcDbText
 10
12987.652444839478
 20
5326.083030700684
 30
0.0
 40
180.0
  1
TAG
 11
12987.652444839478
 21
5326.083030700684
 31
0.0
100
AcDbText
  0
TEXT
  5
15F
330
17
100
AcDbEntity
  8
A-TTLB
100
AcDbText
 10
14747.652444839478
 20
5326.083030700684
 30
0.0
 40
180.0
  1
SIZE
 11
14747.652444839478
 21
5326.083030700684
 31
0.0
100
AcDbText
  0
TEXT
  5
160
330
17
100
AcDbEntity
  8
A-TTLB
100
AcDbText
 10
17747.652444839478
 20
5326.083030700684
 30
0.0
 40
180.0
  1
DESCRIPTION
 11
17747.652444839478
 21
5326.083030700684
 31
0.0
100
AcDbText
  0
TEXT
  5
161
330
17
100
AcDbEntity
  8
A-TTLB
100
AcDbText
 10
22427.652444839478
 20
5326.083030700684
 30
0.0
 40
180.0
  1
QTY
 11
22427.652444839478
 21
5326.083030700684
 31
0.0
100
AcDbText
  0
LINE
  5
162
330
17
100
AcDbEntity
  8
A-TTLB
 62
8
370
18
100
AcDbLine
 10
12587.652444839478
 20
4976.083030700684
 30
0.0
 11
24587.652444839478
 21
4976.083030700684
 31
0.0
  0
TEXT
  5
163
330
17
100
AcDbEntity
  8
A-TTLB
100
AcDbText
 10
12987.652444839478
 20
4626.083030700684
 30
0.0
 40
200.0
  1
D1
 11
12987.652444839478
 21
4626.083030700684
 31
0.0
100
AcDbText
  0
TEXT
  5
164
330
17
100
AcDbEntity
  8
A-TTLB
100
AcDbText
 10
14747.652444839478
 20
4626.083030700684
 30
0.0
 40
200.0
  1
1860×2110
 11
14747.652444839478
 21
4626.083030700684
 31
0.0
100
AcDbText
  0
TEXT
  5
165
330
17
100
AcDbEntity
  8
A-TTLB
100
AcDbText
 10
17747.652444839478
 20
4626.083030700684
 30
0.0
 40
180.0
  1
EXTDBL FLUSH
 11
17747.652444839478
 21
4626.083030700684
 31
0.0
100
AcDbText
  0
TEXT
  5
166
330
17
100
AcDbEntity
  8
A-TTLB
100
AcDbText
 10
22427.652444839478
 20
4626.083030700684
 30
0.0
 40
200.0
  1
1 No.
 11
22427.652444839478
 21
4626.083030700684
 31
0.0
100
AcDbText
  0
TEXT
  5
167
330
17
100
AcDbEntity
  8
A-TTLB
100
AcDbText
 10
12987.652444839478
 20
3926.0830307006836
 30
0.0
 40
200.0
  1
D2-D3
 11
12987.652444839478
 21
3926.0830307006836
 31
0.0
100
AcDbText
  0
TEXT
  5
168
330
17
100
AcDbEntity
  8
A-TTLB
100
AcDbText
 10
14747.652444839478
 20
3926.0830307006836
 30
0.0
 40
200.0
  1
178×2145
 11
14747.652444839478
 21
3926.0830307006836
 31
0.0
100
AcDbText
  0
TEXT
  5
169
330
17
100
AcDbEntity
  8
A-TTLB
100
AcDbText
 10
17747.652444839478
 20
3926.0830307006836
 30
0.0
 40
180.0
  1
INTSGL
 11
17747.652444839478
 21
3926.0830307006836
 31
0.0
100
AcDbText
  0
TEXT
  5
16A
330
17
100
AcDbEntity
  8
A-TTLB
100
AcDbText
 10
22427.652444839478
 20
3926.0830307006836
 30
0.0
 40
200.0
  1
2 No.
 11
22427.652444839478
 21
3926.0830307006836
 31
0.0
100
AcDbText
  0
TEXT
  5
16B
330
17
100
AcDbEntity
  8
A-TTLB
100
AcDbText
 10
12987.652444839478
 20
3226.0830307006836
 30
0.0
 40
200.0
  1
W1-W4
 11
12987.652444839478
 21
3226.0830307006836
 31
0.0
100
AcDbText
  0
TEXT
  5
16C
330
17
100
AcDbEntity
  8
A-TTLB
100
AcDbText
 10
14747.652444839478
 20
3226.0830307006836
 30
0.0
 40
200.0
  1
1860×1210
 11
14747.652444839478
 21
3226.0830307006836
 31
0.0
100
AcDbText
  0
TEXT
  5
16D
330
17
100
AcDbEntity
  8
A-TTLB
100
AcDbText
 10
17747.652444839478
 20
3226.0830307006836
 30
0.0
 40
180.0
  1
SGL PLAIN
 11
17747.652444839478
 21
3226.0830307006836
 31
0.0
100
AcDbText
  0
TEXT
  5
16E
330
17
100
AcDbEntity
  8
A-TTLB
100
AcDbText
 10
22427.652444839478
 20
3226.0830307006836
 30
0.0
 40
200.0
  1
4 No.
 11
22427.652444839478
 21
3226.0830307006836
 31
0.0
100
AcDbText
  0
LINE
  5
16F
330
17
100
AcDbEntity
  8
A-TTLB
 62
8
370
18
100
AcDbLine
 10
12587.652444839478
 20
2876.0830307006836
 30
0.0
 11
24587.652444839478
 21
2876.0830307006836
 31
0.0
  0
LINE
  5
170
330
17
100
AcDbEntity
  8
A-TTLB
370
18
100
AcDbLine
 10
12587.652444839478
 20
-3228.9180040359497
 30
0.0
 11
24587.652444839478
 21
-3228.9180040359497
 31
0.0
  0
LINE
  5
171
330
17
100
AcDbEntity
  8
A-TTLB
370
18
100
AcDbLine
 10
16187.652444839478
 20
-3228.9180040359497
 30
0.0
 11
16187.652444839478
 21
-2673.917909968983
 31
0.0
  0
TEXT
  5
172
330
17
100
AcDbEntity
  8
A-TTLB
100
AcDbText
 10
14387.652444839478
 20
-2951.417957002466
 30
0.0
 40
200.0
  1
REVISION NO.
 72
1
 11
14387.652444839478
 21
-2951.417957002466
 31
0.0
100
AcDbText
 73
2
  0
TEXT
  5
173
330
17
100
AcDbEntity
  8
A-TTLB
100
AcDbText
 10
20387.652444839478
 20
-2951.417957002466
 30
0.0
 40
300.0
  1
0
 72
1
 11
20387.652444839478
 21
-2951.417957002466
 31
0.0
100
AcDbText
 73
2
  0
LINE
  5
174
330
17
100
AcDbEntity
  8
A-TTLB
370
18
100
AcDbLine
 10
12587.652444839478
 20
-2673.917909968983
 30
0.0
 11
24587.652444839478
 21
-2673.917909968983
 31
0.0
  0
LINE
  5
175
330
17
100
AcDbEntity
  8
A-TTLB
370
18
100
AcDbLine
 10
16187.652444839478
 20
-2673.917909968983
 30
0.0
 11
16187.652444839478
 21
-2118.9178159020166
 31
0.0
  0
TEXT
  5
176
330
17
100
AcDbEntity
  8
A-TTLB
100
AcDbText
 10
14387.652444839478
 20
-2396.4178629354997
 30
0.0
 40
200.0
  1
CHECKED BY
 72
1
 11
14387.652444839478
 21
-2396.4178629354997
 31
0.0
100
AcDbText
 73
2
  0
LINE
  5
177
330
17
100
AcDbEntity
  8
A-TTLB
370
35
100
AcDbLine
 10
12587.652444839478
 20
-2118.9178159020166
 30
0.0
 11
24587.652444839478
 21
-2118.9178159020166
 31
0.0
  0
LINE
  5
178
330
17
100
AcDbEntity
  8
A-TTLB
370
18
100
AcDbLine
 10
16187.652444839478
 20
-2118.9178159020166
 30
0.0
 11
16187.652444839478
 21
-1563.91772183505
 31
0.0
  0
TEXT
  5
179
330
17
100
AcDbEntity
  8
A-TTLB
100
AcDbText
 10
14387.652444839478
 20
-1841.4177688685334
 30
0.0
 40
200.0
  1
DRAWING NO.
 72
1
 11
14387.652444839478
 21
-1841.4177688685334
 31
0.0
100
AcDbText
 73
2
  0
TEXT
  5
17A
330
17
100
AcDbEntity
  8
A-TTLB
100
AcDbText
 10
20387.652444839478
 20
-1841.4177688685334
 30
0.0
 40
300.0
  1
A-01
 72
1
 11
20387.652444839478
 21
-1841.4177688685334
 31
0.0
100
AcDbText
 73
2
  0
LINE
  5
17B
330
17
100
AcDbEntity
  8
A-TTLB
370
18
100
AcDbLine
 10
12587.652444839478
 20
-1563.91772183505
 30
0.0
 11
24587.652444839478
 21
-1563.91772183505
 31
0.0
  0
LINE
  5
17C
330
17
100
AcDbEntity
  8
A-TTLB
370
18
100
AcDbLine
 10
16187.652444839478
 20
-1563.91772183505
 30
0.0
 11
16187.652444839478
 21
-1008.9176277680834
 31
0.0
  0
TEXT
  5
17D
330
17
100
AcDbEntity
  8
A-TTLB
100
AcDbText
 10
14387.652444839478
 20
-1286.4176748015668
 30
0.0
 40
200.0
  1
DATE
 72
1
 11
14387.652444839478
 21
-1286.4176748015668
 31
0.0
100
AcDbText
 73
2
  0
LINE
  5
17E
330
17
100
AcDbEntity
  8
A-TTLB
370
18
100
AcDbLine
 10
12587.652444839478
 20
-1008.9176277680834
 30
0.0
 11
24587.652444839478
 21
-1008.9176277680834
 31
0.0
  0
LINE
  5
17F
330
17
100
AcDbEntity
  8
A-TTLB
370
18
100
AcDbLine
 10
16187.652444839478
 20
-1008.9176277680834
 30
0.0
 11
16187.652444839478
 21
-453.9175337011168
 31
0.0
  0
TEXT
  5
180
330
17
100
AcDbEntity
  8
A-TTLB
100
AcDbText
 10
14387.652444839478
 20
-731.4175807346
 30
0.0
 40
200.0
  1
SCALE
 72
1
 11
14387.652444839478
 21
-731.4175807346
 31
0.0
100
AcDbText
 73
2
  0
TEXT
  5
181
330
17
100
AcDbEntity
  8
A-TTLB
100
AcDbText
 10
20387.652444839478
 20
-731.4175807346
 30
0.0
 40
300.0
  1
1:100
 72
1
 11
20387.652444839478
 21
-731.4175807346
 31
0.0
100
AcDbText
 73
2
  0
LINE
  5
182
330
17
100
AcDbEntity
  8
A-TTLB
370
18
100
AcDbLine
 10
12587.652444839478
 20
-453.9175337011168
 30
0.0
 11
24587.652444839478
 21
-453.9175337011168
 31
0.0
  0
LINE
  5
183
330
17
100
AcDbEntity
  8
A-TTLB
370
18
100
AcDbLine
 10
16187.652444839478
 20
-453.9175337011168
 30
0.0
 11
16187.652444839478
 21
101.08256036584987
 31
0.0
  0
TEXT
  5
184
330
17
100
AcDbEntity
  8
A-TTLB
100
AcDbText
 10
14387.652444839478
 20
-176.41748666763345
 30
0.0
 40
200.0
  1
DRAWN BY
 72
1
 11
14387.652444839478
 21
-176.41748666763345
 31
0.0
100
AcDbText
 73
2
  0
LINE
  5
185
330
17
100
AcDbEntity
  8
A-TTLB
370
35
100
AcDbLine
 10
12587.652444839478
 20
101.08256036584987
 30
0.0
 11
24587.652444839478
 21
101.08256036584987
 31
0.0
  0
LINE
  5
186
330
17
100
AcDbEntity
  8
A-TTLB
370
18
100
AcDbLine
 10
16187.652444839478
 20
101.08256036584987
 30
0.0
 11
16187.652444839478
 21
656.0826544328165
 31
0.0
  0
TEXT
  5
187
330
17
100
AcDbEntity
  8
A-TTLB
100
AcDbText
 10
14387.652444839478
 20
378.5826073993332
 30
0.0
 40
200.0
  1
DRAWING TITLE
 72
1
 11
14387.652444839478
 21
378.5826073993332
 31
0.0
100
AcDbText
 73
2
  0
TEXT
  5
188
330
17
100
AcDbEntity
  8
A-TTLB
100
AcDbText
 10
20387.652444839478
 20
378.5826073993332
 30
0.0
 40
300.0
  1
FLOOR PLAN
 72
1
 11
20387.652444839478
 21
378.5826073993332
 31
0.0
100
AcDbText
 73
2
  0
LINE
  5
189
330
17
100
AcDbEntity
  8
A-TTLB
370
35
100
AcDbLine
 10
12587.652444839478
 20
656.0826544328165
 30
0.0
 11
24587.652444839478
 21
656.0826544328165
 31
0.0
  0
LINE
  5
18A
330
17
100
AcDbEntity
  8
A-TTLB
370
18
100
AcDbLine
 10
16187.652444839478
 20
656.0826544328165
 30
0.0
 11
16187.652444839478
 21
1211.082748499783
 31
0.0
  0
TEXT
  5
18B
330
17
100
AcDbEntity
  8
A-TTLB
100
AcDbText
 10
14387.652444839478
 20
933.5827014662998
 30
0.0
 40
200.0
  1
BUILDING TYPE
 72
1
 11
14387.652444839478
 21
933.5827014662998
 31
0.0
100
AcDbText
 73
2
  0
TEXT
  5
18C
330
17
100
AcDbEntity
  8
A-TTLB
100
AcDbText
 10
20387.652444839478
 20
933.5827014662998
 30
0.0
 40
300.0
  1
SINGLE STOREY RESIDENTIAL
 72
1
 11
20387.652444839478
 21
933.5827014662998
 31
0.0
100
AcDbText
 73
2
  0
LINE
  5
18D
330
17
100
AcDbEntity
  8
A-TTLB
370
35
100
AcDbLine
 10
12587.652444839478
 20
1211.082748499783
 30
0.0
 11
24587.652444839478
 21
1211.082748499783
 31
0.0
  0
LINE
  5
18E
330
17
100
AcDbEntity
  8
A-TTLB
370
18
100
AcDbLine
 10
16187.652444839478
 20
1211.082748499783
 30
0.0
 11
16187.652444839478
 21
1766.0828425667496
 31
0.0
  0
TEXT
  5
18F
330
17
100
AcDbEntity
  8
A-TTLB
100
AcDbText
 10
14387.652444839478
 20
1488.5827955332663
 30
0.0
 40
200.0
  1
ARCHITECT
 72
1
 11
14387.652444839478
 21
1488.5827955332663
 31
0.0
100
AcDbText
 73
2
  0
LINE
  5
190
330
17
100
AcDbEntity
  8
A-TTLB
370
18
100
AcDbLine
 10
12587.652444839478
 20
1766.0828425667496
 30
0.0
 11
24587.652444839478
 21
1766.0828425667496
 31
0.0
  0
LINE
  5
191
330
17
100
AcDbEntity
  8
A-TTLB
370
18
100
AcDbLine
 10
16187.652444839478
 20
1766.0828425667496
 30
0.0
 11
16187.652444839478
 21
2321.082936633716
 31
0.0
  0
TEXT
  5
192
330
17
100
AcDbEntity
  8
A-TTLB
100
AcDbText
 10
14387.652444839478
 20
2043.5828896002329
 30
0.0
 40
200.0
  1
CLIENT
 72
1
 11
14387.652444839478
 21
2043.5828896002329
 31
0.0
100
AcDbText
 73
2
  0
LINE
  5
193
330
17
100
AcDbEntity
  8
A-TTLB
370
35
100
AcDbLine
 10
12587.652444839478
 20
2321.082936633716
 30
0.0
 11
24587.652444839478
 21
2321.082936633716
 31
0.0
  0
LINE
  5
194
330
17
100
AcDbEntity
  8
A-TTLB
370
18
100
AcDbLine
 10
16187.652444839478
 20
2321.082936633716
 30
0.0
 11
16187.652444839478
 21
2876.0830307006827
 31
0.0
  0
TEXT
  5
195
330
17
100
AcDbEntity
  8
A-TTLB
100
AcDbText
 10
14387.652444839478
 20
2598.5829836671996
 30
0.0
 40
200.0
  1
PROJECT
 72
1
 11
14387.652444839478
 21
2598.5829836671996
 31
0.0
100
AcDbText
 73
2
  0
LINE
  5
196
330
17
100
AcDbEntity
  8
A-TTLB
370
50
100
AcDbLine
 10
12587.652444839478
 20
-3228.9180040359497
 30
0.0
 11
24587.652444839478
 21
-3228.9180040359497
 31
0.0
  0
TEXT
  5
197
330
17
100
AcDbEntity
  8
A-TTLB
100
AcDbText
 10
18587.652444839478
 20
-3528.9180040359497
 30
0.0
 40
240.0
  1
GRID REFERENCE
 72
1
 11
18587.652444839478
 21
-3528.9180040359497
 31
0.0
100
AcDbText
 73
2
  0
LINE
  5
198
330
17
100
AcDbEntity
  8
A-TTLB
370
35
100
AcDbLine
 10
12587.652444839478
 20
-3678.9180040359497
 30
0.0
 11
24587.652444839478
 21
-3678.9180040359497
 31
0.0
  0
TEXT
  5
199
330
17
100
AcDbEntity
  8
A-TTLB
100
AcDbText
 10
18587.652444839478
 20
-3978.9180040359497
 30
0.0
 40
200.0
  1
ALL DIMS SHOWN IN DRAWING
 72
1
 11
18587.652444839478
 21
-3978.9180040359497
 31
0.0
100
AcDbText
 73
2
  0
LWPOLYLINE
  5
19A
330
17
100
AcDbEntity
  8
A-ANNO-TEXT
370
18
100
AcDbPolyline
 90
3
 70
1
 10
10987.652444839478
 20
7736.083030700684
 10
10723.652444839478
 20
6936.083030700684
 10
11251.652444839478
 20
6936.083030700684
  0
TEXT
  5
19B
330
17
100
AcDbEntity
  8
A-ANNO-TEXT
100
AcDbText
 10
10987.652444839478
 20
8036.083030700684
 30
0.0
 40
300.0
  1
N
 72
1
 11
10987.652444839478
 21
8036.083030700684
 31
0.0
100
AcDbText
 73
2
  0
TEXT
  5
19C
330
17
100
AcDbEntity
  8
A-ANNO-TEXT
 62
8
100
AcDbText
 10
-662.3475551605225
 20
-5328.91800403595
 30
0.0
 40
300.0
  1
scale 1:100
 72
1
 11
-662.3475551605225
 21
-5328.91800403595
 31
0.0
100
AcDbText
 73
2
  0
SOLID
  5
19D
330
17
100
AcDbEntity
  8
A-ANNO-DIMS
 62
7
100
AcDbTrace
 10
-3162.3475551605225
 20
-5928.91800403595
 30
0.0
 11
-2162.3475551605225
 21
-5928.91800403595
 31
0.0
 12
-3162.3475551605225
 22
-5728.91800403595
 32
0.0
 13
-2162.3475551605225
 23
-5728.91800403595
 33
0.0
  0
SOLID
  5
19E
330
17
100
AcDbEntity
  8
A-ANNO-DIMS
 62
0
100
AcDbTrace
 10
-2162.3475551605225
 20
-5928.91800403595
 30
0.0
 11
-1162.3475551605225
 21
-5928.91800403595
 31
0.0
 12
-2162.3475551605225
 22
-5728.91800403595
 32
0.0
 13
-1162.3475551605225
 23
-5728.91800403595
 33
0.0
  0
SOLID
  5
19F
330
17
100
AcDbEntity
  8
A-ANNO-DIMS
 62
7
100
AcDbTrace
 10
-1162.3475551605225
 20
-5928.91800403595
 30
0.0
 11
1837.6524448394775
 21
-5928.91800403595
 31
0.0
 12
-1162.3475551605225
 22
-5728.91800403595
 32
0.0
 13
1837.6524448394775
 23
-5728.91800403595
 33
0.0
  0
TEXT
  5
1A0
330
17
100
AcDbEntity
  8
A-ANNO-DIMS
100
AcDbText
 10
-3162.3475551605225
 20
-6088.91800403595
 30
0.0
 40
200.0
  1
0
 72
1
 11
-3162.3475551605225
 21
-6088.91800403595
 31
0.0
100
AcDbText
 73
2
  0
TEXT
  5
1A1
330
17
100
AcDbEntity
  8
A-ANNO-DIMS
100
AcDbText
 10
-2162.3475551605225
 20
-5428.91800403595
 30
0.0
 40
200.0
  1
1
 72
1
 11
-2162.3475551605225
 21
-5428.91800403595
 31
0.0
100
AcDbText
 73
2
  0
TEXT
  5
1A2
330
17
100
AcDbEntity
  8
A-ANNO-DIMS
100
AcDbText
 10
-1162.3475551605225
 20
-6088.91800403595
 30
0.0
 40
200.0
  1
2
 72
1
 11
-1162.3475551605225
 21
-6088.91800403595
 31
0.0
100
AcDbText
 73
2
  0
TEXT
  5
1A3
330
17
100
AcDbEntity
  8
A-ANNO-DIMS
100
AcDbText
 10
1837.6524448394775
 20
-5428.91800403595
 30
0.0
 40
200.0
  1
5m
 72
1
 11
1837.6524448394775
 21
-5428.91800403595
 31
0.0
100
AcDbText
 73
2
  0
ENDSEC
  0
SECTION
  2
OBJECTS
  0
DICTIONARY
  5
A
330
0
100
AcDbDictionary
281
1
  3
ACAD_COLOR
350
B
  3
ACAD_GROUP
350
C
  3
ACAD_LAYOUT
350
D
  3
ACAD_MATERIAL
350
E
  3
ACAD_MLEADERSTYLE
350
F
  3
ACAD_MLINESTYLE
350
10
  3
ACAD_PLOTSETTINGS
350
11
  3
ACAD_PLOTSTYLENAME
350
12
  3
ACAD_SCALELIST
350
14
  3
ACAD_TABLESTYLE
350
15
  3
ACAD_VISUALSTYLE
350
16
  3
EZDXF_META
350
2D
  3
ACAD_IMAGE_VARS
350
150
  3
ACAD_IMAGE_DICT
350
151
  0
DICTIONARY
  5
B
330
A
100
AcDbDictionary
281
1
  0
DICTIONARY
  5
C
330
A
100
AcDbDictionary
281
1
  0
DICTIONARY
  5
D
330
A
100
AcDbDictionary
281
1
  3
Model
350
1A
  3
Layout1
350
1E
  0
DICTIONARY
  5
E
330
A
100
AcDbDictionary
281
1
  3
ByBlock
350
1F
  3
ByLayer
350
20
  3
Global
350
21
  0
DICTIONARY
  5
F
330
A
100
AcDbDictionary
281
1
  3
Standard
350
2C
  0
DICTIONARY
  5
10
330
A
100
AcDbDictionary
281
1
  3
Standard
350
22
  0
DICTIONARY
  5
11
330
A
100
AcDbDictionary
281
1
  0
ACDBDICTIONARYWDFLT
  5
12
330
A
100
AcDbDictionary
281
1
  3
Normal
350
13
100
AcDbDictionaryWithDefault
340
13
  0
ACDBPLACEHOLDER
  5
13
330
12
  0
DICTIONARY
  5
14
330
A
100
AcDbDictionary
281
1
  0
DICTIONARY
  5
15
330
A
100
AcDbDictionary
281
1
  0
DICTIONARY
  5
16
330
A
100
AcDbDictionary
281
1
  0
LAYOUT
  5
1A
330
D
100
AcDbPlotSettings
  1

  4
A3
  6

 40
7.5
 41
20.0
 42
7.5
 43
20.0
 44
420.0
 45
297.0
 46
0.0
 47
0.0
 48
0.0
 49
0.0
140
0.0
141
0.0
142
1.0
143
1.0
 70
1024
 72
1
 73
0
 74
5
  7

 75
16
 76
0
 77
2
 78
300
147
1.0
148
0.0
149
0.0
100
AcDbLayout
  1
Model
 70
1
 71
0
 10
0.0
 20
0.0
 11
420.0
 21
297.0
 12
0.0
 22
0.0
 32
0.0
 14
1e+20
 24
1e+20
 34
1e+20
 15
-1e+20
 25
-1e+20
 35
-1e+20
146
0.0
 13
0.0
 23
0.0
 33
0.0
 16
1.0
 26
0.0
 36
0.0
 17
0.0
 27
1.0
 37
0.0
 76
1
330
17
  0
LAYOUT
  5
1E
330
D
100
AcDbPlotSettings
  1

  4
A3
  6

 40
7.5
 41
20.0
 42
7.5
 43
20.0
 44
420.0
 45
297.0
 46
0.0
 47
0.0
 48
0.0
 49
0.0
140
0.0
141
0.0
142
1.0
143
1.0
 70
0
 72
1
 73
0
 74
5
  7

 75
16
 76
0
 77
2
 78
300
147
1.0
148
0.0
149
0.0
100
AcDbLayout
  1
Layout1
 70
1
 71
1
 10
0.0
 20
0.0
 11
420.0
 21
297.0
 12
0.0
 22
0.0
 32
0.0
 14
1e+20
 24
1e+20
 34
1e+20
 15
-1e+20
 25
-1e+20
 35
-1e+20
146
0.0
 13
0.0
 23
0.0
 33
0.0
 16
1.0
 26
0.0
 36
0.0
 17
0.0
 27
1.0
 37
0.0
 76
1
330
1B
  0
MATERIAL
  5
1F
102
{ACAD_REACTORS
330
E
102
}
330
E
100
AcDbMaterial
  1
ByBlock
  2

 70
0
 40
1.0
 71
1
 41
1.0
 91
-1023410177
 42
1.0
 72
1
  3

 73
1
 74
1
 75
1
 44
0.5
 73
0
 45
1.0
 46
1.0
 77
1
  4

 78
1
 79
1
170
1
 48
1.0
171
1
  6

172
1
173
1
174
1
140
1.0
141
1.0
175
1
  7

176
1
177
1
178
1
143
1.0
179
1
  8

270
1
271
1
272
1
145
1.0
146
1.0
273
1
  9

274
1
275
1
276
1
 42
1.0
 72
1
  3

 73
1
 74
1
 75
1
 94
63
  0
MATERIAL
  5
20
102
{ACAD_REACTORS
330
E
102
}
330
E
100
AcDbMaterial
  1
ByLayer
  2

 70
0
 40
1.0
 71
1
 41
1.0
 91
-1023410177
 42
1.0
 72
1
  3

 73
1
 74
1
 75
1
 44
0.5
 73
0
 45
1.0
 46
1.0
 77
1
  4

 78
1
 79
1
170
1
 48
1.0
171
1
  6

172
1
173
1
174
1
140
1.0
141
1.0
175
1
  7

176
1
177
1
178
1
143
1.0
179
1
  8

270
1
271
1
272
1
145
1.0
146
1.0
273
1
  9

274
1
275
1
276
1
 42
1.0
 72
1
  3

 73
1
 74
1
 75
1
 94
63
  0
MATERIAL
  5
21
102
{ACAD_REACTORS
330
E
102
}
330
E
100
AcDbMaterial
  1
Global
  2

 70
0
 40
1.0
 71
1
 41
1.0
 91
-1023410177
 42
1.0
 72
1
  3

 73
1
 74
1
 75
1
 44
0.5
 73
0
 45
1.0
 46
1.0
 77
1
  4

 78
1
 79
1
170
1
 48
1.0
171
1
  6

172
1
173
1
174
1
140
1.0
141
1.0
175
1
  7

176
1
177
1
178
1
143
1.0
179
1
  8

270
1
271
1
272
1
145
1.0
146
1.0
273
1
  9

274
1
275
1
276
1
 42
1.0
 72
1
  3

 73
1
 74
1
 75
1
 94
63
  0
MLINESTYLE
  5
22
102
{ACAD_REACTORS
330
10
102
}
330
10
100
AcDbMlineStyle
  2
Standard
 70
0
  3

 62
256
 51
90.0
 52
90.0
 71
2
 49
0.5
 62
256
  6
BYLAYER
 49
-0.5
 62
256
  6
BYLAYER
  0
MLEADERSTYLE
  5
2C
102
{ACAD_REACTORS
330
F
102
}
330
F
100
AcDbMLeaderStyle
179
2
170
2
171
1
172
0
 90
2
 40
0.0
 41
0.0
173
1
 91
-1056964608
 92
-2
290
1
 42
2.0
291
1
 43
8.0
  3
Standard
 44
4.0
300

342
29
174
1
175
1
176
0
178
1
 93
-1056964608
 45
4.0
292
0
297
0
 46
4.0
 94
-1056964608
 47
1.0
 49
1.0
140
1.0
294
1
141
0.0
177
0
142
1.0
295
0
296
0
143
3.75
271
0
272
9
273
9
  0
DICTIONARY
  5
2D
330
A
100
AcDbDictionary
280
1
281
1
  3
CREATED_BY_EZDXF
350
2E
  3
WRITTEN_BY_EZDXF
350
1A6
  0
DICTIONARYVAR
  5
2E
330
2D
100
DictionaryVariables
280
0
  1
1.4.3 @ 2026-04-19T08:14:51.407167+00:00
  0
RASTERVARIABLES
  5
150
102
{ACAD_REACTORS
330
A
102
}
330
A
100
AcDbRasterVariables
 90
0
 70
0
 71
1
 72
3
  0
DICTIONARY
  5
151
330
A
100
AcDbDictionary
281
1
  3
/home/red1/bim-compiler/2D_Layout/python/../input/jkr.png
350
152
  0
IMAGEDEF
  5
152
102
{ACAD_REACTORS
330
151
330
154
102
}
330
151
100
AcDbRasterImageDef
 90
0
  1
/home/red1/bim-compiler/2D_Layout/python/../input/jkr.png
 10
890.0
 20
652.0
 11
0.01
 21
0.01
280
1
281
0
  0
IMAGEDEF_REACTOR
  5
154
330
153
100
AcDbRasterImageDefReactor
 90
2
330
153
  0
DICTIONARYVAR
  5
1A6
330
2D
100
DictionaryVariables
280
0
  1
1.4.3 @ 2026-04-19T08:14:51.547229+00:00
  0
ENDSEC
  0
EOF
