  0
SECTION
  2
HEADER
  9
$ACADVER
  1
AC1024
  9
$ACADMAINTVER
 70
6
  9
$DWGCODEPAGE
  3
ANSI_1252
  9
$LASTSAVEDBY
  1
ezdxf
  9
$INSBASE
 10
0.0
 20
0.0
 30
0.0
  9
$EXTMIN
 10
1e+20
 20
1e+20
 30
1e+20
  9
$EXTMAX
 10
-1e+20
 20
-1e+20
 30
-1e+20
  9
$LIMMIN
 10
0.0
 20
0.0
  9
$LIMMAX
 10
420.0
 20
297.0
  9
$ORTHOMODE
 70
0
  9
$REGENMODE
 70
1
  9
$FILLMODE
 70
1
  9
$QTEXTMODE
 70
0
  9
$MIRRTEXT
 70
1
  9
$LTSCALE
 40
1.0
  9
$ATTMODE
 70
1
  9
$TEXTSIZE
 40
2.5
  9
$TRACEWID
 40
1.0
  9
$TEXTSTYLE
  7
Standard
  9
$CLAYER
  8
0
  9
$CELTYPE
  6
ByLayer
  9
$CECOLOR
 62
256
  9
$CELTSCALE
 40
1.0
  9
$DISPSILH
 70
0
  9
$DIMSCALE
 40
1.0
  9
$DIMASZ
 40
2.5
  9
$DIMEXO
 40
0.625
  9
$DIMDLI
 40
3.75
  9
$DIMRND
 40
0.0
  9
$DIMDLE
 40
0.0
  9
$DIMEXE
 40
1.25
  9
$DIMTP
 40
0.0
  9
$DIMTM
 40
0.0
  9
$DIMTXT
 40
2.5
  9
$DIMCEN
 40
2.5
  9
$DIMTSZ
 40
0.0
  9
$DIMTOL
 70
0
  9
$DIMLIM
 70
0
  9
$DIMTIH
 70
0
  9
$DIMTOH
 70
0
  9
$DIMSE1
 70
0
  9
$DIMSE2
 70
0
  9
$DIMTAD
 70
1
  9
$DIMZIN
 70
8
  9
$DIMBLK
  1

  9
$DIMASO
 70
1
  9
$DIMSHO
 70
1
  9
$DIMPOST
  1

  9
$DIMAPOST
  1

  9
$DIMALT
 70
0
  9
$DIMALTD
 70
3
  9
$DIMALTF
 40
0.03937007874
  9
$DIMLFAC
 40
1.0
  9
$DIMTOFL
 70
1
  9
$DIMTVP
 40
0.0
  9
$DIMTIX
 70
0
  9
$DIMSOXD
 70
0
  9
$DIMSAH
 70
0
  9
$DIMBLK1
  1

  9
$DIMBLK2
  1

  9
$DIMSTYLE
  2
ISO-25
  9
$DIMCLRD
 70
0
  9
$DIMCLRE
 70
0
  9
$DIMCLRT
 70
0
  9
$DIMTFAC
 40
1.0
  9
$DIMGAP
 40
0.625
  9
$DIMJUST
 70
0
  9
$DIMSD1
 70
0
  9
$DIMSD2
 70
0
  9
$DIMTOLJ
 70
0
  9
$DIMTZIN
 70
8
  9
$DIMALTZ
 70
0
  9
$DIMALTTZ
 70
0
  9
$DIMUPT
 70
0
  9
$DIMDEC
 70
2
  9
$DIMTDEC
 70
2
  9
$DIMALTU
 70
2
  9
$DIMALTTD
 70
3
  9
$DIMTXSTY
  7
Standard
  9
$DIMAUNIT
 70
0
  9
$DIMADEC
 70
0
  9
$DIMALTRND
 40
0.0
  9
$DIMAZIN
 70
0
  9
$DIMDSEP
 70
44
  9
$DIMATFIT
 70
3
  9
$DIMFRAC
 70
0
  9
$DIMLDRBLK
  1

  9
$DIMLUNIT
 70
2
  9
$DIMLWD
 70
-2
  9
$DIMLWE
 70
-2
  9
$DIMTMOVE
 70
0
  9
$DIMFXL
 40
1.0
  9
$DIMFXLON
 70
0
  9
$DIMJOGANG
 40
0.785398163397
  9
$DIMTFILL
 70
0
  9
$DIMTFILLCLR
 70
0
  9
$DIMARCSYM
 70
0
  9
$DIMLTYPE
  6

  9
$DIMLTEX1
  6

  9
$DIMLTEX2
  6

  9
$DIMTXTDIRECTION
 70
0
  9
$LUNITS
 70
2
  9
$LUPREC
 70
4
  9
$SKETCHINC
 40
1.0
  9
$FILLETRAD
 40
10.0
  9
$AUNITS
 70
0
  9
$AUPREC
 70
2
  9
$MENU
  1
.
  9
$ELEVATION
 40
0.0
  9
$PELEVATION
 40
0.0
  9
$THICKNESS
 40
0.0
  9
$LIMCHECK
 70
0
  9
$CHAMFERA
 40
0.0
  9
$CHAMFERB
 40
0.0
  9
$CHAMFERC
 40
0.0
  9
$CHAMFERD
 40
0.0
  9
$SKPOLY
 70
0
  9
$TDCREATE
 40
2461150.6769791665
  9
$TDUCREATE
 40
2458532.153996898
  9
$TDUPDATE
 40
2461150.6769791665
  9
$TDUUPDATE
 40
2458532.1544311
  9
$TDINDWG
 40
0.0
  9
$TDUSRTIMER
 40
0.0
  9
$USRTIMER
 70
1
  9
$ANGBASE
 50
0.0
  9
$ANGDIR
 70
0
  9
$PDMODE
 70
0
  9
$PDSIZE
 40
0.0
  9
$PLINEWID
 40
0.0
  9
$SPLFRAME
 70
0
  9
$SPLINETYPE
 70
6
  9
$SPLINESEGS
 70
8
  9
$HANDSEED
  5
F4
  9
$SURFTAB1
 70
6
  9
$SURFTAB2
 70
6
  9
$SURFTYPE
 70
6
  9
$SURFU
 70
6
  9
$SURFV
 70
6
  9
$UCSBASE
  2

  9
$UCSNAME
  2

  9
$UCSORG
 10
0.0
 20
0.0
 30
0.0
  9
$UCSXDIR
 10
1.0
 20
0.0
 30
0.0
  9
$UCSYDIR
 10
0.0
 20
1.0
 30
0.0
  9
$UCSORTHOREF
  2

  9
$UCSORTHOVIEW
 70
0
  9
$UCSORGTOP
 10
0.0
 20
0.0
 30
0.0
  9
$UCSORGBOTTOM
 10
0.0
 20
0.0
 30
0.0
  9
$UCSORGLEFT
 10
0.0
 20
0.0
 30
0.0
  9
$UCSORGRIGHT
 10
0.0
 20
0.0
 30
0.0
  9
$UCSORGFRONT
 10
0.0
 20
0.0
 30
0.0
  9
$UCSORGBACK
 10
0.0
 20
0.0
 30
0.0
  9
$PUCSBASE
  2

  9
$PUCSNAME
  2

  9
$PUCSORG
 10
0.0
 20
0.0
 30
0.0
  9
$PUCSXDIR
 10
1.0
 20
0.0
 30
0.0
  9
$PUCSYDIR
 10
0.0
 20
1.0
 30
0.0
  9
$PUCSORTHOREF
  2

  9
$PUCSORTHOVIEW
 70
0
  9
$PUCSORGTOP
 10
0.0
 20
0.0
 30
0.0
  9
$PUCSORGBOTTOM
 10
0.0
 20
0.0
 30
0.0
  9
$PUCSORGLEFT
 10
0.0
 20
0.0
 30
0.0
  9
$PUCSORGRIGHT
 10
0.0
 20
0.0
 30
0.0
  9
$PUCSORGFRONT
 10
0.0
 20
0.0
 30
0.0
  9
$PUCSORGBACK
 10
0.0
 20
0.0
 30
0.0
  9
$USERI1
 70
0
  9
$USERI2
 70
0
  9
$USERI3
 70
0
  9
$USERI4
 70
0
  9
$USERI5
 70
0
  9
$USERR1
 40
0.0
  9
$USERR2
 40
0.0
  9
$USERR3
 40
0.0
  9
$USERR4
 40
0.0
  9
$USERR5
 40
0.0
  9
$WORLDVIEW
 70
1
  9
$SHADEDGE
 70
3
  9
$SHADEDIF
 70
70
  9
$TILEMODE
 70
1
  9
$MAXACTVP
 70
64
  9
$PINSBASE
 10
0.0
 20
0.0
 30
0.0
  9
$PLIMCHECK
 70
0
  9
$PEXTMIN
 10
1e+20
 20
1e+20
 30
1e+20
  9
$PEXTMAX
 10
-1e+20
 20
-1e+20
 30
-1e+20
  9
$PLIMMIN
 10
0.0
 20
0.0
  9
$PLIMMAX
 10
420.0
 20
297.0
  9
$UNITMODE
 70
0
  9
$VISRETAIN
 70
1
  9
$PLINEGEN
 70
0
  9
$PSLTSCALE
 70
1
  9
$TREEDEPTH
 70
3020
  9
$CMLSTYLE
  2
Standard
  9
$CMLJUST
 70
0
  9
$CMLSCALE
 40
20.0
  9
$PROXYGRAPHICS
 70
1
  9
$MEASUREMENT
 70
1
  9
$CELWEIGHT
370
-1
  9
$ENDCAPS
280
0
  9
$JOINSTYLE
280
0
  9
$LWDISPLAY
290
0
  9
$INSUNITS
 70
4
  9
$HYPERLINKBASE
  1

  9
$STYLESHEET
  1

  9
$XEDIT
290
1
  9
$CEPSNTYPE
380
0
  9
$PSTYLEMODE
290
1
  9
$FINGERPRINTGUID
  2
{23E99A01-5FCF-4283-9452-3A729C12FD93}
  9
$VERSIONGUID
  2
{DF43B73C-6E3B-4082-BF09-78A4E17C90FC}
  9
$EXTNAMES
290
1
  9
$PSVPSCALE
 40
0.0
  9
$OLESTARTUP
290
0
  9
$SORTENTS
280
127
  9
$INDEXCTL
280
0
  9
$HIDETEXT
280
1
  9
$XCLIPFRAME
280
1
  9
$HALOGAP
280
0
  9
$OBSCOLOR
 70
257
  9
$OBSLTYPE
280
0
  9
$INTERSECTIONDISPLAY
280
0
  9
$INTERSECTIONCOLOR
 70
257
  9
$DIMASSOC
280
2
  9
$PROJECTNAME
  1

  9
$CAMERADISPLAY
290
0
  9
$LENSLENGTH
 40
50.0
  9
$CAMERAHEIGHT
 40
0.0
  9
$STEPSPERSEC
 40
24.0
  9
$STEPSIZE
 40
100.0
  9
$3DDWFPREC
 40
2.0
  9
$PSOLWIDTH
 40
0.005
  9
$PSOLHEIGHT
 40
0.08
  9
$LOFTANG1
 40
1.570796326795
  9
$LOFTANG2
 40
1.570796326795
  9
$LOFTMAG1
 40
0.0
  9
$LOFTMAG2
 40
0.0
  9
$LOFTPARAM
 70
7
  9
$LOFTNORMALS
280
1
  9
$LATITUDE
 40
37.795
  9
$LONGITUDE
 40
-122.394
  9
$NORTHDIRECTION
 40
0.0
  9
$TIMEZONE
 70
-8000
  9
$LIGHTGLYPHDISPLAY
280
1
  9
$TILEMODELIGHTSYNCH
280
1
  9
$CMATERIAL
347
20
  9
$SOLIDHIST
280
0
  9
$SHOWHIST
280
1
  9
$DWFFRAME
280
2
  9
$DGNFRAME
280
2
  9
$REALWORLDSCALE
290
1
  9
$INTERFERECOLOR
 62
256
  9
$CSHADOW
280
0
  9
$SHADOWPLANELOCATION
 40
0.0
  0
ENDSEC
  0
SECTION
  2
CLASSES
  0
CLASS
  1
ACDBDICTIONARYWDFLT
  2
AcDbDictionaryWithDefault
  3
ObjectDBX Classes
 90
0
 91
0
280
0
281
0
  0
CLASS
  1
SUN
  2
AcDbSun
  3
SCENEOE
 90
1153
 91
0
280
0
281
0
  0
CLASS
  1
VISUALSTYLE
  2
AcDbVisualStyle
  3
ObjectDBX Classes
 90
4095
 91
0
280
0
281
0
  0
CLASS
  1
MATERIAL
  2
AcDbMaterial
  3
ObjectDBX Classes
 90
1153
 91
0
280
0
281
0
  0
CLASS
  1
SCALE
  2
AcDbScale
  3
ObjectDBX Classes
 90
1153
 91
0
280
0
281
0
  0
CLASS
  1
TABLESTYLE
  2
AcDbTableStyle
  3
ObjectDBX Classes
 90
4095
 91
0
280
0
281
0
  0
CLASS
  1
MLEADERSTYLE
  2
AcDbMLeaderStyle
  3
ACDB_MLEADERSTYLE_CLASS
 90
4095
 91
0
280
0
281
0
  0
CLASS
  1
DICTIONARYVAR
  2
AcDbDictionaryVar
  3
ObjectDBX Classes
 90
0
 91
0
280
0
281
0
  0
CLASS
  1
CELLSTYLEMAP
  2
AcDbCellStyleMap
  3
ObjectDBX Classes
 90
1152
 91
0
280
0
281
0
  0
CLASS
  1
MENTALRAYRENDERSETTINGS
  2
AcDbMentalRayRenderSettings
  3
SCENEOE
 90
1024
 91
0
280
0
281
0
  0
CLASS
  1
ACDBDETAILVIEWSTYLE
  2
AcDbDetailViewStyle
  3
ObjectDBX Classes
 90
1025
 91
0
280
0
281
0
  0
CLASS
  1
ACDBSECTIONVIEWSTYLE
  2
AcDbSectionViewStyle
  3
ObjectDBX Classes
 90
1025
 91
0
280
0
281
0
  0
CLASS
  1
RASTERVARIABLES
  2
AcDbRasterVariables
  3
ISM
 90
0
 91
0
280
0
281
0
  0
CLASS
  1
IMAGE
  2
AcDbRasterImage
  3
ISM
 90
2175
 91
0
280
0
281
1
  0
CLASS
  1
IMAGEDEF
  2
AcDbRasterImageDef
  3
ISM
 90
0
 91
0
280
0
281
0
  0
CLASS
  1
IMAGEDEF_REACTOR
  2
AcDbRasterImageDefReactor
  3
ISM
 90
1
 91
0
280
0
281
0
  0
CLASS
  1
LAYOUT
  2
AcDbLayout
  3
ObjectDBX Classes
 90
0
 91
0
280
0
281
0
  0
CLASS
  1
ACDBPLACEHOLDER
  2
AcDbPlaceHolder
  3
ObjectDBX Classes
 90
0
 91
0
280
0
281
0
  0
ENDSEC
  0
SECTION
  2
TABLES
  0
TABLE
  2
VPORT
  5
8
330
0
100
AcDbSymbolTable
 70
1
  0
VPORT
  5
23
330
8
100
AcDbSymbolTableRecord
100
AcDbViewportTableRecord
  2
*Active
 70
0
 10
0.0
 20
0.0
 11
1.0
 21
1.0
 12
0.0
 22
0.0
 13
0.0
 23
0.0
 14
0.5
 24
0.5
 15
0.5
 25
0.5
 16
0.0
 26
0.0
 36
1.0
 17
0.0
 27
0.0
 37
0.0
 40
1000.0
 41
1.34
 42
50.0
 43
0.0
 44
0.0
 50
0.0
 51
0.0
 71
0
 72
1000
 73
1
 74
3
 75
0
 76
0
 77
0
 78
0
281
0
 65
0
146
0.0
  0
ENDTAB
  0
TABLE
  2
LTYPE
  5
2
330
0
100
AcDbSymbolTable
 70
6
  0
LTYPE
  5
24
330
2
100
AcDbSymbolTableRecord
100
AcDbLinetypeTableRecord
  2
ByBlock
 70
0
  3

 72
65
 73
0
 40
0.0
  0
LTYPE
  5
25
330
2
100
AcDbSymbolTableRecord
100
AcDbLinetypeTableRecord
  2
ByLayer
 70
0
  3

 72
65
 73
0
 40
0.0
  0
LTYPE
  5
26
330
2
100
AcDbSymbolTableRecord
100
AcDbLinetypeTableRecord
  2
Continuous
 70
0
  3

 72
65
 73
0
 40
0.0
  0
LTYPE
  5
2F
330
2
100
AcDbSymbolTableRecord
100
AcDbLinetypeTableRecord
  2
CENTER
 70
0
  3
Center __ . __ . __
 72
65
 73
4
 40
1.2
 49
0.8
 74
0
 49
-0.2
 74
0
 49
0.0
 74
0
 49
-0.2
 74
0
  0
LTYPE
  5
30
330
2
100
AcDbSymbolTableRecord
100
AcDbLinetypeTableRecord
  2
HIDDEN
 70
0
  3
Hidden -- -- -- --
 72
65
 73
2
 40
0.6
 49
0.4
 74
0
 49
-0.2
 74
0
  0
LTYPE
  5
31
330
2
100
AcDbSymbolTableRecord
100
AcDbLinetypeTableRecord
  2
DASHDOT
 70
0
  3
Dash dot __.__.__
 72
65
 73
4
 40
0.6
 49
0.4
 74
0
 49
-0.2
 74
0
 49
0.0
 74
0
 49
-0.2
 74
0
  0
ENDTAB
  0
TABLE
  2
LAYER
  5
1
330
0
100
AcDbSymbolTable
 70
17
  0
LAYER
  5
27
330
1
100
AcDbSymbolTableRecord
100
AcDbLayerTableRecord
  2
0
 70
0
 62
7
  6
Continuous
370
-3
390
13
347
21
  0
LAYER
  5
28
330
1
100
AcDbSymbolTableRecord
100
AcDbLayerTableRecord
  2
Defpoints
 70
0
 62
7
  6
Continuous
290
0
370
-3
390
13
347
21
  0
LAYER
  5
32
330
1
100
AcDbSymbolTableRecord
100
AcDbLayerTableRecord
  2
A-WALL-FULL
 70
0
 62
7
  6
Continuous
370
-3
390
13
347
21
  0
LAYER
  5
33
330
1
100
AcDbSymbolTableRecord
100
AcDbLayerTableRecord
  2
A-WALL-PRTN
 70
0
 62
7
  6
Continuous
370
-3
390
13
347
21
  0
LAYER
  5
34
330
1
100
AcDbSymbolTableRecord
100
AcDbLayerTableRecord
  2
A-WALL-PATT
 70
0
 62
254
  6
Continuous
370
-3
390
13
347
21
  0
LAYER
  5
35
330
1
100
AcDbSymbolTableRecord
100
AcDbLayerTableRecord
  2
A-GLAZ
 70
0
 62
5
  6
Continuous
370
-3
390
13
347
21
  0
LAYER
  5
36
330
1
100
AcDbSymbolTableRecord
100
AcDbLayerTableRecord
  2
A-DOOR
 70
0
 62
7
  6
Continuous
370
-3
390
13
347
21
  0
LAYER
  5
37
330
1
100
AcDbSymbolTableRecord
100
AcDbLayerTableRecord
  2
A-ROOF
 70
0
 62
7
  6
Continuous
370
-3
390
13
347
21
  0
LAYER
  5
38
330
1
100
AcDbSymbolTableRecord
100
AcDbLayerTableRecord
  2
A-GRID
 70
0
 62
8
  6
DASHDOT
370
-3
390
13
347
21
  0
LAYER
  5
39
330
1
100
AcDbSymbolTableRecord
100
AcDbLayerTableRecord
  2
A-ANNO-DIMS
 70
0
 62
7
  6
Continuous
370
-3
390
13
347
21
  0
LAYER
  5
3A
330
1
100
AcDbSymbolTableRecord
100
AcDbLayerTableRecord
  2
A-ANNO-TEXT
 70
0
 62
7
  6
Continuous
370
-3
390
13
347
21
  0
LAYER
  5
3B
330
1
100
AcDbSymbolTableRecord
100
AcDbLayerTableRecord
  2
A-FURN
 70
0
 62
9
  6
Continuous
370
-3
390
13
347
21
  0
LAYER
  5
3C
330
1
100
AcDbSymbolTableRecord
100
AcDbLayerTableRecord
  2
A-ELEV-WALL
 70
0
 62
7
  6
Continuous
370
-3
390
13
347
21
  0
LAYER
  5
3D
330
1
100
AcDbSymbolTableRecord
100
AcDbLayerTableRecord
  2
A-ELEV-LEVL
 70
0
 62
7
  6
Continuous
370
-3
390
13
347
21
  0
LAYER
  5
3E
330
1
100
AcDbSymbolTableRecord
100
AcDbLayerTableRecord
  2
A-TTLB
 70
0
 62
7
  6
Continuous
370
-3
390
13
347
21
  0
LAYER
  5
3F
330
1
100
AcDbSymbolTableRecord
100
AcDbLayerTableRecord
  2
A-ANNO-LEVL
 70
0
 62
7
  6
Continuous
370
-3
390
13
347
21
  0
LAYER
  5
40
330
1
100
AcDbSymbolTableRecord
100
AcDbLayerTableRecord
  2
A-ANNO-SECT
 70
0
 62
7
  6
HIDDEN
370
-3
390
13
347
21
  0
ENDTAB
  0
TABLE
  2
STYLE
  5
5
330
0
100
AcDbSymbolTable
 70
1
  0
STYLE
  5
29
330
5
100
AcDbSymbolTableRecord
100
AcDbTextStyleTableRecord
  2
Standard
 70
0
 40
0.0
 41
1.0
 50
0.0
 71
0
 42
2.5
  3
txt
  4

  0
ENDTAB
  0
TABLE
  2
VIEW
  5
7
330
0
100
AcDbSymbolTable
 70
0
  0
ENDTAB
  0
TABLE
  2
UCS
  5
6
330
0
100
AcDbSymbolTable
 70
0
  0
ENDTAB
  0
TABLE
  2
APPID
  5
3
330
0
100
AcDbSymbolTable
 70
3
  0
APPID
  5
2A
330
3
100
AcDbSymbolTableRecord
100
AcDbRegAppTableRecord
  2
ACAD
 70
0
  0
APPID
  5
F1
330
3
100
AcDbSymbolTableRecord
100
AcDbRegAppTableRecord
  2
HATCHBACKGROUNDCOLOR
 70
0
  0
APPID
  5
F2
330
3
100
AcDbSymbolTableRecord
100
AcDbRegAppTableRecord
  2
EZDXF
 70
0
  0
ENDTAB
  0
TABLE
  2
DIMSTYLE
  5
4
330
0
100
AcDbSymbolTable
 70
2
100
AcDbDimStyleTable
  0
DIMSTYLE
105
2B
330
4
100
AcDbSymbolTableRecord
100
AcDbDimStyleTableRecord
  2
Standard
 70
0
 40
1.0
 41
2.5
 42
0.625
 43
3.75
 44
1.25
 45
0.0
 46
0.0
 47
0.0
 48
0.0
 49
2.5
140
2.5
141
2.5
142
0.0
143
0.03937007874
144
1.0
145
0.0
146
1.0
147
0.625
148
0.0
 69
0
 70
0
 71
0
 72
0
 73
0
 74
0
 75
0
 76
0
 77
1
 78
8
 79
3
170
0
171
3
172
1
173
0
174
0
175
0
176
0
177
0
178
0
179
2
271
2
272
2
273
2
274
3
275
0
276
0
277
2
278
44
279
0
280
0
281
0
282
0
283
0
284
8
285
0
286
0
288
0
289
3
290
0
371
-2
372
-2
  0
DIMSTYLE
105
45
330
4
100
AcDbSymbolTableRecord
100
AcDbDimStyleTableRecord
  2
ARCH_JKR
 70
0
 40
100.0
 41
2.5
 42
2.0
 43
3.75
 44
2.0
 45
0.0
 46
0.0
 47
0.0
 48
0.0
 49
2.5
140
2.5
141
2.5
142
0.0
143
0.03937007874
144
1.0
145
0.0
146
1.0
147
1.0
148
0.0
 69
0
 70
0
 71
0
 72
0
 73
0
 74
0
 75
0
 76
0
 77
1
 78
8
 79
3
170
0
171
3
172
1
173
0
174
0
175
0
176
0
177
0
178
0
179
2
271
2
272
2
273
2
274
3
275
0
276
0
277
2
278
44
279
0
280
0
281
0
282
0
283
0
284
8
285
0
286
0
288
0
289
3
290
0
342
41
371
-2
372
-2
  0
ENDTAB
  0
TABLE
  2
BLOCK_RECORD
  5
9
330
0
100
AcDbSymbolTable
 70
7
  0
BLOCK_RECORD
  5
17
330
9
100
AcDbSymbolTableRecord
100
AcDbBlockTableRecord
  2
*Model_Space
340
1A
 70
0
280
1
281
0
  0
BLOCK_RECORD
  5
1B
330
9
100
AcDbSymbolTableRecord
100
AcDbBlockTableRecord
  2
*Paper_Space
340
1E
 70
0
280
1
281
0
  0
BLOCK_RECORD
  5
41
330
9
100
AcDbSymbolTableRecord
100
AcDbBlockTableRecord
  2
_ARCHTICK
340
0
 70
0
280
1
281
0
  0
BLOCK_RECORD
  5
46
330
9
100
AcDbSymbolTableRecord
100
AcDbBlockTableRecord
  2
DOOR_TAG
340
0
 70
0
280
1
281
0
  0
BLOCK_RECORD
  5
4B
330
9
100
AcDbSymbolTableRecord
100
AcDbBlockTableRecord
  2
WINDOW_TAG
340
0
 70
0
280
1
281
0
  0
BLOCK_RECORD
  5
4F
330
9
100
AcDbSymbolTableRecord
100
AcDbBlockTableRecord
  2
SECTION_ARROW
340
0
 70
0
280
1
281
0
  0
BLOCK_RECORD
  5
53
330
9
100
AcDbSymbolTableRecord
100
AcDbBlockTableRecord
  2
ELEVATION_TAG
340
0
 70
0
280
1
281
0
  0
ENDTAB
  0
ENDSEC
  0
SECTION
  2
BLOCKS
  0
BLOCK
  5
18
330
17
100
AcDbEntity
  8
0
100
AcDbBlockBegin
  2
*Model_Space
 70
0
 10
0.0
 20
0.0
 30
0.0
  3
*Model_Space
  1

  0
ENDBLK
  5
19
330
17
100
AcDbEntity
  8
0
100
AcDbBlockEnd
  0
BLOCK
  5
1C
330
1B
100
AcDbEntity
  8
0
100
AcDbBlockBegin
  2
*Paper_Space
 70
0
 10
0.0
 20
0.0
 30
0.0
  3
*Paper_Space
  1

  0
ENDBLK
  5
1D
330
1B
100
AcDbEntity
  8
0
100
AcDbBlockEnd
  0
BLOCK
  5
42
330
41
100
AcDbEntity
  8
0
100
AcDbBlockBegin
  2
_ARCHTICK
 70
0
 10
0.0
 20
0.0
 30
0.0
  3
_ARCHTICK
  1

  0
LWPOLYLINE
  5
44
330
41
100
AcDbEntity
  8
0
  6
BYBLOCK
 62
0
100
AcDbPolyline
 90
2
 70
0
 43
0.15
 10
-0.5
 20
-0.5
 10
0.5
 20
0.5
  0
ENDBLK
  5
43
330
41
100
AcDbEntity
  8
0
100
AcDbBlockEnd
  0
BLOCK
  5
47
330
46
100
AcDbEntity
  8
0
100
AcDbBlockBegin
  2
DOOR_TAG
 70
0
 10
0.0
 20
0.0
 30
0.0
  3
DOOR_TAG
  1

  0
CIRCLE
  5
49
330
46
100
AcDbEntity
  8
0
370
25
100
AcDbCircle
 10
0.0
 20
0.0
 30
0.0
 40
1.0
  0
LINE
  5
4A
330
46
100
AcDbEntity
  8
0
370
25
100
AcDbLine
 10
-1.0
 20
0.0
 30
0.0
 11
1.0
 21
0.0
 31
0.0
  0
ENDBLK
  5
48
330
46
100
AcDbEntity
  8
0
100
AcDbBlockEnd
  0
BLOCK
  5
4C
330
4B
100
AcDbEntity
  8
0
100
AcDbBlockBegin
  2
WINDOW_TAG
 70
0
 10
0.0
 20
0.0
 30
0.0
  3
WINDOW_TAG
  1

  0
LWPOLYLINE
  5
4E
330
4B
100
AcDbEntity
  8
0
370
25
100
AcDbPolyline
 90
6
 70
1
 10
0.8660254037844387
 20
0.49999999999999994
 10
6.123233995736766e-17
 20
1.0
 10
-0.8660254037844387
 20
0.49999999999999994
 10
-0.8660254037844386
 20
-0.5000000000000001
 10
-1.8369701987210297e-16
 20
-1.0
 10
0.8660254037844384
 20
-0.5000000000000004
  0
ENDBLK
  5
4D
330
4B
100
AcDbEntity
  8
0
100
AcDbBlockEnd
  0
BLOCK
  5
50
330
4F
100
AcDbEntity
  8
0
100
AcDbBlockBegin
  2
SECTION_ARROW
 70
0
 10
0.0
 20
0.0
 30
0.0
  3
SECTION_ARROW
  1

  0
LWPOLYLINE
  5
52
330
4F
100
AcDbEntity
  8
0
370
25
100
AcDbPolyline
 90
3
 70
1
 10
-1.0
 20
0.0
 10
0.0
 20
1.414
 10
1.0
 20
0.0
  0
ENDBLK
  5
51
330
4F
100
AcDbEntity
  8
0
100
AcDbBlockEnd
  0
BLOCK
  5
54
330
53
100
AcDbEntity
  8
0
100
AcDbBlockBegin
  2
ELEVATION_TAG
 70
0
 10
0.0
 20
0.0
 30
0.0
  3
ELEVATION_TAG
  1

  0
CIRCLE
  5
56
330
53
100
AcDbEntity
  8
0
370
25
100
AcDbCircle
 10
0.0
 20
0.0
 30
0.0
 40
1.0
  0
LINE
  5
57
330
53
100
AcDbEntity
  8
0
370
25
100
AcDbLine
 10
-1.0
 20
0.0
 30
0.0
 11
1.0
 21
0.0
 31
0.0
  0
ENDBLK
  5
55
330
53
100
AcDbEntity
  8
0
100
AcDbBlockEnd
  0
ENDSEC
  0
SECTION
  2
ENTITIES
  0
LWPOLYLINE
  5
58
330
17
100
AcDbEntity
  8
A-ELEV-WALL
370
50
100
AcDbPolyline
 90
4
 70
1
 10
-4698.583126068115
 20
0.0
 10
-4408.581256866455
 20
0.0
 10
-4408.581256866455
 20
2473.703384399414
 10
-4698.583126068115
 20
2473.703384399414
  0
LWPOLYLINE
  5
59
330
17
100
AcDbEntity
  8
A-ELEV-WALL
370
50
100
AcDbPolyline
 90
4
 70
1
 10
1101.417899131775
 20
0.0
 10
1391.418218612671
 20
0.0
 10
1391.418218612671
 20
2821.0930824279785
 10
1101.417899131775
 20
2821.0930824279785
  0
LWPOLYLINE
  5
5A
330
17
100
AcDbEntity
  8
A-ELEV-WALL
370
50
100
AcDbPolyline
 90
4
 70
1
 10
-4408.583164215088
 20
0.0
 10
1391.418218612671
 20
0.0
 10
1391.418218612671
 20
3358.224391937256
 10
-4408.583164215088
 20
3358.224391937256
  0
LWPOLYLINE
  5
5B
330
17
100
AcDbEntity
  8
A-ELEV-WALL
370
50
100
AcDbPolyline
 90
4
 70
1
 10
-946.0821151733398
 20
0.0
 10
-851.081907749176
 20
0.0
 10
-851.081907749176
 20
2335.0000381469727
 10
-946.0821151733398
 20
2335.0000381469727
  0
LWPOLYLINE
  5
5C
330
17
100
AcDbEntity
  8
A-ROOF
370
50
100
AcDbPolyline
 90
56
 70
0
 10
-5284.5122049252195
 20
1901.7642736434937
 10
-5163.096436858177
 20
1920.0372695922852
 10
-5041.680668791135
 20
2202.3937702178955
 10
-4920.264900724093
 20
2252.4425983428955
 10
-4798.849132657051
 20
2249.6676445007324
 10
-4677.433364590009
 20
2476.966142654419
 10
-4556.017596522966
 20
2400.06947517395
 10
-4434.601828455925
 20
2563.4548664093018
 10
-4313.186060388884
 20
2540.438652038574
 10
-4191.770292321841
 20
2703.2482624053955
 10
-4070.354524254799
 20
2832.1635723114014
 10
-3827.522988120715
 20
2949.927568435669
 10
-3706.107220053673
 20
2845.6063270568848
 10
-3584.6914519866305
 20
2898.5395431518555
 10
-3463.275683919589
 20
3056.2899112701416
 10
-3341.8599158525467
 20
2996.076822280884
 10
-3220.444147785505
 20
3151.0255336761475
 10
-3099.0283797184625
 20
3082.3419094085693
 10
-2977.6126116514206
 20
3233.933210372925
 10
-2856.1968435843787
 20
3161.5915298461914
 10
-2734.781075517337
 20
3304.8369884490967
 10
-2613.3653074502945
 20
3220.362663269043
 10
-2491.9495393832526
 20
3363.58642578125
 10
-2370.5337713162103
 20
3392.3404216766357
 10
-2249.1180032491684
 20
3410.8920097351074
 10
-2127.7022351821265
 20
3311.4545345306396
 10
-1884.8706990480423
 20
3444.150447845459
 10
-1763.4549309810002
 20
3456.5320014953613
 10
-1642.0391629139583
 20
3465.794086456299
 10
-1520.6233948469162
 20
3354.8598289489746
 10
-1399.2076267798743
 20
3475.2421379089355
 10
-1277.791858712832
 20
3475.067377090454
 10
-1156.3760906457903
 20
3471.5747833251953
 10
-1034.9603225787484
 20
3469.428777694702
 10
-913.5445545117058
 20
3455.699682235718
 10
-792.128786444664
 20
3329.875946044922
 10
-670.7130183776222
 20
3315.213918685913
 10
-549.2972503105805
 20
3427.3502826690674
 10
-306.4657141764959
 20
3386.586904525757
 10
-185.04994610945414
 20
3253.3605098724365
 10
-63.63417804241145
 20
3333.495855331421
 10
57.78159002463035
 20
3197.3462104797363
 10
179.19735809167213
 20
3268.1896686553955
 10
300.61312615871395
 20
3237.423896789551
 10
422.02889422575663
 20
3190.807104110718
 10
543.4446622927984
 20
3050.387382507324
 10
786.276198426882
 20
3101.5121936798096
 10
907.6919664939247
 20
2910.217046737671
 10
1029.1077345609665
 20
3000.4944801330566
 10
1150.5235026280084
 20
2936.210870742798
 10
1271.93927069505
 20
2887.968063354492
 10
1393.3550387620928
 20
2684.6346855163574
 10
1514.7708068291345
 20
2764.171838760376
 10
1636.1865748961764
 20
2688.474178314209
 10
1757.6023429632191
 20
2487.457752227783
 10
1879.0181110302608
 20
2483.8433265686035
  0
LWPOLYLINE
  5
5D
330
17
100
AcDbEntity
  8
A-ROOF
370
35
100
AcDbPolyline
 90
56
 70
0
 10
-5284.5122049252195
 20
1761.1006498336792
 10
-5163.096436858177
 20
1779.3736457824707
 10
-5041.680668791135
 20
2061.730146408081
 10
-4920.264900724093
 20
2111.778974533081
 10
-4798.849132657051
 20
2109.004020690918
 10
-4677.433364590009
 20
2336.3025188446045
 10
-4556.017596522966
 20
2259.4058513641357
 10
-4434.601828455925
 20
2422.7912425994873
 10
-4313.186060388884
 20
2399.7750282287598
 10
-4191.770292321841
 20
2562.584638595581
 10
-4070.354524254799
 20
2691.499948501587
 10
-3827.522988120715
 20
2809.2639446258545
 10
-3706.107220053673
 20
2704.9427032470703
 10
-3584.6914519866305
 20
2757.875919342041
 10
-3463.275683919589
 20
2915.626287460327
 10
-3341.8599158525467
 20
2855.4131984710693
 10
-3220.444147785505
 20
3010.361909866333
 10
-3099.0283797184625
 20
2941.678285598755
 10
-2977.6126116514206
 20
3093.2695865631104
 10
-2856.1968435843787
 20
3020.927906036377
 10
-2734.781075517337
 20
3164.173364639282
 10
-2613.3653074502945
 20
3079.6990394592285
 10
-2491.9495393832526
 20
3222.9228019714355
 10
-2370.5337713162103
 20
3251.6767978668213
 10
-2249.1180032491684
 20
3270.228385925293
 10
-2127.7022351821265
 20
3170.790910720825
 10
-1884.8706990480423
 20
3303.4868240356445
 10
-1763.4549309810002
 20
3315.868377685547
 10
-1642.0391629139583
 20
3325.1304626464844
 10
-1520.6233948469162
 20
3214.19620513916
 10
-1399.2076267798743
 20
3334.578514099121
 10
-1277.791858712832
 20
3334.4037532806396
 10
-1156.3760906457903
 20
3330.911159515381
 10
-1034.9603225787484
 20
3328.7651538848877
 10
-913.5445545117058
 20
3315.0360584259033
 10
-792.128786444664
 20
3189.2123222351074
 10
-670.7130183776222
 20
3174.5502948760986
 10
-549.2972503105805
 20
3286.686658859253
 10
-306.4657141764959
 20
3245.9232807159424
 10
-185.04994610945414
 20
3112.696886062622
 10
-63.63417804241145
 20
3192.8322315216064
 10
57.78159002463035
 20
3056.682586669922
 10
179.19735809167213
 20
3127.526044845581
 10
300.61312615871395
 20
3096.7602729797363
 10
422.02889422575663
 20
3050.1434803009033
 10
543.4446622927984
 20
2909.7237586975098
 10
786.276198426882
 20
2960.848569869995
 10
907.6919664939247
 20
2769.5534229278564
 10
1029.1077345609665
 20
2859.830856323242
 10
1150.5235026280084
 20
2795.5472469329834
 10
1271.93927069505
 20
2747.3044395446777
 10
1393.3550387620928
 20
2543.971061706543
 10
1514.7708068291345
 20
2623.5082149505615
 10
1636.1865748961764
 20
2547.8105545043945
 10
1757.6023429632191
 20
2346.7941284179688
 10
1879.0181110302608
 20
2343.179702758789
  0
LINE
  5
5E
330
17
100
AcDbEntity
  8
A-ROOF
370
35
100
AcDbLine
 10
-5354.5122049252195
 20
1901.7642736434937
 30
0.0
 11
1949.0181110302608
 21
1901.7642736434937
 31
0.0
  0
LINE
  5
5F
330
17
100
AcDbEntity
  8
A-ELEV-LEVL
370
70
100
AcDbLine
 10
-5198.583126068115
 20
-150.0
 30
0.0
 11
1891.418218612671
 21
-150.0
 31
0.0
  0
LINE
  5
60
330
17
100
AcDbEntity
  8
A-ELEV-LEVL
370
35
100
AcDbLine
 10
-4998.583126068115
 20
0.0
 30
0.0
 11
1691.418218612671
 21
0.0
 31
0.0
  0
LINE
  5
61
330
17
100
AcDbEntity
  8
A-ANNO-LEVL
  6
HIDDEN
370
18
100
AcDbLine
 10
-5198.583126068115
 20
-150.0
 30
0.0
 11
1891.418218612671
 21
-150.0
 31
0.0
  0
LINE
  5
62
330
17
100
AcDbEntity
  8
A-ANNO-LEVL
370
18
100
AcDbLine
 10
1785.3522014346888
 20
-256.06601717798213
 30
0.0
 11
1997.484235790653
 21
-43.93398282201788
 31
0.0
  0
LWPOLYLINE
  5
63
330
17
100
AcDbEntity
  8
A-ANNO-LEVL
370
18
100
AcDbPolyline
 90
3
 70
1
 10
-6148.583126068115
 20
-300.0
 10
-5848.583126068115
 20
-300.0
 10
-5998.583126068115
 20
0.0
  0
TEXT
  5
64
330
17
100
AcDbEntity
  8
A-ANNO-LEVL
100
AcDbText
 10
-6498.583126068115
 20
-150.0
 30
0.0
 40
250.0
  1
GRD. LEVEL  -0.150
 72
2
 11
-6498.583126068115
 21
-150.0
 31
0.0
100
AcDbText
 73
2
  0
LINE
  5
65
330
17
100
AcDbEntity
  8
A-ANNO-LEVL
  6
HIDDEN
370
18
100
AcDbLine
 10
-5198.583126068115
 20
0.0
 30
0.0
 11
1891.418218612671
 21
0.0
 31
0.0
  0
LINE
  5
66
330
17
100
AcDbEntity
  8
A-ANNO-LEVL
370
18
100
AcDbLine
 10
1785.3522014346888
 20
-106.06601717798212
 30
0.0
 11
1997.484235790653
 21
106.06601717798212
 31
0.0
  0
LINE
  5
67
330
17
100
AcDbEntity
  8
A-ANNO-LEVL
370
18
100
AcDbLine
 10
-7298.583126068115
 20
0.0
 30
0.0
 11
-7298.583126068115
 21
600.0
 31
0.0
  0
LWPOLYLINE
  5
68
330
17
100
AcDbEntity
  8
A-ANNO-LEVL
370
18
100
AcDbPolyline
 90
3
 70
1
 10
-6148.583126068115
 20
750.0
 10
-5848.583126068115
 20
750.0
 10
-5998.583126068115
 20
450.0
  0
TEXT
  5
69
330
17
100
AcDbEntity
  8
A-ANNO-LEVL
100
AcDbText
 10
-6498.583126068115
 20
600.0
 30
0.0
 40
250.0
  1
GRD. FLOOR LEVEL  +0.000
 72
2
 11
-6498.583126068115
 21
600.0
 31
0.0
100
AcDbText
 73
2
  0
LINE
  5
6A
330
17
100
AcDbEntity
  8
A-ANNO-LEVL
  6
HIDDEN
370
18
100
AcDbLine
 10
-5198.583126068115
 20
900.0
 30
0.0
 11
1891.418218612671
 21
900.0
 31
0.0
  0
LINE
  5
6B
330
17
100
AcDbEntity
  8
A-ANNO-LEVL
370
18
100
AcDbLine
 10
1785.3522014346888
 20
793.9339828220179
 30
0.0
 11
1997.484235790653
 21
1006.0660171779821
 31
0.0
  0
LINE
  5
6C
330
17
100
AcDbEntity
  8
A-ANNO-LEVL
370
18
100
AcDbLine
 10
-7298.583126068115
 20
900.0
 30
0.0
 11
-7298.583126068115
 21
1350.0
 31
0.0
  0
LWPOLYLINE
  5
6D
330
17
100
AcDbEntity
  8
A-ANNO-LEVL
370
18
100
AcDbPolyline
 90
3
 70
1
 10
-6148.583126068115
 20
1500.0
 10
-5848.583126068115
 20
1500.0
 10
-5998.583126068115
 20
1200.0
  0
TEXT
  5
6E
330
17
100
AcDbEntity
  8
A-ANNO-LEVL
100
AcDbText
 10
-6498.583126068115
 20
1350.0
 30
0.0
 40
250.0
  1
SILL LEVEL  +0.900
 72
2
 11
-6498.583126068115
 21
1350.0
 31
0.0
100
AcDbText
 73
2
  0
LINE
  5
6F
330
17
100
AcDbEntity
  8
A-ANNO-LEVL
  6
HIDDEN
370
18
100
AcDbLine
 10
-5198.583126068115
 20
1700.0
 30
0.0
 11
1891.418218612671
 21
1700.0
 31
0.0
  0
LINE
  5
70
330
17
100
AcDbEntity
  8
A-ANNO-LEVL
370
18
100
AcDbLine
 10
1785.3522014346888
 20
1593.933982822018
 30
0.0
 11
1997.484235790653
 21
1806.066017177982
 31
0.0
  0
LINE
  5
71
330
17
100
AcDbEntity
  8
A-ANNO-LEVL
370
18
100
AcDbLine
 10
-7298.583126068115
 20
1700.0
 30
0.0
 11
-7298.583126068115
 21
2100.0
 31
0.0
  0
LWPOLYLINE
  5
72
330
17
100
AcDbEntity
  8
A-ANNO-LEVL
370
18
100
AcDbPolyline
 90
3
 70
1
 10
-6148.583126068115
 20
2250.0
 10
-5848.583126068115
 20
2250.0
 10
-5998.583126068115
 20
1950.0
  0
TEXT
  5
73
330
17
100
AcDbEntity
  8
A-ANNO-LEVL
100
AcDbText
 10
-6498.583126068115
 20
2100.0
 30
0.0
 40
250.0
  1
EAVE LEVEL  +1.700
 72
2
 11
-6498.583126068115
 21
2100.0
 31
0.0
100
AcDbText
 73
2
  0
LINE
  5
74
330
17
100
AcDbEntity
  8
A-ANNO-LEVL
  6
HIDDEN
370
18
100
AcDbLine
 10
-5198.583126068115
 20
2100.0
 30
0.0
 11
1891.418218612671
 21
2100.0
 31
0.0
  0
LINE
  5
75
330
17
100
AcDbEntity
  8
A-ANNO-LEVL
370
18
100
AcDbLine
 10
1785.3522014346888
 20
1993.933982822018
 30
0.0
 11
1997.484235790653
 21
2206.0660171779823
 31
0.0
  0
LINE
  5
76
330
17
100
AcDbEntity
  8
A-ANNO-LEVL
370
18
100
AcDbLine
 10
-7298.583126068115
 20
2100.0
 30
0.0
 11
-7298.583126068115
 21
2850.0
 31
0.0
  0
LWPOLYLINE
  5
77
330
17
100
AcDbEntity
  8
A-ANNO-LEVL
370
18
100
AcDbPolyline
 90
3
 70
1
 10
-6148.583126068115
 20
3000.0
 10
-5848.583126068115
 20
3000.0
 10
-5998.583126068115
 20
2700.0
  0
TEXT
  5
78
330
17
100
AcDbEntity
  8
A-ANNO-LEVL
100
AcDbText
 10
-6498.583126068115
 20
2850.0
 30
0.0
 40
250.0
  1
HEAD LEVEL  +2.100
 72
2
 11
-6498.583126068115
 21
2850.0
 31
0.0
100
AcDbText
 73
2
  0
LINE
  5
79
330
17
100
AcDbEntity
  8
A-ANNO-LEVL
  6
HIDDEN
370
18
100
AcDbLine
 10
-5198.583126068115
 20
2300.0
 30
0.0
 11
1891.418218612671
 21
2300.0
 31
0.0
  0
LINE
  5
7A
330
17
100
AcDbEntity
  8
A-ANNO-LEVL
370
18
100
AcDbLine
 10
1785.3522014346888
 20
2193.9339828220177
 30
0.0
 11
1997.484235790653
 21
2406.0660171779823
 31
0.0
  0
LINE
  5
7B
330
17
100
AcDbEntity
  8
A-ANNO-LEVL
370
18
100
AcDbLine
 10
-7298.583126068115
 20
2300.0
 30
0.0
 11
-7298.583126068115
 21
3600.0
 31
0.0
  0
LWPOLYLINE
  5
7C
330
17
100
AcDbEntity
  8
A-ANNO-LEVL
370
18
100
AcDbPolyline
 90
3
 70
1
 10
-6148.583126068115
 20
3750.0
 10
-5848.583126068115
 20
3750.0
 10
-5998.583126068115
 20
3450.0
  0
TEXT
  5
7D
330
17
100
AcDbEntity
  8
A-ANNO-LEVL
100
AcDbText
 10
-6498.583126068115
 20
3600.0
 30
0.0
 40
250.0
  1
BEAM/CEILING LEVEL  +2.300
 72
2
 11
-6498.583126068115
 21
3600.0
 31
0.0
100
AcDbText
 73
2
  0
LINE
  5
7E
330
17
100
AcDbEntity
  8
A-ANNO-LEVL
  6
HIDDEN
370
18
100
AcDbLine
 10
-5198.583126068115
 20
3500.0
 30
0.0
 11
1891.418218612671
 21
3500.0
 31
0.0
  0
LINE
  5
7F
330
17
100
AcDbEntity
  8
A-ANNO-LEVL
370
18
100
AcDbLine
 10
1785.3522014346888
 20
3393.9339828220177
 30
0.0
 11
1997.484235790653
 21
3606.0660171779823
 31
0.0
  0
LINE
  5
80
330
17
100
AcDbEntity
  8
A-ANNO-LEVL
370
18
100
AcDbLine
 10
-7298.583126068115
 20
3500.0
 30
0.0
 11
-7298.583126068115
 21
4350.0
 31
0.0
  0
LWPOLYLINE
  5
81
330
17
100
AcDbEntity
  8
A-ANNO-LEVL
370
18
100
AcDbPolyline
 90
3
 70
1
 10
-6148.583126068115
 20
4500.0
 10
-5848.583126068115
 20
4500.0
 10
-5998.583126068115
 20
4200.0
  0
TEXT
  5
82
330
17
100
AcDbEntity
  8
A-ANNO-LEVL
100
AcDbText
 10
-6498.583126068115
 20
4350.0
 30
0.0
 40
250.0
  1
ROOF LEVEL  +3.500
 72
2
 11
-6498.583126068115
 21
4350.0
 31
0.0
100
AcDbText
 73
2
  0
LINE
  5
83
330
17
100
AcDbEntity
  8
A-GRID
370
18
100
AcDbLine
 10
-4581.081861257553
 20
-1350.0
 30
0.0
 11
-4581.081861257553
 21
8275.243091583252
 31
0.0
  0
HATCH
  5
84
330
17
100
AcDbEntity
  8
A-GRID
 62
7
100
AcDbHatch
 10
0.0
 20
0.0
 30
0.0
210
0.0
220
0.0
230
1.0
  2
SOLID
 70
1
 71
0
 91
1
 92
3
 72
0
 73
1
 93
36
 10
-4181.081861257553
 20
7875.243091583252
 10
-4187.15876005267
 20
7944.702362650024
 10
-4205.20481294319
 20
8012.05114891352
 10
-4234.671699743778
 20
8075.243091583252
 10
-4274.664084009962
 20
8132.358135457867
 10
-4323.966817382938
 20
8181.660868830843
 10
-4381.081861257553
 20
8221.653253097027
 10
-4444.273803927285
 20
8251.120139897615
 10
-4511.622590190781
 20
8269.166192788136
 10
-4581.081861257553
 20
8275.243091583252
 10
-4650.541132324325
 20
8269.166192788136
 10
-4717.889918587821
 20
8251.120139897615
 10
-4781.081861257553
 20
8221.653253097027
 10
-4838.1969051321685
 20
8181.660868830843
 10
-4887.4996385051445
 20
8132.358135457867
 10
-4927.492022771328
 20
8075.243091583252
 10
-4956.958909571917
 20
8012.05114891352
 10
-4975.004962462436
 20
7944.702362650024
 10
-4981.081861257553
 20
7875.243091583252
 10
-4975.004962462436
 20
7805.78382051648
 10
-4956.958909571917
 20
7738.435034252984
 10
-4927.492022771328
 20
7675.243091583252
 10
-4887.4996385051445
 20
7618.128047708637
 10
-4838.1969051321685
 20
7568.825314335661
 10
-4781.081861257553
 20
7528.832930069477
 10
-4717.889918587821
 20
7499.3660432688885
 10
-4650.541132324325
 20
7481.319990378369
 10
-4581.081861257553
 20
7475.243091583252
 10
-4511.622590190781
 20
7481.319990378369
 10
-4444.273803927285
 20
7499.3660432688885
 10
-4381.081861257553
 20
7528.832930069477
 10
-4323.966817382938
 20
7568.825314335661
 10
-4274.664084009962
 20
7618.128047708637
 10
-4234.671699743778
 20
7675.243091583252
 10
-4205.20481294319
 20
7738.435034252984
 10
-4187.15876005267
 20
7805.78382051648
 97
0
 75
1
 76
1
 98
0
  0
CIRCLE
  5
85
330
17
100
AcDbEntity
  8
A-GRID
370
25
100
AcDbCircle
 10
-4581.081861257553
 20
7875.243091583252
 30
0.0
 40
400.0
  0
TEXT
  5
86
330
17
100
AcDbEntity
  8
A-ANNO-TEXT
100
AcDbText
 10
-4581.081861257553
 20
7875.243091583252
 30
0.0
 40
350.0
  1
2
 72
1
 11
-4581.081861257553
 21
7875.243091583252
 31
0.0
100
AcDbText
 73
2
  0
HATCH
  5
87
330
17
100
AcDbEntity
  8
A-GRID
 62
7
100
AcDbHatch
 10
0.0
 20
0.0
 30
0.0
210
0.0
220
0.0
230
1.0
  2
SOLID
 70
1
 71
0
 91
1
 92
3
 72
0
 73
1
 93
36
 10
-4181.081861257553
 20
-950.0
 10
-4187.15876005267
 20
-880.5407289332279
 10
-4205.20481294319
 20
-813.1919426697325
 10
-4234.671699743778
 20
-750.0
 10
-4274.664084009962
 20
-692.8849561253843
 10
-4323.966817382938
 20
-643.5822227524088
 10
-4381.081861257553
 20
-603.5898384862246
 10
-4444.273803927285
 20
-574.1229516856367
 10
-4511.622590190781
 20
-556.0768987951168
 10
-4581.081861257553
 20
-550.0
 10
-4650.541132324325
 20
-556.0768987951168
 10
-4717.889918587821
 20
-574.1229516856366
 10
-4781.081861257553
 20
-603.5898384862245
 10
-4838.1969051321685
 20
-643.5822227524088
 10
-4887.4996385051445
 20
-692.8849561253842
 10
-4927.492022771328
 20
-749.9999999999999
 10
-4956.958909571917
 20
-813.1919426697325
 10
-4975.004962462436
 20
-880.5407289332279
 10
-4981.081861257553
 20
-950.0
 10
-4975.004962462436
 20
-1019.459271066772
 10
-4956.958909571917
 20
-1086.8080573302675
 10
-4927.492022771328
 20
-1150.0
 10
-4887.4996385051445
 20
-1207.1150438746156
 10
-4838.1969051321685
 20
-1256.4177772475912
 10
-4781.081861257553
 20
-1296.4101615137754
 10
-4717.889918587821
 20
-1325.8770483143635
 10
-4650.541132324325
 20
-1343.923101204883
 10
-4581.081861257553
 20
-1350.0
 10
-4511.622590190781
 20
-1343.9231012048833
 10
-4444.273803927285
 20
-1325.8770483143633
 10
-4381.081861257553
 20
-1296.4101615137756
 10
-4323.966817382938
 20
-1256.4177772475912
 10
-4274.664084009962
 20
-1207.1150438746158
 10
-4234.671699743778
 20
-1149.9999999999998
 10
-4205.20481294319
 20
-1086.8080573302675
 10
-4187.15876005267
 20
-1019.4592710667722
 97
0
 75
1
 76
1
 98
0
  0
CIRCLE
  5
88
330
17
100
AcDbEntity
  8
A-GRID
370
25
100
AcDbCircle
 10
-4581.081861257553
 20
-950.0
 30
0.0
 40
400.0
  0
TEXT
  5
89
330
17
100
AcDbEntity
  8
A-ANNO-TEXT
100
AcDbText
 10
-4581.081861257553
 20
-950.0
 30
0.0
 40
350.0
  1
2
 72
1
 11
-4581.081861257553
 21
-950.0
 31
0.0
100
AcDbText
 73
2
  0
LINE
  5
8A
330
17
100
AcDbEntity
  8
A-GRID
370
18
100
AcDbLine
 10
1318.918138742447
 20
-1350.0
 30
0.0
 11
1318.918138742447
 21
8275.243091583252
 31
0.0
  0
HATCH
  5
8B
330
17
100
AcDbEntity
  8
A-GRID
 62
7
100
AcDbHatch
 10
0.0
 20
0.0
 30
0.0
210
0.0
220
0.0
230
1.0
  2
SOLID
 70
1
 71
0
 91
1
 92
3
 72
0
 73
1
 93
36
 10
1718.918138742447
 20
7875.243091583252
 10
1712.84123994733
 20
7944.702362650024
 10
1694.7951870568104
 20
8012.05114891352
 10
1665.3283002562225
 20
8075.243091583252
 10
1625.335915990038
 20
8132.358135457867
 10
1576.0331826170627
 20
8181.660868830843
 10
1518.918138742447
 20
8221.653253097027
 10
1455.7261960727144
 20
8251.120139897615
 10
1388.377409809219
 20
8269.166192788136
 10
1318.918138742447
 20
8275.243091583252
 10
1249.4588676756748
 20
8269.166192788136
 10
1182.1100814121796
 20
8251.120139897615
 10
1118.918138742447
 20
8221.653253097027
 10
1061.803094867831
 20
8181.660868830843
 10
1012.5003614948557
 20
8132.358135457867
 10
972.5079772286715
 20
8075.243091583252
 10
943.0410904280836
 20
8012.05114891352
 10
924.9950375375637
 20
7944.702362650024
 10
918.9181387424469
 20
7875.243091583252
 10
924.9950375375636
 20
7805.78382051648
 10
943.0410904280835
 20
7738.435034252984
 10
972.5079772286715
 20
7675.243091583252
 10
1012.5003614948555
 20
7618.128047708637
 10
1061.803094867831
 20
7568.825314335661
 10
1118.9181387424467
 20
7528.832930069477
 10
1182.1100814121794
 20
7499.3660432688885
 10
1249.4588676756748
 20
7481.319990378369
 10
1318.918138742447
 20
7475.243091583252
 10
1388.377409809219
 20
7481.319990378369
 10
1455.7261960727144
 20
7499.3660432688885
 10
1518.9181387424467
 20
7528.832930069477
 10
1576.0331826170627
 20
7568.825314335661
 10
1625.335915990038
 20
7618.128047708637
 10
1665.3283002562225
 20
7675.243091583252
 10
1694.7951870568104
 20
7738.435034252984
 10
1712.84123994733
 20
7805.78382051648
 97
0
 75
1
 76
1
 98
0
  0
CIRCLE
  5
8C
330
17
100
AcDbEntity
  8
A-GRID
370
25
100
AcDbCircle
 10
1318.918138742447
 20
7875.243091583252
 30
0.0
 40
400.0
  0
TEXT
  5
8D
330
17
100
AcDbEntity
  8
A-ANNO-TEXT
100
AcDbText
 10
1318.918138742447
 20
7875.243091583252
 30
0.0
 40
350.0
  1
1
 72
1
 11
1318.918138742447
 21
7875.243091583252
 31
0.0
100
AcDbText
 73
2
  0
HATCH
  5
8E
330
17
100
AcDbEntity
  8
A-GRID
 62
7
100
AcDbHatch
 10
0.0
 20
0.0
 30
0.0
210
0.0
220
0.0
230
1.0
  2
SOLID
 70
1
 71
0
 91
1
 92
3
 72
0
 73
1
 93
36
 10
1718.918138742447
 20
-950.0
 10
1712.84123994733
 20
-880.5407289332279
 10
1694.7951870568104
 20
-813.1919426697325
 10
1665.3283002562225
 20
-750.0
 10
1625.335915990038
 20
-692.8849561253843
 10
1576.0331826170627
 20
-643.5822227524088
 10
1518.918138742447
 20
-603.5898384862246
 10
1455.7261960727144
 20
-574.1229516856367
 10
1388.377409809219
 20
-556.0768987951168
 10
1318.918138742447
 20
-550.0
 10
1249.4588676756748
 20
-556.0768987951168
 10
1182.1100814121796
 20
-574.1229516856366
 10
1118.918138742447
 20
-603.5898384862245
 10
1061.803094867831
 20
-643.5822227524088
 10
1012.5003614948557
 20
-692.8849561253842
 10
972.5079772286715
 20
-749.9999999999999
 10
943.0410904280836
 20
-813.1919426697325
 10
924.9950375375637
 20
-880.5407289332279
 10
918.9181387424469
 20
-950.0
 10
924.9950375375636
 20
-1019.459271066772
 10
943.0410904280835
 20
-1086.8080573302675
 10
972.5079772286715
 20
-1150.0
 10
1012.5003614948555
 20
-1207.1150438746156
 10
1061.803094867831
 20
-1256.4177772475912
 10
1118.9181387424467
 20
-1296.4101615137754
 10
1182.1100814121794
 20
-1325.8770483143635
 10
1249.4588676756748
 20
-1343.923101204883
 10
1318.918138742447
 20
-1350.0
 10
1388.377409809219
 20
-1343.9231012048833
 10
1455.7261960727144
 20
-1325.8770483143633
 10
1518.9181387424467
 20
-1296.4101615137756
 10
1576.0331826170627
 20
-1256.4177772475912
 10
1625.335915990038
 20
-1207.1150438746158
 10
1665.3283002562225
 20
-1149.9999999999998
 10
1694.7951870568104
 20
-1086.8080573302675
 10
1712.84123994733
 20
-1019.4592710667722
 97
0
 75
1
 76
1
 98
0
  0
CIRCLE
  5
8F
330
17
100
AcDbEntity
  8
A-GRID
370
25
100
AcDbCircle
 10
1318.918138742447
 20
-950.0
 30
0.0
 40
400.0
  0
TEXT
  5
90
330
17
100
AcDbEntity
  8
A-ANNO-TEXT
100
AcDbText
 10
1318.918138742447
 20
-950.0
 30
0.0
 40
350.0
  1
1
 72
1
 11
1318.918138742447
 21
-950.0
 31
0.0
100
AcDbText
 73
2
  0
LINE
  5
91
330
17
100
AcDbEntity
  8
A-ANNO-DIMS
370
18
100
AcDbLine
 10
3391.418218612671
 20
0.0
 30
0.0
 11
3391.418218612671
 21
900.0
 31
0.0
  0
LINE
  5
92
330
17
100
AcDbEntity
  8
A-ANNO-DIMS
370
18
100
AcDbLine
 10
1891.418218612671
 20
0.0
 30
0.0
 11
3391.418218612671
 21
0.0
 31
0.0
  0
LINE
  5
93
330
17
100
AcDbEntity
  8
A-ANNO-DIMS
370
18
100
AcDbLine
 10
1891.418218612671
 20
900.0
 30
0.0
 11
3391.418218612671
 21
900.0
 31
0.0
  0
LINE
  5
94
330
17
100
AcDbEntity
  8
A-ANNO-DIMS
370
18
100
AcDbLine
 10
3285.3522014346886
 20
-106.06601717798212
 30
0.0
 11
3497.484235790653
 21
106.06601717798212
 31
0.0
  0
LINE
  5
95
330
17
100
AcDbEntity
  8
A-ANNO-DIMS
370
18
100
AcDbLine
 10
3285.3522014346886
 20
793.9339828220179
 30
0.0
 11
3497.484235790653
 21
1006.0660171779821
 31
0.0
  0
TEXT
  5
96
330
17
100
AcDbEntity
  8
A-ANNO-DIMS
100
AcDbText
 10
3466.418218612671
 20
450.0
 30
0.0
 40
250.0
  1
900mm
 50
90.0
 72
1
 11
3466.418218612671
 21
450.0
 31
0.0
100
AcDbText
 73
2
  0
LINE
  5
97
330
17
100
AcDbEntity
  8
A-ANNO-DIMS
370
18
100
AcDbLine
 10
3391.418218612671
 20
900.0
 30
0.0
 11
3391.418218612671
 21
1700.0
 31
0.0
  0
LINE
  5
98
330
17
100
AcDbEntity
  8
A-ANNO-DIMS
370
18
100
AcDbLine
 10
1891.418218612671
 20
900.0
 30
0.0
 11
3391.418218612671
 21
900.0
 31
0.0
  0
LINE
  5
99
330
17
100
AcDbEntity
  8
A-ANNO-DIMS
370
18
100
AcDbLine
 10
1891.418218612671
 20
1700.0
 30
0.0
 11
3391.418218612671
 21
1700.0
 31
0.0
  0
LINE
  5
9A
330
17
100
AcDbEntity
  8
A-ANNO-DIMS
370
18
100
AcDbLine
 10
3285.3522014346886
 20
793.9339828220179
 30
0.0
 11
3497.484235790653
 21
1006.0660171779821
 31
0.0
  0
LINE
  5
9B
330
17
100
AcDbEntity
  8
A-ANNO-DIMS
370
18
100
AcDbLine
 10
3285.3522014346886
 20
1593.933982822018
 30
0.0
 11
3497.484235790653
 21
1806.066017177982
 31
0.0
  0
TEXT
  5
9C
330
17
100
AcDbEntity
  8
A-ANNO-DIMS
100
AcDbText
 10
3466.418218612671
 20
1300.0
 30
0.0
 40
250.0
  1
800mm
 50
90.0
 72
1
 11
3466.418218612671
 21
1300.0
 31
0.0
100
AcDbText
 73
2
  0
LINE
  5
9D
330
17
100
AcDbEntity
  8
A-ANNO-DIMS
370
18
100
AcDbLine
 10
3391.418218612671
 20
1700.0
 30
0.0
 11
3391.418218612671
 21
2100.0
 31
0.0
  0
LINE
  5
9E
330
17
100
AcDbEntity
  8
A-ANNO-DIMS
370
18
100
AcDbLine
 10
1891.418218612671
 20
1700.0
 30
0.0
 11
3391.418218612671
 21
1700.0
 31
0.0
  0
LINE
  5
9F
330
17
100
AcDbEntity
  8
A-ANNO-DIMS
370
18
100
AcDbLine
 10
1891.418218612671
 20
2100.0
 30
0.0
 11
3391.418218612671
 21
2100.0
 31
0.0
  0
LINE
  5
A0
330
17
100
AcDbEntity
  8
A-ANNO-DIMS
370
18
100
AcDbLine
 10
3285.3522014346886
 20
1593.933982822018
 30
0.0
 11
3497.484235790653
 21
1806.066017177982
 31
0.0
  0
LINE
  5
A1
330
17
100
AcDbEntity
  8
A-ANNO-DIMS
370
18
100
AcDbLine
 10
3285.3522014346886
 20
1993.933982822018
 30
0.0
 11
3497.484235790653
 21
2206.0660171779823
 31
0.0
  0
TEXT
  5
A2
330
17
100
AcDbEntity
  8
A-ANNO-DIMS
100
AcDbText
 10
3466.418218612671
 20
1900.0
 30
0.0
 40
250.0
  1
400mm
 50
90.0
 72
1
 11
3466.418218612671
 21
1900.0
 31
0.0
100
AcDbText
 73
2
  0
LINE
  5
A3
330
17
100
AcDbEntity
  8
A-ANNO-DIMS
370
18
100
AcDbLine
 10
3391.418218612671
 20
2100.0
 30
0.0
 11
3391.418218612671
 21
2300.0
 31
0.0
  0
LINE
  5
A4
330
17
100
AcDbEntity
  8
A-ANNO-DIMS
370
18
100
AcDbLine
 10
1891.418218612671
 20
2100.0
 30
0.0
 11
3391.418218612671
 21
2100.0
 31
0.0
  0
LINE
  5
A5
330
17
100
AcDbEntity
  8
A-ANNO-DIMS
370
18
100
AcDbLine
 10
1891.418218612671
 20
2300.0
 30
0.0
 11
3391.418218612671
 21
2300.0
 31
0.0
  0
LINE
  5
A6
330
17
100
AcDbEntity
  8
A-ANNO-DIMS
370
18
100
AcDbLine
 10
3285.3522014346886
 20
1993.933982822018
 30
0.0
 11
3497.484235790653
 21
2206.0660171779823
 31
0.0
  0
LINE
  5
A7
330
17
100
AcDbEntity
  8
A-ANNO-DIMS
370
18
100
AcDbLine
 10
3285.3522014346886
 20
2193.9339828220177
 30
0.0
 11
3497.484235790653
 21
2406.0660171779823
 31
0.0
  0
TEXT
  5
A8
330
17
100
AcDbEntity
  8
A-ANNO-DIMS
100
AcDbText
 10
3466.418218612671
 20
2200.0
 30
0.0
 40
250.0
  1
200mm
 50
90.0
 72
1
 11
3466.418218612671
 21
2200.0
 31
0.0
100
AcDbText
 73
2
  0
LINE
  5
A9
330
17
100
AcDbEntity
  8
A-ANNO-DIMS
370
18
100
AcDbLine
 10
3391.418218612671
 20
2300.0
 30
0.0
 11
3391.418218612671
 21
3500.0
 31
0.0
  0
LINE
  5
AA
330
17
100
AcDbEntity
  8
A-ANNO-DIMS
370
18
100
AcDbLine
 10
1891.418218612671
 20
2300.0
 30
0.0
 11
3391.418218612671
 21
2300.0
 31
0.0
  0
LINE
  5
AB
330
17
100
AcDbEntity
  8
A-ANNO-DIMS
370
18
100
AcDbLine
 10
1891.418218612671
 20
3500.0
 30
0.0
 11
3391.418218612671
 21
3500.0
 31
0.0
  0
LINE
  5
AC
330
17
100
AcDbEntity
  8
A-ANNO-DIMS
370
18
100
AcDbLine
 10
3285.3522014346886
 20
2193.9339828220177
 30
0.0
 11
3497.484235790653
 21
2406.0660171779823
 31
0.0
  0
LINE
  5
AD
330
17
100
AcDbEntity
  8
A-ANNO-DIMS
370
18
100
AcDbLine
 10
3285.3522014346886
 20
3393.9339828220177
 30
0.0
 11
3497.484235790653
 21
3606.0660171779823
 31
0.0
  0
TEXT
  5
AE
330
17
100
AcDbEntity
  8
A-ANNO-DIMS
100
AcDbText
 10
3466.418218612671
 20
2900.0
 30
0.0
 40
250.0
  1
1200mm
 50
90.0
 72
1
 11
3466.418218612671
 21
2900.0
 31
0.0
100
AcDbText
 73
2
  0
LINE
  5
AF
330
17
100
AcDbEntity
  8
A-ANNO-DIMS
370
18
100
AcDbLine
 10
4191.418218612671
 20
0.0
 30
0.0
 11
4191.418218612671
 21
3500.0
 31
0.0
  0
LINE
  5
B0
330
17
100
AcDbEntity
  8
A-ANNO-DIMS
370
18
100
AcDbLine
 10
3391.418218612671
 20
0.0
 30
0.0
 11
4191.418218612671
 21
0.0
 31
0.0
  0
LINE
  5
B1
330
17
100
AcDbEntity
  8
A-ANNO-DIMS
370
18
100
AcDbLine
 10
3391.418218612671
 20
3500.0
 30
0.0
 11
4191.418218612671
 21
3500.0
 31
0.0
  0
LINE
  5
B2
330
17
100
AcDbEntity
  8
A-ANNO-DIMS
370
18
100
AcDbLine
 10
4085.3522014346886
 20
-106.06601717798212
 30
0.0
 11
4297.484235790653
 21
106.06601717798212
 31
0.0
  0
LINE
  5
B3
330
17
100
AcDbEntity
  8
A-ANNO-DIMS
370
18
100
AcDbLine
 10
4085.3522014346886
 20
3393.9339828220177
 30
0.0
 11
4297.484235790653
 21
3606.0660171779823
 31
0.0
  0
TEXT
  5
B4
330
17
100
AcDbEntity
  8
A-ANNO-DIMS
100
AcDbText
 10
4266.418218612671
 20
1750.0
 30
0.0
 40
250.0
  1
3500mm
 50
90.0
 72
1
 11
4266.418218612671
 21
1750.0
 31
0.0
100
AcDbText
 73
2
  0
LWPOLYLINE
  5
B5
330
17
100
AcDbEntity
  8
0
 62
7
100
AcDbPolyline
 90
4
 70
1
 10
-17403.582453727722
 20
-5950.0
 10
24596.417546272278
 20
-5950.0
 10
24596.417546272278
 20
9100.0
 10
-17403.582453727722
 20
9100.0
  0
LWPOLYLINE
  5
B6
330
17
100
AcDbEntity
  8
A-TTLB
370
70
100
AcDbPolyline
 90
4
 70
1
 10
-14903.582453727722
 20
-4950.0
 10
23596.417546272278
 20
-4950.0
 10
23596.417546272278
 20
8100.0
 10
-14903.582453727722
 20
8100.0
  0
LINE
  5
B7
330
17
100
AcDbEntity
  8
A-TTLB
370
70
100
AcDbLine
 10
11596.417546272278
 20
-4950.0
 30
0.0
 11
11596.417546272278
 21
8100.0
 31
0.0
  0
IMAGE
  5
BB
330
17
100
AcDbEntity
  8
A-TTLB
100
AcDbRasterImage
 90
0
 10
11796.417546272278
 20
6720.0
 30
0.0
 11
1.6853932584269662
 21
0.0
 31
0.0
 12
1.1269755820374415e-16
 22
1.8404907975460123
 32
0.0
 13
890.0
 23
652.0
340
BA
 70
3
280
0
281
50
282
50
283
0
360
BC
 71
1
 91
2
 14
-0.5
 24
-0.5
 14
889.5
 24
651.5
290
0
  0
TEXT
  5
BD
330
17
100
AcDbEntity
  8
A-TTLB
100
AcDbText
 10
18546.417546272278
 20
7515.0
 30
0.0
 40
390.0
  1
PUBLIC WORKS
 72
1
 11
18546.417546272278
 21
7515.0
 31
0.0
100
AcDbText
 73
2
  0
TEXT
  5
BE
330
17
100
AcDbEntity
  8
A-TTLB
100
AcDbText
 10
18546.417546272278
 20
7125.0
 30
0.0
 40
390.0
  1
DEPARTMENT MALAYSIA
 72
1
 11
18546.417546272278
 21
7125.0
 31
0.0
100
AcDbText
 73
2
  0
LINE
  5
BF
330
17
100
AcDbEntity
  8
A-TTLB
370
50
100
AcDbLine
 10
11596.417546272278
 20
6540.0
 30
0.0
 11
23596.417546272278
 21
6540.0
 31
0.0
  0
TEXT
  5
C0
330
17
100
AcDbEntity
  8
A-TTLB
100
AcDbText
 10
17596.417546272278
 20
5980.0
 30
0.0
 40
500.0
  1
SINGLE STOREY RESIDENTIAL
 72
1
 11
17596.417546272278
 21
5980.0
 31
0.0
100
AcDbText
 73
2
  0
TEXT
  5
C1
330
17
100
AcDbEntity
  8
A-TTLB
100
AcDbText
 10
17596.417546272278
 20
5388.0
 30
0.0
 40
300.0
  1
Ifc4 SampleHouse
 72
1
 11
17596.417546272278
 21
5388.0
 31
0.0
100
AcDbText
 73
2
  0
LINE
  5
C2
330
17
100
AcDbEntity
  8
A-TTLB
370
35
100
AcDbLine
 10
11596.417546272278
 20
4940.0
 30
0.0
 11
23596.417546272278
 21
4940.0
 31
0.0
  0
LINE
  5
C3
330
17
100
AcDbEntity
  8
A-TTLB
370
18
100
AcDbLine
 10
11596.417546272278
 20
-4950.0
 30
0.0
 11
23596.417546272278
 21
-4950.0
 31
0.0
  0
LINE
  5
C4
330
17
100
AcDbEntity
  8
A-TTLB
370
18
100
AcDbLine
 10
15196.417546272278
 20
-4950.0
 30
0.0
 11
15196.417546272278
 21
-4050.909090909091
 31
0.0
  0
TEXT
  5
C5
330
17
100
AcDbEntity
  8
A-TTLB
100
AcDbText
 10
13396.417546272278
 20
-4500.454545454545
 30
0.0
 40
200.0
  1
REVISION NO.
 72
1
 11
13396.417546272278
 21
-4500.454545454545
 31
0.0
100
AcDbText
 73
2
  0
TEXT
  5
C6
330
17
100
AcDbEntity
  8
A-TTLB
100
AcDbText
 10
19396.417546272278
 20
-4500.454545454545
 30
0.0
 40
300.0
  1
0
 72
1
 11
19396.417546272278
 21
-4500.454545454545
 31
0.0
100
AcDbText
 73
2
  0
LINE
  5
C7
330
17
100
AcDbEntity
  8
A-TTLB
370
18
100
AcDbLine
 10
11596.417546272278
 20
-4050.909090909091
 30
0.0
 11
23596.417546272278
 21
-4050.909090909091
 31
0.0
  0
LINE
  5
C8
330
17
100
AcDbEntity
  8
A-TTLB
370
18
100
AcDbLine
 10
15196.417546272278
 20
-4050.909090909091
 30
0.0
 11
15196.417546272278
 21
-3151.818181818182
 31
0.0
  0
TEXT
  5
C9
330
17
100
AcDbEntity
  8
A-TTLB
100
AcDbText
 10
13396.417546272278
 20
-3601.3636363636365
 30
0.0
 40
200.0
  1
CHECKED BY
 72
1
 11
13396.417546272278
 21
-3601.3636363636365
 31
0.0
100
AcDbText
 73
2
  0
LINE
  5
CA
330
17
100
AcDbEntity
  8
A-TTLB
370
35
100
AcDbLine
 10
11596.417546272278
 20
-3151.818181818182
 30
0.0
 11
23596.417546272278
 21
-3151.818181818182
 31
0.0
  0
LINE
  5
CB
330
17
100
AcDbEntity
  8
A-TTLB
370
18
100
AcDbLine
 10
15196.417546272278
 20
-3151.818181818182
 30
0.0
 11
15196.417546272278
 21
-2252.727272727273
 31
0.0
  0
TEXT
  5
CC
330
17
100
AcDbEntity
  8
A-TTLB
100
AcDbText
 10
13396.417546272278
 20
-2702.2727272727275
 30
0.0
 40
200.0
  1
DRAWING NO.
 72
1
 11
13396.417546272278
 21
-2702.2727272727275
 31
0.0
100
AcDbText
 73
2
  0
TEXT
  5
CD
330
17
100
AcDbEntity
  8
A-TTLB
100
AcDbText
 10
19396.417546272278
 20
-2702.2727272727275
 30
0.0
 40
300.0
  1
A-05
 72
1
 11
19396.417546272278
 21
-2702.2727272727275
 31
0.0
100
AcDbText
 73
2
  0
LINE
  5
CE
330
17
100
AcDbEntity
  8
A-TTLB
370
18
100
AcDbLine
 10
11596.417546272278
 20
-2252.727272727273
 30
0.0
 11
23596.417546272278
 21
-2252.727272727273
 31
0.0
  0
LINE
  5
CF
330
17
100
AcDbEntity
  8
A-TTLB
370
18
100
AcDbLine
 10
15196.417546272278
 20
-2252.727272727273
 30
0.0
 11
15196.417546272278
 21
-1353.636363636364
 31
0.0
  0
TEXT
  5
D0
330
17
100
AcDbEntity
  8
A-TTLB
100
AcDbText
 10
13396.417546272278
 20
-1803.1818181818185
 30
0.0
 40
200.0
  1
DATE
 72
1
 11
13396.417546272278
 21
-1803.1818181818185
 31
0.0
100
AcDbText
 73
2
  0
LINE
  5
D1
330
17
100
AcDbEntity
  8
A-TTLB
370
18
100
AcDbLine
 10
11596.417546272278
 20
-1353.636363636364
 30
0.0
 11
23596.417546272278
 21
-1353.636363636364
 31
0.0
  0
LINE
  5
D2
330
17
100
AcDbEntity
  8
A-TTLB
370
18
100
AcDbLine
 10
15196.417546272278
 20
-1353.636363636364
 30
0.0
 11
15196.417546272278
 21
-454.54545454545485
 31
0.0
  0
TEXT
  5
D3
330
17
100
AcDbEntity
  8
A-TTLB
100
AcDbText
 10
13396.417546272278
 20
-904.0909090909095
 30
0.0
 40
200.0
  1
SCALE
 72
1
 11
13396.417546272278
 21
-904.0909090909095
 31
0.0
100
AcDbText
 73
2
  0
TEXT
  5
D4
330
17
100
AcDbEntity
  8
A-TTLB
100
AcDbText
 10
19396.417546272278
 20
-904.0909090909095
 30
0.0
 40
300.0
  1
1:100
 72
1
 11
19396.417546272278
 21
-904.0909090909095
 31
0.0
100
AcDbText
 73
2
  0
LINE
  5
D5
330
17
100
AcDbEntity
  8
A-TTLB
370
18
100
AcDbLine
 10
11596.417546272278
 20
-454.54545454545485
 30
0.0
 11
23596.417546272278
 21
-454.54545454545485
 31
0.0
  0
LINE
  5
D6
330
17
100
AcDbEntity
  8
A-TTLB
370
18
100
AcDbLine
 10
15196.417546272278
 20
-454.54545454545485
 30
0.0
 11
15196.417546272278
 21
444.5454545454543
 31
0.0
  0
TEXT
  5
D7
330
17
100
AcDbEntity
  8
A-TTLB
100
AcDbText
 10
13396.417546272278
 20
-5.000000000000284
 30
0.0
 40
200.0
  1
DRAWN BY
 72
1
 11
13396.417546272278
 21
-5.000000000000284
 31
0.0
100
AcDbText
 73
2
  0
LINE
  5
D8
330
17
100
AcDbEntity
  8
A-TTLB
370
35
100
AcDbLine
 10
11596.417546272278
 20
444.5454545454543
 30
0.0
 11
23596.417546272278
 21
444.5454545454543
 31
0.0
  0
LINE
  5
D9
330
17
100
AcDbEntity
  8
A-TTLB
370
18
100
AcDbLine
 10
15196.417546272278
 20
444.5454545454543
 30
0.0
 11
15196.417546272278
 21
1343.6363636363635
 31
0.0
  0
TEXT
  5
DA
330
17
100
AcDbEntity
  8
A-TTLB
100
AcDbText
 10
13396.417546272278
 20
894.0909090909088
 30
0.0
 40
200.0
  1
DRAWING TITLE
 72
1
 11
13396.417546272278
 21
894.0909090909088
 31
0.0
100
AcDbText
 73
2
  0
TEXT
  5
DB
330
17
100
AcDbEntity
  8
A-TTLB
100
AcDbText
 10
19396.417546272278
 20
894.0909090909088
 30
0.0
 40
300.0
  1
RIGHT ELEVATION
 72
1
 11
19396.417546272278
 21
894.0909090909088
 31
0.0
100
AcDbText
 73
2
  0
LINE
  5
DC
330
17
100
AcDbEntity
  8
A-TTLB
370
35
100
AcDbLine
 10
11596.417546272278
 20
1343.6363636363635
 30
0.0
 11
23596.417546272278
 21
1343.6363636363635
 31
0.0
  0
LINE
  5
DD
330
17
100
AcDbEntity
  8
A-TTLB
370
18
100
AcDbLine
 10
15196.417546272278
 20
1343.6363636363635
 30
0.0
 11
15196.417546272278
 21
2242.7272727272725
 31
0.0
  0
TEXT
  5
DE
330
17
100
AcDbEntity
  8
A-TTLB
100
AcDbText
 10
13396.417546272278
 20
1793.181818181818
 30
0.0
 40
200.0
  1
BUILDING TYPE
 72
1
 11
13396.417546272278
 21
1793.181818181818
 31
0.0
100
AcDbText
 73
2
  0
TEXT
  5
DF
330
17
100
AcDbEntity
  8
A-TTLB
100
AcDbText
 10
19396.417546272278
 20
1793.181818181818
 30
0.0
 40
300.0
  1
SINGLE STOREY RESIDENTIAL
 72
1
 11
19396.417546272278
 21
1793.181818181818
 31
0.0
100
AcDbText
 73
2
  0
LINE
  5
E0
330
17
100
AcDbEntity
  8
A-TTLB
370
35
100
AcDbLine
 10
11596.417546272278
 20
2242.7272727272725
 30
0.0
 11
23596.417546272278
 21
2242.7272727272725
 31
0.0
  0
LINE
  5
E1
330
17
100
AcDbEntity
  8
A-TTLB
370
18
100
AcDbLine
 10
15196.417546272278
 20
2242.7272727272725
 30
0.0
 11
15196.417546272278
 21
3141.8181818181815
 31
0.0
  0
TEXT
  5
E2
330
17
100
AcDbEntity
  8
A-TTLB
100
AcDbText
 10
13396.417546272278
 20
2692.272727272727
 30
0.0
 40
200.0
  1
ARCHITECT
 72
1
 11
13396.417546272278
 21
2692.272727272727
 31
0.0
100
AcDbText
 73
2
  0
LINE
  5
E3
330
17
100
AcDbEntity
  8
A-TTLB
370
18
100
AcDbLine
 10
11596.417546272278
 20
3141.8181818181815
 30
0.0
 11
23596.417546272278
 21
3141.8181818181815
 31
0.0
  0
LINE
  5
E4
330
17
100
AcDbEntity
  8
A-TTLB
370
18
100
AcDbLine
 10
15196.417546272278
 20
3141.8181818181815
 30
0.0
 11
15196.417546272278
 21
4040.9090909090905
 31
0.0
  0
TEXT
  5
E5
330
17
100
AcDbEntity
  8
A-TTLB
100
AcDbText
 10
13396.417546272278
 20
3591.363636363636
 30
0.0
 40
200.0
  1
CLIENT
 72
1
 11
13396.417546272278
 21
3591.363636363636
 31
0.0
100
AcDbText
 73
2
  0
LINE
  5
E6
330
17
100
AcDbEntity
  8
A-TTLB
370
35
100
AcDbLine
 10
11596.417546272278
 20
4040.9090909090905
 30
0.0
 11
23596.417546272278
 21
4040.9090909090905
 31
0.0
  0
LINE
  5
E7
330
17
100
AcDbEntity
  8
A-TTLB
370
18
100
AcDbLine
 10
15196.417546272278
 20
4040.9090909090905
 30
0.0
 11
15196.417546272278
 21
4940.0
 31
0.0
  0
TEXT
  5
E8
330
17
100
AcDbEntity
  8
A-TTLB
100
AcDbText
 10
13396.417546272278
 20
4490.454545454545
 30
0.0
 40
200.0
  1
PROJECT
 72
1
 11
13396.417546272278
 21
4490.454545454545
 31
0.0
100
AcDbText
 73
2
  0
TEXT
  5
E9
330
17
100
AcDbEntity
  8
A-ANNO-TEXT
 62
8
100
AcDbText
 10
-1653.5824537277222
 20
-4050.0
 30
0.0
 40
300.0
  1
scale 1:100
 72
1
 11
-1653.5824537277222
 21
-4050.0
 31
0.0
100
AcDbText
 73
2
  0
SOLID
  5
EA
330
17
100
AcDbEntity
  8
A-ANNO-DIMS
 62
7
100
AcDbTrace
 10
-4153.582453727722
 20
-4650.0
 30
0.0
 11
-3153.582453727722
 21
-4650.0
 31
0.0
 12
-4153.582453727722
 22
-4450.0
 32
0.0
 13
-3153.582453727722
 23
-4450.0
 33
0.0
  0
SOLID
  5
EB
330
17
100
AcDbEntity
  8
A-ANNO-DIMS
 62
0
100
AcDbTrace
 10
-3153.582453727722
 20
-4650.0
 30
0.0
 11
-2153.582453727722
 21
-4650.0
 31
0.0
 12
-3153.582453727722
 22
-4450.0
 32
0.0
 13
-2153.582453727722
 23
-4450.0
 33
0.0
  0
SOLID
  5
EC
330
17
100
AcDbEntity
  8
A-ANNO-DIMS
 62
7
100
AcDbTrace
 10
-2153.582453727722
 20
-4650.0
 30
0.0
 11
846.4175462722778
 21
-4650.0
 31
0.0
 12
-2153.582453727722
 22
-4450.0
 32
0.0
 13
846.4175462722778
 23
-4450.0
 33
0.0
  0
TEXT
  5
ED
330
17
100
AcDbEntity
  8
A-ANNO-DIMS
100
AcDbText
 10
-4153.582453727722
 20
-4810.0
 30
0.0
 40
200.0
  1
0
 72
1
 11
-4153.582453727722
 21
-4810.0
 31
0.0
100
AcDbText
 73
2
  0
TEXT
  5
EE
330
17
100
AcDbEntity
  8
A-ANNO-DIMS
100
AcDbText
 10
-3153.582453727722
 20
-4150.0
 30
0.0
 40
200.0
  1
1
 72
1
 11
-3153.582453727722
 21
-4150.0
 31
0.0
100
AcDbText
 73
2
  0
TEXT
  5
EF
330
17
100
AcDbEntity
  8
A-ANNO-DIMS
100
AcDbText
 10
-2153.582453727722
 20
-4810.0
 30
0.0
 40
200.0
  1
2
 72
1
 11
-2153.582453727722
 21
-4810.0
 31
0.0
100
AcDbText
 73
2
  0
TEXT
  5
F0
330
17
100
AcDbEntity
  8
A-ANNO-DIMS
100
AcDbText
 10
846.4175462722778
 20
-4150.0
 30
0.0
 40
200.0
  1
5m
 72
1
 11
846.4175462722778
 21
-4150.0
 31
0.0
100
AcDbText
 73
2
  0
ENDSEC
  0
SECTION
  2
OBJECTS
  0
DICTIONARY
  5
A
330
0
100
AcDbDictionary
281
1
  3
ACAD_COLOR
350
B
  3
ACAD_GROUP
350
C
  3
ACAD_LAYOUT
350
D
  3
ACAD_MATERIAL
350
E
  3
ACAD_MLEADERSTYLE
350
F
  3
ACAD_MLINESTYLE
350
10
  3
ACAD_PLOTSETTINGS
350
11
  3
ACAD_PLOTSTYLENAME
350
12
  3
ACAD_SCALELIST
350
14
  3
ACAD_TABLESTYLE
350
15
  3
ACAD_VISUALSTYLE
350
16
  3
EZDXF_META
350
2D
  3
ACAD_IMAGE_VARS
350
B8
  3
ACAD_IMAGE_DICT
350
B9
  0
DICTIONARY
  5
B
330
A
100
AcDbDictionary
281
1
  0
DICTIONARY
  5
C
330
A
100
AcDbDictionary
281
1
  0
DICTIONARY
  5
D
330
A
100
AcDbDictionary
281
1
  3
Model
350
1A
  3
Layout1
350
1E
  0
DICTIONARY
  5
E
330
A
100
AcDbDictionary
281
1
  3
ByBlock
350
1F
  3
ByLayer
350
20
  3
Global
350
21
  0
DICTIONARY
  5
F
330
A
100
AcDbDictionary
281
1
  3
Standard
350
2C
  0
DICTIONARY
  5
10
330
A
100
AcDbDictionary
281
1
  3
Standard
350
22
  0
DICTIONARY
  5
11
330
A
100
AcDbDictionary
281
1
  0
ACDBDICTIONARYWDFLT
  5
12
330
A
100
AcDbDictionary
281
1
  3
Normal
350
13
100
AcDbDictionaryWithDefault
340
13
  0
ACDBPLACEHOLDER
  5
13
330
12
  0
DICTIONARY
  5
14
330
A
100
AcDbDictionary
281
1
  0
DICTIONARY
  5
15
330
A
100
AcDbDictionary
281
1
  0
DICTIONARY
  5
16
330
A
100
AcDbDictionary
281
1
  0
LAYOUT
  5
1A
330
D
100
AcDbPlotSettings
  1

  4
A3
  6

 40
7.5
 41
20.0
 42
7.5
 43
20.0
 44
420.0
 45
297.0
 46
0.0
 47
0.0
 48
0.0
 49
0.0
140
0.0
141
0.0
142
1.0
143
1.0
 70
1024
 72
1
 73
0
 74
5
  7

 75
16
 76
0
 77
2
 78
300
147
1.0
148
0.0
149
0.0
100
AcDbLayout
  1
Model
 70
1
 71
0
 10
0.0
 20
0.0
 11
420.0
 21
297.0
 12
0.0
 22
0.0
 32
0.0
 14
1e+20
 24
1e+20
 34
1e+20
 15
-1e+20
 25
-1e+20
 35
-1e+20
146
0.0
 13
0.0
 23
0.0
 33
0.0
 16
1.0
 26
0.0
 36
0.0
 17
0.0
 27
1.0
 37
0.0
 76
1
330
17
  0
LAYOUT
  5
1E
330
D
100
AcDbPlotSettings
  1

  4
A3
  6

 40
7.5
 41
20.0
 42
7.5
 43
20.0
 44
420.0
 45
297.0
 46
0.0
 47
0.0
 48
0.0
 49
0.0
140
0.0
141
0.0
142
1.0
143
1.0
 70
0
 72
1
 73
0
 74
5
  7

 75
16
 76
0
 77
2
 78
300
147
1.0
148
0.0
149
0.0
100
AcDbLayout
  1
Layout1
 70
1
 71
1
 10
0.0
 20
0.0
 11
420.0
 21
297.0
 12
0.0
 22
0.0
 32
0.0
 14
1e+20
 24
1e+20
 34
1e+20
 15
-1e+20
 25
-1e+20
 35
-1e+20
146
0.0
 13
0.0
 23
0.0
 33
0.0
 16
1.0
 26
0.0
 36
0.0
 17
0.0
 27
1.0
 37
0.0
 76
1
330
1B
  0
MATERIAL
  5
1F
102
{ACAD_REACTORS
330
E
102
}
330
E
100
AcDbMaterial
  1
ByBlock
  2

 70
0
 40
1.0
 71
1
 41
1.0
 91
-1023410177
 42
1.0
 72
1
  3

 73
1
 74
1
 75
1
 44
0.5
 73
0
 45
1.0
 46
1.0
 77
1
  4

 78
1
 79
1
170
1
 48
1.0
171
1
  6

172
1
173
1
174
1
140
1.0
141
1.0
175
1
  7

176
1
177
1
178
1
143
1.0
179
1
  8

270
1
271
1
272
1
145
1.0
146
1.0
273
1
  9

274
1
275
1
276
1
 42
1.0
 72
1
  3

 73
1
 74
1
 75
1
 94
63
  0
MATERIAL
  5
20
102
{ACAD_REACTORS
330
E
102
}
330
E
100
AcDbMaterial
  1
ByLayer
  2

 70
0
 40
1.0
 71
1
 41
1.0
 91
-1023410177
 42
1.0
 72
1
  3

 73
1
 74
1
 75
1
 44
0.5
 73
0
 45
1.0
 46
1.0
 77
1
  4

 78
1
 79
1
170
1
 48
1.0
171
1
  6

172
1
173
1
174
1
140
1.0
141
1.0
175
1
  7

176
1
177
1
178
1
143
1.0
179
1
  8

270
1
271
1
272
1
145
1.0
146
1.0
273
1
  9

274
1
275
1
276
1
 42
1.0
 72
1
  3

 73
1
 74
1
 75
1
 94
63
  0
MATERIAL
  5
21
102
{ACAD_REACTORS
330
E
102
}
330
E
100
AcDbMaterial
  1
Global
  2

 70
0
 40
1.0
 71
1
 41
1.0
 91
-1023410177
 42
1.0
 72
1
  3

 73
1
 74
1
 75
1
 44
0.5
 73
0
 45
1.0
 46
1.0
 77
1
  4

 78
1
 79
1
170
1
 48
1.0
171
1
  6

172
1
173
1
174
1
140
1.0
141
1.0
175
1
  7

176
1
177
1
178
1
143
1.0
179
1
  8

270
1
271
1
272
1
145
1.0
146
1.0
273
1
  9

274
1
275
1
276
1
 42
1.0
 72
1
  3

 73
1
 74
1
 75
1
 94
63
  0
MLINESTYLE
  5
22
102
{ACAD_REACTORS
330
10
102
}
330
10
100
AcDbMlineStyle
  2
Standard
 70
0
  3

 62
256
 51
90.0
 52
90.0
 71
2
 49
0.5
 62
256
  6
BYLAYER
 49
-0.5
 62
256
  6
BYLAYER
  0
MLEADERSTYLE
  5
2C
102
{ACAD_REACTORS
330
F
102
}
330
F
100
AcDbMLeaderStyle
179
2
170
2
171
1
172
0
 90
2
 40
0.0
 41
0.0
173
1
 91
-1056964608
 92
-2
290
1
 42
2.0
291
1
 43
8.0
  3
Standard
 44
4.0
300

342
29
174
1
175
1
176
0
178
1
 93
-1056964608
 45
4.0
292
0
297
0
 46
4.0
 94
-1056964608
 47
1.0
 49
1.0
140
1.0
294
1
141
0.0
177
0
142
1.0
295
0
296
0
143
3.75
271
0
272
9
273
9
  0
DICTIONARY
  5
2D
330
A
100
AcDbDictionary
280
1
281
1
  3
CREATED_BY_EZDXF
350
2E
  3
WRITTEN_BY_EZDXF
350
F3
  0
DICTIONARYVAR
  5
2E
330
2D
100
DictionaryVariables
280
0
  1
1.4.3 @ 2026-04-19T08:14:51.625755+00:00
  0
RASTERVARIABLES
  5
B8
102
{ACAD_REACTORS
330
A
102
}
330
A
100
AcDbRasterVariables
 90
0
 70
0
 71
1
 72
3
  0
DICTIONARY
  5
B9
330
A
100
AcDbDictionary
281
1
  3
/home/red1/bim-compiler/2D_Layout/python/../input/jkr.png
350
BA
  0
IMAGEDEF
  5
BA
102
{ACAD_REACTORS
330
B9
330
BC
102
}
330
B9
100
AcDbRasterImageDef
 90
0
  1
/home/red1/bim-compiler/2D_Layout/python/../input/jkr.png
 10
890.0
 20
652.0
 11
0.01
 21
0.01
280
1
281
0
  0
IMAGEDEF_REACTOR
  5
BC
330
BB
100
AcDbRasterImageDefReactor
 90
2
330
BB
  0
DICTIONARYVAR
  5
F3
330
2D
100
DictionaryVariables
280
0
  1
1.4.3 @ 2026-04-19T08:14:51.632688+00:00
  0
ENDSEC
  0
EOF
