  0
SECTION
  2
HEADER
  9
$ACADVER
  1
AC1024
  9
$ACADMAINTVER
 70
6
  9
$DWGCODEPAGE
  3
ANSI_1252
  9
$LASTSAVEDBY
  1
ezdxf
  9
$INSBASE
 10
0.0
 20
0.0
 30
0.0
  9
$EXTMIN
 10
1e+20
 20
1e+20
 30
1e+20
  9
$EXTMAX
 10
-1e+20
 20
-1e+20
 30
-1e+20
  9
$LIMMIN
 10
0.0
 20
0.0
  9
$LIMMAX
 10
420.0
 20
297.0
  9
$ORTHOMODE
 70
0
  9
$REGENMODE
 70
1
  9
$FILLMODE
 70
1
  9
$QTEXTMODE
 70
0
  9
$MIRRTEXT
 70
1
  9
$LTSCALE
 40
1.0
  9
$ATTMODE
 70
1
  9
$TEXTSIZE
 40
2.5
  9
$TRACEWID
 40
1.0
  9
$TEXTSTYLE
  7
Standard
  9
$CLAYER
  8
0
  9
$CELTYPE
  6
ByLayer
  9
$CECOLOR
 62
256
  9
$CELTSCALE
 40
1.0
  9
$DISPSILH
 70
0
  9
$DIMSCALE
 40
1.0
  9
$DIMASZ
 40
2.5
  9
$DIMEXO
 40
0.625
  9
$DIMDLI
 40
3.75
  9
$DIMRND
 40
0.0
  9
$DIMDLE
 40
0.0
  9
$DIMEXE
 40
1.25
  9
$DIMTP
 40
0.0
  9
$DIMTM
 40
0.0
  9
$DIMTXT
 40
2.5
  9
$DIMCEN
 40
2.5
  9
$DIMTSZ
 40
0.0
  9
$DIMTOL
 70
0
  9
$DIMLIM
 70
0
  9
$DIMTIH
 70
0
  9
$DIMTOH
 70
0
  9
$DIMSE1
 70
0
  9
$DIMSE2
 70
0
  9
$DIMTAD
 70
1
  9
$DIMZIN
 70
8
  9
$DIMBLK
  1

  9
$DIMASO
 70
1
  9
$DIMSHO
 70
1
  9
$DIMPOST
  1

  9
$DIMAPOST
  1

  9
$DIMALT
 70
0
  9
$DIMALTD
 70
3
  9
$DIMALTF
 40
0.03937007874
  9
$DIMLFAC
 40
1.0
  9
$DIMTOFL
 70
1
  9
$DIMTVP
 40
0.0
  9
$DIMTIX
 70
0
  9
$DIMSOXD
 70
0
  9
$DIMSAH
 70
0
  9
$DIMBLK1
  1

  9
$DIMBLK2
  1

  9
$DIMSTYLE
  2
ISO-25
  9
$DIMCLRD
 70
0
  9
$DIMCLRE
 70
0
  9
$DIMCLRT
 70
0
  9
$DIMTFAC
 40
1.0
  9
$DIMGAP
 40
0.625
  9
$DIMJUST
 70
0
  9
$DIMSD1
 70
0
  9
$DIMSD2
 70
0
  9
$DIMTOLJ
 70
0
  9
$DIMTZIN
 70
8
  9
$DIMALTZ
 70
0
  9
$DIMALTTZ
 70
0
  9
$DIMUPT
 70
0
  9
$DIMDEC
 70
2
  9
$DIMTDEC
 70
2
  9
$DIMALTU
 70
2
  9
$DIMALTTD
 70
3
  9
$DIMTXSTY
  7
Standard
  9
$DIMAUNIT
 70
0
  9
$DIMADEC
 70
0
  9
$DIMALTRND
 40
0.0
  9
$DIMAZIN
 70
0
  9
$DIMDSEP
 70
44
  9
$DIMATFIT
 70
3
  9
$DIMFRAC
 70
0
  9
$DIMLDRBLK
  1

  9
$DIMLUNIT
 70
2
  9
$DIMLWD
 70
-2
  9
$DIMLWE
 70
-2
  9
$DIMTMOVE
 70
0
  9
$DIMFXL
 40
1.0
  9
$DIMFXLON
 70
0
  9
$DIMJOGANG
 40
0.785398163397
  9
$DIMTFILL
 70
0
  9
$DIMTFILLCLR
 70
0
  9
$DIMARCSYM
 70
0
  9
$DIMLTYPE
  6

  9
$DIMLTEX1
  6

  9
$DIMLTEX2
  6

  9
$DIMTXTDIRECTION
 70
0
  9
$LUNITS
 70
2
  9
$LUPREC
 70
4
  9
$SKETCHINC
 40
1.0
  9
$FILLETRAD
 40
10.0
  9
$AUNITS
 70
0
  9
$AUPREC
 70
2
  9
$MENU
  1
.
  9
$ELEVATION
 40
0.0
  9
$PELEVATION
 40
0.0
  9
$THICKNESS
 40
0.0
  9
$LIMCHECK
 70
0
  9
$CHAMFERA
 40
0.0
  9
$CHAMFERB
 40
0.0
  9
$CHAMFERC
 40
0.0
  9
$CHAMFERD
 40
0.0
  9
$SKPOLY
 70
0
  9
$TDCREATE
 40
2461150.6769791665
  9
$TDUCREATE
 40
2458532.153996898
  9
$TDUPDATE
 40
2461150.6769791665
  9
$TDUUPDATE
 40
2458532.1544311
  9
$TDINDWG
 40
0.0
  9
$TDUSRTIMER
 40
0.0
  9
$USRTIMER
 70
1
  9
$ANGBASE
 50
0.0
  9
$ANGDIR
 70
0
  9
$PDMODE
 70
0
  9
$PDSIZE
 40
0.0
  9
$PLINEWID
 40
0.0
  9
$SPLFRAME
 70
0
  9
$SPLINETYPE
 70
6
  9
$SPLINESEGS
 70
8
  9
$HANDSEED
  5
E4
  9
$SURFTAB1
 70
6
  9
$SURFTAB2
 70
6
  9
$SURFTYPE
 70
6
  9
$SURFU
 70
6
  9
$SURFV
 70
6
  9
$UCSBASE
  2

  9
$UCSNAME
  2

  9
$UCSORG
 10
0.0
 20
0.0
 30
0.0
  9
$UCSXDIR
 10
1.0
 20
0.0
 30
0.0
  9
$UCSYDIR
 10
0.0
 20
1.0
 30
0.0
  9
$UCSORTHOREF
  2

  9
$UCSORTHOVIEW
 70
0
  9
$UCSORGTOP
 10
0.0
 20
0.0
 30
0.0
  9
$UCSORGBOTTOM
 10
0.0
 20
0.0
 30
0.0
  9
$UCSORGLEFT
 10
0.0
 20
0.0
 30
0.0
  9
$UCSORGRIGHT
 10
0.0
 20
0.0
 30
0.0
  9
$UCSORGFRONT
 10
0.0
 20
0.0
 30
0.0
  9
$UCSORGBACK
 10
0.0
 20
0.0
 30
0.0
  9
$PUCSBASE
  2

  9
$PUCSNAME
  2

  9
$PUCSORG
 10
0.0
 20
0.0
 30
0.0
  9
$PUCSXDIR
 10
1.0
 20
0.0
 30
0.0
  9
$PUCSYDIR
 10
0.0
 20
1.0
 30
0.0
  9
$PUCSORTHOREF
  2

  9
$PUCSORTHOVIEW
 70
0
  9
$PUCSORGTOP
 10
0.0
 20
0.0
 30
0.0
  9
$PUCSORGBOTTOM
 10
0.0
 20
0.0
 30
0.0
  9
$PUCSORGLEFT
 10
0.0
 20
0.0
 30
0.0
  9
$PUCSORGRIGHT
 10
0.0
 20
0.0
 30
0.0
  9
$PUCSORGFRONT
 10
0.0
 20
0.0
 30
0.0
  9
$PUCSORGBACK
 10
0.0
 20
0.0
 30
0.0
  9
$USERI1
 70
0
  9
$USERI2
 70
0
  9
$USERI3
 70
0
  9
$USERI4
 70
0
  9
$USERI5
 70
0
  9
$USERR1
 40
0.0
  9
$USERR2
 40
0.0
  9
$USERR3
 40
0.0
  9
$USERR4
 40
0.0
  9
$USERR5
 40
0.0
  9
$WORLDVIEW
 70
1
  9
$SHADEDGE
 70
3
  9
$SHADEDIF
 70
70
  9
$TILEMODE
 70
1
  9
$MAXACTVP
 70
64
  9
$PINSBASE
 10
0.0
 20
0.0
 30
0.0
  9
$PLIMCHECK
 70
0
  9
$PEXTMIN
 10
1e+20
 20
1e+20
 30
1e+20
  9
$PEXTMAX
 10
-1e+20
 20
-1e+20
 30
-1e+20
  9
$PLIMMIN
 10
0.0
 20
0.0
  9
$PLIMMAX
 10
420.0
 20
297.0
  9
$UNITMODE
 70
0
  9
$VISRETAIN
 70
1
  9
$PLINEGEN
 70
0
  9
$PSLTSCALE
 70
1
  9
$TREEDEPTH
 70
3020
  9
$CMLSTYLE
  2
Standard
  9
$CMLJUST
 70
0
  9
$CMLSCALE
 40
20.0
  9
$PROXYGRAPHICS
 70
1
  9
$MEASUREMENT
 70
1
  9
$CELWEIGHT
370
-1
  9
$ENDCAPS
280
0
  9
$JOINSTYLE
280
0
  9
$LWDISPLAY
290
0
  9
$INSUNITS
 70
4
  9
$HYPERLINKBASE
  1

  9
$STYLESHEET
  1

  9
$XEDIT
290
1
  9
$CEPSNTYPE
380
0
  9
$PSTYLEMODE
290
1
  9
$FINGERPRINTGUID
  2
{59938FE3-9EEC-43E5-8167-62CF77845C13}
  9
$VERSIONGUID
  2
{0E370E0B-4B5B-4BD4-8691-9B3545FF45F8}
  9
$EXTNAMES
290
1
  9
$PSVPSCALE
 40
0.0
  9
$OLESTARTUP
290
0
  9
$SORTENTS
280
127
  9
$INDEXCTL
280
0
  9
$HIDETEXT
280
1
  9
$XCLIPFRAME
280
1
  9
$HALOGAP
280
0
  9
$OBSCOLOR
 70
257
  9
$OBSLTYPE
280
0
  9
$INTERSECTIONDISPLAY
280
0
  9
$INTERSECTIONCOLOR
 70
257
  9
$DIMASSOC
280
2
  9
$PROJECTNAME
  1

  9
$CAMERADISPLAY
290
0
  9
$LENSLENGTH
 40
50.0
  9
$CAMERAHEIGHT
 40
0.0
  9
$STEPSPERSEC
 40
24.0
  9
$STEPSIZE
 40
100.0
  9
$3DDWFPREC
 40
2.0
  9
$PSOLWIDTH
 40
0.005
  9
$PSOLHEIGHT
 40
0.08
  9
$LOFTANG1
 40
1.570796326795
  9
$LOFTANG2
 40
1.570796326795
  9
$LOFTMAG1
 40
0.0
  9
$LOFTMAG2
 40
0.0
  9
$LOFTPARAM
 70
7
  9
$LOFTNORMALS
280
1
  9
$LATITUDE
 40
37.795
  9
$LONGITUDE
 40
-122.394
  9
$NORTHDIRECTION
 40
0.0
  9
$TIMEZONE
 70
-8000
  9
$LIGHTGLYPHDISPLAY
280
1
  9
$TILEMODELIGHTSYNCH
280
1
  9
$CMATERIAL
347
20
  9
$SOLIDHIST
280
0
  9
$SHOWHIST
280
1
  9
$DWFFRAME
280
2
  9
$DGNFRAME
280
2
  9
$REALWORLDSCALE
290
1
  9
$INTERFERECOLOR
 62
256
  9
$CSHADOW
280
0
  9
$SHADOWPLANELOCATION
 40
0.0
  0
ENDSEC
  0
SECTION
  2
CLASSES
  0
CLASS
  1
ACDBDICTIONARYWDFLT
  2
AcDbDictionaryWithDefault
  3
ObjectDBX Classes
 90
0
 91
0
280
0
281
0
  0
CLASS
  1
SUN
  2
AcDbSun
  3
SCENEOE
 90
1153
 91
0
280
0
281
0
  0
CLASS
  1
VISUALSTYLE
  2
AcDbVisualStyle
  3
ObjectDBX Classes
 90
4095
 91
0
280
0
281
0
  0
CLASS
  1
MATERIAL
  2
AcDbMaterial
  3
ObjectDBX Classes
 90
1153
 91
0
280
0
281
0
  0
CLASS
  1
SCALE
  2
AcDbScale
  3
ObjectDBX Classes
 90
1153
 91
0
280
0
281
0
  0
CLASS
  1
TABLESTYLE
  2
AcDbTableStyle
  3
ObjectDBX Classes
 90
4095
 91
0
280
0
281
0
  0
CLASS
  1
MLEADERSTYLE
  2
AcDbMLeaderStyle
  3
ACDB_MLEADERSTYLE_CLASS
 90
4095
 91
0
280
0
281
0
  0
CLASS
  1
DICTIONARYVAR
  2
AcDbDictionaryVar
  3
ObjectDBX Classes
 90
0
 91
0
280
0
281
0
  0
CLASS
  1
CELLSTYLEMAP
  2
AcDbCellStyleMap
  3
ObjectDBX Classes
 90
1152
 91
0
280
0
281
0
  0
CLASS
  1
MENTALRAYRENDERSETTINGS
  2
AcDbMentalRayRenderSettings
  3
SCENEOE
 90
1024
 91
0
280
0
281
0
  0
CLASS
  1
ACDBDETAILVIEWSTYLE
  2
AcDbDetailViewStyle
  3
ObjectDBX Classes
 90
1025
 91
0
280
0
281
0
  0
CLASS
  1
ACDBSECTIONVIEWSTYLE
  2
AcDbSectionViewStyle
  3
ObjectDBX Classes
 90
1025
 91
0
280
0
281
0
  0
CLASS
  1
RASTERVARIABLES
  2
AcDbRasterVariables
  3
ISM
 90
0
 91
0
280
0
281
0
  0
CLASS
  1
IMAGE
  2
AcDbRasterImage
  3
ISM
 90
2175
 91
0
280
0
281
1
  0
CLASS
  1
IMAGEDEF
  2
AcDbRasterImageDef
  3
ISM
 90
0
 91
0
280
0
281
0
  0
CLASS
  1
IMAGEDEF_REACTOR
  2
AcDbRasterImageDefReactor
  3
ISM
 90
1
 91
0
280
0
281
0
  0
CLASS
  1
LAYOUT
  2
AcDbLayout
  3
ObjectDBX Classes
 90
0
 91
0
280
0
281
0
  0
CLASS
  1
ACDBPLACEHOLDER
  2
AcDbPlaceHolder
  3
ObjectDBX Classes
 90
0
 91
0
280
0
281
0
  0
ENDSEC
  0
SECTION
  2
TABLES
  0
TABLE
  2
VPORT
  5
8
330
0
100
AcDbSymbolTable
 70
1
  0
VPORT
  5
23
330
8
100
AcDbSymbolTableRecord
100
AcDbViewportTableRecord
  2
*Active
 70
0
 10
0.0
 20
0.0
 11
1.0
 21
1.0
 12
0.0
 22
0.0
 13
0.0
 23
0.0
 14
0.5
 24
0.5
 15
0.5
 25
0.5
 16
0.0
 26
0.0
 36
1.0
 17
0.0
 27
0.0
 37
0.0
 40
1000.0
 41
1.34
 42
50.0
 43
0.0
 44
0.0
 50
0.0
 51
0.0
 71
0
 72
1000
 73
1
 74
3
 75
0
 76
0
 77
0
 78
0
281
0
 65
0
146
0.0
  0
ENDTAB
  0
TABLE
  2
LTYPE
  5
2
330
0
100
AcDbSymbolTable
 70
6
  0
LTYPE
  5
24
330
2
100
AcDbSymbolTableRecord
100
AcDbLinetypeTableRecord
  2
ByBlock
 70
0
  3

 72
65
 73
0
 40
0.0
  0
LTYPE
  5
25
330
2
100
AcDbSymbolTableRecord
100
AcDbLinetypeTableRecord
  2
ByLayer
 70
0
  3

 72
65
 73
0
 40
0.0
  0
LTYPE
  5
26
330
2
100
AcDbSymbolTableRecord
100
AcDbLinetypeTableRecord
  2
Continuous
 70
0
  3

 72
65
 73
0
 40
0.0
  0
LTYPE
  5
2F
330
2
100
AcDbSymbolTableRecord
100
AcDbLinetypeTableRecord
  2
CENTER
 70
0
  3
Center __ . __ . __
 72
65
 73
4
 40
1.2
 49
0.8
 74
0
 49
-0.2
 74
0
 49
0.0
 74
0
 49
-0.2
 74
0
  0
LTYPE
  5
30
330
2
100
AcDbSymbolTableRecord
100
AcDbLinetypeTableRecord
  2
HIDDEN
 70
0
  3
Hidden -- -- -- --
 72
65
 73
2
 40
0.6
 49
0.4
 74
0
 49
-0.2
 74
0
  0
LTYPE
  5
31
330
2
100
AcDbSymbolTableRecord
100
AcDbLinetypeTableRecord
  2
DASHDOT
 70
0
  3
Dash dot __.__.__
 72
65
 73
4
 40
0.6
 49
0.4
 74
0
 49
-0.2
 74
0
 49
0.0
 74
0
 49
-0.2
 74
0
  0
ENDTAB
  0
TABLE
  2
LAYER
  5
1
330
0
100
AcDbSymbolTable
 70
17
  0
LAYER
  5
27
330
1
100
AcDbSymbolTableRecord
100
AcDbLayerTableRecord
  2
0
 70
0
 62
7
  6
Continuous
370
-3
390
13
347
21
  0
LAYER
  5
28
330
1
100
AcDbSymbolTableRecord
100
AcDbLayerTableRecord
  2
Defpoints
 70
0
 62
7
  6
Continuous
290
0
370
-3
390
13
347
21
  0
LAYER
  5
32
330
1
100
AcDbSymbolTableRecord
100
AcDbLayerTableRecord
  2
A-WALL-FULL
 70
0
 62
7
  6
Continuous
370
-3
390
13
347
21
  0
LAYER
  5
33
330
1
100
AcDbSymbolTableRecord
100
AcDbLayerTableRecord
  2
A-WALL-PRTN
 70
0
 62
7
  6
Continuous
370
-3
390
13
347
21
  0
LAYER
  5
34
330
1
100
AcDbSymbolTableRecord
100
AcDbLayerTableRecord
  2
A-WALL-PATT
 70
0
 62
254
  6
Continuous
370
-3
390
13
347
21
  0
LAYER
  5
35
330
1
100
AcDbSymbolTableRecord
100
AcDbLayerTableRecord
  2
A-GLAZ
 70
0
 62
5
  6
Continuous
370
-3
390
13
347
21
  0
LAYER
  5
36
330
1
100
AcDbSymbolTableRecord
100
AcDbLayerTableRecord
  2
A-DOOR
 70
0
 62
7
  6
Continuous
370
-3
390
13
347
21
  0
LAYER
  5
37
330
1
100
AcDbSymbolTableRecord
100
AcDbLayerTableRecord
  2
A-ROOF
 70
0
 62
7
  6
Continuous
370
-3
390
13
347
21
  0
LAYER
  5
38
330
1
100
AcDbSymbolTableRecord
100
AcDbLayerTableRecord
  2
A-GRID
 70
0
 62
8
  6
DASHDOT
370
-3
390
13
347
21
  0
LAYER
  5
39
330
1
100
AcDbSymbolTableRecord
100
AcDbLayerTableRecord
  2
A-ANNO-DIMS
 70
0
 62
7
  6
Continuous
370
-3
390
13
347
21
  0
LAYER
  5
3A
330
1
100
AcDbSymbolTableRecord
100
AcDbLayerTableRecord
  2
A-ANNO-TEXT
 70
0
 62
7
  6
Continuous
370
-3
390
13
347
21
  0
LAYER
  5
3B
330
1
100
AcDbSymbolTableRecord
100
AcDbLayerTableRecord
  2
A-FURN
 70
0
 62
9
  6
Continuous
370
-3
390
13
347
21
  0
LAYER
  5
3C
330
1
100
AcDbSymbolTableRecord
100
AcDbLayerTableRecord
  2
A-ELEV-WALL
 70
0
 62
7
  6
Continuous
370
-3
390
13
347
21
  0
LAYER
  5
3D
330
1
100
AcDbSymbolTableRecord
100
AcDbLayerTableRecord
  2
A-ELEV-LEVL
 70
0
 62
7
  6
Continuous
370
-3
390
13
347
21
  0
LAYER
  5
3E
330
1
100
AcDbSymbolTableRecord
100
AcDbLayerTableRecord
  2
A-TTLB
 70
0
 62
7
  6
Continuous
370
-3
390
13
347
21
  0
LAYER
  5
3F
330
1
100
AcDbSymbolTableRecord
100
AcDbLayerTableRecord
  2
A-ANNO-LEVL
 70
0
 62
7
  6
Continuous
370
-3
390
13
347
21
  0
LAYER
  5
40
330
1
100
AcDbSymbolTableRecord
100
AcDbLayerTableRecord
  2
A-ANNO-SECT
 70
0
 62
7
  6
HIDDEN
370
-3
390
13
347
21
  0
ENDTAB
  0
TABLE
  2
STYLE
  5
5
330
0
100
AcDbSymbolTable
 70
1
  0
STYLE
  5
29
330
5
100
AcDbSymbolTableRecord
100
AcDbTextStyleTableRecord
  2
Standard
 70
0
 40
0.0
 41
1.0
 50
0.0
 71
0
 42
2.5
  3
txt
  4

  0
ENDTAB
  0
TABLE
  2
VIEW
  5
7
330
0
100
AcDbSymbolTable
 70
0
  0
ENDTAB
  0
TABLE
  2
UCS
  5
6
330
0
100
AcDbSymbolTable
 70
0
  0
ENDTAB
  0
TABLE
  2
APPID
  5
3
330
0
100
AcDbSymbolTable
 70
3
  0
APPID
  5
2A
330
3
100
AcDbSymbolTableRecord
100
AcDbRegAppTableRecord
  2
ACAD
 70
0
  0
APPID
  5
E1
330
3
100
AcDbSymbolTableRecord
100
AcDbRegAppTableRecord
  2
HATCHBACKGROUNDCOLOR
 70
0
  0
APPID
  5
E2
330
3
100
AcDbSymbolTableRecord
100
AcDbRegAppTableRecord
  2
EZDXF
 70
0
  0
ENDTAB
  0
TABLE
  2
DIMSTYLE
  5
4
330
0
100
AcDbSymbolTable
 70
2
100
AcDbDimStyleTable
  0
DIMSTYLE
105
2B
330
4
100
AcDbSymbolTableRecord
100
AcDbDimStyleTableRecord
  2
Standard
 70
0
 40
1.0
 41
2.5
 42
0.625
 43
3.75
 44
1.25
 45
0.0
 46
0.0
 47
0.0
 48
0.0
 49
2.5
140
2.5
141
2.5
142
0.0
143
0.03937007874
144
1.0
145
0.0
146
1.0
147
0.625
148
0.0
 69
0
 70
0
 71
0
 72
0
 73
0
 74
0
 75
0
 76
0
 77
1
 78
8
 79
3
170
0
171
3
172
1
173
0
174
0
175
0
176
0
177
0
178
0
179
2
271
2
272
2
273
2
274
3
275
0
276
0
277
2
278
44
279
0
280
0
281
0
282
0
283
0
284
8
285
0
286
0
288
0
289
3
290
0
371
-2
372
-2
  0
DIMSTYLE
105
45
330
4
100
AcDbSymbolTableRecord
100
AcDbDimStyleTableRecord
  2
ARCH_JKR
 70
0
 40
100.0
 41
2.5
 42
2.0
 43
3.75
 44
2.0
 45
0.0
 46
0.0
 47
0.0
 48
0.0
 49
2.5
140
2.5
141
2.5
142
0.0
143
0.03937007874
144
1.0
145
0.0
146
1.0
147
1.0
148
0.0
 69
0
 70
0
 71
0
 72
0
 73
0
 74
0
 75
0
 76
0
 77
1
 78
8
 79
3
170
0
171
3
172
1
173
0
174
0
175
0
176
0
177
0
178
0
179
2
271
2
272
2
273
2
274
3
275
0
276
0
277
2
278
44
279
0
280
0
281
0
282
0
283
0
284
8
285
0
286
0
288
0
289
3
290
0
342
41
371
-2
372
-2
  0
ENDTAB
  0
TABLE
  2
BLOCK_RECORD
  5
9
330
0
100
AcDbSymbolTable
 70
7
  0
BLOCK_RECORD
  5
17
330
9
100
AcDbSymbolTableRecord
100
AcDbBlockTableRecord
  2
*Model_Space
340
1A
 70
0
280
1
281
0
  0
BLOCK_RECORD
  5
1B
330
9
100
AcDbSymbolTableRecord
100
AcDbBlockTableRecord
  2
*Paper_Space
340
1E
 70
0
280
1
281
0
  0
BLOCK_RECORD
  5
41
330
9
100
AcDbSymbolTableRecord
100
AcDbBlockTableRecord
  2
_ARCHTICK
340
0
 70
0
280
1
281
0
  0
BLOCK_RECORD
  5
46
330
9
100
AcDbSymbolTableRecord
100
AcDbBlockTableRecord
  2
DOOR_TAG
340
0
 70
0
280
1
281
0
  0
BLOCK_RECORD
  5
4B
330
9
100
AcDbSymbolTableRecord
100
AcDbBlockTableRecord
  2
WINDOW_TAG
340
0
 70
0
280
1
281
0
  0
BLOCK_RECORD
  5
4F
330
9
100
AcDbSymbolTableRecord
100
AcDbBlockTableRecord
  2
SECTION_ARROW
340
0
 70
0
280
1
281
0
  0
BLOCK_RECORD
  5
53
330
9
100
AcDbSymbolTableRecord
100
AcDbBlockTableRecord
  2
ELEVATION_TAG
340
0
 70
0
280
1
281
0
  0
ENDTAB
  0
ENDSEC
  0
SECTION
  2
BLOCKS
  0
BLOCK
  5
18
330
17
100
AcDbEntity
  8
0
100
AcDbBlockBegin
  2
*Model_Space
 70
0
 10
0.0
 20
0.0
 30
0.0
  3
*Model_Space
  1

  0
ENDBLK
  5
19
330
17
100
AcDbEntity
  8
0
100
AcDbBlockEnd
  0
BLOCK
  5
1C
330
1B
100
AcDbEntity
  8
0
100
AcDbBlockBegin
  2
*Paper_Space
 70
0
 10
0.0
 20
0.0
 30
0.0
  3
*Paper_Space
  1

  0
ENDBLK
  5
1D
330
1B
100
AcDbEntity
  8
0
100
AcDbBlockEnd
  0
BLOCK
  5
42
330
41
100
AcDbEntity
  8
0
100
AcDbBlockBegin
  2
_ARCHTICK
 70
0
 10
0.0
 20
0.0
 30
0.0
  3
_ARCHTICK
  1

  0
LWPOLYLINE
  5
44
330
41
100
AcDbEntity
  8
0
  6
BYBLOCK
 62
0
100
AcDbPolyline
 90
2
 70
0
 43
0.15
 10
-0.5
 20
-0.5
 10
0.5
 20
0.5
  0
ENDBLK
  5
43
330
41
100
AcDbEntity
  8
0
100
AcDbBlockEnd
  0
BLOCK
  5
47
330
46
100
AcDbEntity
  8
0
100
AcDbBlockBegin
  2
DOOR_TAG
 70
0
 10
0.0
 20
0.0
 30
0.0
  3
DOOR_TAG
  1

  0
CIRCLE
  5
49
330
46
100
AcDbEntity
  8
0
370
25
100
AcDbCircle
 10
0.0
 20
0.0
 30
0.0
 40
1.0
  0
LINE
  5
4A
330
46
100
AcDbEntity
  8
0
370
25
100
AcDbLine
 10
-1.0
 20
0.0
 30
0.0
 11
1.0
 21
0.0
 31
0.0
  0
ENDBLK
  5
48
330
46
100
AcDbEntity
  8
0
100
AcDbBlockEnd
  0
BLOCK
  5
4C
330
4B
100
AcDbEntity
  8
0
100
AcDbBlockBegin
  2
WINDOW_TAG
 70
0
 10
0.0
 20
0.0
 30
0.0
  3
WINDOW_TAG
  1

  0
LWPOLYLINE
  5
4E
330
4B
100
AcDbEntity
  8
0
370
25
100
AcDbPolyline
 90
6
 70
1
 10
0.8660254037844387
 20
0.49999999999999994
 10
6.123233995736766e-17
 20
1.0
 10
-0.8660254037844387
 20
0.49999999999999994
 10
-0.8660254037844386
 20
-0.5000000000000001
 10
-1.8369701987210297e-16
 20
-1.0
 10
0.8660254037844384
 20
-0.5000000000000004
  0
ENDBLK
  5
4D
330
4B
100
AcDbEntity
  8
0
100
AcDbBlockEnd
  0
BLOCK
  5
50
330
4F
100
AcDbEntity
  8
0
100
AcDbBlockBegin
  2
SECTION_ARROW
 70
0
 10
0.0
 20
0.0
 30
0.0
  3
SECTION_ARROW
  1

  0
LWPOLYLINE
  5
52
330
4F
100
AcDbEntity
  8
0
370
25
100
AcDbPolyline
 90
3
 70
1
 10
-1.0
 20
0.0
 10
0.0
 20
1.414
 10
1.0
 20
0.0
  0
ENDBLK
  5
51
330
4F
100
AcDbEntity
  8
0
100
AcDbBlockEnd
  0
BLOCK
  5
54
330
53
100
AcDbEntity
  8
0
100
AcDbBlockBegin
  2
ELEVATION_TAG
 70
0
 10
0.0
 20
0.0
 30
0.0
  3
ELEVATION_TAG
  1

  0
CIRCLE
  5
56
330
53
100
AcDbEntity
  8
0
370
25
100
AcDbCircle
 10
0.0
 20
0.0
 30
0.0
 40
1.0
  0
LINE
  5
57
330
53
100
AcDbEntity
  8
0
370
25
100
AcDbLine
 10
-1.0
 20
0.0
 30
0.0
 11
1.0
 21
0.0
 31
0.0
  0
ENDBLK
  5
55
330
53
100
AcDbEntity
  8
0
100
AcDbBlockEnd
  0
ENDSEC
  0
SECTION
  2
ENTITIES
  0
LWPOLYLINE
  5
58
330
17
100
AcDbEntity
  8
A-GRID
370
18
100
AcDbPolyline
 90
4
 70
1
 10
-7734.8480224609375
 20
-1391.418218612671
 10
6410.152912139893
 20
-1391.418218612671
 10
6410.152912139893
 20
4698.583126068115
 10
-7734.8480224609375
 20
4698.583126068115
  0
LWPOLYLINE
  5
59
330
17
100
AcDbEntity
  8
A-ROOF
370
50
100
AcDbPolyline
 90
4
 70
1
 10
-8430.830955505371
 20
-1939.7259950637817
 10
6410.150527954102
 20
-1939.7259950637817
 10
6410.150527954102
 20
5345.22008895874
 10
-8430.830955505371
 20
5345.22008895874
  0
LWPOLYLINE
  5
5A
330
17
100
AcDbEntity
  8
A-ROOF
370
35
100
AcDbPolyline
 90
4
 70
1
 10
6550.814151763918
 20
-2080.389618873596
 10
6550.814151763916
 20
5485.883712768554
 10
-8571.494579315187
 20
5485.883712768555
 10
-8571.494579315186
 20
-2080.3896188735953
  0
LINE
  5
5B
330
17
100
AcDbEntity
  8
A-ROOF
  6
HIDDEN
370
35
100
AcDbLine
 10
-8430.831909179688
 20
1348.7200625899425
 30
0.0
 11
6410.152912139893
 21
1348.7200625899425
 31
0.0
  0
TEXT
  5
5C
330
17
100
AcDbEntity
  8
A-ANNO-TEXT
100
AcDbText
 10
-1010.3394985198975
 20
1723.7200625899425
 30
0.0
 40
250.0
  1
ROOF LEVEL
 72
1
 11
-1010.3394985198975
 21
1723.7200625899425
 31
0.0
100
AcDbText
 73
2
  0
TEXT
  5
5D
330
17
100
AcDbEntity
  8
A-ANNO-TEXT
100
AcDbText
 10
-1010.3394985198975
 20
5845.221042633057
 30
0.0
 40
250.0
  1
EAVE LEVEL
 72
1
 11
-1010.3394985198975
 21
5845.221042633057
 31
0.0
100
AcDbText
 73
2
  0
TEXT
  5
5E
330
17
100
AcDbEntity
  8
A-ANNO-TEXT
100
AcDbText
 10
-1010.3394985198975
 20
-2439.726233482361
 30
0.0
 40
250.0
  1
EAVE LEVEL
 72
1
 11
-1010.3394985198975
 21
-2439.726233482361
 31
0.0
100
AcDbText
 73
2
  0
LINE
  5
5F
330
17
100
AcDbEntity
  8
A-ANNO-DIMS
370
18
100
AcDbLine
 10
-3483.836968739827
 20
1848.7200625899425
 30
0.0
 11
-3483.836968739827
 21
3746.6206506158114
 31
0.0
  0
SOLID
  5
60
330
17
100
AcDbEntity
  8
A-ANNO-DIMS
100
AcDbTrace
 10
-3483.836968739827
 20
3746.6206506158114
 30
0.0
 11
-3633.836968739827
 21
3521.6206506158114
 31
0.0
 12
-3333.836968739827
 22
3521.6206506158114
 32
0.0
 13
-3333.836968739827
 23
3521.6206506158114
 33
0.0
  0
LINE
  5
61
330
17
100
AcDbEntity
  8
A-ANNO-DIMS
370
18
100
AcDbLine
 10
-3483.836968739827
 20
848.7200625899425
 30
0.0
 11
-3483.836968739827
 21
-624.3477150534393
 31
0.0
  0
SOLID
  5
62
330
17
100
AcDbEntity
  8
A-ANNO-DIMS
100
AcDbTrace
 10
-3483.836968739827
 20
-624.3477150534393
 30
0.0
 11
-3633.836968739827
 21
-399.3477150534393
 31
0.0
 12
-3333.836968739827
 22
-399.3477150534393
 32
0.0
 13
-3333.836968739827
 23
-399.3477150534393
 33
0.0
  0
LINE
  5
63
330
17
100
AcDbEntity
  8
A-ANNO-DIMS
370
18
100
AcDbLine
 10
1463.1579717000332
 20
1848.7200625899425
 30
0.0
 11
1463.1579717000332
 21
3746.6206506158114
 31
0.0
  0
SOLID
  5
64
330
17
100
AcDbEntity
  8
A-ANNO-DIMS
100
AcDbTrace
 10
1463.1579717000332
 20
3746.6206506158114
 30
0.0
 11
1313.1579717000332
 21
3521.6206506158114
 31
0.0
 12
1613.1579717000332
 22
3521.6206506158114
 32
0.0
 13
1613.1579717000332
 23
3521.6206506158114
 33
0.0
  0
LINE
  5
65
330
17
100
AcDbEntity
  8
A-ANNO-DIMS
370
18
100
AcDbLine
 10
1463.1579717000332
 20
848.7200625899425
 30
0.0
 11
1463.1579717000332
 21
-624.3477150534393
 31
0.0
  0
SOLID
  5
66
330
17
100
AcDbEntity
  8
A-ANNO-DIMS
100
AcDbTrace
 10
1463.1579717000332
 20
-624.3477150534393
 30
0.0
 11
1313.1579717000332
 21
-399.3477150534393
 31
0.0
 12
1613.1579717000332
 22
-399.3477150534393
 32
0.0
 13
1613.1579717000332
 23
-399.3477150534393
 33
0.0
  0
LINE
  5
67
330
17
100
AcDbEntity
  8
A-ANNO-DIMS
370
18
100
AcDbLine
 10
7410.152912139893
 20
4698.583126068115
 30
0.0
 11
7410.152912139893
 21
5345.221042633057
 31
0.0
  0
TEXT
  5
68
330
17
100
AcDbEntity
  8
A-ANNO-DIMS
100
AcDbText
 10
7660.152912139893
 20
5021.902084350586
 30
0.0
 40
250.0
  1
600
 50
90.0
 72
1
 11
7660.152912139893
 21
5021.902084350586
 31
0.0
100
AcDbText
 73
2
  0
LINE
  5
69
330
17
100
AcDbEntity
  8
A-ANNO-DIMS
370
18
100
AcDbLine
 10
7410.152912139893
 20
-1939.7262334823608
 30
0.0
 11
7410.152912139893
 21
-1391.418218612671
 31
0.0
  0
TEXT
  5
6A
330
17
100
AcDbEntity
  8
A-ANNO-DIMS
100
AcDbText
 10
7660.152912139893
 20
-1665.5722260475159
 30
0.0
 40
250.0
  1
500
 50
90.0
 72
1
 11
7660.152912139893
 21
-1665.5722260475159
 31
0.0
100
AcDbText
 73
2
  0
LINE
  5
6B
330
17
100
AcDbEntity
  8
A-ANNO-DIMS
370
18
100
AcDbLine
 10
-8430.831909179688
 20
6345.221042633057
 30
0.0
 11
-7734.8480224609375
 21
6345.221042633057
 31
0.0
  0
TEXT
  5
6C
330
17
100
AcDbEntity
  8
A-ANNO-DIMS
100
AcDbText
 10
-8082.8399658203125
 20
6595.221042633057
 30
0.0
 40
250.0
  1
700
 72
1
 11
-8082.8399658203125
 21
6595.221042633057
 31
0.0
100
AcDbText
 73
2
  0
LINE
  5
6D
330
17
100
AcDbEntity
  8
A-GRID
370
18
100
AcDbLine
 10
-7734.8480224609375
 20
-4739.726233482361
 30
0.0
 11
-7734.8480224609375
 21
9945.221042633057
 31
0.0
  0
HATCH
  5
6E
330
17
100
AcDbEntity
  8
A-GRID
 62
7
100
AcDbHatch
 10
0.0
 20
0.0
 30
0.0
210
0.0
220
0.0
230
1.0
  2
SOLID
 70
1
 71
0
 91
1
 92
3
 72
0
 73
1
 93
36
 10
-7334.8480224609375
 20
9545.221042633057
 10
-7340.924921256054
 20
9614.68031369983
 10
-7358.970974146574
 20
9682.029099963323
 10
-7388.437860947162
 20
9745.221042633057
 10
-7428.430245213346
 20
9802.336086507672
 10
-7477.732978586322
 20
9851.638819880647
 10
-7534.8480224609375
 20
9891.631204146832
 10
-7598.03996513067
 20
9921.09809094742
 10
-7665.388751394165
 20
9939.14414383794
 10
-7734.8480224609375
 20
9945.221042633057
 10
-7804.30729352771
 20
9939.14414383794
 10
-7871.656079791205
 20
9921.09809094742
 10
-7934.8480224609375
 20
9891.631204146832
 10
-7991.963066335553
 20
9851.638819880647
 10
-8041.265799708529
 20
9802.336086507672
 10
-8081.258183974713
 20
9745.221042633057
 10
-8110.725070775301
 20
9682.029099963323
 10
-8128.771123665821
 20
9614.68031369983
 10
-8134.8480224609375
 20
9545.221042633057
 10
-8128.771123665821
 20
9475.761771566285
 10
-8110.725070775301
 20
9408.41298530279
 10
-8081.258183974713
 20
9345.221042633057
 10
-8041.265799708529
 20
9288.105998758441
 10
-7991.963066335553
 20
9238.803265385466
 10
-7934.8480224609375
 20
9198.810881119281
 10
-7871.656079791205
 20
9169.343994318693
 10
-7804.30729352771
 20
9151.297941428173
 10
-7734.8480224609375
 20
9145.221042633057
 10
-7665.388751394165
 20
9151.297941428173
 10
-7598.03996513067
 20
9169.343994318693
 10
-7534.8480224609375
 20
9198.810881119281
 10
-7477.732978586322
 20
9238.803265385466
 10
-7428.430245213346
 20
9288.105998758441
 10
-7388.437860947162
 20
9345.221042633057
 10
-7358.970974146574
 20
9408.41298530279
 10
-7340.924921256054
 20
9475.761771566284
 97
0
 75
1
 76
1
 98
0
  0
CIRCLE
  5
6F
330
17
100
AcDbEntity
  8
A-GRID
370
25
100
AcDbCircle
 10
-7734.8480224609375
 20
9545.221042633057
 30
0.0
 40
400.0
  0
TEXT
  5
70
330
17
100
AcDbEntity
  8
A-ANNO-TEXT
100
AcDbText
 10
-7734.8480224609375
 20
9545.221042633057
 30
0.0
 40
350.0
  1
A
 72
1
 11
-7734.8480224609375
 21
9545.221042633057
 31
0.0
100
AcDbText
 73
2
  0
HATCH
  5
71
330
17
100
AcDbEntity
  8
A-GRID
 62
7
100
AcDbHatch
 10
0.0
 20
0.0
 30
0.0
210
0.0
220
0.0
230
1.0
  2
SOLID
 70
1
 71
0
 91
1
 92
3
 72
0
 73
1
 93
36
 10
-7334.8480224609375
 20
-4339.726233482361
 10
-7340.924921256054
 20
-4270.266962415589
 10
-7358.970974146574
 20
-4202.918176152093
 10
-7388.437860947162
 20
-4139.726233482361
 10
-7428.430245213346
 20
-4082.611189607745
 10
-7477.732978586322
 20
-4033.3084562347694
 10
-7534.8480224609375
 20
-3993.316071968585
 10
-7598.03996513067
 20
-3963.8491851679973
 10
-7665.388751394165
 20
-3945.8031322774777
 10
-7734.8480224609375
 20
-3939.726233482361
 10
-7804.30729352771
 20
-3945.8031322774777
 10
-7871.656079791205
 20
-3963.8491851679973
 10
-7934.8480224609375
 20
-3993.316071968585
 10
-7991.963066335553
 20
-4033.3084562347694
 10
-8041.265799708529
 20
-4082.611189607745
 10
-8081.258183974713
 20
-4139.726233482361
 10
-8110.725070775301
 20
-4202.918176152093
 10
-8128.771123665821
 20
-4270.266962415589
 10
-8134.8480224609375
 20
-4339.726233482361
 10
-8128.771123665821
 20
-4409.185504549133
 10
-8110.725070775301
 20
-4476.534290812629
 10
-8081.258183974713
 20
-4539.726233482361
 10
-8041.265799708529
 20
-4596.841277356976
 10
-7991.963066335553
 20
-4646.144010729952
 10
-7934.8480224609375
 20
-4686.136394996136
 10
-7871.656079791205
 20
-4715.603281796724
 10
-7804.30729352771
 20
-4733.649334687244
 10
-7734.8480224609375
 20
-4739.726233482361
 10
-7665.388751394165
 20
-4733.649334687244
 10
-7598.03996513067
 20
-4715.603281796724
 10
-7534.8480224609375
 20
-4686.136394996136
 10
-7477.732978586322
 20
-4646.144010729952
 10
-7428.430245213346
 20
-4596.841277356976
 10
-7388.437860947162
 20
-4539.726233482361
 10
-7358.970974146574
 20
-4476.534290812629
 10
-7340.924921256054
 20
-4409.185504549133
 97
0
 75
1
 76
1
 98
0
  0
CIRCLE
  5
72
330
17
100
AcDbEntity
  8
A-GRID
370
25
100
AcDbCircle
 10
-7734.8480224609375
 20
-4339.726233482361
 30
0.0
 40
400.0
  0
TEXT
  5
73
330
17
100
AcDbEntity
  8
A-ANNO-TEXT
100
AcDbText
 10
-7734.8480224609375
 20
-4339.726233482361
 30
0.0
 40
350.0
  1
A
 72
1
 11
-7734.8480224609375
 21
-4339.726233482361
 31
0.0
100
AcDbText
 73
2
  0
LINE
  5
74
330
17
100
AcDbEntity
  8
A-GRID
370
18
100
AcDbLine
 10
-2834.848022460937
 20
-4739.726233482361
 30
0.0
 11
-2834.848022460937
 21
9945.221042633057
 31
0.0
  0
HATCH
  5
75
330
17
100
AcDbEntity
  8
A-GRID
 62
7
100
AcDbHatch
 10
0.0
 20
0.0
 30
0.0
210
0.0
220
0.0
230
1.0
  2
SOLID
 70
1
 71
0
 91
1
 92
3
 72
0
 73
1
 93
36
 10
-2434.848022460937
 20
9545.221042633057
 10
-2440.924921256054
 20
9614.68031369983
 10
-2458.9709741465736
 20
9682.029099963323
 10
-2488.4378609471614
 20
9745.221042633057
 10
-2528.4302452133456
 20
9802.336086507672
 10
-2577.732978586321
 20
9851.638819880647
 10
-2634.848022460937
 20
9891.631204146832
 10
-2698.0399651306693
 20
9921.09809094742
 10
-2765.388751394165
 20
9939.14414383794
 10
-2834.848022460937
 20
9945.221042633057
 10
-2904.307293527709
 20
9939.14414383794
 10
-2971.6560797912043
 20
9921.09809094742
 10
-3034.848022460937
 20
9891.631204146832
 10
-3091.963066335553
 20
9851.638819880647
 10
-3141.265799708528
 20
9802.336086507672
 10
-3181.2581839747127
 20
9745.221042633057
 10
-3210.7250707753005
 20
9682.029099963323
 10
-3228.77112366582
 20
9614.68031369983
 10
-3234.848022460937
 20
9545.221042633057
 10
-3228.77112366582
 20
9475.761771566285
 10
-3210.7250707753005
 20
9408.41298530279
 10
-3181.2581839747127
 20
9345.221042633057
 10
-3141.2657997085284
 20
9288.105998758441
 10
-3091.963066335553
 20
9238.803265385466
 10
-3034.848022460937
 20
9198.810881119281
 10
-2971.6560797912043
 20
9169.343994318693
 10
-2904.307293527709
 20
9151.297941428173
 10
-2834.848022460937
 20
9145.221042633057
 10
-2765.388751394165
 20
9151.297941428173
 10
-2698.0399651306693
 20
9169.343994318693
 10
-2634.8480224609375
 20
9198.810881119281
 10
-2577.732978586321
 20
9238.803265385466
 10
-2528.430245213346
 20
9288.105998758441
 10
-2488.4378609471614
 20
9345.221042633057
 10
-2458.9709741465736
 20
9408.41298530279
 10
-2440.924921256054
 20
9475.761771566284
 97
0
 75
1
 76
1
 98
0
  0
CIRCLE
  5
76
330
17
100
AcDbEntity
  8
A-GRID
370
25
100
AcDbCircle
 10
-2834.848022460937
 20
9545.221042633057
 30
0.0
 40
400.0
  0
TEXT
  5
77
330
17
100
AcDbEntity
  8
A-ANNO-TEXT
100
AcDbText
 10
-2834.848022460937
 20
9545.221042633057
 30
0.0
 40
350.0
  1
B
 72
1
 11
-2834.848022460937
 21
9545.221042633057
 31
0.0
100
AcDbText
 73
2
  0
HATCH
  5
78
330
17
100
AcDbEntity
  8
A-GRID
 62
7
100
AcDbHatch
 10
0.0
 20
0.0
 30
0.0
210
0.0
220
0.0
230
1.0
  2
SOLID
 70
1
 71
0
 91
1
 92
3
 72
0
 73
1
 93
36
 10
-2434.848022460937
 20
-4339.726233482361
 10
-2440.924921256054
 20
-4270.266962415589
 10
-2458.9709741465736
 20
-4202.918176152093
 10
-2488.4378609471614
 20
-4139.726233482361
 10
-2528.4302452133456
 20
-4082.611189607745
 10
-2577.732978586321
 20
-4033.3084562347694
 10
-2634.848022460937
 20
-3993.316071968585
 10
-2698.0399651306693
 20
-3963.8491851679973
 10
-2765.388751394165
 20
-3945.8031322774777
 10
-2834.848022460937
 20
-3939.726233482361
 10
-2904.307293527709
 20
-3945.8031322774777
 10
-2971.6560797912043
 20
-3963.8491851679973
 10
-3034.848022460937
 20
-3993.316071968585
 10
-3091.963066335553
 20
-4033.3084562347694
 10
-3141.265799708528
 20
-4082.611189607745
 10
-3181.2581839747127
 20
-4139.726233482361
 10
-3210.7250707753005
 20
-4202.918176152093
 10
-3228.77112366582
 20
-4270.266962415589
 10
-3234.848022460937
 20
-4339.726233482361
 10
-3228.77112366582
 20
-4409.185504549133
 10
-3210.7250707753005
 20
-4476.534290812629
 10
-3181.2581839747127
 20
-4539.726233482361
 10
-3141.2657997085284
 20
-4596.841277356976
 10
-3091.963066335553
 20
-4646.144010729952
 10
-3034.848022460937
 20
-4686.136394996136
 10
-2971.6560797912043
 20
-4715.603281796724
 10
-2904.307293527709
 20
-4733.649334687244
 10
-2834.848022460937
 20
-4739.726233482361
 10
-2765.388751394165
 20
-4733.649334687244
 10
-2698.0399651306693
 20
-4715.603281796724
 10
-2634.8480224609375
 20
-4686.136394996136
 10
-2577.732978586321
 20
-4646.144010729952
 10
-2528.430245213346
 20
-4596.841277356976
 10
-2488.4378609471614
 20
-4539.726233482361
 10
-2458.9709741465736
 20
-4476.534290812629
 10
-2440.924921256054
 20
-4409.185504549133
 97
0
 75
1
 76
1
 98
0
  0
CIRCLE
  5
79
330
17
100
AcDbEntity
  8
A-GRID
370
25
100
AcDbCircle
 10
-2834.848022460937
 20
-4339.726233482361
 30
0.0
 40
400.0
  0
TEXT
  5
7A
330
17
100
AcDbEntity
  8
A-ANNO-TEXT
100
AcDbText
 10
-2834.848022460937
 20
-4339.726233482361
 30
0.0
 40
350.0
  1
B
 72
1
 11
-2834.848022460937
 21
-4339.726233482361
 31
0.0
100
AcDbText
 73
2
  0
LINE
  5
7B
330
17
100
AcDbEntity
  8
A-GRID
370
18
100
AcDbLine
 10
6365.1519775390625
 20
-4739.726233482361
 30
0.0
 11
6365.1519775390625
 21
9945.221042633057
 31
0.0
  0
HATCH
  5
7C
330
17
100
AcDbEntity
  8
A-GRID
 62
7
100
AcDbHatch
 10
0.0
 20
0.0
 30
0.0
210
0.0
220
0.0
230
1.0
  2
SOLID
 70
1
 71
0
 91
1
 92
3
 72
0
 73
1
 93
36
 10
6765.1519775390625
 20
9545.221042633057
 10
6759.075078743946
 20
9614.68031369983
 10
6741.029025853426
 20
9682.029099963323
 10
6711.562139052838
 20
9745.221042633057
 10
6671.569754786654
 20
9802.336086507672
 10
6622.267021413678
 20
9851.638819880647
 10
6565.1519775390625
 20
9891.631204146832
 10
6501.96003486933
 20
9921.09809094742
 10
6434.611248605835
 20
9939.14414383794
 10
6365.1519775390625
 20
9945.221042633057
 10
6295.69270647229
 20
9939.14414383794
 10
6228.343920208795
 20
9921.09809094742
 10
6165.1519775390625
 20
9891.631204146832
 10
6108.036933664447
 20
9851.638819880647
 10
6058.734200291471
 20
9802.336086507672
 10
6018.741816025287
 20
9745.221042633057
 10
5989.274929224699
 20
9682.029099963323
 10
5971.228876334179
 20
9614.68031369983
 10
5965.1519775390625
 20
9545.221042633057
 10
5971.228876334179
 20
9475.761771566285
 10
5989.274929224699
 20
9408.41298530279
 10
6018.741816025287
 20
9345.221042633057
 10
6058.734200291471
 20
9288.105998758441
 10
6108.036933664447
 20
9238.803265385466
 10
6165.1519775390625
 20
9198.810881119281
 10
6228.343920208795
 20
9169.343994318693
 10
6295.69270647229
 20
9151.297941428173
 10
6365.1519775390625
 20
9145.221042633057
 10
6434.611248605835
 20
9151.297941428173
 10
6501.96003486933
 20
9169.343994318693
 10
6565.1519775390625
 20
9198.810881119281
 10
6622.267021413678
 20
9238.803265385466
 10
6671.569754786654
 20
9288.105998758441
 10
6711.562139052838
 20
9345.221042633057
 10
6741.029025853426
 20
9408.41298530279
 10
6759.075078743946
 20
9475.761771566284
 97
0
 75
1
 76
1
 98
0
  0
CIRCLE
  5
7D
330
17
100
AcDbEntity
  8
A-GRID
370
25
100
AcDbCircle
 10
6365.1519775390625
 20
9545.221042633057
 30
0.0
 40
400.0
  0
TEXT
  5
7E
330
17
100
AcDbEntity
  8
A-ANNO-TEXT
100
AcDbText
 10
6365.1519775390625
 20
9545.221042633057
 30
0.0
 40
350.0
  1
C
 72
1
 11
6365.1519775390625
 21
9545.221042633057
 31
0.0
100
AcDbText
 73
2
  0
HATCH
  5
7F
330
17
100
AcDbEntity
  8
A-GRID
 62
7
100
AcDbHatch
 10
0.0
 20
0.0
 30
0.0
210
0.0
220
0.0
230
1.0
  2
SOLID
 70
1
 71
0
 91
1
 92
3
 72
0
 73
1
 93
36
 10
6765.1519775390625
 20
-4339.726233482361
 10
6759.075078743946
 20
-4270.266962415589
 10
6741.029025853426
 20
-4202.918176152093
 10
6711.562139052838
 20
-4139.726233482361
 10
6671.569754786654
 20
-4082.611189607745
 10
6622.267021413678
 20
-4033.3084562347694
 10
6565.1519775390625
 20
-3993.316071968585
 10
6501.96003486933
 20
-3963.8491851679973
 10
6434.611248605835
 20
-3945.8031322774777
 10
6365.1519775390625
 20
-3939.726233482361
 10
6295.69270647229
 20
-3945.8031322774777
 10
6228.343920208795
 20
-3963.8491851679973
 10
6165.1519775390625
 20
-3993.316071968585
 10
6108.036933664447
 20
-4033.3084562347694
 10
6058.734200291471
 20
-4082.611189607745
 10
6018.741816025287
 20
-4139.726233482361
 10
5989.274929224699
 20
-4202.918176152093
 10
5971.228876334179
 20
-4270.266962415589
 10
5965.1519775390625
 20
-4339.726233482361
 10
5971.228876334179
 20
-4409.185504549133
 10
5989.274929224699
 20
-4476.534290812629
 10
6018.741816025287
 20
-4539.726233482361
 10
6058.734200291471
 20
-4596.841277356976
 10
6108.036933664447
 20
-4646.144010729952
 10
6165.1519775390625
 20
-4686.136394996136
 10
6228.343920208795
 20
-4715.603281796724
 10
6295.69270647229
 20
-4733.649334687244
 10
6365.1519775390625
 20
-4739.726233482361
 10
6434.611248605835
 20
-4733.649334687244
 10
6501.96003486933
 20
-4715.603281796724
 10
6565.1519775390625
 20
-4686.136394996136
 10
6622.267021413678
 20
-4646.144010729952
 10
6671.569754786654
 20
-4596.841277356976
 10
6711.562139052838
 20
-4539.726233482361
 10
6741.029025853426
 20
-4476.534290812629
 10
6759.075078743946
 20
-4409.185504549133
 97
0
 75
1
 76
1
 98
0
  0
CIRCLE
  5
80
330
17
100
AcDbEntity
  8
A-GRID
370
25
100
AcDbCircle
 10
6365.1519775390625
 20
-4339.726233482361
 30
0.0
 40
400.0
  0
TEXT
  5
81
330
17
100
AcDbEntity
  8
A-ANNO-TEXT
100
AcDbText
 10
6365.1519775390625
 20
-4339.726233482361
 30
0.0
 40
350.0
  1
C
 72
1
 11
6365.1519775390625
 21
-4339.726233482361
 31
0.0
100
AcDbText
 73
2
  0
LINE
  5
82
330
17
100
AcDbEntity
  8
A-GRID
370
18
100
AcDbLine
 10
-13030.831909179688
 20
-1318.918138742447
 30
0.0
 11
9210.152912139893
 21
-1318.918138742447
 31
0.0
  0
HATCH
  5
83
330
17
100
AcDbEntity
  8
A-GRID
 62
7
100
AcDbHatch
 10
0.0
 20
0.0
 30
0.0
210
0.0
220
0.0
230
1.0
  2
SOLID
 70
1
 71
0
 91
1
 92
3
 72
0
 73
1
 93
36
 10
9210.152912139893
 20
-1318.918138742447
 10
9204.076013344777
 20
-1249.4588676756748
 10
9186.029960454256
 20
-1182.1100814121794
 10
9156.563073653668
 20
-1118.918138742447
 10
9116.570689387483
 20
-1061.803094867831
 10
9067.267956014508
 20
-1012.5003614948557
 10
9010.152912139893
 20
-972.5079772286715
 10
8946.96096947016
 20
-943.0410904280836
 10
8879.612183206666
 20
-924.9950375375637
 10
8810.152912139893
 20
-918.9181387424469
 10
8740.69364107312
 20
-924.9950375375637
 10
8673.344854809626
 20
-943.0410904280835
 10
8610.152912139893
 20
-972.5079772286714
 10
8553.037868265277
 20
-1012.5003614948557
 10
8503.735134892302
 20
-1061.803094867831
 10
8463.742750626117
 20
-1118.9181387424467
 10
8434.275863825529
 20
-1182.1100814121794
 10
8416.229810935009
 20
-1249.4588676756748
 10
8410.152912139893
 20
-1318.918138742447
 10
8416.229810935009
 20
-1388.377409809219
 10
8434.275863825529
 20
-1455.7261960727144
 10
8463.742750626117
 20
-1518.918138742447
 10
8503.735134892302
 20
-1576.0331826170625
 10
8553.037868265277
 20
-1625.335915990038
 10
8610.152912139893
 20
-1665.3283002562223
 10
8673.344854809626
 20
-1694.7951870568104
 10
8740.69364107312
 20
-1712.84123994733
 10
8810.152912139893
 20
-1718.918138742447
 10
8879.612183206664
 20
-1712.8412399473302
 10
8946.96096947016
 20
-1694.7951870568102
 10
9010.152912139893
 20
-1665.3283002562225
 10
9067.267956014508
 20
-1625.335915990038
 10
9116.570689387483
 20
-1576.0331826170627
 10
9156.563073653668
 20
-1518.9181387424467
 10
9186.029960454256
 20
-1455.7261960727144
 10
9204.076013344777
 20
-1388.377409809219
 97
0
 75
1
 76
1
 98
0
  0
CIRCLE
  5
84
330
17
100
AcDbEntity
  8
A-GRID
370
25
100
AcDbCircle
 10
8810.152912139893
 20
-1318.918138742447
 30
0.0
 40
400.0
  0
TEXT
  5
85
330
17
100
AcDbEntity
  8
A-ANNO-TEXT
100
AcDbText
 10
8810.152912139893
 20
-1318.918138742447
 30
0.0
 40
350.0
  1
1
 72
1
 11
8810.152912139893
 21
-1318.918138742447
 31
0.0
100
AcDbText
 73
2
  0
HATCH
  5
86
330
17
100
AcDbEntity
  8
A-GRID
 62
7
100
AcDbHatch
 10
0.0
 20
0.0
 30
0.0
210
0.0
220
0.0
230
1.0
  2
SOLID
 70
1
 71
0
 91
1
 92
3
 72
0
 73
1
 93
36
 10
-12230.831909179688
 20
-1318.918138742447
 10
-12236.908807974803
 20
-1249.4588676756748
 10
-12254.954860865324
 20
-1182.1100814121794
 10
-12284.421747665912
 20
-1118.918138742447
 10
-12324.414131932097
 20
-1061.803094867831
 10
-12373.716865305072
 20
-1012.5003614948557
 10
-12430.831909179688
 20
-972.5079772286715
 10
-12494.02385184942
 20
-943.0410904280836
 10
-12561.372638112915
 20
-924.9950375375637
 10
-12630.831909179688
 20
-918.9181387424469
 10
-12700.29118024646
 20
-924.9950375375637
 10
-12767.639966509954
 20
-943.0410904280835
 10
-12830.831909179688
 20
-972.5079772286714
 10
-12887.946953054303
 20
-1012.5003614948557
 10
-12937.249686427278
 20
-1061.803094867831
 10
-12977.242070693463
 20
-1118.9181387424467
 10
-13006.708957494051
 20
-1182.1100814121794
 10
-13024.755010384572
 20
-1249.4588676756748
 10
-13030.831909179688
 20
-1318.918138742447
 10
-13024.755010384572
 20
-1388.377409809219
 10
-13006.708957494051
 20
-1455.7261960727144
 10
-12977.242070693463
 20
-1518.918138742447
 10
-12937.249686427278
 20
-1576.0331826170625
 10
-12887.946953054303
 20
-1625.335915990038
 10
-12830.831909179688
 20
-1665.3283002562223
 10
-12767.639966509954
 20
-1694.7951870568104
 10
-12700.29118024646
 20
-1712.84123994733
 10
-12630.831909179688
 20
-1718.918138742447
 10
-12561.372638112916
 20
-1712.8412399473302
 10
-12494.02385184942
 20
-1694.7951870568102
 10
-12430.831909179688
 20
-1665.3283002562225
 10
-12373.716865305072
 20
-1625.335915990038
 10
-12324.414131932097
 20
-1576.0331826170627
 10
-12284.421747665912
 20
-1518.9181387424467
 10
-12254.954860865324
 20
-1455.7261960727144
 10
-12236.908807974803
 20
-1388.377409809219
 97
0
 75
1
 76
1
 98
0
  0
CIRCLE
  5
87
330
17
100
AcDbEntity
  8
A-GRID
370
25
100
AcDbCircle
 10
-12630.831909179688
 20
-1318.918138742447
 30
0.0
 40
400.0
  0
TEXT
  5
88
330
17
100
AcDbEntity
  8
A-ANNO-TEXT
100
AcDbText
 10
-12630.831909179688
 20
-1318.918138742447
 30
0.0
 40
350.0
  1
1
 72
1
 11
-12630.831909179688
 21
-1318.918138742447
 31
0.0
100
AcDbText
 73
2
  0
LINE
  5
89
330
17
100
AcDbEntity
  8
A-GRID
370
18
100
AcDbLine
 10
-13030.831909179688
 20
4581.081861257553
 30
0.0
 11
9210.152912139893
 21
4581.081861257553
 31
0.0
  0
HATCH
  5
8A
330
17
100
AcDbEntity
  8
A-GRID
 62
7
100
AcDbHatch
 10
0.0
 20
0.0
 30
0.0
210
0.0
220
0.0
230
1.0
  2
SOLID
 70
1
 71
0
 91
1
 92
3
 72
0
 73
1
 93
36
 10
9210.152912139893
 20
4581.081861257553
 10
9204.076013344777
 20
4650.541132324325
 10
9186.029960454256
 20
4717.889918587821
 10
9156.563073653668
 20
4781.081861257553
 10
9116.570689387483
 20
4838.1969051321685
 10
9067.267956014508
 20
4887.4996385051445
 10
9010.152912139893
 20
4927.492022771328
 10
8946.96096947016
 20
4956.958909571917
 10
8879.612183206666
 20
4975.004962462436
 10
8810.152912139893
 20
4981.081861257553
 10
8740.69364107312
 20
4975.004962462436
 10
8673.344854809626
 20
4956.958909571917
 10
8610.152912139893
 20
4927.492022771328
 10
8553.037868265277
 20
4887.4996385051445
 10
8503.735134892302
 20
4838.1969051321685
 10
8463.742750626117
 20
4781.081861257553
 10
8434.275863825529
 20
4717.889918587821
 10
8416.229810935009
 20
4650.541132324325
 10
8410.152912139893
 20
4581.081861257553
 10
8416.229810935009
 20
4511.622590190781
 10
8434.275863825529
 20
4444.273803927285
 10
8463.742750626117
 20
4381.081861257553
 10
8503.735134892302
 20
4323.966817382938
 10
8553.037868265277
 20
4274.664084009962
 10
8610.152912139893
 20
4234.671699743778
 10
8673.344854809626
 20
4205.20481294319
 10
8740.69364107312
 20
4187.15876005267
 10
8810.152912139893
 20
4181.081861257553
 10
8879.612183206664
 20
4187.15876005267
 10
8946.96096947016
 20
4205.20481294319
 10
9010.152912139893
 20
4234.671699743778
 10
9067.267956014508
 20
4274.664084009962
 10
9116.570689387483
 20
4323.966817382938
 10
9156.563073653668
 20
4381.081861257553
 10
9186.029960454256
 20
4444.273803927285
 10
9204.076013344777
 20
4511.622590190781
 97
0
 75
1
 76
1
 98
0
  0
CIRCLE
  5
8B
330
17
100
AcDbEntity
  8
A-GRID
370
25
100
AcDbCircle
 10
8810.152912139893
 20
4581.081861257553
 30
0.0
 40
400.0
  0
TEXT
  5
8C
330
17
100
AcDbEntity
  8
A-ANNO-TEXT
100
AcDbText
 10
8810.152912139893
 20
4581.081861257553
 30
0.0
 40
350.0
  1
2
 72
1
 11
8810.152912139893
 21
4581.081861257553
 31
0.0
100
AcDbText
 73
2
  0
HATCH
  5
8D
330
17
100
AcDbEntity
  8
A-GRID
 62
7
100
AcDbHatch
 10
0.0
 20
0.0
 30
0.0
210
0.0
220
0.0
230
1.0
  2
SOLID
 70
1
 71
0
 91
1
 92
3
 72
0
 73
1
 93
36
 10
-12230.831909179688
 20
4581.081861257553
 10
-12236.908807974803
 20
4650.541132324325
 10
-12254.954860865324
 20
4717.889918587821
 10
-12284.421747665912
 20
4781.081861257553
 10
-12324.414131932097
 20
4838.1969051321685
 10
-12373.716865305072
 20
4887.4996385051445
 10
-12430.831909179688
 20
4927.492022771328
 10
-12494.02385184942
 20
4956.958909571917
 10
-12561.372638112915
 20
4975.004962462436
 10
-12630.831909179688
 20
4981.081861257553
 10
-12700.29118024646
 20
4975.004962462436
 10
-12767.639966509954
 20
4956.958909571917
 10
-12830.831909179688
 20
4927.492022771328
 10
-12887.946953054303
 20
4887.4996385051445
 10
-12937.249686427278
 20
4838.1969051321685
 10
-12977.242070693463
 20
4781.081861257553
 10
-13006.708957494051
 20
4717.889918587821
 10
-13024.755010384572
 20
4650.541132324325
 10
-13030.831909179688
 20
4581.081861257553
 10
-13024.755010384572
 20
4511.622590190781
 10
-13006.708957494051
 20
4444.273803927285
 10
-12977.242070693463
 20
4381.081861257553
 10
-12937.249686427278
 20
4323.966817382938
 10
-12887.946953054303
 20
4274.664084009962
 10
-12830.831909179688
 20
4234.671699743778
 10
-12767.639966509954
 20
4205.20481294319
 10
-12700.29118024646
 20
4187.15876005267
 10
-12630.831909179688
 20
4181.081861257553
 10
-12561.372638112916
 20
4187.15876005267
 10
-12494.02385184942
 20
4205.20481294319
 10
-12430.831909179688
 20
4234.671699743778
 10
-12373.716865305072
 20
4274.664084009962
 10
-12324.414131932097
 20
4323.966817382938
 10
-12284.421747665912
 20
4381.081861257553
 10
-12254.954860865324
 20
4444.273803927285
 10
-12236.908807974803
 20
4511.622590190781
 97
0
 75
1
 76
1
 98
0
  0
CIRCLE
  5
8E
330
17
100
AcDbEntity
  8
A-GRID
370
25
100
AcDbCircle
 10
-12630.831909179688
 20
4581.081861257553
 30
0.0
 40
400.0
  0
TEXT
  5
8F
330
17
100
AcDbEntity
  8
A-ANNO-TEXT
100
AcDbText
 10
-12630.831909179688
 20
4581.081861257553
 30
0.0
 40
350.0
  1
2
 72
1
 11
-12630.831909179688
 21
4581.081861257553
 31
0.0
100
AcDbText
 73
2
  0
LINE
  5
90
330
17
100
AcDbEntity
  8
A-ANNO-DIMS
370
18
100
AcDbLine
 10
-7734.8480224609375
 20
6345.221042633057
 30
0.0
 11
-2834.848022460937
 21
6345.221042633057
 31
0.0
  0
LINE
  5
91
330
17
100
AcDbEntity
  8
A-ANNO-DIMS
370
18
100
AcDbLine
 10
-7840.914039638919
 20
6239.155025455075
 30
0.0
 11
-7628.782005282956
 21
6451.2870598110385
 31
0.0
  0
LINE
  5
92
330
17
100
AcDbEntity
  8
A-ANNO-DIMS
370
18
100
AcDbLine
 10
-2940.9140396389193
 20
6239.155025455075
 30
0.0
 11
-2728.7820052829547
 21
6451.2870598110385
 31
0.0
  0
TEXT
  5
93
330
17
100
AcDbEntity
  8
A-ANNO-DIMS
100
AcDbText
 10
-5284.8480224609375
 20
6595.221042633057
 30
0.0
 40
250.0
  1
4900
 72
1
 11
-5284.8480224609375
 21
6595.221042633057
 31
0.0
100
AcDbText
 73
2
  0
LINE
  5
94
330
17
100
AcDbEntity
  8
A-ANNO-DIMS
370
18
100
AcDbLine
 10
-2834.848022460937
 20
6345.221042633057
 30
0.0
 11
6365.1519775390625
 21
6345.221042633057
 31
0.0
  0
LINE
  5
95
330
17
100
AcDbEntity
  8
A-ANNO-DIMS
370
18
100
AcDbLine
 10
6259.085960361081
 20
6239.155025455075
 30
0.0
 11
6471.217994717044
 21
6451.2870598110385
 31
0.0
  0
TEXT
  5
96
330
17
100
AcDbEntity
  8
A-ANNO-DIMS
100
AcDbText
 10
1765.1519775390627
 20
6595.221042633057
 30
0.0
 40
250.0
  1
9200
 72
1
 11
1765.1519775390627
 21
6595.221042633057
 31
0.0
100
AcDbText
 73
2
  0
LINE
  5
97
330
17
100
AcDbEntity
  8
A-ANNO-DIMS
370
18
100
AcDbLine
 10
-7734.8480224609375
 20
7145.221042633057
 30
0.0
 11
6365.1519775390625
 21
7145.221042633057
 31
0.0
  0
LINE
  5
98
330
17
100
AcDbEntity
  8
A-ANNO-DIMS
370
18
100
AcDbLine
 10
-7840.914039638919
 20
7039.155025455075
 30
0.0
 11
-7628.782005282956
 21
7251.2870598110385
 31
0.0
  0
LINE
  5
99
330
17
100
AcDbEntity
  8
A-ANNO-DIMS
370
18
100
AcDbLine
 10
6259.085960361081
 20
7039.155025455075
 30
0.0
 11
6471.217994717044
 21
7251.2870598110385
 31
0.0
  0
TEXT
  5
9A
330
17
100
AcDbEntity
  8
A-ANNO-DIMS
100
AcDbText
 10
-684.8480224609375
 20
7395.221042633057
 30
0.0
 40
250.0
  1
14100
 72
1
 11
-684.8480224609375
 21
7395.221042633057
 31
0.0
100
AcDbText
 73
2
  0
LINE
  5
9B
330
17
100
AcDbEntity
  8
A-ANNO-DIMS
370
18
100
AcDbLine
 10
-10230.831909179688
 20
-1318.918138742447
 30
0.0
 11
-10230.831909179688
 21
4581.081861257553
 31
0.0
  0
LINE
  5
9C
330
17
100
AcDbEntity
  8
A-ANNO-DIMS
370
18
100
AcDbLine
 10
-10336.89792635767
 20
-1424.984155920429
 30
0.0
 11
-10124.765892001706
 21
-1212.8521215644648
 31
0.0
  0
LINE
  5
9D
330
17
100
AcDbEntity
  8
A-ANNO-DIMS
370
18
100
AcDbLine
 10
-10336.89792635767
 20
4475.015844079571
 30
0.0
 11
-10124.765892001706
 21
4687.147878435535
 31
0.0
  0
TEXT
  5
9E
330
17
100
AcDbEntity
  8
A-ANNO-DIMS
100
AcDbText
 10
-10480.831909179688
 20
1631.081861257553
 30
0.0
 40
250.0
  1
5900
 50
90.0
 72
1
 11
-10480.831909179688
 21
1631.081861257553
 31
0.0
100
AcDbText
 73
2
  0
LWPOLYLINE
  5
9F
330
17
100
AcDbEntity
  8
0
 62
7
100
AcDbPolyline
 90
4
 70
1
 10
-16760.339498519897
 20
-7739.726233482361
 10
25239.660501480103
 20
-7739.726233482361
 10
25239.660501480103
 20
10945.221042633057
 10
-16760.339498519897
 20
10945.221042633057
  0
LWPOLYLINE
  5
A0
330
17
100
AcDbEntity
  8
A-TTLB
370
70
100
AcDbPolyline
 90
4
 70
1
 10
-14260.339498519897
 20
-6739.726233482361
 10
24239.660501480103
 20
-6739.726233482361
 10
24239.660501480103
 20
9945.221042633057
 10
-14260.339498519897
 20
9945.221042633057
  0
LINE
  5
A1
330
17
100
AcDbEntity
  8
A-TTLB
370
70
100
AcDbLine
 10
12239.660501480103
 20
-6739.726233482361
 30
0.0
 11
12239.660501480103
 21
9945.221042633057
 31
0.0
  0
IMAGE
  5
A5
330
17
100
AcDbEntity
  8
A-TTLB
100
AcDbRasterImage
 90
0
 10
12439.660501480103
 20
8565.221042633057
 30
0.0
 11
1.6853932584269662
 21
0.0
 31
0.0
 12
1.1269755820374415e-16
 22
1.8404907975460123
 32
0.0
 13
890.0
 23
652.0
340
A4
 70
3
280
0
281
50
282
50
283
0
360
A6
 71
1
 91
2
 14
-0.5
 24
-0.5
 14
889.5
 24
651.5
290
0
  0
TEXT
  5
A7
330
17
100
AcDbEntity
  8
A-TTLB
100
AcDbText
 10
19189.660501480103
 20
9360.221042633057
 30
0.0
 40
390.0
  1
PUBLIC WORKS
 72
1
 11
19189.660501480103
 21
9360.221042633057
 31
0.0
100
AcDbText
 73
2
  0
TEXT
  5
A8
330
17
100
AcDbEntity
  8
A-TTLB
100
AcDbText
 10
19189.660501480103
 20
8970.221042633057
 30
0.0
 40
390.0
  1
DEPARTMENT MALAYSIA
 72
1
 11
19189.660501480103
 21
8970.221042633057
 31
0.0
100
AcDbText
 73
2
  0
LINE
  5
A9
330
17
100
AcDbEntity
  8
A-TTLB
370
50
100
AcDbLine
 10
12239.660501480103
 20
8385.221042633057
 30
0.0
 11
24239.660501480103
 21
8385.221042633057
 31
0.0
  0
TEXT
  5
AA
330
17
100
AcDbEntity
  8
A-TTLB
100
AcDbText
 10
18239.660501480103
 20
7825.221042633057
 30
0.0
 40
500.0
  1
SINGLE STOREY RESIDENTIAL
 72
1
 11
18239.660501480103
 21
7825.221042633057
 31
0.0
100
AcDbText
 73
2
  0
TEXT
  5
AB
330
17
100
AcDbEntity
  8
A-TTLB
100
AcDbText
 10
18239.660501480103
 20
7233.221042633057
 30
0.0
 40
300.0
  1
Ifc4 SampleHouse
 72
1
 11
18239.660501480103
 21
7233.221042633057
 31
0.0
100
AcDbText
 73
2
  0
LINE
  5
AC
330
17
100
AcDbEntity
  8
A-TTLB
370
35
100
AcDbLine
 10
12239.660501480103
 20
6785.221042633057
 30
0.0
 11
24239.660501480103
 21
6785.221042633057
 31
0.0
  0
LINE
  5
AD
330
17
100
AcDbEntity
  8
A-TTLB
370
18
100
AcDbLine
 10
12239.660501480103
 20
-3739.726233482361
 30
0.0
 11
24239.660501480103
 21
-3739.726233482361
 31
0.0
  0
LINE
  5
AE
330
17
100
AcDbEntity
  8
A-TTLB
370
18
100
AcDbLine
 10
15839.660501480103
 20
-3739.726233482361
 30
0.0
 11
15839.660501480103
 21
-2782.9128447445955
 31
0.0
  0
TEXT
  5
AF
330
17
100
AcDbEntity
  8
A-TTLB
100
AcDbText
 10
14039.660501480103
 20
-3261.319539113478
 30
0.0
 40
200.0
  1
REVISION NO.
 72
1
 11
14039.660501480103
 21
-3261.319539113478
 31
0.0
100
AcDbText
 73
2
  0
TEXT
  5
B0
330
17
100
AcDbEntity
  8
A-TTLB
100
AcDbText
 10
20039.660501480103
 20
-3261.319539113478
 30
0.0
 40
300.0
  1
0
 72
1
 11
20039.660501480103
 21
-3261.319539113478
 31
0.0
100
AcDbText
 73
2
  0
LINE
  5
B1
330
17
100
AcDbEntity
  8
A-TTLB
370
18
100
AcDbLine
 10
12239.660501480103
 20
-2782.9128447445955
 30
0.0
 11
24239.660501480103
 21
-2782.9128447445955
 31
0.0
  0
LINE
  5
B2
330
17
100
AcDbEntity
  8
A-TTLB
370
18
100
AcDbLine
 10
15839.660501480103
 20
-2782.9128447445955
 30
0.0
 11
15839.660501480103
 21
-1826.0994560068302
 31
0.0
  0
TEXT
  5
B3
330
17
100
AcDbEntity
  8
A-TTLB
100
AcDbText
 10
14039.660501480103
 20
-2304.506150375713
 30
0.0
 40
200.0
  1
CHECKED BY
 72
1
 11
14039.660501480103
 21
-2304.506150375713
 31
0.0
100
AcDbText
 73
2
  0
LINE
  5
B4
330
17
100
AcDbEntity
  8
A-TTLB
370
35
100
AcDbLine
 10
12239.660501480103
 20
-1826.0994560068302
 30
0.0
 11
24239.660501480103
 21
-1826.0994560068302
 31
0.0
  0
LINE
  5
B5
330
17
100
AcDbEntity
  8
A-TTLB
370
18
100
AcDbLine
 10
15839.660501480103
 20
-1826.0994560068302
 30
0.0
 11
15839.660501480103
 21
-869.286067269065
 31
0.0
  0
TEXT
  5
B6
330
17
100
AcDbEntity
  8
A-TTLB
100
AcDbText
 10
14039.660501480103
 20
-1347.6927616379476
 30
0.0
 40
200.0
  1
DRAWING NO.
 72
1
 11
14039.660501480103
 21
-1347.6927616379476
 31
0.0
100
AcDbText
 73
2
  0
TEXT
  5
B7
330
17
100
AcDbEntity
  8
A-TTLB
100
AcDbText
 10
20039.660501480103
 20
-1347.6927616379476
 30
0.0
 40
300.0
  1
A-06
 72
1
 11
20039.660501480103
 21
-1347.6927616379476
 31
0.0
100
AcDbText
 73
2
  0
LINE
  5
B8
330
17
100
AcDbEntity
  8
A-TTLB
370
18
100
AcDbLine
 10
12239.660501480103
 20
-869.286067269065
 30
0.0
 11
24239.660501480103
 21
-869.286067269065
 31
0.0
  0
LINE
  5
B9
330
17
100
AcDbEntity
  8
A-TTLB
370
18
100
AcDbLine
 10
15839.660501480103
 20
-869.286067269065
 30
0.0
 11
15839.660501480103
 21
87.52732146870017
 31
0.0
  0
TEXT
  5
BA
330
17
100
AcDbEntity
  8
A-TTLB
100
AcDbText
 10
14039.660501480103
 20
-390.87937290018243
 30
0.0
 40
200.0
  1
DATE
 72
1
 11
14039.660501480103
 21
-390.87937290018243
 31
0.0
100
AcDbText
 73
2
  0
LINE
  5
BB
330
17
100
AcDbEntity
  8
A-TTLB
370
18
100
AcDbLine
 10
12239.660501480103
 20
87.52732146870017
 30
0.0
 11
24239.660501480103
 21
87.52732146870017
 31
0.0
  0
LINE
  5
BC
330
17
100
AcDbEntity
  8
A-TTLB
370
18
100
AcDbLine
 10
15839.660501480103
 20
87.52732146870017
 30
0.0
 11
15839.660501480103
 21
1044.3407102064652
 31
0.0
  0
TEXT
  5
BD
330
17
100
AcDbEntity
  8
A-TTLB
100
AcDbText
 10
14039.660501480103
 20
565.9340158375828
 30
0.0
 40
200.0
  1
SCALE
 72
1
 11
14039.660501480103
 21
565.9340158375828
 31
0.0
100
AcDbText
 73
2
  0
TEXT
  5
BE
330
17
100
AcDbEntity
  8
A-TTLB
100
AcDbText
 10
20039.660501480103
 20
565.9340158375828
 30
0.0
 40
300.0
  1
1:100
 72
1
 11
20039.660501480103
 21
565.9340158375828
 31
0.0
100
AcDbText
 73
2
  0
LINE
  5
BF
330
17
100
AcDbEntity
  8
A-TTLB
370
18
100
AcDbLine
 10
12239.660501480103
 20
1044.3407102064652
 30
0.0
 11
24239.660501480103
 21
1044.3407102064652
 31
0.0
  0
LINE
  5
C0
330
17
100
AcDbEntity
  8
A-TTLB
370
18
100
AcDbLine
 10
15839.660501480103
 20
1044.3407102064652
 30
0.0
 11
15839.660501480103
 21
2001.1540989442306
 31
0.0
  0
TEXT
  5
C1
330
17
100
AcDbEntity
  8
A-TTLB
100
AcDbText
 10
14039.660501480103
 20
1522.747404575348
 30
0.0
 40
200.0
  1
DRAWN BY
 72
1
 11
14039.660501480103
 21
1522.747404575348
 31
0.0
100
AcDbText
 73
2
  0
LINE
  5
C2
330
17
100
AcDbEntity
  8
A-TTLB
370
35
100
AcDbLine
 10
12239.660501480103
 20
2001.1540989442306
 30
0.0
 11
24239.660501480103
 21
2001.1540989442306
 31
0.0
  0
LINE
  5
C3
330
17
100
AcDbEntity
  8
A-TTLB
370
18
100
AcDbLine
 10
15839.660501480103
 20
2001.1540989442306
 30
0.0
 11
15839.660501480103
 21
2957.967487681996
 31
0.0
  0
TEXT
  5
C4
330
17
100
AcDbEntity
  8
A-TTLB
100
AcDbText
 10
14039.660501480103
 20
2479.560793313113
 30
0.0
 40
200.0
  1
DRAWING TITLE
 72
1
 11
14039.660501480103
 21
2479.560793313113
 31
0.0
100
AcDbText
 73
2
  0
TEXT
  5
C5
330
17
100
AcDbEntity
  8
A-TTLB
100
AcDbText
 10
20039.660501480103
 20
2479.560793313113
 30
0.0
 40
300.0
  1
ROOF PLAN
 72
1
 11
20039.660501480103
 21
2479.560793313113
 31
0.0
100
AcDbText
 73
2
  0
LINE
  5
C6
330
17
100
AcDbEntity
  8
A-TTLB
370
35
100
AcDbLine
 10
12239.660501480103
 20
2957.967487681996
 30
0.0
 11
24239.660501480103
 21
2957.967487681996
 31
0.0
  0
LINE
  5
C7
330
17
100
AcDbEntity
  8
A-TTLB
370
18
100
AcDbLine
 10
15839.660501480103
 20
2957.967487681996
 30
0.0
 11
15839.660501480103
 21
3914.780876419761
 31
0.0
  0
TEXT
  5
C8
330
17
100
AcDbEntity
  8
A-TTLB
100
AcDbText
 10
14039.660501480103
 20
3436.3741820508785
 30
0.0
 40
200.0
  1
BUILDING TYPE
 72
1
 11
14039.660501480103
 21
3436.3741820508785
 31
0.0
100
AcDbText
 73
2
  0
TEXT
  5
C9
330
17
100
AcDbEntity
  8
A-TTLB
100
AcDbText
 10
20039.660501480103
 20
3436.3741820508785
 30
0.0
 40
300.0
  1
SINGLE STOREY RESIDENTIAL
 72
1
 11
20039.660501480103
 21
3436.3741820508785
 31
0.0
100
AcDbText
 73
2
  0
LINE
  5
CA
330
17
100
AcDbEntity
  8
A-TTLB
370
35
100
AcDbLine
 10
12239.660501480103
 20
3914.780876419761
 30
0.0
 11
24239.660501480103
 21
3914.780876419761
 31
0.0
  0
LINE
  5
CB
330
17
100
AcDbEntity
  8
A-TTLB
370
18
100
AcDbLine
 10
15839.660501480103
 20
3914.780876419761
 30
0.0
 11
15839.660501480103
 21
4871.594265157526
 31
0.0
  0
TEXT
  5
CC
330
17
100
AcDbEntity
  8
A-TTLB
100
AcDbText
 10
14039.660501480103
 20
4393.187570788644
 30
0.0
 40
200.0
  1
ARCHITECT
 72
1
 11
14039.660501480103
 21
4393.187570788644
 31
0.0
100
AcDbText
 73
2
  0
LINE
  5
CD
330
17
100
AcDbEntity
  8
A-TTLB
370
18
100
AcDbLine
 10
12239.660501480103
 20
4871.594265157526
 30
0.0
 11
24239.660501480103
 21
4871.594265157526
 31
0.0
  0
LINE
  5
CE
330
17
100
AcDbEntity
  8
A-TTLB
370
18
100
AcDbLine
 10
15839.660501480103
 20
4871.594265157526
 30
0.0
 11
15839.660501480103
 21
5828.407653895291
 31
0.0
  0
TEXT
  5
CF
330
17
100
AcDbEntity
  8
A-TTLB
100
AcDbText
 10
14039.660501480103
 20
5350.000959526408
 30
0.0
 40
200.0
  1
CLIENT
 72
1
 11
14039.660501480103
 21
5350.000959526408
 31
0.0
100
AcDbText
 73
2
  0
LINE
  5
D0
330
17
100
AcDbEntity
  8
A-TTLB
370
35
100
AcDbLine
 10
12239.660501480103
 20
5828.407653895291
 30
0.0
 11
24239.660501480103
 21
5828.407653895291
 31
0.0
  0
LINE
  5
D1
330
17
100
AcDbEntity
  8
A-TTLB
370
18
100
AcDbLine
 10
15839.660501480103
 20
5828.407653895291
 30
0.0
 11
15839.660501480103
 21
6785.221042633057
 31
0.0
  0
TEXT
  5
D2
330
17
100
AcDbEntity
  8
A-TTLB
100
AcDbText
 10
14039.660501480103
 20
6306.8143482641735
 30
0.0
 40
200.0
  1
PROJECT
 72
1
 11
14039.660501480103
 21
6306.8143482641735
 31
0.0
100
AcDbText
 73
2
  0
LINE
  5
D3
330
17
100
AcDbEntity
  8
A-TTLB
370
50
100
AcDbLine
 10
12239.660501480103
 20
-3739.726233482361
 30
0.0
 11
24239.660501480103
 21
-3739.726233482361
 31
0.0
  0
TEXT
  5
D4
330
17
100
AcDbEntity
  8
A-TTLB
100
AcDbText
 10
18239.660501480103
 20
-4039.726233482361
 30
0.0
 40
240.0
  1
GRID REFERENCE
 72
1
 11
18239.660501480103
 21
-4039.726233482361
 31
0.0
100
AcDbText
 73
2
  0
LINE
  5
D5
330
17
100
AcDbEntity
  8
A-TTLB
370
35
100
AcDbLine
 10
12239.660501480103
 20
-4189.726233482361
 30
0.0
 11
24239.660501480103
 21
-4189.726233482361
 31
0.0
  0
TEXT
  5
D6
330
17
100
AcDbEntity
  8
A-TTLB
100
AcDbText
 10
18239.660501480103
 20
-4489.726233482361
 30
0.0
 40
200.0
  1
ALL DIMS SHOWN IN DRAWING
 72
1
 11
18239.660501480103
 21
-4489.726233482361
 31
0.0
100
AcDbText
 73
2
  0
LWPOLYLINE
  5
D7
330
17
100
AcDbEntity
  8
A-ANNO-TEXT
370
18
100
AcDbPolyline
 90
3
 70
1
 10
10639.660501480103
 20
8345.221042633057
 10
10375.660501480103
 20
7545.221042633057
 10
10903.660501480103
 20
7545.221042633057
  0
TEXT
  5
D8
330
17
100
AcDbEntity
  8
A-ANNO-TEXT
100
AcDbText
 10
10639.660501480103
 20
8645.221042633057
 30
0.0
 40
300.0
  1
N
 72
1
 11
10639.660501480103
 21
8645.221042633057
 31
0.0
100
AcDbText
 73
2
  0
TEXT
  5
D9
330
17
100
AcDbEntity
  8
A-ANNO-TEXT
 62
8
100
AcDbText
 10
-1010.3394985198975
 20
-5839.726233482361
 30
0.0
 40
300.0
  1
scale 1:100
 72
1
 11
-1010.3394985198975
 21
-5839.726233482361
 31
0.0
100
AcDbText
 73
2
  0
SOLID
  5
DA
330
17
100
AcDbEntity
  8
A-ANNO-DIMS
 62
7
100
AcDbTrace
 10
-3510.3394985198975
 20
-6439.726233482361
 30
0.0
 11
-2510.3394985198975
 21
-6439.726233482361
 31
0.0
 12
-3510.3394985198975
 22
-6239.726233482361
 32
0.0
 13
-2510.3394985198975
 23
-6239.726233482361
 33
0.0
  0
SOLID
  5
DB
330
17
100
AcDbEntity
  8
A-ANNO-DIMS
 62
0
100
AcDbTrace
 10
-2510.3394985198975
 20
-6439.726233482361
 30
0.0
 11
-1510.3394985198975
 21
-6439.726233482361
 31
0.0
 12
-2510.3394985198975
 22
-6239.726233482361
 32
0.0
 13
-1510.3394985198975
 23
-6239.726233482361
 33
0.0
  0
SOLID
  5
DC
330
17
100
AcDbEntity
  8
A-ANNO-DIMS
 62
7
100
AcDbTrace
 10
-1510.3394985198975
 20
-6439.726233482361
 30
0.0
 11
1489.6605014801025
 21
-6439.726233482361
 31
0.0
 12
-1510.3394985198975
 22
-6239.726233482361
 32
0.0
 13
1489.6605014801025
 23
-6239.726233482361
 33
0.0
  0
TEXT
  5
DD
330
17
100
AcDbEntity
  8
A-ANNO-DIMS
100
AcDbText
 10
-3510.3394985198975
 20
-6599.726233482361
 30
0.0
 40
200.0
  1
0
 72
1
 11
-3510.3394985198975
 21
-6599.726233482361
 31
0.0
100
AcDbText
 73
2
  0
TEXT
  5
DE
330
17
100
AcDbEntity
  8
A-ANNO-DIMS
100
AcDbText
 10
-2510.3394985198975
 20
-5939.726233482361
 30
0.0
 40
200.0
  1
1
 72
1
 11
-2510.3394985198975
 21
-5939.726233482361
 31
0.0
100
AcDbText
 73
2
  0
TEXT
  5
DF
330
17
100
AcDbEntity
  8
A-ANNO-DIMS
100
AcDbText
 10
-1510.3394985198975
 20
-6599.726233482361
 30
0.0
 40
200.0
  1
2
 72
1
 11
-1510.3394985198975
 21
-6599.726233482361
 31
0.0
100
AcDbText
 73
2
  0
TEXT
  5
E0
330
17
100
AcDbEntity
  8
A-ANNO-DIMS
100
AcDbText
 10
1489.6605014801025
 20
-5939.726233482361
 30
0.0
 40
200.0
  1
5m
 72
1
 11
1489.6605014801025
 21
-5939.726233482361
 31
0.0
100
AcDbText
 73
2
  0
ENDSEC
  0
SECTION
  2
OBJECTS
  0
DICTIONARY
  5
A
330
0
100
AcDbDictionary
281
1
  3
ACAD_COLOR
350
B
  3
ACAD_GROUP
350
C
  3
ACAD_LAYOUT
350
D
  3
ACAD_MATERIAL
350
E
  3
ACAD_MLEADERSTYLE
350
F
  3
ACAD_MLINESTYLE
350
10
  3
ACAD_PLOTSETTINGS
350
11
  3
ACAD_PLOTSTYLENAME
350
12
  3
ACAD_SCALELIST
350
14
  3
ACAD_TABLESTYLE
350
15
  3
ACAD_VISUALSTYLE
350
16
  3
EZDXF_META
350
2D
  3
ACAD_IMAGE_VARS
350
A2
  3
ACAD_IMAGE_DICT
350
A3
  0
DICTIONARY
  5
B
330
A
100
AcDbDictionary
281
1
  0
DICTIONARY
  5
C
330
A
100
AcDbDictionary
281
1
  0
DICTIONARY
  5
D
330
A
100
AcDbDictionary
281
1
  3
Model
350
1A
  3
Layout1
350
1E
  0
DICTIONARY
  5
E
330
A
100
AcDbDictionary
281
1
  3
ByBlock
350
1F
  3
ByLayer
350
20
  3
Global
350
21
  0
DICTIONARY
  5
F
330
A
100
AcDbDictionary
281
1
  3
Standard
350
2C
  0
DICTIONARY
  5
10
330
A
100
AcDbDictionary
281
1
  3
Standard
350
22
  0
DICTIONARY
  5
11
330
A
100
AcDbDictionary
281
1
  0
ACDBDICTIONARYWDFLT
  5
12
330
A
100
AcDbDictionary
281
1
  3
Normal
350
13
100
AcDbDictionaryWithDefault
340
13
  0
ACDBPLACEHOLDER
  5
13
330
12
  0
DICTIONARY
  5
14
330
A
100
AcDbDictionary
281
1
  0
DICTIONARY
  5
15
330
A
100
AcDbDictionary
281
1
  0
DICTIONARY
  5
16
330
A
100
AcDbDictionary
281
1
  0
LAYOUT
  5
1A
330
D
100
AcDbPlotSettings
  1

  4
A3
  6

 40
7.5
 41
20.0
 42
7.5
 43
20.0
 44
420.0
 45
297.0
 46
0.0
 47
0.0
 48
0.0
 49
0.0
140
0.0
141
0.0
142
1.0
143
1.0
 70
1024
 72
1
 73
0
 74
5
  7

 75
16
 76
0
 77
2
 78
300
147
1.0
148
0.0
149
0.0
100
AcDbLayout
  1
Model
 70
1
 71
0
 10
0.0
 20
0.0
 11
420.0
 21
297.0
 12
0.0
 22
0.0
 32
0.0
 14
1e+20
 24
1e+20
 34
1e+20
 15
-1e+20
 25
-1e+20
 35
-1e+20
146
0.0
 13
0.0
 23
0.0
 33
0.0
 16
1.0
 26
0.0
 36
0.0
 17
0.0
 27
1.0
 37
0.0
 76
1
330
17
  0
LAYOUT
  5
1E
330
D
100
AcDbPlotSettings
  1

  4
A3
  6

 40
7.5
 41
20.0
 42
7.5
 43
20.0
 44
420.0
 45
297.0
 46
0.0
 47
0.0
 48
0.0
 49
0.0
140
0.0
141
0.0
142
1.0
143
1.0
 70
0
 72
1
 73
0
 74
5
  7

 75
16
 76
0
 77
2
 78
300
147
1.0
148
0.0
149
0.0
100
AcDbLayout
  1
Layout1
 70
1
 71
1
 10
0.0
 20
0.0
 11
420.0
 21
297.0
 12
0.0
 22
0.0
 32
0.0
 14
1e+20
 24
1e+20
 34
1e+20
 15
-1e+20
 25
-1e+20
 35
-1e+20
146
0.0
 13
0.0
 23
0.0
 33
0.0
 16
1.0
 26
0.0
 36
0.0
 17
0.0
 27
1.0
 37
0.0
 76
1
330
1B
  0
MATERIAL
  5
1F
102
{ACAD_REACTORS
330
E
102
}
330
E
100
AcDbMaterial
  1
ByBlock
  2

 70
0
 40
1.0
 71
1
 41
1.0
 91
-1023410177
 42
1.0
 72
1
  3

 73
1
 74
1
 75
1
 44
0.5
 73
0
 45
1.0
 46
1.0
 77
1
  4

 78
1
 79
1
170
1
 48
1.0
171
1
  6

172
1
173
1
174
1
140
1.0
141
1.0
175
1
  7

176
1
177
1
178
1
143
1.0
179
1
  8

270
1
271
1
272
1
145
1.0
146
1.0
273
1
  9

274
1
275
1
276
1
 42
1.0
 72
1
  3

 73
1
 74
1
 75
1
 94
63
  0
MATERIAL
  5
20
102
{ACAD_REACTORS
330
E
102
}
330
E
100
AcDbMaterial
  1
ByLayer
  2

 70
0
 40
1.0
 71
1
 41
1.0
 91
-1023410177
 42
1.0
 72
1
  3

 73
1
 74
1
 75
1
 44
0.5
 73
0
 45
1.0
 46
1.0
 77
1
  4

 78
1
 79
1
170
1
 48
1.0
171
1
  6

172
1
173
1
174
1
140
1.0
141
1.0
175
1
  7

176
1
177
1
178
1
143
1.0
179
1
  8

270
1
271
1
272
1
145
1.0
146
1.0
273
1
  9

274
1
275
1
276
1
 42
1.0
 72
1
  3

 73
1
 74
1
 75
1
 94
63
  0
MATERIAL
  5
21
102
{ACAD_REACTORS
330
E
102
}
330
E
100
AcDbMaterial
  1
Global
  2

 70
0
 40
1.0
 71
1
 41
1.0
 91
-1023410177
 42
1.0
 72
1
  3

 73
1
 74
1
 75
1
 44
0.5
 73
0
 45
1.0
 46
1.0
 77
1
  4

 78
1
 79
1
170
1
 48
1.0
171
1
  6

172
1
173
1
174
1
140
1.0
141
1.0
175
1
  7

176
1
177
1
178
1
143
1.0
179
1
  8

270
1
271
1
272
1
145
1.0
146
1.0
273
1
  9

274
1
275
1
276
1
 42
1.0
 72
1
  3

 73
1
 74
1
 75
1
 94
63
  0
MLINESTYLE
  5
22
102
{ACAD_REACTORS
330
10
102
}
330
10
100
AcDbMlineStyle
  2
Standard
 70
0
  3

 62
256
 51
90.0
 52
90.0
 71
2
 49
0.5
 62
256
  6
BYLAYER
 49
-0.5
 62
256
  6
BYLAYER
  0
MLEADERSTYLE
  5
2C
102
{ACAD_REACTORS
330
F
102
}
330
F
100
AcDbMLeaderStyle
179
2
170
2
171
1
172
0
 90
2
 40
0.0
 41
0.0
173
1
 91
-1056964608
 92
-2
290
1
 42
2.0
291
1
 43
8.0
  3
Standard
 44
4.0
300

342
29
174
1
175
1
176
0
178
1
 93
-1056964608
 45
4.0
292
0
297
0
 46
4.0
 94
-1056964608
 47
1.0
 49
1.0
140
1.0
294
1
141
0.0
177
0
142
1.0
295
0
296
0
143
3.75
271
0
272
9
273
9
  0
DICTIONARY
  5
2D
330
A
100
AcDbDictionary
280
1
281
1
  3
CREATED_BY_EZDXF
350
2E
  3
WRITTEN_BY_EZDXF
350
E3
  0
DICTIONARYVAR
  5
2E
330
2D
100
DictionaryVariables
280
0
  1
1.4.3 @ 2026-04-19T08:14:51.642705+00:00
  0
RASTERVARIABLES
  5
A2
102
{ACAD_REACTORS
330
A
102
}
330
A
100
AcDbRasterVariables
 90
0
 70
0
 71
1
 72
3
  0
DICTIONARY
  5
A3
330
A
100
AcDbDictionary
281
1
  3
/home/red1/bim-compiler/2D_Layout/python/../input/jkr.png
350
A4
  0
IMAGEDEF
  5
A4
102
{ACAD_REACTORS
330
A3
330
A6
102
}
330
A3
100
AcDbRasterImageDef
 90
0
  1
/home/red1/bim-compiler/2D_Layout/python/../input/jkr.png
 10
890.0
 20
652.0
 11
0.01
 21
0.01
280
1
281
0
  0
IMAGEDEF_REACTOR
  5
A6
330
A5
100
AcDbRasterImageDefReactor
 90
2
330
A5
  0
DICTIONARYVAR
  5
E3
330
2D
100
DictionaryVariables
280
0
  1
1.4.3 @ 2026-04-19T08:14:51.650167+00:00
  0
ENDSEC
  0
EOF
