  0
SECTION
  2
HEADER
  9
$ACADVER
  1
AC1024
  9
$ACADMAINTVER
 70
6
  9
$DWGCODEPAGE
  3
ANSI_1252
  9
$LASTSAVEDBY
  1
ezdxf
  9
$INSBASE
 10
0.0
 20
0.0
 30
0.0
  9
$EXTMIN
 10
1e+20
 20
1e+20
 30
1e+20
  9
$EXTMAX
 10
-1e+20
 20
-1e+20
 30
-1e+20
  9
$LIMMIN
 10
0.0
 20
0.0
  9
$LIMMAX
 10
420.0
 20
297.0
  9
$ORTHOMODE
 70
0
  9
$REGENMODE
 70
1
  9
$FILLMODE
 70
1
  9
$QTEXTMODE
 70
0
  9
$MIRRTEXT
 70
1
  9
$LTSCALE
 40
1.0
  9
$ATTMODE
 70
1
  9
$TEXTSIZE
 40
2.5
  9
$TRACEWID
 40
1.0
  9
$TEXTSTYLE
  7
Standard
  9
$CLAYER
  8
0
  9
$CELTYPE
  6
ByLayer
  9
$CECOLOR
 62
256
  9
$CELTSCALE
 40
1.0
  9
$DISPSILH
 70
0
  9
$DIMSCALE
 40
1.0
  9
$DIMASZ
 40
2.5
  9
$DIMEXO
 40
0.625
  9
$DIMDLI
 40
3.75
  9
$DIMRND
 40
0.0
  9
$DIMDLE
 40
0.0
  9
$DIMEXE
 40
1.25
  9
$DIMTP
 40
0.0
  9
$DIMTM
 40
0.0
  9
$DIMTXT
 40
2.5
  9
$DIMCEN
 40
2.5
  9
$DIMTSZ
 40
0.0
  9
$DIMTOL
 70
0
  9
$DIMLIM
 70
0
  9
$DIMTIH
 70
0
  9
$DIMTOH
 70
0
  9
$DIMSE1
 70
0
  9
$DIMSE2
 70
0
  9
$DIMTAD
 70
1
  9
$DIMZIN
 70
8
  9
$DIMBLK
  1

  9
$DIMASO
 70
1
  9
$DIMSHO
 70
1
  9
$DIMPOST
  1

  9
$DIMAPOST
  1

  9
$DIMALT
 70
0
  9
$DIMALTD
 70
3
  9
$DIMALTF
 40
0.03937007874
  9
$DIMLFAC
 40
1.0
  9
$DIMTOFL
 70
1
  9
$DIMTVP
 40
0.0
  9
$DIMTIX
 70
0
  9
$DIMSOXD
 70
0
  9
$DIMSAH
 70
0
  9
$DIMBLK1
  1

  9
$DIMBLK2
  1

  9
$DIMSTYLE
  2
ISO-25
  9
$DIMCLRD
 70
0
  9
$DIMCLRE
 70
0
  9
$DIMCLRT
 70
0
  9
$DIMTFAC
 40
1.0
  9
$DIMGAP
 40
0.625
  9
$DIMJUST
 70
0
  9
$DIMSD1
 70
0
  9
$DIMSD2
 70
0
  9
$DIMTOLJ
 70
0
  9
$DIMTZIN
 70
8
  9
$DIMALTZ
 70
0
  9
$DIMALTTZ
 70
0
  9
$DIMUPT
 70
0
  9
$DIMDEC
 70
2
  9
$DIMTDEC
 70
2
  9
$DIMALTU
 70
2
  9
$DIMALTTD
 70
3
  9
$DIMTXSTY
  7
Standard
  9
$DIMAUNIT
 70
0
  9
$DIMADEC
 70
0
  9
$DIMALTRND
 40
0.0
  9
$DIMAZIN
 70
0
  9
$DIMDSEP
 70
44
  9
$DIMATFIT
 70
3
  9
$DIMFRAC
 70
0
  9
$DIMLDRBLK
  1

  9
$DIMLUNIT
 70
2
  9
$DIMLWD
 70
-2
  9
$DIMLWE
 70
-2
  9
$DIMTMOVE
 70
0
  9
$DIMFXL
 40
1.0
  9
$DIMFXLON
 70
0
  9
$DIMJOGANG
 40
0.785398163397
  9
$DIMTFILL
 70
0
  9
$DIMTFILLCLR
 70
0
  9
$DIMARCSYM
 70
0
  9
$DIMLTYPE
  6

  9
$DIMLTEX1
  6

  9
$DIMLTEX2
  6

  9
$DIMTXTDIRECTION
 70
0
  9
$LUNITS
 70
2
  9
$LUPREC
 70
4
  9
$SKETCHINC
 40
1.0
  9
$FILLETRAD
 40
10.0
  9
$AUNITS
 70
0
  9
$AUPREC
 70
2
  9
$MENU
  1
.
  9
$ELEVATION
 40
0.0
  9
$PELEVATION
 40
0.0
  9
$THICKNESS
 40
0.0
  9
$LIMCHECK
 70
0
  9
$CHAMFERA
 40
0.0
  9
$CHAMFERB
 40
0.0
  9
$CHAMFERC
 40
0.0
  9
$CHAMFERD
 40
0.0
  9
$SKPOLY
 70
0
  9
$TDCREATE
 40
2461150.6769791665
  9
$TDUCREATE
 40
2458532.153996898
  9
$TDUPDATE
 40
2461150.6769791665
  9
$TDUUPDATE
 40
2458532.1544311
  9
$TDINDWG
 40
0.0
  9
$TDUSRTIMER
 40
0.0
  9
$USRTIMER
 70
1
  9
$ANGBASE
 50
0.0
  9
$ANGDIR
 70
0
  9
$PDMODE
 70
0
  9
$PDSIZE
 40
0.0
  9
$PLINEWID
 40
0.0
  9
$SPLFRAME
 70
0
  9
$SPLINETYPE
 70
6
  9
$SPLINESEGS
 70
8
  9
$HANDSEED
  5
F7
  9
$SURFTAB1
 70
6
  9
$SURFTAB2
 70
6
  9
$SURFTYPE
 70
6
  9
$SURFU
 70
6
  9
$SURFV
 70
6
  9
$UCSBASE
  2

  9
$UCSNAME
  2

  9
$UCSORG
 10
0.0
 20
0.0
 30
0.0
  9
$UCSXDIR
 10
1.0
 20
0.0
 30
0.0
  9
$UCSYDIR
 10
0.0
 20
1.0
 30
0.0
  9
$UCSORTHOREF
  2

  9
$UCSORTHOVIEW
 70
0
  9
$UCSORGTOP
 10
0.0
 20
0.0
 30
0.0
  9
$UCSORGBOTTOM
 10
0.0
 20
0.0
 30
0.0
  9
$UCSORGLEFT
 10
0.0
 20
0.0
 30
0.0
  9
$UCSORGRIGHT
 10
0.0
 20
0.0
 30
0.0
  9
$UCSORGFRONT
 10
0.0
 20
0.0
 30
0.0
  9
$UCSORGBACK
 10
0.0
 20
0.0
 30
0.0
  9
$PUCSBASE
  2

  9
$PUCSNAME
  2

  9
$PUCSORG
 10
0.0
 20
0.0
 30
0.0
  9
$PUCSXDIR
 10
1.0
 20
0.0
 30
0.0
  9
$PUCSYDIR
 10
0.0
 20
1.0
 30
0.0
  9
$PUCSORTHOREF
  2

  9
$PUCSORTHOVIEW
 70
0
  9
$PUCSORGTOP
 10
0.0
 20
0.0
 30
0.0
  9
$PUCSORGBOTTOM
 10
0.0
 20
0.0
 30
0.0
  9
$PUCSORGLEFT
 10
0.0
 20
0.0
 30
0.0
  9
$PUCSORGRIGHT
 10
0.0
 20
0.0
 30
0.0
  9
$PUCSORGFRONT
 10
0.0
 20
0.0
 30
0.0
  9
$PUCSORGBACK
 10
0.0
 20
0.0
 30
0.0
  9
$USERI1
 70
0
  9
$USERI2
 70
0
  9
$USERI3
 70
0
  9
$USERI4
 70
0
  9
$USERI5
 70
0
  9
$USERR1
 40
0.0
  9
$USERR2
 40
0.0
  9
$USERR3
 40
0.0
  9
$USERR4
 40
0.0
  9
$USERR5
 40
0.0
  9
$WORLDVIEW
 70
1
  9
$SHADEDGE
 70
3
  9
$SHADEDIF
 70
70
  9
$TILEMODE
 70
1
  9
$MAXACTVP
 70
64
  9
$PINSBASE
 10
0.0
 20
0.0
 30
0.0
  9
$PLIMCHECK
 70
0
  9
$PEXTMIN
 10
1e+20
 20
1e+20
 30
1e+20
  9
$PEXTMAX
 10
-1e+20
 20
-1e+20
 30
-1e+20
  9
$PLIMMIN
 10
0.0
 20
0.0
  9
$PLIMMAX
 10
420.0
 20
297.0
  9
$UNITMODE
 70
0
  9
$VISRETAIN
 70
1
  9
$PLINEGEN
 70
0
  9
$PSLTSCALE
 70
1
  9
$TREEDEPTH
 70
3020
  9
$CMLSTYLE
  2
Standard
  9
$CMLJUST
 70
0
  9
$CMLSCALE
 40
20.0
  9
$PROXYGRAPHICS
 70
1
  9
$MEASUREMENT
 70
1
  9
$CELWEIGHT
370
-1
  9
$ENDCAPS
280
0
  9
$JOINSTYLE
280
0
  9
$LWDISPLAY
290
0
  9
$INSUNITS
 70
4
  9
$HYPERLINKBASE
  1

  9
$STYLESHEET
  1

  9
$XEDIT
290
1
  9
$CEPSNTYPE
380
0
  9
$PSTYLEMODE
290
1
  9
$FINGERPRINTGUID
  2
{C950F47A-4C53-493B-9C49-15868164BA83}
  9
$VERSIONGUID
  2
{3BAAB21A-CAD0-495F-A7F9-F93D38AB9D5C}
  9
$EXTNAMES
290
1
  9
$PSVPSCALE
 40
0.0
  9
$OLESTARTUP
290
0
  9
$SORTENTS
280
127
  9
$INDEXCTL
280
0
  9
$HIDETEXT
280
1
  9
$XCLIPFRAME
280
1
  9
$HALOGAP
280
0
  9
$OBSCOLOR
 70
257
  9
$OBSLTYPE
280
0
  9
$INTERSECTIONDISPLAY
280
0
  9
$INTERSECTIONCOLOR
 70
257
  9
$DIMASSOC
280
2
  9
$PROJECTNAME
  1

  9
$CAMERADISPLAY
290
0
  9
$LENSLENGTH
 40
50.0
  9
$CAMERAHEIGHT
 40
0.0
  9
$STEPSPERSEC
 40
24.0
  9
$STEPSIZE
 40
100.0
  9
$3DDWFPREC
 40
2.0
  9
$PSOLWIDTH
 40
0.005
  9
$PSOLHEIGHT
 40
0.08
  9
$LOFTANG1
 40
1.570796326795
  9
$LOFTANG2
 40
1.570796326795
  9
$LOFTMAG1
 40
0.0
  9
$LOFTMAG2
 40
0.0
  9
$LOFTPARAM
 70
7
  9
$LOFTNORMALS
280
1
  9
$LATITUDE
 40
37.795
  9
$LONGITUDE
 40
-122.394
  9
$NORTHDIRECTION
 40
0.0
  9
$TIMEZONE
 70
-8000
  9
$LIGHTGLYPHDISPLAY
280
1
  9
$TILEMODELIGHTSYNCH
280
1
  9
$CMATERIAL
347
20
  9
$SOLIDHIST
280
0
  9
$SHOWHIST
280
1
  9
$DWFFRAME
280
2
  9
$DGNFRAME
280
2
  9
$REALWORLDSCALE
290
1
  9
$INTERFERECOLOR
 62
256
  9
$CSHADOW
280
0
  9
$SHADOWPLANELOCATION
 40
0.0
  0
ENDSEC
  0
SECTION
  2
CLASSES
  0
CLASS
  1
ACDBDICTIONARYWDFLT
  2
AcDbDictionaryWithDefault
  3
ObjectDBX Classes
 90
0
 91
0
280
0
281
0
  0
CLASS
  1
SUN
  2
AcDbSun
  3
SCENEOE
 90
1153
 91
0
280
0
281
0
  0
CLASS
  1
VISUALSTYLE
  2
AcDbVisualStyle
  3
ObjectDBX Classes
 90
4095
 91
0
280
0
281
0
  0
CLASS
  1
MATERIAL
  2
AcDbMaterial
  3
ObjectDBX Classes
 90
1153
 91
0
280
0
281
0
  0
CLASS
  1
SCALE
  2
AcDbScale
  3
ObjectDBX Classes
 90
1153
 91
0
280
0
281
0
  0
CLASS
  1
TABLESTYLE
  2
AcDbTableStyle
  3
ObjectDBX Classes
 90
4095
 91
0
280
0
281
0
  0
CLASS
  1
MLEADERSTYLE
  2
AcDbMLeaderStyle
  3
ACDB_MLEADERSTYLE_CLASS
 90
4095
 91
0
280
0
281
0
  0
CLASS
  1
DICTIONARYVAR
  2
AcDbDictionaryVar
  3
ObjectDBX Classes
 90
0
 91
0
280
0
281
0
  0
CLASS
  1
CELLSTYLEMAP
  2
AcDbCellStyleMap
  3
ObjectDBX Classes
 90
1152
 91
0
280
0
281
0
  0
CLASS
  1
MENTALRAYRENDERSETTINGS
  2
AcDbMentalRayRenderSettings
  3
SCENEOE
 90
1024
 91
0
280
0
281
0
  0
CLASS
  1
ACDBDETAILVIEWSTYLE
  2
AcDbDetailViewStyle
  3
ObjectDBX Classes
 90
1025
 91
0
280
0
281
0
  0
CLASS
  1
ACDBSECTIONVIEWSTYLE
  2
AcDbSectionViewStyle
  3
ObjectDBX Classes
 90
1025
 91
0
280
0
281
0
  0
CLASS
  1
RASTERVARIABLES
  2
AcDbRasterVariables
  3
ISM
 90
0
 91
0
280
0
281
0
  0
CLASS
  1
IMAGE
  2
AcDbRasterImage
  3
ISM
 90
2175
 91
0
280
0
281
1
  0
CLASS
  1
IMAGEDEF
  2
AcDbRasterImageDef
  3
ISM
 90
0
 91
0
280
0
281
0
  0
CLASS
  1
IMAGEDEF_REACTOR
  2
AcDbRasterImageDefReactor
  3
ISM
 90
1
 91
0
280
0
281
0
  0
CLASS
  1
LAYOUT
  2
AcDbLayout
  3
ObjectDBX Classes
 90
0
 91
0
280
0
281
0
  0
CLASS
  1
ACDBPLACEHOLDER
  2
AcDbPlaceHolder
  3
ObjectDBX Classes
 90
0
 91
0
280
0
281
0
  0
ENDSEC
  0
SECTION
  2
TABLES
  0
TABLE
  2
VPORT
  5
8
330
0
100
AcDbSymbolTable
 70
1
  0
VPORT
  5
23
330
8
100
AcDbSymbolTableRecord
100
AcDbViewportTableRecord
  2
*Active
 70
0
 10
0.0
 20
0.0
 11
1.0
 21
1.0
 12
0.0
 22
0.0
 13
0.0
 23
0.0
 14
0.5
 24
0.5
 15
0.5
 25
0.5
 16
0.0
 26
0.0
 36
1.0
 17
0.0
 27
0.0
 37
0.0
 40
1000.0
 41
1.34
 42
50.0
 43
0.0
 44
0.0
 50
0.0
 51
0.0
 71
0
 72
1000
 73
1
 74
3
 75
0
 76
0
 77
0
 78
0
281
0
 65
0
146
0.0
  0
ENDTAB
  0
TABLE
  2
LTYPE
  5
2
330
0
100
AcDbSymbolTable
 70
6
  0
LTYPE
  5
24
330
2
100
AcDbSymbolTableRecord
100
AcDbLinetypeTableRecord
  2
ByBlock
 70
0
  3

 72
65
 73
0
 40
0.0
  0
LTYPE
  5
25
330
2
100
AcDbSymbolTableRecord
100
AcDbLinetypeTableRecord
  2
ByLayer
 70
0
  3

 72
65
 73
0
 40
0.0
  0
LTYPE
  5
26
330
2
100
AcDbSymbolTableRecord
100
AcDbLinetypeTableRecord
  2
Continuous
 70
0
  3

 72
65
 73
0
 40
0.0
  0
LTYPE
  5
2F
330
2
100
AcDbSymbolTableRecord
100
AcDbLinetypeTableRecord
  2
CENTER
 70
0
  3
Center __ . __ . __
 72
65
 73
4
 40
1.2
 49
0.8
 74
0
 49
-0.2
 74
0
 49
0.0
 74
0
 49
-0.2
 74
0
  0
LTYPE
  5
30
330
2
100
AcDbSymbolTableRecord
100
AcDbLinetypeTableRecord
  2
HIDDEN
 70
0
  3
Hidden -- -- -- --
 72
65
 73
2
 40
0.6
 49
0.4
 74
0
 49
-0.2
 74
0
  0
LTYPE
  5
31
330
2
100
AcDbSymbolTableRecord
100
AcDbLinetypeTableRecord
  2
DASHDOT
 70
0
  3
Dash dot __.__.__
 72
65
 73
4
 40
0.6
 49
0.4
 74
0
 49
-0.2
 74
0
 49
0.0
 74
0
 49
-0.2
 74
0
  0
ENDTAB
  0
TABLE
  2
LAYER
  5
1
330
0
100
AcDbSymbolTable
 70
17
  0
LAYER
  5
27
330
1
100
AcDbSymbolTableRecord
100
AcDbLayerTableRecord
  2
0
 70
0
 62
7
  6
Continuous
370
-3
390
13
347
21
  0
LAYER
  5
28
330
1
100
AcDbSymbolTableRecord
100
AcDbLayerTableRecord
  2
Defpoints
 70
0
 62
7
  6
Continuous
290
0
370
-3
390
13
347
21
  0
LAYER
  5
32
330
1
100
AcDbSymbolTableRecord
100
AcDbLayerTableRecord
  2
A-WALL-FULL
 70
0
 62
7
  6
Continuous
370
-3
390
13
347
21
  0
LAYER
  5
33
330
1
100
AcDbSymbolTableRecord
100
AcDbLayerTableRecord
  2
A-WALL-PRTN
 70
0
 62
7
  6
Continuous
370
-3
390
13
347
21
  0
LAYER
  5
34
330
1
100
AcDbSymbolTableRecord
100
AcDbLayerTableRecord
  2
A-WALL-PATT
 70
0
 62
254
  6
Continuous
370
-3
390
13
347
21
  0
LAYER
  5
35
330
1
100
AcDbSymbolTableRecord
100
AcDbLayerTableRecord
  2
A-GLAZ
 70
0
 62
5
  6
Continuous
370
-3
390
13
347
21
  0
LAYER
  5
36
330
1
100
AcDbSymbolTableRecord
100
AcDbLayerTableRecord
  2
A-DOOR
 70
0
 62
7
  6
Continuous
370
-3
390
13
347
21
  0
LAYER
  5
37
330
1
100
AcDbSymbolTableRecord
100
AcDbLayerTableRecord
  2
A-ROOF
 70
0
 62
7
  6
Continuous
370
-3
390
13
347
21
  0
LAYER
  5
38
330
1
100
AcDbSymbolTableRecord
100
AcDbLayerTableRecord
  2
A-GRID
 70
0
 62
8
  6
DASHDOT
370
-3
390
13
347
21
  0
LAYER
  5
39
330
1
100
AcDbSymbolTableRecord
100
AcDbLayerTableRecord
  2
A-ANNO-DIMS
 70
0
 62
7
  6
Continuous
370
-3
390
13
347
21
  0
LAYER
  5
3A
330
1
100
AcDbSymbolTableRecord
100
AcDbLayerTableRecord
  2
A-ANNO-TEXT
 70
0
 62
7
  6
Continuous
370
-3
390
13
347
21
  0
LAYER
  5
3B
330
1
100
AcDbSymbolTableRecord
100
AcDbLayerTableRecord
  2
A-FURN
 70
0
 62
9
  6
Continuous
370
-3
390
13
347
21
  0
LAYER
  5
3C
330
1
100
AcDbSymbolTableRecord
100
AcDbLayerTableRecord
  2
A-ELEV-WALL
 70
0
 62
7
  6
Continuous
370
-3
390
13
347
21
  0
LAYER
  5
3D
330
1
100
AcDbSymbolTableRecord
100
AcDbLayerTableRecord
  2
A-ELEV-LEVL
 70
0
 62
7
  6
Continuous
370
-3
390
13
347
21
  0
LAYER
  5
3E
330
1
100
AcDbSymbolTableRecord
100
AcDbLayerTableRecord
  2
A-TTLB
 70
0
 62
7
  6
Continuous
370
-3
390
13
347
21
  0
LAYER
  5
3F
330
1
100
AcDbSymbolTableRecord
100
AcDbLayerTableRecord
  2
A-ANNO-LEVL
 70
0
 62
7
  6
Continuous
370
-3
390
13
347
21
  0
LAYER
  5
40
330
1
100
AcDbSymbolTableRecord
100
AcDbLayerTableRecord
  2
A-ANNO-SECT
 70
0
 62
7
  6
HIDDEN
370
-3
390
13
347
21
  0
ENDTAB
  0
TABLE
  2
STYLE
  5
5
330
0
100
AcDbSymbolTable
 70
1
  0
STYLE
  5
29
330
5
100
AcDbSymbolTableRecord
100
AcDbTextStyleTableRecord
  2
Standard
 70
0
 40
0.0
 41
1.0
 50
0.0
 71
0
 42
2.5
  3
txt
  4

  0
ENDTAB
  0
TABLE
  2
VIEW
  5
7
330
0
100
AcDbSymbolTable
 70
0
  0
ENDTAB
  0
TABLE
  2
UCS
  5
6
330
0
100
AcDbSymbolTable
 70
0
  0
ENDTAB
  0
TABLE
  2
APPID
  5
3
330
0
100
AcDbSymbolTable
 70
3
  0
APPID
  5
2A
330
3
100
AcDbSymbolTableRecord
100
AcDbRegAppTableRecord
  2
ACAD
 70
0
  0
APPID
  5
F4
330
3
100
AcDbSymbolTableRecord
100
AcDbRegAppTableRecord
  2
HATCHBACKGROUNDCOLOR
 70
0
  0
APPID
  5
F5
330
3
100
AcDbSymbolTableRecord
100
AcDbRegAppTableRecord
  2
EZDXF
 70
0
  0
ENDTAB
  0
TABLE
  2
DIMSTYLE
  5
4
330
0
100
AcDbSymbolTable
 70
2
100
AcDbDimStyleTable
  0
DIMSTYLE
105
2B
330
4
100
AcDbSymbolTableRecord
100
AcDbDimStyleTableRecord
  2
Standard
 70
0
 40
1.0
 41
2.5
 42
0.625
 43
3.75
 44
1.25
 45
0.0
 46
0.0
 47
0.0
 48
0.0
 49
2.5
140
2.5
141
2.5
142
0.0
143
0.03937007874
144
1.0
145
0.0
146
1.0
147
0.625
148
0.0
 69
0
 70
0
 71
0
 72
0
 73
0
 74
0
 75
0
 76
0
 77
1
 78
8
 79
3
170
0
171
3
172
1
173
0
174
0
175
0
176
0
177
0
178
0
179
2
271
2
272
2
273
2
274
3
275
0
276
0
277
2
278
44
279
0
280
0
281
0
282
0
283
0
284
8
285
0
286
0
288
0
289
3
290
0
371
-2
372
-2
  0
DIMSTYLE
105
45
330
4
100
AcDbSymbolTableRecord
100
AcDbDimStyleTableRecord
  2
ARCH_JKR
 70
0
 40
100.0
 41
2.5
 42
2.0
 43
3.75
 44
2.0
 45
0.0
 46
0.0
 47
0.0
 48
0.0
 49
2.5
140
2.5
141
2.5
142
0.0
143
0.03937007874
144
1.0
145
0.0
146
1.0
147
1.0
148
0.0
 69
0
 70
0
 71
0
 72
0
 73
0
 74
0
 75
0
 76
0
 77
1
 78
8
 79
3
170
0
171
3
172
1
173
0
174
0
175
0
176
0
177
0
178
0
179
2
271
2
272
2
273
2
274
3
275
0
276
0
277
2
278
44
279
0
280
0
281
0
282
0
283
0
284
8
285
0
286
0
288
0
289
3
290
0
342
41
371
-2
372
-2
  0
ENDTAB
  0
TABLE
  2
BLOCK_RECORD
  5
9
330
0
100
AcDbSymbolTable
 70
7
  0
BLOCK_RECORD
  5
17
330
9
100
AcDbSymbolTableRecord
100
AcDbBlockTableRecord
  2
*Model_Space
340
1A
 70
0
280
1
281
0
  0
BLOCK_RECORD
  5
1B
330
9
100
AcDbSymbolTableRecord
100
AcDbBlockTableRecord
  2
*Paper_Space
340
1E
 70
0
280
1
281
0
  0
BLOCK_RECORD
  5
41
330
9
100
AcDbSymbolTableRecord
100
AcDbBlockTableRecord
  2
_ARCHTICK
340
0
 70
0
280
1
281
0
  0
BLOCK_RECORD
  5
46
330
9
100
AcDbSymbolTableRecord
100
AcDbBlockTableRecord
  2
DOOR_TAG
340
0
 70
0
280
1
281
0
  0
BLOCK_RECORD
  5
4B
330
9
100
AcDbSymbolTableRecord
100
AcDbBlockTableRecord
  2
WINDOW_TAG
340
0
 70
0
280
1
281
0
  0
BLOCK_RECORD
  5
4F
330
9
100
AcDbSymbolTableRecord
100
AcDbBlockTableRecord
  2
SECTION_ARROW
340
0
 70
0
280
1
281
0
  0
BLOCK_RECORD
  5
53
330
9
100
AcDbSymbolTableRecord
100
AcDbBlockTableRecord
  2
ELEVATION_TAG
340
0
 70
0
280
1
281
0
  0
ENDTAB
  0
ENDSEC
  0
SECTION
  2
BLOCKS
  0
BLOCK
  5
18
330
17
100
AcDbEntity
  8
0
100
AcDbBlockBegin
  2
*Model_Space
 70
0
 10
0.0
 20
0.0
 30
0.0
  3
*Model_Space
  1

  0
ENDBLK
  5
19
330
17
100
AcDbEntity
  8
0
100
AcDbBlockEnd
  0
BLOCK
  5
1C
330
1B
100
AcDbEntity
  8
0
100
AcDbBlockBegin
  2
*Paper_Space
 70
0
 10
0.0
 20
0.0
 30
0.0
  3
*Paper_Space
  1

  0
ENDBLK
  5
1D
330
1B
100
AcDbEntity
  8
0
100
AcDbBlockEnd
  0
BLOCK
  5
42
330
41
100
AcDbEntity
  8
0
100
AcDbBlockBegin
  2
_ARCHTICK
 70
0
 10
0.0
 20
0.0
 30
0.0
  3
_ARCHTICK
  1

  0
LWPOLYLINE
  5
44
330
41
100
AcDbEntity
  8
0
  6
BYBLOCK
 62
0
100
AcDbPolyline
 90
2
 70
0
 43
0.15
 10
-0.5
 20
-0.5
 10
0.5
 20
0.5
  0
ENDBLK
  5
43
330
41
100
AcDbEntity
  8
0
100
AcDbBlockEnd
  0
BLOCK
  5
47
330
46
100
AcDbEntity
  8
0
100
AcDbBlockBegin
  2
DOOR_TAG
 70
0
 10
0.0
 20
0.0
 30
0.0
  3
DOOR_TAG
  1

  0
CIRCLE
  5
49
330
46
100
AcDbEntity
  8
0
370
25
100
AcDbCircle
 10
0.0
 20
0.0
 30
0.0
 40
1.0
  0
LINE
  5
4A
330
46
100
AcDbEntity
  8
0
370
25
100
AcDbLine
 10
-1.0
 20
0.0
 30
0.0
 11
1.0
 21
0.0
 31
0.0
  0
ENDBLK
  5
48
330
46
100
AcDbEntity
  8
0
100
AcDbBlockEnd
  0
BLOCK
  5
4C
330
4B
100
AcDbEntity
  8
0
100
AcDbBlockBegin
  2
WINDOW_TAG
 70
0
 10
0.0
 20
0.0
 30
0.0
  3
WINDOW_TAG
  1

  0
LWPOLYLINE
  5
4E
330
4B
100
AcDbEntity
  8
0
370
25
100
AcDbPolyline
 90
6
 70
1
 10
0.8660254037844387
 20
0.49999999999999994
 10
6.123233995736766e-17
 20
1.0
 10
-0.8660254037844387
 20
0.49999999999999994
 10
-0.8660254037844386
 20
-0.5000000000000001
 10
-1.8369701987210297e-16
 20
-1.0
 10
0.8660254037844384
 20
-0.5000000000000004
  0
ENDBLK
  5
4D
330
4B
100
AcDbEntity
  8
0
100
AcDbBlockEnd
  0
BLOCK
  5
50
330
4F
100
AcDbEntity
  8
0
100
AcDbBlockBegin
  2
SECTION_ARROW
 70
0
 10
0.0
 20
0.0
 30
0.0
  3
SECTION_ARROW
  1

  0
LWPOLYLINE
  5
52
330
4F
100
AcDbEntity
  8
0
370
25
100
AcDbPolyline
 90
3
 70
1
 10
-1.0
 20
0.0
 10
0.0
 20
1.414
 10
1.0
 20
0.0
  0
ENDBLK
  5
51
330
4F
100
AcDbEntity
  8
0
100
AcDbBlockEnd
  0
BLOCK
  5
54
330
53
100
AcDbEntity
  8
0
100
AcDbBlockBegin
  2
ELEVATION_TAG
 70
0
 10
0.0
 20
0.0
 30
0.0
  3
ELEVATION_TAG
  1

  0
CIRCLE
  5
56
330
53
100
AcDbEntity
  8
0
370
25
100
AcDbCircle
 10
0.0
 20
0.0
 30
0.0
 40
1.0
  0
LINE
  5
57
330
53
100
AcDbEntity
  8
0
370
25
100
AcDbLine
 10
-1.0
 20
0.0
 30
0.0
 11
1.0
 21
0.0
 31
0.0
  0
ENDBLK
  5
55
330
53
100
AcDbEntity
  8
0
100
AcDbBlockEnd
  0
ENDSEC
  0
SECTION
  2
ENTITIES
  0
LWPOLYLINE
  5
58
330
17
100
AcDbEntity
  8
A-CURT
370
18
100
AcDbPolyline
 90
4
 70
1
 10
7685.347080230713
 20
0.0
 10
7710.349082946777
 20
0.0
 10
7710.349082946777
 20
3235.072374343872
 10
7685.347080230713
 20
3235.072374343872
  0
LWPOLYLINE
  5
59
330
17
100
AcDbEntity
  8
A-ELEV-WALL
370
50
100
AcDbPolyline
 90
4
 70
1
 10
-6410.152912139893
 20
0.0
 10
7734.8480224609375
 20
0.0
 10
7734.8480224609375
 20
2473.703384399414
 10
-6410.152912139893
 20
2473.703384399414
  0
LWPOLYLINE
  5
5A
330
17
100
AcDbEntity
  8
A-ELEV-WALL
370
50
100
AcDbPolyline
 90
4
 70
1
 10
-6410.152912139893
 20
0.0
 10
-6120.150089263916
 20
0.0
 10
-6120.150089263916
 20
3358.224391937256
 10
-6410.152912139893
 20
3358.224391937256
  0
LWPOLYLINE
  5
5B
330
17
100
AcDbEntity
  8
A-ELEV-WALL
370
50
100
AcDbPolyline
 90
4
 70
1
 10
-1667.6520109176636
 20
0.0
 10
-1572.651982307434
 20
0.0
 10
-1572.651982307434
 20
2335.0000381469727
 10
-1667.6520109176636
 20
2335.0000381469727
  0
LINE
  5
5C
330
17
100
AcDbEntity
  8
A-GLAZ
370
18
100
AcDbLine
 10
4299.847602844238
 20
1202.5000154972076
 30
0.0
 11
6159.849166870117
 21
1202.5000154972076
 31
0.0
  0
LINE
  5
5D
330
17
100
AcDbEntity
  8
A-GLAZ
370
18
100
AcDbLine
 10
4299.847602844238
 20
1505.0000548362732
 30
0.0
 11
6159.849166870117
 21
1505.0000548362732
 31
0.0
  0
LINE
  5
5E
330
17
100
AcDbEntity
  8
A-GLAZ
370
18
100
AcDbLine
 10
4299.847602844238
 20
1807.5000941753387
 30
0.0
 11
6159.849166870117
 21
1807.5000941753387
 31
0.0
  0
LWPOLYLINE
  5
5F
330
17
100
AcDbEntity
  8
A-GLAZ
370
25
100
AcDbPolyline
 90
4
 70
1
 10
4299.847602844238
 20
899.9999761581421
 10
6159.849166870117
 20
899.9999761581421
 10
6159.849166870117
 20
2110.0001335144043
 10
4299.847602844238
 20
2110.0001335144043
  0
LINE
  5
60
330
17
100
AcDbEntity
  8
A-GLAZ
370
18
100
AcDbLine
 10
302.34798789024353
 20
1202.5000154972076
 30
0.0
 11
2162.349224090576
 21
1202.5000154972076
 31
0.0
  0
LINE
  5
61
330
17
100
AcDbEntity
  8
A-GLAZ
370
18
100
AcDbLine
 10
302.34798789024353
 20
1505.0000548362732
 30
0.0
 11
2162.349224090576
 21
1505.0000548362732
 31
0.0
  0
LINE
  5
62
330
17
100
AcDbEntity
  8
A-GLAZ
370
18
100
AcDbLine
 10
302.34798789024353
 20
1807.5000941753387
 30
0.0
 11
2162.349224090576
 21
1807.5000941753387
 31
0.0
  0
LWPOLYLINE
  5
63
330
17
100
AcDbEntity
  8
A-GLAZ
370
25
100
AcDbPolyline
 90
4
 70
1
 10
302.34798789024353
 20
899.9999761581421
 10
2162.349224090576
 20
899.9999761581421
 10
2162.349224090576
 20
2110.0001335144043
 10
302.34798789024353
 20
2110.0001335144043
  0
LINE
  5
64
330
17
100
AcDbEntity
  8
A-GLAZ
370
18
100
AcDbLine
 10
-4823.902130126953
 20
1202.5000154972076
 30
0.0
 11
-2963.900566101074
 21
1202.5000154972076
 31
0.0
  0
LINE
  5
65
330
17
100
AcDbEntity
  8
A-GLAZ
370
18
100
AcDbLine
 10
-4823.902130126953
 20
1505.0000548362732
 30
0.0
 11
-2963.900566101074
 21
1505.0000548362732
 31
0.0
  0
LINE
  5
66
330
17
100
AcDbEntity
  8
A-GLAZ
370
18
100
AcDbLine
 10
-4823.902130126953
 20
1807.5000941753387
 30
0.0
 11
-2963.900566101074
 21
1807.5000941753387
 31
0.0
  0
LWPOLYLINE
  5
67
330
17
100
AcDbEntity
  8
A-GLAZ
370
25
100
AcDbPolyline
 90
4
 70
1
 10
-4823.902130126953
 20
899.9999761581421
 10
-2963.900566101074
 20
899.9999761581421
 10
-2963.900566101074
 20
2110.0001335144043
 10
-4823.902130126953
 20
2110.0001335144043
  0
INSERT
  5
68
330
17
100
AcDbEntity
  8
A-ANNO-TEXT
100
AcDbBlockReference
  2
WINDOW_TAG
 10
5229.848384857178
 20
1505.0000548362732
 30
0.0
 41
200.0
 42
200.0
  0
TEXT
  5
6A
330
17
100
AcDbEntity
  8
A-ANNO-TEXT
100
AcDbText
 10
5229.848384857178
 20
1505.0000548362732
 30
0.0
 40
200.0
  1
W1
 72
1
 11
5229.848384857178
 21
1505.0000548362732
 31
0.0
100
AcDbText
 73
2
  0
INSERT
  5
6B
330
17
100
AcDbEntity
  8
A-ANNO-TEXT
100
AcDbBlockReference
  2
WINDOW_TAG
 10
1232.3486059904099
 20
1505.0000548362732
 30
0.0
 41
200.0
 42
200.0
  0
TEXT
  5
6D
330
17
100
AcDbEntity
  8
A-ANNO-TEXT
100
AcDbText
 10
1232.3486059904099
 20
1505.0000548362732
 30
0.0
 40
200.0
  1
W2
 72
1
 11
1232.3486059904099
 21
1505.0000548362732
 31
0.0
100
AcDbText
 73
2
  0
INSERT
  5
6E
330
17
100
AcDbEntity
  8
A-ANNO-TEXT
100
AcDbBlockReference
  2
WINDOW_TAG
 10
-3893.9013481140137
 20
1505.0000548362732
 30
0.0
 41
200.0
 42
200.0
  0
TEXT
  5
70
330
17
100
AcDbEntity
  8
A-ANNO-TEXT
100
AcDbText
 10
-3893.9013481140137
 20
1505.0000548362732
 30
0.0
 40
200.0
  1
W4
 72
1
 11
-3893.9013481140137
 21
1505.0000548362732
 31
0.0
100
AcDbText
 73
2
  0
LWPOLYLINE
  5
71
330
17
100
AcDbEntity
  8
A-ROOF
370
50
100
AcDbPolyline
 90
25
 70
0
 10
-6286.475682258606
 20
3471.5747833251953
 10
-4060.3284597396846
 20
3474.879026412964
 10
-3812.978768348694
 20
2483.8433265686035
 10
-3318.2793855667114
 20
2254.302978515625
 10
-3070.92969417572
 20
3386.586904525757
 10
-2823.5800027847285
 20
3456.5320014953613
 10
-2576.230311393738
 20
2471.527099609375
 10
-2328.8806200027466
 20
2688.474178314209
 10
-1834.181237220764
 20
3455.699682235718
 10
-1586.8315458297725
 20
1741.494059562683
 10
-1092.1321630477908
 20
2483.8433265686035
 10
-844.7824716567993
 20
3475.2421379089355
 10
-597.4327802658079
 20
2170.8014011383057
 10
639.3156766891482
 20
1741.494059562683
 10
886.6653680801395
 20
2742.070436477661
 10
1134.0150594711308
 20
3456.5320014953613
 10
2865.462899208069
 20
3469.428777694702
 10
3112.812590599061
 20
2483.8433265686035
 10
3854.8616647720346
 20
3348.5054969787598
 10
4349.561047554017
 20
2688.474178314209
 10
4844.2604303359985
 20
3456.5320014953613
 10
5091.610121726991
 20
3386.586904525757
 10
5586.309504508973
 20
3475.067377090454
 10
5833.659195899963
 20
3455.699682235718
 10
8307.156109809875
 20
3471.5747833251953
  0
LWPOLYLINE
  5
72
330
17
100
AcDbEntity
  8
A-ROOF
370
35
100
AcDbPolyline
 90
25
 70
0
 10
-6286.475682258606
 20
3330.911159515381
 10
-4060.3284597396846
 20
3334.2154026031494
 10
-3812.978768348694
 20
2343.179702758789
 10
-3318.2793855667114
 20
2113.6393547058105
 10
-3070.92969417572
 20
3245.9232807159424
 10
-2823.5800027847285
 20
3315.868377685547
 10
-2576.230311393738
 20
2330.8634757995605
 10
-2328.8806200027466
 20
2547.8105545043945
 10
-1834.181237220764
 20
3315.0360584259033
 10
-1586.8315458297725
 20
1600.8304357528687
 10
-1092.1321630477908
 20
2343.179702758789
 10
-844.7824716567993
 20
3334.578514099121
 10
-597.4327802658079
 20
2030.1377773284912
 10
639.3156766891482
 20
1600.8304357528687
 10
886.6653680801395
 20
2601.4068126678467
 10
1134.0150594711308
 20
3315.868377685547
 10
2865.462899208069
 20
3328.7651538848877
 10
3112.812590599061
 20
2343.179702758789
 10
3854.8616647720346
 20
3207.8418731689453
 10
4349.561047554017
 20
2547.8105545043945
 10
4844.2604303359985
 20
3315.868377685547
 10
5091.610121726991
 20
3245.9232807159424
 10
5586.309504508973
 20
3334.4037532806396
 10
5833.659195899963
 20
3315.0360584259033
 10
8307.156109809875
 20
3330.911159515381
  0
LINE
  5
73
330
17
100
AcDbEntity
  8
A-ROOF
370
35
100
AcDbLine
 10
-6356.475682258606
 20
1741.494059562683
 30
0.0
 11
8377.156109809875
 21
1741.494059562683
 31
0.0
  0
LINE
  5
74
330
17
100
AcDbEntity
  8
A-ELEV-LEVL
370
70
100
AcDbLine
 10
-6910.152912139893
 20
-150.0
 30
0.0
 11
8234.848022460938
 21
-150.0
 31
0.0
  0
LINE
  5
75
330
17
100
AcDbEntity
  8
A-ELEV-LEVL
370
35
100
AcDbLine
 10
-6710.152912139893
 20
0.0
 30
0.0
 11
8034.848022460938
 21
0.0
 31
0.0
  0
LINE
  5
76
330
17
100
AcDbEntity
  8
A-ANNO-LEVL
  6
HIDDEN
370
18
100
AcDbLine
 10
-6910.152912139893
 20
-150.0
 30
0.0
 11
8234.848022460938
 21
-150.0
 31
0.0
  0
LINE
  5
77
330
17
100
AcDbEntity
  8
A-ANNO-LEVL
370
18
100
AcDbLine
 10
8128.782005282956
 20
-256.06601717798213
 30
0.0
 11
8340.91403963892
 21
-43.93398282201788
 31
0.0
  0
LWPOLYLINE
  5
78
330
17
100
AcDbEntity
  8
A-ANNO-LEVL
370
18
100
AcDbPolyline
 90
3
 70
1
 10
-7860.152912139893
 20
-300.0
 10
-7560.152912139893
 20
-300.0
 10
-7710.152912139893
 20
0.0
  0
TEXT
  5
79
330
17
100
AcDbEntity
  8
A-ANNO-LEVL
100
AcDbText
 10
-8210.152912139893
 20
-150.0
 30
0.0
 40
250.0
  1
GRD. LEVEL  -0.150
 72
2
 11
-8210.152912139893
 21
-150.0
 31
0.0
100
AcDbText
 73
2
  0
LINE
  5
7A
330
17
100
AcDbEntity
  8
A-ANNO-LEVL
  6
HIDDEN
370
18
100
AcDbLine
 10
-6910.152912139893
 20
0.0
 30
0.0
 11
8234.848022460938
 21
0.0
 31
0.0
  0
LINE
  5
7B
330
17
100
AcDbEntity
  8
A-ANNO-LEVL
370
18
100
AcDbLine
 10
8128.782005282956
 20
-106.06601717798212
 30
0.0
 11
8340.91403963892
 21
106.06601717798212
 31
0.0
  0
LINE
  5
7C
330
17
100
AcDbEntity
  8
A-ANNO-LEVL
370
18
100
AcDbLine
 10
-9010.152912139893
 20
0.0
 30
0.0
 11
-9010.152912139893
 21
600.0
 31
0.0
  0
LWPOLYLINE
  5
7D
330
17
100
AcDbEntity
  8
A-ANNO-LEVL
370
18
100
AcDbPolyline
 90
3
 70
1
 10
-7860.152912139893
 20
750.0
 10
-7560.152912139893
 20
750.0
 10
-7710.152912139893
 20
450.0
  0
TEXT
  5
7E
330
17
100
AcDbEntity
  8
A-ANNO-LEVL
100
AcDbText
 10
-8210.152912139893
 20
600.0
 30
0.0
 40
250.0
  1
GRD. FLOOR LEVEL  +0.000
 72
2
 11
-8210.152912139893
 21
600.0
 31
0.0
100
AcDbText
 73
2
  0
LINE
  5
7F
330
17
100
AcDbEntity
  8
A-ANNO-LEVL
  6
HIDDEN
370
18
100
AcDbLine
 10
-6910.152912139893
 20
900.0
 30
0.0
 11
8234.848022460938
 21
900.0
 31
0.0
  0
LINE
  5
80
330
17
100
AcDbEntity
  8
A-ANNO-LEVL
370
18
100
AcDbLine
 10
8128.782005282956
 20
793.9339828220179
 30
0.0
 11
8340.91403963892
 21
1006.0660171779821
 31
0.0
  0
LINE
  5
81
330
17
100
AcDbEntity
  8
A-ANNO-LEVL
370
18
100
AcDbLine
 10
-9010.152912139893
 20
900.0
 30
0.0
 11
-9010.152912139893
 21
1350.0
 31
0.0
  0
LWPOLYLINE
  5
82
330
17
100
AcDbEntity
  8
A-ANNO-LEVL
370
18
100
AcDbPolyline
 90
3
 70
1
 10
-7860.152912139893
 20
1500.0
 10
-7560.152912139893
 20
1500.0
 10
-7710.152912139893
 20
1200.0
  0
TEXT
  5
83
330
17
100
AcDbEntity
  8
A-ANNO-LEVL
100
AcDbText
 10
-8210.152912139893
 20
1350.0
 30
0.0
 40
250.0
  1
SILL LEVEL  +0.900
 72
2
 11
-8210.152912139893
 21
1350.0
 31
0.0
100
AcDbText
 73
2
  0
LINE
  5
84
330
17
100
AcDbEntity
  8
A-ANNO-LEVL
  6
HIDDEN
370
18
100
AcDbLine
 10
-6910.152912139893
 20
1700.0
 30
0.0
 11
8234.848022460938
 21
1700.0
 31
0.0
  0
LINE
  5
85
330
17
100
AcDbEntity
  8
A-ANNO-LEVL
370
18
100
AcDbLine
 10
8128.782005282956
 20
1593.933982822018
 30
0.0
 11
8340.91403963892
 21
1806.066017177982
 31
0.0
  0
LINE
  5
86
330
17
100
AcDbEntity
  8
A-ANNO-LEVL
370
18
100
AcDbLine
 10
-9010.152912139893
 20
1700.0
 30
0.0
 11
-9010.152912139893
 21
2100.0
 31
0.0
  0
LWPOLYLINE
  5
87
330
17
100
AcDbEntity
  8
A-ANNO-LEVL
370
18
100
AcDbPolyline
 90
3
 70
1
 10
-7860.152912139893
 20
2250.0
 10
-7560.152912139893
 20
2250.0
 10
-7710.152912139893
 20
1950.0
  0
TEXT
  5
88
330
17
100
AcDbEntity
  8
A-ANNO-LEVL
100
AcDbText
 10
-8210.152912139893
 20
2100.0
 30
0.0
 40
250.0
  1
EAVE LEVEL  +1.700
 72
2
 11
-8210.152912139893
 21
2100.0
 31
0.0
100
AcDbText
 73
2
  0
LINE
  5
89
330
17
100
AcDbEntity
  8
A-ANNO-LEVL
  6
HIDDEN
370
18
100
AcDbLine
 10
-6910.152912139893
 20
2100.0
 30
0.0
 11
8234.848022460938
 21
2100.0
 31
0.0
  0
LINE
  5
8A
330
17
100
AcDbEntity
  8
A-ANNO-LEVL
370
18
100
AcDbLine
 10
8128.782005282956
 20
1993.933982822018
 30
0.0
 11
8340.91403963892
 21
2206.0660171779823
 31
0.0
  0
LINE
  5
8B
330
17
100
AcDbEntity
  8
A-ANNO-LEVL
370
18
100
AcDbLine
 10
-9010.152912139893
 20
2100.0
 30
0.0
 11
-9010.152912139893
 21
2850.0
 31
0.0
  0
LWPOLYLINE
  5
8C
330
17
100
AcDbEntity
  8
A-ANNO-LEVL
370
18
100
AcDbPolyline
 90
3
 70
1
 10
-7860.152912139893
 20
3000.0
 10
-7560.152912139893
 20
3000.0
 10
-7710.152912139893
 20
2700.0
  0
TEXT
  5
8D
330
17
100
AcDbEntity
  8
A-ANNO-LEVL
100
AcDbText
 10
-8210.152912139893
 20
2850.0
 30
0.0
 40
250.0
  1
HEAD LEVEL  +2.100
 72
2
 11
-8210.152912139893
 21
2850.0
 31
0.0
100
AcDbText
 73
2
  0
LINE
  5
8E
330
17
100
AcDbEntity
  8
A-ANNO-LEVL
  6
HIDDEN
370
18
100
AcDbLine
 10
-6910.152912139893
 20
2300.0
 30
0.0
 11
8234.848022460938
 21
2300.0
 31
0.0
  0
LINE
  5
8F
330
17
100
AcDbEntity
  8
A-ANNO-LEVL
370
18
100
AcDbLine
 10
8128.782005282956
 20
2193.9339828220177
 30
0.0
 11
8340.91403963892
 21
2406.0660171779823
 31
0.0
  0
LINE
  5
90
330
17
100
AcDbEntity
  8
A-ANNO-LEVL
370
18
100
AcDbLine
 10
-9010.152912139893
 20
2300.0
 30
0.0
 11
-9010.152912139893
 21
3600.0
 31
0.0
  0
LWPOLYLINE
  5
91
330
17
100
AcDbEntity
  8
A-ANNO-LEVL
370
18
100
AcDbPolyline
 90
3
 70
1
 10
-7860.152912139893
 20
3750.0
 10
-7560.152912139893
 20
3750.0
 10
-7710.152912139893
 20
3450.0
  0
TEXT
  5
92
330
17
100
AcDbEntity
  8
A-ANNO-LEVL
100
AcDbText
 10
-8210.152912139893
 20
3600.0
 30
0.0
 40
250.0
  1
BEAM/CEILING LEVEL  +2.300
 72
2
 11
-8210.152912139893
 21
3600.0
 31
0.0
100
AcDbText
 73
2
  0
LINE
  5
93
330
17
100
AcDbEntity
  8
A-ANNO-LEVL
  6
HIDDEN
370
18
100
AcDbLine
 10
-6910.152912139893
 20
3500.0
 30
0.0
 11
8234.848022460938
 21
3500.0
 31
0.0
  0
LINE
  5
94
330
17
100
AcDbEntity
  8
A-ANNO-LEVL
370
18
100
AcDbLine
 10
8128.782005282956
 20
3393.9339828220177
 30
0.0
 11
8340.91403963892
 21
3606.0660171779823
 31
0.0
  0
LINE
  5
95
330
17
100
AcDbEntity
  8
A-ANNO-LEVL
370
18
100
AcDbLine
 10
-9010.152912139893
 20
3500.0
 30
0.0
 11
-9010.152912139893
 21
4350.0
 31
0.0
  0
LWPOLYLINE
  5
96
330
17
100
AcDbEntity
  8
A-ANNO-LEVL
370
18
100
AcDbPolyline
 90
3
 70
1
 10
-7860.152912139893
 20
4500.0
 10
-7560.152912139893
 20
4500.0
 10
-7710.152912139893
 20
4200.0
  0
TEXT
  5
97
330
17
100
AcDbEntity
  8
A-ANNO-LEVL
100
AcDbText
 10
-8210.152912139893
 20
4350.0
 30
0.0
 40
250.0
  1
ROOF LEVEL  +3.500
 72
2
 11
-8210.152912139893
 21
4350.0
 31
0.0
100
AcDbText
 73
2
  0
LINE
  5
98
330
17
100
AcDbEntity
  8
A-GRID
370
18
100
AcDbLine
 10
-6365.1519775390625
 20
-1350.0
 30
0.0
 11
-6365.1519775390625
 21
8275.243091583252
 31
0.0
  0
HATCH
  5
99
330
17
100
AcDbEntity
  8
A-GRID
 62
7
100
AcDbHatch
 10
0.0
 20
0.0
 30
0.0
210
0.0
220
0.0
230
1.0
  2
SOLID
 70
1
 71
0
 91
1
 92
3
 72
0
 73
1
 93
36
 10
-5965.1519775390625
 20
7875.243091583252
 10
-5971.228876334179
 20
7944.702362650024
 10
-5989.274929224699
 20
8012.05114891352
 10
-6018.741816025287
 20
8075.243091583252
 10
-6058.734200291471
 20
8132.358135457867
 10
-6108.036933664447
 20
8181.660868830843
 10
-6165.1519775390625
 20
8221.653253097027
 10
-6228.343920208795
 20
8251.120139897615
 10
-6295.69270647229
 20
8269.166192788136
 10
-6365.1519775390625
 20
8275.243091583252
 10
-6434.611248605835
 20
8269.166192788136
 10
-6501.96003486933
 20
8251.120139897615
 10
-6565.1519775390625
 20
8221.653253097027
 10
-6622.267021413678
 20
8181.660868830843
 10
-6671.569754786654
 20
8132.358135457867
 10
-6711.562139052838
 20
8075.243091583252
 10
-6741.029025853426
 20
8012.05114891352
 10
-6759.075078743946
 20
7944.702362650024
 10
-6765.1519775390625
 20
7875.243091583252
 10
-6759.075078743946
 20
7805.78382051648
 10
-6741.029025853426
 20
7738.435034252984
 10
-6711.562139052838
 20
7675.243091583252
 10
-6671.569754786654
 20
7618.128047708637
 10
-6622.267021413678
 20
7568.825314335661
 10
-6565.1519775390625
 20
7528.832930069477
 10
-6501.96003486933
 20
7499.3660432688885
 10
-6434.611248605835
 20
7481.319990378369
 10
-6365.1519775390625
 20
7475.243091583252
 10
-6295.69270647229
 20
7481.319990378369
 10
-6228.343920208795
 20
7499.3660432688885
 10
-6165.1519775390625
 20
7528.832930069477
 10
-6108.036933664447
 20
7568.825314335661
 10
-6058.734200291471
 20
7618.128047708637
 10
-6018.741816025287
 20
7675.243091583252
 10
-5989.274929224699
 20
7738.435034252984
 10
-5971.228876334179
 20
7805.78382051648
 97
0
 75
1
 76
1
 98
0
  0
CIRCLE
  5
9A
330
17
100
AcDbEntity
  8
A-GRID
370
25
100
AcDbCircle
 10
-6365.1519775390625
 20
7875.243091583252
 30
0.0
 40
400.0
  0
TEXT
  5
9B
330
17
100
AcDbEntity
  8
A-ANNO-TEXT
100
AcDbText
 10
-6365.1519775390625
 20
7875.243091583252
 30
0.0
 40
350.0
  1
C
 72
1
 11
-6365.1519775390625
 21
7875.243091583252
 31
0.0
100
AcDbText
 73
2
  0
HATCH
  5
9C
330
17
100
AcDbEntity
  8
A-GRID
 62
7
100
AcDbHatch
 10
0.0
 20
0.0
 30
0.0
210
0.0
220
0.0
230
1.0
  2
SOLID
 70
1
 71
0
 91
1
 92
3
 72
0
 73
1
 93
36
 10
-5965.1519775390625
 20
-950.0
 10
-5971.228876334179
 20
-880.5407289332279
 10
-5989.274929224699
 20
-813.1919426697325
 10
-6018.741816025287
 20
-750.0
 10
-6058.734200291471
 20
-692.8849561253843
 10
-6108.036933664447
 20
-643.5822227524088
 10
-6165.1519775390625
 20
-603.5898384862246
 10
-6228.343920208795
 20
-574.1229516856367
 10
-6295.69270647229
 20
-556.0768987951168
 10
-6365.1519775390625
 20
-550.0
 10
-6434.611248605835
 20
-556.0768987951168
 10
-6501.96003486933
 20
-574.1229516856366
 10
-6565.1519775390625
 20
-603.5898384862245
 10
-6622.267021413678
 20
-643.5822227524088
 10
-6671.569754786654
 20
-692.8849561253842
 10
-6711.562139052838
 20
-749.9999999999999
 10
-6741.029025853426
 20
-813.1919426697325
 10
-6759.075078743946
 20
-880.5407289332279
 10
-6765.1519775390625
 20
-950.0
 10
-6759.075078743946
 20
-1019.459271066772
 10
-6741.029025853426
 20
-1086.8080573302675
 10
-6711.562139052838
 20
-1150.0
 10
-6671.569754786654
 20
-1207.1150438746156
 10
-6622.267021413678
 20
-1256.4177772475912
 10
-6565.1519775390625
 20
-1296.4101615137754
 10
-6501.96003486933
 20
-1325.8770483143635
 10
-6434.611248605835
 20
-1343.923101204883
 10
-6365.1519775390625
 20
-1350.0
 10
-6295.69270647229
 20
-1343.9231012048833
 10
-6228.343920208795
 20
-1325.8770483143633
 10
-6165.1519775390625
 20
-1296.4101615137756
 10
-6108.036933664447
 20
-1256.4177772475912
 10
-6058.734200291471
 20
-1207.1150438746158
 10
-6018.741816025287
 20
-1149.9999999999998
 10
-5989.274929224699
 20
-1086.8080573302675
 10
-5971.228876334179
 20
-1019.4592710667722
 97
0
 75
1
 76
1
 98
0
  0
CIRCLE
  5
9D
330
17
100
AcDbEntity
  8
A-GRID
370
25
100
AcDbCircle
 10
-6365.1519775390625
 20
-950.0
 30
0.0
 40
400.0
  0
TEXT
  5
9E
330
17
100
AcDbEntity
  8
A-ANNO-TEXT
100
AcDbText
 10
-6365.1519775390625
 20
-950.0
 30
0.0
 40
350.0
  1
C
 72
1
 11
-6365.1519775390625
 21
-950.0
 31
0.0
100
AcDbText
 73
2
  0
LINE
  5
9F
330
17
100
AcDbEntity
  8
A-GRID
370
18
100
AcDbLine
 10
2834.848022460937
 20
-1350.0
 30
0.0
 11
2834.848022460937
 21
8275.243091583252
 31
0.0
  0
HATCH
  5
A0
330
17
100
AcDbEntity
  8
A-GRID
 62
7
100
AcDbHatch
 10
0.0
 20
0.0
 30
0.0
210
0.0
220
0.0
230
1.0
  2
SOLID
 70
1
 71
0
 91
1
 92
3
 72
0
 73
1
 93
36
 10
3234.848022460937
 20
7875.243091583252
 10
3228.77112366582
 20
7944.702362650024
 10
3210.7250707753005
 20
8012.05114891352
 10
3181.2581839747127
 20
8075.243091583252
 10
3141.2657997085284
 20
8132.358135457867
 10
3091.963066335553
 20
8181.660868830843
 10
3034.848022460937
 20
8221.653253097027
 10
2971.656079791205
 20
8251.120139897615
 10
2904.307293527709
 20
8269.166192788136
 10
2834.848022460937
 20
8275.243091583252
 10
2765.388751394165
 20
8269.166192788136
 10
2698.0399651306698
 20
8251.120139897615
 10
2634.848022460937
 20
8221.653253097027
 10
2577.732978586321
 20
8181.660868830843
 10
2528.430245213346
 20
8132.358135457867
 10
2488.4378609471614
 20
8075.243091583252
 10
2458.9709741465736
 20
8012.05114891352
 10
2440.924921256054
 20
7944.702362650024
 10
2434.848022460937
 20
7875.243091583252
 10
2440.924921256054
 20
7805.78382051648
 10
2458.9709741465736
 20
7738.435034252984
 10
2488.4378609471614
 20
7675.243091583252
 10
2528.4302452133456
 20
7618.128047708637
 10
2577.732978586321
 20
7568.825314335661
 10
2634.848022460937
 20
7528.832930069477
 10
2698.0399651306698
 20
7499.3660432688885
 10
2765.388751394165
 20
7481.319990378369
 10
2834.848022460937
 20
7475.243091583252
 10
2904.307293527709
 20
7481.319990378369
 10
2971.656079791205
 20
7499.3660432688885
 10
3034.8480224609366
 20
7528.832930069477
 10
3091.963066335553
 20
7568.825314335661
 10
3141.265799708528
 20
7618.128047708637
 10
3181.2581839747127
 20
7675.243091583252
 10
3210.7250707753005
 20
7738.435034252984
 10
3228.77112366582
 20
7805.78382051648
 97
0
 75
1
 76
1
 98
0
  0
CIRCLE
  5
A1
330
17
100
AcDbEntity
  8
A-GRID
370
25
100
AcDbCircle
 10
2834.848022460937
 20
7875.243091583252
 30
0.0
 40
400.0
  0
TEXT
  5
A2
330
17
100
AcDbEntity
  8
A-ANNO-TEXT
100
AcDbText
 10
2834.848022460937
 20
7875.243091583252
 30
0.0
 40
350.0
  1
B
 72
1
 11
2834.848022460937
 21
7875.243091583252
 31
0.0
100
AcDbText
 73
2
  0
HATCH
  5
A3
330
17
100
AcDbEntity
  8
A-GRID
 62
7
100
AcDbHatch
 10
0.0
 20
0.0
 30
0.0
210
0.0
220
0.0
230
1.0
  2
SOLID
 70
1
 71
0
 91
1
 92
3
 72
0
 73
1
 93
36
 10
3234.848022460937
 20
-950.0
 10
3228.77112366582
 20
-880.5407289332279
 10
3210.7250707753005
 20
-813.1919426697325
 10
3181.2581839747127
 20
-750.0
 10
3141.2657997085284
 20
-692.8849561253843
 10
3091.963066335553
 20
-643.5822227524088
 10
3034.848022460937
 20
-603.5898384862246
 10
2971.656079791205
 20
-574.1229516856367
 10
2904.307293527709
 20
-556.0768987951168
 10
2834.848022460937
 20
-550.0
 10
2765.388751394165
 20
-556.0768987951168
 10
2698.0399651306698
 20
-574.1229516856366
 10
2634.848022460937
 20
-603.5898384862245
 10
2577.732978586321
 20
-643.5822227524088
 10
2528.430245213346
 20
-692.8849561253842
 10
2488.4378609471614
 20
-749.9999999999999
 10
2458.9709741465736
 20
-813.1919426697325
 10
2440.924921256054
 20
-880.5407289332279
 10
2434.848022460937
 20
-950.0
 10
2440.924921256054
 20
-1019.459271066772
 10
2458.9709741465736
 20
-1086.8080573302675
 10
2488.4378609471614
 20
-1150.0
 10
2528.4302452133456
 20
-1207.1150438746156
 10
2577.732978586321
 20
-1256.4177772475912
 10
2634.848022460937
 20
-1296.4101615137754
 10
2698.0399651306698
 20
-1325.8770483143635
 10
2765.388751394165
 20
-1343.923101204883
 10
2834.848022460937
 20
-1350.0
 10
2904.307293527709
 20
-1343.9231012048833
 10
2971.656079791205
 20
-1325.8770483143633
 10
3034.8480224609366
 20
-1296.4101615137756
 10
3091.963066335553
 20
-1256.4177772475912
 10
3141.265799708528
 20
-1207.1150438746158
 10
3181.2581839747127
 20
-1149.9999999999998
 10
3210.7250707753005
 20
-1086.8080573302675
 10
3228.77112366582
 20
-1019.4592710667722
 97
0
 75
1
 76
1
 98
0
  0
CIRCLE
  5
A4
330
17
100
AcDbEntity
  8
A-GRID
370
25
100
AcDbCircle
 10
2834.848022460937
 20
-950.0
 30
0.0
 40
400.0
  0
TEXT
  5
A5
330
17
100
AcDbEntity
  8
A-ANNO-TEXT
100
AcDbText
 10
2834.848022460937
 20
-950.0
 30
0.0
 40
350.0
  1
B
 72
1
 11
2834.848022460937
 21
-950.0
 31
0.0
100
AcDbText
 73
2
  0
LINE
  5
A6
330
17
100
AcDbEntity
  8
A-GRID
370
18
100
AcDbLine
 10
7734.8480224609375
 20
-1350.0
 30
0.0
 11
7734.8480224609375
 21
8275.243091583252
 31
0.0
  0
HATCH
  5
A7
330
17
100
AcDbEntity
  8
A-GRID
 62
7
100
AcDbHatch
 10
0.0
 20
0.0
 30
0.0
210
0.0
220
0.0
230
1.0
  2
SOLID
 70
1
 71
0
 91
1
 92
3
 72
0
 73
1
 93
36
 10
8134.8480224609375
 20
7875.243091583252
 10
8128.771123665821
 20
7944.702362650024
 10
8110.725070775301
 20
8012.05114891352
 10
8081.258183974713
 20
8075.243091583252
 10
8041.265799708529
 20
8132.358135457867
 10
7991.963066335553
 20
8181.660868830843
 10
7934.8480224609375
 20
8221.653253097027
 10
7871.656079791205
 20
8251.120139897615
 10
7804.30729352771
 20
8269.166192788136
 10
7734.8480224609375
 20
8275.243091583252
 10
7665.388751394165
 20
8269.166192788136
 10
7598.03996513067
 20
8251.120139897615
 10
7534.8480224609375
 20
8221.653253097027
 10
7477.732978586322
 20
8181.660868830843
 10
7428.430245213346
 20
8132.358135457867
 10
7388.437860947162
 20
8075.243091583252
 10
7358.970974146574
 20
8012.05114891352
 10
7340.924921256054
 20
7944.702362650024
 10
7334.8480224609375
 20
7875.243091583252
 10
7340.924921256054
 20
7805.78382051648
 10
7358.970974146574
 20
7738.435034252984
 10
7388.437860947162
 20
7675.243091583252
 10
7428.430245213346
 20
7618.128047708637
 10
7477.732978586322
 20
7568.825314335661
 10
7534.8480224609375
 20
7528.832930069477
 10
7598.03996513067
 20
7499.3660432688885
 10
7665.388751394165
 20
7481.319990378369
 10
7734.8480224609375
 20
7475.243091583252
 10
7804.30729352771
 20
7481.319990378369
 10
7871.656079791205
 20
7499.3660432688885
 10
7934.8480224609375
 20
7528.832930069477
 10
7991.963066335553
 20
7568.825314335661
 10
8041.265799708529
 20
7618.128047708637
 10
8081.258183974713
 20
7675.243091583252
 10
8110.725070775301
 20
7738.435034252984
 10
8128.771123665821
 20
7805.78382051648
 97
0
 75
1
 76
1
 98
0
  0
CIRCLE
  5
A8
330
17
100
AcDbEntity
  8
A-GRID
370
25
100
AcDbCircle
 10
7734.8480224609375
 20
7875.243091583252
 30
0.0
 40
400.0
  0
TEXT
  5
A9
330
17
100
AcDbEntity
  8
A-ANNO-TEXT
100
AcDbText
 10
7734.8480224609375
 20
7875.243091583252
 30
0.0
 40
350.0
  1
A
 72
1
 11
7734.8480224609375
 21
7875.243091583252
 31
0.0
100
AcDbText
 73
2
  0
HATCH
  5
AA
330
17
100
AcDbEntity
  8
A-GRID
 62
7
100
AcDbHatch
 10
0.0
 20
0.0
 30
0.0
210
0.0
220
0.0
230
1.0
  2
SOLID
 70
1
 71
0
 91
1
 92
3
 72
0
 73
1
 93
36
 10
8134.8480224609375
 20
-950.0
 10
8128.771123665821
 20
-880.5407289332279
 10
8110.725070775301
 20
-813.1919426697325
 10
8081.258183974713
 20
-750.0
 10
8041.265799708529
 20
-692.8849561253843
 10
7991.963066335553
 20
-643.5822227524088
 10
7934.8480224609375
 20
-603.5898384862246
 10
7871.656079791205
 20
-574.1229516856367
 10
7804.30729352771
 20
-556.0768987951168
 10
7734.8480224609375
 20
-550.0
 10
7665.388751394165
 20
-556.0768987951168
 10
7598.03996513067
 20
-574.1229516856366
 10
7534.8480224609375
 20
-603.5898384862245
 10
7477.732978586322
 20
-643.5822227524088
 10
7428.430245213346
 20
-692.8849561253842
 10
7388.437860947162
 20
-749.9999999999999
 10
7358.970974146574
 20
-813.1919426697325
 10
7340.924921256054
 20
-880.5407289332279
 10
7334.8480224609375
 20
-950.0
 10
7340.924921256054
 20
-1019.459271066772
 10
7358.970974146574
 20
-1086.8080573302675
 10
7388.437860947162
 20
-1150.0
 10
7428.430245213346
 20
-1207.1150438746156
 10
7477.732978586322
 20
-1256.4177772475912
 10
7534.8480224609375
 20
-1296.4101615137754
 10
7598.03996513067
 20
-1325.8770483143635
 10
7665.388751394165
 20
-1343.923101204883
 10
7734.8480224609375
 20
-1350.0
 10
7804.30729352771
 20
-1343.9231012048833
 10
7871.656079791205
 20
-1325.8770483143633
 10
7934.8480224609375
 20
-1296.4101615137756
 10
7991.963066335553
 20
-1256.4177772475912
 10
8041.265799708529
 20
-1207.1150438746158
 10
8081.258183974713
 20
-1149.9999999999998
 10
8110.725070775301
 20
-1086.8080573302675
 10
8128.771123665821
 20
-1019.4592710667722
 97
0
 75
1
 76
1
 98
0
  0
CIRCLE
  5
AB
330
17
100
AcDbEntity
  8
A-GRID
370
25
100
AcDbCircle
 10
7734.8480224609375
 20
-950.0
 30
0.0
 40
400.0
  0
TEXT
  5
AC
330
17
100
AcDbEntity
  8
A-ANNO-TEXT
100
AcDbText
 10
7734.8480224609375
 20
-950.0
 30
0.0
 40
350.0
  1
A
 72
1
 11
7734.8480224609375
 21
-950.0
 31
0.0
100
AcDbText
 73
2
  0
LINE
  5
AD
330
17
100
AcDbEntity
  8
A-ANNO-DIMS
370
18
100
AcDbLine
 10
-6365.1519775390625
 20
6475.243091583252
 30
0.0
 11
2834.848022460937
 21
6475.243091583252
 31
0.0
  0
LINE
  5
AE
330
17
100
AcDbEntity
  8
A-ANNO-DIMS
370
18
100
AcDbLine
 10
-6365.1519775390625
 20
5675.243091583252
 30
0.0
 11
-6365.1519775390625
 21
6675.243091583252
 31
0.0
  0
LINE
  5
AF
330
17
100
AcDbEntity
  8
A-ANNO-DIMS
370
18
100
AcDbLine
 10
-6471.217994717044
 20
6369.17707440527
 30
0.0
 11
-6259.085960361081
 21
6581.309108761234
 31
0.0
  0
LINE
  5
B0
330
17
100
AcDbEntity
  8
A-ANNO-DIMS
370
18
100
AcDbLine
 10
2834.848022460937
 20
5675.243091583252
 30
0.0
 11
2834.848022460937
 21
6675.243091583252
 31
0.0
  0
LINE
  5
B1
330
17
100
AcDbEntity
  8
A-ANNO-DIMS
370
18
100
AcDbLine
 10
2728.7820052829547
 20
6369.17707440527
 30
0.0
 11
2940.9140396389193
 21
6581.309108761234
 31
0.0
  0
TEXT
  5
B2
330
17
100
AcDbEntity
  8
A-ANNO-DIMS
100
AcDbText
 10
-1765.1519775390627
 20
5850.243091583252
 30
0.0
 40
250.0
  1
9200
 72
1
 11
-1765.1519775390627
 21
5850.243091583252
 31
0.0
100
AcDbText
 73
2
  0
LINE
  5
B3
330
17
100
AcDbEntity
  8
A-ANNO-DIMS
370
18
100
AcDbLine
 10
2834.848022460937
 20
6475.243091583252
 30
0.0
 11
7734.8480224609375
 21
6475.243091583252
 31
0.0
  0
LINE
  5
B4
330
17
100
AcDbEntity
  8
A-ANNO-DIMS
370
18
100
AcDbLine
 10
2834.848022460937
 20
5675.243091583252
 30
0.0
 11
2834.848022460937
 21
6675.243091583252
 31
0.0
  0
LINE
  5
B5
330
17
100
AcDbEntity
  8
A-ANNO-DIMS
370
18
100
AcDbLine
 10
7734.8480224609375
 20
5675.243091583252
 30
0.0
 11
7734.8480224609375
 21
6675.243091583252
 31
0.0
  0
LINE
  5
B6
330
17
100
AcDbEntity
  8
A-ANNO-DIMS
370
18
100
AcDbLine
 10
7628.782005282956
 20
6369.17707440527
 30
0.0
 11
7840.914039638919
 21
6581.309108761234
 31
0.0
  0
TEXT
  5
B7
330
17
100
AcDbEntity
  8
A-ANNO-DIMS
100
AcDbText
 10
5284.8480224609375
 20
5850.243091583252
 30
0.0
 40
250.0
  1
4900
 72
1
 11
5284.8480224609375
 21
5850.243091583252
 31
0.0
100
AcDbText
 73
2
  0
LWPOLYLINE
  5
B8
330
17
100
AcDbEntity
  8
0
 62
7
100
AcDbPolyline
 90
4
 70
1
 10
-15087.652444839478
 20
-5950.0
 10
26912.347555160522
 20
-5950.0
 10
26912.347555160522
 20
9100.0
 10
-15087.652444839478
 20
9100.0
  0
LWPOLYLINE
  5
B9
330
17
100
AcDbEntity
  8
A-TTLB
370
70
100
AcDbPolyline
 90
4
 70
1
 10
-12587.652444839478
 20
-4950.0
 10
25912.347555160522
 20
-4950.0
 10
25912.347555160522
 20
8100.0
 10
-12587.652444839478
 20
8100.0
  0
LINE
  5
BA
330
17
100
AcDbEntity
  8
A-TTLB
370
70
100
AcDbLine
 10
13912.347555160522
 20
-4950.0
 30
0.0
 11
13912.347555160522
 21
8100.0
 31
0.0
  0
IMAGE
  5
BE
330
17
100
AcDbEntity
  8
A-TTLB
100
AcDbRasterImage
 90
0
 10
14112.347555160522
 20
6720.0
 30
0.0
 11
1.6853932584269662
 21
0.0
 31
0.0
 12
1.1269755820374415e-16
 22
1.8404907975460123
 32
0.0
 13
890.0
 23
652.0
340
BD
 70
3
280
0
281
50
282
50
283
0
360
BF
 71
1
 91
2
 14
-0.5
 24
-0.5
 14
889.5
 24
651.5
290
0
  0
TEXT
  5
C0
330
17
100
AcDbEntity
  8
A-TTLB
100
AcDbText
 10
20862.347555160522
 20
7515.0
 30
0.0
 40
390.0
  1
PUBLIC WORKS
 72
1
 11
20862.347555160522
 21
7515.0
 31
0.0
100
AcDbText
 73
2
  0
TEXT
  5
C1
330
17
100
AcDbEntity
  8
A-TTLB
100
AcDbText
 10
20862.347555160522
 20
7125.0
 30
0.0
 40
390.0
  1
DEPARTMENT MALAYSIA
 72
1
 11
20862.347555160522
 21
7125.0
 31
0.0
100
AcDbText
 73
2
  0
LINE
  5
C2
330
17
100
AcDbEntity
  8
A-TTLB
370
50
100
AcDbLine
 10
13912.347555160522
 20
6540.0
 30
0.0
 11
25912.347555160522
 21
6540.0
 31
0.0
  0
TEXT
  5
C3
330
17
100
AcDbEntity
  8
A-TTLB
100
AcDbText
 10
19912.347555160522
 20
5980.0
 30
0.0
 40
500.0
  1
SINGLE STOREY RESIDENTIAL
 72
1
 11
19912.347555160522
 21
5980.0
 31
0.0
100
AcDbText
 73
2
  0
TEXT
  5
C4
330
17
100
AcDbEntity
  8
A-TTLB
100
AcDbText
 10
19912.347555160522
 20
5388.0
 30
0.0
 40
300.0
  1
Ifc4 SampleHouse
 72
1
 11
19912.347555160522
 21
5388.0
 31
0.0
100
AcDbText
 73
2
  0
LINE
  5
C5
330
17
100
AcDbEntity
  8
A-TTLB
370
35
100
AcDbLine
 10
13912.347555160522
 20
4940.0
 30
0.0
 11
25912.347555160522
 21
4940.0
 31
0.0
  0
LINE
  5
C6
330
17
100
AcDbEntity
  8
A-TTLB
370
18
100
AcDbLine
 10
13912.347555160522
 20
-4950.0
 30
0.0
 11
25912.347555160522
 21
-4950.0
 31
0.0
  0
LINE
  5
C7
330
17
100
AcDbEntity
  8
A-TTLB
370
18
100
AcDbLine
 10
17512.347555160522
 20
-4950.0
 30
0.0
 11
17512.347555160522
 21
-4050.909090909091
 31
0.0
  0
TEXT
  5
C8
330
17
100
AcDbEntity
  8
A-TTLB
100
AcDbText
 10
15712.347555160522
 20
-4500.454545454545
 30
0.0
 40
200.0
  1
REVISION NO.
 72
1
 11
15712.347555160522
 21
-4500.454545454545
 31
0.0
100
AcDbText
 73
2
  0
TEXT
  5
C9
330
17
100
AcDbEntity
  8
A-TTLB
100
AcDbText
 10
21712.347555160522
 20
-4500.454545454545
 30
0.0
 40
300.0
  1
0
 72
1
 11
21712.347555160522
 21
-4500.454545454545
 31
0.0
100
AcDbText
 73
2
  0
LINE
  5
CA
330
17
100
AcDbEntity
  8
A-TTLB
370
18
100
AcDbLine
 10
13912.347555160522
 20
-4050.909090909091
 30
0.0
 11
25912.347555160522
 21
-4050.909090909091
 31
0.0
  0
LINE
  5
CB
330
17
100
AcDbEntity
  8
A-TTLB
370
18
100
AcDbLine
 10
17512.347555160522
 20
-4050.909090909091
 30
0.0
 11
17512.347555160522
 21
-3151.818181818182
 31
0.0
  0
TEXT
  5
CC
330
17
100
AcDbEntity
  8
A-TTLB
100
AcDbText
 10
15712.347555160522
 20
-3601.3636363636365
 30
0.0
 40
200.0
  1
CHECKED BY
 72
1
 11
15712.347555160522
 21
-3601.3636363636365
 31
0.0
100
AcDbText
 73
2
  0
LINE
  5
CD
330
17
100
AcDbEntity
  8
A-TTLB
370
35
100
AcDbLine
 10
13912.347555160522
 20
-3151.818181818182
 30
0.0
 11
25912.347555160522
 21
-3151.818181818182
 31
0.0
  0
LINE
  5
CE
330
17
100
AcDbEntity
  8
A-TTLB
370
18
100
AcDbLine
 10
17512.347555160522
 20
-3151.818181818182
 30
0.0
 11
17512.347555160522
 21
-2252.727272727273
 31
0.0
  0
TEXT
  5
CF
330
17
100
AcDbEntity
  8
A-TTLB
100
AcDbText
 10
15712.347555160522
 20
-2702.2727272727275
 30
0.0
 40
200.0
  1
DRAWING NO.
 72
1
 11
15712.347555160522
 21
-2702.2727272727275
 31
0.0
100
AcDbText
 73
2
  0
TEXT
  5
D0
330
17
100
AcDbEntity
  8
A-TTLB
100
AcDbText
 10
21712.347555160522
 20
-2702.2727272727275
 30
0.0
 40
300.0
  1
A-03
 72
1
 11
21712.347555160522
 21
-2702.2727272727275
 31
0.0
100
AcDbText
 73
2
  0
LINE
  5
D1
330
17
100
AcDbEntity
  8
A-TTLB
370
18
100
AcDbLine
 10
13912.347555160522
 20
-2252.727272727273
 30
0.0
 11
25912.347555160522
 21
-2252.727272727273
 31
0.0
  0
LINE
  5
D2
330
17
100
AcDbEntity
  8
A-TTLB
370
18
100
AcDbLine
 10
17512.347555160522
 20
-2252.727272727273
 30
0.0
 11
17512.347555160522
 21
-1353.636363636364
 31
0.0
  0
TEXT
  5
D3
330
17
100
AcDbEntity
  8
A-TTLB
100
AcDbText
 10
15712.347555160522
 20
-1803.1818181818185
 30
0.0
 40
200.0
  1
DATE
 72
1
 11
15712.347555160522
 21
-1803.1818181818185
 31
0.0
100
AcDbText
 73
2
  0
LINE
  5
D4
330
17
100
AcDbEntity
  8
A-TTLB
370
18
100
AcDbLine
 10
13912.347555160522
 20
-1353.636363636364
 30
0.0
 11
25912.347555160522
 21
-1353.636363636364
 31
0.0
  0
LINE
  5
D5
330
17
100
AcDbEntity
  8
A-TTLB
370
18
100
AcDbLine
 10
17512.347555160522
 20
-1353.636363636364
 30
0.0
 11
17512.347555160522
 21
-454.54545454545485
 31
0.0
  0
TEXT
  5
D6
330
17
100
AcDbEntity
  8
A-TTLB
100
AcDbText
 10
15712.347555160522
 20
-904.0909090909095
 30
0.0
 40
200.0
  1
SCALE
 72
1
 11
15712.347555160522
 21
-904.0909090909095
 31
0.0
100
AcDbText
 73
2
  0
TEXT
  5
D7
330
17
100
AcDbEntity
  8
A-TTLB
100
AcDbText
 10
21712.347555160522
 20
-904.0909090909095
 30
0.0
 40
300.0
  1
1:100
 72
1
 11
21712.347555160522
 21
-904.0909090909095
 31
0.0
100
AcDbText
 73
2
  0
LINE
  5
D8
330
17
100
AcDbEntity
  8
A-TTLB
370
18
100
AcDbLine
 10
13912.347555160522
 20
-454.54545454545485
 30
0.0
 11
25912.347555160522
 21
-454.54545454545485
 31
0.0
  0
LINE
  5
D9
330
17
100
AcDbEntity
  8
A-TTLB
370
18
100
AcDbLine
 10
17512.347555160522
 20
-454.54545454545485
 30
0.0
 11
17512.347555160522
 21
444.5454545454543
 31
0.0
  0
TEXT
  5
DA
330
17
100
AcDbEntity
  8
A-TTLB
100
AcDbText
 10
15712.347555160522
 20
-5.000000000000284
 30
0.0
 40
200.0
  1
DRAWN BY
 72
1
 11
15712.347555160522
 21
-5.000000000000284
 31
0.0
100
AcDbText
 73
2
  0
LINE
  5
DB
330
17
100
AcDbEntity
  8
A-TTLB
370
35
100
AcDbLine
 10
13912.347555160522
 20
444.5454545454543
 30
0.0
 11
25912.347555160522
 21
444.5454545454543
 31
0.0
  0
LINE
  5
DC
330
17
100
AcDbEntity
  8
A-TTLB
370
18
100
AcDbLine
 10
17512.347555160522
 20
444.5454545454543
 30
0.0
 11
17512.347555160522
 21
1343.6363636363635
 31
0.0
  0
TEXT
  5
DD
330
17
100
AcDbEntity
  8
A-TTLB
100
AcDbText
 10
15712.347555160522
 20
894.0909090909088
 30
0.0
 40
200.0
  1
DRAWING TITLE
 72
1
 11
15712.347555160522
 21
894.0909090909088
 31
0.0
100
AcDbText
 73
2
  0
TEXT
  5
DE
330
17
100
AcDbEntity
  8
A-TTLB
100
AcDbText
 10
21712.347555160522
 20
894.0909090909088
 30
0.0
 40
300.0
  1
REAR ELEVATION
 72
1
 11
21712.347555160522
 21
894.0909090909088
 31
0.0
100
AcDbText
 73
2
  0
LINE
  5
DF
330
17
100
AcDbEntity
  8
A-TTLB
370
35
100
AcDbLine
 10
13912.347555160522
 20
1343.6363636363635
 30
0.0
 11
25912.347555160522
 21
1343.6363636363635
 31
0.0
  0
LINE
  5
E0
330
17
100
AcDbEntity
  8
A-TTLB
370
18
100
AcDbLine
 10
17512.347555160522
 20
1343.6363636363635
 30
0.0
 11
17512.347555160522
 21
2242.7272727272725
 31
0.0
  0
TEXT
  5
E1
330
17
100
AcDbEntity
  8
A-TTLB
100
AcDbText
 10
15712.347555160522
 20
1793.181818181818
 30
0.0
 40
200.0
  1
BUILDING TYPE
 72
1
 11
15712.347555160522
 21
1793.181818181818
 31
0.0
100
AcDbText
 73
2
  0
TEXT
  5
E2
330
17
100
AcDbEntity
  8
A-TTLB
100
AcDbText
 10
21712.347555160522
 20
1793.181818181818
 30
0.0
 40
300.0
  1
SINGLE STOREY RESIDENTIAL
 72
1
 11
21712.347555160522
 21
1793.181818181818
 31
0.0
100
AcDbText
 73
2
  0
LINE
  5
E3
330
17
100
AcDbEntity
  8
A-TTLB
370
35
100
AcDbLine
 10
13912.347555160522
 20
2242.7272727272725
 30
0.0
 11
25912.347555160522
 21
2242.7272727272725
 31
0.0
  0
LINE
  5
E4
330
17
100
AcDbEntity
  8
A-TTLB
370
18
100
AcDbLine
 10
17512.347555160522
 20
2242.7272727272725
 30
0.0
 11
17512.347555160522
 21
3141.8181818181815
 31
0.0
  0
TEXT
  5
E5
330
17
100
AcDbEntity
  8
A-TTLB
100
AcDbText
 10
15712.347555160522
 20
2692.272727272727
 30
0.0
 40
200.0
  1
ARCHITECT
 72
1
 11
15712.347555160522
 21
2692.272727272727
 31
0.0
100
AcDbText
 73
2
  0
LINE
  5
E6
330
17
100
AcDbEntity
  8
A-TTLB
370
18
100
AcDbLine
 10
13912.347555160522
 20
3141.8181818181815
 30
0.0
 11
25912.347555160522
 21
3141.8181818181815
 31
0.0
  0
LINE
  5
E7
330
17
100
AcDbEntity
  8
A-TTLB
370
18
100
AcDbLine
 10
17512.347555160522
 20
3141.8181818181815
 30
0.0
 11
17512.347555160522
 21
4040.9090909090905
 31
0.0
  0
TEXT
  5
E8
330
17
100
AcDbEntity
  8
A-TTLB
100
AcDbText
 10
15712.347555160522
 20
3591.363636363636
 30
0.0
 40
200.0
  1
CLIENT
 72
1
 11
15712.347555160522
 21
3591.363636363636
 31
0.0
100
AcDbText
 73
2
  0
LINE
  5
E9
330
17
100
AcDbEntity
  8
A-TTLB
370
35
100
AcDbLine
 10
13912.347555160522
 20
4040.9090909090905
 30
0.0
 11
25912.347555160522
 21
4040.9090909090905
 31
0.0
  0
LINE
  5
EA
330
17
100
AcDbEntity
  8
A-TTLB
370
18
100
AcDbLine
 10
17512.347555160522
 20
4040.9090909090905
 30
0.0
 11
17512.347555160522
 21
4940.0
 31
0.0
  0
TEXT
  5
EB
330
17
100
AcDbEntity
  8
A-TTLB
100
AcDbText
 10
15712.347555160522
 20
4490.454545454545
 30
0.0
 40
200.0
  1
PROJECT
 72
1
 11
15712.347555160522
 21
4490.454545454545
 31
0.0
100
AcDbText
 73
2
  0
TEXT
  5
EC
330
17
100
AcDbEntity
  8
A-ANNO-TEXT
 62
8
100
AcDbText
 10
662.3475551605225
 20
-4050.0
 30
0.0
 40
300.0
  1
scale 1:100
 72
1
 11
662.3475551605225
 21
-4050.0
 31
0.0
100
AcDbText
 73
2
  0
SOLID
  5
ED
330
17
100
AcDbEntity
  8
A-ANNO-DIMS
 62
7
100
AcDbTrace
 10
-1837.6524448394775
 20
-4650.0
 30
0.0
 11
-837.6524448394775
 21
-4650.0
 31
0.0
 12
-1837.6524448394775
 22
-4450.0
 32
0.0
 13
-837.6524448394775
 23
-4450.0
 33
0.0
  0
SOLID
  5
EE
330
17
100
AcDbEntity
  8
A-ANNO-DIMS
 62
0
100
AcDbTrace
 10
-837.6524448394775
 20
-4650.0
 30
0.0
 11
162.34755516052246
 21
-4650.0
 31
0.0
 12
-837.6524448394775
 22
-4450.0
 32
0.0
 13
162.34755516052246
 23
-4450.0
 33
0.0
  0
SOLID
  5
EF
330
17
100
AcDbEntity
  8
A-ANNO-DIMS
 62
7
100
AcDbTrace
 10
162.34755516052246
 20
-4650.0
 30
0.0
 11
3162.3475551605225
 21
-4650.0
 31
0.0
 12
162.34755516052246
 22
-4450.0
 32
0.0
 13
3162.3475551605225
 23
-4450.0
 33
0.0
  0
TEXT
  5
F0
330
17
100
AcDbEntity
  8
A-ANNO-DIMS
100
AcDbText
 10
-1837.6524448394775
 20
-4810.0
 30
0.0
 40
200.0
  1
0
 72
1
 11
-1837.6524448394775
 21
-4810.0
 31
0.0
100
AcDbText
 73
2
  0
TEXT
  5
F1
330
17
100
AcDbEntity
  8
A-ANNO-DIMS
100
AcDbText
 10
-837.6524448394775
 20
-4150.0
 30
0.0
 40
200.0
  1
1
 72
1
 11
-837.6524448394775
 21
-4150.0
 31
0.0
100
AcDbText
 73
2
  0
TEXT
  5
F2
330
17
100
AcDbEntity
  8
A-ANNO-DIMS
100
AcDbText
 10
162.34755516052246
 20
-4810.0
 30
0.0
 40
200.0
  1
2
 72
1
 11
162.34755516052246
 21
-4810.0
 31
0.0
100
AcDbText
 73
2
  0
TEXT
  5
F3
330
17
100
AcDbEntity
  8
A-ANNO-DIMS
100
AcDbText
 10
3162.3475551605225
 20
-4150.0
 30
0.0
 40
200.0
  1
5m
 72
1
 11
3162.3475551605225
 21
-4150.0
 31
0.0
100
AcDbText
 73
2
  0
ENDSEC
  0
SECTION
  2
OBJECTS
  0
DICTIONARY
  5
A
330
0
100
AcDbDictionary
281
1
  3
ACAD_COLOR
350
B
  3
ACAD_GROUP
350
C
  3
ACAD_LAYOUT
350
D
  3
ACAD_MATERIAL
350
E
  3
ACAD_MLEADERSTYLE
350
F
  3
ACAD_MLINESTYLE
350
10
  3
ACAD_PLOTSETTINGS
350
11
  3
ACAD_PLOTSTYLENAME
350
12
  3
ACAD_SCALELIST
350
14
  3
ACAD_TABLESTYLE
350
15
  3
ACAD_VISUALSTYLE
350
16
  3
EZDXF_META
350
2D
  3
ACAD_IMAGE_VARS
350
BB
  3
ACAD_IMAGE_DICT
350
BC
  0
DICTIONARY
  5
B
330
A
100
AcDbDictionary
281
1
  0
DICTIONARY
  5
C
330
A
100
AcDbDictionary
281
1
  0
DICTIONARY
  5
D
330
A
100
AcDbDictionary
281
1
  3
Model
350
1A
  3
Layout1
350
1E
  0
DICTIONARY
  5
E
330
A
100
AcDbDictionary
281
1
  3
ByBlock
350
1F
  3
ByLayer
350
20
  3
Global
350
21
  0
DICTIONARY
  5
F
330
A
100
AcDbDictionary
281
1
  3
Standard
350
2C
  0
DICTIONARY
  5
10
330
A
100
AcDbDictionary
281
1
  3
Standard
350
22
  0
DICTIONARY
  5
11
330
A
100
AcDbDictionary
281
1
  0
ACDBDICTIONARYWDFLT
  5
12
330
A
100
AcDbDictionary
281
1
  3
Normal
350
13
100
AcDbDictionaryWithDefault
340
13
  0
ACDBPLACEHOLDER
  5
13
330
12
  0
DICTIONARY
  5
14
330
A
100
AcDbDictionary
281
1
  0
DICTIONARY
  5
15
330
A
100
AcDbDictionary
281
1
  0
DICTIONARY
  5
16
330
A
100
AcDbDictionary
281
1
  0
LAYOUT
  5
1A
330
D
100
AcDbPlotSettings
  1

  4
A3
  6

 40
7.5
 41
20.0
 42
7.5
 43
20.0
 44
420.0
 45
297.0
 46
0.0
 47
0.0
 48
0.0
 49
0.0
140
0.0
141
0.0
142
1.0
143
1.0
 70
1024
 72
1
 73
0
 74
5
  7

 75
16
 76
0
 77
2
 78
300
147
1.0
148
0.0
149
0.0
100
AcDbLayout
  1
Model
 70
1
 71
0
 10
0.0
 20
0.0
 11
420.0
 21
297.0
 12
0.0
 22
0.0
 32
0.0
 14
1e+20
 24
1e+20
 34
1e+20
 15
-1e+20
 25
-1e+20
 35
-1e+20
146
0.0
 13
0.0
 23
0.0
 33
0.0
 16
1.0
 26
0.0
 36
0.0
 17
0.0
 27
1.0
 37
0.0
 76
1
330
17
  0
LAYOUT
  5
1E
330
D
100
AcDbPlotSettings
  1

  4
A3
  6

 40
7.5
 41
20.0
 42
7.5
 43
20.0
 44
420.0
 45
297.0
 46
0.0
 47
0.0
 48
0.0
 49
0.0
140
0.0
141
0.0
142
1.0
143
1.0
 70
0
 72
1
 73
0
 74
5
  7

 75
16
 76
0
 77
2
 78
300
147
1.0
148
0.0
149
0.0
100
AcDbLayout
  1
Layout1
 70
1
 71
1
 10
0.0
 20
0.0
 11
420.0
 21
297.0
 12
0.0
 22
0.0
 32
0.0
 14
1e+20
 24
1e+20
 34
1e+20
 15
-1e+20
 25
-1e+20
 35
-1e+20
146
0.0
 13
0.0
 23
0.0
 33
0.0
 16
1.0
 26
0.0
 36
0.0
 17
0.0
 27
1.0
 37
0.0
 76
1
330
1B
  0
MATERIAL
  5
1F
102
{ACAD_REACTORS
330
E
102
}
330
E
100
AcDbMaterial
  1
ByBlock
  2

 70
0
 40
1.0
 71
1
 41
1.0
 91
-1023410177
 42
1.0
 72
1
  3

 73
1
 74
1
 75
1
 44
0.5
 73
0
 45
1.0
 46
1.0
 77
1
  4

 78
1
 79
1
170
1
 48
1.0
171
1
  6

172
1
173
1
174
1
140
1.0
141
1.0
175
1
  7

176
1
177
1
178
1
143
1.0
179
1
  8

270
1
271
1
272
1
145
1.0
146
1.0
273
1
  9

274
1
275
1
276
1
 42
1.0
 72
1
  3

 73
1
 74
1
 75
1
 94
63
  0
MATERIAL
  5
20
102
{ACAD_REACTORS
330
E
102
}
330
E
100
AcDbMaterial
  1
ByLayer
  2

 70
0
 40
1.0
 71
1
 41
1.0
 91
-1023410177
 42
1.0
 72
1
  3

 73
1
 74
1
 75
1
 44
0.5
 73
0
 45
1.0
 46
1.0
 77
1
  4

 78
1
 79
1
170
1
 48
1.0
171
1
  6

172
1
173
1
174
1
140
1.0
141
1.0
175
1
  7

176
1
177
1
178
1
143
1.0
179
1
  8

270
1
271
1
272
1
145
1.0
146
1.0
273
1
  9

274
1
275
1
276
1
 42
1.0
 72
1
  3

 73
1
 74
1
 75
1
 94
63
  0
MATERIAL
  5
21
102
{ACAD_REACTORS
330
E
102
}
330
E
100
AcDbMaterial
  1
Global
  2

 70
0
 40
1.0
 71
1
 41
1.0
 91
-1023410177
 42
1.0
 72
1
  3

 73
1
 74
1
 75
1
 44
0.5
 73
0
 45
1.0
 46
1.0
 77
1
  4

 78
1
 79
1
170
1
 48
1.0
171
1
  6

172
1
173
1
174
1
140
1.0
141
1.0
175
1
  7

176
1
177
1
178
1
143
1.0
179
1
  8

270
1
271
1
272
1
145
1.0
146
1.0
273
1
  9

274
1
275
1
276
1
 42
1.0
 72
1
  3

 73
1
 74
1
 75
1
 94
63
  0
MLINESTYLE
  5
22
102
{ACAD_REACTORS
330
10
102
}
330
10
100
AcDbMlineStyle
  2
Standard
 70
0
  3

 62
256
 51
90.0
 52
90.0
 71
2
 49
0.5
 62
256
  6
BYLAYER
 49
-0.5
 62
256
  6
BYLAYER
  0
MLEADERSTYLE
  5
2C
102
{ACAD_REACTORS
330
F
102
}
330
F
100
AcDbMLeaderStyle
179
2
170
2
171
1
172
0
 90
2
 40
0.0
 41
0.0
173
1
 91
-1056964608
 92
-2
290
1
 42
2.0
291
1
 43
8.0
  3
Standard
 44
4.0
300

342
29
174
1
175
1
176
0
178
1
 93
-1056964608
 45
4.0
292
0
297
0
 46
4.0
 94
-1056964608
 47
1.0
 49
1.0
140
1.0
294
1
141
0.0
177
0
142
1.0
295
0
296
0
143
3.75
271
0
272
9
273
9
  0
DICTIONARY
  5
2D
330
A
100
AcDbDictionary
280
1
281
1
  3
CREATED_BY_EZDXF
350
2E
  3
WRITTEN_BY_EZDXF
350
F6
  0
DICTIONARYVAR
  5
2E
330
2D
100
DictionaryVariables
280
0
  1
1.4.3 @ 2026-04-19T08:14:51.591456+00:00
  0
RASTERVARIABLES
  5
BB
102
{ACAD_REACTORS
330
A
102
}
330
A
100
AcDbRasterVariables
 90
0
 70
0
 71
1
 72
3
  0
DICTIONARY
  5
BC
330
A
100
AcDbDictionary
281
1
  3
/home/red1/bim-compiler/2D_Layout/python/../input/jkr.png
350
BD
  0
IMAGEDEF
  5
BD
102
{ACAD_REACTORS
330
BC
330
BF
102
}
330
BC
100
AcDbRasterImageDef
 90
0
  1
/home/red1/bim-compiler/2D_Layout/python/../input/jkr.png
 10
890.0
 20
652.0
 11
0.01
 21
0.01
280
1
281
0
  0
IMAGEDEF_REACTOR
  5
BF
330
BE
100
AcDbRasterImageDefReactor
 90
2
330
BE
  0
DICTIONARYVAR
  5
F6
330
2D
100
DictionaryVariables
280
0
  1
1.4.3 @ 2026-04-19T08:14:51.598136+00:00
  0
ENDSEC
  0
EOF
